<?xml version="1.0" encoding="iso-8859-1"?>
<!-- Generator: Adobe Illustrator 16.0.0, SVG Export Plug-In . SVG Version: 6.00 Build 0)  -->
<!DOCTYPE svg PUBLIC "-//W3C//DTD SVG 1.1//EN" "http://www.w3.org/Graphics/SVG/1.1/DTD/svg11.dtd">
<svg version="1.1" id="Capa_1" xmlns="http://www.w3.org/2000/svg" xmlns:xlink="http://www.w3.org/1999/xlink" x="0px" y="0px"
	 width="564.377px" height="564.377px" viewBox="0 0 564.377 564.377" style="enable-background:new 0 0 564.377 564.377;"
	 xml:space="preserve">
<g>
	<g>
		<path d="M563.473,528.105c-6.438-20.959-11-37.96-21.216-57.463c-9.764-18.638-17.532-38.213-29.441-55.867
			c-8.907-13.199-15.12-28.214-22.55-42.412c-4.003-7.653-7.716-15.52-16.74-18.764c-7.896-2.836-15.773-5.704-23.652-8.58
			c-3.721-1.718-7.613-3.142-11.64-4.256c-2.946-1.077-5.892-2.154-8.842-3.231c-15.794-5.765-31.012-12.778-44.823-22.415
			c-8.809-6.148-17.078-13.064-25.63-19.588c-3.664-2.795-5.101-5.904-3.505-10.702c1.122-3.37,0.722-7.229,1.122-10.857
			c0.473-4.28,0.759-8.629,1.787-12.783c0.42-1.697,2.321-3.48,3.998-4.325c4.129-2.068,8.604-3.431,12.783-5.414
			c6.862-3.256,9.856-2.889,15.744,2.073c1.253,1.053,3.488,2.415,4.55,1.958c4.357-1.881,5.3-6.022,5.365-10.347
			c0.004-0.2-0.025-0.375-0.033-0.567c0.208-2.163-0.502-4.407-2.13-6.03l-2.664-2.665c-1.208-1.208-2.75-1.897-4.35-2.093
			c-1.22-0.465-2.443-0.91-3.696-1.024c-0.897-0.085-1.778-0.188-2.64-0.314l-1.347-0.53c-0.877-0.347-1.782-0.437-2.676-0.343
			c-0.192-0.057-0.388-0.114-0.576-0.175c-0.534-0.286-1.102-0.514-1.692-0.665c-3.027-1.354-5.578-3.562-7.381-7.291
			c-1.069-2.211-3.276-4.513-5.508-5.414c-11.824-4.762-23.819-4.982-34.938,1.729c-5.753,3.472-10.742,8.287-15.834,12.767
			c-9.352,8.217-19.156,9.82-27.564,3.492c-7.014-5.275-14.399-10.481-20.029-17.075c-9.025-10.571-17.833-21.632-24.753-33.627
			c-11.257-19.515-20.882-39.967-31.294-59.972c-1.199-2.301-2.591-4.929-4.639-6.295c-9.898-6.618-19.674-13.59-30.208-19.054
			c-15.002-7.78-31.13-13.468-45.863-21.689C114.644,69.183,96.9,64.564,79.442,58.942c-11.004-3.542-22.648-5.247-33.411-9.335
			C31.71,44.168,17.969,37.212,3.978,30.908H0c0.645,1.29,1.188,2.64,1.955,3.852c2.02,3.191,4.239,6.255,6.185,9.486
			c1.342,2.228,2.26,4.708,3.566,6.96c0.751,1.293,2.048,2.264,2.856,3.533c4.712,7.405,9.021,15.121,16.887,19.877
			c0.84,0.506,1.114,1.869,1.856,2.624c4.606,4.684,9.298,9.286,13.913,13.966c1.897,1.922,3.346,4.472,5.553,5.867
			c5.524,3.493,11.31,6.589,17.099,9.637c2.02,1.061,6.104,1.24,6.267,2.289c0.885,5.639,6.564,5.039,9.229,6.014
			c8.576,3.137,15.854,9.278,25.646,9.976c6.52,0.465,12.881,3.7,19.213,5.973c2.093,0.75,3.958,2.248,5.798,3.578
			c4.941,3.578,9.474,7.919,14.827,10.673c4.182,2.15,5.932,5.304,7.495,9.094c1.347,3.264,2.677,6.532,4.035,9.788
			c0.551,1.318,1.184,2.604,1.734,3.921c0.975,2.334,1.644,4.843,2.933,6.985c1.506,2.501,3.954,4.476,5.268,7.046
			c3.452,6.773,6.304,13.856,9.788,20.612c0.445,0.857,0.918,1.701,1.379,2.55c1.436,4.558,3.762,8.67,6.916,12.081
			c0.775,1.338,1.542,2.676,2.289,4.027c2.203,3.99,3.207,9.221,6.405,11.958c6.01,5.133,5.5,14.411,13.219,18.458
			c2.317,1.216,2.473,6.283,4.007,9.396c0.689,1.404,2.33,2.342,3.537,3.493c0.379,1.546,1.31,2.815,2.105,4.166
			c1.73,2.934,3.603,5.814,5.01,8.899c1.114,2.448,1.358,5.291,2.472,7.744c1.302,2.859,0.119,13.284-1.587,15.977
			c-4.676,7.377-9.857,14.59-13.366,22.518c-9.314,21.062-21.069,39.548-43.676,48.564c-1.2,0.478-2.599,2.771-2.419,3.994
			c0.693,4.688,1.995,9.29,3.076,13.966c-5.234,3.121-10.31,6.148-15.341,9.151c5.524,11.392,5.524,11.392,11.208,8.621
			c2.693,2.778,5.128,5.292,8.095,8.352c3.692-2.146,8.017-3.822,11.244-6.724c0.437-0.392,0.881-0.747,1.326-1.085
			c2.248-0.979,4.418-2.077,6.516-3.289c3.191-0.975,6.565-1.297,10.049-1.51c5.075-0.31,9.567-1.484,11.815-7.103
			c3.15-7.866,8.527-13.896,16.806-16.659c8.952-2.986,17.878-6.152,27.018-8.438c11.102-2.774,21.726-6.475,30.348-14.12
			c4.292-3.807,8.854-3.081,13.007-1.804c13.966,4.3,27.687,9.392,41.575,13.945c7.752,2.542,15.708,4.447,23.472,6.948
			c9.535,3.072,18.948,6.516,28.454,9.678c2.746,0.914,5.716,1.184,8.434,2.158c4.019,1.444,7.76,3.949,11.869,4.778
			c10.253,2.072,20.139,5.218,29.326,10.024c3.673,1.921,7.022,5.435,9.205,9.021c4.965,8.147,9.184,16.753,13.578,25.239
			c4.309,8.311,8.335,16.769,12.762,25.019c1.277,2.374,3.428,4.312,5.32,6.319c1.845,1.955,3.896,3.709,5.807,5.61
			c2.786,2.774,5.487,5.63,8.303,8.372c0.93,0.906,2.562,1.351,3.06,2.395c2.432,5.112,5.528,9.115,11.358,10.931
			c2.285,0.71,3.986,3.452,5.822,5.394c1.702,1.8,2.995,4.048,4.876,5.603c6.769,5.589,13.709,10.967,20.388,16.267
			c-0.045,0.216,0.131-0.648,0.388-1.918c2.9,5.912,2.35-0.656,3.811-0.905c1.326,5.896,4.097,10.481,9.939,12.57
			c4.01,0.926,2.908-1.979,2.994-3.994C564.027,528.905,563.611,528.546,563.473,528.105z"/>
	</g>
</g>
<g>
</g>
<g>
</g>
<g>
</g>
<g>
</g>
<g>
</g>
<g>
</g>
<g>
</g>
<g>
</g>
<g>
</g>
<g>
</g>
<g>
</g>
<g>
</g>
<g>
</g>
<g>
</g>
<g>
</g>
</svg>
