<svg id="Capa_1" enable-background="new 0 0 512 512" height="512" viewBox="0 0 512 512" width="512" xmlns="http://www.w3.org/2000/svg"><g><g><g><g><g><g><g><g><g><g><g><g><g><g><g><g><g><circle cx="256" cy="256" fill="#ffea98" r="256"/></g></g></g></g></g></g></g></g></g></g></g></g></g></g></g></g><path d="m511.999 255.287c-.059-21.082-2.683-41.554-7.543-61.141l-37.649-37.649-72.832-3.39-38.494-38.494-15.992 8.538-199.631 230.473-46.242 64.556 80.406 80.406c25.955 8.769 53.768 13.493 82.691 13.413 141.385-.394 255.68-115.328 255.286-256.712z" fill="#fd5"/><g><g><path d="m199.914 357.533v-13.872h61.373l8.493 6.936-8.493 6.936z" fill="#464646"/><path d="m292.145 357.533h-30.858v-13.872h16.986c7.661 0 13.872 6.211 13.872 13.872z" fill="#2d2d2d"/></g><path d="m261.287 263.811-99.353 93.496c19.975 2.186 60.5 3.111 99.353-10.638l10.713-43.746z" fill="#ffb555"/><path d="m126.037 340.505-32.421 77.675s21.614 20.263 77-74.298z" fill="#8bbbff"/><path d="m314.664 173.851-11.897 24.227-4.633 21.573 9.138 15.721s29.129-1.506 48.209-23.846c-.001-.004-.001-.008-.002-.012 8.854-11.782 14.566-26.058 15.896-41.586.011-.142.025-.281.036-.424.027-.336.04-.676.063-1.013.111-1.805.185-3.651.204-5.555l-51.072 8.305z" fill="#efefef"/><path d="m366.168 165.953s-64.338-20.885-148.476-11.621c0 0 73.776-37.081 148.476-20.361z" fill="#ff9e22"/><path d="m261.287 263.811v82.858c46.438-16.434 90.486-53.834 94.194-135.142l-52.714-13.449z" fill="#ff9e22"/><path d="m261.287 87.529c-27.807 10.87-48.129 36.673-51.104 67.552-.001.001-.003.002-.005.003 0 0-.117.09-.318.25-4.5 3.522-8.659 7.455-12.422 11.748-21.643 22.927-64.27 79.958-74.734 181.609 0 0 15.296 5.995 39.23 8.615l23.248-9.628c32.678-16.748 57.422-33.056 76.105-48.422l10.713-108.63z" fill="#8bbbff"/><path d="m315.814 221.314c3.873-20.984 17.621-38.825 36.62-48.539l19.243-9.838c0-44.703-36.238-80.941-80.941-80.941-10.392 0-20.323 1.965-29.45 5.533v211.728c38.081-31.318 50.98-58.72 54.528-77.943z" fill="#4894ff"/><path d="m261.287 138.575c-26.309 7.069-43.596 15.757-43.596 15.757 15.275-1.682 29.893-2.366 43.596-2.366l10.001-6.749z" fill="#ffb555"/><path d="m261.287 138.575v13.391c61.778.001 104.881 13.987 104.881 13.987v-31.982c-38.542-8.627-76.838-2.931-104.881 4.604z" fill="#ff9e22"/><g><g><g><circle cx="326.332" cy="142.894" fill="#fff" r="12.019"/></g><g><circle cx="326.332" cy="142.894" fill="#2d2d2d" r="8.499"/></g></g></g><path d="m456.676 165.953h-90.508c-6.925-9.536-6.925-22.446 0-31.982l100.64 22.526z" fill="#464646"/></g></g></svg>