<svg height="512" viewBox="0 0 64 64" width="512" xmlns="http://www.w3.org/2000/svg"><g id="flat"><path d="m60.293 20.707-2.293-2.293-2.293 2.293-1.414-1.414 3-3a1 1 0 0 1 1.414 0l3 3z" fill="#5a6470"/><path d="m58 3a3 3 0 0 0 -3 3v6c0 1.657 3 5 3 5s3-3.343 3-5v-6a3 3 0 0 0 -3-3z" fill="#aabece"/><path d="m39 6v7a5.034 5.034 0 0 0 -2 2c-.956 1.85-.277 3.89 0 5 .557 2.233.035 4.822-1 10-1.571 7.856-8.882 18.285-19 20a18.324 18.324 0 0 1 -6 0l-.631-11.8 17.631-28.2z" fill="#f9bb4b"/><path d="m39 6 22 4-22 3z" fill="#394d5c"/><path d="m16 13a9.919 9.919 0 0 0 0 4 44.27 44.27 0 0 0 -6 7c-2.221 3.223-8.836 12.8-7 24a25.022 25.022 0 0 0 1 4v5a4 4 0 0 0 4 4l3-11a25.752 25.752 0 0 1 7-10c4.356-3.742 6.863-3.1 10-7 .3-.373 5.46-6.981 3-13a9.338 9.338 0 0 0 -2-3 6.851 6.851 0 0 1 2-3c3.2-2.724 7.757-1.091 8-1v-7c-3.575-1.332-6-3-11-3s-10.794 4.334-12 10z" fill="#4f97d5"/><path d="m16 17 5-5a2.122 2.122 0 0 1 3 0 2.122 2.122 0 0 1 0 3l-5 5z" fill="#394d5c"/><g fill="#2d75bb"><path d="m4.024 54a1 1 0 0 1 -.924-1.1 26.949 26.949 0 0 1 4.059-11.441 27.494 27.494 0 0 1 14.581-11.115.994.994 0 0 1 1.266.676 1 1 0 0 1 -.65 1.227 25.917 25.917 0 0 0 -13.515 10.294 24.921 24.921 0 0 0 -3.749 10.566 1 1 0 0 1 -1.068.893z"/><path d="m25 27h2v2h-2z"/><path d="m26 22h2v2h-2z"/><path d="m22 24h2v2h-2z"/><path d="m4.018 36.015a1 1 0 0 1 -.114-1.43 28.816 28.816 0 0 1 12.85-8.261 1 1 0 0 1 1.252.7 1 1 0 0 1 -.679 1.218 26.8 26.8 0 0 0 -11.92 7.658 1 1 0 0 1 -1.389.115z"/></g><path d="m17 50h8a4 4 0 0 1 4 4 0 0 0 0 1 0 0h-8a4 4 0 0 1 -4-4 0 0 0 0 1 0 0z" fill="#e97424"/><path d="m31 7h2v2h-2z" fill="#143441"/></g></svg>