<?xml version="1.0" encoding="iso-8859-1"?>
<!-- Generator: Adobe Illustrator 19.0.0, SVG Export Plug-In . SVG Version: 6.00 Build 0)  -->
<svg version="1.1" id="Capa_1" xmlns="http://www.w3.org/2000/svg" xmlns:xlink="http://www.w3.org/1999/xlink" x="0px" y="0px"
	 viewBox="0 0 512 512" style="enable-background:new 0 0 512 512;" xml:space="preserve">
<path style="fill:#FFB655;" d="M457.32,85.051c-1.343,7.955-3.001,17.021-5.067,27.247c-0.809,4.003-6.125,4.924-8.227,1.422
	c-40.221-66.974-24.44-29.794-72.356-63.149c17.863-4.851,25.155-20.481,26.286-35.641l24.842,10.119
	c8.266,3.112,15.391,8.057,21.027,14.238C454.826,51.337,460.169,68.079,457.32,85.051z"/>
<path style="fill:#884D00;" d="M457.32,85.051c-1.343,7.956-3.002,17.023-5.067,27.251c-0.809,4.006-6.125,4.924-8.229,1.42
	c-8.214-13.675-13.413-22.876-17.789-29.363c4.893-9.659,7.648-20.576,7.648-32.143c0-8.413-1.457-16.491-4.138-23.982
	c5.354,2.923,10.089,6.674,14.081,11.053C454.826,51.337,460.169,68.079,457.32,85.051z"/>
<path style="fill:#EE8700;" d="M314.435,447.555c-3.53,0-6.723-2.424-7.557-6.01l-4.965-21.368l-137.078-4.464
	c-2.595-0.085-4.977-1.461-6.345-3.667c-1.369-2.207-1.545-4.952-0.467-7.314l67.252-147.522c1.779-3.902,6.386-5.625,10.286-3.844
	c3.902,1.779,5.624,6.384,3.844,10.287l-62.419,136.92l131.393,4.279c3.516,0.114,6.514,2.577,7.31,6.004l6.315,27.177
	c0.971,4.176-1.629,8.35-5.805,9.321C315.608,447.489,315.016,447.555,314.435,447.555z"/>
<path style="fill:#FFB655;" d="M274.3,512h-39.121c-4.288,0-7.765-3.475-7.765-7.765V276.481c0-4.289,3.477-7.765,7.765-7.765
	c4.288,0,7.765,3.475,7.765,7.765v219.989H274.3c4.288,0,7.765,3.475,7.765,7.765S278.589,512,274.3,512z"/>
<path style="fill:#F072AE;" d="M361.732,65.626c56.387,0,56.638-65.626,0-65.626c-36.145,0-112.615,57.039-59.369,106.238
	c43.838,40.508,54.418,45.258,48.549,62.032c-5.876,16.796-15.609,13.783-86.928,18.984c-8.754,0.639-15.334,8.253-14.696,17.008
	c0.61,8.361,7.584,14.738,15.835,14.738c0.388,0,0.779-0.015,1.173-0.042l68.676-5.008c46.007-3.353,65.871-59.994,31.955-91.333
	c-44.705-41.308-54.916-45.798-48.284-62.746C327.228,37.928,325.85,65.626,361.732,65.626z"/>
<path style="fill:#EA348B;" d="M340.883,222.636c-6.139,40.573-75.152,89.335-194.345,67.574
	c-8.251-1.512-16.679-2.516-25.096-2.661c-36.929-0.652-49.425,15.964-52.624,21.834c-0.549,1.004-1.884,1.253-2.754,0.497
	c-12.776-11.067-14.815-24.298-9.162-38.244c3.748-9.256,10.891-18.832,20.53-28.315c0-0.01,0.01,0,0.01,0
	c62.004-60.937,227.381-117.516,259.113-57.21c0.186,0.321,0.352,0.652,0.518,0.984
	C341.576,196.236,343.098,207.955,340.883,222.636z"/>
<path style="fill:#ED539D;" d="M336.555,186.11c-19.95,39.331-91.209,77.626-204.429,56.951c-8.904-1.625-18.004-2.712-27.083-2.868
	c-11.14-0.197-20.219,1.066-27.601,3.127C139.446,182.383,304.823,125.805,336.555,186.11z"/>
<circle style="fill:#880E48;" cx="366.235" cy="30.814" r="9.745"/>
<g>
	<path style="fill:#C61469;" d="M239.569,224.023c4.276,0.414,8.055-2.744,8.448-7.019c0.393-4.265-2.744-8.055-7.019-8.448
		c-38.182-3.53-68.402,3.944-89.812,22.207c-27.239,23.232-29.651,55.285-29.734,56.641c0,0.052-0.01,0.093-0.01,0.145
		c4.742,0.083,9.887,0.445,15.467,1.16c0.021-0.083,0.021-0.176,0.031-0.259c0.021-0.269,2.226-27.156,24.505-46.029
		C179.543,227.087,205.829,220.907,239.569,224.023z"/>
	<path style="fill:#C61469;" d="M304.483,229.543c-3.054-3.01-7.97-2.974-10.98,0.08c-37.15,37.695-112.466,23.381-113.432,23.193
		c-4.201-0.839-8.293,1.893-9.13,6.098c-0.839,4.206,1.893,8.295,6.098,9.132c1.448,0.288,16.743,3.229,37.178,3.229
		c27.927,0,65.453-5.493,90.348-30.751C307.572,237.469,307.537,232.553,304.483,229.543z"/>
</g>
<g>
</g>
<g>
</g>
<g>
</g>
<g>
</g>
<g>
</g>
<g>
</g>
<g>
</g>
<g>
</g>
<g>
</g>
<g>
</g>
<g>
</g>
<g>
</g>
<g>
</g>
<g>
</g>
<g>
</g>
</svg>
