<?xml version="1.0" encoding="iso-8859-1"?>
<!-- Generator: Adobe Illustrator 19.0.0, SVG Export Plug-In . SVG Version: 6.00 Build 0)  -->
<svg version="1.1" id="Capa_1" xmlns="http://www.w3.org/2000/svg" xmlns:xlink="http://www.w3.org/1999/xlink" x="0px" y="0px"
	 viewBox="0 0 511.999 511.999" style="enable-background:new 0 0 511.999 511.999;" xml:space="preserve">
<path style="fill:#0081C6;" d="M419.216,366.456c-22.597,18.357-47.864,32.661-75.103,42.512
	c-16.725,6.048-33.968,10.312-51.552,12.792V134.577h-73.124v287.132c-46.901-6.707-91.446-26.186-128.204-56.522
	c-15.574-12.853-62.118,43.546-46.544,56.399c29.119,24.032,61.787,42.771,97.098,55.701
	c36.547,13.382,74.975,20.167,114.213,20.167c38.79,0,76.803-6.634,112.984-19.718c34.959-12.644,67.373-30.987,96.342-54.522
	C480.999,410.479,434.891,353.723,419.216,366.456z"/>
<rect x="219.433" y="270.431" style="opacity:0.15;enable-background:new    ;" width="73.123" height="19.321"/>
<path style="opacity:0.15;enable-background:new    ;" d="M91.233,365.187c-1.153-0.952-2.351-1.81-3.579-2.598
	c-10.45,4.531-18.434,7.993-18.44,7.995c-13.87,6.013-23.43,20.941-22.417,36.178l0.898,17.251
	c23.164,18.674,48.513,34.049,75.611,45.858l-1.949-37.441c-0.145-2.796,1.461-5.387,4.028-6.501l39.858-17.282
	c0.314-0.137,0.618-0.286,0.926-0.431C139.109,398.224,113.713,383.74,91.233,365.187z"/>
<path style="fill:#0081C6;" d="M166.682,350.388c-8.032-18.526-29.563-27.03-48.09-19c0,0-66.924,29.018-66.94,29.025
	c-13.87,6.013-23.43,20.941-22.417,36.178l3.755,72.134c1.065,20.474,18.713,36.747,39.163,35.29
	c19.817-1.413,34.938-18.442,33.901-38.37l-2.259-43.385c-0.145-2.796,1.461-5.387,4.028-6.5l39.857-17.282
	C166.208,390.444,174.715,368.913,166.682,350.388z"/>
<path style="opacity:0.15;enable-background:new    ;" d="M420.767,365.187c1.153-0.952,2.352-1.81,3.579-2.598
	c10.45,4.531,18.434,7.993,18.439,7.995c13.87,6.013,23.431,20.941,22.417,36.178l-0.898,17.251
	c-23.164,18.674-48.513,34.049-75.611,45.858l1.949-37.441c0.145-2.796-1.461-5.387-4.028-6.501l-39.857-17.282
	c-0.314-0.137-0.618-0.286-0.926-0.431C372.891,398.224,398.287,383.74,420.767,365.187z"/>
<path style="fill:#0081C6;" d="M345.318,350.388c8.032-18.526,29.563-27.03,48.09-19c0,0,66.924,29.018,66.94,29.025
	c13.87,6.013,23.43,20.941,22.417,36.178l-3.755,72.134c-1.066,20.474-18.714,36.747-39.164,35.29
	c-19.817-1.413-34.938-18.442-33.901-38.37l2.258-43.385c0.145-2.796-1.461-5.387-4.028-6.5l-39.857-17.282
	C345.792,390.444,337.285,368.913,345.318,350.388z"/>
<path style="opacity:0.15;enable-background:new    ;" d="M219.437,134.577v26.972c11.153,5.083,23.527,7.94,36.563,7.94
	s25.409-2.857,36.563-7.94v-26.972C292.563,134.577,219.437,134.577,219.437,134.577z"/>
<path style="fill:#0081C6;" d="M390.045,270.432h-268.09c-20.193,0-36.563-16.37-36.563-36.563s16.37-36.563,36.563-36.563h268.089
	c20.193,0,36.563,16.37,36.563,36.563C426.607,254.063,410.238,270.432,390.045,270.432z"/>
<g>
	<path style="fill:#E6595A;" d="M201.643,253.939h-18.155c-4.36,0-7.894-3.534-7.894-7.894s3.535-7.894,7.894-7.894h18.155
		c4.36,0,7.894,3.534,7.894,7.894S206.003,253.939,201.643,253.939z"/>
	<path style="fill:#E6595A;" d="M328.517,253.939h-18.155c-4.361,0-7.894-3.534-7.894-7.894s3.534-7.894,7.894-7.894h18.155
		c4.361,0,7.894,3.534,7.894,7.894S332.878,253.939,328.517,253.939z"/>
</g>
<path style="fill:#0081C6;" d="M256,152.932c-39.987,0-72.518-32.532-72.518-72.519S216.013,7.894,256,7.894
	s72.518,32.531,72.518,72.518S295.987,152.932,256,152.932z M256,55.094c-13.962,0-25.319,11.358-25.319,25.318
	c0,13.963,11.358,25.32,25.319,25.32s25.318-11.358,25.318-25.32C281.318,66.452,269.96,55.094,256,55.094z"/>
<g style="opacity:0.1;">
	<circle cx="412.562" cy="372.985" r="7.893"/>
	<circle cx="454.76" cy="427.14" r="7.893"/>
	<circle cx="162.888" cy="449.466" r="7.893"/>
	<circle cx="263.894" cy="408.341" r="7.893"/>
	<circle cx="63.545" cy="419.246" r="7.893"/>
	<circle cx="350.186" cy="438.508" r="7.893"/>
	<circle cx="246.737" cy="328.365" r="7.893"/>
	<circle cx="300.451" cy="94.628" r="7.893"/>
	<circle cx="205.276" cy="80.418" r="7.893"/>
</g>
<path d="M463.511,353.179c-0.017-0.007-0.027-0.013-66.964-29.035c-22.494-9.754-48.721,0.615-58.472,23.102v-0.001
	c-7.877,18.162-2.627,38.761,11.529,51.154c-2.725,1.098-5.452,2.16-8.177,3.145c-13.26,4.796-27.004,8.47-40.973,10.962v-134.18
	h89.588c24.514,0,44.456-19.942,44.456-44.456s-19.942-44.457-44.456-44.457h-89.588v-42.036
	c21.654-14.424,35.955-39.051,35.955-66.964C336.411,36.073,300.339,0,256,0c-44.34,0-80.412,36.073-80.412,80.414
	c0,27.913,14.302,52.54,35.955,66.964v42.036h-89.588c-24.513,0-44.456,19.943-44.456,44.457s19.943,44.456,44.456,44.456h89.588
	v134.112c-16.798-3.027-33.224-7.757-49.07-14.11c14.095-12.401,19.311-32.953,11.45-51.082
	c-9.751-22.488-35.982-32.854-58.472-23.102c-66.274,28.736-66.94,29.024-66.94,29.024c-17.194,7.455-28.354,25.497-27.157,43.887
	l3.752,72.078c0.629,12.09,6.22,23.646,15.338,31.706c8.212,7.258,18.455,11.161,29.135,11.16c1.041,0,2.087-0.037,3.135-0.111
	c20.968-1.494,37.738-17.681,40.787-37.778c8.417,3.889,16.976,7.442,25.572,10.589c37.419,13.702,76.76,20.649,116.928,20.649
	c39.71,0,78.625-6.792,115.669-20.19c9.047-3.273,18.029-6.977,26.832-11.043c3.05,20.095,19.82,36.28,40.785,37.773
	c1.048,0.074,2.093,0.111,3.135,0.111c10.68,0,20.923-3.902,29.135-11.16c9.119-8.06,14.71-19.616,15.339-31.706l3.751-72.081
	C491.842,378.663,480.682,360.625,463.511,353.179z M191.376,80.414c0-35.634,28.989-64.625,64.624-64.625
	c35.633,0,64.624,28.99,64.624,64.625S291.634,145.038,256,145.038C220.366,145.037,191.376,116.047,191.376,80.414z
	 M284.667,155.525v33.888h-57.336v-33.888c8.911,3.412,18.571,5.301,28.668,5.301C266.096,160.826,275.756,158.938,284.667,155.525z
	 M121.955,262.538c-15.808,0-28.667-12.861-28.667-28.667c0-15.809,12.861-28.668,28.667-28.668h268.089
	c15.808,0,28.667,12.861,28.667,28.668s-12.861,28.667-28.667,28.667H121.955z M95.912,422.67l2.259,43.386
	c0.806,15.488-11.117,28.983-26.579,30.084c-7.53,0.534-14.881-1.995-20.691-7.128c-5.962-5.27-9.617-12.813-10.028-20.696
	l-3.755-72.134c-0.002-0.038-0.004-0.076-0.006-0.114c-0.777-11.684,6.659-23.632,17.682-28.413
	c0.259-0.112,66.937-29.023,66.937-29.023c3.704-1.605,7.562-2.364,11.363-2.364c11.084,0,21.661,6.464,26.343,17.261
	c6.288,14.503-0.395,31.418-14.897,37.707l-39.858,17.282C99.121,410.928,95.596,416.618,95.912,422.67z M398.51,456.636
	c-10.49,5.136-21.304,9.729-32.211,13.674c-35.316,12.772-72.426,19.249-110.299,19.249c-38.31,0-75.824-6.623-111.499-19.685
	c-10.461-3.83-20.872-8.279-31.011-13.244l-1.767-33.955l33.541-14.543c23.239,10.581,47.796,17.78,73.057,21.394
	c0.373,0.054,0.746,0.079,1.118,0.079c1.887,0,3.727-0.678,5.172-1.93c1.729-1.499,2.722-3.675,2.722-5.964V278.326h57.336v143.434
	c0,2.286,0.991,4.46,2.717,5.959c1.445,1.256,3.287,1.936,5.178,1.936c0.366,0,0.735-0.025,1.102-0.077
	c18.137-2.558,36.014-6.994,53.136-13.185c6.699-2.423,13.419-5.192,20.038-8.218l33.442,14.5L398.51,456.636z M474.888,396.066
	c-0.002,0.038-0.005,0.076-0.007,0.114l-3.755,72.134c-0.411,7.883-4.064,15.426-10.027,20.696
	c-5.809,5.135-13.166,7.667-20.691,7.128c-15.46-1.101-27.384-14.596-26.577-30.084l2.259-43.387
	c0.314-6.055-3.212-11.742-8.773-14.151l-39.858-17.28c-14.504-6.29-21.186-23.204-14.897-37.706v-0.001
	c4.682-10.8,15.258-17.262,26.342-17.262c3.8,0,7.661,0.761,11.364,2.365c0,0,66.679,28.911,66.94,29.024
	C468.229,372.434,475.665,384.383,474.888,396.066z M289.212,80.412c0-18.313-14.898-33.213-33.212-33.213
	s-33.214,14.899-33.214,33.213s14.899,33.215,33.214,33.215C274.314,113.627,289.212,98.726,289.212,80.412z M238.575,80.412
	c0-9.608,7.817-17.425,17.426-17.425c9.607,0,17.424,7.817,17.424,17.425c0,9.609-7.817,17.427-17.423,17.427
	C246.392,97.838,238.575,90.021,238.575,80.412z M319.44,213.8c-4.361,0-7.894,3.534-7.894,7.894v2.977
	c0,4.361,3.534,7.894,7.894,7.894c4.361,0,7.894-3.534,7.894-7.894v-2.977C327.334,217.334,323.8,213.8,319.44,213.8z
	 M277.308,221.419c-4.361,0-7.894,3.534-7.894,7.894c0,1.52-1.238,2.758-2.758,2.758c-1.52,0-2.758-1.238-2.758-2.758
	c0-4.361-3.534-7.894-7.894-7.894c-4.36,0-7.894,3.534-7.894,7.894c0,1.52-1.238,2.758-2.759,2.758s-2.758-1.238-2.758-2.758
	c0-4.361-3.535-7.894-7.894-7.894s-7.894,3.534-7.894,7.894c0,10.227,8.32,18.547,18.547,18.547c3.961,0,7.637-1.247,10.653-3.371
	c3.016,2.124,6.69,3.371,10.652,3.371c10.227,0,18.547-8.32,18.547-18.547C285.202,224.953,281.667,221.419,277.308,221.419z
	 M192.566,213.8c-4.36,0-7.894,3.534-7.894,7.894v2.977c0,4.361,3.535,7.894,7.894,7.894s7.894-3.534,7.894-7.894v-2.977
	C200.46,217.334,196.926,213.8,192.566,213.8z"/>
<g>
</g>
<g>
</g>
<g>
</g>
<g>
</g>
<g>
</g>
<g>
</g>
<g>
</g>
<g>
</g>
<g>
</g>
<g>
</g>
<g>
</g>
<g>
</g>
<g>
</g>
<g>
</g>
<g>
</g>
</svg>
