<svg id="Layer_1" enable-background="new 0 0 511.999 511.999" height="512" viewBox="0 0 511.999 511.999" width="512" xmlns="http://www.w3.org/2000/svg"><g><g><g><path d="m278.798 301.587-90.097-123.389c-4.657-6.378-10.559-11.745-17.347-15.775l-163.852-97.269c17.688 38.045 42.907 72.099 74.129 100.1l24.585 22.048c21.399 19.191 36.848 44.125 44.514 71.843l17.618 63.702z" fill="#7191f0"/><path d="m188.136 178.764c-4.092-6.944-9.993-12.31-16.782-16.34l-163.852-97.27c4.337 9.328 9.132 18.413 14.352 27.231l118.934 70.604c6.789 4.03 12.69 9.396 17.347 15.775l90.097 123.389-81.281 15.646 1.396 5.049 109.884-20.695z" fill="#6084f0"/><path d="m375.243 213.132 49.024-43.966c33.794-30.308 61.09-67.167 80.235-108.345l-177.347 105.281c-7.348 4.362-13.735 10.17-18.776 17.074l-84.815 116.155c-33.37-3.775-60.87-5.55-73.934-3.39-24.803 4.1-45.035 22.652-46.768 47.756-2.084 30.178 21.756 55.307 51.458 55.307h200.9c14.521 0 28.38-6.083 38.217-16.775l7.241-7.87c7.677-8.344 18.492-13.091 29.824-13.091h44.718c0-12.492-8.871-23.219-21.13-25.554 0 0-53.912-10.128-116.961-20.28l20.377-73.678c3.055-11.042 9.211-20.977 17.737-28.624z" fill="#ebf9ff"/><g fill="#d7effa"><path d="m337.129 315.435 20.377-73.677c3.054-11.044 9.21-20.979 17.737-28.625l49.024-43.966c33.794-30.308 61.09-67.167 80.235-108.345l-58.861 34.942c-16.82 27.217-37.46 51.956-61.374 73.403l-49.024 43.966c-8.526 7.647-14.682 17.582-17.737 28.625l-18.965 68.572z"/><path d="m360.678 374.36-7.241 7.87c-9.838 10.692-23.696 16.774-38.217 16.774h40c14.521 0 28.38-6.083 38.217-16.774l7.241-7.87c7.677-8.344 18.492-13.091 29.824-13.091h-40c-11.331 0-22.146 4.747-29.824 13.091z"/><path d="m183.564 299.331 2.554-3.498c-16.02-1.071-28.772-1.168-36.488.107-.181.03-.359.068-.539.1 10.376.751 22.015 1.881 34.473 3.291z"/><path d=""/></g><path d="m109.83 373.669h-63.64v-.014c0-15.174 12.301-27.475 27.475-27.475h36.165c7.587 0 13.737 6.15 13.737 13.737v.014c0 7.587-6.15 13.738-13.737 13.738z" fill="#ffe940"/></g><g><path d="" fill="none"/><g fill="#d0e5e8"><path d=""/><path d=""/></g></g><g><path d="m504.502 60.821h-.001z" fill="none"/><path d="" fill="#d0e5e8"/><path d="" fill="#d0e5e8"/><path d="m264.988 290.398 59.717-87.997c3.776-5.564 8.423-10.483 13.764-14.568l166.032-127.012-177.346 105.281c-7.348 4.362-13.735 10.17-18.776 17.074l-84.815 116.155 19.768 1.507c8.568.654 16.831-3.33 21.656-10.44z" fill="#7191f0"/></g></g><g><path d="m380.251 218.716 49.024-43.966c34.732-31.149 62.322-68.4 82.004-110.718 3.077-6.496-4.323-13.394-10.606-9.66l-177.346 105.281c-8.139 4.83-15.421 11.453-21.006 19.101l-51.964 71.166-55.599-76.144c-5.285-7.238-11.872-13.228-19.577-17.801l-163.851-97.271c-6.204-3.685-13.67 3.07-10.629 9.611 12.832 27.6 29.535 53.172 49.646 76.006 6.41 7.277 17.666-2.637 11.256-9.914-13.445-15.268-25.294-31.821-35.391-49.425l141.313 83.89c5.95 3.532 11.037 8.158 15.118 13.749l58.427 80.017-20.999 28.758c-22.84-2.504-40.632-3.792-53.715-3.883l-8.398-30.366c-8.063-29.157-24.225-55.24-46.735-75.428l-24.585-22.048c-7.22-6.473-17.234 4.692-10.016 11.167l24.585 22.048c20.371 18.269 34.996 41.873 42.294 68.259l7.477 27.035c-26.723 3.178-50.957 23.254-55.093 50.5h-22.22c-19.285 0-34.975 15.689-34.975 34.989 0 4.142 3.357 7.5 7.5 7.5h59.807c7.586 16.412 31.624 25.335 48.322 25.335h66.985v10.977c0 13.851 11.261 25.119 25.102 25.119h23.133v8.808c0 9.697 15 9.697 15 0v-8.808h14.248v8.808c0 9.697 15 9.697 15 0v-16.308c0-4.142-3.357-7.5-7.5-7.5-10.211 0-20.422 0-30.633 0-5.569 0-10.101-4.539-10.101-10.119v-10.977h49.998c9.697 0 9.697-15 0-15h-161.231c-12.49 0-24.037-5.112-32.361-14.165 16.158-11.297 8.8-37.419-10.854-38.594 3.733-17.84 19.349-32.033 39.749-35.405 7.679-1.27 91.907 4.977 91.907 4.977 10.935.832 22.266-4.621 28.433-13.708l59.717-87.997c3.329-4.905 7.404-9.22 12.114-12.822l138.863-106.228c-16.874 28.314-37.844 53.793-62.628 76.021l-49.024 43.966c-9.612 8.621-16.514 19.759-19.957 32.209l-20.379 73.678c-.789 4.933 1.223 8.068 6.036 9.404 62.223 10.019 116.231 20.146 116.751 20.243 6.109 1.163 11.043 5.272 13.446 10.686h-35.631c-18.115 0-31.356 10.328-42.585 23.382-8.393 9.122-20.311 14.353-32.697 14.353-9.697 0-9.697 15 0 15 16.569 0 32.511-6.997 43.736-19.196 8.326-9.807 17.744-18.539 31.546-18.539h44.718c4.143 0 7.5-3.358 7.5-7.5 0-16.072-11.45-29.917-27.245-32.925-.517-.097-50.022-9.379-108.888-18.975l18.147-65.613c2.679-9.679 8.044-18.339 15.517-25.04zm-127.562 208.883h-6.282c-5.57 0-10.102-4.539-10.102-10.119v-10.977h14.249v10.977c.001 3.6.767 7.022 2.135 10.119zm-136.622-67.668c0 3.439-2.798 6.238-6.237 6.238h-54.685c2.969-7.315 10.151-12.489 18.52-12.489h36.165c3.439 0 6.237 2.798 6.237 6.251zm217.845-178.056c-5.992 4.583-11.178 10.073-15.413 16.314l-59.717 87.997c-4.623 6.813-13.624 8.183-21.219 6.691l18.803-25.751c.012-.016.023-.032.035-.048l58.035-79.479c4.468-6.119 10.035-11.182 16.547-15.048l67.494-40.067z"/><path d="m147.048 343.057c9.652 0 9.668-15 0-15-9.652 0-9.668 15 0 15z"/></g></g></svg>