<?xml version="1.0"?>
<svg xmlns:rdf="http://www.w3.org/1999/02/22-rdf-syntax-ns#" xmlns="http://www.w3.org/2000/svg" xmlns:cc="http://web.resource.org/cc/" xmlns:dc="http://purl.org/dc/elements/1.1/" id="svg2" viewBox="0 0 269.92 344.76" version="1.0">
  <g id="layer1" transform="translate(-25.105 132.37)">
    <path id="path1956" d="m272.75 176.86c-4.83-1.59-10.01-1.63-15.04-2.26-1.12-0.11-2.88-0.24-0.74-0.23 4.33-0.1 8.66-0.21 12.99-0.31-1.88-2.01-3.76-4.01-5.65-6.02 3.67-0.02 7.47-0.21 10.87 1.45 3.48 1.59 7.31 3.37 9.4 6.72-0.08 3.75-3.14-1.45-4.55-2.13-2.9-2.07-6-4.25-9.58-4.83-4.36 0.2 0.29 3.74 2.07 4.36 1.8 0.24 2.91 5.84 0.23 3.25zm-22.86-3.61c-0.39-2.61 3.39-5.73 5.93-4.97-1.3 1.79-4.39 3.07-3.71 5.64-0.77 0.36-1.67-0.14-2.22-0.67zm-4.4-6.31c1.43-1.91 4.2-1.93 6.37-2.55 1.9-0.15 1.16-0.58-0.2-1.08-1.26-0.73-3.42-1.19-4.01-2.21 4.63 0.16 9.29 0.7 13.83 1.65 3.83 1.28-2.23 2.66-3.76 2.6-2.42 0.61-6.25-0.62-7.61 1.96-1.16 1.01-3.89 1.15-4.62-0.37zm-35.76-6.84c1.54-1.2 4.38 0.99 1.13 0.64-0.34-0.04-1.55-0.01-1.13-0.64zm22.22-0.77c3.28-1.15 7-0.71 10.03 0.9-2.95 0.69-6.32 0.21-9.43 0.33-1.59 0.21-4.19-0.36-1.22-1.03l0.62-0.2zm31.7-1.21c0.38-1.03 2.8-5.06 1.91-1.75-1.78 2.84 1.94 4.53 2.51 1.09 0.79-2.06 3.33-1.43 1.28 0.48-0.94 1.72-6.15 4.66-6.36 1.59 0.18-0.48 0.42-0.95 0.66-1.41zm-63.87 0.3c0.46-2.4 5.11 0.17 5.44 0.97-1.68 0.05-4.41 0.71-5.44-0.97zm26.16-1.24c1.47-0.27 3.86-2 0.83-1.78-2.93-0.26-6.4 0.8-8.95-0.85-0.76-1.58-6.35 1.39-4.11-1.71 1.66-1.31 4.1-1.32 4.89 0.68 2.49 0.69-0.55-3.08 2.26-2.13 4.87 0.92 9.5 2.78 14.23 4.24-3.5 1.1-7.02 2.91-10.73 2.58 0.1-0.57 1.11-0.77 1.58-1.03zm-108.06-1.77c-1-3.83-0.95-7.92-0.81-11.86 1.25 2.25 1.68 5.28 1.84 7.96-0.04 0.67 0.34 5.41-1.03 3.9zm9.94-5.84c-1.74-2.69-1.99-6.16-4.28-8.46-3.03-3.4-6.41-6.45-9.64-9.65-1.32 4.53-2.28 9.28-1.42 14 1.7 3.72-5.61 4.32-4.78 0.59 0.33-3.04 2.2-5.99 0.76-9.02-0.72-2.35-1.73-4.59-2.61-6.88 1.48 1.69 2.68 3.68 4.45 5.07 1.44-1.96 1.16-5.55-1.06-7.27-6.16-7.54-12.721-14.79-19.776-21.51-3.132-2.36-2.061-6.835 1.358-8.285 4.095-1.397 8.54-0.474 12.778-0.469 5.53 0.141 11.09 0.92 16.62 0.459 1.83-2.332-3.46-4.773-5.14-6.242-4.03-2.702-8.39-4.897-12.93-6.567-2.722-1.679-5.359-4.455-5.432-7.814 0.52-4.028 6.662-0.166 7.392-1.674-2.39-2.648-6.012-2.632-9.101-3.836-4.928-2.326-10.126-4.099-15.551-4.801-1.634 0.075-5.486-1.936-1.715-2.137 4.409-0.25 8.786 0.528 13.172 0.867-2.688-1.428-5.592-2.513-8.062-4.303 2.087-1.825 7.194-0.714 10.326-0.354 3.572 0.553 6.733 2.375 9.801 4.105 7.33 1.775 15.07 0.709 22.31 2.867 4.39 1.773 9.29 0.642 13.76 2.138 4.49 1.566 9.23 2.889 14.04 2.307 1.33-0.095 2.65-0.191 3.98-0.286 0.89-8.553 2.47-17.193 0.84-25.763-0.96-5.563-1.85-11.236-4.09-16.451-2.9-2.253-2.07-8.231-6.82-7.852-2.8-1.678-4.49-4.972-7.85-6.118-7.26-3.413-13.52-9.3089-16.28-16.955-4.38-11.105-3.26-23.267-5.52-34.809-0.72-4.95-3.12-9.656-2.48-14.773 0.24-5.481 1.89-10.798 2.15-16.262 0.97-4.236-3.36-5.872-6.8-5.699-9.95-0.144-19.659 2.511-29.167 5.141-6.198 1.425-12.545 2.369-18.912 2.34 10.812-2.498 21.375-6.03 31.782-9.865 4.223-1.708 9.357-3.395 11.027-8.117 1.35-3.825 1.9-8.31 5.33-10.976 4.2-3.395 10.34-3.562 15.21-1.644 5.11 3.662 9.74 9.317 9.17 15.996-0.33 4.763-2 9.325-2.27 14.109-0.48 3.054 0.12 6.404-1.37 9.214-2.88 0.731-5.82 1.946-8.23 3.855-1.97 1.809-6.54 4.25-5.1 7.05 1.73 1.619-0.64 4.747 1.93 5.811-0.09 2.533-0.67 5.166 0.2 7.675 0.42 0.655 0.18 3.222 1.21 2.105 3.59-2.83 7.19-5.661 10.78-8.491-3.71 3.595-7.42 7.19-11.14 10.785 0.99 8.818 0.96 17.916 4.12 26.316 1.06 3.399 3.91 5.5561 6.22 8.0456 2.01 2.6392 5.15 4.1684 7.74 6.1824 5.17 3.613 10.81 6.838 14.96 11.68 0.33 2.416 3.66 4.25 3.87 0.782-0.88-4.321 3.8-4.979 6.97-5.285 3.62-0.749 7.44-0.994 10.86-2.453 2.9-1.446 6.5-1.006 9.69-1.472 5.63-0.305 11.28-0.696 16.91-0.574-7.18 1.175-14.38 2.366-21.43 4.173-4.18 1.225-2.3 6.649-2.31 9.829 0.79 6.034 4.19 11.21 7.36 16.234 1.55 4.104 0.29 8.578 0.05 12.815-0.46 5.23-1.45 10.452-1.27 15.714 0.38 3.529 4.56 4 7.24 4.911 4.29 2.034 7.92 5.184 12.15 7.311-3 0.169-6.04-1.366-8.88-2.374-6.29-3.079-13.18-4.754-20.15-5.253-1.44-0.148-2.89-0.297-4.33-0.445 5.09 4.236 10.02 8.759 15.8 12.067 2.59 2.383 0.42 7.498 4.7 8.532 0.33 1.653-2.89 3.613-3.2 0.953-3.14-0.36-6.29 2.35-9.72 1.88-4.62 0.34-9.12-0.91-13.4-2.543-5.46-1.515-11.6-2.297-16.92 0.072-2.64 1.021-3.75 3.111-0.58 3.971-2.65 1.21-7.28-0.87-8.69 2.31 0.67 1.87-4.49 2.39-1.17 3.25 4.31 0.8 8.82-0.22 13.05 1.04-1.33 1.84-5.24 0.68-7.56 1.37-3.59-0.12-3 3.58 0.25 3.41 4.11 0.88 8.4-0.02 12.46 1.02 0.1 1.82-4.66 0.92-4.45 3.93-1.57 2.18 3.47 4.88-0.74 4.58-1.52-0.23-6.13 0.15-2.92 2.01 4.08 1.61 8.51-0.14 12.52-1.17 2.35-0.48 6.57-2.54 8.03-1.27-3.9 2.26-8.83 2.43-12.32 5.49-3.88 2.77-8.74 0.54-12.53-1.23-7.72-3.66-14.57-8.98-22.56-12.06-2.39-1.49-6.1-2.35-7.01-5.21 0.09-3.12 1.58-7.37 5.41-7.03 1.45 0.11 5.32-0.07 2.01-1.11-5.22-2.27-11.03-2.29-16.57-3.213-3.2-0.864-6.265 1.083-7.605 3.943-0.343 3.33 2.573 5.91 4.365 8.45 2.96 3.48 5.87 7.11 9.52 9.91 2.01-1.63-2.51-6.49 0.16-8.99 3.21 0.33 2.05 5.55 2.41 8.02-0.4 3.58 2.31 6.21 4.91 8.18 4.74 3.98 9.91 7.52 14.13 12.07 1.42 0.94-0.79 3.37 1.56 1.82 3.08-0.56 6.54 0.06 9.12 1.85 1.53 1.8-3.24 3.18 0.37 3.88 2.41 1.18 7.07 1.36 7.08 4.76-2.64 1.52-5.94-1.19-8.66-1.91-3.07-1.12-6.08-3.15-9.44-2.95-2.27 0.75 1.62 7.24-1.63 5.11-1.16-1.33-2-2.91-2.8-4.48zm21.02-29.05c2.69-3.85-3.45-3.33-5.7-2.5-4.12 1.61-0.63 7.61 3.02 5.2 1.19-0.52 2.14-1.52 2.68-2.7zm-10-2.33c0.62-2.62-4 0.16-4.65-2.68-2.16-3.05-1.14-6.85-0.99-10.29-4.1 0.68-8.56 0.62-12.09 3.09-2.96 2.91 2.3 5 4.26 6.5 2.55 2.28 6.25 2.07 8.85 3.92 1.07 1.82 3.95 1.38 4.62-0.54zm1.91-17.93c-2.69-1.571-5.89-1.974-8.59-3.457-1.21-3.311-4.84-4.505-6.89-7.206-0.4-1.982 4.97 1.084 2.97-1.495-1.27-1.235-4.21-1.776-4.91-2.599 1.64-0.053 6.86 1.938 6.29-0.922-2.21-1.82-5.34-2.714-6.45-5.453-4.97-1.354-8.4-5.784-13.15-7.662-1.11 1.694 4.01 2.351 3.41 5.041 1.5 3.217 5.39 4.923 5.94 8.628 0.5 2.519 6.27 4.738 3.61 7.053-3.82 0.627-3.37-4.92-6.15-6.013-2.82-1.871-3.24-6.581-7.08-6.958-2.98-0.098-6.46-0.813-9.06 0.877 0.58 3.007 4.73 3.743 7.09 5.268 5.74 2.709 11.24 5.944 16.05 10.101 2.34 2.231 5.39 2.923 8.27 4.078 3.45 2.019 7.47 2.519 11.39 2.329 0.48-0.16-1.75-0.99-2.37-1.42-0.12-0.06-0.24-0.13-0.37-0.19zm45.13-1.801c-7.28-3.589-15.53-4.86-22.7-8.732-5.19-4.154-9.46-9.642-15.52-12.623-3.15-0.66-5.16-5.917-8.7-3.017-1.29 2.682 2.52 4.966 3.88 7.101 3.34 3.881 6.82 7.916 11.67 9.914 4.86 2.073 9.6 4.456 14.56 6.24 5.32 1.316 10.85 2.307 16.33 1.901 0.34 0.088 1.08-0.479 0.48-0.784zm-49.56-5.79c-1.49-0.965-5.23 0.737-1.5 0.607 0.28-0.013 2.71 0.009 1.5-0.607zm45.61-31.23c-0.01-6.565 0.23-13.45-2.84-19.469-1.48-3.263-2.85-6.616-3.7-10.084-2.18-3.526-4.99-6.981-8.77-8.85-2.71-1.149-7.7-0.843-7.41 3.132 0.16 7.313 3.25 14.321 2.91 21.672-1.15 2.586 2.94 1.091 2.19 4.147-0.77 2.824-2.74 5.358-2.15 8.614 0.04 3.983 0.28 7.96 0.42 11.941 5.68 1.146 11.36 2.421 17.03 3.545 2.68-1.51 1.83-5.481 2.23-8.146 0.07-2.166 0.09-4.334 0.09-6.502zm-71.17 6.766c-1.08-1.692-5.26-1.08-2.81 0.844 0.68 0.409 5.75 0.8 2.81-0.844zm64.03-46.718c-3.68-1.041-1.78 3.025-0.5 4.551 0.72 1.699 1.06 1.07 1.26-0.433 0.32-1.355 1.06-3.559-0.76-4.118zm-48.34-77.843c2.21-3.606-3.64 0.053-4.73 1.225-1.1 1.384-3.91 1.163-1.69-0.732 1.5-0.683 3.01-1.56 1.17-2.849 1.25-2.88 4.95-3.598 6.6-6.194-2.09-0.72-5.12 1.614-7.02 3.07-3.16 2.358-2.63 6.404-2.44 9.61-2.78 0.601-0.88 2.549 0.94 0.855 2.59-1.315 5.18-2.847 7.17-4.985zm1.21-3.577c1.67-0.409 5.31-3.365 1.5-2.923-2.09 0.933-5.75 2.676-6.01 4.718 1.6-0.292 3.06-1.094 4.51-1.795zm-1.26-6.585c1.46-0.421 4.32-3.178 1-2.021-2.25 0.435-4 3.269-6.13 3.08 1.49-3.213 5.14-4.797 6.74-7.944-2.49-0.538-3.31 4.719-6.51 4.78-3.05 0.772-2.9 6.167 0.75 4.037 1.43-0.538 2.81-1.203 4.15-1.932zm-2.71-5.98c3.22-4.286-4.71 1.003-4.2-1.121 3.11-2.204 6.85-3.569 10.63-3.921 3.09-2.006-2.88-1.178-3.99-0.541-2.6 1.116-6.92 1.436-7.5 4.784-0.33 3.693 3.8 3.915 5.06 0.799zm-8.72-3.643c2.57-1.981 6.36-1.122 9.16-2.929 2.24-1.315 6.45-2.002 6.92-4.728-1.27-1.546-5.26-0.557-1.74 0.774 1.52 1.56-3.36 0.583-4.29 1.707-1.61 0.105-5.18 3.585-5.59 1.367 2.85-3.728 8.03-4.504 11.33-7.693-2.28-0.766-4.87 1.972-7.29 2.219 3.09-3-2.17-4.218-4.54-4.201-1.29-0.652 1.36-5.067-1.05-2.123-1.38 3.251-6.77 0.677-5.9 5.13-0.71 3.144 1.79 5.779 3.04 7.976-2.9-0.621-7-2.25-6.22-5.794-1.8 0.529-4.22 5.879-1.59 6.927 2.34 0.464 5.84 4.06 7.76 1.368zm-1.8-8.18c0.24-2.508 5.31-5.877 5.98-1.926 0.88 3.471-4.47 3.545-5.98 1.926zm12.33-5.317c-2.23-0.13-3.26-5.369-5.11-2.324 1.05 1.949 5.48 4.123 6.67 3.246-0.47-0.384-1.02-0.652-1.56-0.922zm47.6 243.6c-1.79-0.11-6.76-2.56-4.65-3.88 5.76 0.61 11.51 1.52 17.25 2.31 1.57-0.09 5.79 1.79 1.94 2.12-4.83 0.33-9.73-0.07-14.54-0.55zm28.48 0.24c3.2-0.84 6.63-1.17 9.9-0.63-0.7 1.8-5.67 0.97-7.96 1.05-0.35-0.13-2.18 0.04-1.94-0.42zm53.62-0.84c0.74-2.94 3.15-5.21 5.45-7.06 3.79-1.48-1.07 3.2-2.23 4.02-1.33 0.29-3.39 6.51-3.22 3.04zm-161.19-5.46c-0.244-1.66 0.434-3.38 1.118-0.91 1.453 1.22 1.142 6.13-0.824 3.24-0.246-0.75-0.309-1.55-0.294-2.33zm131.03 2.1c2.54-1.74 6.13-0.88 9.11-0.92 1.69 0.81-4.71 1.59-6.11 1.87-0.92 0.02-2.84 0.4-3-0.95zm-31.88-1.05c3.22-0.36 5.04-4.05 3.65-6.9-1.4-3.53-4.6-6.61-8.6-6.56-4.16-0.36-8.35-0.16-12.49-0.67 2.13-2.05 5.25-2.84 7.98-3.9 2.65-1.08 5.35 1.03 7.83-1.31 4.91-2.59 8.12-7.27 12.42-10.63 1.24-1.35 3.3 0.05 3.44-2.29 3.28-1.12-0.48 3.53-0.74 4.76 0.5 2.32 3.66-2.1 4.65-2.93 3.34-3.76 6.3-7.9 8.37-12.5 1.77-2.22 4.15-3.96 5.39-6.67 2.2-2.141 0.54-3.937-2.06-3.996-2.01 0.341-6.09-3.173-2.06-2.613 2.25 0.662 5.71 2.313 7.42 1.305-0.51-2.522 2.8-5.241 0.07-7.756-2.66-3.723-7.41-5.196-11.82-4.806-1.33-0.068 1.18 1.168 1.54 1.676 1.22 0.666 4.39 3.908 1.27 2.69-2.71-1.285-5.79-5.495-8.32-1.487-1.16 1.02-4.38 4.851-5.21 2.994 1.83-2.423 3.82-5.071 3.43-8.32-0.14-4.463-3.02-8.153-4.19-12.352-1.33-4.213-3.64-8.755-1.76-13.185 1.86-6.586 6.22-13.417 13.31-15.009 5.85-1.409 11.57 2.1 15.1 6.548 3.4 3.731 4.23 8.914 4.16 13.782 0.04 2.874 1.61 5.314 3.93 6.904 2.2 2.119 4.79 3.633 7.5 4.938 5.29 3.299 10.65 6.743 16.8 8.184 3.25 0.891 7.04 0.942 9.78 3.008-2.02 1.84-6.16 0.01-8.86-0.286-8.37-2.178-16.16-6.086-23.92-9.826-3.4-1.598-6.19-4.198-9.72-5.567-3.63-2.619-6.32 2.673-4.25 5.604 2.88 7.068 4 14.831 3.65 22.43-0.81 4.383-4.71 7.17-7.15 10.66-3.86 4.56-6.35 10.07-10.28 14.58-2.12 2.39-3.71 5.12-4.95 8.01-1.84 2.27-3.49 6.02-6.79 6.01-3.34-1.44-7.19-1.52-10.73-0.88-2.19 1.76 3.46 2.28 4.71 2.97 2.83 0.87 2.95 4.2 4.82 5.97 2.53 1.17 5.86 1.27 8.46 0.63-1.07-1.12-5.32-4.41-1.1-3.68 3.49 0.53 6.61 2.24 9.87 3.47 1.34 0.89 4.07-2.78 3.77 0.06-2.09 3.5-5.6 6.8-9.95 6.72-2.97-0.07-6.37 0.59-9.01-0.98 0.37-2.79-3.36-2.83-3.11-0.01-2.11 2.03-5.53 2.43-8.28 1.91 0.5-0.47 1.38-0.51 2.03-0.7zm11.45-20.03c1.6-1.24 1.09-3.17-0.66-1.21-1.61 0.74-3.21 4.51-0.37 2.23 0.38-0.3 0.72-0.65 1.03-1.02zm22.83-48.686c-0.62-1.517-5.86-1.823-5.25-0.311 1.2 0.888 4.65 2.663 5.25 0.311zm-2.4-3.491c-1.84-2.291-5.55-2.164-8.31-2.183-1.65-0.263-5.18 1.586-1.99 2.47 3.18 0.824 6.63 0.934 9.82 0.134l0.35-0.199 0.13-0.222zm0-7.451c-2.08-1.838-5.55-0.893-8.16-0.602-1.34 0.033-5.85 1.71-2.34 2.127 3.46 0.111 7.18 0.182 10.37-1.298l0.13-0.227zm-3.91-3.492c-2.66-0.624-5.73-0.687-8.16 0.669 2.89 0.599 5.99 0.275 8.96 0.224 1.98-0.193-0.45-0.725-0.8-0.893zm9.02-3.812c2.42-0.667 2.46-7.081 1.27-6.714-0.52 3.127-4.9 2.267-3.47-0.912 0.9-2.293-0.52-6.847-3.22-5.971-2.69-0.554-5.03-2.111-7.51-3.237 2.28 1.719 4.24 4.016 6.97 5 2.89-1.29 1.39 4.325 0.82 5.964-2.22 2.881-4.18-1.919-4.66-3.713-3.71-2.118-8.25-2.065-12.4-1.838 2.2 1.115 5.69 1.134 8.17 2.452 2.28 0.354 3.38 3.394 0.26 3.123-1.39-0.229-6.65 0.577-4.8 2.306 2.5 0.516 6.52-1.793 8.06 0.106-1.95 1.762-4.8 1.26-7.23 1.471 2 0.642 4.01 1.284 6.01 1.926-2.95 0.201-6.01 0.283-8.71 1.583 2.71 0.774 5.79 0.157 8.64 0.133 3.94-0.353 7.99-0.518 11.8-1.679zm-3.91-2.203c0.88-3.44 4.25 1.634 0.74 1.108-0.44-0.18-0.75-0.634-0.74-1.108zm-18.04-2.406c-0.88-3.44-4.25 1.634-0.74 1.108 0.44-0.18 0.74-0.634 0.74-1.108zm0.22-3.227c-1.78-1.066-3.44 1.079-0.72 0.726 0.46 0.013 2.18-0.205 0.72-0.726zm6.02 0c-1.79-1.066-3.44 1.079-0.73 0.726 0.46 0.013 2.18-0.205 0.73-0.726zm-2.41-7.218c-1.79-1.065-3.44 1.079-0.73 0.727 0.47 0.013 2.19-0.206 0.73-0.727zm15.41-1.812c-1.41-2.884-6.22-5.19-9.09-3.078 1.42 2.682 5.27 4.518 8.38 3.98 0.4-0.106 0.73-0.484 0.71-0.902zm-5.5-1.55c-2.85-1.719-0.05-2.32 1.54-0.861 2.14 0.786 1.5 3.181-0.59 1.49l-0.47-0.29-0.48-0.339zm-7.73-0.097c-1.83-2.396-3.61 2.976-0.73 0.943 0.28-0.266 0.66-0.529 0.73-0.943zm-46.88 102.58c-1.62-0.52-4.52-4.04-0.9-2.76 2.66 0.88 6.21 5.04 8.81 2.02 1.5-3.47-0.45-8.01-4.19-9-4.02-1.15-8.9-1.25-12.37 1.38-3.32 2.98 1.08 6.11 3.82 7.06 2.71 2.45-3.26 0.53-4.12-0.38-2.82-1.89-1.55-5.72-2.06-8.55-0.59-2.41-1.19-5.48 2.35-5.12 1.27-0.31 6.69-2.24 3.75 0.64-1.19 0.62-4.67 0.91-2.08 2.5 3.99 1.22 8.46 0.43 12.23-1.21 2.35-1.73 4.92-3.19 7.89-3.43 2.62-1.02 5.38-2.24 7.21-4.44 0.38-2.21 3.23-0.86 1.1 0.69-1.49 0.89-2.52 4.31 0.12 2.14 2.43-1.42 3.67-4.17 4.44-6.24 1.61 3.48-2.1 7.86-5.69 7.89-3.37-0.54-6.58 1.45-9.62 2.67-2.51 0.73-4.9 3.17-1.65 4.9 1.88 3.23 5.46-3.22 6.07-0.36-2.39 1.81-1.14 5.54-3.61 6.94-0.94 2.18 4.02 5.02-0.09 4.84-3.92 0.51-8.05 0.03-11.41-2.18zm71.62 0.25c1.32-2.76 4.28-0.92 1.89 1.18-1.28 1.57-4.64 1.6-2.28-0.72l0.39-0.46zm-185.03-1.01c-1.09-0.67-6.015-3.62-2.197-2.93 2.749 0.53 5.864 2.17 6.825 4.93-1.599 0.26-3.23-1.28-4.628-2zm21.202-0.67c-1.39-0.98-3.185-5.2-0.096-2.94 1.498 1.37 5.739 3.9 3.769 5.87-1.551-0.4-2.606-1.83-3.673-2.93zm25.62-0.84c-1.132-1.43 1.15-7.71 1.52-3.5-0.17 1.37 0.67 6.13-0.84 5.56-0.31-0.66-0.49-1.37-0.68-2.06zm122.6 1.43c3.05-1.62 6.67-1.98 10.08-2.11 0.23 1.57-4.62 2.06-6.48 2.48-0.85-0.05-3.8 0.86-3.6-0.37zm40.04-2.71c1.74-2.37 0-7.34 4.54-6.88 0.24 3.12-3.5 7.26-5.3 7.91 0.24-0.36 0.5-0.69 0.76-1.03zm-112.6-0.44c1.55-1.2 4.39 0.99 1.13 0.63-0.33-0.04-1.54-0.01-1.13-0.63zm99.52-1.28c-0.27-2.36-2.18-4 0.44-5.95 2.83-3.52 5.78-7.04 9.32-9.85-0.9 2.77-4.05 5.34-6.21 7.66-1.26 1.54-3.48 3.29-3.49 5.22 1.16-0.39 4.39-3.66 3.02-0.51-0.88 1.32-1.74 4.82-3.01 4.7-0.06-0.42-0.06-0.85-0.07-1.27zm6.01 1.53c0.75-1.95 5.58-1.33 2.51 0.38-0.75 0.1-1.95 0.25-2.51-0.38zm-115.77-3.57c-2.26-0.56-6.39-5.85-1.55-4.42 3.18 1 6.66 1.2 9.6 2.79 1.57 3.39-2.83 5.54-5.31 3.12-0.93-0.47-1.84-0.97-2.74-1.49zm-55.575-0.43c-0.607-3.55-2.926 2.43-3.348-1.46-1.38-6-4.934-11.31-8.963-15.87-1.068-2.16-5.443-1-4.342-4.12 3.041 0.46 5.187 3.27 7.309 5.31 1.317 1.46 2.634 2.92 3.951 4.37-0.346-2.12-1.041-4.22-1.077-6.36 2.958 2.07 3.407 6.22 3.437 9.61-0.122 3.43 2.599 5.7 4.835 7.84 2.029 1.19 0.513 4.25-1.174 1.83-0.26-0.35-0.47-0.74-0.628-1.15zm5.349-2.93c0.223-4.1-1.874-7.76-4.378-10.82-1.176-1.13-2.481-4.7 0.168-2.23 2.769 2.38 2.435-4.96-0.036-5.23-2.782-3.2-5.076-6.93-6.513-10.93-0.22-3.35 3.19-1.17 2.422 1.11 1.582 5.04 5.836 8.64 7.716 13.56 1.543 2.83 1.137 6.47 3.273 8.99 0.738 3.16 0.091 6.56-0.849 9.62-1.59 3.26-1.849-3.51-1.803-4.07zm6.014 1.99c-1.397-0.92-3.619-5.28-0.472-2.77 1.192 1.17 4.704 4 3.434 5.16-1.16-0.54-2.076-1.49-2.962-2.39zm124.2 2.21c-4-2.11 3.04-2.53 4.72-2.44 3.53-0.07 7.24-0.82 10.61-1-2.95 0.71-5.3 2.88-8.39 3.15-2.27 0.35-4.67 0.82-6.94 0.29zm-121.19-5.22c-0.649-3.05 3.644 0.73 1.004 1.11-0.419-0.28-0.734-0.69-1.004-1.11zm32.474-2.4c-1.55-1.63-3.97-1.22-6.01-1.36 2.41-1.08 5.04-2.02 7.69-1.22 2.28-0.14 4.97 2.98 1.44 3.67-1.11 0.23-2.47-0.07-3.12-1.09zm33.61-0.51c2.15-1.2 0.96-1.7 0.12-2.42 2.47-2.51 5.94-3.86 9.26-4.88-0.36 1.67-4.51 3.24-6.05 5.07 3.62-0.42 7.06-2.32 9.58-4.93-0.64-2.53 2.81-0.07 4.19-2.11 1.2-1.45 3.47-0.73 1.17 0.68-5.2 4.27-11.25 7.38-17.64 9.45-2.06 0.84-3.02 0.88-0.63-0.86zm71.65-1.09c0.39-3.25 2.85-5.99 5.58-7.6 0.62 1.65-1.32 3.86-2.02 5.63-0.14 0.62-1.84 2.8-0.81 2.24 2.96-1.55 6.15-2.91 8.33-5.53 3.15-0.91-1.55 3.62-2.72 4.04-3.07 0.1-4.53 5.48-7.7 3.41-0.53-0.59-0.66-1.42-0.66-2.19zm-81.7-7.26c2.82-0.88 5.85-1.76 8.82-1.52-0.04 2.32-4.65 1.88-6.63 1.92-0.61-0.15-1.8 0.1-2.19-0.4zm41.41-1.98c0.66-1.49 4.18-2.91 2.34-0.13-0.54 1.85-5.29 3.85-2.76 0.62l0.42-0.49zm-3.02-11.04c0.38-1.53 3.38 1.35 2.11-1.46-0.28-2.24-1.77-3.49-3.01-1.03-0.49-1.92 0.48-5.83 2-6.43 0.85 2.91 1.78 6 4.33 7.91 2.19 2.79-4.83 2.69-5.43 1.01zm8.01-0.76c-1.35-1.65-2.76-4.89-1.55-6.55 1.62 2.51 3.36 5.33 3.81 8.28-0.92 0.01-1.61-1.15-2.26-1.73zm-97.02-2.62c0.88-3.44 4.25 1.63 0.73 1.11-0.43-0.18-0.74-0.64-0.73-1.11zm100.71-0.91c-2.21-2.76-4.09-6.267-3.84-9.883 2.06-0.732 2.35 4.553 3.4 6.163 0.6 2.68 3.52 4.17 4.96 5.63-1.7 0.46-3.38-0.77-4.52-1.91zm-143.92-0.8c0.174-4.35 1.805 2.08 0.084 0.84l-0.052-0.36-0.032-0.48zm-10.234-1.39c-1.669-0.76-2.818-5.479 0.013-3.51 1.247 1.44 3.554 3.56 3.051 5.4-1.208-0.21-2.193-1.08-3.064-1.89zm158.94-3.52c-1.63-1.634-5.59-5.539-3.85-7.231 2.3 4.353 6.56 7.048 10.42 9.861 2.88 2.75-2.82 1.01-3.68-0.28-1.02-0.71-1.98-1.49-2.89-2.35zm3.14-5.989c-1.01-1.297-4.5-3.779-3.1-5.155 2.6 1.579 4.01 4.694 6.77 6.229 1.38 0.584 5.76 3.927 1.7 2.779-2-0.952-3.75-2.361-5.37-3.853zm1.29-4.384c-2.22-1.561-1.87-6.284 1.36-3.693 3.08 1.842 5.94 4.001 8.91 6.008-3.52-0.156-7.46 0.257-10.27-2.315zm4.34 0.192c-0.6-1.743-3.55-3.33-4.7-3.288 1.32 1.118 3.14 4.915 4.67 3.835l0.03-0.547zm5.07-1.892c-2.99-4.264 5.19 1.226 2.09 1.65-0.82-0.364-1.5-0.989-2.09-1.65zm-12.28-70.323c-2.21-0.27-4.42-0.541-6.62-0.811 6.44-0.008 13.12-0.625 19.25 1.774-4.23-0.031-8.44-0.452-12.63-0.963zm17.16-0.307c0.6-3.642-4.32-4.086-6.91-4.773-11.21-2.143-22.74-1.23-33.98-3.0757-3.33-0.363 0.38-1.708-0.03-2.3588-4.97-0.6788-10.03-0.7551-15.02-1.4414-4.93-0.6878-9.99-0.9752-14.75-2.4657-5.15-2.7076-11.43-3.3292-15.74-7.5657-2.34-2.2951-4.72-4.8376-5.84-7.9727 2.08-1.223 4.24 3.3126 6.96 3.4026 6.76 2.368 13.98 3.851 21.17 3.6121 2.69-0.3789 4.78-2.7547 7.59-0.8006 3.77 0.9152 7.88 1.3265 11.65 0.192 2.38-1.8602 5.73-1.3974 8.6-1.6822 3.61-0.05 7.22-0.0133 10.84-0.0245-2.68-3.2814-4.87-7.2894-8.79-9.2064-1.65 0.197 0.85 3.866-2.27 2.966-6.12-0.649-12.35-0.641-18.41 0.575-9.01 1.231-18.22 1.449-27.23 0.203-2.1 0.134-2.82-1.333-3.75-2.336-3.7 1.063-5.72-3.621-3.88-6.215 3.46-0.963 7.17-0.492 10.73-0.701 7.03-0.248 14 1.102 21.02 0.888 2.47 0.46 7.62-1.999 3.41-4.026-5.91-2.327-12.41-2.276-18.67-2.527-4.14-0.208-8.5 0.426-12.44-1.106-2.74-1.569-4.43-4.415-5.48-7.258-2.2-2.299-4.33-4.787-5.1-7.977-0.04-2.246-5.36-1.408-2.35-3.105 1.41-2.317 1.02-5.105 1.23-7.688 1.18 5.093 2.16 10.49 5.31 14.776 2.28 1.363 2.32 5.075 5.04 6.549 3.59 3.644 9.03 3.023 13.7 3.406 7.51 0.46 15.25-0.012 22.52 2.237 4.94 1.816 9 5.254 13.78 7.386 5.82 2.868 11.72 5.788 16.52 10.245 5.42 4.4638 10.81 8.9641 16.15 13.514 2.87 1.5086 5.93 1.9004 8.22 4.4318 2.78 1.5821 5.81 2.8932 9.02 3.1692 2.13 1.24 0.74 4.821 3.6 5.643-1.18 2.8-4.8-1.379-6.96-1.573-1.47-0.855-6.78-0.438-2.66 0.51 3.54 2.594-2.24 2.739-4.01 3.134-1.03 0.236-3.93 1.328-2.79-0.961zm-26.79-11.79c0.95-1.6449-3.63-0.3081-4.82-0.3445-1.39 0.4222-6.11 0.4269-5.5 1.5873 3.42 0.1706 7.09-0.0229 10.32-1.2428zm1.81-3.5406c-2.28-3.0891-7.68 0.5653-2.16 1.1784 0.68 0.095 2.73-0.0182 2.16-1.1784zm-75.79-27.666c1-2.263 4.19-0.636 1.53 0.85-0.71 0.653-2.36 0.377-1.53-0.85zm-6.01-9.623c0.64-1.115 4.26-3.777 2-0.934-0.41 0.778-4.59 4.912-3.11 2.277 0.34-0.468 0.72-0.911 1.11-1.343zm4.21-4.811c1.18-1.268 5.04-1.478 2.02 0.234-0.53 0.419-5.1 2.124-2.02-0.234zm-2.41-3.008c0.67-0.951 4.86-4.595 2.68-1.678-1.39 1.495-3.39 4.168-4.91 4.448 0.6-1.03 1.44-1.892 2.23-2.77zm-3.5-3.308c2.64-2.015 5.15-4.2 7.71-6.315-2.22 2.31-4.03 5.276-7.02 6.616 0.45 0.214-1.21-0.047-0.69-0.301zm-65.06-18.945c-3.041-2.51 3.866-0.027 1.83 1.05-0.649-0.276-1.235-0.676-1.83-1.05z"/>
  </g>
  <metadata>
    <rdf:RDF>
      <cc:Work>
        <dc:format>image/svg+xml</dc:format>
        <dc:type rdf:resource="http://purl.org/dc/dcmitype/StillImage"/>
        <cc:license rdf:resource="http://creativecommons.org/licenses/publicdomain/"/>
        <dc:publisher>
          <cc:Agent rdf:about="http://openclipart.org/">
            <dc:title>Openclipart</dc:title>
          </cc:Agent>
        </dc:publisher>
      </cc:Work>
      <cc:License rdf:about="http://creativecommons.org/licenses/publicdomain/">
        <cc:permits rdf:resource="http://creativecommons.org/ns#Reproduction"/>
        <cc:permits rdf:resource="http://creativecommons.org/ns#Distribution"/>
        <cc:permits rdf:resource="http://creativecommons.org/ns#DerivativeWorks"/>
      </cc:License>
    </rdf:RDF>
  </metadata>
</svg>
