<svg id="Layer_1" enable-background="new 0 0 495.739 495.739" height="512" viewBox="0 0 495.739 495.739" width="512" xmlns="http://www.w3.org/2000/svg"><path d="m391.791 79.223c8.961-1.923 18.141 4.608 19.05 14.11.856 8.925-5.714 16.663-14.35 17.49-7.661.878-15.619-4.434-17.26-12.79-1.742-8.868 4.099-17.142 12.56-18.81zm47.071 224.066c-72.029 80.426-202.353 91.714-258.261 71.797-21.587 22.879-36.785 49.954-45.362 79.141-2.49 8.473-11.377 13.332-19.862 10.84-8.478-2.491-13.331-11.384-10.84-19.861 9.674-32.918 26.45-63.11 49.831-88.863-.196-.336-.383-.675-.564-1.017-40.88 21.806-87.188 35.862-136.656 39.413-8.786.639-16.471-5.978-17.105-14.813-.633-8.813 5.999-16.472 14.813-17.104 56.606-4.064 112.082-23.619 159.822-58.163 23.134-19.995 59.113-41.073 77.017-57.3-48.383-1.042-172.124 32.235-218.795 45.017-14.323 3.92-25.829-12.2-17.429-24.47 67.062-97.964 177.734-161.587 303.348-153.928-6.157-64.083 63.804-102.716 114.016-74.697l34.782-8.402c11.198-2.712 21.532 7 19.509 18.358l-7.65 42.956c35.829 70.667 8.072 156.732-40.614 211.096zm-87.106-185.693c9.063 1.439 19.943 3.633 21.857 4.271 3.895 1.314 7.253 4.101 9.208 7.984 14.321 28.294 50.335 40.63 80.536 18.05-1.07-10.075-3.385-20.006-7.162-29.589-3.549-9.006-22.932-54.043-56.063-56.29-25.059-1.687-56.468 18.845-48.376 55.574zm-71.905 104.239 11.53-10.451c-25.529-9.673-42.585-34.079-42.732-61.813-69.441 11.803-129.792 47.664-177.242 99.406 44.322-11.484 130.623-33.044 175.957-33.613 6.852-.085 21.911-.27 32.487 6.471zm182.228-36.719c-38.366 15.914-80.725 2.013-103.802-33.866-25.516-5.005-51.306-6.9-77.462-5.351-2.356 24.999 21.171 43.749 45.144 36.082 16.314-5.216 28.325 15.579 15.62 27.095-70.746 64.123-69.27 62.964-69.27 62.964-24.4 21.4-77.09 51.463-88.665 69.379 29.011 18.788 162.043 17.941 231.38-59.479 21.933-24.491 41.018-59.992 47.055-96.824z"/></svg>