<?xml version="1.0" encoding="iso-8859-1"?>
<!-- Generator: Adobe Illustrator 19.0.0, SVG Export Plug-In . SVG Version: 6.00 Build 0)  -->
<svg xmlns="http://www.w3.org/2000/svg" xmlns:xlink="http://www.w3.org/1999/xlink" version="1.1" id="Layer_1" x="0px" y="0px" viewBox="0 0 409.41 409.41" style="enable-background:new 0 0 409.41 409.41;" xml:space="preserve" width="512" height="512">
<g>
	<g>
		<path style="fill:#FFB819;" d="M312.27,394.41h-39.882l-27.32-68.86c-1.528-3.85-5.887-5.735-9.737-4.205    c-3.851,1.527-5.733,5.887-4.206,9.737l25.125,63.328h-19.741c-4.143,0-7.5,3.358-7.5,7.5c0,4.143,3.357,7.5,7.5,7.5h75.762    c4.143,0,7.5-3.357,7.5-7.5C319.77,397.769,316.412,394.41,312.27,394.41z"/>
		<path style="opacity:0.2;fill:#222222;" d="M245.067,325.55c-1.528-3.85-5.887-5.735-9.737-4.205    c-3.851,1.527-5.733,5.887-4.206,9.737l5.826,14.686c4.798-1.528,9.491-3.268,14.074-5.203L245.067,325.55z"/>
	</g>
	<path style="fill:#FF8189;" d="M75.861,302.26L7.634,392.168c68.228,15.449,85.978-53.537,95.38-89.908H75.861z"/>
	<path style="fill:#FF5959;" d="M306.212,0c-30.958,0-56.804,21.881-62.928,51.02c-0.008,0.034-0.02,0.063-0.027,0.097   c-5.091,20.153-5.973,28.824-10.938,36.631c-0.03,0.038-0.061,0.074-0.092,0.111l-1.094,1.501   c-0.825,1.223-1.618,2.302-2.388,3.273L75.861,302.26c30.007,21.984,50.698,34.367,92.347,38.135   c99.756,9.026,181.363-64.178,181.363-164.342c0-9.393-0.717-18.619-2.096-27.628h0.006c-0.008-0.045-0.019-0.094-0.026-0.139   c-0.138-0.905-0.293-1.804-0.444-2.704c-1.506-10.334-1.335-25.378,8.145-39.579c1.539-1.805,2.99-3.685,4.326-5.655   c0.002-0.002,0.006-0.006,0.008-0.009v-0.001c6.964-10.278,11.033-22.677,11.033-36.027C370.522,28.793,341.728,0,306.212,0z"/>
	<path style="fill:#FFD923;" d="M364.618,46.249c10.838,0,31.997,14.45,37.158,29.418h-50.578L364.618,46.249z"/>
	<path style="fill:#FFB819;" d="M361.935,94.546c9.275,0,28.122-6.07,32.539-18.879h-43.275L361.935,94.546z"/>
	<path style="fill:#FF8189;" d="M349.503,171.324c-0.008-0.304-0.017-0.608-0.025-0.912c-0.157-5.017-0.516-9.982-1.07-14.889   c-66.848,0.625-120.85,55.002-120.85,122c0,19.584,4.631,38.08,12.833,54.479c57.244-19.621,99.319-69.203,107.662-132.608   c0.033-0.259,0.069-0.519,0.102-0.779c0.156-1.227,0.299-2.46,0.429-3.696c0.171-1.654,0.333-3.311,0.46-4.978   c0.04-0.521,0.065-1.046,0.099-1.567c0.103-1.527,0.19-3.059,0.255-4.597c0.024-0.575,0.049-1.152,0.066-1.729   c0.063-1.991,0.109-3.988,0.109-5.996C349.571,174.471,349.544,172.895,349.503,171.324z"/>
	<path style="opacity:0.2;fill:#222222;" d="M131.304,226.24l-55.442,76.02c30.007,21.984,50.698,34.367,92.347,38.135   c82.156,7.434,151.993-40.913,174.08-114.154H131.304z"/>
	<path style="fill:#FFD923;" d="M281.958,394.41h-39.883l-27.319-68.86c-1.527-3.85-5.886-5.735-9.737-4.205   c-3.851,1.527-5.733,5.887-4.206,9.737l25.126,63.328h-19.742c-4.143,0-7.5,3.358-7.5,7.5c0,4.143,3.357,7.5,7.5,7.5h75.762   c4.143,0,7.5-3.357,7.5-7.5C289.458,397.769,286.101,394.41,281.958,394.41z"/>
	<path style="opacity:0.3;fill:#222222;" d="M231.737,110.681c-5.697-0.313-11.288-0.028-16.721,0.776L82.168,293.612   c89.766,4.487,159.983-3.166,194.808-34.372l-0.008-0.008c18.764-14.16,31.406-36.171,32.793-61.479   C312.261,152.163,277.328,113.18,231.737,110.681z"/>
	<path style="fill:#333E48;" d="M239.925,99.392c-32.529-1.783-61.695,15.491-76.644,42.099l0.003,0.003   c-14.861,27.501-78.263,140.559-78.263,140.559c92.323,5.062,164.629-2.276,200.143-34.101l-0.008-0.007   c18.764-14.16,31.405-36.171,32.793-61.479C320.448,140.874,285.517,101.891,239.925,99.392z"/>
	<circle style="fill:#333E48;" cx="333.607" cy="54.43" r="9.412"/>
</g>















</svg>
