<?xml version="1.0" encoding="iso-8859-1"?>
<!-- Generator: Adobe Illustrator 19.0.0, SVG Export Plug-In . SVG Version: 6.00 Build 0)  -->
<svg version="1.1" id="Layer_1" xmlns="http://www.w3.org/2000/svg" xmlns:xlink="http://www.w3.org/1999/xlink" x="0px" y="0px"
	 viewBox="0 0 512 512" style="enable-background:new 0 0 512 512;" xml:space="preserve">
<circle style="fill:#B2E3FF;" cx="256" cy="256" r="256"/>
<path style="fill:#A9D8F2;" d="M495.14,347.38c-0.268-0.204-0.528-0.412-0.8-0.612c0.396-0.056,0.76-0.096,1.092-0.124
	c0.072-0.188,0.152-0.376,0.224-0.564c-0.756-0.588-1.524-1.18-2.304-1.768c0.776-0.104,1.456-0.168,1.976-0.168
	c-0.956-0.764-1.96-1.532-2.972-2.288c0.78-0.1,1.46-0.168,1.98-0.168c-0.956-0.76-1.96-1.528-2.972-2.284
	c0.78-0.104,1.456-0.172,1.976-0.172c-0.956-0.76-1.96-1.528-2.972-2.288c0.78-0.1,1.46-0.164,1.98-0.164
	c-0.956-0.764-1.96-1.532-2.972-2.288c0.78-0.104,1.46-0.168,1.98-0.168c-0.956-0.764-1.956-1.528-2.972-2.288
	c0.78-0.104,1.46-0.168,1.98-0.168c-0.952-0.764-1.956-1.528-2.972-2.288c0.78-0.1,1.46-0.164,1.98-0.164
	c-0.952-0.764-1.956-1.532-2.968-2.288c0.776-0.104,1.456-0.172,1.976-0.172c-0.952-0.76-1.956-1.524-2.968-2.284
	c0.776-0.104,1.456-0.168,1.98-0.168c-0.956-0.764-1.96-1.532-2.972-2.288c0.776-0.1,1.456-0.168,1.98-0.168
	c-0.956-0.76-1.96-1.528-2.972-2.284c0.776-0.104,1.456-0.172,1.98-0.172c-0.956-0.76-1.96-1.528-2.972-2.288
	c0.776-0.1,1.46-0.164,1.98-0.164c-0.956-0.764-1.96-1.532-2.972-2.288c0.78-0.104,1.46-0.168,1.98-0.168
	c-0.956-0.764-1.96-1.528-2.972-2.288c0.78-0.104,1.46-0.168,1.98-0.168c-0.956-0.764-1.96-1.528-2.972-2.288
	c0.78-0.1,1.46-0.164,1.98-0.164c-0.956-0.764-1.96-1.532-2.972-2.288c0.78-0.104,1.46-0.172,1.98-0.172
	c-0.956-0.76-1.96-1.524-2.972-2.284c0.78-0.104,1.46-0.168,1.98-0.168c-0.956-0.764-1.96-1.532-2.972-2.288
	c0.78-0.1,1.46-0.168,1.98-0.168c-0.956-0.76-1.96-1.528-2.972-2.284c0.78-0.104,1.46-0.172,1.98-0.172
	c-0.956-0.76-1.96-1.528-2.972-2.288c0.78-0.1,1.46-0.164,1.98-0.164c-0.956-0.764-1.96-1.532-2.972-2.288
	c0.78-0.104,1.46-0.168,1.98-0.168c-0.952-0.764-1.96-1.528-2.972-2.288c0.78-0.104,1.46-0.168,1.98-0.168
	c-0.952-0.764-1.956-1.528-2.968-2.288c0.776-0.1,1.456-0.164,1.976-0.164c-0.952-0.764-1.956-1.532-2.968-2.288
	c0.776-0.104,1.456-0.172,1.976-0.172c-0.952-0.76-1.956-1.524-2.968-2.284c0.776-0.104,1.456-0.168,1.976-0.168
	c-0.952-0.764-1.956-1.532-2.968-2.288c0.776-0.1,1.456-0.168,1.98-0.168c-0.956-0.76-1.96-1.528-2.972-2.284
	c0.776-0.104,1.46-0.172,1.98-0.172c-0.956-0.76-1.96-1.528-2.972-2.288c0.78-0.1,1.456-0.164,1.976-0.164
	c-0.956-0.764-1.96-1.532-2.972-2.288c0.78-0.104,1.46-0.168,1.98-0.168c-0.956-0.764-1.96-1.528-2.968-2.288
	c0.776-0.104,1.456-0.168,1.976-0.168c-0.956-0.764-1.96-1.528-2.972-2.288c0.78-0.1,1.46-0.164,1.98-0.164
	c-0.956-0.764-1.96-1.532-2.968-2.288c0.776-0.104,1.456-0.172,1.976-0.172c-0.956-0.76-1.96-1.524-2.972-2.284
	c0.78-0.104,1.46-0.168,1.98-0.168c-0.956-0.764-1.96-1.532-2.972-2.288c0.78-0.1,1.46-0.168,1.98-0.168
	c-0.956-0.76-1.96-1.528-2.968-2.284c0.776-0.104,1.456-0.172,1.976-0.172c-0.956-0.76-1.96-1.528-2.972-2.288
	c0.78-0.1,1.46-0.164,1.98-0.164c-0.956-0.764-1.96-1.528-2.968-2.288c0.776-0.104,1.456-0.168,1.976-0.168
	c-0.952-0.764-1.96-1.528-2.972-2.288c0.78-0.104,1.46-0.168,1.98-0.168c-0.952-0.764-1.956-1.528-2.968-2.288
	c0.776-0.104,1.456-0.168,1.976-0.168c-0.952-0.764-1.956-1.528-2.968-2.288c0.776-0.104,1.456-0.168,1.976-0.168
	c-0.952-0.764-1.956-1.528-2.964-2.288c0.772-0.104,1.452-0.168,1.972-0.168c-0.952-0.764-1.956-1.528-2.968-2.288
	c0.776-0.104,1.456-0.168,1.98-0.168c-0.956-0.764-1.96-1.528-2.968-2.288c0.772-0.104,1.456-0.168,1.976-0.168
	c-0.956-0.764-1.96-1.528-2.972-2.288c0.78-0.104,1.46-0.168,1.98-0.168c-0.956-0.764-1.96-1.528-2.968-2.288
	c0.776-0.104,1.456-0.168,1.976-0.168c-0.956-0.764-1.96-1.528-2.972-2.288c0.78-0.104,1.46-0.168,1.98-0.168
	c-0.956-0.764-1.96-1.528-2.968-2.288c0.776-0.104,1.456-0.168,1.976-0.168c-0.956-0.764-1.96-1.528-2.972-2.288
	c0.78-0.104,1.46-0.168,1.98-0.168c-0.956-0.764-1.96-1.528-2.972-2.288c0.78-0.104,1.46-0.168,1.98-0.168
	c-0.956-0.764-1.96-1.528-2.968-2.288c0.776-0.104,1.456-0.168,1.976-0.168c-0.956-0.764-1.96-1.528-2.972-2.288
	c0.78-0.104,1.46-0.168,1.98-0.168c-0.956-0.764-1.96-1.528-2.968-2.288c0.776-0.104,1.456-0.168,1.976-0.168
	c-0.956-0.764-1.96-1.528-2.972-2.292c0.776-0.104,1.456-0.168,1.976-0.168c-0.952-0.764-1.96-1.528-2.972-2.288
	c0.78-0.104,1.46-0.168,1.98-0.168c-0.952-0.764-1.956-1.528-2.968-2.288c0.776-0.104,1.456-0.168,1.976-0.168
	c-0.952-0.764-1.956-1.528-2.968-2.288c0.776-0.104,1.456-0.168,1.976-0.168c-0.952-0.764-1.956-1.528-2.968-2.288
	c0.776-0.104,1.456-0.168,1.976-0.168c-0.952-0.764-1.956-1.528-2.968-2.288c0.776-0.104,1.456-0.168,1.98-0.168
	c-0.956-0.764-1.96-1.528-2.972-2.288c0.776-0.104,1.46-0.168,1.98-0.168c-0.956-0.764-1.96-1.528-2.972-2.288
	c0.78-0.104,1.46-0.168,1.98-0.168c-0.956-0.764-1.96-1.528-2.972-2.288c0.78-0.104,1.46-0.168,1.98-0.168
	c-0.956-0.764-1.96-1.528-2.972-2.288c0.78-0.104,1.46-0.168,1.98-0.168c-0.956-0.764-1.96-1.528-2.972-2.288
	c0.78-0.104,1.46-0.168,1.98-0.168c-0.956-0.764-1.96-1.528-2.972-2.288c0.78-0.104,1.46-0.168,1.98-0.168
	c-0.956-0.764-1.96-1.528-2.972-2.288c0.78-0.104,1.46-0.168,1.98-0.168c-0.956-0.764-1.96-1.528-2.972-2.288
	c0.78-0.104,1.46-0.168,1.98-0.168c-0.956-0.764-1.96-1.528-2.972-2.288c0.78-0.104,1.46-0.168,1.98-0.168
	c-0.956-0.764-1.96-1.528-2.972-2.288c0.78-0.104,1.46-0.168,1.98-0.168c-0.956-0.764-1.96-1.528-2.972-2.288
	c0.78-0.104,1.46-0.168,1.98-0.168c-0.956-0.764-1.956-1.528-2.972-2.288c0.78-0.104,1.46-0.168,1.98-0.168
	c-0.952-0.764-1.956-1.528-2.972-2.288c0.78-0.104,1.46-0.168,1.98-0.168c-0.952-0.764-1.956-1.528-2.968-2.288
	c0.776-0.104,1.456-0.168,1.976-0.168c-0.952-0.764-1.956-1.528-2.968-2.288c0.776-0.104,1.456-0.168,1.98-0.168
	c-0.956-0.764-1.96-1.528-2.972-2.288c0.776-0.104,1.456-0.168,1.98-0.168c-0.956-0.764-1.96-1.528-2.972-2.288
	c0.776-0.104,1.456-0.168,1.98-0.168c-0.956-0.764-1.96-1.528-2.972-2.288c0.776-0.104,1.46-0.168,1.98-0.168
	c-0.956-0.764-1.96-1.528-2.972-2.288c0.78-0.104,1.46-0.168,1.98-0.168c-0.956-0.764-1.964-1.528-2.972-2.292
	c0.776-0.104,1.456-0.168,1.976-0.168c-0.956-0.764-1.96-1.528-2.968-2.288c0.776-0.104,1.456-0.168,1.976-0.168
	c-0.956-0.764-1.96-1.528-2.972-2.288c0.78-0.104,1.46-0.168,1.98-0.168c-0.956-0.764-1.96-1.528-2.968-2.288
	c0.776-0.104,1.456-0.168,1.976-0.168c-0.956-0.764-1.96-1.528-2.972-2.288c0.78-0.104,1.46-0.168,1.98-0.168
	c-0.956-0.764-1.96-1.528-2.972-2.288c0.78-0.104,1.46-0.168,1.98-0.168c-0.956-0.764-1.96-1.528-2.968-2.288
	c0.776-0.104,1.456-0.168,1.976-0.168c-0.956-0.764-1.96-1.528-2.972-2.288c0.78-0.104,1.46-0.168,1.98-0.168
	c-0.956-0.764-1.956-1.528-2.968-2.288c0.776-0.104,1.456-0.168,1.976-0.168c-0.952-0.764-1.956-1.528-2.972-2.288
	c0.78-0.104,1.46-0.168,1.98-0.168c-0.952-0.764-1.956-1.528-2.964-2.288c0.772-0.104,1.452-0.168,1.972-0.168
	c-0.952-0.764-1.956-1.528-2.968-2.288C406.8,128.064,407.48,128,408,128c-1.216-0.972-2.472-1.94-3.772-2.908
	c-0.712-0.532-1.452-1.056-2.192-1.584c-0.588-0.424-1.168-0.848-1.768-1.272c-1.064-0.736-2.148-1.46-3.252-2.18
	c-0.3-0.196-0.584-0.4-0.892-0.596c-1.288-0.836-2.608-1.664-3.952-2.484c-0.116-0.076-0.236-0.148-0.356-0.224
	c-1.456-0.888-2.944-1.756-4.456-2.612l-0.012-0.004c-4.588-2.604-9.416-5.044-14.38-7.252c-0.008,0-0.016-0.004-0.02-0.008
	C358.396,100.404,342.656,96,328,96c-54.552,0-78.388,53.788-100.74,105.796C202.64,259.1,177.18,318.36,111.3,318.36
	c-4.584,0-8.552,3.196-9.536,7.676c-0.536,2.428-0.084,4.872,1.084,6.916c0.22,0.864,0.556,1.684,0.996,2.452
	c0.216,0.868,0.552,1.688,0.988,2.456c0.22,0.864,0.556,1.684,0.996,2.456c0.216,0.864,0.552,1.684,0.988,2.452
	c0.22,0.868,0.556,1.688,0.996,2.46c0.216,0.86,0.552,1.68,0.988,2.452c0.22,0.868,0.556,1.684,0.992,2.456
	c0.22,0.864,0.556,1.684,0.996,2.456c0.216,0.864,0.552,1.684,0.988,2.452c0.22,0.868,0.556,1.688,0.996,2.456
	c0.22,0.868,0.556,1.692,0.996,2.464c0.22,0.86,0.552,1.68,0.992,2.444c0.22,0.868,0.552,1.688,0.992,2.456
	c0.216,0.864,0.552,1.684,0.992,2.456c0.22,0.864,0.552,1.684,0.992,2.456c0.216,0.864,0.552,1.684,0.988,2.456
	c0.224,0.86,0.556,1.68,0.992,2.452c0.22,0.868,0.556,1.688,0.992,2.456c0.224,0.864,0.556,1.684,0.992,2.456
	c0.22,0.864,0.556,1.684,0.992,2.452c0.224,0.868,0.556,1.688,0.992,2.456c0.22,0.864,0.556,1.684,0.992,2.456
	c0.22,0.864,0.552,1.684,0.992,2.452c0.216,0.868,0.552,1.688,0.992,2.46c0.216,0.86,0.552,1.68,0.992,2.452
	c0.22,0.864,0.552,1.684,0.992,2.456c0.216,0.864,0.552,1.684,0.992,2.456c0.22,0.864,0.552,1.68,0.992,2.452
	c0.216,0.868,0.552,1.688,0.992,2.456c0.22,0.864,0.552,1.684,0.992,2.456c0.216,0.864,0.552,1.684,0.992,2.452
	c0.22,0.868,0.552,1.688,0.992,2.456c0.216,0.864,0.552,1.684,0.988,2.456c0.224,0.864,0.556,1.684,0.992,2.452
	c0.22,0.868,0.556,1.688,0.992,2.46c0.224,0.868,0.56,1.688,0.996,2.46c0.224,0.86,0.556,1.68,0.992,2.448
	c0.22,0.864,0.556,1.684,0.988,2.456c0.224,0.864,0.56,1.684,0.996,2.452c0.22,0.868,0.556,1.688,0.988,2.456
	c0.22,0.864,0.556,1.684,0.992,2.456c0.22,0.864,0.556,1.684,0.996,2.452c0.216,0.868,0.552,1.688,0.988,2.46
	c0.22,0.86,0.556,1.68,0.996,2.452c0.216,0.864,0.552,1.684,0.988,2.456c0.22,0.864,0.556,1.684,0.996,2.456
	c0.216,0.86,0.552,1.68,0.988,2.452c0.22,0.868,0.556,1.688,0.996,2.456c0.216,0.864,0.552,1.684,0.988,2.456
	c0.22,0.864,0.556,1.684,0.996,2.452c0.216,0.868,0.552,1.688,0.988,2.456c0.22,0.864,0.556,1.684,0.996,2.456
	c0.216,0.864,0.552,1.684,0.988,2.452c0.22,0.868,0.556,1.688,0.996,2.46c0.216,0.86,0.552,1.68,0.988,2.452
	c0.22,0.868,0.556,1.684,0.992,2.456c0.22,0.864,0.556,1.684,0.996,2.456c0.216,0.864,0.552,1.68,0.984,2.452
	c0.224,0.868,0.56,1.688,1,2.456c0.216,0.864,0.552,1.684,0.984,2.456c0.228,0.868,0.564,1.692,1,2.468
	c0.224,0.86,0.556,1.672,0.992,2.44c0.22,0.864,0.556,1.684,0.992,2.456c0.224,0.864,0.556,1.684,0.992,2.456
	c0.22,0.864,0.556,1.684,0.992,2.456c0.22,0.86,0.556,1.68,0.992,2.452c0.156,0.628,0.44,1.204,0.72,1.784
	C196.216,506.636,225.476,512,256,512C365.18,512,458.34,443.624,495.14,347.38z"/>
<g>
	<path style="fill:#E2854C;" d="M216,404v-36.824c0-5.396-2.6-9.76-8-9.76s-8,4.368-8,9.76V404H216z"/>
	<path style="fill:#E2854C;" d="M248,404v-36.824c0-5.396-2.6-9.76-8-9.76s-8,4.368-8,9.76V404H248z"/>
</g>
<path style="fill:#356178;" d="M245.84,372.976L245.84,372.976c-39.568,0-87.5-12.444-138.616-35.988
	c-4.168-1.916-6.432-6.484-5.452-10.956c0.98-4.484,4.944-7.676,9.536-7.676c65.884,0,91.34-59.252,115.96-116.564
	C249.612,149.788,273.448,96,328,96c28,0,60,16,80,32c-4,0-16.916,3.48-20.788,4.512c-18.528,4.92-20.652,37.884-23.108,76.056
	c-2.672,41.516-5.716,88.576-29.852,124.952C317.124,359.332,286.544,372.976,245.84,372.976z"/>
<path style="fill:#2D5266;" d="M387.212,132.512c0.312-0.084,0.568-0.268,0.856-0.384c-77.684-1.62-31.168,292.448-285.596,200.004
	c0.936,2.08,2.564,3.844,4.752,4.852c51.116,23.544,99.056,35.988,138.616,35.988c40.704,0,71.284-13.648,88.412-39.46
	c24.136-36.376,27.18-83.432,29.852-124.952C366.56,170.396,368.684,137.432,387.212,132.512z"/>
<path style="fill:#4681A0;" d="M362.312,204.048c-1.072-1.068-2.384-1.888-3.824-2.364c-7.98-2.652-16.364-4.004-24.896-4.004
	c-40.268,0-77.072,29.388-89.5,71.468c-9.744,32.992-4.068,67.272,15.564,94.048c0.464,0.628,1.02,1.22,1.62,1.72l7.552,6.292
	c29.252-4.308,51.712-17.012,65.42-37.684c24.132-36.376,27.176-83.432,29.848-124.952c0.056-0.86,0.108-1.708,0.172-2.576
	L362.312,204.048z"/>
<path style="fill:#3D718C;" d="M362.312,204.048c-1.072-1.068-2.384-1.888-3.824-2.364c-6.556-2.176-13.392-3.428-20.348-3.824
	c-17.756,49.976-37.436,114.392-91.916,140.488c3.304,8.76,7.764,17.124,13.424,24.848c0.464,0.628,1.02,1.22,1.62,1.72l7.552,6.292
	c21.892-3.228,39.972-11.152,53.432-23.604c0.048-0.04,0.088-0.084,0.136-0.12c2.076-1.924,4.012-3.984,5.864-6.12
	c0.32-0.38,0.636-0.764,0.952-1.148c1.776-2.132,3.476-4.344,5.032-6.688c24.136-36.376,27.18-83.432,29.852-124.952
	c0.056-0.868,0.108-1.716,0.168-2.58L362.312,204.048z"/>
<path style="fill:#90B3C6;" d="M254.76,282.408c12.432-42.072,49.236-71.46,89.5-71.46c6.644,0,13.144,1.06,19.488,2.68
	c0.112-1.676,0.244-3.396,0.348-5.064c0.056-0.86,0.108-1.708,0.172-2.576l-1.956-1.944c-1.072-1.068-2.384-1.888-3.824-2.364
	c-7.98-2.652-16.364-4.004-24.896-4.004c-40.268,0-77.072,29.388-89.5,71.468c-9.744,32.992-4.068,67.268,15.564,94.048
	c0.464,0.628,1.02,1.224,1.62,1.716l3.444,2.884C249.776,342.492,246.048,311.96,254.76,282.408z"/>
<g>
	<path style="fill:#86A6B8;" d="M259.656,363.192c0.464,0.628,1.02,1.224,1.62,1.716l3.444,2.884
		c-5.996-10.144-10.152-21.14-12.456-32.572c-1.96,1.096-3.976,2.136-6.04,3.124C249.536,347.1,253.996,355.468,259.656,363.192z"/>
	<path style="fill:#86A6B8;" d="M362.312,204.048c-1.072-1.068-2.384-1.888-3.824-2.364c-6.556-2.176-13.392-3.428-20.348-3.824
		c-1.608,4.532-3.244,9.18-4.912,13.912c3.64-0.488,7.312-0.82,11.032-0.82c6.644,0,13.144,1.06,19.492,2.68
		c0.108-1.676,0.24-3.396,0.344-5.064c0.056-0.868,0.108-1.716,0.168-2.58L362.312,204.048z"/>
</g>
<path style="fill:#F5F5F5;" d="M345.644,142.6c0,10.776-8.74,19.528-19.508,19.528c-10.796,0-19.552-8.752-19.552-19.528
	c0-10.784,8.752-19.528,19.552-19.528C336.916,123.072,345.644,131.816,345.644,142.6z"/>
<circle style="fill:#242424;" cx="326.12" cy="142.6" r="9.764"/>
<path style="fill:#E78244;" d="M368,128c0,7.272,1.664,14.14,4.56,20.316c3.216-8.324,7.808-13.988,14.652-15.804
	C391.084,131.48,404,128,408,128c-9.532-7.624-21.8-15.232-35.052-21.124C369.812,113.256,368,120.412,368,128z"/>
<path style="fill:#D97A40;" d="M369.264,138.816c0.768,3.308,1.884,6.488,3.288,9.5c0.016-0.04,0.032-0.072,0.052-0.108
	c0.416-1.064,0.852-2.084,1.308-3.056c0.244-0.504,0.5-0.976,0.752-1.46c0.328-0.62,0.664-1.22,1.012-1.796
	c0.264-0.436,0.536-0.868,0.812-1.276c0.456-0.676,0.944-1.308,1.44-1.912c0.196-0.232,0.376-0.496,0.576-0.716
	c0.696-0.78,1.44-1.468,2.22-2.108c0.256-0.212,0.54-0.4,0.804-0.596c0.604-0.444,1.24-0.848,1.888-1.208
	c0.28-0.156,0.564-0.312,0.848-0.452c0.936-0.448,1.912-0.84,2.94-1.116c0.312-0.084,0.568-0.268,0.856-0.384
	C380.836,131.98,374.688,134.396,369.264,138.816z"/>
<g>
</g>
<g>
</g>
<g>
</g>
<g>
</g>
<g>
</g>
<g>
</g>
<g>
</g>
<g>
</g>
<g>
</g>
<g>
</g>
<g>
</g>
<g>
</g>
<g>
</g>
<g>
</g>
<g>
</g>
</svg>
