<?xml version="1.0" encoding="iso-8859-1"?>
<!-- Generator: Adobe Illustrator 18.0.0, SVG Export Plug-In . SVG Version: 6.00 Build 0)  -->
<!DOCTYPE svg PUBLIC "-//W3C//DTD SVG 1.1//EN" "http://www.w3.org/Graphics/SVG/1.1/DTD/svg11.dtd">
<svg version="1.1" id="Capa_1" xmlns="http://www.w3.org/2000/svg" xmlns:xlink="http://www.w3.org/1999/xlink" x="0px" y="0px"
	 viewBox="0 0 418.828 418.828" style="enable-background:new 0 0 418.828 418.828;" xml:space="preserve">
<g>
	<path d="M243.241,48.498c-6.065,0-11-4.935-11-11c0-2.209,1.791-4,4-4s4,1.791,4,4c0,1.654,1.346,3,3,3s3-1.346,3-3
		c0-2.209,1.791-4,4-4s4,1.791,4,4C254.241,43.564,249.307,48.498,243.241,48.498z"/>
	<path d="M335.803,69.764c-9.09-24.941-32.869-42.375-62.059-45.5c-0.008-0.001-0.015,0-0.023-0.001
		c-7.417-13.938-21.418-23.115-37.204-24.177c-7.776-0.534-14.78,1.472-20.736,3.395c-29.517,9.559-53.924,50.448-61.126,75.071
		l-1.67,5.701c-15.744,53.798-14.442,110.254,3.766,163.264c7.182,20.897,10.823,42.709,10.823,64.829
		c-0.009,28.938-23.57,52.481-52.52,52.481h-31.81c-2.209,0-4,1.791-4,4s1.791,4,4,4h31.81c33.36,0,60.509-27.131,60.52-60.48
		c0-23.007-3.788-45.694-11.257-67.429c-17.667-51.436-18.931-106.216-3.655-158.417l1.671-5.701
		c2.777-9.496,9.608-24.971,20.454-39.928c7.91-10.909,20.483-24.93,35.456-29.779c5.241-1.693,11.373-3.467,17.732-3.025
		c13.092,0.88,24.691,8.54,30.786,20.158c-10.379,10.68-11.568,34.722-7.052,44.494c-7.027,6.867-16.428,10.737-26.366,10.737
		c-6.406,0-12.662-1.634-18.217-4.705c-2.381-1.426-10.103-6.568-13.506-15.074c-0.82-2.052-3.148-3.046-5.199-2.228
		c-2.052,0.82-3.049,3.148-2.229,5.2c2.277,5.692,5.94,10.125,9.368,13.328c-0.267,0.361-0.511,0.742-0.714,1.15
		c-1.662,3.368-3.022,6.851-4.042,10.348l-1.67,5.709c-13.065,44.612-11.985,91.428,3.125,135.384
		c8.834,25.714,13.313,52.549,13.313,79.76c0,54.313-44.196,98.5-98.52,98.5h-6.81c-2.209,0-4,1.791-4,4s1.791,4,4,4h6.81
		c58.735,0,106.52-47.776,106.52-106.5c0-28.098-4.625-55.808-13.747-82.36c-14.569-42.382-15.611-87.521-3.014-130.537l1.671-5.713
		c0.86-2.951,2-5.892,3.385-8.739c0.35,0.21,0.713,0.392,1.067,0.592c0.695,0.416,1.316,0.733,1.357,0.753
		c6.471,3.362,13.683,5.134,21.05,5.134c13.379,0,25.944-5.796,34.662-15.918c20.131,2.293,37.199,15.602,44.244,34.931
		c2.373,6.512,3.453,13.316,3.211,20.222c-0.059,1.658,0.912,3.179,2.439,3.825c0.504,0.212,1.032,0.315,1.557,0.315
		c1.068,0,2.117-0.428,2.888-1.231C338.761,116.488,343.918,92.026,335.803,69.764z M274.173,32.367
		c21.649,2.675,39.79,14.067,49.632,30.683c-6.098,1.517-11.639,4.433-16.242,8.478c-10.732-10.849-25.288-18.145-41.794-20.625
		C266.834,43.13,269.554,35.454,274.173,32.367z M300.089,80.408c-9.503-7.517-21.206-12.18-33.851-13.072
		c-0.625-2.257-0.962-5.198-0.99-8.427c14.627,2.335,27.471,8.874,36.883,18.509C301.411,78.38,300.724,79.373,300.089,80.408z
		 M306.152,85.908c0.41-0.747,0.848-1.473,1.312-2.177c2.047,2.802,3.857,5.786,5.372,8.952c0.689,1.442,1.31,2.91,1.865,4.399
		C312.264,93.001,309.388,89.262,306.152,85.908z M326.063,114.56c-0.183-8.711-2.202-17.365-6.01-25.329
		c-1.997-4.173-4.424-8.075-7.217-11.683c4.095-3.602,9.12-6.08,14.645-7.124c0.282,0.687,0.551,1.38,0.807,2.08
		C333.416,86.574,332.448,101.652,326.063,114.56z"/>
</g>
<g>
</g>
<g>
</g>
<g>
</g>
<g>
</g>
<g>
</g>
<g>
</g>
<g>
</g>
<g>
</g>
<g>
</g>
<g>
</g>
<g>
</g>
<g>
</g>
<g>
</g>
<g>
</g>
<g>
</g>
</svg>
