<?xml version="1.0"?>
<svg xmlns:rdf="http://www.w3.org/1999/02/22-rdf-syntax-ns#" xmlns="http://www.w3.org/2000/svg" xmlns:cc="http://web.resource.org/cc/" xmlns:dc="http://purl.org/dc/elements/1.1/" id="svg2" viewBox="0 0 341.58 197.83" version="1.0">
  <g id="layer1" transform="translate(-37.41 146.31)">
    <path id="path1982" d="m229.11 39.323c-6.61-1.916-16.22-7.343-16.24-9.175 0-0.44 1.25-1.128 2.78-1.529 1.53-0.4 2.41-1.103 1.95-1.561-1.26-1.268-6.81 0.467-9.23 2.885-2.03 2.024-2.1 2.003-1.36-0.358 0.68-2.114-0.09-2.77-4.88-4.184-6.07-1.794-6.57-2.421-4.1-5.189 1.33-1.498 1.25-1.522-0.56-0.156-1.18 0.888-3.45 1.429-5.05 1.202-2.26-0.32-3.16-1.548-3.99-5.463-2.29-10.713-3.85-13.674-7.78-14.754-4.22-1.1598-24.26 0.675-38 3.4794-4.94 1.0072-16.02 4.4316-24.62 7.6096-17.68 6.526-44.901 15.661-46.677 15.661-0.646 0-1.175-0.78-1.175-1.734 0-2.575 16.699-17.254 19.53-17.167 1.351 0.041-3.146 4.225-8.1 7.536-5.987 4.001-6.986 4.865-6.356 5.495 0.357 0.358 5.68-1.052 11.827-3.132 6.148-2.079 11.992-3.469 12.991-3.087 1.1 0.423 1.47 0.154 0.95-0.688-0.56-0.903-0.01-1.115 1.58-0.612 1.34 0.424 5.95-0.608 10.26-2.297 4.3-1.687 7.83-2.7936 7.83-2.4587s1.56-0.2414 3.47-1.2808c1.91-1.0393 8.3-3.4149 14.2-5.2791 5.91-1.8641 11.28-3.887 11.94-4.4953 1.55-1.4348-15.21-1.8085-21.92-0.4884-1.11 0.2176-6.49 1.3244-11.96 2.4596-5.48 1.1353-10.1 1.9017-10.27 1.7033-1.03-1.1584 2.32-6.3866 4.44-6.9409 1.39-0.3627 2.52-1.2236 2.52-1.9131 0-1.307-6.36-0.7986-10.73 0.8576-1.4 0.5309-0.9-0.1788 1.13-1.5941 2.01-1.403 4.85-3.9841 6.31-5.7361 1.7-2.034 6.31-4.384 12.76-6.505 14.36-4.718 17.05-5.838 17.05-7.094 0-2.346-6.87-0.929-16.05 3.31-5.26 2.431-9.81 4.42-10.1 4.42-0.3 0 0.62-1.625 2.03-3.611 1.41-1.985 6.71-5.745 11.77-8.354 5.05-2.609 13.45-7.42 18.66-10.69 28.49-17.885 39.23-23.636 51.96-27.819 9.05-2.975 25.39-6.965 33.91-8.282 3.12-0.483 6.25-1.308 6.94-1.833 0.7-0.526 3.42-1.651 6.06-2.501 6.53-2.105 9.32-5.374 8.9-10.442-0.19-2.269-0.42-8.778-0.51-14.468-0.14-9.09 0.26-11.13 3.33-16.77 4.84-8.89 9.85-11.7 22.1-12.41 8.58-0.5 10.44-0.2 14.65 2.31 2.65 1.58 5.5 3.71 6.34 4.74 1.53 1.88 14.51 4.35 31.26 5.96 9.75 0.93 15.83 3.43 15.83 6.5 0 1.66 0.34 1.74 1.94 0.4 1.48-1.22 2.6-1.27 4.74-0.18 1.54 0.79 4.39 2.01 6.34 2.72 7.73 2.8-2.25 5.56-14.11 3.91-7.62-1.06-21.08 0.89-33.38 4.83-4.31 1.38-10.44 2.85-13.64 3.26-6.95 0.9-11.78 4.788-10.79 8.703 3.36 13.344 4.52 20.25 4.56 26.99 0.04 5.964 0.49 7.892 1.84 7.892 0.99 0 3.55 1.471 5.69 3.269 9.17 7.721 2.38 16.59-27.74 36.229-6.62 4.32-13.44 9.1834-15.15 10.808-5.99 5.6894-25.61 14.093-32.9 14.093-4.41 0.0003-4.77 0.6206-5.73 9.757-1.03 9.909 1.3 14.43 9.63 18.648 3.43 1.74 7.28 3.163 8.56 3.163s3.43 0.835 4.78 1.854c2.33 1.76 2.26 1.849-1.34 1.746-2.08-0.059-6.99-1.035-10.9-2.169zm-3.53-3.679c-0.99-0.352-3.14-2.078-4.77-3.835-2.12-2.29-3.35-2.809-4.32-1.83-1.36 1.356-1.18 1.513 7.11 6.094 1.39 0.767 2.81 1.129 3.16 0.803 0.34-0.326-0.19-0.88-1.18-1.232zm-17.6-12.589c1.57-2.002 1.52-2.047-0.48-0.476-2.1 1.649-2.77 2.686-1.73 2.686 0.26 0 1.25-0.994 2.21-2.21zm7.41 0.873c0-0.736-0.57-0.986-1.26-0.557-0.7 0.429-1.26 1.031-1.26 1.337 0 0.307 0.56 0.557 1.26 0.557 0.69 0 1.26-0.602 1.26-1.337zm-10.23-1.662c1.16-1.395 0.81-1.736-1.76-1.736-1.77 0-3.57 0.594-4.02 1.319-0.51 0.815-0.01 1.011 1.28 0.514 1.16-0.444 2.1-0.256 2.1 0.416 0 1.682 0.7 1.533 2.4-0.513zm-119.2-0.789c1.665-0.716 1.88-1.109 0.631-1.155-1.042-0.038-2.746 0.482-3.788 1.155-2.308 1.492-0.315 1.492 3.157 0zm129.43-1.894c0-1.042-0.22-1.894-0.5-1.894-0.27 0-0.82 0.852-1.22 1.894s-0.17 1.894 0.5 1.894 1.22-0.852 1.22-1.894zm-121.22-0.631c2.309-1.492 0.315-1.492-3.156 0-1.666 0.715-1.881 1.108-0.632 1.154 1.042 0.038 2.747-0.481 3.788-1.154zm101.38-2.668c-1.54-1.537-4.15-0.507-4.15 1.634 0 0.838 0.72 0.743 1.92-0.253 1.63-1.354 1.8-1.233 1.08 0.792-0.69 1.957-0.54 2.104 0.85 0.81 1.25-1.159 1.33-1.952 0.3-2.983zm16.05 1.464c0-0.662-0.66-2.666-1.48-4.454-1.13-2.486-1.13-3.5982 0-4.7311 2.56-2.563 1.68-3.1865-5.78-4.0808-3.99-0.4788-8.54-1.1741-10.1-1.5451-2.2-0.5218-2.84-0.1229-2.84 1.7604 0 3.7055 8.36 12.747 12.34 13.353 6.36 0.966 7.86 0.908 7.86-0.302zm4.7-6.154c0.33-4.096-2.26-5.6597-4.2-2.5297-0.63 1.0207-0.17 1.2147 1.51 0.6283 2.34-0.8232 2.34-0.7912-0.04 1.0484-2.29 1.773-2.3 1.897-0.16 1.897 1.99 0 2.06 0.277 0.56 2.099-1.49 1.798-1.47 2.011 0.13 1.482 1.03-0.34 2.02-2.421 2.2-4.625zm15.15-8.5808c9.97-3.3821 12.1-4.3054 11.44-4.9637-0.34-0.3453-3.4 0.5794-6.8 2.0549-5.25 2.2804-7.64 2.5647-15.96 1.8962-6.05-0.4856-9.79-0.3162-9.79 0.4429 0 0.6761 3.27 1.4343 7.26 1.6849s7.38 0.5631 7.53 0.6944 2.99-0.683 6.32-1.8096zm-7.85-5.8365c-2.08-0.7545-7.35-3.5508-11.7-6.2139-5.1-3.1158-9.37-4.8118-12-4.7568-4.08 0.086-4.08 0.087-0.92 1.542 1.73 0.802 3.61 2.184 4.16 3.0717 0.56 0.8881 2.12 1.6146 3.47 1.6146 1.36 0 2.47 0.5231 2.47 1.1624s1.7 1.5354 3.77 1.9912c2.08 0.4559 4.1 1.3534 4.5 1.9945 0.39 0.641 2.81 1.1207 5.38 1.0658l4.66-0.0996-3.79-1.3719zm-36.06-9.0557c5.25-2.743 5.42-2.997 2.69-3.866-2.3-0.73-3.77-0.09-6.86 2.994-4.64 4.6403-3.49 4.8801 4.17 0.872zm-14.94-1.57c6.09-3.312 6.91-4.611 5.41-8.535-1.1-2.85-3.35-2.482-2.44 0.398 0.57 1.789-0.33 3.072-3.56 5.066-4.43 2.741-8.17 6.429-6.51 6.429 0.52 0 3.71-1.511 7.1-3.358zm-34.48-3.587c4.99-2.084 9.08-4.176 9.08-4.65 0.01-2.557-5.59-2.217-10.45 0.633-4.95 2.9-12.06 9.43-9.04 8.305 0.74-0.275 5.42-2.205 10.41-4.288zm22.97 0c7.1-4.459 6.93-5.781-0.35-2.7-4.01 1.697-9.95 7.146-7.73 7.091 0.62-0.016 4.26-1.992 8.08-4.391zm-32.65-10.821c2.81-1.438 4.83-2.898 4.49-3.245-0.68-0.68-10.98 4.247-10.98 5.252 0 1.055 1.23 0.675 6.49-2.007zm142.75-26.029c-0.91-0.365-2-0.32-2.42 0.099-0.42 0.42 0.32 0.718 1.65 0.664 1.48-0.061 1.77-0.36 0.77-0.763zm17.22-1.117c0.47-0.523 0.14-0.542-0.73-0.043-0.87 0.5-1.58 0.397-1.58-0.229 0-1.053-10.74-0.056-11.9 1.106-0.28 0.283 2.61 0.424 6.42 0.315s7.32-0.626 7.79-1.149zm1.45-3.886c2.27-2.272-1.09-29.196-4.11-33.007-3.3-4.151 8.6-13.954 14.99-12.354 1.73 0.44 4.96 0 7.19-0.96 13.33-5.73 17.32-7.69 17.32-8.53 0-1.16-19.61-0.61-24.31 0.68-2.06 0.57-3.47 0.46-3.47-0.27 0-1.53 9.1-2.82 20.06-2.85 5.65-0.01 7.75-0.4 6.49-1.19-1.59-1.01-1.55-1.3 0.31-2.01 4.12-1.58 0.91-2.8-9.79-3.69-8.35-0.69-11.75-1.58-15.32-4-4.64-3.15-7.07-3.19-4.48-0.07 1.13 1.36 0.2 2.27-4.56 4.43-6.95 3.15-19.37 14.04-17.06 14.96 1.57 0.63 1.47 0.98-2.64 9.15-1.39 2.765-1.73 4.737-0.95 5.521 0.68 0.67 0.89 2.084 0.49 3.141-0.42 1.076 0.24 2.64 1.48 3.551 1.23 0.895 1.88 2.194 1.45 2.887-0.43 0.692-0.2 1.616 0.51 2.052 0.7 0.436 1.28 2.18 1.28 3.876 0 1.695 0.47 3.082 1.05 3.082 1.34 0 3.74 7.714 3.05 9.793-0.29 0.864-2.32 1.572-4.52 1.572-4.07 0.002-15.05 3.635-16.89 5.583-1.06 1.13 31.3-0.214 32.43-1.347zm-5.02-43.311c0-0.73 0.57-1.33 1.26-1.33 0.7 0 1.27 0.25 1.27 0.55 0 0.31-0.57 0.91-1.27 1.34-0.69 0.43-1.26 0.18-1.26-0.56zm4.21-5.97c0-3.18 5.84-4.64 8.6-2.14s2.05 4.1-0.78 1.76c-1.55-1.3-2.47-1.23-4.87 0.34-2.61 1.71-2.95 1.71-2.95 0.04zm10.97-12.44c0.88-1.06 1.86-1.66 2.17-1.35 0.88 0.88-0.9 3.27-2.43 3.27-0.83 0-0.74-0.72 0.26-1.92zm7.55 0.66c2.48-1.6 6.31-1.6 6.31 0 0 0.7-1.84 1.26-4.1 1.25-3.11-0.02-3.65-0.32-2.21-1.25zm-211.18 132.39c4.345-1.403 7.615-3.0152 7.255-3.5838-0.35-0.5685 0.5-0.7363 1.89-0.3728s2.53 0.8265 2.53 1.029c0 0.7036-15.655 5.6506-17.608 5.5646-1.081-0.048 1.589-1.235 5.933-2.637zm6.725 0.962c1.07-1.015 10-4.401 10-3.7921 0 0.3473-1.97 1.4551-4.38 2.4611-4.24 1.772-6.7 2.354-5.62 1.331zm-47.667-2.866c0.969-0.9686 10.528-2.1161 15.261-1.8317 5.535 0.3325 0.018 1.9477-7.681 2.2497-4.578 0.179-7.989-0.009-7.58-0.418zm21.589-3.2249c1.339-0.7501 6.737-1.5732 11.995-1.8293 7.852-0.3823 9.114-0.1946 7.054 1.0495-1.38 0.8334-6.778 1.6565-11.996 1.8293-7.334 0.2429-8.935 0.0046-7.053-1.0495zm-0.199-3.0125c0.42-0.4195 1.509-0.4644 2.421-0.0996 1.007 0.4031 0.708 0.7023-0.763 0.7629-1.331 0.0548-2.077-0.2436-1.658-0.6633zm3.446-1.8585c-1.464-1.0301-1.214-1.1396 1.106-0.4828 1.971 0.5582 2.715 0.3903 2.171-0.4897-0.496-0.80377 1.333-1.8924 4.577-2.7231 2.973-0.7612 6.097-1.6152 6.943-1.8979 0.846-0.2826 1.845-0.0175 2.22 0.589 0.374 0.6066-2.306 2.0851-5.958 3.2856-3.651 1.2005-7.207 2.3781-7.902 2.6169-0.694 0.2388-2.115-0.1653-3.157-0.898z"/>
  </g>
  <metadata>
    <rdf:RDF>
      <cc:Work>
        <dc:format>image/svg+xml</dc:format>
        <dc:type rdf:resource="http://purl.org/dc/dcmitype/StillImage"/>
        <cc:license rdf:resource="http://creativecommons.org/licenses/publicdomain/"/>
        <dc:publisher>
          <cc:Agent rdf:about="http://openclipart.org/">
            <dc:title>Openclipart</dc:title>
          </cc:Agent>
        </dc:publisher>
      </cc:Work>
      <cc:License rdf:about="http://creativecommons.org/licenses/publicdomain/">
        <cc:permits rdf:resource="http://creativecommons.org/ns#Reproduction"/>
        <cc:permits rdf:resource="http://creativecommons.org/ns#Distribution"/>
        <cc:permits rdf:resource="http://creativecommons.org/ns#DerivativeWorks"/>
      </cc:License>
    </rdf:RDF>
  </metadata>
</svg>
