<svg id="Layer_1" enable-background="new 0 0 511.999 511.999" height="512" viewBox="0 0 511.999 511.999" width="512" xmlns="http://www.w3.org/2000/svg"><g><path d="m380.251 218.716 49.024-43.966c34.732-31.149 62.322-68.4 82.004-110.718 3.077-6.496-4.323-13.394-10.606-9.66l-177.346 105.281c-8.139 4.83-15.421 11.453-21.006 19.101l-51.964 71.166-55.599-76.144c-5.285-7.238-11.872-13.228-19.577-17.801l-163.851-97.271c-6.204-3.685-13.67 3.07-10.629 9.611 12.832 27.6 29.535 53.172 49.646 76.006 6.41 7.277 17.666-2.637 11.256-9.914-13.445-15.268-25.294-31.821-35.391-49.425l141.313 83.89c5.95 3.532 11.037 8.158 15.118 13.749l58.427 80.017-20.999 28.758c-22.84-2.504-40.632-3.792-53.715-3.883l-8.398-30.366c-8.063-29.157-24.225-55.24-46.735-75.428l-24.585-22.048c-7.22-6.473-17.234 4.692-10.016 11.167l24.585 22.048c20.371 18.269 34.996 41.873 42.294 68.259l7.477 27.035c-26.723 3.178-50.957 23.254-55.093 50.5h-22.22c-19.285 0-34.975 15.689-34.975 34.989 0 4.142 3.357 7.5 7.5 7.5h59.807c7.586 16.412 31.624 25.335 48.322 25.335h66.985v10.977c0 13.851 11.261 25.119 25.102 25.119h23.133v8.808c0 9.697 15 9.697 15 0v-8.808h14.248v8.808c0 9.697 15 9.697 15 0v-16.308c0-4.142-3.357-7.5-7.5-7.5-10.211 0-20.422 0-30.633 0-5.569 0-10.101-4.539-10.101-10.119v-10.977h49.998c9.697 0 9.697-15 0-15h-161.231c-12.49 0-24.037-5.112-32.361-14.165 16.158-11.297 8.8-37.419-10.854-38.594 3.733-17.84 19.349-32.033 39.749-35.405 7.679-1.27 91.907 4.977 91.907 4.977 10.935.832 22.266-4.621 28.433-13.708l59.717-87.997c3.329-4.905 7.404-9.22 12.114-12.822l138.863-106.228c-16.874 28.314-37.844 53.793-62.628 76.021l-49.024 43.966c-9.612 8.621-16.514 19.759-19.957 32.209l-20.379 73.678c-.789 4.933 1.223 8.068 6.036 9.404 62.223 10.019 116.231 20.146 116.751 20.243 6.109 1.163 11.043 5.272 13.446 10.686h-35.631c-18.115 0-31.356 10.328-42.585 23.382-8.393 9.122-20.311 14.353-32.697 14.353-9.697 0-9.697 15 0 15 16.569 0 32.511-6.997 43.736-19.196 8.326-9.807 17.744-18.539 31.546-18.539h44.718c4.143 0 7.5-3.358 7.5-7.5 0-16.072-11.45-29.917-27.245-32.925-.517-.097-50.022-9.379-108.888-18.975l18.147-65.613c2.679-9.679 8.044-18.339 15.517-25.04zm-127.562 208.883h-6.282c-5.57 0-10.102-4.539-10.102-10.119v-10.977h14.249v10.977c.001 3.6.767 7.022 2.135 10.119zm-136.622-67.668c0 3.439-2.798 6.238-6.237 6.238h-54.685c2.969-7.315 10.151-12.489 18.52-12.489h36.165c3.439 0 6.237 2.798 6.237 6.251zm217.845-178.056c-5.992 4.583-11.178 10.073-15.413 16.314l-59.717 87.997c-4.623 6.813-13.624 8.183-21.219 6.691l18.803-25.751c.012-.016.023-.032.035-.048l58.035-79.479c4.468-6.119 10.035-11.182 16.547-15.048l67.494-40.067z"/><path d="m147.048 343.057c9.652 0 9.668-15 0-15-9.652 0-9.668 15 0 15z"/></g></svg>