<?xml version="1.0" encoding="iso-8859-1"?>
<!-- Generator: Adobe Illustrator 19.0.0, SVG Export Plug-In . SVG Version: 6.00 Build 0)  -->
<svg version="1.1" id="Capa_1" xmlns="http://www.w3.org/2000/svg" xmlns:xlink="http://www.w3.org/1999/xlink" x="0px" y="0px"
	 viewBox="0 0 440 440" style="enable-background:new 0 0 440 440;" xml:space="preserve">
<g>
	<path style="fill:#763A02;" d="M224.011,440h-40v-16h24v-64h16V440z"/>
	<path style="fill:#763A02;" d="M280.011,440h-40v-16h24v-64h16V440z"/>
</g>
<path style="fill:#FFA900;" d="M27.843,30.288c-9.066,3.008-13.977,12.796-10.969,21.863c2.349,7.08,8.973,11.857,16.433,11.849
	h46.704V16L27.843,30.288z"/>
<path style="fill:#FCE9CC;" d="M112.011,0h24c35.346,0,64,28.654,64,64v80c0,35.346,28.654,64,64,64h160v48
	c0,61.856-50.144,112-112,112H185.147c-62.483,0-113.136-50.653-113.136-113.136c0-30.006,11.919-58.783,33.136-80l2.744-2.744
	c18.006-18.005,28.121-42.425,28.12-67.888V104c0-13.255-10.745-24-24-24c-22.091,0-40-17.909-40-40S89.92,0,112.011,0L112.011,0z"
	/>
<path style="fill:#FFA900;" d="M232.011,224v80h56c39.764,0,72-32.236,72-72v-88h-48C267.828,144,232.011,179.817,232.011,224z"/>
<path style="fill:#763A02;" d="M112.011,32L112.011,32c4.418,0,8,3.582,8,8l0,0c0,4.418-3.582,8-8,8l0,0c-4.418,0-8-3.582-8-8l0,0
	C104.011,35.582,107.593,32,112.011,32z"/>
<g>
</g>
<g>
</g>
<g>
</g>
<g>
</g>
<g>
</g>
<g>
</g>
<g>
</g>
<g>
</g>
<g>
</g>
<g>
</g>
<g>
</g>
<g>
</g>
<g>
</g>
<g>
</g>
<g>
</g>
</svg>
