<svg height="512pt" viewBox="0 0 512.02396 512" width="512pt" xmlns="http://www.w3.org/2000/svg"><path d="m498.710938 39.867188-40.054688-8.183594c-10.472656-16.652344-27.59375-28-47.011719-31.164063-34.277343-4.539062-61.5 22.28125-81.398437 41.910157-6.410156 6.277343-12.730469 12.660156-19.046875 19.035156l-231.894531 231.84375-76.796876 76.800781c-2.71875 2.707031-3.292968 6.898437-1.402343 10.238281 1.890625 3.34375 5.777343 5.011719 9.5 4.078125 44.15625-12.265625 86.4375-30.480469 125.6875-54.144531 16.394531 5.261719 33.199219 9.160156 50.234375 11.667969 18.496094 2.667969 37.128906 4.253906 55.808594 4.742187-5.972657 7.554688-11.578126 14.917969-13.851563 17.921875-5.507813 7.230469-4.382813 17.511719 2.5625 23.378907l42.351563 34.816406-4.753907 28.253906c-129.980469 19.609375-243.039062 43.445312-244.804687 43.820312-4.269532.910157-7.160156 4.894532-6.707032 9.234376.453126 4.339843 4.109376 7.636718 8.472657 7.644531.597656 0 1.191406-.0625 1.777343-.1875 1.996094-.425781 143.902344-30.328125 292.203126-50.644531.292968.304687.609374.613281.855468.894531-.644531.347656-1.3125.652343-1.996094.914062-2.90625 1.046875-5.023437 3.582031-5.527343 6.632813-.503907 3.046875.679687 6.132812 3.09375 8.058594 2.414062 1.929687 5.679687 2.402343 8.542969 1.238281 10.164062-3.898438 12.945312-9.957031 13.480468-14.351563.214844-1.945312.035156-3.910156-.519531-5.785156 10.40625-1.367188 20.792969-2.671875 31.164063-3.917969.289062.308594.605468.613281.855468.894531-.648437.34375-1.316406.648438-2 .914063-2.90625 1.046875-5.019531 3.585937-5.523437 6.632813-.503907 3.050781.675781 6.132812 3.089843 8.0625 2.414063 1.929687 5.683594 2.402343 8.546876 1.238281 10.160156-3.902344 12.941406-9.960938 13.480468-14.347657.203125-1.839843.050782-3.699218-.445312-5.484374 7.820312-.882813 15.578125-1.710938 23.28125-2.484376l89.265625 52.054688c4.050781 2.074219 9.015625.605469 11.285156-3.335938 2.273437-3.945312 1.050781-8.972656-2.777344-11.4375l-68.699219-40.035156c19.410157-1.707031 38.289063-2.980468 56.25-3.800781 2.269532-.089844 4.40625-1.082031 5.941407-2.753906 1.539062-1.671875 2.34375-3.886719 2.242187-6.152344-.316406-4.664063-4.246094-8.253906-8.917968-8.148437-37.332032 1.703124-78.507813 5.460937-120.488282 10.359374l-39.296875-32.222656-36.097656-29.636718c9.949219-13.089844 23.417969-30.21875 28.597656-35.398438.855469-.871094 1.511719-1.917969 1.917969-3.070312 15.609375-4.558594 30.234375-11.984376 43.121094-21.90625 16.867187-13.65625 30.921875-30.464844 41.367187-49.492188.246094-.332031.472657-.679688.675781-1.042969 0-.09375 0-.175781.058594-.269531 12.925782-23.058594 20.0625-48.90625 20.796875-75.324219 0-32.136719 4.265625-42.667969 32.425781-80.214843 3.121094-4.277344 5.3125-9.160157 6.433594-14.335938l32.078125-24.558594c.300781-.222656.589844-.46875.851563-.734375 4.386718-4.324219 6.066406-10.695312 4.386718-16.621093-1.675781-6.058594-6.542968-10.703126-12.671874-12.09375zm-175.429688 33.570312c6.265625-6.3125 12.535156-12.636719 18.886719-18.875 18.40625-18.066406 41.335937-40.507812 67.25-37.128906 8.132812 1.1875 15.78125 4.574218 22.128906 9.796875-43.878906 7.378906-91.402344 37.792969-108.980469 87.671875-11.363281-4.078125-23.425781-5.859375-35.480468-5.242188zm45.363281 135.5c-4.269531 35.304688-29.554687 64.476562-63.894531 73.710938-65.222656 19.578124-142.347656-8.257813-170.507812-20.136719l119.261718-119.253907c22.667969-22.65625 52.753906-22.246093 91.972656 1.289063 17.109376 10.257813 26.640626 36.742187 23.167969 64.390625zm-247.386719 66.5625c13.675782 6.140625 27.714844 11.445312 42.035157 15.886719-10.480469 8.019531-21.363281 15.496093-32.609375 22.402343-28.875 17.601563-59.46875 32.226563-91.304688 43.648438zm167.34375 159.785156 13.246094 10.878906c-5.171875.734376-10.324218 1.476563-15.453125 2.226563zm45.125 6.527344 2.390626-14.085938 14.507812 11.945313c-5.621094.6875-11.253906 1.394531-16.898438 2.117187zm-48.640624-77.226562c-5.488282 7.253906-4.324219 17.539062 2.648437 23.382812l33.210937 27.304688-3.644531 21.523437-75.203125-61.84375c3.414063-4.460937 14.234375-18.6875 22.355469-28.414063 12.582031-.398437 25.125-1.621093 37.546875-3.652343-6.851562 8.515625-13.933594 17.757812-16.9375 21.699219zm76.546874-63.351563c-46.414062 37.121094-136.210937 29.015625-172.65625 23.816406-11.316406-1.65625-22.523437-3.980469-33.5625-6.960937 9.949219-6.742188 19.335938-13.742188 28.160157-21 23.210937 6.050781 47.074219 9.238281 71.058593 9.496094 18.625.160156 37.175782-2.394532 55.066407-7.585938 26.230469-7.375 48.625-24.550781 62.546875-47.976562 7.132812 4.84375 14.554687 9.238281 22.230468 13.160156-8.816406 14.09375-19.925781 26.617187-32.871093 37.050781zm56.507813-112.808594c-.542969 21.171875-5.792969 41.960938-15.359375 60.859375-8.03125-4.085937-15.761719-8.730468-23.136719-13.902344 2.925781-7.847656 4.929688-16.007812 5.972657-24.320312 4.328124-34.695312-8.25-67.300781-31.332032-81.152344-5.410156-3.242187-10.691406-6.066406-15.871094-8.53125 16.210938-46.738281 65.109376-75.835937 107.125-78.585937.335938.738281.777344 1.417969 1.316407 2.023437 4.945312 8.070313 8.4375 16.945313 10.316406 26.222656 1.160156 5.449219 1.421875 11.050782.777344 16.582032 0 .203125-.085938.390625-.113281.589844-.46875 3.515624-1.785157 6.867187-3.839844 9.761718-30.164063 40.199219-35.855469 54.535156-35.855469 90.453125zm56.445313-116.4375c-.203126-1.410156-.390626-2.808593-.679688-4.269531-1.125-5.632812-2.757812-11.15625-4.875-16.5l25.804688 5.261719zm0 0"/><path d="m435.207031 68.964844c0 4.714844-3.820312 8.535156-8.535156 8.535156-4.710937 0-8.53125-3.820312-8.53125-8.535156 0-4.710938 3.820313-8.53125 8.53125-8.53125 4.714844 0 8.535156 3.820312 8.535156 8.53125zm0 0"/></svg>