<svg height="512" viewBox="0 0 74 74" width="512" xmlns="http://www.w3.org/2000/svg"><g id="line_color" data-name="line color"><path d="m62.931 33.726c-1.62 8.81-15.02 13.46-15.02 13.46l-10.76 4.09a12.519 12.519 0 0 1 -6 .73l-.96-.12a12.583 12.583 0 0 1 -5.95-2.37 12.689 12.689 0 0 0 -5.88-2.36l-7.48-1.17a8.571 8.571 0 0 1 -5.24 1.83l1.67-3.26-5.06-.81 2.73-1.51-2.56-1.36a55.977 55.977 0 0 0 9.6-3.9c7.59-10.5 21.58-15.65 34.03-15.85a2.492 2.492 0 0 0 2.47-2.49 2.564 2.564 0 0 0 -.14-.78 45.12 45.12 0 0 1 9.08 1.47 3.44 3.44 0 0 0 1.18 2.05 12.87 12.87 0 0 1 4.29 12.35z" fill="#bbbbcd"/><path d="m58.641 21.376a3.44 3.44 0 0 1 -1.18-2.05c-.09-.03-.77-.22-1.82-.45a3.773 3.773 0 0 0 .4.4 12.87 12.87 0 0 1 4.29 12.35 10.014 10.014 0 0 1 -.364 1.374c.228.027.581 4.288.259 6.157a11.9 11.9 0 0 0 2.7-5.433 12.87 12.87 0 0 0 -4.285-12.348z" fill="#9297ab"/><path d="m68.8 15.476a1.768 1.768 0 0 1 -2.27.48l-3.01-1.56a4.832 4.832 0 0 0 -1.86-.48 6.958 6.958 0 0 0 2.19-5.53l4.4 5.1c.481.65.921 1.33.55 1.99z" fill="#fcd462"/><path d="m67.427 16.664a2.533 2.533 0 0 1 -1.118-.26l-3.019-1.564a4.311 4.311 0 0 0 -1.653-.424.5.5 0 0 1 -.314-.868 6.468 6.468 0 0 0 2.031-5.1.5.5 0 0 1 .876-.384l4.4 5.1c.449.607 1.161 1.572.607 2.561a2.045 2.045 0 0 1 -1.81.939zm-4.742-3.1a5.476 5.476 0 0 1 1.054.381l3.022 1.566a1.277 1.277 0 0 0 1.6-.281c.2-.357-.027-.785-.517-1.448l-3.525-4.088a7.393 7.393 0 0 1 -1.634 3.87z" fill="#323c6b"/><path d="m61.661 13.916a3.813 3.813 0 0 0 -1.6.25c-2.17.86-2.63 3.01-2.65 4.58a3.688 3.688 0 0 0 .06.58 45.794 45.794 0 0 0 -9.09-1.47c-1.75-5.4 1.58-11.94 7.13-13.1 6.21-1.3 8.34 3.63 8.34 3.63a6.958 6.958 0 0 1 -2.19 5.53z" fill="#27ccbc"/><path d="m63.751 10.126c-.97-1.36-3.33-3.66-7.8-2.72-4.64.97-7.73 5.7-7.59 10.39-1.71-5.39 1.62-11.88 7.15-13.04 6.21-1.3 8.34 3.63 8.34 3.63a6.752 6.752 0 0 1 -.1 1.74z" fill="#21b3a9"/><path d="m57.562 17.314a51.984 51.984 0 0 0 -9.605-1.553 9.747 9.747 0 0 0 .427 2.092 45.628 45.628 0 0 1 9.071 1.464 5.816 5.816 0 0 1 .107-2.003z" fill="#e1e6e9"/><path d="m57.454 19.818a.5.5 0 0 1 -.137-.019 45.476 45.476 0 0 0 -8.957-1.446.5.5 0 0 1 -.455-.353 10.236 10.236 0 0 1 -.447-2.2.5.5 0 0 1 .141-.386.481.481 0 0 1 .382-.151 52.958 52.958 0 0 1 9.712 1.57.5.5 0 0 1 .354.6 5.371 5.371 0 0 0 -.1 1.833.5.5 0 0 1 -.5.553zm-8.689-2.445a46.031 46.031 0 0 1 8.15 1.286 6.23 6.23 0 0 1 .065-.978 52.458 52.458 0 0 0 -8.457-1.388 9.925 9.925 0 0 0 .242 1.08z" fill="#323c6b"/><path d="m47.956 24.349a47.72 47.72 0 0 0 -13.146 2.151c-1.4.436-2.776.936-4.141 1.467-6.669 2.586-13.169 5.982-18.135 11.133a6.172 6.172 0 0 0 -1.15 1.5 14.756 14.756 0 0 0 5.4.689 20.983 20.983 0 0 0 -3.584 3.229 12.254 12.254 0 0 0 4.026-.53 124.966 124.966 0 0 1 14-2.258c4.219-.5 8.517-.989 12.4-2.7s7.386-4.896 8.356-9.03a5.913 5.913 0 0 0 -.476-4.393c-.742-1.224-2.234-1.287-3.55-1.258z" fill="#9297ab"/><path d="m51.981 30a11.168 11.168 0 0 1 -2.39 4.65 9.553 9.553 0 0 0 .52-1.59 5.924 5.924 0 0 0 -.48-4.39c-.74-1.22-2.23-1.28-3.55-1.25a47.774 47.774 0 0 0 -13.15 2.14c-1.39.44-2.77.94-4.14 1.47-6.05 2.35-11.98 5.37-16.73 9.77-.23-.06-.46-.13-.68-.2a6.436 6.436 0 0 1 1.15-1.5c4.97-5.15 11.47-8.54 18.14-11.13 1.36-.53 2.74-1.03 4.14-1.47a48.039 48.039 0 0 1 13.15-2.15c1.31-.03 2.8.04 3.55 1.26a5.915 5.915 0 0 1 .47 4.39z" fill="#84879c"/><path d="m36.688 51.439-1.32 3.728c-.242 1.489 1.225 2.588 2.651 2.73 1.614-.133 4.024-.29 6.9-.645a3.551 3.551 0 0 1 .19-3.949l-9.761 2.045" fill="#fcd462"/><path d="m38.06 58.4a3.839 3.839 0 0 1 -2.681-1.373 2.467 2.467 0 0 1 -.5-1.937l1.342-3.814a.5.5 0 0 1 .943.334l-1.092 3.08 8.938-1.873a.5.5 0 0 1 .534.741 3.038 3.038 0 0 0 -.2 3.426.5.5 0 0 1 -.358.768c-2.343.289-4.412.451-5.923.568zm-2.2-2.644a1.666 1.666 0 0 0 .315.662 2.831 2.831 0 0 0 1.9.986l.911-.08c1.346-.1 3.138-.245 5.166-.479a3.815 3.815 0 0 1 .064-2.845z" fill="#323c6b"/><path d="m30.943 51.474-.225 9.116c-.242 1.489 1.17 2.608 2.647 2.975 1.614-.133 4.028-.056 6.9-.411a3.551 3.551 0 0 1 .19-3.949l-9.741 1.386" fill="#fcd462"/><path d="m33.365 64.065a.493.493 0 0 1 -.12-.015c-1.714-.425-3.3-1.773-3.022-3.528v-.013l.218-9.048a.493.493 0 0 1 .513-.488.5.5 0 0 1 .487.512l-.21 8.526 9.156-1.3a.5.5 0 0 1 .5.747 3.039 3.039 0 0 0 -.2 3.426.5.5 0 0 1 -.358.768c-1.867.231-3.561.282-4.92.323-.76.023-1.433.043-2 .09zm-2.165-3.038a2.73 2.73 0 0 0 2.205 2.034c.567-.044 1.229-.064 1.971-.086 1.162-.035 2.571-.078 4.114-.235a3.843 3.843 0 0 1 .1-2.906z" fill="#323c6b"/><circle cx="59.462" cy="8.296" fill="#323c6b" r="1.109"/><path d="m59.869 39.13c-.069.208-.1.416-.173.624-4.469 4.884-11.777 7.446-11.777 7.446l-10.773 4.089a12.584 12.584 0 0 1 -5.993.727l-.97-.138a12.311 12.311 0 0 1 -5.923-2.356 12.682 12.682 0 0 0 -5.888-2.355l-6.546-1.039a3.213 3.213 0 0 1 .242-.97 4.553 4.553 0 0 1 2.044-1.905 6.529 6.529 0 0 1 .693-.346c-.554.52-1.074 1.074-1.593 1.628a12.249 12.249 0 0 0 4.018-.554 127.939 127.939 0 0 1 13.994-2.252c4.226-.485 8.521-1 12.4-2.7 3.914-1.732 7.378-4.884 8.348-9.041a7.918 7.918 0 0 0 .208-2.009 6.717 6.717 0 0 1 6.339 2.736 10.14 10.14 0 0 1 1.35 8.415z" fill="#e1e6e9"/><path d="m41.791 29.718c-1.541.712-3.119 1.335-4.705 1.935s-3.194 1.14-4.8 1.683c-3.234 1.019-6.487 1.986-9.807 2.694 1.6-.558 3.217-1.069 4.825-1.6l4.828-1.57z" fill="#323c6b"/><path d="m43.926 32.875c-1.541.712-3.119 1.335-4.705 1.935s-3.194 1.14-4.8 1.683c-3.234 1.019-6.487 1.986-9.807 2.694 1.6-.558 3.217-1.069 4.825-1.6l4.828-1.57z" fill="#323c6b"/><path d="m59.918 33.718c-3.377 7.145-14.607 11.368-14.607 11.368l-10.76 4.09a12.519 12.519 0 0 1 -6 .73l-1.42-.177a11.75 11.75 0 0 1 -5.491-2.314l-.074-.054a11.032 11.032 0 0 0 -8.566-1.777l-2.111.4 7.469 1.168a12.689 12.689 0 0 1 5.879 2.359 11.751 11.751 0 0 0 5.491 2.314l1.42.177a12.519 12.519 0 0 0 6-.73l10.76-4.09s7.292-2.982 11.792-7.428a10.464 10.464 0 0 0 .218-6.036z" fill="#d5d6db"/><g fill="#323c6b"><path d="m32.7 52.608a13.614 13.614 0 0 1 -1.605-.1l-.981-.14a12.789 12.789 0 0 1 -6.15-2.449 12.191 12.191 0 0 0 -5.656-2.262l-6.559-1.041a.5.5 0 0 1 -.422-.494 3.548 3.548 0 0 1 .291-1.176 4.94 4.94 0 0 1 2.261-2.137 6.932 6.932 0 0 1 .733-.366.5.5 0 0 1 .539.824c-.265.249-.522.506-.774.766a15.99 15.99 0 0 0 2.326-.443l.416-.1a129.371 129.371 0 0 1 14.05-2.262c3.922-.45 8.365-.959 12.26-2.663 4.274-1.892 7.213-5.061 8.061-8.7a7.3 7.3 0 0 0 .2-1.87.5.5 0 0 1 .405-.517 7.177 7.177 0 0 1 6.837 2.933 10.647 10.647 0 0 1 1.432 8.83c0 .013-.007.026-.011.04-.031.092-.054.184-.076.275-.029.116-.06.232-.1.349a.512.512 0 0 1 -.105.179c-4.5 4.92-11.677 7.475-11.98 7.581l-10.76 4.083a12.886 12.886 0 0 1 -4.632.86zm-20.3-6.9 6.046.96a13.175 13.175 0 0 1 6.108 2.447 11.8 11.8 0 0 0 5.681 2.26l.984.141a11.986 11.986 0 0 0 5.744-.7l10.773-4.087c.084-.03 7.174-2.556 11.51-7.235.017-.06.031-.119.046-.178.028-.109.056-.218.091-.328a9.641 9.641 0 0 0 -1.27-7.98 6.347 6.347 0 0 0 -5.435-2.6 9.494 9.494 0 0 1 -.223 1.68c-.923 3.954-4.068 7.375-8.635 9.395-4.033 1.765-8.557 2.284-12.547 2.741a128.694 128.694 0 0 0 -13.937 2.242l-.409.1a11.188 11.188 0 0 1 -3.773.466.5.5 0 0 1 -.323-.166 2.343 2.343 0 0 0 -.313.5c-.007.015-.015.028-.022.042a3.061 3.061 0 0 0 -.096.305z"/><path d="m32.675 52.6a12.959 12.959 0 0 1 -1.586-.1l-.961-.12a13.1 13.1 0 0 1 -6.185-2.464 12.2 12.2 0 0 0 -5.648-2.267l-7.271-1.137a9.123 9.123 0 0 1 -5.4 1.8.5.5 0 0 1 -.43-.728l1.358-2.644-4.38-.7a.5.5 0 0 1 -.163-.931l1.923-1.063-1.745-.927a.5.5 0 0 1 .083-.919 55.3 55.3 0 0 0 9.413-3.81c8.373-11.5 23.229-15.785 34.36-15.964a2.018 2.018 0 0 0 1.4-.594 2 2 0 0 0 .573-1.4 2.058 2.058 0 0 0 -.116-.627.5.5 0 0 1 .079-.457.492.492 0 0 1 .421-.2 45.9 45.9 0 0 1 9.2 1.489.5.5 0 0 1 .354.4 2.947 2.947 0 0 0 1.012 1.763 13.276 13.276 0 0 1 4.456 12.82c-1.654 8.993-14.79 13.648-15.349 13.842l-10.745 4.081a13.064 13.064 0 0 1 -4.653.857zm-21.794-7.114a.513.513 0 0 1 .077.006l7.479 1.17a13.188 13.188 0 0 1 6.1 2.452 12.1 12.1 0 0 0 5.713 2.276l.963.121a12.072 12.072 0 0 0 5.759-.7l10.761-4.09c.145-.051 13.158-4.664 14.706-13.083a12.307 12.307 0 0 0 -4.127-11.882 3.983 3.983 0 0 1 -1.277-2.025 45.526 45.526 0 0 0 -8.026-1.336 2.3 2.3 0 0 1 .013.244 2.993 2.993 0 0 1 -2.962 2.99c-10.921.171-25.491 4.371-33.634 15.64a.5.5 0 0 1 -.167.146 53.081 53.081 0 0 1 -8.559 3.572l1.519.807a.5.5 0 0 1 .008.879l-1.461.808 3.628.581a.5.5 0 0 1 .366.722l-1.271 2.48a7.832 7.832 0 0 0 4.073-1.66.5.5 0 0 1 .319-.118z"/><path d="m57.471 19.826a.5.5 0 0 1 -.137-.019 45.666 45.666 0 0 0 -8.977-1.451.5.5 0 0 1 -.452-.345 11.168 11.168 0 0 1 1.063-8.893 9.927 9.927 0 0 1 6.439-4.851c6.539-1.371 8.878 3.868 8.9 3.921a.5.5 0 0 1 .038.141 7.413 7.413 0 0 1 -2.345 5.955.491.491 0 0 1 -.366.131 3.345 3.345 0 0 0 -1.389.216c-1.894.75-2.313 2.655-2.333 4.121a3.129 3.129 0 0 0 .055.5.5.5 0 0 1 -.494.579zm-8.713-2.451a46.2 46.2 0 0 1 8.154 1.286c.055-2.466 1.105-4.223 2.964-4.96a4.426 4.426 0 0 1 1.592-.291 6.491 6.491 0 0 0 1.892-4.894c-.284-.589-2.355-4.4-7.747-3.271a8.927 8.927 0 0 0 -5.779 4.374 10.211 10.211 0 0 0 -1.076 7.756z"/><path d="m13.825 45.049a6.613 6.613 0 0 1 -.672-.033.5.5 0 0 1 -.325-.828 21.669 21.669 0 0 1 2.47-2.395 15.353 15.353 0 0 1 -4.067-.725.5.5 0 0 1 -.294-.7 6.606 6.606 0 0 1 1.237-1.622c4.354-4.515 10.173-8.09 18.314-11.251 1.575-.612 2.9-1.082 4.173-1.478a48.128 48.128 0 0 1 13.284-2.172c1.062-.022 3.038-.066 3.988 1.5a6.373 6.373 0 0 1 .536 4.767c-.911 3.888-4.137 7.388-8.628 9.371-3.875 1.71-8.15 2.217-12.284 2.717l-.263.031a123.748 123.748 0 0 0 -13.948 2.248l-.276.066a14.057 14.057 0 0 1 -3.245.504zm2.96-4.267a.5.5 0 0 1 .29.907 20.534 20.534 0 0 0 -2.734 2.339 16.365 16.365 0 0 0 2.5-.46l.278-.066a124.52 124.52 0 0 1 14.06-2.268l.264-.031c4.062-.484 8.261-.985 12-2.634 4.206-1.854 7.219-5.1 8.06-8.685a5.536 5.536 0 0 0 -.418-4.019c-.6-.986-1.865-1.042-3.111-1.016a47.125 47.125 0 0 0 -13.009 2.127c-1.248.389-2.554.852-4.108 1.456-8 3.106-13.706 6.605-17.955 11.012a8.275 8.275 0 0 0 -.745.856 14.384 14.384 0 0 0 4.606.483z"/><path d="m31.233 42.23a.5.5 0 0 1 -.059-1l.264-.031c4.062-.484 8.261-.985 12-2.634 4.206-1.854 7.219-5.1 8.06-8.685a.5.5 0 1 1 .973.229c-.913 3.891-4.139 7.391-8.63 9.374-3.875 1.71-8.15 2.217-12.284 2.717l-.263.031a.5.5 0 0 1 -.061-.001z"/><path d="m61.136 43.093a.5.5 0 0 1 -.359-.848q.221-.229.436-.465a.5.5 0 0 1 .74.673c-.15.165-.3.328-.457.487a.5.5 0 0 1 -.36.153z"/><path d="m52.628 48.912a.5.5 0 0 1 -.222-.948 35.017 35.017 0 0 0 6.588-4.155.5.5 0 0 1 .631.776 36.065 36.065 0 0 1 -6.775 4.275.5.5 0 0 1 -.222.052z"/><path d="m11.041 33.889a.5.5 0 0 1 -.385-.819c.115-.139.234-.273.354-.405a.5.5 0 1 1 .74.672c-.11.122-.22.245-.325.372a.5.5 0 0 1 -.384.18z"/><path d="m13.1 31.636a.5.5 0 0 1 -.355-.852 38.086 38.086 0 0 1 5.509-4.575.5.5 0 1 1 .568.822 37.1 37.1 0 0 0 -5.366 4.456.5.5 0 0 1 -.356.149z"/></g><path d="m36.792 38.769a.5.5 0 0 1 -.146-.978c1.295-.4 4.558-1.424 6.889-2.389a.5.5 0 0 1 .383.924c-2.372.981-5.67 2.02-6.979 2.421a.491.491 0 0 1 -.147.022z" fill="#fff"/><path d="m34.337 39.471a.5.5 0 0 1 -.123-.984c.162-.042.352-.091.563-.15a.5.5 0 1 1 .266.964c-.22.061-.415.112-.583.155a.489.489 0 0 1 -.123.015z" fill="#fff"/></g></svg>