<svg id="svg" version="1.1" xmlns="http://www.w3.org/2000/svg" xmlns:xlink="http://www.w3.org/1999/xlink" width="400" height="629.5081967213115" viewBox="0, 0, 400,629.5081967213115"><g id="svgg"><path id="path0" d="M160.529 14.262 C 157.606 14.886,157.826 -1.684,157.725 225.600 C 157.675 338.350,157.519 432.982,157.377 435.893 C 157.002 443.588,155.250 446.017,149.665 446.586 C 148.199 446.735,145.830 447.160,144.400 447.529 C 142.025 448.142,136.649 448.202,82.400 448.226 C 13.119 448.256,16.317 448.064,13.467 452.370 C 11.034 456.047,11.133 452.237,11.395 532.357 C 11.678 618.443,11.595 615.922,14.209 618.810 C 16.271 621.088,26.372 622.035,32.865 620.558 C 35.372 619.988,36.255 619.977,40.744 620.458 C 48.530 621.293,308.095 621.260,311.000 620.424 C 314.608 619.386,316.488 618.008,317.059 615.985 C 317.336 615.003,318.051 612.670,318.648 610.800 L 319.732 607.400 319.703 536.400 L 319.673 465.400 318.408 459.678 C 316.666 451.798,314.805 449.157,310.613 448.614 C 309.726 448.499,281.100 448.340,247.000 448.261 C 179.499 448.105,183.367 448.230,179.322 446.065 C 177.462 445.070,175.937 440.879,175.706 436.127 C 175.591 433.747,175.329 431.589,175.124 431.330 C 174.523 430.570,173.939 421.055,174.375 419.110 C 174.974 416.438,174.985 254.833,174.387 249.913 C 172.989 238.416,175.489 229.548,181.269 225.502 C 182.607 224.566,184.026 223.561,184.424 223.269 C 184.821 222.977,186.515 222.396,188.188 221.978 C 189.877 221.556,191.836 220.755,192.593 220.178 C 193.342 219.607,196.009 218.097,198.519 216.824 C 201.028 215.552,204.143 213.798,205.441 212.927 C 208.592 210.812,218.127 206.153,220.491 205.573 C 221.578 205.307,223.876 204.090,225.891 202.714 C 230.341 199.677,230.909 199.392,233.677 198.822 C 235.271 198.494,236.545 197.883,237.919 196.789 C 239.799 195.292,245.278 192.400,246.234 192.400 C 246.485 192.400,247.354 191.872,248.166 191.227 C 249.396 190.250,259.182 185.200,259.847 185.200 C 259.960 185.200,260.626 184.766,261.327 184.236 C 262.027 183.705,263.623 182.976,264.872 182.615 C 266.122 182.255,268.732 181.069,270.672 179.980 C 272.613 178.891,275.730 177.359,277.600 176.575 C 279.470 175.792,281.365 174.808,281.812 174.388 C 282.258 173.969,285.048 172.451,288.012 171.015 C 290.975 169.578,294.030 168.048,294.800 167.615 C 295.570 167.182,297.190 166.377,298.400 165.826 C 299.610 165.274,302.026 164.021,303.769 163.040 C 305.512 162.059,308.302 160.761,309.969 160.154 C 311.636 159.548,313.666 158.572,314.479 157.985 C 315.293 157.397,317.070 156.605,318.429 156.224 C 320.753 155.572,325.219 153.170,327.000 151.615 C 328.578 150.237,335.311 146.428,337.335 145.768 C 338.471 145.397,339.586 144.948,339.814 144.769 C 340.042 144.591,341.659 144.052,343.408 143.572 C 345.420 143.020,347.177 142.234,348.194 141.430 C 350.744 139.413,352.939 138.113,355.655 137.009 C 357.043 136.445,358.724 135.457,359.390 134.814 C 360.613 133.632,364.851 131.636,367.810 130.847 C 368.744 130.598,370.136 129.731,371.121 128.784 C 372.056 127.886,373.446 126.889,374.210 126.570 C 377.223 125.311,375.580 121.675,370.760 118.934 C 369.922 118.457,368.554 117.532,367.718 116.878 C 366.883 116.224,365.210 115.379,364.000 115.001 C 361.430 114.197,357.034 111.913,355.600 110.636 C 355.050 110.147,353.790 109.406,352.800 108.990 C 351.810 108.574,349.322 107.348,347.271 106.266 C 345.219 105.183,342.203 103.798,340.568 103.188 C 338.932 102.578,335.841 100.919,333.697 99.501 C 331.554 98.083,328.630 96.339,327.200 95.624 C 325.770 94.909,324.327 94.081,323.994 93.785 C 323.660 93.488,322.490 93.049,321.394 92.810 C 317.675 91.997,315.732 91.182,314.565 89.944 C 312.874 88.152,310.967 87.044,307.839 86.038 C 304.322 84.907,300.809 83.135,299.088 81.624 C 298.348 80.974,296.734 80.065,295.501 79.603 C 294.269 79.142,292.660 78.358,291.926 77.860 C 290.153 76.656,287.121 75.057,284.311 73.843 C 283.053 73.299,281.215 72.298,280.228 71.619 C 279.240 70.940,276.130 69.470,273.316 68.353 C 270.502 67.236,267.509 65.779,266.664 65.114 C 265.820 64.449,264.217 63.572,263.104 63.165 C 261.990 62.758,260.431 61.979,259.639 61.434 C 258.050 60.341,254.532 58.717,250.110 57.036 C 248.520 56.432,246.540 55.474,245.710 54.907 C 244.879 54.340,242.707 53.366,240.882 52.742 C 236.792 51.345,236.190 51.033,234.268 49.314 C 233.425 48.561,231.895 47.585,230.868 47.145 C 229.841 46.706,226.885 45.174,224.299 43.742 C 221.714 42.309,218.280 40.731,216.669 40.234 C 214.889 39.685,212.676 38.586,211.027 37.434 C 209.413 36.306,206.770 34.985,204.504 34.176 C 202.409 33.427,200.133 32.400,199.447 31.893 C 198.761 31.386,196.586 30.262,194.612 29.395 C 192.407 28.426,190.374 27.195,189.336 26.200 C 188.407 25.310,186.782 24.167,185.724 23.659 C 184.666 23.151,183.350 22.441,182.800 22.082 C 181.455 21.202,176.047 18.948,172.600 17.829 C 171.060 17.329,168.900 16.369,167.800 15.695 C 165.813 14.478,162.539 13.833,160.529 14.262 " stroke="none" fill="#f5580c" fill-rule="evenodd"></path><path id="path1" d="M155.415 3.842 C 154.149 5.109,153.199 7.612,152.597 11.275 C 152.260 13.324,151.596 16.530,151.122 18.400 L 150.260 21.800 150.122 223.600 C 150.028 360.524,150.116 426.267,150.395 428.097 C 150.955 431.768,149.659 436.593,147.849 437.575 C 147.216 437.919,145.776 438.830,144.649 439.600 L 142.600 441.000 79.591 441.037 C 2.271 441.083,8.476 440.484,5.476 448.200 C 3.202 454.051,2.570 458.475,3.349 463.111 C 4.413 469.450,3.803 607.709,2.701 609.917 C 2.068 611.186,2.068 611.187,3.575 612.381 C 5.036 613.537,5.091 613.675,5.351 616.785 C 5.700 620.969,5.966 621.583,8.554 624.171 C 10.629 626.247,11.511 626.694,14.900 627.389 C 15.654 627.544,16.000 627.865,16.000 628.408 C 16.000 629.172,16.294 629.200,24.400 629.200 C 32.365 629.200,32.800 629.161,32.800 628.445 C 32.800 627.419,34.274 627.233,40.300 627.503 C 44.720 627.700,45.200 627.794,45.200 628.461 C 45.200 629.178,49.156 629.200,179.800 629.200 C 312.715 629.200,314.400 629.190,314.400 628.425 C 314.400 627.801,314.772 627.601,316.300 627.402 C 324.044 626.393,325.401 624.905,326.021 616.734 C 326.221 614.102,326.514 611.739,326.673 611.481 C 326.897 611.120,327.267 496.609,327.157 461.800 C 327.139 455.969,326.186 446.741,325.392 444.710 C 325.060 443.861,321.688 442.193,319.000 441.548 C 317.491 441.187,301.223 441.060,252.800 441.034 L 188.600 441.000 186.768 439.923 C 184.350 438.502,184.101 438.157,182.823 434.465 C 181.390 430.329,181.416 432.039,181.421 340.800 C 181.426 233.024,181.356 235.572,184.369 233.320 C 185.156 232.732,187.092 231.213,188.671 229.945 C 190.822 228.218,192.249 227.426,194.364 226.784 C 195.916 226.312,197.594 225.611,198.093 225.226 C 199.630 224.038,205.287 221.249,207.478 220.599 C 208.807 220.204,209.888 219.565,210.478 218.825 C 211.015 218.152,212.473 217.237,213.968 216.635 C 215.381 216.066,216.821 215.356,217.168 215.057 C 217.516 214.758,218.383 214.318,219.095 214.079 C 219.808 213.840,221.158 213.119,222.095 212.477 C 223.033 211.834,224.875 210.997,226.188 210.617 C 229.584 209.635,231.509 208.573,233.808 206.414 C 235.536 204.792,236.231 204.435,238.776 203.860 C 240.491 203.473,242.295 202.765,243.065 202.178 C 243.795 201.620,246.330 200.262,248.697 199.158 C 251.064 198.055,253.540 196.640,254.200 196.014 C 255.343 194.931,258.448 193.613,259.914 193.589 C 260.291 193.583,261.298 193.050,262.151 192.404 C 263.004 191.759,264.624 190.931,265.751 190.564 C 268.637 189.625,277.833 185.114,280.644 183.259 C 281.940 182.403,283.938 181.398,285.083 181.025 C 286.229 180.652,287.806 179.913,288.587 179.383 C 289.368 178.853,290.951 178.021,292.104 177.535 C 293.257 177.048,294.827 176.234,295.593 175.725 C 296.359 175.216,297.131 174.800,297.309 174.800 C 297.486 174.800,298.569 174.168,299.716 173.395 C 300.862 172.622,303.330 171.523,305.200 170.953 C 308.445 169.964,312.485 167.931,314.200 166.423 C 314.640 166.036,315.990 165.183,317.200 164.526 C 318.410 163.870,321.110 162.338,323.200 161.122 C 325.290 159.906,327.714 158.781,328.586 158.621 C 330.440 158.283,331.852 157.596,333.079 156.438 C 333.562 155.982,335.299 155.076,336.939 154.424 C 338.580 153.772,341.514 152.324,343.461 151.206 C 345.407 150.087,347.990 148.885,349.200 148.536 C 352.186 147.673,353.347 147.036,356.451 144.559 C 357.955 143.360,360.114 142.086,361.425 141.625 C 362.699 141.177,364.384 140.369,365.171 139.829 C 365.957 139.288,367.860 138.496,369.400 138.069 C 372.316 137.259,377.207 134.895,378.596 133.623 C 379.038 133.218,380.496 132.339,381.836 131.670 C 385.047 130.066,388.001 127.211,387.998 125.715 C 387.988 120.605,384.607 116.627,377.900 113.834 C 376.415 113.216,375.200 112.571,375.200 112.401 C 375.200 111.850,373.286 110.819,371.320 110.313 C 370.264 110.041,368.410 109.160,367.200 108.355 C 364.088 106.286,361.426 105.013,358.090 104.000 C 356.500 103.517,355.200 102.976,355.200 102.797 C 355.200 101.807,347.371 97.493,344.647 96.982 C 343.727 96.810,342.547 96.022,341.131 94.636 C 339.434 92.975,338.348 92.317,335.800 91.409 C 334.040 90.782,332.112 89.866,331.516 89.373 C 330.919 88.881,329.569 88.173,328.516 87.799 C 324.721 86.455,320.938 84.735,317.600 82.836 C 315.730 81.773,313.690 80.782,313.067 80.635 C 312.443 80.488,311.232 79.925,310.374 79.384 C 309.517 78.843,308.047 78.098,307.108 77.729 C 306.168 77.360,303.602 75.887,301.404 74.456 C 296.576 71.312,286.157 65.980,282.473 64.768 C 279.136 63.671,276.872 62.537,273.800 60.428 C 272.480 59.522,270.157 58.399,268.637 57.932 C 266.967 57.419,265.305 56.578,264.437 55.805 C 262.860 54.401,259.159 52.432,255.413 51.003 C 248.659 48.427,246.422 47.347,242.993 45.005 C 239.423 42.568,237.255 41.607,235.314 41.602 C 234.827 41.601,233.837 41.087,233.114 40.459 C 230.999 38.623,226.804 36.140,224.000 35.066 C 222.570 34.518,220.680 33.712,219.800 33.275 C 218.920 32.839,217.035 32.100,215.610 31.633 C 214.186 31.166,211.846 30.090,210.410 29.242 C 206.552 26.962,204.005 25.740,201.993 25.202 C 201.007 24.938,199.480 24.144,198.600 23.438 C 196.580 21.816,195.259 21.033,189.800 18.221 C 187.380 16.975,184.709 15.404,183.865 14.730 C 183.020 14.057,181.315 13.241,180.076 12.917 C 177.509 12.247,175.761 11.435,174.595 10.372 C 173.515 9.388,171.538 8.625,168.407 7.983 C 166.557 7.604,164.841 6.841,162.428 5.326 C 158.787 3.040,156.666 2.591,155.415 3.842 M161.102 7.862 C 162.798 9.252,166.753 11.170,167.965 11.191 C 168.276 11.196,169.941 12.027,171.666 13.039 C 173.390 14.050,176.342 15.482,178.224 16.220 C 180.132 16.970,182.476 18.255,183.523 19.125 C 184.555 19.983,186.120 20.916,187.000 21.197 C 189.253 21.917,191.153 22.924,192.924 24.335 C 193.761 25.003,195.877 26.026,197.625 26.608 C 199.568 27.255,201.753 28.366,203.250 29.468 C 204.596 30.459,206.350 31.506,207.148 31.794 C 209.552 32.662,215.332 35.421,217.142 36.563 C 218.075 37.153,220.169 38.147,221.796 38.773 C 223.422 39.399,225.258 40.269,225.876 40.705 C 227.558 41.892,231.567 43.839,233.557 44.435 C 234.523 44.724,235.933 45.545,236.690 46.259 C 237.448 46.974,238.975 47.859,240.083 48.228 C 241.192 48.596,244.192 49.969,246.750 51.279 C 249.307 52.589,252.653 54.195,254.183 54.848 C 255.714 55.501,258.504 56.906,260.383 57.970 C 262.263 59.034,264.764 60.216,265.942 60.598 C 267.120 60.980,269.280 62.114,270.742 63.119 C 272.204 64.123,274.690 65.429,276.267 66.020 C 277.843 66.611,280.003 67.595,281.067 68.206 C 285.925 71.000,291.530 73.923,292.868 74.361 C 293.676 74.625,295.026 75.337,295.868 75.943 C 296.711 76.550,298.660 77.545,300.200 78.154 C 301.740 78.764,303.810 79.777,304.800 80.405 C 306.951 81.771,309.714 82.986,311.616 83.402 C 312.377 83.569,314.091 84.484,315.425 85.435 C 316.759 86.386,319.361 87.801,321.207 88.579 C 323.053 89.358,326.101 90.865,327.982 91.929 C 329.862 92.992,333.290 94.811,335.600 95.970 C 337.910 97.129,340.340 98.485,341.000 98.982 C 341.660 99.479,343.228 100.185,344.484 100.550 C 345.741 100.915,347.962 102.030,349.419 103.028 C 350.877 104.026,353.356 105.306,354.929 105.874 C 357.924 106.954,358.891 107.471,361.200 109.225 C 361.970 109.810,364.185 110.869,366.123 111.579 C 368.060 112.288,370.760 113.501,372.123 114.273 C 373.485 115.045,375.729 116.190,377.108 116.817 C 381.019 118.595,381.955 119.442,383.444 122.547 C 385.367 126.561,384.978 127.352,380.437 128.657 C 377.683 129.449,376.299 130.140,374.074 131.836 C 373.125 132.559,370.876 133.642,369.076 134.241 C 367.276 134.841,364.543 136.142,363.002 137.134 C 361.461 138.125,358.670 139.592,356.799 140.395 C 354.929 141.197,352.553 142.499,351.519 143.288 C 349.640 144.722,347.184 145.716,344.228 146.238 C 343.246 146.412,342.045 147.069,341.028 147.989 C 340.133 148.799,337.096 150.567,334.280 151.918 C 331.464 153.268,328.653 154.735,328.034 155.176 C 327.414 155.617,325.543 156.504,323.877 157.145 C 322.211 157.787,320.342 158.672,319.724 159.112 C 319.106 159.551,316.503 160.900,313.939 162.109 C 311.376 163.318,308.496 164.836,307.539 165.483 C 306.583 166.130,304.720 167.081,303.400 167.596 C 300.043 168.907,296.427 170.718,294.944 171.831 C 294.253 172.350,292.512 173.216,291.075 173.757 C 289.638 174.298,288.043 175.009,287.531 175.337 C 287.019 175.665,284.350 176.968,281.600 178.232 C 278.850 179.496,275.847 181.041,274.927 181.665 C 273.296 182.773,266.575 186.038,264.726 186.622 C 264.217 186.783,263.113 187.501,262.274 188.217 C 261.435 188.934,260.175 189.628,259.474 189.760 C 257.691 190.096,253.851 192.073,250.928 194.161 C 249.568 195.132,247.409 196.231,246.130 196.603 C 244.798 196.990,242.822 198.017,241.505 199.008 C 239.855 200.248,238.102 201.079,235.301 201.949 C 232.188 202.916,230.966 203.530,229.271 204.977 C 227.660 206.352,226.353 207.034,223.873 207.794 C 221.696 208.460,219.869 209.352,218.417 210.455 C 216.136 212.188,213.454 213.576,212.358 213.591 C 212.004 213.596,210.890 214.230,209.882 215.000 C 208.873 215.770,207.946 216.400,207.821 216.400 C 207.125 216.400,198.530 220.560,196.752 221.758 C 195.599 222.535,192.752 223.924,190.427 224.845 C 188.102 225.766,185.660 226.998,185.000 227.583 C 184.340 228.168,183.110 229.152,182.266 229.770 C 180.548 231.027,179.385 232.715,178.801 234.800 C 178.234 236.823,178.252 437.292,178.819 439.311 C 180.315 444.636,176.606 444.385,254.299 444.405 C 321.656 444.422,321.042 444.399,323.105 446.885 C 324.111 448.098,324.221 457.324,324.175 536.600 C 324.122 628.031,324.331 621.376,321.456 622.914 L 319.800 623.800 167.000 623.800 C 3.334 623.800,11.982 623.910,10.001 621.801 C 9.120 620.863,7.905 604.325,8.631 603.150 C 8.720 603.006,8.798 569.878,8.804 529.534 C 8.815 454.342,8.926 448.293,10.331 446.411 C 11.890 444.324,9.836 444.389,79.400 444.221 C 158.301 444.031,152.166 444.262,154.195 441.398 C 154.684 440.709,154.772 411.652,154.829 233.275 C 154.904 -2.689,154.755 9.121,157.679 7.084 C 158.964 6.189,159.097 6.219,161.102 7.862 " stroke="none" fill="#f6c89d" fill-rule="evenodd"></path><path id="path2" d="M0.000 312.000 L 0.000 624.000 0.953 624.000 C 2.071 624.000,5.599 627.417,5.600 628.500 C 5.600 629.131,6.114 629.200,10.800 629.200 C 15.717 629.200,16.000 629.157,16.000 628.408 C 16.000 627.865,15.654 627.544,14.900 627.389 C 8.747 626.126,5.863 622.924,5.351 616.785 C 5.091 613.675,5.036 613.537,3.575 612.381 C 2.068 611.187,2.068 611.186,2.701 609.917 C 3.803 607.709,4.413 469.450,3.349 463.111 C 2.570 458.475,3.202 454.051,5.476 448.200 C 7.133 443.938,7.310 443.695,9.394 442.806 C 13.448 441.078,13.500 441.077,79.591 441.037 L 142.600 441.000 144.649 439.600 C 145.776 438.830,147.216 437.919,147.849 437.575 C 149.659 436.593,150.955 431.768,150.395 428.097 C 150.116 426.267,150.028 360.524,150.122 223.600 L 150.260 21.800 151.122 18.400 C 151.596 16.530,152.263 13.305,152.604 11.233 C 153.402 6.375,154.747 3.768,156.766 3.163 C 159.061 2.476,160.839 2.823,161.570 4.100 C 162.489 5.706,165.425 7.375,168.400 7.983 C 171.536 8.624,173.513 9.387,174.595 10.372 C 175.761 11.435,177.509 12.247,180.076 12.917 C 181.315 13.241,183.020 14.057,183.865 14.730 C 184.709 15.404,187.380 16.975,189.800 18.221 C 195.259 21.033,196.580 21.816,198.600 23.438 C 199.480 24.144,201.007 24.938,201.993 25.202 C 204.005 25.740,206.552 26.962,210.410 29.242 C 211.846 30.090,214.186 31.166,215.610 31.633 C 217.035 32.100,218.920 32.839,219.800 33.275 C 220.680 33.712,222.570 34.518,224.000 35.066 C 226.804 36.140,230.999 38.623,233.114 40.459 C 233.837 41.087,234.827 41.601,235.314 41.602 C 237.255 41.607,239.423 42.568,242.993 45.005 C 246.422 47.347,248.659 48.427,255.413 51.003 C 259.159 52.432,262.860 54.401,264.437 55.805 C 265.305 56.578,266.967 57.419,268.637 57.932 C 270.157 58.399,272.480 59.522,273.800 60.428 C 276.872 62.537,279.136 63.671,282.473 64.768 C 286.157 65.980,296.576 71.312,301.404 74.456 C 303.602 75.887,306.168 77.360,307.108 77.729 C 308.047 78.098,309.517 78.843,310.374 79.384 C 311.232 79.925,312.443 80.488,313.067 80.635 C 313.690 80.782,315.730 81.773,317.600 82.836 C 320.938 84.735,324.721 86.455,328.516 87.799 C 329.569 88.173,330.919 88.881,331.516 89.373 C 332.112 89.866,334.040 90.782,335.800 91.409 C 338.348 92.317,339.434 92.975,341.131 94.636 C 342.547 96.022,343.727 96.810,344.647 96.982 C 347.371 97.493,355.200 101.807,355.200 102.797 C 355.200 102.976,356.500 103.517,358.090 104.000 C 361.426 105.013,364.088 106.286,367.200 108.355 C 368.410 109.160,370.264 110.041,371.320 110.313 C 373.286 110.819,375.200 111.850,375.200 112.401 C 375.200 112.571,376.415 113.216,377.900 113.834 C 382.158 115.607,384.537 117.285,385.874 119.456 C 387.077 121.408,388.059 122.134,390.100 122.577 C 391.131 122.800,391.678 123.600,390.800 123.600 C 390.580 123.600,390.400 124.185,390.399 124.900 C 390.399 126.028,390.120 126.381,388.299 127.566 C 387.145 128.317,385.750 129.262,385.200 129.665 C 384.650 130.069,383.120 130.959,381.800 131.643 C 380.480 132.327,379.038 133.218,378.596 133.623 C 377.207 134.895,372.316 137.259,369.400 138.069 C 367.860 138.496,365.957 139.288,365.171 139.829 C 364.384 140.369,362.699 141.177,361.425 141.625 C 360.114 142.086,357.955 143.360,356.451 144.559 C 353.347 147.036,352.186 147.673,349.200 148.536 C 347.990 148.885,345.407 150.087,343.461 151.206 C 341.514 152.324,338.580 153.772,336.939 154.424 C 335.299 155.076,333.562 155.982,333.079 156.438 C 331.852 157.596,330.440 158.283,328.586 158.621 C 327.714 158.781,325.290 159.906,323.200 161.122 C 321.110 162.338,318.410 163.870,317.200 164.526 C 315.990 165.183,314.640 166.036,314.200 166.423 C 312.485 167.931,308.445 169.964,305.200 170.953 C 303.330 171.523,300.862 172.622,299.716 173.395 C 298.569 174.168,297.486 174.800,297.309 174.800 C 297.131 174.800,296.359 175.216,295.593 175.725 C 294.827 176.234,293.257 177.048,292.104 177.535 C 290.951 178.021,289.368 178.853,288.587 179.383 C 287.806 179.913,286.229 180.652,285.083 181.025 C 283.938 181.398,281.940 182.403,280.644 183.259 C 277.833 185.114,268.637 189.625,265.751 190.564 C 264.624 190.931,263.004 191.759,262.151 192.404 C 261.298 193.050,260.291 193.583,259.914 193.589 C 258.448 193.613,255.343 194.931,254.200 196.014 C 253.540 196.640,251.064 198.055,248.697 199.158 C 246.330 200.262,243.795 201.620,243.065 202.178 C 242.295 202.765,240.491 203.473,238.776 203.860 C 236.231 204.435,235.536 204.792,233.808 206.414 C 231.509 208.573,229.584 209.635,226.188 210.617 C 224.875 210.997,223.033 211.834,222.095 212.477 C 221.158 213.119,219.808 213.840,219.095 214.079 C 218.383 214.318,217.516 214.758,217.168 215.057 C 216.821 215.356,215.381 216.066,213.968 216.635 C 212.473 217.237,211.015 218.152,210.478 218.825 C 209.888 219.565,208.807 220.204,207.478 220.599 C 205.287 221.249,199.630 224.038,198.093 225.226 C 197.594 225.611,195.916 226.312,194.364 226.784 C 192.249 227.426,190.822 228.218,188.671 229.945 C 187.092 231.213,185.156 232.732,184.369 233.320 C 181.356 235.572,181.426 233.024,181.421 340.800 C 181.416 432.039,181.390 430.329,182.823 434.465 C 184.101 438.157,184.350 438.502,186.768 439.923 L 188.600 441.000 252.800 441.034 C 321.105 441.071,318.891 441.008,323.061 443.024 C 325.523 444.214,325.469 444.096,326.399 450.400 C 327.265 456.269,327.207 448.470,327.062 538.600 C 326.971 595.342,326.844 609.755,326.405 612.891 C 325.908 616.440,325.919 616.848,326.530 617.523 C 326.899 617.930,327.200 618.375,327.200 618.511 C 327.200 618.647,327.650 619.244,328.200 619.838 C 328.750 620.431,329.205 621.206,329.210 621.558 C 329.216 621.911,329.846 621.218,330.610 620.019 C 331.375 618.819,332.000 617.424,332.000 616.919 C 332.000 616.413,332.180 616.000,332.400 616.000 C 332.620 616.000,332.811 615.685,332.825 615.300 C 332.942 612.084,334.780 622.922,334.793 626.900 L 334.800 629.200 346.549 629.200 L 358.298 629.200 358.554 627.600 C 358.900 625.433,360.800 626.185,360.800 628.489 C 360.800 629.161,361.885 629.200,380.400 629.200 L 400.000 629.200 400.000 376.828 L 400.000 124.456 399.100 124.328 C 398.362 124.223,398.200 123.947,398.200 122.800 C 398.200 121.653,398.362 121.377,399.100 121.272 L 400.000 121.144 400.000 60.572 L 400.000 0.000 324.050 0.000 L 248.100 0.000 247.870 1.149 C 246.734 6.830,228.400 6.718,228.400 1.031 L 228.400 0.000 212.000 0.000 L 195.600 0.000 195.605 0.900 C 195.607 1.395,196.045 2.562,196.578 3.493 C 197.110 4.424,197.394 5.280,197.208 5.395 C 197.022 5.510,196.751 6.304,196.607 7.158 C 196.163 9.784,194.951 10.552,191.786 10.213 C 187.846 9.791,186.870 8.602,188.401 6.090 C 188.841 5.370,189.200 4.543,189.200 4.252 C 189.200 3.454,190.433 2.511,192.000 2.110 C 192.994 1.857,193.437 1.498,193.528 0.876 L 193.656 -0.000 96.828 -0.000 L 0.000 0.000 0.000 312.000 M216.252 13.566 C 219.003 15.244,218.952 20.692,216.177 21.608 C 211.450 23.168,209.206 16.871,213.354 13.686 C 214.749 12.615,214.695 12.617,216.252 13.566 M246.400 26.483 C 256.909 26.416,258.151 26.939,253.390 29.427 C 251.134 30.606,250.324 31.250,250.154 32.000 C 249.108 36.624,247.621 37.386,242.299 36.025 C 238.419 35.033,231.000 29.566,231.000 27.700 C 231.000 26.758,233.989 25.982,236.600 26.245 C 238.140 26.401,242.550 26.508,246.400 26.483 M291.400 53.073 C 294.732 53.398,295.200 53.709,295.200 55.600 C 295.200 57.813,294.644 57.989,288.068 57.856 L 282.428 57.742 281.014 56.242 C 279.003 54.110,279.333 53.236,282.180 53.153 C 283.071 53.127,284.340 52.960,285.000 52.783 C 285.660 52.605,286.830 52.545,287.600 52.649 C 288.370 52.753,290.080 52.944,291.400 53.073 M313.500 66.324 C 314.797 67.956,313.544 69.394,311.224 68.935 C 309.007 68.497,308.133 67.360,309.029 66.080 C 309.753 65.046,312.608 65.202,313.500 66.324 M360.880 81.647 C 365.485 82.617,366.570 85.096,363.643 87.958 L 362.473 89.101 359.191 88.151 C 357.386 87.628,355.652 87.200,355.338 87.200 C 355.023 87.200,353.870 86.363,352.776 85.339 C 350.353 83.073,350.716 82.036,353.962 81.953 C 354.973 81.927,356.340 81.768,357.000 81.600 C 357.660 81.432,358.326 81.273,358.480 81.247 C 358.634 81.221,359.714 81.401,360.880 81.647 M386.321 149.756 C 386.835 150.627,387.635 151.282,388.561 151.587 C 390.906 152.361,389.912 154.000,387.097 154.000 C 384.179 154.000,382.082 150.124,384.300 148.832 C 385.338 148.228,385.450 148.279,386.321 149.756 M312.387 178.993 C 313.794 179.721,314.402 181.770,313.482 182.689 C 312.971 183.201,312.394 183.224,309.577 182.845 C 307.760 182.600,305.581 182.400,304.736 182.400 C 303.637 182.400,303.200 182.229,303.200 181.800 C 303.200 181.360,303.658 181.200,304.922 181.200 C 306.364 181.200,306.863 180.973,308.000 179.800 C 309.487 178.265,310.588 178.063,312.387 178.993 M287.400 195.013 C 287.400 196.223,281.045 197.220,279.232 196.294 C 277.497 195.409,277.863 194.922,280.882 194.102 C 283.855 193.294,287.400 193.789,287.400 195.013 M208.859 233.369 C 209.303 234.345,209.085 236.532,208.442 237.547 C 208.159 237.992,207.826 238.005,206.644 237.615 C 203.782 236.670,203.483 233.357,206.200 232.689 C 207.859 232.282,208.430 232.427,208.859 233.369 M324.200 423.372 C 328.504 424.412,328.098 424.633,320.876 425.184 C 315.668 425.581,314.638 425.288,315.635 423.693 C 316.163 422.847,318.967 421.953,320.000 422.301 C 320.330 422.412,322.220 422.894,324.200 423.372 M52.000 431.400 C 52.792 432.217,53.124 432.800,52.798 432.800 C 52.364 432.800,52.347 432.907,52.720 433.280 C 54.857 435.417,47.651 436.436,41.251 434.901 L 38.301 434.194 40.388 433.443 C 41.555 433.024,42.276 432.570,42.024 432.415 C 41.773 432.259,42.330 431.912,43.287 431.627 C 44.229 431.347,45.630 430.883,46.400 430.598 C 48.999 429.633,50.495 429.847,52.000 431.400 M209.346 433.561 L 210.493 434.317 209.546 434.626 C 206.890 435.493,203.466 434.393,206.018 433.492 C 208.290 432.690,208.017 432.685,209.346 433.561 M339.600 463.624 C 339.600 466.204,339.457 467.559,339.200 467.400 C 338.508 466.973,338.738 459.600,339.443 459.600 C 339.529 459.600,339.600 461.411,339.600 463.624 M325.400 624.968 C 324.423 625.611,318.901 627.096,316.300 627.416 C 314.767 627.604,314.400 627.799,314.400 628.425 C 314.400 629.161,314.738 629.200,321.200 629.200 L 328.000 629.200 328.000 627.675 C 328.000 626.445,326.858 624.278,326.284 624.421 C 326.238 624.433,325.840 624.679,325.400 624.968 M33.900 627.464 C 33.145 627.594,32.800 627.895,32.800 628.427 C 32.800 629.158,33.138 629.200,39.000 629.200 C 44.933 629.200,45.200 629.166,45.200 628.400 C 45.200 627.678,44.933 627.600,42.459 627.600 C 40.951 627.600,38.656 627.527,37.359 627.437 C 36.061 627.347,34.505 627.359,33.900 627.464 " stroke="none" fill="#fcfbfb" fill-rule="evenodd"></path><path id="path3" d="M157.679 7.084 C 154.755 9.121,154.904 -2.689,154.829 233.275 C 154.772 411.652,154.684 440.709,154.195 441.398 C 152.166 444.262,158.301 444.031,79.400 444.221 C 9.836 444.389,11.890 444.324,10.331 446.411 C 8.926 448.293,8.815 454.342,8.804 529.534 C 8.798 569.878,8.720 603.006,8.631 603.150 C 7.905 604.325,9.120 620.863,10.001 621.801 C 11.982 623.910,3.334 623.800,167.000 623.800 L 319.800 623.800 321.456 622.914 C 324.331 621.376,324.122 628.031,324.175 536.600 C 324.221 457.324,324.111 448.098,323.105 446.885 C 321.042 444.399,321.656 444.422,254.299 444.405 C 176.606 444.385,180.315 444.636,178.819 439.311 C 178.252 437.292,178.234 236.823,178.801 234.800 C 179.385 232.715,180.548 231.027,182.266 229.770 C 183.110 229.152,184.340 228.168,185.000 227.583 C 185.660 226.998,188.102 225.766,190.427 224.845 C 192.752 223.924,195.599 222.535,196.752 221.758 C 198.530 220.560,207.125 216.400,207.821 216.400 C 207.946 216.400,208.873 215.770,209.882 215.000 C 210.890 214.230,212.004 213.596,212.358 213.591 C 213.454 213.576,216.136 212.188,218.417 210.455 C 219.869 209.352,221.696 208.460,223.873 207.794 C 226.353 207.034,227.660 206.352,229.271 204.977 C 230.966 203.530,232.188 202.916,235.301 201.949 C 238.102 201.079,239.855 200.248,241.505 199.008 C 242.822 198.017,244.798 196.990,246.130 196.603 C 247.409 196.231,249.568 195.132,250.928 194.161 C 253.851 192.073,257.691 190.096,259.474 189.760 C 260.175 189.628,261.435 188.934,262.274 188.217 C 263.113 187.501,264.217 186.783,264.726 186.622 C 266.575 186.038,273.296 182.773,274.927 181.665 C 275.847 181.041,278.850 179.496,281.600 178.232 C 284.350 176.968,287.019 175.665,287.531 175.337 C 288.043 175.009,289.638 174.298,291.075 173.757 C 292.512 173.216,294.253 172.350,294.944 171.831 C 296.427 170.718,300.043 168.907,303.400 167.596 C 304.720 167.081,306.583 166.130,307.539 165.483 C 308.496 164.836,311.376 163.318,313.939 162.109 C 316.503 160.900,319.106 159.551,319.724 159.112 C 320.342 158.672,322.211 157.787,323.877 157.145 C 325.543 156.504,327.414 155.617,328.034 155.176 C 328.653 154.735,331.464 153.268,334.280 151.918 C 337.096 150.567,340.133 148.799,341.028 147.989 C 342.045 147.069,343.246 146.412,344.228 146.238 C 347.184 145.716,349.640 144.722,351.519 143.288 C 352.553 142.499,354.929 141.197,356.799 140.395 C 358.670 139.592,361.461 138.125,363.002 137.134 C 364.543 136.142,367.276 134.841,369.076 134.241 C 370.876 133.642,373.125 132.559,374.074 131.836 C 376.299 130.140,377.683 129.449,380.437 128.657 C 384.978 127.352,385.367 126.561,383.444 122.547 C 381.955 119.442,381.019 118.595,377.108 116.817 C 375.729 116.190,373.485 115.045,372.123 114.273 C 370.760 113.501,368.060 112.288,366.123 111.579 C 364.185 110.869,361.970 109.810,361.200 109.225 C 358.891 107.471,357.924 106.954,354.929 105.874 C 353.356 105.306,350.877 104.026,349.419 103.028 C 347.962 102.030,345.741 100.915,344.484 100.550 C 343.228 100.185,341.660 99.479,341.000 98.982 C 340.340 98.485,337.910 97.129,335.600 95.970 C 333.290 94.811,329.862 92.992,327.982 91.929 C 326.101 90.865,323.053 89.358,321.207 88.579 C 319.361 87.801,316.759 86.386,315.425 85.435 C 314.091 84.484,312.377 83.569,311.616 83.402 C 309.714 82.986,306.951 81.771,304.800 80.405 C 303.810 79.777,301.740 78.764,300.200 78.154 C 298.660 77.545,296.711 76.550,295.868 75.943 C 295.026 75.337,293.676 74.625,292.868 74.361 C 291.530 73.923,285.925 71.000,281.067 68.206 C 280.003 67.595,277.843 66.611,276.267 66.020 C 274.690 65.429,272.204 64.123,270.742 63.119 C 269.280 62.114,267.120 60.980,265.942 60.598 C 264.764 60.216,262.263 59.034,260.383 57.970 C 258.504 56.906,255.714 55.501,254.183 54.848 C 252.653 54.195,249.307 52.589,246.750 51.279 C 244.192 49.969,241.192 48.596,240.083 48.228 C 238.975 47.859,237.448 46.974,236.690 46.259 C 235.933 45.545,234.523 44.724,233.557 44.435 C 231.567 43.839,227.558 41.892,225.876 40.705 C 225.258 40.269,223.422 39.399,221.796 38.773 C 220.169 38.147,218.075 37.153,217.142 36.563 C 215.332 35.421,209.552 32.662,207.148 31.794 C 206.350 31.506,204.596 30.459,203.250 29.468 C 201.753 28.366,199.568 27.255,197.625 26.608 C 195.877 26.026,193.761 25.003,192.924 24.335 C 191.153 22.924,189.253 21.917,187.000 21.197 C 186.120 20.916,184.555 19.983,183.523 19.125 C 182.476 18.255,180.132 16.970,178.224 16.220 C 176.342 15.482,173.390 14.050,171.666 13.039 C 169.941 12.027,168.276 11.196,167.965 11.191 C 166.753 11.170,162.798 9.252,161.102 7.862 C 159.097 6.219,158.964 6.189,157.679 7.084 M167.800 15.695 C 168.900 16.369,171.060 17.329,172.600 17.829 C 176.047 18.948,181.455 21.202,182.800 22.082 C 183.350 22.441,184.666 23.151,185.724 23.659 C 186.782 24.167,188.407 25.310,189.336 26.200 C 190.374 27.195,192.407 28.426,194.612 29.395 C 196.586 30.262,198.761 31.386,199.447 31.893 C 200.133 32.400,202.409 33.427,204.504 34.176 C 206.770 34.985,209.413 36.306,211.027 37.434 C 212.676 38.586,214.889 39.685,216.669 40.234 C 218.280 40.731,221.714 42.309,224.299 43.742 C 226.885 45.174,229.841 46.706,230.868 47.145 C 231.895 47.585,233.425 48.561,234.268 49.314 C 236.190 51.033,236.792 51.345,240.882 52.742 C 242.707 53.366,244.879 54.340,245.710 54.907 C 246.540 55.474,248.520 56.432,250.110 57.036 C 254.532 58.717,258.050 60.341,259.639 61.434 C 260.431 61.979,261.990 62.758,263.104 63.165 C 264.217 63.572,265.820 64.449,266.664 65.114 C 267.509 65.779,270.502 67.236,273.316 68.353 C 276.130 69.470,279.240 70.940,280.228 71.619 C 281.215 72.298,283.053 73.299,284.311 73.843 C 287.121 75.057,290.153 76.656,291.926 77.860 C 292.660 78.358,294.269 79.142,295.501 79.603 C 296.734 80.065,298.348 80.974,299.088 81.624 C 300.809 83.135,304.322 84.907,307.839 86.038 C 310.967 87.044,312.874 88.152,314.565 89.944 C 315.732 91.182,317.675 91.997,321.394 92.810 C 322.490 93.049,323.660 93.488,323.994 93.785 C 324.327 94.081,325.770 94.909,327.200 95.624 C 328.630 96.339,331.554 98.083,333.697 99.501 C 335.841 100.919,338.932 102.578,340.568 103.188 C 342.203 103.798,345.219 105.183,347.271 106.266 C 349.322 107.348,351.810 108.574,352.800 108.990 C 353.790 109.406,355.050 110.147,355.600 110.636 C 357.034 111.913,361.430 114.197,364.000 115.001 C 365.210 115.379,366.883 116.224,367.718 116.878 C 368.554 117.532,369.922 118.457,370.760 118.934 C 375.580 121.675,377.223 125.311,374.210 126.570 C 373.446 126.889,372.056 127.886,371.121 128.784 C 370.136 129.731,368.744 130.598,367.810 130.847 C 364.851 131.636,360.613 133.632,359.390 134.814 C 358.724 135.457,357.043 136.445,355.655 137.009 C 352.939 138.113,350.744 139.413,348.194 141.430 C 347.177 142.234,345.420 143.020,343.408 143.572 C 341.659 144.052,340.042 144.591,339.814 144.769 C 339.586 144.948,338.471 145.397,337.335 145.768 C 335.311 146.428,328.578 150.237,327.000 151.615 C 325.219 153.170,320.753 155.572,318.429 156.224 C 317.070 156.605,315.293 157.397,314.479 157.985 C 313.666 158.572,311.636 159.548,309.969 160.154 C 308.302 160.761,305.512 162.059,303.769 163.040 C 302.026 164.021,299.610 165.274,298.400 165.826 C 297.190 166.377,295.570 167.182,294.800 167.615 C 294.030 168.048,290.975 169.578,288.012 171.015 C 285.048 172.451,282.258 173.969,281.812 174.388 C 281.365 174.808,279.470 175.792,277.600 176.575 C 275.730 177.359,272.613 178.891,270.672 179.980 C 268.732 181.069,266.122 182.255,264.872 182.615 C 263.623 182.976,262.027 183.705,261.327 184.236 C 260.626 184.766,259.960 185.200,259.847 185.200 C 259.182 185.200,249.396 190.250,248.166 191.227 C 247.354 191.872,246.485 192.400,246.234 192.400 C 245.278 192.400,239.799 195.292,237.919 196.789 C 236.545 197.883,235.271 198.494,233.677 198.822 C 230.909 199.392,230.341 199.677,225.891 202.714 C 223.876 204.090,221.578 205.307,220.491 205.573 C 218.127 206.153,208.592 210.812,205.441 212.927 C 204.143 213.798,201.028 215.552,198.519 216.824 C 196.009 218.097,193.342 219.607,192.593 220.178 C 191.836 220.755,189.877 221.556,188.188 221.978 C 186.515 222.396,184.821 222.977,184.424 223.269 C 184.026 223.561,182.607 224.566,181.269 225.502 C 175.489 229.548,172.989 238.416,174.387 249.913 C 174.985 254.833,174.974 416.438,174.375 419.110 C 173.939 421.055,174.523 430.570,175.124 431.330 C 175.329 431.589,175.591 433.747,175.706 436.127 C 175.937 440.879,177.462 445.070,179.322 446.065 C 183.367 448.230,179.499 448.105,247.000 448.261 C 281.100 448.340,309.726 448.499,310.613 448.614 C 314.805 449.157,316.666 451.798,318.408 459.678 L 319.673 465.400 319.703 536.400 L 319.732 607.400 318.648 610.800 C 318.051 612.670,317.336 615.003,317.059 615.985 C 316.488 618.008,314.608 619.386,311.000 620.424 C 308.095 621.260,48.530 621.293,40.744 620.458 C 36.255 619.977,35.372 619.988,32.865 620.558 C 26.372 622.035,16.271 621.088,14.209 618.810 C 11.595 615.922,11.678 618.443,11.395 532.357 C 11.133 452.237,11.034 456.047,13.467 452.370 C 16.317 448.064,13.119 448.256,82.400 448.226 C 136.649 448.202,142.025 448.142,144.400 447.529 C 145.830 447.160,148.199 446.735,149.665 446.586 C 155.250 446.017,157.002 443.588,157.377 435.893 C 157.519 432.982,157.675 338.350,157.725 225.600 C 157.819 13.441,157.795 16.790,159.279 14.924 C 160.342 13.588,165.055 14.014,167.800 15.695 " stroke="none" fill="#dd917e" fill-rule="evenodd"></path><path id="path4" d="M193.528 0.876 C 193.437 1.498,192.994 1.857,192.000 2.110 C 190.433 2.511,189.200 3.454,189.200 4.252 C 189.200 4.543,188.841 5.370,188.401 6.090 C 186.870 8.602,187.846 9.791,191.786 10.213 C 194.951 10.552,196.163 9.784,196.607 7.158 C 196.751 6.304,197.022 5.510,197.208 5.395 C 197.394 5.280,197.110 4.424,196.578 3.493 C 196.045 2.562,195.607 1.395,195.605 0.900 C 195.598 -0.371,193.713 -0.392,193.528 0.876 M228.400 0.911 C 228.400 5.928,241.995 7.213,246.900 2.659 C 249.599 0.154,249.094 0.000,238.200 0.000 L 228.400 0.000 228.400 0.911 M158.290 3.188 C 158.999 3.357,160.034 3.793,160.590 4.157 C 161.361 4.662,161.600 4.693,161.600 4.289 C 161.600 3.298,160.643 2.800,158.820 2.841 C 157.091 2.880,157.064 2.897,158.290 3.188 M213.354 13.686 C 209.206 16.871,211.450 23.168,216.177 21.608 C 218.952 20.692,219.003 15.244,216.252 13.566 C 214.695 12.617,214.749 12.615,213.354 13.686 M232.400 26.729 C 230.630 27.698,230.546 27.430,233.632 30.652 C 236.867 34.029,238.533 35.062,242.299 36.025 C 247.621 37.386,249.108 36.624,250.154 32.000 C 250.324 31.250,251.134 30.606,253.390 29.427 C 258.151 26.939,256.909 26.416,246.400 26.483 C 242.550 26.508,238.140 26.401,236.600 26.245 C 234.243 26.008,233.578 26.084,232.400 26.729 M285.000 52.783 C 284.340 52.960,283.071 53.127,282.180 53.153 C 279.333 53.236,279.003 54.110,281.014 56.242 L 282.428 57.742 288.068 57.856 C 294.644 57.989,295.200 57.813,295.200 55.600 C 295.200 53.709,294.732 53.398,291.400 53.073 C 290.080 52.944,288.370 52.753,287.600 52.649 C 286.830 52.545,285.660 52.605,285.000 52.783 M309.029 66.080 C 308.133 67.360,309.007 68.497,311.224 68.935 C 312.972 69.281,314.000 68.712,314.000 67.400 C 314.000 65.620,310.080 64.580,309.029 66.080 M357.000 81.600 C 356.340 81.768,354.973 81.927,353.962 81.953 C 350.716 82.036,350.353 83.073,352.776 85.339 C 353.870 86.363,355.023 87.200,355.338 87.200 C 355.652 87.200,357.386 87.628,359.191 88.151 L 362.473 89.101 363.643 87.958 C 365.425 86.216,365.670 83.628,364.137 82.747 C 363.123 82.164,359.204 81.125,358.480 81.247 C 358.326 81.273,357.660 81.432,357.000 81.600 M398.156 121.771 C 397.712 122.928,398.181 124.197,399.100 124.328 C 399.907 124.442,400.000 124.287,400.000 122.828 C 400.000 121.142,398.686 120.389,398.156 121.771 M387.376 122.282 C 388.174 124.362,388.094 126.345,387.157 127.668 L 386.213 129.000 387.407 128.234 C 390.117 126.494,390.375 126.208,390.387 124.933 C 390.394 124.237,390.625 123.575,390.900 123.464 C 391.606 123.177,390.468 122.414,389.324 122.406 C 388.842 122.403,388.336 122.220,388.200 122.000 C 387.782 121.324,387.098 121.558,387.376 122.282 M384.300 148.832 C 382.082 150.124,384.179 154.000,387.097 154.000 C 389.912 154.000,390.906 152.361,388.561 151.587 C 387.635 151.282,386.835 150.627,386.321 149.756 C 385.450 148.279,385.338 148.228,384.300 148.832 M308.000 179.800 C 306.863 180.973,306.364 181.200,304.922 181.200 C 303.658 181.200,303.200 181.360,303.200 181.800 C 303.200 182.229,303.637 182.400,304.736 182.400 C 305.581 182.400,307.760 182.600,309.577 182.845 C 313.483 183.370,314.281 182.991,313.808 180.837 C 313.236 178.233,310.068 177.667,308.000 179.800 M280.882 194.102 C 277.863 194.922,277.497 195.409,279.232 196.294 C 281.045 197.220,287.400 196.223,287.400 195.013 C 287.400 193.789,283.855 193.294,280.882 194.102 M206.200 232.689 C 203.483 233.357,203.782 236.670,206.644 237.615 C 208.303 238.162,208.613 237.911,209.044 235.669 C 209.526 233.168,208.524 232.118,206.200 232.689 M317.770 422.491 C 315.860 422.952,314.820 424.201,315.665 425.021 C 316.086 425.430,317.198 425.464,320.876 425.184 C 328.098 424.633,328.504 424.412,324.200 423.372 C 322.220 422.894,320.330 422.412,320.000 422.301 C 319.670 422.189,318.666 422.275,317.770 422.491 M46.400 430.598 C 45.630 430.883,44.229 431.347,43.287 431.627 C 42.330 431.912,41.773 432.259,42.024 432.415 C 42.276 432.570,41.555 433.024,40.388 433.443 L 38.301 434.194 41.251 434.901 C 47.651 436.436,54.857 435.417,52.720 433.280 C 52.347 432.907,52.364 432.800,52.798 432.800 C 53.124 432.800,52.792 432.217,52.000 431.400 C 50.495 429.847,48.999 429.633,46.400 430.598 M206.018 433.492 C 203.466 434.393,206.890 435.493,209.546 434.626 L 210.493 434.317 209.346 433.561 C 208.017 432.685,208.290 432.690,206.018 433.492 M339.043 460.233 C 338.641 461.279,338.770 467.134,339.200 467.400 C 339.457 467.559,339.600 466.204,339.600 463.624 C 339.600 459.615,339.504 459.031,339.043 460.233 M332.825 615.300 C 332.811 615.685,332.620 616.000,332.400 616.000 C 332.180 616.000,332.000 616.413,332.000 616.919 C 332.000 617.424,331.375 618.819,330.610 620.019 C 329.846 621.218,329.216 621.911,329.210 621.558 C 329.205 621.206,328.750 620.431,328.200 619.838 C 327.650 619.244,327.200 618.610,327.200 618.428 C 327.200 616.660,326.076 617.494,325.848 619.431 C 325.567 621.823,324.805 623.655,323.494 625.089 L 322.681 625.978 323.979 625.606 C 324.693 625.401,325.515 625.037,325.804 624.796 C 326.660 624.086,328.000 625.843,328.000 627.675 L 328.000 629.200 331.400 629.200 L 334.800 629.200 334.793 626.900 C 334.780 622.922,332.942 612.084,332.825 615.300 M0.000 626.600 L 0.000 629.200 2.800 629.200 C 6.277 629.200,6.434 628.658,3.752 625.900 C 0.967 623.035,0.000 623.215,0.000 626.600 M358.652 626.900 C 358.155 628.755,358.338 629.200,359.600 629.200 C 360.982 629.200,361.196 628.343,360.177 626.889 C 359.387 625.761,358.957 625.764,358.652 626.900 " stroke="none" fill="#f4fcfc" fill-rule="evenodd"></path></g></svg>