<?xml version="1.0" encoding="iso-8859-1"?>
<!-- Generator: Adobe Illustrator 19.0.0, SVG Export Plug-In . SVG Version: 6.00 Build 0)  -->
<svg version="1.1" id="Capa_1" xmlns="http://www.w3.org/2000/svg" xmlns:xlink="http://www.w3.org/1999/xlink" x="0px" y="0px"
	 viewBox="0 0 512.048 512.048" style="enable-background:new 0 0 512.048 512.048;" xml:space="preserve">
<g>
	<g transform="translate(1 1)">
		<path style="fill:#FDD834;" d="M271.918,178.2c-2.868-20.591-8.553-40.691-16.896-59.733
			c-8.343,19.043-14.028,39.142-16.896,59.733H271.918z"/>
		<g>
			<path style="fill:#0377BC;" d="M229.422,493.934c4.608,0,8.875,0.171,12.8,0.427c-13.137,0.459-26.097,3.173-38.315,8.021
				c0.171-0.597,1.28-3.157,2.816-7.083C214.252,494.35,221.834,493.894,229.422,493.934z"/>
			<path style="fill:#0377BC;" d="M242.222,171.715c4.102-1.474,8.443-2.169,12.8-2.048c42.667,0,25.6,51.2,25.6,59.733
				c0,4.608,4.864,9.131,9.472,12.373c-10.752,2.304-18.005,4.693-18.005,4.693s-17.067-8.533-17.067-17.067
				C255.022,221.891,268.249,181.272,242.222,171.715z"/>
			<path style="fill:#0377BC;" d="M280.622,408.6c0,33.621,24.832,91.989,25.515,93.781c-9.067-3.763-18.644-6.15-28.416-7.083
				c-6.741-16.896-22.699-59.733-22.699-86.699c-0.137-11.614,2.069-23.136,6.485-33.877c8.789,0.341,17.323,0.341,25.6,0
				C282.691,385.465,280.485,396.987,280.622,408.6z"/>
			<path style="fill:#0377BC;" d="M502.489,297.667c0,0-74.325,82.603-214.869,77.056c123.904-4.523,189.269-77.056,189.269-77.056
				c-46.592-7.765-114.347-50.859-145.493-58.539c5.798-0.792,11.642-1.191,17.493-1.195
				C374.489,237.934,451.289,289.134,502.489,297.667z"/>
		</g>
		<g>
			<path style="fill:#02A9F4;" d="M476.889,297.667c0,0-65.365,72.533-189.269,77.056c-0.16,0.085-0.352,0.085-0.512,0
				c-8.277,0.341-16.811,0.341-25.6,0c-4.417,10.742-6.622,22.264-6.485,33.877c0,26.965,15.957,69.803,22.699,86.699
				c-7.528-0.949-15.111-1.405-22.699-1.365c-4.608,0-8.875,0.171-12.8,0.427c-3.925-0.256-8.192-0.427-12.8-0.427
				c-7.588-0.039-15.17,0.417-22.699,1.365c6.741-16.896,22.699-59.733,22.699-86.699c0.137-11.614-2.069-23.136-6.485-33.877
				c-8.789,0.341-17.323,0.341-25.6,0h-0.512C72.921,370.2,7.555,297.667,7.555,297.667c46.592-7.765,114.347-50.859,145.493-58.539
				c2.645-0.719,5.367-1.12,8.107-1.195c11.166,0.154,22.288,1.441,33.195,3.84c10.752,2.304,18.005,4.693,18.005,4.693
				s17.067-8.533,17.067-17.067c0-7.509-13.227-48.128,12.8-57.685c26.027,9.557,12.8,50.176,12.8,57.685
				c0,8.533,17.067,17.067,17.067,17.067s7.253-2.389,18.005-4.693c2.424,1.732,4.962,3.299,7.595,4.693
				c10.996-3.439,22.276-5.895,33.707-7.339C362.542,246.808,430.297,289.902,476.889,297.667z"/>
			<path style="fill:#02A9F4;" d="M277.721,495.299c1.536,3.925,2.645,6.485,2.816,7.083c-12.218-4.849-25.178-7.562-38.315-8.021
				c3.925-0.256,8.192-0.427,12.8-0.427C262.61,493.894,270.192,494.35,277.721,495.299z"/>
		</g>
		<g>
			<path style="fill:#CFD8DC;" d="M459.822,24.6c0.024-4.528-1.793-8.871-5.035-12.032c-3.161-3.241-7.504-5.059-12.032-5.035
				l25.6,0c4.528-0.024,8.871,1.793,12.032,5.035c3.241,3.161,5.059,7.504,5.035,12.032c-0.028,9.414-7.653,17.039-17.067,17.067
				h-25.6C452.169,41.639,459.794,34.014,459.822,24.6z"/>
			<path style="fill:#CFD8DC;" d="M502.489,92.867c-0.028,9.414-7.653,17.039-17.067,17.067h-25.6
				c9.414-0.028,17.039-7.653,17.067-17.067c-0.07-9.397-7.67-16.997-17.067-17.067h25.6
				C494.819,75.87,502.419,83.47,502.489,92.867z"/>
		</g>
		<path style="fill:#F4F4F4;" d="M476.889,92.867c-0.028,9.414-7.653,17.039-17.067,17.067H186.755
			c-9.397-0.07-16.997-7.67-17.067-17.067c0.028-9.414,7.653-17.039,17.067-17.067h136.533c9.397-0.07,16.997-7.67,17.067-17.067
			c-0.028-9.414-7.653-17.039-17.067-17.067H109.955c-4.528,0.024-8.871-1.793-12.032-5.035c-3.241-3.161-5.059-7.504-5.035-12.032
			c0.028-9.414,7.653-17.039,17.067-17.067h332.8c4.528-0.024,8.871,1.793,12.032,5.035c3.241,3.161,5.059,7.504,5.035,12.032
			c-0.028,9.414-7.653,17.039-17.067,17.067h-8.533c-9.414,0.028-17.039,7.653-17.067,17.067c0.07,9.397,7.67,16.997,17.067,17.067
			h25.6C469.219,75.87,476.819,83.47,476.889,92.867z"/>
	</g>
	<g>
		<path d="M169.835,289.28c4.139-2.087,5.855-7.095,3.866-11.282c-1.989-4.186-6.956-6.02-11.188-4.13
			c-4.582,2.176-9.327,4.463-14.182,6.827c-18.065,8.713-38.554,18.603-57.421,25.728c-2.852,1.079-4.912,3.598-5.403,6.608
			c-0.491,3.01,0.66,6.053,3.021,7.983c2.361,1.93,5.572,2.455,8.424,1.375c19.567-7.398,40.405-17.459,58.803-26.334
			C160.534,293.743,165.244,291.465,169.835,289.28z"/>
		<path d="M208.85,291.414c-3.499,2.185-7.125,4.48-10.837,6.827c-13.747,8.695-29.329,18.534-43.614,25.6
			c-2.733,1.352-4.537,4.06-4.733,7.103c-0.196,3.043,1.247,5.959,3.785,7.65c2.537,1.691,5.784,1.9,8.517,0.548
			c15.488-8.057,30.563-16.886,45.167-26.453c3.669-2.321,7.262-4.591,10.726-6.741c4.006-2.488,5.236-7.753,2.748-11.759
			c-2.488-4.006-7.753-5.236-11.759-2.748V291.414z"/>
		<path d="M504.897,290.253c-26.121-4.352-59.989-20.702-89.865-35.123c-28.638-13.815-51.251-24.73-65.143-24.73
			c-17.026,0.361-33.927,2.999-50.253,7.842c-3.666-1.935-6.893-4.604-9.481-7.842c0.186-1.826,0.471-3.641,0.853-5.436
			c2.244-12.706,6.426-36.361-5.973-51.2c-1.214-1.349-2.548-2.586-3.985-3.695c-3.349-18.783-9.183-37.037-17.348-54.281
			c-1.415-2.973-4.413-4.867-7.706-4.867s-6.291,1.894-7.706,4.867c-8.146,17.263-13.957,35.534-17.28,54.332
			c-1.437,1.109-2.771,2.346-3.985,3.695c-12.433,14.822-8.252,38.477-5.973,51.2c0.427,2.406,0.811,4.267,0.853,5.018
			c-2.47,3.465-5.736,6.286-9.523,8.226c-16.317-4.846-33.209-7.489-50.227-7.859c-13.892,0-36.506,10.914-65.143,24.747
			c-29.875,14.404-63.71,30.72-89.865,35.106c-3.071,0.515-5.618,2.662-6.644,5.602c-1.027,2.94-0.371,6.205,1.712,8.521
			c3.038,3.413,73.737,80.213,207.642,80.162c2.671,0,5.436-0.102,8.158-0.162c2.623,8.149,3.93,16.664,3.874,25.225
			c0,31.974-24.661,89.924-24.909,90.505c-1.424,3.286-0.646,7.111,1.95,9.578c2.595,2.467,6.455,3.052,9.664,1.464
			c15.124-5.754,31.261-8.367,47.428-7.68c16.153-0.682,32.275,1.931,47.386,7.68c3.204,1.602,7.067,1.032,9.672-1.427
			c2.605-2.458,3.398-6.282,1.985-9.573c-0.247-0.623-24.909-58.573-24.909-90.547c-0.054-8.56,1.25-17.074,3.866-25.225
			c2.731,0.06,5.487,0.162,8.166,0.162c133.888,0,204.604-76.8,207.642-80.162c2.083-2.315,2.739-5.581,1.712-8.521
			C510.514,292.916,507.968,290.768,504.897,290.253z M256.022,141.842c2.497,6.803,4.583,13.751,6.246,20.804
			c-4.136-0.682-8.356-0.682-12.493,0C251.439,155.592,253.525,148.645,256.022,141.842z M302.367,367.36
			c0.74-1.031,1.538-2.02,2.389-2.961c3.226-3.357,3.165-8.68-0.136-11.963s-8.625-3.313-11.964-0.069
			c-5.022,5.716-9.06,12.228-11.947,19.268c-0.17,0.336-0.321,0.68-0.452,1.033c-4.84,11.706-7.277,24.266-7.168,36.932
			c0,24.286,11.819,59.733,19.627,80.452c-12.065-2.528-24.367-3.753-36.693-3.652c-12.327-0.1-24.628,1.124-36.693,3.652
			c7.808-20.719,19.627-56.166,19.627-80.452c0.118-12.7-2.325-25.293-7.185-37.026c-0.11-0.291-0.235-0.576-0.375-0.853
			c-2.894-7.076-6.952-13.618-12.006-19.354c-3.353-3.114-8.566-3.029-11.815,0.193c-3.249,3.222-3.379,8.434-0.294,11.813
			c0.859,0.945,1.662,1.94,2.406,2.978c-66.812,0.869-131.801-21.786-183.595-64c26.953-8.833,53.15-19.825,78.336-32.87
			c23.475-11.307,47.744-23.014,57.728-23.014c16.467,0.449,32.792,3.174,48.512,8.098c2.143,0.713,4.481,0.547,6.502-0.461
			c5.111-2.517,21.786-11.904,21.786-24.704c-0.15-2.812-0.521-5.608-1.109-8.363c-1.758-9.967-5.035-28.527,2.287-37.257
			c4.184-4.161,10.022-6.211,15.889-5.581c5.867-0.631,11.705,1.42,15.889,5.581c7.322,8.73,4.045,27.307,2.287,37.257
			c-0.588,2.754-0.959,5.55-1.109,8.363c0,12.8,16.674,22.144,21.786,24.704c2.021,1.008,4.359,1.174,6.502,0.461
			c15.72-4.924,32.045-7.649,48.512-8.098c9.984,0,34.253,11.708,57.728,23.04c25.197,13.055,51.409,24.051,78.379,32.879
			C434.21,345.634,369.193,368.285,302.367,367.36z"/>
		<path d="M349.573,275.209c-4.258-2.022-9.349-0.209-11.371,4.049c-2.022,4.258-0.209,9.349,4.049,11.371
			c4.617,2.185,9.387,4.489,14.285,6.827c18.33,8.841,39.1,18.867,58.598,26.24c0.965,0.368,1.988,0.561,3.021,0.572
			c4.127,0.008,7.669-2.938,8.411-6.998c0.742-4.06-1.527-8.069-5.39-9.522c-18.773-7.1-39.211-16.947-57.225-25.6
			C359.028,279.732,354.215,277.411,349.573,275.209z"/>
		<path d="M357.646,325.12c-14.225-7.049-29.756-16.853-43.46-25.515c-3.763-2.372-7.441-4.702-10.991-6.903
			c-2.59-1.61-5.842-1.715-8.531-0.277c-2.689,1.438-4.407,4.201-4.506,7.249c-0.099,3.048,1.435,5.917,4.025,7.526
			c3.516,2.185,7.159,4.48,10.889,6.827c14.054,8.875,29.986,18.935,45.005,26.368c2.742,1.434,6.044,1.271,8.632-0.425
			s4.054-4.66,3.834-7.745c-0.221-3.086-2.094-5.811-4.897-7.121V325.12z"/>
		<path d="M486.422,68.267h-51.2c-2.298,0.003-4.496-0.941-6.076-2.611c-1.592-1.556-2.48-3.696-2.458-5.922
			c0-4.713,3.821-8.533,8.533-8.533h34.133c14.138,0,25.6-11.462,25.6-25.6c0.051-6.756-2.64-13.243-7.458-17.98
			c-4.754-4.909-11.308-7.662-18.142-7.62h-358.4c-14.138,0-25.6,11.462-25.6,25.6c-0.051,6.756,2.64,13.243,7.458,17.98
			c4.754,4.909,11.308,7.662,18.142,7.62h213.333c4.713,0,8.533,3.821,8.533,8.533c0.006,2.301-0.939,4.503-2.611,6.084
			c-1.562,1.583-3.698,2.466-5.922,2.449H187.755c-14.138,0-25.6,11.462-25.6,25.6c0.079,14.106,11.494,25.521,25.6,25.6h34.133
			c4.713,0,8.533-3.821,8.533-8.533c0-4.713-3.821-8.533-8.533-8.533h-34.133c-2.298,0.003-4.496-0.941-6.076-2.611
			c-1.592-1.556-2.48-3.696-2.458-5.922c0-4.713,3.82-8.533,8.533-8.533h136.533c14.109-0.07,25.53-11.491,25.6-25.6
			c0-14.138-11.462-25.6-25.6-25.6H110.955c-2.298,0.003-4.496-0.941-6.076-2.611c-1.592-1.556-2.48-3.696-2.458-5.922
			c0-4.713,3.821-8.533,8.533-8.533h358.4c2.298-0.003,4.496,0.941,6.076,2.611c1.592,1.556,2.48,3.696,2.458,5.922
			c0,4.713-3.82,8.533-8.533,8.533h-34.133c-14.138,0-25.6,11.462-25.6,25.6c0.079,14.106,11.494,25.521,25.6,25.6h51.2
			c2.298-0.003,4.496,0.941,6.076,2.611c1.592,1.556,2.48,3.696,2.458,5.922c0,4.713-3.821,8.533-8.533,8.533H290.155
			c-4.713,0-8.533,3.821-8.533,8.533c0,4.713,3.82,8.533,8.533,8.533h196.267c14.138,0,25.6-11.462,25.6-25.6
			C511.943,79.762,500.528,68.346,486.422,68.267z"/>
	</g>
</g>
<g>
</g>
<g>
</g>
<g>
</g>
<g>
</g>
<g>
</g>
<g>
</g>
<g>
</g>
<g>
</g>
<g>
</g>
<g>
</g>
<g>
</g>
<g>
</g>
<g>
</g>
<g>
</g>
<g>
</g>
</svg>
