<svg height="512" viewBox="0 0 512 512" width="512" xmlns="http://www.w3.org/2000/svg"><g id="Flat"><path d="m224 456h-40v-48l-32 8v40a24 24 0 0 0 -24 24v8h72z" fill="#e99180"/><path d="m256 400v56h32a32 32 0 0 1 32 32h-120v-8a24 24 0 0 1 24-24v-48z" fill="#efb990"/><path d="m320 488a32 32 0 0 0 -32-32v32z" fill="#e99180"/><path d="m296 200 114.255-31.161a83.791 83.791 0 0 0 61.745-80.839l-24-16h-168l-36 36z" fill="#f5a820"/><path d="m280 56h160a32 32 0 0 1 32 32h-192z" fill="#f6bc1b"/><path d="m363.917 238.226-22.235-15.882a179.173 179.173 0 0 1 -69.682-102.344 32 32 0 0 0 32-32v-32l-27.645-22.116a45.107 45.107 0 0 0 -28.177-9.884 45.106 45.106 0 0 0 -42.44 60.384l40.623 112.842a20 20 0 0 1 -18.818 26.774h-51.543l-60.885 90.352-35.115 109.648 167.452-12.4a52.227 52.227 0 0 0 29.048-11.491l48.478-6.324a86.165 86.165 0 0 0 75.022-85.442 86.168 86.168 0 0 0 -36.083-70.117z" fill="#dddac3"/><path d="m232 275.88a67.912 67.912 0 0 1 -19.88 48l-8.24 8.24a231.451 231.451 0 0 1 -23.51 20.53q-9 6.855-18.58 12.77a230.689 230.689 0 0 1 -28.66 15.04q-8.61 3.78-17.51 6.86a230.635 230.635 0 0 1 -27.29 7.58q-8.325 1.785-16.8 2.94a231.2 231.2 0 0 1 -31.53 2.16v-54.58a100.011 100.011 0 0 1 29.29-70.71l46.83-46.83a67.882 67.882 0 0 1 115.88 48z" fill="#2aa2c3"/><path d="m256 56h16v16h-16z" fill="#3f4041"/><g fill="#0884a9"><path d="m95.87 353.43-7.54 41.47q-8.325 1.785-16.8 2.94l8.6-47.27z"/><path d="m143.87 321.43-10.74 59.03q-8.61 3.78-17.51 6.86l12.51-68.75z"/><path d="m191.87 289.43-11.5 63.22q-9 6.855-18.58 12.77l14.34-78.85z"/></g><path d="m276.121 399.641a7.934 7.934 0 0 1 .23-10.327 44.217 44.217 0 0 0 11.649-30v-15.314a8 8 0 0 1 8-8 8 8 0 0 1 8 8v15.319a60.133 60.133 0 0 1 -15.788 40.738 7.99 7.99 0 0 1 -12.091-.416z" fill="#b7b292"/></g></svg>