<svg id="Capa_1" enable-background="new 0 0 512 512" height="512" viewBox="0 0 512 512" width="512" xmlns="http://www.w3.org/2000/svg"><path d="m362 270.989c0-33.091-26.909-60-60-60-25.518 0-50.361 8.994-69.961 25.342l-115.613 94.658h185.574c33.091 0 60-26.909 60-60z"/><path d="m422.146 134.886c18.604-14.077 29.854-36.284 29.854-59.897 0-47.338-43.251-83.291-91.187-73.301-42.99 9.114-69.809 55.011-54.58 98.159 8.628 24.565 9.382 53.339 3.188 81.892 46.11 3.845 82.579 42.162 82.579 89.249 0 49.629-40.371 90-90 90-6.892 0-257.608 0-270.482 0 6.969 34.191 37.266 59.98 73.482 59.98l137 .011v76.009c0 8.291 6.709 15 15 15h120c8.291 0 15-6.709 15-15s-6.709-15-15-15h-45v-64.245c92.783-18.587 146.711-119.654 106.86-208.22-10.166-22.631-15.791-48.358-16.714-74.637zm-120.146 347.103h-30v-61.007l29.824.002c.059 0 .117-.015.176-.015zm75-392c-8.284 0-15-6.716-15-15 0-8.286 6.716-15 15-15s15 6.714 15 15c0 8.283-6.716 15-15 15z"/><path d="m481.965 75.342c-.095 26.797-10.622 52.643-28.867 71.951.101.925.388 1.776.504 2.695h43.398c8.291 0 15-6.709 15-15 0-24.42-11.909-45.942-30.035-59.646z"/><path d="m15 330.989h54.6c3.076-2.563 76.577-63.814 71.999-60-4.616 0-100.192 0-96.599 0-24.901 0-45 20.099-45 45 0 9.067 7.042 15 15 15z"/></svg>