<?xml version="1.0" encoding="iso-8859-1"?>
<!-- Generator: Adobe Illustrator 16.0.0, SVG Export Plug-In . SVG Version: 6.00 Build 0)  -->
<!DOCTYPE svg PUBLIC "-//W3C//DTD SVG 1.1//EN" "http://www.w3.org/Graphics/SVG/1.1/DTD/svg11.dtd">
<svg version="1.1" id="Capa_1" xmlns="http://www.w3.org/2000/svg" xmlns:xlink="http://www.w3.org/1999/xlink" x="0px" y="0px"
	 width="579.117px" height="579.117px" viewBox="0 0 579.117 579.117" style="enable-background:new 0 0 579.117 579.117;"
	 xml:space="preserve">
<g>
	<g>
		<path d="M7.016,107.364c10.135-4.917,20.641-9.727,30.829-15.141c9.229-4.904,19.042-3.811,28.344-2.484
			c19.959,2.844,39.862,6.5,59.495,11.085c9,2.101,17.581,6.658,25.859,11.028c14.513,7.658,29.658,13.297,45.672,16.716
			c0.444,0.094,0.853,0.384,1.628,0.877c0.64,0.408,0.938,1.285,0.645,1.991c-4.064,9.792-7.348,20.119-12.681,29.25
			c-13.04,22.342-27.43,43.893-40.612,66.153c-3.109,5.251-4.761,11.987-5.104,18.152c-1.228,22.028,0.281,43.864,4.247,65.725
			c2.13,11.754,0.942,24.279,0.065,36.373c-1.265,17.426,1.379,34.252,5.002,51.156c3.893,18.168,6.752,36.553,10.535,54.744
			c6.067,29.168,15.671,57.137,31.367,82.588c7.405,12.008,16.242,23.137,24.553,34.578c1.041,1.428,2.766,2.387,4.26,3.443
			c0.285,0.199,0.661,0.273,1.13,0.348c0.653,0.102,1.093-0.408,0.992-1.164c-0.563-4.166-1.114-8.262-1.804-13.373
			c-0.102-0.756,0.314-1.008,0.926-0.547c1.604,1.211,2.297,1.832,3.109,2.189c1.726,0.76,4.545,2.293,5.145,1.703
			c1.367-1.336,2.109-3.723,2.293-5.758c0.302-3.357,0.143-6.756,0.106-10.438c-0.008-0.762,0.567-1.15,1.273-0.873
			c3.741,1.479,7.111,2.809,11.6,4.578c0.71,0.281,1.159-0.098,1-0.844c-0.959-4.447-1.84-7.381-1.995-10.355
			c-0.188-3.635-2.733-7.535,2.448-10.73c2.815-1.734,0.914-13.102-1.615-17.385c-0.388-0.656-0.453-1.604,0.028-2.191
			c1.085-1.322,2.22-2.559,2.693-4.01c0.551-1.693,0.424-3.607,0.453-5.871c0.008-0.764,0.628-1.188,1.351-0.943
			c0.788,0.266,1.33,0.453,1.885,0.596c6.793,1.779,7.65,0.787,6.948-6.01c-0.82-7.928-1.098-15.916-1.449-23.889
			c-0.041-0.941,0.379-1.908,0.82-3.047c0.273-0.711,1.057-1.139,1.808-1.008c6.026,1.041,7.144-2.652,6.789-8.328
			c-0.241-3.855,0.399-7.797,0.942-11.656c1.232-8.768,2.627-17.512,3.945-26.119c0.114-0.756,0.792-1.16,1.51-0.91
			c4.157,1.447,8.184,2.852,11.962,4.17c0.718,0.248,1.228-0.16,1.146-0.918c-1.387-12.746-1.073-24.814-4.733-35.518
			c-4.386-12.814-12.583-24.316-19.004-36.449c-1.461-2.764-2.085-5.994-3.713-8.631c-1.575-2.549-3.733-4.736-6.279-7.689
			c-0.498-0.576-0.298-1.213,0.433-1.438c2.081-0.637,4.402-1.439,6.789-1.732c6.304-0.775,7.417-3.004,4.21-8.402
			c-0.877-1.477-0.967-3.635-0.861-5.445c0.792-13.428,8.025-24.439,13.713-36.027c0.302-0.62,0.714-1.199,0.935-1.844
			c2.529-7.413,4.484-15.08,7.67-22.195c5.108-11.42,10.971-22.501,16.634-33.668c1.963-3.876,4.211-7.605,7.12-12.733
			c0.375-0.661,1.003-0.677,1.403-0.029c7.63,12.313,14.826,23.167,21.184,34.493c22.852,40.718,52.489,74.942,93.113,98.866
			c0.931,0.547,1.934,0.977,3.415,1.648c0.693,0.318,1.053-0.004,0.812-0.727c-1.22-3.623-2.293-6.82-3.565-10.604
			c-0.245-0.723,0.146-1.109,0.865-0.861c4.79,1.629,8.816,3,13.814,4.701c0.723,0.244,1.069-0.127,0.775-0.828
			c-1.306-3.121-2.224-5.316-3.158-7.553c-0.294-0.701,0.086-1.211,0.841-1.143c1.787,0.168,3.447,0.322,5.279,0.494
			c0.759,0.07,1.143-0.445,0.861-1.15c-1.298-3.24-2.452-6.129-3.656-9.135c-0.281-0.707,0.086-1.428,0.824-1.611
			c0.47-0.115,0.942-0.232,1.444-0.355c0.738-0.184,1.199-0.934,1.028-1.674c-1.375-5.943-2.763-11.934-4.264-18.416
			c-0.172-0.742,0.294-1.221,1.04-1.064c2.411,0.498,4.533,0.934,7.156,1.477c0.747,0.154,1.191-0.318,0.996-1.053
			c-2.036-7.634-3.827-14.341-5.691-21.343c-0.196-0.734,0.248-1.457,0.995-1.611c0.987-0.204,1.909-0.396,2.767-0.575
			c0.746-0.155,1.212-0.881,1.04-1.624c-2.203-9.551-4.345-18.833-6.634-28.748c-0.172-0.743,0.289-1.2,1.028-1.02
			c4.259,1.024,7.548,1.815,10.714,2.579c0.742,0.179,1.525,0.057,1.754-0.273s0.029-1.082-0.437-1.681
			c-7.217-9.278-13.848-19.135-22.012-27.491c-8.095-8.283-17.735-15.051-26.997-22.583c-0.592-0.481-0.755-1.408-0.351-2.052
			c1.036-1.661,2.117-3.264,2.754-5.026c0.429-1.184,0.2-3.607-0.571-4.068c-6.634-3.962-9.923-12.167-18.042-14.194
			c-0.273-0.069-0.489-0.372-0.73-0.751c-0.317-0.498-0.004-0.706,0.723-0.477c12.538,3.925,13.979,4.292,17.055,2.664
			c0.673-0.355,0.963-1.24,0.705-1.954c-4.275-11.991,2.236-22.836,3.774-33.672c0.106-0.755,0.779-1.448,1.534-1.55
			c16.793-2.208,33.175-4.076,49.441-6.675c8.78-1.399,17.564-3.513,25.974-6.397c20.689-7.091,41.514-13.256,63.582-13.766
			c7.776-0.18,16.937-0.045,25.26-0.033c0.763,0-0.106-0.608-0.232-1.358c-0.388-2.265-0.8-4.692-1.286-7.556
			c-0.126-0.751,1.575-1.808,2.098-2.358c0.592-0.624-0.021-1.432,0.873-2.371c0.526-0.551,0.449-1.358-0.171-1.803
			c-1.29-0.922-2.489-1.783-3.807-2.726c-0.62-0.445-0.947-1.396-0.734-2.125c0.175-0.6,0.354-1.208,0.526-1.795
			c0.216-0.73-0.07-1.738-0.637-2.248c-3.677-3.309-7.197-6.483-11.024-9.927c-0.567-0.51-0.865-1.526-0.849-2.289
			c0.102-4.468-5.422-3.787-8.711-5.594c-14.255-7.838-28.441-0.795-42.391,0.689c-33.036,3.509-64.22-3.093-95.207-13.395
			c-21.302-7.083-42.909-13.281-64.537-19.315c-18.34-5.116-36.9-9.425-55.362-14.096c-26.903-6.813-54.121-11.114-81.853-7.401
			c-12.224,1.636-24.117,5.63-36.275,7.936c-7.846,1.489-15.888,2.297-23.876,2.635c-24.562,1.053-49.106,1.812-72.44,10.983
			c-10.951,4.305-20.42,10.033-25.773,21.261c-1.359,2.852-4.402,5.369-7.275,6.936c-7.813,4.264-16.108,7.646-23.86,12.003
			c-2.134,1.2-3.464,3.827-4.99,6.108c-0.424,0.632-1.351,1.399-2.028,1.75C0.268,85.153-4.828,95.598,4.858,106.94
			C5.352,107.52,6.331,107.699,7.016,107.364z"/>
	</g>
</g>
<g>
</g>
<g>
</g>
<g>
</g>
<g>
</g>
<g>
</g>
<g>
</g>
<g>
</g>
<g>
</g>
<g>
</g>
<g>
</g>
<g>
</g>
<g>
</g>
<g>
</g>
<g>
</g>
<g>
</g>
</svg>
