<svg id="Capa_1" enable-background="new 0 0 512 512" height="512" viewBox="0 0 512 512" width="512" xmlns="http://www.w3.org/2000/svg"><g><g><g><g><path d="m213.25 355.4h-113.209c-4.46 0-7.361-4.694-5.366-8.683l16.167-32.333c1.995-3.989-.906-8.683-5.367-8.683h-5.434c-4.46 0-7.361-4.694-5.366-8.683l39.992-79.984c2.211-4.422 8.522-4.422 10.733 0l34.865 69.729z" fill="#4fc123"/></g><g><path d="m180.264 286.762-34.864-69.729c-2.211-4.422-8.522-4.422-10.733 0l-6.133 12.267 28.731 57.462 32.985 68.638h23z" fill="#47a920"/></g><g><path d="m164.883 256-19.483-38.967c-2.211-4.422-8.522-4.422-10.733 0l-19.484 38.967z" fill="#a2e62e"/></g><g><path d="m141.883 256h23l-19.483-38.967c-2.211-4.422-8.522-4.422-10.733 0l-6.133 12.267z" fill="#89d12a"/></g><g><path d="m331.733 355.4h80.225c4.46 0 7.361-4.694 5.367-8.683l-16.167-32.333c-1.995-3.989.906-8.683 5.367-8.683h5.434c4.46 0 7.361-4.694 5.367-8.683l-39.992-79.984c-2.211-4.422-8.522-4.422-10.733 0l-34.867 69.734v68.632z" fill="#4fc123"/></g><g><path d="m401.158 314.383c-1.995-3.989.906-8.683 5.367-8.683h5.434c4.46 0 7.361-4.694 5.367-8.683l-39.992-79.984c-2.211-4.422-8.522-4.422-10.733 0l-6.133 12.267 33.858 67.717c1.995 3.989-.906 8.683-5.367 8.683h-5.434c-4.46 0-7.361 4.694-5.367 8.683l16.167 32.333c1.995 3.989-.906 8.683-5.367 8.683h23c4.46 0 7.361-4.694 5.367-8.683z" fill="#47a920"/></g><g><path d="m106.9 479.367v-80.733c0-1.185.351-2.343 1.008-3.328l143.1-214.65c2.375-3.562 7.61-3.562 9.985 0l143.1 214.65c.657.986 1.008 2.144 1.008 3.328v80.733z" fill="#60b7ff"/></g><g><path d="m250.361 304.64-60.628 166.727h132.533l-60.627-166.727c-1.915-5.266-9.363-5.266-11.278 0z" fill="#685e68"/></g><g><path d="m261.639 304.64c-1.915-5.266-9.363-5.266-11.277 0l-5.861 16.118 54.767 150.608h23z" fill="#554e56"/></g><g><path d="m250.361 304.64-106.631 112.802c-2.08 2.377-1.961 5.96.273 8.194l45.731 45.731z" fill="#26a6fe"/></g><g><path d="m322.267 471.367 45.731-45.731c2.234-2.234 2.353-5.816.273-8.194l-106.632-112.802z" fill="#26a6fe"/></g><g><path d="m396.817 256-19.483-38.967c-2.211-4.422-8.522-4.422-10.733 0l-19.484 38.967z" fill="#a2e62e"/></g><g><path d="m373.817 256h23l-19.483-38.967c-2.211-4.422-8.522-4.422-10.733 0l-6.133 12.267z" fill="#89d12a"/></g><g><path d="m404.092 395.305-143.1-214.65c-2.375-3.562-7.61-3.562-9.985 0l-6.508 9.762 136.592 204.888c.657.986 1.008 2.144 1.008 3.328v80.733h23v-80.733c.001-1.184-.35-2.342-1.007-3.328z" fill="#26a6fe"/></g><g><path d="m32.067 471.367h447.867c4.418 0 8 3.582 8 8v25.133h-463.867v-25.133c0-4.419 3.581-8 8-8z" fill="#a2e62e"/></g><g><path d="m479.933 471.367h-23.036c4.418 0 8 3.582 8 8v25.133h23.036v-25.133c0-4.419-3.581-8-8-8z" fill="#89d12a"/></g><g><path d="m189.733 73.767c9.044 0 16.395 7.247 16.564 16.25.174 9.284-7.712 16.883-16.998 16.883h-139.823c-13.932 0-25.669-11.401-25.405-25.331.256-13.502 11.282-24.369 24.846-24.369h2.283c3.314 0 6-2.686 6-6v-9.912c0-18.579 15.204-34.137 33.779-33.782 18.001.344 32.487 15.044 32.487 33.127 0 .107.049.214.125.321.485.681 1.405.902 2.201.647 2.169-.694 4.016-1.036 6.698-.958 13.487.391 24.109 11.682 24.109 25.175v1.947c0 3.314 2.686 6 6 6h27.134z" fill="#c8effe"/></g><g><path d="m322.267 90.333c-9.044 0-16.395 7.247-16.564 16.25-.174 9.284 7.712 16.883 16.998 16.883h139.823c13.932 0 25.669-11.401 25.405-25.331-.256-13.502-11.282-24.369-24.846-24.369h-2.283c-3.314 0-6-2.686-6-6v-9.912c0-18.579-15.204-34.137-33.779-33.782-18.001.344-32.487 15.044-32.487 33.127 0 .107-.049.214-.125.321-.485.681-1.405.902-2.202.647-2.169-.694-4.016-1.036-6.698-.958-13.487.393-24.109 11.684-24.109 25.177v1.947c0 3.314-2.686 6-6 6z" fill="#badefc"/></g><g><path d="m322.267 90.333c-9.044 0-16.395 7.247-16.564 16.25-.174 9.284 7.712 16.883 16.998 16.883h139.823c13.932 0 25.669-11.401 25.405-25.331-.256-13.502-11.282-24.369-24.846-24.369h-2.283c-3.314 0-6-2.686-6-6v-9.912c0-18.579-15.204-34.137-33.779-33.782-18.001.344-32.487 15.044-32.487 33.127 0 .107-.049.214-.125.321-.485.681-1.405.902-2.202.647-2.169-.694-4.016-1.036-6.698-.958-13.487.393-24.109 11.684-24.109 25.177v1.947c0 3.314-2.686 6-6 6z" fill="#c8effe"/></g><g><path d="m463.083 73.767h-2.283c-3.314 0-6-2.686-6-6v-9.912c0-18.579-15.204-34.137-33.779-33.782-3.854.074-7.545.81-10.969 2.092 12.681 4.809 21.748 17.345 21.748 31.69v9.912c0 3.314 2.686 6 6 6h2.283c13.564 0 24.589 10.867 24.845 24.369.264 13.929-11.473 25.331-25.405 25.331h23c13.932 0 25.669-11.401 25.405-25.331-.255-13.502-11.281-24.369-24.845-24.369z" fill="#99e2fc"/></g><g><g><path d="m100.467 40.633c0 .107.049.214.125.321.484.681 1.405.902 2.201.647 2.169-.694 4.016-1.036 6.698-.958 13.487.391 24.109 11.682 24.109 25.175v1.947c0 3.314 2.686 6 6 6h23c-3.314 0-6-2.686-6-6v-1.947c0-13.493-10.622-24.784-24.109-25.175-2.682-.078-4.529.264-6.698.958-.796.255-1.717.034-2.201-.647-.076-.107-.125-.214-.125-.321 0-18.083-14.486-32.783-32.487-33.127-4.233-.081-8.288.673-12.031 2.092 12.568 4.706 21.518 16.824 21.518 31.035z" fill="#99e2fc"/></g><g><path d="m189.733 73.767h-23c9.044 0 16.395 7.247 16.564 16.25.174 9.284-7.712 16.883-16.998 16.883h23c9.286 0 17.172-7.599 16.998-16.883-.169-9.004-7.52-16.25-16.564-16.25z" fill="#99e2fc"/></g></g></g></g><g><path d="m504.5 497h-9.067v-17.633c0-8.547-6.953-15.5-15.5-15.5h-21.12l-47.473-71.209v-.001l-19.838-29.757h30.164c2.599 0 5.013-1.346 6.38-3.557s1.491-4.972.328-7.297l-19.422-38.846h12.714c2.599 0 5.013-1.346 6.38-3.557s1.491-4.972.328-7.297l-24.848-49.697c0-.001-.001-.002-.001-.003l-24.85-49.7c-1.27-2.541-3.867-4.146-6.708-4.146s-5.438 1.605-6.708 4.146l-24.85 49.7c0 .001 0 .001-.001.002l-9.603 19.206-67.305-100.958v-14.296c0-4.142-3.358-7.5-7.5-7.5s-7.5 3.358-7.5 7.5v14.296l-67.305 100.957-34.454-68.908c-1.111-2.223-3.239-3.73-5.656-4.072-.345-.049-.697-.074-1.052-.074-2.841 0-5.438 1.605-6.708 4.146l-24.85 49.7c0 .001-.001.002-.001.003l-24.848 49.697c-1.163 2.325-1.039 5.086.328 7.297s3.781 3.557 6.38 3.557h12.714l-19.422 38.846c-1.163 2.325-1.039 5.086.328 7.297s3.781 3.557 6.38 3.557h30.164l-19.838 29.757v.001l-47.473 71.209h-21.12c-8.547 0-15.5 6.953-15.5 15.5v17.634h-9.067c-4.142 0-7.5 3.358-7.5 7.5s3.358 7.5 7.5 7.5h104.1c4.142 0 7.5-3.358 7.5-7.5s-3.358-7.5-7.5-7.5h-80.033v-17.633c0-.276.224-.5.5-.5h447.866c.276 0 .5.224.5.5v17.633h-338.832c-4.142 0-7.5 3.358-7.5 7.5s3.358 7.5 7.5 7.5h362.899c4.142 0 7.5-3.358 7.5-7.5s-3.358-7.5-7.5-7.5zm-317.79-39.264-36.412-36.412 84.96-97.097zm90.032-133.508 84.96 97.097-36.412 36.412zm-53.854 77.909 33.112-91.057 33.112 91.057 22.447 61.73h-111.118zm27.468-117.94-115.967 132.531c-2.6 2.972-2.451 7.45.341 10.242l36.897 36.897h-57.227v-64.779l26.32-39.48c.008-.011.015-.023.023-.034l107.757-161.636v58.062c0 4.142 3.358 7.5 7.5 7.5s7.5-3.358 7.5-7.5v-58.062l107.757 161.636c.008.011.015.023.023.034l26.32 39.48v64.779h-57.227l36.897-36.897c2.792-2.792 2.941-7.271.341-10.242l-115.966-132.534c-.34-.355-2.434-2.466-5.767-2.414-3.185.051-5.162 2.041-5.522 2.417zm162.244 137.391 28.186 42.279h-28.186zm-40.633-198.518 12.715 25.43h-25.43zm-20.215 40.43h40.429l17.35 34.7h-12.714c-2.599 0-5.013 1.346-6.38 3.557s-1.491 4.972-.328 7.297l19.422 38.846h-28.029l-41.115-61.672zm-199.004-15h-25.43l12.715-25.43zm-50.279 99.4 19.422-38.846c1.163-2.325 1.039-5.086-.328-7.297s-3.781-3.557-6.38-3.557h-12.714l17.35-34.7h40.43l11.364 22.728-41.116 61.672zm-3.069 73.688v42.279h-28.186z"/><path d="m48.917 114.4h140.817c13.271 0 24.066-10.796 24.066-24.066 0-13.271-10.796-24.067-24.066-24.067h-25.634v-.783c0-17.838-14.512-32.35-32.35-32.35-.491 0-.982.011-1.471.033-3.516-18.852-20.091-33.167-39.945-33.167-22.406 0-40.634 18.228-40.634 40.633v9.067h-.784c-17.837 0-32.35 14.512-32.35 32.35s14.513 32.35 32.351 32.35zm0-49.7h8.283 24.85c4.142 0 7.5-3.358 7.5-7.5s-3.358-7.5-7.5-7.5h-17.35v-9.067c0-14.134 11.499-25.633 25.634-25.633s25.633 11.499 25.633 25.633c0 .375-.014.746-.029 1.116-.105 2.491 1.034 4.871 3.04 6.351 2.006 1.481 4.617 1.865 6.964 1.033 1.866-.663 3.82-.999 5.809-.999 9.567 0 17.35 7.783 17.35 17.35v8.283c0 4.142 3.358 7.5 7.5 7.5h33.133c4.999 0 9.066 4.067 9.066 9.067 0 4.999-4.067 9.066-9.066 9.066h-140.817c-9.566 0-17.35-7.783-17.35-17.35s7.783-17.35 17.35-17.35z"/><path d="m322.267 130.967h140.817c17.837 0 32.35-14.512 32.35-32.35s-14.512-32.35-32.35-32.35h-.784v-9.067c0-22.405-18.228-40.633-40.633-40.633-19.855 0-36.43 14.315-39.946 33.167-.489-.022-.979-.033-1.471-.033-17.838 0-32.35 14.512-32.35 32.35v.784h-25.633c-13.271 0-24.066 10.796-24.066 24.066-.001 13.269 10.795 24.066 24.066 24.066zm0-33.133h33.133c4.142 0 7.5-3.358 7.5-7.5v-8.284c0-9.566 7.783-17.35 17.35-17.35 1.989 0 3.943.336 5.809.999 2.349.833 4.96.447 6.964-1.033 2.005-1.48 3.145-3.86 3.04-6.351-.016-.37-.029-.742-.029-1.116 0-14.134 11.499-25.633 25.633-25.633s25.633 11.5 25.633 25.634v9.066h-17.35c-4.142 0-7.5 3.358-7.5 7.5s3.358 7.5 7.5 7.5h24.85 8.284c9.566 0 17.35 7.783 17.35 17.35s-7.783 17.35-17.35 17.35h-140.817c-4.999 0-9.066-4.067-9.066-9.067-.001-4.998 4.067-9.065 9.066-9.065z"/></g></g></svg>