<svg id="Layer_1" enable-background="new 0 0 512 512" height="512" viewBox="0 0 512 512" width="512" xmlns="http://www.w3.org/2000/svg"><g><path d="m506.918 216.894c-7.016-3.965-12.58-6.113-16.861-7.239-5.494-16.672-26.371-28.632-54.51-30.179-.018-.001-.035.001-.053 0-6.064-.364-10.997-1.461-14.676-3.286 3.91-4.02 7.01-7.88 9.48-11.79 4.08-6.46 6.15-12.87 6.15-19.07.02-4.89-1.33-9.75-3.89-14.04-3.67-6.11-9.3-11.09-17.72-15.68-11.4-6.1-58.48-16.5-59.9-16.78-122.6-24.22-210.62-27.83-252.18-27.83-15.58 0-24.05.52-24.4.54-4.53.3-8.3 3.61-9.17 8.06-.88 4.46 1.37 8.95 5.46 10.93l123.52 59.74c5.19 2.51 8.44 7.7 8.47 13.54-.01 3.25-1 6.23-2.95 8.88-3.71 5.04-9.22 12.13-14.34 17.25-2.09 2.1-6.57 5.4-6.77 5.5-15.23-.45-43.24-2.66-48.56-2.66-.59 0-19.82.97-34.83 2.69-38.11 4.39-88.66 12.77-90.79 13.12l-.04.01c-5.22.87-8.86 5.67-8.3 10.93.26 2.45 1.42 4.72 3.27 6.37 1.96 1.76 4.53 2.67 7.15 2.55 12.15-.58 33.74-.88 33.74-.88 23.17 0 41.12 1.79 51.9 5.17 4.56 1.39 8.36 3.3 10.18 5.1.84.81 1.944 2.834 1.7 3.68-.378 1.31-1.46 2.26-3.95 3.76-4.4 2.75-12.69 5.58-22.17 7.57-15.16 3.26-33.05 4.81-45.4 5.54-14.11.84-25.03.87-26.23.87h-.31c-5.24.03-9.6 4.15-9.92 9.38-.32 5.23 3.49 9.86 8.69 10.53 9.97 1.29 80.58 11.31 103.46 11.34 12.05 0 22.75-.99 32.72-3.02 0 0 34.08-8.45 35.14-8.71 3.25.73 5.87 2.34 8.01 4.92 2.23 2.74 3.51 6.42 3.5 10.09-.07 5.09-2.16 9.25-6.23 12.35-14.37 10.79-35.94 26.79-57.08 41.74-23.19 16.4-41.91 28.71-54.14 35.6-16.84 9.5-28.97 17.13-37.06 23.35-4.21 3.25-7.09 5.87-9.32 8.5-1.37 1.63-2.33 3.06-3.11 4.64-1.07 2.18-1.6 4.31-1.61 6.52-.04 2.6.96 5.6 2.56 7.64 2.35 3.01 4.96 4.23 7.44 5.09 2.48.8 4.75 1.09 6.65 1.26 4.03.34 8.42.52 13.06.52 28.67-.03 67.77-6.38 116.2-18.86 41.58-10.75 86.44-25.24 126.33-40.8 2.49-.97 4.45-2.85 5.52-5.3 1.08-2.44 1.13-5.16.16-7.65-.74-1.91-2.04-3.53-3.74-4.67-2.69-1.8-6.17-2.2-9.21-1.01-39.17 15.29-83.23 29.52-124.06 40.06-41.341 10.713-77.735 17.036-103.695 18.077-2.536.102-8.345.153-8.755.153.58-.42 3.581-2.519 4.566-3.186 6.998-4.738 16.359-10.419 27.893-16.914 13.16-7.42 31.43-19.42 55.86-36.69 17.14-12.11 36.5-26.27 57.55-42.08 4.64-3.45 8.25-7.83 10.74-12.99 2.31-4.8 3.51-10.1 3.48-15.35-.01-8.27-2.84-16.32-7.95-22.67-1.308-1.627-2.762-3.122-4.349-4.476 19.512-11.352 60.397 4.197 100.119 19.305 7.149 2.719 14.542 5.531 21.698 8.136 1.129.411 2.284.606 3.419.606 4.084 0 7.92-2.522 9.398-6.583 1.889-5.19-.787-10.928-5.977-12.817-7.02-2.555-14.345-5.341-21.428-8.035-25.274-9.613-51.409-19.554-73.863-23.093-25.178-3.969-43.472.939-54.509 14.574-.488.085-37.429 9.203-37.429 9.203-8.57 1.73-17.89 2.57-28.5 2.57 0 0-10.39-.19-16.14-.57 3.48-1 6.73-2.09 9.66-3.27 6.47-2.62 11.02-5.34 14.75-8.81 2.3-2.15 4.1-4.53 5.36-7.06 1.45-2.88 2.21-6.09 2.2-9.27.01-3.45-.7-6.88-2.04-9.93-2.2-5.02-6.28-9.42-11.79-12.72-2.57-1.53-5.35-2.84-8.49-4.01 12.02-1.32 27.79-2.09 28.34-2.09 0 0 7.84.28 12.98.72.9.07 18.844 1.443 33.73 1.891 9.934 4.262 20.136 6.073 30.586 6.073 28.37 0 58.542-13.355 89.961-27.262 13.041-5.772 26.526-11.741 40.436-17.062 5.158-1.973 7.74-7.754 5.767-12.913s-7.754-7.742-12.913-5.767c-14.39 5.504-28.114 11.579-41.386 17.453-32.642 14.449-61.753 27.32-86.962 25.327.513-.554 9.18-10.741 13.57-16.681 4.43-5.99 6.86-13.36 6.85-20.75.01-6.44-1.76-12.76-5.13-18.29-3.49-5.73-8.55-10.31-14.63-13.25l-84.81-41.02c47.6 1.17 125.9 6.84 228.99 27.2 1.74.34 42.05 8.75 52.01 13.61 4.65 2.23 8.42 4.79 10.61 7.21 2.26 2.55 2.72 4.16 2.77 6.06 0 2.34-1.03 5.17-3.07 8.41-2.72 4.34-7.36 9.39-13.41 14.59-3.11 2.68-4.26 6.92-2.93 10.81.31.96 2.21 6.03 8.39 10.89 1.55 1.23 3.28 2.36 5.15 3.37-4.83 4.51-8.76 9.58-11.68 15.08-4.08 7.65-6.23 16.46-6.22 25.47 0 8.63 1.9 17.83 5.63 27.31.13.93-.6 20.16-5.03 30.29-5.37 12.21-14.48 23.26-27.07 32.85-2.13 1.61-3.5 3.96-3.86 6.6-.36 2.65.33 5.28 1.94 7.41 1.91 2.51 4.82 3.95 7.98 3.95 2.19 0 4.28-.7 6.04-2.04 8.12-6.15 15.18-13 20.97-20.35 5.08-6.44 9.23-13.31 12.32-20.4 5.83-13.32 7.032-34.477 7.003-35.271 7.186-3.592 14.12-6.425 16.468-6.616 13.977-.012 27.407-3.572 37.822-10.027 7.548-4.678 13.029-10.692 16.016-17.33 2.16.856 4.866 2.112 8.171 3.98 1.555.878 3.244 1.296 4.911 1.296 3.488 0 6.877-1.829 8.715-5.082 2.721-4.808 1.025-10.908-3.783-13.625zm-71.92 20.789c-5.523 0-13.92 3.276-21.074 6.632-.818-3.615-1.241-7.082-1.246-10.366.02-5.9 1.29-11.16 3.89-16.09 3.69-7.01 9.52-11.83 13.75-14.64 2.44-1.63 6.262-3.562 6.379-3.616 19.385 1.604 34.801 9.894 34.801 18.969 0 8.838-15.944 19.111-36.5 19.111z"/><circle cx="333.082" cy="354.46" r="10"/></g></svg>