<svg height="512" viewBox="0 0 128 128" width="512" xmlns="http://www.w3.org/2000/svg"><g><g><path d="m68.663 8.458-2.694-1.892a35.99 35.99 0 0 0 -20.782-6.566 1.75 1.75 0 0 0 0 3.5 32.495 32.495 0 0 1 18.77 5.932l2.175 1.526-.011-.006-1.8-.666a20.464 20.464 0 0 0 -17.877 1.861 1.75 1.75 0 1 0 1.864 2.962 16.94 16.94 0 0 1 14.8-1.54l1.8.666a1.746 1.746 0 0 0 1.858-2.857 1.713 1.713 0 0 0 2.326-.482 1.751 1.751 0 0 0 -.429-2.438z" fill="#474979"/><g fill="#ffcd38"><path d="m61.611 79.43a1.748 1.748 0 0 0 -2.469.173l-15.963 18.377a1.749 1.749 0 0 0 -.429 1.148v19.749a1.75 1.75 0 1 0 3.5 0v-19.095l15.535-17.882a1.75 1.75 0 0 0 -.174-2.47z"/><path d="m69.383 77.158a1.751 1.751 0 0 0 -2.344.8l-10.109 20.521a1.751 1.751 0 0 0 -.026 1.492l8.829 19.629a1.75 1.75 0 0 0 3.192-1.436l-8.491-18.877 9.746-19.787a1.752 1.752 0 0 0 -.797-2.342z"/></g><path d="m75.27 53.51-9.35 13.2a78.381 78.381 0 0 1 -8.04 9.59c-1.13 1.14-2.3 2.26-3.5 3.32-.53.49-1.06.95-1.6 1.41-1.3 1.1-2.65 2.15-4.03 3.14-1.14.82-2.31 1.59-3.5 2.33a61.571 61.571 0 0 1 -5.63 3.09c-1.15.57-2.32 1.09-3.5 1.57-.76.32-1.52.62-2.29.9a62.86 62.86 0 0 1 -21.59 3.83l21.06-29.72a29.994 29.994 0 0 1 24.48-12.66z" fill="#474979"/><path d="m89.812 53.511h-8v-8.375a4.38 4.38 0 0 0 -4.375-4.375 12.39 12.39 0 0 1 -12.375-12.375v-7h8v7a4.38 4.38 0 0 0 4.375 4.375 12.389 12.389 0 0 1 12.375 12.375z" fill="#fcd2ae"/><path d="m85.625 21.386h-20.563v-6.477a6.157 6.157 0 0 1 6.157-6.156h7.4l7.006 4.315z" fill="#f9bd91"/><path d="m85.625 13.068s24.906 8.357 24.531 8.318-24.531 0-24.531 0z" fill="#ffac00"/><path d="m75.266 53.511-9.35 13.2a77.4 77.4 0 0 1 -13.136 14.317c-.81.685-1.639 1.342-2.478 1.983h17.51a22 22 0 0 0 22-22v-7.5z" fill="#f9bd91"/><g fill="#383c6b"><path d="m57.88 64v12.3c-1.13 1.14-2.3 2.26-3.5 3.32v-15.62a1.75 1.75 0 1 1 3.5 0z"/><path d="m48.75 72.14v12.03c-1.14.82-2.31 1.59-3.5 2.33v-14.36a1.75 1.75 0 0 1 3.5 0z"/><path d="m39.62 80.08v9.51c-1.15.57-2.32 1.09-3.5 1.57v-11.08a1.75 1.75 0 1 1 3.5 0z"/></g><path d="m1.75 118.877h124.5v7.373h-124.5z" fill="#f9bd91"/></g><g><path d="m20.323 84.48a1.748 1.748 0 0 0 2.439-.415l2.872-4.053a1.75 1.75 0 1 0 -2.856-2.024l-2.871 4.053a1.748 1.748 0 0 0 .416 2.439z"/><path d="m126.25 117.127h-57.79l-8.026-17.84 7.155-14.526h.223a23.777 23.777 0 0 0 23.75-23.75v-15.875a14.034 14.034 0 0 0 -2.417-7.9 1.75 1.75 0 1 0 -2.9 1.961 10.554 10.554 0 0 1 1.815 5.934v6.625h-4.5v-6.62a6.132 6.132 0 0 0 -6.125-6.125 10.638 10.638 0 0 1 -10.623-10.625v-5.25h4.5v5.25a6.132 6.132 0 0 0 6.125 6.125 1.75 1.75 0 0 0 0-3.5 2.629 2.629 0 0 1 -2.625-2.625v-5.25h10.816c9.43-.015 23.718-.029 24.347-.01a1.611 1.611 0 0 0 .182.01 1.754 1.754 0 0 0 1.713-1.379c.332-1.529-.947-1.975-2.185-2.4-.671-.235-1.632-.564-2.787-.957-2.3-.785-5.37-1.822-8.44-2.858-5.528-1.864-11.042-3.715-12.085-4.066l-6.836-4.213a1.751 1.751 0 0 0 -.918-.263h-7.4a7.85 7.85 0 0 0 -3.47.813l-1.78-1.25a35.99 35.99 0 0 0 -20.782-6.563 1.75 1.75 0 0 0 0 3.5 32.495 32.495 0 0 1 18.77 5.932l.984.69c-.078.1-.157.2-.231.309l-.39-.145a20.464 20.464 0 0 0 -17.877 1.861 1.75 1.75 0 1 0 1.864 2.962 16.94 16.94 0 0 1 14.8-1.54l.311.115a7.992 7.992 0 0 0 -.105 1.225v13.477a14.142 14.142 0 0 0 14.124 14.125 2.628 2.628 0 0 1 2.625 2.625v6.625h-22.285a31.8 31.8 0 0 0 -25.906 13.394 1.75 1.75 0 0 0 2.856 2.024 28.29 28.29 0 0 1 23.05-11.918h14.1l-7.389 10.434a75.6 75.6 0 0 1 -6.613 8.073v-9.768a1.75 1.75 0 0 0 -3.5 0v13.255c-.891.832-1.8 1.649-2.726 2.436s-1.914 1.554-2.9 2.29v-9.845a1.75 1.75 0 0 0 -3.5 0v12.289a61.013 61.013 0 0 1 -5.625 3.2v-7.542a1.75 1.75 0 0 0 -3.5 0v9.167a61 61 0 0 1 -23.883 4.886 1.75 1.75 0 0 0 0 3.5 64.506 64.506 0 0 0 26.164-5.569 1.73 1.73 0 0 0 .349-.154 64.461 64.461 0 0 0 12.122-7.152h3.785l-11.482 13.219a1.749 1.749 0 0 0 -.429 1.148v18h-41a1.75 1.75 0 0 0 -1.75 1.749v7.373a1.75 1.75 0 0 0 1.75 1.75h124.5a1.749 1.749 0 0 0 1.75-1.75v-7.373a1.749 1.749 0 0 0 -1.75-1.75zm-26.65-97.508c-3.091 0-7.082.006-12.229.014v-4.133c3.921 1.316 8.363 2.811 12.229 4.119zm-21.477-9.119 5.752 3.542v5.591h-17.063v-4.724a4.411 4.411 0 0 1 4.407-4.409zm-10.779 57.219 8.826-12.458h11.892v5.75a20.273 20.273 0 0 1 -20.25 20.25h-12.64q1.092-.965 2.149-1.967c.019-.018.039-.034.057-.053a79.217 79.217 0 0 0 9.966-11.522zm-21.094 32.063 13.05-15.021h4.389l-6.759 13.718a1.751 1.751 0 0 0 -.026 1.492l7.719 17.156h-18.373zm78.25 24.718h-121v-3.873h121z"/></g></g></svg>