<?xml version="1.0" encoding="iso-8859-1"?>
<!-- Generator: Adobe Illustrator 17.1.0, SVG Export Plug-In . SVG Version: 6.00 Build 0)  -->
<!DOCTYPE svg PUBLIC "-//W3C//DTD SVG 1.1//EN" "http://www.w3.org/Graphics/SVG/1.1/DTD/svg11.dtd">
<svg version="1.1" id="Capa_1" xmlns="http://www.w3.org/2000/svg" xmlns:xlink="http://www.w3.org/1999/xlink" x="0px" y="0px"
	 viewBox="0 0 332.016 332.016" style="enable-background:new 0 0 332.016 332.016;" xml:space="preserve">
<path d="M330.195,64.393c-10.526-3.754-16.389-8.121-18.449-13.741c-2.121-5.787-10.729-24.667-32.443-24.667
	c-2.108,0-4.299,0.189-6.513,0.561c-14.366,2.417-25.974,15.99-35.301,26.895c-4.685,5.478-9.11,10.651-13.04,13.43
	c-19.935,14.094-42.501,43.427-60.634,66.998c-9.185,11.939-17.117,22.244-22.79,28.054c-14.598,14.949-46.28,43.777-76.918,71.667
	c-25.701,23.395-49.978,45.471-63.566,58.784L0,292.875l0.513,1.157h0.672c0.622,0,0.81,0.088,62.743-46.166
	c10.608-7.922,21.392-15.888,29.837-22.176c-19.898,18.223-39.077,36.805-47.554,45.088c-9.215,9.005-17.566,17.328-23.513,23.445
	c-9.752,10.031-9.607,10.4-9.32,11.158l0.297,0.651h0.69c0.44,0,0.788,0.008,4.524-3.178c33.272-28.37,96.676-70.917,117.963-85.194
	c-1.731,1.525-3.636,3.16-5.574,4.854c-29.77,26.045-45.592,40.919-43.959,45.268c0.236,0.629,0.861,1.25,2.501,1.25
	c0,0,0.001,0,0.001,0c0.467,0,0.993,0.072,1.607-0.046c15.978-3.066,151.488-62.583,177.145-85.77
	c25.588-23.124,27.32-58.962,23.731-70.011c-7.727-23.793,7.05-38.345,7.199-38.489c3.425-3.288,14.99-4.763,22.644-5.74
	c7.687-0.98,9.703-1.297,9.86-2.751C332.132,65.084,330.775,64.599,330.195,64.393z"/>
<g>
</g>
<g>
</g>
<g>
</g>
<g>
</g>
<g>
</g>
<g>
</g>
<g>
</g>
<g>
</g>
<g>
</g>
<g>
</g>
<g>
</g>
<g>
</g>
<g>
</g>
<g>
</g>
<g>
</g>
</svg>
