<?xml version="1.0" encoding="iso-8859-1"?>
<!-- Generator: Adobe Illustrator 19.0.0, SVG Export Plug-In . SVG Version: 6.00 Build 0)  -->
<svg version="1.1" id="Capa_1" xmlns="http://www.w3.org/2000/svg" xmlns:xlink="http://www.w3.org/1999/xlink" x="0px" y="0px"
	 viewBox="0 0 512 512" style="enable-background:new 0 0 512 512;" xml:space="preserve">
<path style="fill:#FFFFFF;" d="M342.519,10.085c-32.44,1.7-56.769,30.83-56.769,63.309v122.609H45.752
	c0,42.54,13.27,81.969,35.92,114.379c-22.17,21.78-35.92,52.09-35.92,85.619H225.75h20c13.99,0,26.01,0,40,0
	c66.269,0,119.999-53.729,119.999-119.999c0-5.877,0-204.647,0-205.998C405.749,35.795,377.129,8.275,342.519,10.085z"/>
<path style="fill:#3C435A;" d="M300.452,331.504c26.467-9.987,45.297-35.542,45.297-65.501c0-38.66-31.34-69.999-69.999-69.999
	H195.75C195.751,261.302,240.351,315.88,300.452,331.504z"/>
<path style="fill:#FFD87D;" d="M432.748,70.627v39.377h33C465.748,90.304,451.498,73.94,432.748,70.627z"/>
<path d="M345.999,60.004c-5.52,0-10,4.48-10,10s4.48,10,10,10c5.52,0,10-4.48,10-10S351.519,60.004,345.999,60.004z"/>
<path d="M266,286.002c5.52,0,10-4.48,10-10c0-5.52-4.48-10-10-10s-10,4.48-10,10C256,281.522,260.48,286.002,266,286.002z"/>
<path d="M46.002,406.001H216V492h-10c-5.523,0-10,4.477-10,10s4.477,10,10,10h119.999c5.522,0,10-4.477,10-10s-4.478-10-10-10h-30
	v-86.38c67.027-5.123,119.999-61.3,119.999-129.618V120.004h50c5.522,0,10-4.477,10-10c0-27.57-22.43-50-50-50h-10.714
	c-4.871-34.482-35.458-61.865-73.039-59.905C304.609,2.071,276,35.405,276,73.394v112.609c-22.934,0-203.93,0-229.998,0
	c-5.523,0-10,4.477-10,10c0,40.508,11.438,79.498,33.151,113.285c-21.433,23.869-33.151,54.347-33.151,86.713
	C36.002,401.524,40.479,406.001,46.002,406.001z M236,492v-85.999c12.152,0,28.103,0,40,0V492H236z M454.284,100.004h-38.286v-20h10
	C439.035,80.004,450.157,88.364,454.284,100.004z M276,206.003c33.084,0,59.999,26.916,59.999,59.999
	c0,33.098-26.779,59.999-59.999,59.999h-30c-35.642,0-69.457-14.671-93.796-40H226c5.523,0,10-4.477,10-10c0-5.523-4.477-10-10-10
	h-89.566c-4.076-6.367-7.554-13.059-10.447-20h80.013c5.523,0,10-4.477,10-10c0-5.523-4.477-10-10-10h-86.514
	c-1.549-6.563-2.591-13.247-3.105-20H276z M96.344,206.003c5.16,78.134,70.054,139.999,149.656,139.999h30
	c44.036,0,79.999-35.621,79.999-79.999c0-37.209-25.534-68.564-59.999-77.467V73.394c0-28.037,21.216-51.957,47.292-53.323
	c29.041-1.522,52.708,21.567,52.708,49.934v205.998c0,60.653-49.346,109.999-109.999,109.999c-13.99,0-26.01,0-40,0
	c-100.252,0-184.5-78.582-189.74-179.998H96.344z M81.12,326.054c20.41,25.844,46.385,46.226,75.556,59.947H56.446
	C58.423,363.866,66.972,343.153,81.12,326.054z"/>
<g>
</g>
<g>
</g>
<g>
</g>
<g>
</g>
<g>
</g>
<g>
</g>
<g>
</g>
<g>
</g>
<g>
</g>
<g>
</g>
<g>
</g>
<g>
</g>
<g>
</g>
<g>
</g>
<g>
</g>
</svg>
