<?xml version="1.0" encoding="iso-8859-1"?>
<!-- Generator: Adobe Illustrator 19.0.0, SVG Export Plug-In . SVG Version: 6.00 Build 0)  -->
<svg xmlns="http://www.w3.org/2000/svg" xmlns:xlink="http://www.w3.org/1999/xlink" version="1.1" id="Layer_1" x="0px" y="0px" viewBox="0 0 511.992 511.992" style="enable-background:new 0 0 511.992 511.992;" xml:space="preserve" width="512" height="512">
<g>
	<g>
		<g>
			<path style="fill:#FADC60;" d="M339.293,458.32h34.121c8.193,0,14.835-6.642,14.835-14.835c0-8.193-6.642-14.835-14.835-14.835     h-19.286v-53.407c0-8.193-6.642-14.835-14.835-14.835s-14.835,6.642-14.835,14.835v68.242     C324.458,451.678,331.1,458.32,339.293,458.32z"/>
		</g>
		<g>
			<path style="fill:#FADC60;" d="M248.849,458.32h34.121c8.193,0,14.835-6.642,14.835-14.835c0-8.193-6.642-14.835-14.835-14.835     h-19.286v-53.407c0-8.193-6.642-14.835-14.835-14.835s-14.835,6.642-14.835,14.835v68.242     C234.014,451.678,240.656,458.32,248.849,458.32z"/>
		</g>
		<path style="fill:#B8B8B8;" d="M117.569,337.099c-121.908,33.797-143.516,2.63-60.022-28.349l25.208-9.875l46.897,10.384    L117.569,337.099z"/>
		<path style="fill:#506366;" d="M423.406,194.362c-99.032,0-170.308,75.946-197.868,110.899c-6.77,8.586-2.912,21.306,7.516,24.593    c37.176,11.717,96.041,21.201,189.209,21.278c43.4,0.036,79.376-34.704,79.528-78.104    C501.943,229.608,466.791,194.362,423.406,194.362z"/>
		<path style="fill:#F2C42C;" d="M339.293,360.407c-8.193,0-14.835,6.642-14.835,14.835v47.841    c10.392-0.517,20.271-1.669,29.67-3.468v-44.373C354.129,367.05,347.487,360.407,339.293,360.407z"/>
		<path style="fill:#F2C42C;" d="M263.685,419.781v-44.539c0-8.193-6.642-14.835-14.835-14.835c-8.193,0-14.835,6.642-14.835,14.835    v39.404C243.673,416.659,253.57,418.371,263.685,419.781z"/>
		<path style="fill:#EFEDEE;" d="M350.682,53.672c-61.095,0.211-110.152,50.647-110.152,111.742v124.506    c0,3.015,0.125,6.001,0.362,8.955c0,0-158.089,0-158.137,0c1.246,0,10.334,14.634,11.575,16.054    c42.762,48.954,112.72,72.055,175.138,80.422c44.626,5.982,93.306,5.246,131.642-21.468    c37.424-26.079,60.506-70.863,60.506-116.415v-93.254C461.615,103.033,411.912,53.461,350.682,53.672z"/>
		<path style="fill:#B8B8B8;" d="M276.892,298.876c-0.237-2.955-0.362-5.94-0.362-8.955V165.414    c0-55.115,39.927-101.549,92.596-110.267c-6-0.986-12.16-1.497-18.444-1.475C289.587,53.884,240.53,104.32,240.53,165.414v124.506    c0,3.015,0.125,6,0.362,8.955C261.775,298.876,276.892,298.876,276.892,298.876z"/>
		<path style="fill:#506366;" d="M247.899,173.259c-99.032,0-170.308,75.946-197.868,110.899c-6.77,8.586-2.912,21.306,7.516,24.593    c37.176,11.717,96.041,21.201,189.209,21.278c43.4,0.036,79.376-34.704,79.528-78.104    C326.436,208.505,291.284,173.259,247.899,173.259z"/>
		<path style="fill:#F2C42C;" d="M433.477,169.574l-45.645,11.815h-0.582v0.151c0,13.928,11.285,25.214,25.214,25.214h45.895    c14.009,0,25.365-11.356,25.365-25.365L433.477,169.574z"/>
		<path style="fill:#FADC60;" d="M504.496,181.389H387.25c0-13.928,11.285-25.214,25.214-25.214h66.818    C493.2,156.175,504.496,167.46,504.496,181.389z"/>
	</g>
	<g>
		<path d="M359.426,151.444v-17.465c0-4.142-3.358-7.5-7.5-7.5s-7.5,3.358-7.5,7.5v17.465c0,4.143,3.358,7.5,7.5,7.5    S359.426,155.586,359.426,151.444z"/>
		<path d="M490.351,188.889c0,0,14.146,0,14.165,0c4.501,0.32,7.551-4.026,7.474-8.128c-0.337-17.75-14.88-32.085-32.708-32.085    h-11.195c-3.563-27.096-16.386-52.042-36.574-70.85c-21.921-20.422-50.474-31.654-80.443-31.654c-0.138,0-0.277,0-0.415,0.001    C285.796,46.397,233.03,99.889,233.03,165.415v0.907c-7.79,0.582-15.583,1.611-23.301,3.092c-4.068,0.781-6.733,4.711-5.952,8.779    c0.781,4.067,4.709,6.733,8.779,5.952c11.633-2.232,23.497-3.386,35.343-3.386c18.981,0,36.813,7.405,50.212,20.851    c13.397,13.444,20.739,31.304,20.672,50.288c-0.137,38.918-33.364,70.63-71.961,70.63c-0.019,0-0.042,0-0.061,0    c-10.577,0-21.155-0.14-31.728-0.418c-0.189-0.005-0.378-0.01-0.567-0.015c-44.645-1.192-83.372-4.84-115.447-10.891    c-13.228-2.496-26.373-5.559-39.218-9.607c-5.354-1.687-7.327-8.427-3.881-12.795c21.094-26.753,65.736-74.902,127.718-96.788    c3.906-1.379,5.954-5.663,4.575-9.569c-1.38-3.906-5.665-5.955-9.569-4.575C113.1,201.014,66.241,251.487,44.142,279.514    c-6.049,7.672-6.565,18.769-1.244,26.955c-37.66,15.844-44.247,29.138-42.693,37.798c1.784,9.937,13.05,14.976,33.487,14.976    c20.253,0,48.642-4.818,82.24-13.927c12.141,9.367,25.794,17.798,40.864,25.193c3.72,1.824,8.213,0.29,10.037-3.429    c1.825-3.719,0.29-8.212-3.429-10.037c-15.509-7.61-29.374-16.356-41.485-26.115c-0.405-0.326-0.805-0.656-1.206-0.985    c26.792,3.747,57.165,6.111,90.958,7.079c0.186,0.005,0.374,0.01,0.56,0.015c11.502,0.331,23.011,0.49,34.517,0.49    c0.026,0,0.047,0,0.074,0c47.79-0.003,86.795-38.376,86.96-85.578c0.081-23.001-8.814-44.64-25.047-60.929    c-15.989-16.044-38.05-25.233-60.707-25.263v-0.345c0-57.283,46.061-104.046,102.678-104.242c0.122,0,0.236-0.001,0.358-0.001    c51.087,0,94.339,37.774,101.879,87.504h-17.614v-14.696c0-4.142-3.358-7.5-7.5-7.5s-7.5,3.358-7.5,7.5v14.696h-7.867    c-17.671,0-32.714,14.872-32.714,32.714v0.15c0,18.039,14.675,32.714,32.714,32.714h41.651v43.215    c0,3.184-0.132,6.372-0.367,9.547c-2.953,39.886-24.047,77.803-56.926,100.715c-36.428,25.385-84.028,25.861-126.358,20.188    c-26.517-3.557-52.793-9.525-77.978-18.61c-3.899-1.406-8.194,0.614-9.6,4.51c-1.405,3.896,0.614,8.195,4.51,9.6    c12.469,4.498,25.541,8.377,39.118,11.617v48.449c0,12.316,10.02,22.335,22.335,22.335h34.121    c12.316,0,22.335-10.02,22.335-22.335c0-12.315-10.02-22.335-22.335-22.335h-11.786v-18.02    c14.499,1.845,28.042,2.788,40.706,2.788c1.711,0,3.388-0.037,5.067-0.071v37.639c0,12.316,10.02,22.335,22.335,22.335h34.121    c12.315,0,22.335-10.02,22.335-22.335c0-12.315-10.02-22.335-22.335-22.335h-11.786v-21.138    c16.279-4.285,30.759-10.908,43.77-19.974c9.028-6.291,17.259-13.625,24.6-21.76c44.562-3.866,79.136-40.694,79.292-85.223    c0.091-25.834-11.122-49.684-30.498-65.953C484.483,202.57,488.637,196.197,490.351,188.889z M33.691,344.243    c-12.156,0-16.864-1.965-18.382-2.866c1.456-2.504,8.902-11.945,42.471-24.702c5.657,1.725,11.395,3.428,17.175,4.688    c0.013,0.003,0.027,0.006,0.04,0.01c6.015,1.472,12.293,2.845,18.839,4.117c1.374,1.444,6.779,6.767,8.105,8    C67.242,342.272,45.873,344.243,33.691,344.243z M282.97,436.15c4.045,0,7.335,3.291,7.335,7.335c0,4.045-3.291,7.335-7.335,7.335    h-34.121c-4.044,0-7.335-3.291-7.335-7.335v-45.173c2.332,0.464,4.68,0.905,7.037,1.333c0.244,0.044,0.488,0.087,0.732,0.131    c2.071,0.372,4.151,0.729,6.24,1.072c0.221,0.036,0.44,0.078,0.66,0.114v27.688c0,4.142,3.358,7.5,7.5,7.5H282.97z     M354.129,436.15h19.286c4.044,0,7.335,3.291,7.335,7.335c0,4.045-3.291,7.335-7.335,7.335h-34.121    c-4.045,0-7.335-3.291-7.335-7.335v-38.419c5.04-0.44,9.924-1.061,14.67-1.849v25.433    C346.629,432.792,349.986,436.15,354.129,436.15z M479.282,163.675c7.088,0,13.217,4.185,16.047,10.214H396.44    c0.115-0.246,0.227-0.494,0.354-0.733c3.036-5.755,9.157-9.48,15.671-9.48H479.282z M412.464,199.253    c-5.89,0-11.522-3.05-14.77-7.957c-0.511-0.772-0.942-1.567-1.328-2.408l78.205,0c-2.91,6.265-9.302,10.364-16.213,10.364H412.464    z M469.115,218.553c15.999,13.431,25.25,33.125,25.175,54.448c-0.11,31.53-21.186,58.396-50.458,67.407    c14.052-21.252,22.805-46.051,24.819-71.623c0.303-3.764,0.464-7.54,0.464-11.317V218.553z"/>
	</g>
</g>















</svg>
