<svg id="Layer_1" enable-background="new 0 0 512 512" height="512" viewBox="0 0 512 512" width="512" xmlns="http://www.w3.org/2000/svg"><g><path d="m392.444 377.248 113.023 102.294c2.57 2.326.924 6.596-2.542 6.596h-4.475c-85.118 0-184.843-37.136-247.615-95.867-2.444-2.287-.973-6.383 2.368-6.565l136.493-7.432c1.01-.055 1.999.296 2.748.974z" fill="#454040"/><g fill="#1e1205"><path d="m228.74 480.332h-26.055v-84.722c0-8.723-7.072-15.795-15.795-15.795s-15.795 7.072-15.795 15.795v84.722h-35.479v-84.732c0-8.723-7.072-15.795-15.795-15.795s-15.795 7.072-15.795 15.795v84.732h-27.205c-8.723 0-15.795 7.072-15.795 15.795s7.072 15.795 15.795 15.795h41.433c.516.051 1.038.079 1.568.079s1.052-.028 1.568-.079h107.35c8.723 0 15.795-7.072 15.795-15.795s-7.072-15.795-15.795-15.795z"/><path d="m143 155.108 269.72 240.491h-256.698l-83.986-108.087z"/><path d="m151.14 90.366h98.453c7.307 0 9.228-2.247 8.5-4.478-11.446-35.043-67.909-56.993-118.313-52.822l7.767 54.185c.256 1.787 1.787 3.115 3.593 3.115z"/></g><path d="m221.431 326.907c5.259 0 10.524-.319 15.72-.966 26.049-3.243 48.185-14.328 62.438-31.222l-23.562-21.008c-.109.123-.226.234-.332.361-20.367 24.568-65.791 26.394-93.843 12.653l-18.97-9.254c-22.724-11.45-17.297-.57-21.121 7.271-3.825 7.84-.569 17.296 7.271 21.12l18.948 9.242c15.733 7.708 34.579 11.803 53.451 11.803z" fill="#454045"/><path d="m156.022 395.599h-36.2c-62.677 0-114.541-50.81-114.541-113.486v-208.304c-.001-40.764 33.044-73.809 73.808-73.809h2.069c40.764 0 73.809 33.045 73.809 73.809z" fill="#454045"/><path d="m81.158 0h-.507v388.705c12.252 4.46 25.452 6.894 39.17 6.894h36.2l-1.055-321.79c.001-40.764-33.045-73.809-73.808-73.809z" fill="#454040"/><circle cx="97.659" cy="68.522" fill="#ffd400" r="15.68"/></g></svg>