<?xml version="1.0" encoding="iso-8859-1"?>
<!-- Generator: Adobe Illustrator 19.0.0, SVG Export Plug-In . SVG Version: 6.00 Build 0)  -->
<svg version="1.1" id="Capa_1" xmlns="http://www.w3.org/2000/svg" xmlns:xlink="http://www.w3.org/1999/xlink" x="0px" y="0px"
	 viewBox="0 0 512 512" style="enable-background:new 0 0 512 512;" xml:space="preserve">
<path style="fill:#E6595A;" d="M150.486,286.328c-52.123,0-94.527-42.405-94.527-94.528v-9.158c0-7.423,6.018-13.441,13.441-13.441
	c7.423,0,13.441,6.018,13.441,13.441v9.158c0,37.3,30.346,67.646,67.645,67.646c7.423,0,13.441,6.018,13.441,13.441
	C163.927,280.31,157.909,286.328,150.486,286.328z"/>
<path style="opacity:0.1;enable-background:new    ;" d="M82.84,191.8v-9.158c0-7.423-6.017-13.441-13.441-13.441
	s-13.441,6.018-13.441,13.441v9.158c0,22.6,7.976,43.369,21.255,59.651c2.349-0.378,4.706-0.887,7.066-1.548
	c6.936-1.945,13.045-5.591,18.184-10.514C90.342,227.158,82.84,210.341,82.84,191.8z"/>
<path style="opacity:0.05;enable-background:new    ;" d="M150.486,259.446c-8.936,0-17.465-1.757-25.281-4.919
	c-1.704,5.283-2.605,10.758-2.605,16.37c0,3.948,0.45,7.827,1.307,11.621c8.436,2.475,17.354,3.81,26.58,3.81
	c7.423,0,13.441-6.018,13.441-13.441C163.927,265.464,157.909,259.446,150.486,259.446z"/>
<g>
	<path style="fill:#E6595A;" d="M173.083,407.534c-7.423,0-13.441-6.017-13.441-13.441c0-16.817,9.311-35.623,24.908-50.307
		c17.328-16.314,39.988-25.298,63.802-25.298c7.422,0,13.442,6.018,13.442,13.441c0,7.423-6.018,13.441-13.442,13.441
		c-38.354,0-61.827,31.547-61.827,48.724C186.524,401.516,180.507,407.534,173.083,407.534z"/>
	<path style="fill:#E6595A;" d="M125.739,384.556c-7.422,0-13.441-6.017-13.441-13.441c0-16.817,9.311-35.623,24.908-50.307
		c17.328-16.314,39.987-25.298,63.802-25.298c7.423,0,13.441,6.018,13.441,13.441c0,7.423-6.018,13.441-13.441,13.441
		c-38.354,0-61.827,31.547-61.827,48.724C139.18,378.538,133.161,384.556,125.739,384.556z"/>
</g>
<path style="opacity:0.1;enable-background:new    ;" d="M201.007,295.509c-23.814,0-46.472,8.984-63.802,25.298
	c-0.921,0.867-1.816,1.752-2.694,2.646c5.695,6.359,12.71,12.159,20.801,17.247c10.675-10.217,26.272-18.31,45.694-18.31
	c7.423,0,13.441-6.017,13.441-13.441C214.448,301.526,208.43,295.509,201.007,295.509z"/>
<path style="opacity:0.1;enable-background:new    ;" d="M248.352,318.488c-23.814,0-46.472,8.984-63.802,25.298
	c-2.664,2.508-5.13,5.145-7.413,7.863c9.153,3.607,19.092,6.458,29.609,8.427c10.418-8.452,24.531-14.708,41.605-14.708
	c7.422,0,13.442-6.017,13.442-13.441C261.793,324.505,255.775,318.488,248.352,318.488z"/>
<path style="fill:#E6595A;" d="M361.472,286.328c52.123,0,94.528-42.405,94.528-94.528v-9.158c0-7.423-6.018-13.441-13.441-13.441
	c-7.423,0-13.441,6.018-13.441,13.441v9.158c0,37.3-30.346,67.646-67.645,67.646c-7.423,0-13.441,6.018-13.441,13.441
	C348.032,280.31,354.049,286.328,361.472,286.328z"/>
<path style="opacity:0.1;enable-background:new    ;" d="M429.118,191.8v-9.158c0-7.423,6.017-13.441,13.441-13.441
	c7.423,0,13.441,6.018,13.441,13.441v9.158c0,22.6-7.976,43.369-21.255,59.651c-2.349-0.378-4.706-0.887-7.066-1.548
	c-6.936-1.945-13.045-5.591-18.184-10.514C421.615,227.158,429.118,210.341,429.118,191.8z"/>
<path style="opacity:0.05;enable-background:new    ;" d="M361.472,259.446c8.936,0,17.465-1.757,25.281-4.919
	c1.704,5.283,2.605,10.758,2.605,16.37c0,3.948-0.45,7.827-1.307,11.621c-8.435,2.475-17.354,3.81-26.58,3.81
	c-7.423,0-13.441-6.018-13.441-13.441C348.032,265.464,354.049,259.446,361.472,259.446z"/>
<g>
	<path style="fill:#E6595A;" d="M338.875,407.534c7.423,0,13.441-6.017,13.441-13.441c0-16.817-9.311-35.623-24.908-50.307
		c-17.328-16.314-39.988-25.298-63.802-25.298c-7.423,0-13.442,6.018-13.442,13.441c0,7.423,6.018,13.441,13.442,13.441
		c38.354,0,61.827,31.547,61.827,48.724C325.434,401.516,331.452,407.534,338.875,407.534z"/>
	<path style="fill:#E6595A;" d="M386.22,384.556c7.423,0,13.441-6.017,13.441-13.441c0-16.817-9.311-35.623-24.908-50.307
		c-17.328-16.314-39.987-25.298-63.802-25.298c-7.423,0-13.441,6.018-13.441,13.441c0,7.423,6.018,13.441,13.441,13.441
		c38.354,0,61.827,31.547,61.827,48.724C372.778,378.538,378.797,384.556,386.22,384.556z"/>
</g>
<path style="opacity:0.1;enable-background:new    ;" d="M310.951,295.509c23.814,0,46.472,8.984,63.802,25.298
	c0.922,0.867,1.817,1.752,2.694,2.646c-5.695,6.359-12.71,12.159-20.801,17.247c-10.675-10.217-26.272-18.31-45.695-18.31
	c-7.423,0-13.441-6.017-13.441-13.441C297.51,301.526,303.529,295.509,310.951,295.509z"/>
<path style="opacity:0.1;enable-background:new    ;" d="M263.606,318.488c23.814,0,46.472,8.984,63.802,25.298
	c2.664,2.508,5.13,5.145,7.413,7.863c-9.153,3.607-19.092,6.458-29.609,8.427c-10.418-8.452-24.532-14.708-41.605-14.708
	c-7.423,0-13.442-6.017-13.442-13.441C250.165,324.505,256.183,318.488,263.606,318.488z"/>
<ellipse style="fill:#E6595A;" cx="255.977" cy="270.893" rx="122.984" ry="79.655"/>
<path style="fill:#E9D286;" d="M255.979,308.017c-37.471,0-70.426,6.979-89.458,17.534c22.424,15.39,54.207,24.998,89.458,24.998
	s67.034-9.608,89.458-24.998C326.405,314.996,293.45,308.017,255.979,308.017z"/>
<g>
	<path style="fill:#E6595A;" d="M11.236,187.901c13.663,48.737,42.031,60.874,70.583,52.87
		c28.552-8.005,43.242-44.653,32.812-81.857c-10.43-37.204-42.031-60.875-70.583-52.87S0.806,150.697,11.236,187.901z"/>
	<path style="fill:#E6595A;" d="M500.723,187.901c-13.663,48.737-42.031,60.874-70.583,52.87
		c-28.552-8.005-43.243-44.653-32.812-81.857c10.43-37.204,42.031-60.875,70.583-52.87
		C496.461,114.048,511.152,150.697,500.723,187.901z"/>
</g>
<g>
	<path style="fill:#FFFFFF;" d="M197.831,280.797h-19.422c-4.369,0-7.911-3.542-7.911-7.911s3.542-7.911,7.911-7.911h19.422
		c4.369,0,7.911,3.542,7.911,7.911S202.2,280.797,197.831,280.797z"/>
	<path style="fill:#FFFFFF;" d="M333.555,280.797h-19.421c-4.37,0-7.911-3.542-7.911-7.911s3.541-7.911,7.911-7.911h19.421
		c4.37,0,7.911,3.542,7.911,7.911S337.924,280.797,333.555,280.797z"/>
</g>
<path d="M278.774,247.078c-4.369,0-7.911,3.542-7.911,7.911c0,1.922-1.563,3.485-3.486,3.485c-1.921,0-3.485-1.563-3.485-3.485
	c0-4.369-3.541-7.911-7.911-7.911c-4.369,0-7.911,3.542-7.911,7.911c0,1.922-1.563,3.485-3.485,3.485
	c-1.922,0-3.485-1.563-3.485-3.485c0-4.369-3.542-7.911-7.911-7.911s-7.911,3.542-7.911,7.911c0,10.646,8.661,19.306,19.306,19.306
	c4.259,0,8.2-1.386,11.396-3.731c3.196,2.345,7.137,3.731,11.396,3.731c10.646,0,19.307-8.661,19.307-19.306
	C286.684,250.619,283.143,247.078,278.774,247.078z M506.277,133.079c-7.134-17.796-20.001-30.102-36.233-34.653
	c-16.228-4.55-33.619-0.727-48.965,10.768c-14.717,11.024-25.858,27.923-31.369,47.584c-8.29,29.57-1.857,59.005,14.441,76.732
	c-6.153,6.286-13.618,11.16-21.809,14.234c-6.041-15.048-17.993-28.731-35.099-39.811c-24.496-15.864-56.906-24.601-91.264-24.601
	s-66.77,8.737-91.264,24.601c-17.106,11.079-29.058,24.762-35.099,39.811c-8.192-3.074-15.656-7.946-21.808-14.233
	c16.298-17.726,22.731-47.162,14.441-76.732c-11.591-41.344-47.627-67.518-80.335-58.352c-32.706,9.169-49.884,50.264-38.294,91.608
	c6.959,24.825,18.056,42.383,32.982,52.189c8.818,5.793,18.82,8.721,29.525,8.721c0.253,0,0.508-0.011,0.763-0.014
	c14.836,20.917,36.991,35.58,61.914,40.982c2.201,6.093,5.359,11.977,9.432,17.568c-2.246,1.777-4.401,3.636-6.451,5.565
	c-17.154,16.151-27.396,37.11-27.396,56.066c0,11.773,9.578,21.351,21.351,21.351c11.773,0,21.351-9.578,21.351-21.351
	c0-8.229,8.577-23.611,24.738-33.005c1.531,0.857,3.086,1.689,4.667,2.494c-15.562,15.765-24.763,35.525-24.763,53.488
	c0,11.773,9.578,21.351,21.351,21.351c11.773,0,21.351-9.578,21.351-21.351c0-9.299,11.517-29.417,34.452-37.507
	c8.817,1.225,17.88,1.873,27.092,1.873c9.212,0,18.276-0.649,27.093-1.873c22.936,8.09,34.451,28.208,34.451,37.507
	c0,11.773,9.578,21.351,21.351,21.351c11.773,0,21.351-9.578,21.351-21.351c0-17.963-9.202-37.724-24.763-53.488
	c1.581-0.806,3.137-1.638,4.668-2.496c16.16,9.394,24.737,24.775,24.737,33.005c0,11.773,9.578,21.351,21.351,21.351
	s21.351-9.578,21.351-21.351c0-18.956-10.242-39.916-27.396-56.066c-2.047-1.929-4.203-3.788-6.45-5.566
	c4.072-5.591,7.23-11.475,9.432-17.568c24.924-5.402,47.079-20.066,61.914-40.982c0.254,0.003,0.509,0.014,0.764,0.014
	c10.704,0,20.708-2.928,29.525-8.721c14.925-9.806,26.022-27.364,32.982-52.189C513.851,170.375,513.119,150.147,506.277,133.079z
	 M18.853,185.766c-8.248-29.422,0.658-58.352,19.969-69.058l16.494,58.835c0.979,3.492,4.155,5.777,7.613,5.777
	c0.707,0,1.426-0.096,2.139-0.295c4.207-1.179,6.661-5.546,5.482-9.752l-16.493-58.836c22.065-0.893,44.71,19.19,52.958,48.612
	c9.235,32.944-3.025,65.29-27.331,72.105C50.848,241.241,29.811,224.853,18.853,185.766z M125.205,274.612
	c-15.662-4.8-29.704-14.001-40.425-26.485c3.784-1.133,7.364-2.679,10.701-4.623c8.333,8.849,18.692,15.591,30.111,19.597
	c-0.331,2.575-0.508,5.174-0.508,7.794C125.083,272.14,125.13,273.378,125.205,274.612z M131.269,371.114
	c0,3.049-2.481,5.53-5.53,5.53s-5.53-2.481-5.53-5.53c0-14.677,8.381-31.33,22.42-44.547c1.924-1.812,3.973-3.544,6.108-5.2
	c2.659,2.524,5.528,4.964,8.606,7.308C140.334,341.048,131.269,358.625,131.269,371.114z M178.613,394.093
	c0,3.049-2.481,5.53-5.53,5.53s-5.53-2.481-5.53-5.53c0-14.678,8.381-31.331,22.42-44.547c0.729-0.686,1.492-1.371,2.276-2.055
	c4.105,1.523,8.323,2.896,12.644,4.111C188.617,363.487,178.613,380.73,178.613,394.093z M344.405,394.093
	c0,3.049-2.482,5.53-5.53,5.53c-3.049,0-5.53-2.481-5.53-5.53c0-9.184-4.658-20.086-12.78-29.911
	c-3.906-4.724-8.452-8.965-13.446-12.596c4.303-1.211,8.502-2.579,12.592-4.096c0.783,0.682,1.546,1.368,2.275,2.054
	C336.023,362.763,344.405,379.416,344.405,394.093z M338.643,320.58c-21.963,14.225-51.321,22.059-82.664,22.059
	s-60.7-7.834-82.664-22.059c-20.901-13.537-32.411-31.182-32.411-49.683s11.51-36.146,32.411-49.683
	c21.963-14.224,51.321-22.059,82.664-22.059s60.701,7.834,82.664,22.059c20.9,13.537,32.411,31.182,32.411,49.683
	S359.543,307.044,338.643,320.58z M391.75,371.114c0,3.049-2.482,5.53-5.53,5.53c-3.049,0-5.53-2.481-5.53-5.53
	c0-12.489-9.066-30.067-26.073-42.438c3.078-2.345,5.947-4.784,8.606-7.308c2.136,1.656,4.184,3.388,6.107,5.199
	C383.368,339.784,391.75,356.437,391.75,371.114z M386.754,274.613c0.075-1.234,0.121-2.472,0.121-3.717
	c0-2.62-0.177-5.219-0.508-7.794c11.418-4.006,21.777-10.748,30.111-19.597c3.337,1.944,6.918,3.49,10.702,4.623
	C416.459,260.612,402.417,269.813,386.754,274.613z M493.105,185.766c-10.958,39.086-31.988,55.471-60.831,47.388
	c-24.306-6.815-36.566-39.16-27.33-72.105c4.577-16.325,13.676-30.244,25.621-39.191c8.323-6.235,17.287-9.459,25.977-9.459
	c0.454,0,0.905,0.027,1.356,0.045l-16.492,58.828c-1.179,4.206,1.275,8.573,5.482,9.752c0.714,0.2,1.432,0.295,2.139,0.295
	c3.457,0,6.633-2.285,7.613-5.777l16.492-58.83c7.968,4.433,14.387,12.097,18.458,22.253
	C497.145,152.819,497.683,169.44,493.105,185.766z M188.121,238.928c-4.369,0-7.911,3.542-7.911,7.911v3.184
	c0,4.369,3.542,7.911,7.911,7.911s7.911-3.542,7.911-7.911v-3.184C196.032,242.47,192.49,238.928,188.121,238.928z M323.844,238.928
	c-4.37,0-7.911,3.542-7.911,7.911v3.184c0,4.369,3.541,7.911,7.911,7.911s7.911-3.542,7.911-7.911v-3.184
	C331.755,242.47,328.213,238.928,323.844,238.928z"/>
<g>
</g>
<g>
</g>
<g>
</g>
<g>
</g>
<g>
</g>
<g>
</g>
<g>
</g>
<g>
</g>
<g>
</g>
<g>
</g>
<g>
</g>
<g>
</g>
<g>
</g>
<g>
</g>
<g>
</g>
</svg>
