<svg height="512" viewBox="0 0 64 64" width="512" xmlns="http://www.w3.org/2000/svg"><g id="Filled_outline" data-name="Filled outline"><path d="m9 11a6.707 6.707 0 0 1 5-2c3.387.384 5.257 4.4 6 6a14.043 14.043 0 0 1 1 3c1.608.586 3.279 1.248 5 2 3.868 1.689 5.026 2.536 8 4 8.051 3.964 11.977 3.875 13 7a5.234 5.234 0 0 1 0 3l6 6a3.535 3.535 0 0 1 0 5l7 7a2.121 2.121 0 0 1 -3 3l-14-14a6.826 6.826 0 0 0 -4.828-2h-1.344a6.826 6.826 0 0 0 -4.828 2h-4c-1.108-1.108-4.761-1.975-5-2a16.664 16.664 0 0 1 -4-1c-4.737-1.925-7.351-6.792-8-8a12.691 12.691 0 0 1 -2-7 10.951 10.951 0 0 1 1-4l-2-3 2-2z" fill="#394d5c"/><path d="m16 22a8.1 8.1 0 0 0 0 6c1.735 5.376 10.9 9.528 23 11l.021.059a6.827 6.827 0 0 1 3.979 1.941l14 14a2.121 2.121 0 0 0 3-3l-7-7a3.535 3.535 0 0 0 0-5l-6-6a5.234 5.234 0 0 0 0-3c-1.023-3.125-4.949-3.036-13-7-2.974-1.464-4.132-2.311-8-4-1.721-.752-3.392-1.414-5-2a7.49 7.49 0 0 0 -5 4z" fill="#5a6470"/><path d="m9 11 1 3-2 2-5-3z" fill="#5a6470"/><path d="m28 41v2h-2a4 4 0 0 0 -4 4h10v-6z" fill="#143441"/><path d="m54.337 44.922a4.542 4.542 0 0 0 -.63-5.629l-5.607-5.606a5.907 5.907 0 0 0 -.151-3c-.8-2.436-2.889-3.23-6.357-4.545a77.131 77.131 0 0 1 -7.151-3.042c-1.084-.534-1.923-.985-2.744-1.424-1.449-.779-2.817-1.513-5.3-2.595-1.479-.647-3.007-1.264-4.547-1.836a14.946 14.946 0 0 0 -.947-2.67c-.778-1.675-2.848-6.125-6.794-6.571a7.478 7.478 0 0 0 -5.618 2.108l-5.81 1.937a1 1 0 0 0 -.2 1.8l4.808 2.885 1.577 2.366a11.8 11.8 0 0 0 -.866 3.848 13.627 13.627 0 0 0 2.12 7.529c2.84 5.282 6.191 7.51 8.5 8.45a17.49 17.49 0 0 0 4.24 1.063 15.686 15.686 0 0 1 4.14 1.488v.522h-1a5.006 5.006 0 0 0 -5 5 1 1 0 0 0 1 1h10a1 1 0 0 0 1-1v-5.558a5.867 5.867 0 0 1 3.828-1.442h1.344a5.868 5.868 0 0 1 4.121 1.707l14 14a3.121 3.121 0 0 0 4.414-4.414zm-46.492-30.181-2.466-1.48 2.989-1 .487 1.464zm13.1 4.307c1.578.582 3.144 1.207 4.658 1.868 2.4 1.051 3.74 1.767 5.152 2.524.839.451 1.7.912 2.807 1.457.111.055.208.1.317.15a10.558 10.558 0 0 1 -.681 2.341l-5.7-3.256-.998 1.736 5.723 3.271a8.886 8.886 0 0 1 -.943 1.163 9 9 0 0 1 -.877.779l-6.903-3.949-1 1.736 5.949 3.4a11.4 11.4 0 0 1 -6.27.749l-.011.059c-2.746-1.585-4.586-3.418-5.22-5.383a7.144 7.144 0 0 1 -.044-5.274 6.464 6.464 0 0 1 4.038-3.371zm10.055 26.952h-7.829a3.006 3.006 0 0 1 2.829-2h2a1 1 0 0 0 1-1v-1h2zm.6-6h-3.233a16.124 16.124 0 0 0 -5.267-1.994 15.793 15.793 0 0 1 -3.728-.933c-2.007-.815-4.936-2.786-7.5-7.546a11.774 11.774 0 0 1 -1.872-6.475 9.888 9.888 0 0 1 .909-3.634 1 1 0 0 0 -.076-.973l-1.546-2.318 1.42-1.42a1 1 0 0 0 .241-1.023l-.787-2.364a5.329 5.329 0 0 1 3.727-1.327c2.83.321 4.555 4.031 5.206 5.429a12.966 12.966 0 0 1 .689 1.906 8.291 8.291 0 0 0 -4.691 4.253 9.06 9.06 0 0 0 -.043 6.727c1.528 4.735 8.223 8.645 17.951 10.706a7.836 7.836 0 0 0 -1.4.986zm27.69 14.293a1.123 1.123 0 0 1 -1.586 0l-14-14a7.883 7.883 0 0 0 -4.593-2.228s-9.344-1.72-12.907-3.092a11.288 11.288 0 0 0 9.537-9.048c2 .9 3.7 1.544 5.14 2.089 3.319 1.258 4.685 1.828 5.166 3.3a3.667 3.667 0 0 1 .166 1.246l-7.81-3.471-.812 1.828 8.831 3.925 5.868 5.868a2.53 2.53 0 0 1 .56 2.732l-7.146-7.146-1.414 1.414 15 15a1.123 1.123 0 0 1 0 1.586z"/><path d="m13 12h2v2h-2z"/><path d="m20 21h2v2h-2z"/><path d="m19 25h2v2h-2z"/></g></svg>