<?xml version="1.0" encoding="iso-8859-1"?>
<!-- Generator: Adobe Illustrator 19.0.0, SVG Export Plug-In . SVG Version: 6.00 Build 0)  -->
<svg version="1.1" id="Capa_1" xmlns="http://www.w3.org/2000/svg" xmlns:xlink="http://www.w3.org/1999/xlink" x="0px" y="0px"
	 viewBox="0 0 512.003 512.003" style="enable-background:new 0 0 512.003 512.003;" xml:space="preserve">
<path style="fill:#DBD9DC;" d="M231.991,185.79c-18.516,2.744-34.19,11.587-56.112,24.552
	c-31.924,18.882-80.073,32.097-118.277,8.854l139.311-79.008L231.991,185.79z"/>
<path style="fill:#00AAF0;" d="M445.415,19.438c-68.1-11.378-111.53,6.663-111.53,6.663l86.86,79.511l36.321-61.997
	C462.996,33.735,456.78,21.336,445.415,19.438z"/>
<path style="fill:#00C3FF;" d="M478.921,216.874C471.175,104.759,379.678,14.332,267.488,7.787
	c-41.735-2.435-97.482,11.298-126.374,34.349c-43.994,35.101-51.598,66.269-52.207,81.792c-0.278,7.1-3.958,13.614-9.623,17.903
	c-36.519,27.648-45.863,49.946-46.734,64.61c-0.631,10.637,9.908,18.487,20.213,15.773c61.322-16.147,107.38-48.281,129.411-66.025
	c7.308-5.886,18.216-4.435,23.299,3.453c33.596,52.14,93.163,70.424,128.918,76.828l0.171,1.083
	c8.067,11.352,14.124,24.341,17.622,38.566c18.943,77.05-38.867,145.908-112.759,145.908c-14.766,0-32.722-0.779-48.031-2.22
	L121.49,381.24c-3.265-1.802-7.044,1.447-5.69,4.922c4.88,12.529,15.289,34.178,33.129,48.765c3.671,3.001,4.041,8.504,0.682,11.852
	c-17.074,17.015-27.461,35.652-32.777,47.018c-1.64,3.507,2.207,7.031,5.596,5.161l77.396-42.701
	c20.712,1.402,43.664,2.142,54.146,2.142C383.814,458.398,488.025,348.661,478.921,216.874z"/>
<path style="fill:#00AAF0;" d="M32.551,206.441c-0.631,10.637,9.908,18.486,20.213,15.773
	c61.322-16.147,107.38-48.28,129.411-66.025c7.308-5.886,18.216-4.435,23.299,3.453c33.596,52.14,93.163,70.424,128.918,76.828
	l0.171,1.083c8.067,11.352,14.124,24.341,17.622,38.566c18.943,77.05-38.867,145.908-112.759,145.908
	c-14.766,0-32.722-0.779-48.031-2.22l-69.903-38.567c-3.266-1.801-7.044,1.447-5.691,4.922
	c4.881,12.529,15.289,34.178,33.129,48.765c3.671,3.001,4.041,8.504,0.682,11.851c-17.074,17.015-27.461,35.652-32.777,47.018
	c-1.64,3.506,2.207,7.031,5.597,5.161l77.396-42.701c20.712,1.402,43.664,2.142,54.146,2.142c31.335,0,61.151-6.444,88.268-17.994
	c157.572-97.307,97.741-280.942,18.037-332.788c-103.23-67.149-224.501-15.033-280.993,34.215
	C42.765,169.477,33.421,191.776,32.551,206.441z"/>
<path style="fill:#DBD9DC;" d="M380.995,180.682c-15.653-24.028-36.691-44.171-62.193-57.354c-4.854-2.51-9.976-4.445-15.247-5.852
	c-4.17-1.113-8.087,2.671-7.118,6.877c11.659,50.593,75.515,59.974,68.123,111.954c-0.289,2.03-2.163,3.502-4.206,3.325
	c-5.049-0.436-14.986-1.439-26.996-3.399c8.067,11.352,15.327,25.661,18.825,39.885c18.943,77.05-38.867,145.908-112.759,145.908
	c-14.766,0-32.722-0.779-48.031-2.22C384.331,471.427,455.49,295.034,380.995,180.682z"/>
<path style="fill:#4B3F4E;" d="M184.886,127.661L184.886,127.661c-8.856,0-16.036-7.18-16.036-16.036v-8.018
	c0-8.856,7.18-16.036,16.036-16.036l0,0c8.856,0,16.036,7.18,16.036,16.036v8.018C200.922,120.481,193.742,127.661,184.886,127.661z
	"/>
<circle style="fill:#FFFFFF;" cx="184.888" cy="103.609" r="8.02"/>
<path d="M486.391,216.357c-3.176-45.967-20.186-89.814-48.529-126.177l25.625-42.706c4.08-6.8,4.461-15.136,1.019-22.299
	c-3.45-7.181-10.215-12.104-18.097-13.17C383.5,3.492,344.841,14.349,339.19,16.096C316.542,7.125,292.509,1.735,267.913,0.3
	c-45.9-2.676-102.427,12.787-131.489,35.974c-46.345,36.978-54.367,70.606-55.023,87.359c-0.185,4.701-2.61,9.153-6.655,12.217
	c-31.288,23.687-47.991,47.052-49.647,69.446c-0.555,7.503,2.475,14.59,8.313,19.442c5.906,4.91,13.862,6.673,21.283,4.719
	c1.802-0.475,3.588-0.966,5.364-1.467c14.427,7.791,30.202,11.006,45.999,11.006c26.181,0,52.409-8.8,72.615-20.101
	c20.741-11.602,34.588-18.862,50.385-21.235c19.575,16.689,43.98,29.745,72.287,38.508c10.083,3.122,19.584,5.379,27.989,7.01
	c7.241,10.515,12.472,22.191,15.555,34.73c8.289,33.712,1.098,68.283-19.727,94.849c-20.81,26.545-52.063,41.769-85.748,41.769
	c-14.553,0-31.534-0.761-45.781-2.044l-77.637-42.834c-2.638-1.456-5.891-1.19-8.259,0.671c-2.369,1.863-3.392,4.962-2.6,7.869
	c0.439,1.609,11.076,39.696,39.05,62.558c0.181,0.148,0.226,0.319,0.231,0.437c0.008,0.164-0.056,0.228-0.097,0.269
	c-27.885,27.781-38.621,59.348-39.064,60.678c-0.977,2.931-0.057,6.16,2.317,8.137c1.378,1.146,3.083,1.735,4.8,1.735
	c1.24,0,2.487-0.308,3.622-0.934l85.518-47.183c19.465,1.264,41.671,2.014,52.448,2.014c32.872,0,64.653-6.711,94.46-19.945
	c28.79-12.783,54.332-30.989,75.914-54.113c21.543-23.083,37.912-49.758,48.654-79.286
	C484.169,281.821,488.678,249.456,486.391,216.357z M444.398,26.871c2.909,0.394,5.311,2.144,6.587,4.801
	c1.269,2.642,1.138,5.588-0.361,8.086l-22.942,38.235c-3.233-3.617-6.578-7.151-10.05-10.584
	c-16.649-16.461-35.454-30.176-55.725-40.855C378.975,23.936,407.208,21.838,444.398,26.871z M171.351,205.804
	c-24.65,13.787-59.046,23.561-89.109,15.068c48.87-17.59,85.566-43.492,104.608-58.827c1.927-1.552,4.421-2.219,6.84-1.827
	c2.315,0.373,4.279,1.646,5.531,3.586c4.875,7.552,10.466,14.673,16.715,21.341C202.115,188.96,189.037,195.911,171.351,205.804z
	 M458.893,307.426c-10.048,27.622-25.365,52.579-45.523,74.179c-20.198,21.643-44.097,38.68-71.035,50.64
	c-27.879,12.378-57.612,18.654-88.373,18.654c-10.937,0-33.99-0.795-53.639-2.125c-1.441-0.101-2.87,0.22-4.13,0.916l-67.359,37.163
	c5.702-10.219,14.214-22.958,26.076-34.775c3.068-3.058,4.705-7.298,4.491-11.633c-0.216-4.395-2.301-8.518-5.721-11.313
	c-12.7-10.378-21.428-24.89-26.87-36.386l60.949,33.627c0.802,0.443,1.678,0.724,2.583,0.851l-0.001,0.01
	c17.911,2.51,34.912,3.763,50.978,3.762c34.565-0.001,64.775-5.802,90.192-17.363c32.743-14.895,57.279-39.655,70.957-71.607
	c14.459-33.78,16.558-74.551,5.907-114.8c-10.246-38.72-31.748-73.298-58.994-94.867c-3.247-2.57-7.964-2.023-10.536,1.225
	c-2.571,3.247-2.022,7.965,1.225,10.535c24.759,19.602,44.369,51.292,53.804,86.945c9.799,37.028,7.954,74.34-5.196,105.059
	c-13.993,32.689-39.428,55.712-74.526,68.378c8.422-6.393,16.097-13.921,22.814-22.489c23.688-30.216,31.884-69.467,22.489-107.685
	c-2.429-9.879-6.027-19.29-10.746-28.125c8.979,1.052,14.556,1.195,15.061,1.206c3.667,0.066,6.812-2.467,7.521-6.039
	c6.928-34.94-13.629-53.516-33.509-71.478c-14.467-13.071-28.25-25.524-33.574-44.521c3.108,0.88,6.189,1.927,9.221,3.136
	c3.849,1.534,8.211-0.342,9.745-4.188c1.535-3.848-0.341-8.211-4.188-9.745c-7.486-2.985-15.237-5.121-23.039-6.348
	c-2.295-0.358-4.63,0.363-6.319,1.961c-1.688,1.598-2.541,3.888-2.308,6.2c3.121,30.944,22.93,48.843,40.407,64.636
	c17.458,15.774,31.556,28.512,29.762,50.968c-23.706-2.034-105.127-13.52-145.664-76.32c-3.536-5.478-9.275-9.217-15.747-10.261
	c-6.61-1.063-13.403,0.741-18.635,4.954c-21.54,17.346-66.624,48.801-126.568,64.59c-2.784,0.736-5.654,0.097-7.873-1.748
	c-2.063-1.714-3.135-4.193-2.942-6.802c0.91-12.312,9.238-32.471,43.742-58.593c7.64-5.785,12.229-14.383,12.589-23.588
	c0.557-14.193,7.713-42.969,49.391-76.224c26.065-20.797,79.322-35.166,121.26-32.724c52.445,3.06,102.181,25.362,140.047,62.8
	c37.871,37.443,60.721,86.92,64.341,139.315C473.569,248.384,469.351,278.677,458.893,307.426z"/>
<path d="M184.874,80.072c-12.978,0-23.536,10.559-23.536,23.536v8.018c0,12.978,10.558,23.536,23.536,23.536
	s23.536-10.559,23.536-23.536v-8.018C208.41,90.63,197.852,80.072,184.874,80.072z M193.41,111.625c0,4.707-3.829,8.536-8.536,8.536
	l0,0c-4.707,0-8.536-3.829-8.536-8.536v-8.018c0-4.707,3.829-8.536,8.536-8.536c4.707,0,8.536,3.829,8.536,8.536V111.625z"/>
<g>
</g>
<g>
</g>
<g>
</g>
<g>
</g>
<g>
</g>
<g>
</g>
<g>
</g>
<g>
</g>
<g>
</g>
<g>
</g>
<g>
</g>
<g>
</g>
<g>
</g>
<g>
</g>
<g>
</g>
</svg>
