<svg id="Capa_1" enable-background="new 0 0 512 512" height="512" viewBox="0 0 512 512" width="512" xmlns="http://www.w3.org/2000/svg"><g><path d="m4.382 303.411c-2.884-15.399-4.389-31.284-4.382-47.521.059-141.074 115.379-256.134 256.452-255.89 141.177.245 255.548 114.766 255.548 256 0 16.278-1.519 32.201-4.424 47.635-2.733 14.524-15.397 25.06-30.176 25.06h-442.315c-14.964 0-27.949-10.575-30.703-25.284z" fill="#ffc14f"/><path d="m45.287 327.522c-2.304-12.304-3.507-24.996-3.501-37.97.047-112.72 92.189-204.654 204.909-204.459 112.802.195 204.186 91.699 204.186 204.547 0 13.006-1.214 25.729-3.535 38.061-2.184 11.605-12.302 20.023-24.111 20.023h-353.416c-11.956 0-22.331-8.45-24.532-20.202z" fill="#ffcd71"/><path d="m401.641 279.179c0 61.205-49.616 110.821-110.821 110.821s-110.82-49.616-110.82-110.821 49.616-110.821 110.821-110.821 110.82 49.617 110.82 110.821z" fill="#ffe7c0"/><path d="m401.641 279.179c0 20.072-5.337 38.898-14.668 55.137-16.238 9.332-35.064 14.668-55.137 14.668-61.205 0-110.821-49.616-110.821-110.821 0-20.072 5.337-38.898 14.668-55.137 16.238-9.332 35.064-14.668 55.137-14.668 61.205.001 110.821 49.617 110.821 110.821z" fill="#fff5f5"/><path d="m507.986 301.399c-11.073 61.87-44.385 116.022-91.356 153.923-13.331-.871-26.863 2.115-38.81 8.959-12.896 7.388-27.837 11.611-43.764 11.611s-30.868-4.223-43.764-11.611c-21.197-12.144-47.386-12.144-68.584 0-12.896 7.388-27.837 11.611-43.764 11.611s-30.868-4.223-43.764-11.611c-11.947-6.844-25.479-9.83-38.81-8.959-46.971-37.902-80.283-92.053-91.356-153.923 6.3-1.311 12.832-1.954 19.52-1.827 15.35.291 29.741 4.504 42.21 11.681 21.136 12.163 47.326 11.986 68.495-.12 12.882-7.367 27.802-11.577 43.704-11.577 15.927 0 30.869 4.223 43.764 11.611 21.197 12.144 47.386 12.144 68.584 0 12.896-7.388 27.837-11.611 43.764-11.611 15.903 0 30.822 4.21 43.705 11.577 21.169 12.106 47.358 12.283 68.495.12 12.469-7.176 26.86-11.39 42.21-11.681 6.689-.127 13.221.516 19.521 1.827z" fill="#24d3b5"/><path d="m65.745 378.252c21.136 12.163 47.326 11.986 68.495-.12 12.882-7.367 27.802-11.577 43.704-11.577 15.927 0 30.868 4.223 43.764 11.611 21.197 12.144 47.386 12.144 68.584 0 12.896-7.388 27.837-11.611 43.764-11.611 15.903 0 30.822 4.21 43.705 11.577 21.169 12.106 47.359 12.283 68.495.12 12.054-6.937 25.903-11.105 40.679-11.638-41.27 86.004-129.168 145.386-230.935 145.386s-189.665-59.382-230.934-145.386c14.776.533 28.625 4.701 40.679 11.638z" fill="#93e2c6"/><path d="m509.983 121.725c-.38 8.068-7.33 14.275-15.407 14.275h-62.565c-.69.008-1.38.018-2.072.031-136.983 2.626-247.297 115.215-247.271 252.224.003 17.291 1.746 34.175 5.064 50.487 1.46 7.181-7.053 12.037-12.517 7.155-46.071-41.161-75.073-101.029-75.073-167.67 0-46.438 14.077-97.062 38.196-142.243-17.735-8.092-34.582-14.269-53.586-19.616-3.689-1.038-4.887-5.697-2.149-8.378 28.387-27.795 61.645-39.235 102.001-37.884 38.451-41.945 87.229-70.106 140.308-70.106 13.771 0 28.563 3.612 43.112 10h21.735c37.369 0 67.922 29.182 70.114 66h34.703c8.077 0 15.027 6.207 15.407 14.275.406 8.614-6.458 15.725-14.983 15.725 8.525 0 15.389 7.111 14.983 15.725z" fill="#0956c6"/><path d="m495 106c8.524 0 15.388 7.111 14.983 15.724-.379 8.068-7.329 14.276-15.407 14.276h-62.565c-.69.008-1.38.018-2.072.031-121.814 2.336-222.537 91.628-243.334 207.721-.046.258-.092.527-.137.806-3.175 19.592-30.392 22.237-36.906 3.488-9.146-26.326-14.116-54.606-14.116-84.046 0-132.875 101.234-242.106 230.781-254.773.599.253 1.198.511 1.796.773h21.735c37.369 0 67.922 29.182 70.114 66h34.703c8.077 0 15.027 6.207 15.407 14.276.406 8.613-6.458 15.724-14.982 15.724zm-304.579 344.567c.126-.154.276-.294.439-.408 14.165-9.916 28.576-12.063 40.849-8.999 1.551.387 2.875-1.152 2.327-2.655-9.108-25.009-40.669-39.508-71.076-18.181-.164.115-.315.256-.441.411-23.394 28.847-11.13 61.342 13.184 72.171 1.46.65 3.089-.562 2.811-2.136-2.206-12.487.959-26.753 11.907-40.203z" fill="#2476ed"/><path d="m171.372 271.859c-4.892.337-8.567-3.339-8.231-8.231 2.665-38.729 20.142-78.534 51.793-110.185 1.214-1.214 2.44-2.407 3.678-3.58 50.513-47.85 114.375 16.012 66.524 66.524-1.172 1.238-2.366 2.464-3.58 3.678-31.65 31.652-71.455 49.128-110.184 51.794zm325.587-165.777h-39.418c-8.307 0-15.041-6.734-15.041-15.041 0-8.307 6.734-15.041 15.041-15.041h39.418c8.307 0 15.041 6.734 15.041 15.041 0 8.307-6.734 15.041-15.041 15.041z" fill="#07a9f0"/><path d="m299.833 164.249c5.054 15.51 1.892 34.627-14.697 52.139-1.172 1.238-2.366 2.463-3.58 3.678-24.994 24.994-55.073 41.149-85.692 48.151 7.002-30.619 23.157-60.698 48.152-85.692 1.214-1.214 2.44-2.407 3.678-3.579 17.512-16.59 36.629-19.751 52.139-14.697z" fill="#40c1fa"/><path d="m403.812 71.031c0 14.86-12.046 26.906-26.906 26.906s-26.906-12.046-26.906-26.906 12.046-26.906 26.906-26.906 26.906 12.047 26.906 26.906z" fill="#40c1fa"/><path d="m385.874 71.031c0 4.953-4.015 8.969-8.969 8.969s-8.969-4.015-8.969-8.969c0-4.953 4.015-8.969 8.969-8.969s8.969 4.016 8.969 8.969z" fill="#1c314e"/><path d="m92.537 453.015c13.866 1.212 28.042-1.766 40.485-8.882 12.882-7.367 27.802-11.577 43.704-11.577 15.927 0 30.869 4.223 43.764 11.611 21.197 12.144 47.386 12.144 68.584 0 12.896-7.388 27.837-11.611 43.764-11.611 15.903 0 30.822 4.21 43.705 11.577 13.276 7.592 28.525 10.486 43.264 8.592-44.392 37.004-101.496 59.275-163.807 59.275-62.149 0-119.121-22.153-163.463-58.985z" fill="#24d3b5"/></g></svg>