<?xml version="1.0" encoding="iso-8859-1"?>
<!-- Generator: Adobe Illustrator 19.0.0, SVG Export Plug-In . SVG Version: 6.00 Build 0)  -->
<svg version="1.1" id="Layer_1" xmlns="http://www.w3.org/2000/svg" xmlns:xlink="http://www.w3.org/1999/xlink" x="0px" y="0px"
	 viewBox="0 0 512 512" style="enable-background:new 0 0 512 512;" xml:space="preserve">
<path style="fill:#2D4452;" d="M512,256c0,61.856-21.936,118.584-58.452,162.84c-17.884,21.664-73.876,68.008-133.328,75.844
	c-96.688,12.752-209.908-24.672-238.184-50.876C31.58,397.056,0,330.212,0,256C0,114.62,114.616,0,256,0S512,114.62,512,256z"/>
<path style="fill:#2179A6;" d="M490.256,82.476c0-28.992,0-50.748-43.484-72.484C403.28-11.756,251.084,2.74,185.856,46.232
	c-43.484-7.252-57.984,0-72.48,21.752c21.744,0,21.744,14.496,7.248,36.24c-12.312,18.46-82.104,84.044-102.86,245.464
	c9.088,23.092,21.432,44.548,36.48,63.796c11.812-35.752,39.088-80.828,66.384-113.584c30.816-27.288,129.112-99.44,217.104-144.752
	c74.916-38.584,159.72-48.288,170.068-56.204C504.228,92.872,498.384,86.532,490.256,82.476z"/>
<g>
	<path style="fill:#1E7099;" d="M130.156,50.324c19.892-1.808,36.436,0.752,44.32,5.544c2.948-2.876,10.14-8.868,11.384-9.636
		C157.824,41.556,141.86,42.94,130.156,50.324z"/>
	<path style="fill:#1E7099;" d="M512,111.464c0-7.252-7.252-21.744-21.744-28.988c0-28.992,0-50.748-43.484-72.484
		c-15.252-7.616-43.86-10.768-77.384-9.8c23.704,0.736,43.368,3.936,55.088,9.8C467.96,31.74,467.96,53.484,467.96,82.476
		c14.496,7.248,21.744,21.748,21.744,28.988H512z"/>
</g>
<path style="fill:#E6E6E6;" d="M507.688,98.876c-42.028,16.516-83.38-30.9-104.408-30.9c-21.752,0-50.736,50.732-79.72,57.976
	c-21.752,28.992-115.972,101.468-152.208,108.716c0-14.496,28.992-28.988,50.732-72.476
	c-28.992,14.496-86.976,50.74-115.964,115.964c-5.556,22.244,3.94,27.1,14.496,21.744
	c86.972-43.488,202.944-108.712,224.676-123.208c21.744,28.992,28.984,50.74,21.744,86.968
	c65.236-21.744,57.98-94.212,36.244-115.956c28.992-14.496,79.728-21.748,86.976-21.748c7.248,0,21.744-7.252,21.744-14.492
	C512,108.26,510.504,103.648,507.688,98.876z"/>
<circle style="fill:#242424;" cx="415.44" cy="46.492" r="7.248"/>
<path style="fill:#2995CC;" d="M378.6,456.712c-1.564,8.804-2.524,17.352-3.048,25.632c25.5-13.5,48.472-31.108,67.948-52.056
	c1.924,0.148,5.732,0.764,9.18,2.992c2.188-3.328,4.424-6.008,6.504-7.86C440.196,409.244,407.992,403.608,378.6,456.712z"/>
<path style="fill:#F5F5F5;" d="M405.516,463.796l-10.796-26.992l-57.812,62.108C361.676,490.672,384.764,478.756,405.516,463.796z"
	/>
<path style="fill:#91D2F2;" d="M405.856,392.704c-30.048,9.28-60.556,64.352-92.76,112.844c24.476-5.58,47.616-14.624,68.872-26.664
	c23.216-28.172,43.192-50.5,61.536-48.58c0.004,0,0.008-0.008,0.008-0.008c2.312,0.172,7.316,0.984,11.192,4.5
	c5.896,4.236,11.636,11.524,17.296,22.616C499.016,404.08,454.212,377.764,405.856,392.704z"/>
<path style="fill:#F5F5F5;" d="M87.472,434.384l-7.328,7.564c26.28,24.872,57.808,44.208,92.772,56.2h49.196L163.8,352.376
	L87.472,434.384z"/>
<path style="fill:#2995CC;" d="M274.264,485.584c-92.92-56.416-63.528-128.944-46-144.592
	c-18.996-16.18-51.204-21.812-80.592,31.288c-10.9,61.632,4.26,112.36,36.028,125.86c3.32,1.416,5.468,0.352,8.54,2.608
	c9.212,2.344,17.172,3.992,26.752,5.304C230.824,503.632,249.544,500.288,274.264,485.584z"/>
<path style="fill:#91D2F2;" d="M174.936,308.264c-32.924,10.172-66.404,75.32-102.064,126.548
	c7.432,7.608,15.34,14.752,23.668,21.392c64.144-60.992,106.252-158.288,144.532-83.22
	C268.092,319.648,223.296,293.328,174.936,308.264z"/>
<path style="fill:#2995CC;" d="M329.192,394.42c-18.996-16.18-51.204-21.812-80.592,31.284c-4.772,26.984-4.512,51.836-0.076,72.416
	c1.044,4.844,37.164,10.892,52.728,7.92c0.712-0.132,4.216,1.152,4.916,1.016c8.336-1.664,16.528-3.732,24.56-6.172
	C294.436,453.892,315.444,406.688,329.192,394.42z"/>
<path style="fill:#F5F5F5;" d="M264.72,405.804l-76.332,82.008l-11.348,11.72C201.916,507.6,228.44,512,256,512
	c16.864,0,33.332-1.672,49.28-4.788L264.72,405.804z"/>
<path style="fill:#91D2F2;" d="M275.856,361.704c-34.716,10.728-70.04,82.564-107.892,134.756
	c10.744,3.928,21.844,7.108,33.204,9.584c62.076-61.104,103.284-153.252,140.828-79.628
	C369.016,373.08,324.212,346.764,275.856,361.704z"/>
<path style="fill:#1E7099;" d="M54.244,413.476c11.812-35.752,39.088-80.828,66.384-113.584c-6.576,3.344-12.724,2.704-15.096-3.608
	c-2.412,1.224-4.816,2.42-7.188,3.608c-24.536,29.444-44.452,63.976-54.78,98.984C46.932,403.892,50.532,408.728,54.244,413.476z"/>
<g>
</g>
<g>
</g>
<g>
</g>
<g>
</g>
<g>
</g>
<g>
</g>
<g>
</g>
<g>
</g>
<g>
</g>
<g>
</g>
<g>
</g>
<g>
</g>
<g>
</g>
<g>
</g>
<g>
</g>
</svg>
