<?xml version="1.0" encoding="iso-8859-1"?>
<!-- Generator: Adobe Illustrator 19.0.0, SVG Export Plug-In . SVG Version: 6.00 Build 0)  -->
<svg version="1.1" id="Capa_1" xmlns="http://www.w3.org/2000/svg" xmlns:xlink="http://www.w3.org/1999/xlink" x="0px" y="0px"
	 viewBox="0 0 480.781 480.781" style="enable-background:new 0 0 480.781 480.781;" xml:space="preserve">
<path style="fill:#168DE2;" d="M179.115,121.579c80.896-55.898,209.89-28.988,209.89-28.988
	c52.254,6.355,78.818,12.951,90.835,16.715c-5.587-10.255-34.665-19.652-34.665-19.652C390.224-47.396,189.58,17.492,189.58,17.492
	C85.148-7.792,83.506,18.727,83.506,18.727c37.361,26.639,26.368,48.444,26.368,48.444
	c-131.132,159.488-64.12,303.586-64.12,303.586C-14.602,465.326,2.128,478.638,2.128,478.638
	c13.734-31.247,40.056-34.801,55.115-45.417c14.366-10.135,18.206-18.658,19.064-23.703
	C-10.551,235.062,179.115,121.579,179.115,121.579z"/>
<path style="fill:#E5E5E5;" d="M479.854,109.321c-12.032-3.75-38.596-10.36-90.835-16.715c0,0-128.994-26.925-209.89,28.988
	c0,0-189.666,113.483-102.822,287.94c0.527-3.087-0.075-4.864-0.075-4.864c9.261,5.195,20.781,4.126,28.943-2.665
	c28.627-23.793,60.25-16.836,60.25-16.836c-17.453-31.247-89.239-22.513-89.239-22.513c-34.364-108.137,92.958-168.96,92.958-168.96
	c18.372-17.288,137.683-48.053,179.095-58.338c7.484-1.867,14.667-4.683,21.745-7.77c24.922-10.872,70.837-6.611,88.139-4.488
	c6.024,0.738,12.213-0.286,17.393-3.448C480.969,116.338,481.737,112.769,479.854,109.321z"/>
<path style="fill:#3AA2EB;" d="M234.079,128.777c0,0,2.982,42.511-40.026,79.435c0,0,67.027,14.291,95.834-95.247L234.079,128.777z"
	/>
<circle style="fill:#FFFFFF;" cx="389.2" cy="72.532" r="14.456"/>
<circle style="fill:#6F6F6F;" cx="389.2" cy="72.532" r="8.975"/>
<circle style="fill:#FFFFFF;" cx="395.194" cy="70.544" r="4.488"/>
<g>
	<path style="fill:#1C99E5;" d="M64.954,172.703c9.954-4.322,14.11-15.767,9.502-25.329l-8.267-14.848
		c-6.972,13.131-12.68,25.961-17.438,38.52C53.629,173.908,59.457,174.932,64.954,172.703z"/>
	<path style="fill:#1C99E5;" d="M332.263,23.817l-9.909-19.938C255.659-3.816,189.58,17.507,189.58,17.507
		C85.148-7.792,83.506,18.727,83.506,18.727c37.361,26.639,26.368,48.444,26.368,48.444c-9.276,11.279-17.318,22.438-24.696,33.506
		c4.789,1.747,8.99,5.225,11.354,10.135l13.553,24.35c4.518,8.915,15.496,12.589,24.501,8.252
		c9.382-4.518,13.161-15.782,8.734-24.968l-17.242-32.045c-3.689-7.65-0.422-17.016,7.439-20.796
		c10.406-5.015,18.281-1.22,21.685,5.843l16.76,30.991c3.87,8.056,12.454,12.363,20.766,10.888c2.997-1.656,6.084-3.117,9.171-4.593
		c5.677-5.496,7.635-14.02,4.051-21.474l-11.038-19.095c-3.689-7.665-0.407-17.016,7.243-20.706
		c10.27-4.939,19.486-0.678,23.191,7.002l7.153,11.038c4.337,9.005,15.194,13.914,24.38,9.969
		c9.848-4.036,14.396-15.661,9.788-25.239l-9.096-15.059c-3.87-8.041-0.12-17.393,8.011-21.082c0.196-0.09,0.196-0.09,0.196-0.09
		c0.196-0.09,0.196-0.09,0.376-0.181c7.951-4.066,17.604-1.16,21.474,6.882l10.662,18.327c4.427,9.186,15.194,13.914,24.471,10.15
		C332.715,44.839,336.886,33.394,332.263,23.817z"/>
</g>
<g>
</g>
<g>
</g>
<g>
</g>
<g>
</g>
<g>
</g>
<g>
</g>
<g>
</g>
<g>
</g>
<g>
</g>
<g>
</g>
<g>
</g>
<g>
</g>
<g>
</g>
<g>
</g>
<g>
</g>
</svg>
