<svg id="Capa_1" enable-background="new 0 0 512 512" height="512" viewBox="0 0 512 512" width="512" xmlns="http://www.w3.org/2000/svg"><g><g><g><g><g><g><g><g><g><circle cx="256" cy="256" fill="#c38778" r="256"/></g></g></g></g></g></g></g></g><path d="m313.945 68.426-244.148 198.762 239.299 239.299c112.666-23.764 198.019-121.62 202.701-240.209z" fill="#a65d4e"/><g><path d="m184.059 204.571s14.084 61.031 43.817 62.596 3.13-86.069 3.13-86.069z" fill="#cdd2e1"/></g><g><path d="m232.571 102.853s39.122-45.382 81.375-34.428c0 0-21.909 31.298-18.779 50.077s-62.596-15.649-62.596-15.649z" fill="#dce1eb"/></g><g><path d="m313.945 68.426c-21.737-5.636-42.645 3.64-57.825 13.975v31.636c18.514 8.016 40.903 15.609 39.046 4.465-3.129-18.778 18.779-50.076 18.779-50.076z" fill="#bec3d2"/></g><g><path d="m401.579 348.542s46.143-145.159-59.466-219.085c-93.893-65.726-214.39-31.298-256.642 31.297-13.217 19.581-8.145 40.879-2.441 54.156 3.671 8.545 2.189 18.421-3.641 25.667-4.906 6.097-9.896 13-11.132 17.2-2.122 7.209 1.565 17.214 23.473 10.954s37.557-15.649 37.557-15.649 98.588-61.031 164.314-31.298c60.171 27.22 76.68 65.726 81.375 126.756h26.603z" fill="#f2f6fc"/></g><g><path d="m342.114 129.457c-27.276-19.093-56.797-29.721-85.993-33.675v117.908c13.04.397 25.782 2.803 37.481 8.095 60.171 27.22 76.68 65.726 81.375 126.756h26.603c-.001.001 46.142-145.159-59.466-219.084z" fill="#dce1eb"/></g><g><circle cx="108.944" cy="193.617" fill="#636978" r="9.389"/></g><g><path d="m222.259 195.444s14.084 61.031 43.817 62.596 3.13-86.069 3.13-86.069z" fill="#dce1eb"/></g><g><path d="m269.205 171.97-13.078 6.539v76.641c3.097 1.667 6.411 2.703 9.948 2.889 29.734 1.565 3.13-86.069 3.13-86.069z" fill="#bec3d2"/></g><g><path d="m388.278 373.58c18.825 0 35.26 8.812 44.054 21.909 4.327-6.445 6.805-13.928 6.805-21.909 0-24.199-22.77-43.817-50.859-43.817s-50.859 19.617-50.859 43.817c0 7.981 2.477 15.464 6.805 21.909 8.793-13.097 25.229-21.909 44.054-21.909z" fill="#bec3d2"/></g></g></svg>