<?xml version="1.0" encoding="iso-8859-1"?>
<!-- Generator: Adobe Illustrator 19.0.0, SVG Export Plug-In . SVG Version: 6.00 Build 0)  -->
<svg version="1.1" id="Capa_1" xmlns="http://www.w3.org/2000/svg" xmlns:xlink="http://www.w3.org/1999/xlink" x="0px" y="0px"
	 viewBox="0 0 512.003 512.003" style="enable-background:new 0 0 512.003 512.003;" xml:space="preserve">
<path style="fill:#B0DBFF;" d="M467.269,100.396c-11.15,4.25-23.793,10.469-26.692,28.336
	c-6.705,41.206-90.371-87.235-58.813-102.506c0,0,18.072,2.542,39.41,9.863c20.43,6.987,43.845,18.364,57.234,36.047
	C493.929,92.62,481.859,94.826,467.269,100.396z"/>
<g>
	<path style="fill:#55B7F9;" d="M467.269,100.396c-11.15,4.25-23.793,10.469-26.692,28.336
		c-6.705,41.206-90.371-87.235-58.813-102.506c0,0,18.072,2.542,39.41,9.863c15.704,14.784,29.255,32.51,40.297,52.886
		C463.495,92.695,465.42,96.502,467.269,100.396z"/>
	<path style="fill:#55B7F9;" d="M351.634,152.817l-27.957,26.703l-10.404,9.939c-10.804,10.318-28.779,2.542-28.531-12.394
		c0.184-10.783,1.298-21.014,2.585-29.428c1.936-12.729,4.25-21.295,4.25-21.295L351.634,152.817z"/>
</g>
<path style="fill:#0087FF;" d="M351.634,152.817l-27.957,26.703c-9.431-10.761-21.555-21.403-36.35-31.883
	c1.936-12.729,4.25-21.295,4.25-21.295L351.634,152.817z"/>
<path style="fill:#B0DBFF;" d="M478.409,227.463c0,70.364-64.058,147.465-144.848,174.849c-19.554,6.63-40.103,10.35-60.954,10.35
	v-46.538c0,0,29.331-3.72,54.866-28.141c19.694-18.829,37.139-49.966,37.139-101.198c0-96.471-152.018-151.402-211.394-169.842
	c-11.345-3.526-17.391-15.855-13.249-26.995c3.093-8.328,10.988-13.508,19.413-13.508c2.26,0,4.564,0.368,6.814,1.157l26.216,8.598
	c0,0,53.276-57.688,150.612-27.406S478.409,140.066,478.409,227.463z"/>
<g>
	<path style="fill:#55B7F9;" d="M334.049,165.202c-47.532-52.869-138.137-85-180.828-98.259
		c-11.353-3.523-17.389-15.855-13.248-26.991c0.834-2.235,2.009-4.255,3.451-5.996c0.68,8.138,6.16,15.484,14.495,18.08
		C205.225,66.727,298.209,102.484,334.049,165.202z"/>
	<path style="fill:#55B7F9;" d="M333.561,402.312c-19.554,6.63-40.103,10.35-60.954,10.35v-46.538c0,0,29.331-3.72,54.866-28.141
		c0.432,0.497,0.843,1.027,1.254,1.557C340.04,354.434,338.688,375.794,333.561,402.312z"/>
	<path style="fill:#55B7F9;" d="M478.409,227.463c0,87.398-98.84,185.199-205.802,185.199v-11.691
		c102.495-6.543,194.468-100.527,194.468-184.832c0-43.931-4.769-80.368-15.249-110.455
		C470.244,143.613,478.409,186.993,478.409,227.463z"/>
</g>
<path style="fill:#B0DBFF;" d="M278.48,323.351v74.408H255.4c-5.364,0-10.502-0.941-15.271-2.671
	c-17.229-6.24-29.536-22.766-29.536-42.147v-70.288c0-3.753,1.525-7.149,3.98-9.615c2.466-2.455,5.862-3.98,9.615-3.98
	C254.167,269.059,278.48,293.36,278.48,323.351z"/>
<path style="fill:#55B7F9;" d="M278.48,325.817v71.943H255.4c-5.364,0-10.502-0.941-15.271-2.671
	c0.422-13.454,1.503-27.719,6.154-39.897C252.307,339.444,263.306,329.472,278.48,325.817z"/>
<path style="fill:#B0DBFF;" d="M278.48,375.188v74.408c0,29.98-24.313,54.281-54.292,54.281c-3.753,0-7.149-1.525-9.615-3.98
	c-2.455-2.466-3.98-5.862-3.98-9.615v-70.288c0-7.603,1.893-14.763,5.235-21.035c5.364-10.069,14.46-17.856,25.448-21.501
	c4.445-1.471,9.193-2.271,14.125-2.271h23.079V375.188z"/>
<path style="fill:#55B7F9;" d="M278.48,375.188v74.408c0,29.98-24.313,54.281-54.292,54.281c-3.753,0-7.149-1.525-9.615-3.98
	c-2.455-2.466-3.98-5.862-3.98-9.615v-70.288c0-7.603,1.893-14.763,5.235-21.035c5.916,16.861,13.065,32.813,20.538,33.711
	c0.249,0.032,0.476,0.054,0.681,0.065c2.347-4.834,2.671-19.943,2.866-29.201c0.184-8.36,0.379-17.304,1.363-26.075
	c4.445-1.471,9.193-2.271,14.125-2.271H278.48z"/>
<g>
	<path style="fill:#2CD7FF;" d="M101.574,318.477c-4.268,0-7.726-3.459-7.726-7.726v-0.907c0-4.267,3.459-7.726,7.726-7.726
		c4.268,0,7.726,3.459,7.726,7.726v0.907C109.301,315.018,105.842,318.477,101.574,318.477z"/>
	<path style="fill:#2CD7FF;" d="M38.922,458.673c-4.268,0-7.726-3.459-7.726-7.726v-0.907c0-4.267,3.459-7.726,7.726-7.726
		s7.726,3.459,7.726,7.726v0.907C46.649,455.214,43.19,458.673,38.922,458.673z"/>
	<path style="fill:#2CD7FF;" d="M421.579,440.647c-4.268,0-7.726-3.459-7.726-7.726v-0.907c0-4.267,3.459-7.726,7.726-7.726
		c4.268,0,7.726,3.459,7.726,7.726v0.907C429.306,437.188,425.847,440.647,421.579,440.647z"/>
	<path style="fill:#2CD7FF;" d="M101.574,278.205c-4.268,0-7.726-3.459-7.726-7.726v-0.907c0-4.267,3.459-7.726,7.726-7.726
		c4.268,0,7.726,3.459,7.726,7.726v0.907C109.301,274.745,105.842,278.205,101.574,278.205z"/>
</g>
<path style="fill:#0087FF;" d="M259.673,45.612c-4.268,0-7.726-3.459-7.726-7.726v-0.907c0-4.267,3.459-7.726,7.726-7.726
	c4.268,0,7.726,3.459,7.726,7.726v0.907C267.399,42.153,263.941,45.612,259.673,45.612z"/>
<path style="fill:#55B7F9;" d="M400.172,148.729c-0.318,0.001-0.636-0.006-0.956-0.017l-53.012-1.931
	c-4.264-0.155-7.595-3.738-7.44-8.003s3.716-7.592,8.003-7.44l53.012,1.931c5.634,0.207,8.058-4.035,8.66-5.34
	c0.595-1.288,2.24-5.81-1.532-9.918c-17.406-18.956-37.139-32.035-37.336-32.164c-3.563-2.346-4.552-7.136-2.208-10.7
	c2.343-3.563,7.13-4.558,10.696-2.213c0.868,0.57,21.478,14.204,40.23,34.625c6.801,7.406,8.403,17.692,4.182,26.843
	C418.365,143.306,409.878,148.729,400.172,148.729z"/>
<path style="fill:#7DF6FF;" d="M276.742,512.002c12.147,0,22.36-9.172,23.595-21.256c7.972-77.999,45.231-147.592-4.733-150.211
	c-69.136-3.624-15.147,113.786-61.178,108.246c-46.032-5.541-39.029-150.198-93.782-130.864s38.645,134.717,19.338,154.024
	s-52.549-62.322-86.432-42.855c-24.211,13.911,1.495,52.849,18.144,73.947c4.484,5.682,11.343,8.97,18.581,8.97L276.742,512.002
	L276.742,512.002z"/>
<g>
	<path style="fill:#2CD7FF;" d="M300.337,490.748C299.104,502.829,288.884,512,276.738,512h-17.521
		c12.145,0,22.355-9.171,23.588-21.252c7.646-74.7,42.147-141.701,1.146-149.52c3.428-0.671,7.3-0.919,11.648-0.692
		C345.566,343.153,308.308,412.749,300.337,490.748z"/>
	<path style="fill:#2CD7FF;" d="M227.984,446.968c-2.834,1.687-6.457,2.379-11.086,1.817
		c-40.254-4.856-39.951-116.112-75.869-130.994C192.672,300.196,189.027,429.383,227.984,446.968z"/>
	<path style="fill:#2CD7FF;" d="M143.366,470.848c-0.27,0.389-0.573,0.757-0.908,1.092c-15.477,15.477-39.919-33.927-66.459-44.083
		C100.689,417.129,124.861,457.589,143.366,470.848z"/>
	<path style="fill:#2CD7FF;" d="M101.574,404.014c-1.999,0-3.997-0.771-5.51-2.31l0,0c-0.309-0.314-31.327-31.569-64.391-42.366
		c-4.056-1.324-6.271-5.687-4.947-9.743s5.683-6.271,9.743-4.946c36.699,11.983,69.249,44.832,70.617,46.225
		c2.99,3.044,2.947,7.936-0.098,10.926C105.484,403.277,103.529,404.014,101.574,404.014z"/>
	<path style="fill:#2CD7FF;" d="M339.737,487.303c-0.774,0-1.56-0.117-2.337-0.364c-4.061-1.29-6.314-5.62-5.031-9.684
		c0.876-2.775,22.227-68.17,89.358-86.799c4.117-1.14,8.37,1.268,9.511,5.379c1.142,4.112-1.267,8.37-5.378,9.511
		c-58.898,16.344-78.567,75.973-78.759,76.574C346.052,485.204,343.011,487.303,339.737,487.303z"/>
</g>
<g>
</g>
<g>
</g>
<g>
</g>
<g>
</g>
<g>
</g>
<g>
</g>
<g>
</g>
<g>
</g>
<g>
</g>
<g>
</g>
<g>
</g>
<g>
</g>
<g>
</g>
<g>
</g>
<g>
</g>
</svg>
