<svg height="512pt" viewBox="0 0 512 512" width="512pt" xmlns="http://www.w3.org/2000/svg"><path d="m187.480469 154.808594c-7.234375-39.742188-45.316407-66.09375-85.058594-58.859375s-66.09375 45.316406-58.855469 85.058593c7.234375 39.742188 45.316406 66.09375 85.054688 58.859376 39.742187-7.238282 66.09375-45.320313 58.859375-85.058594zm0 0" fill="#ffe469"/><g fill="#89c8fd"><path d="m475.257812 257.109375c5.160157 7.960937 3.148438 18.433594-4.496093 23.390625-7.648438 4.957031-18.03125 2.523438-23.191407-5.433594-10.707031-16.511718-3.234374-35.316406-3.234374-35.316406s20.046874.589844 30.921874 17.359375zm0 0"/><path d="m462.570312 160.171875c9.488282-.011719 17.1875 7.367187 17.199219 16.480469.011719 9.113281-7.667969 16.507812-17.15625 16.519531-19.679687.023437-31.410156-16.460937-31.410156-16.460937s11.378906-16.511719 31.367187-16.539063zm0 0"/><path d="m511.109375 309.8125c-31.875 0-31.875 36.742188-63.746094 36.742188-31.871093 0-31.871093-36.742188-63.746093-36.742188-31.867188 0-31.867188 36.742188-63.742188 36.742188-31.867188 0-31.867188-36.742188-63.738281-36.742188-31.871094 0-31.871094 36.742188-63.738281 36.742188-31.871094 0-31.871094-36.742188-63.738282-36.742188-31.871094 0-31.871094 36.742188-63.742187 36.742188-31.867188 0-31.867188-36.742188-63.738281-36.742188h-1.179688c30.304688 116.445312 133.5 202.1875 256.144531 202.1875 122.257813 0 225.1875-85.199219 255.855469-201.082031zm0 0"/></g><path d="m511.109375 309.8125c-31.875 0-31.875 36.742188-63.746094 36.742188-1.40625 0-2.730469-.09375-4.015625-.234376-36.960937 88.902344-118.414062 153.515626-215.535156 164.140626 9.308594 1.015624 18.761719 1.539062 28.332031 1.539062 122.257813 0 225.1875-85.199219 255.855469-201.082031zm0 0" fill="#60b6ff"/><path d="m376.628906 185.433594s-20.21875-124.527344-121.664062-136.191406l-.925782-49.242188c-26.621093 16.132812-36.25 36.554688-39.148437 46.359375-103.015625 19.570313-95.804687 91.683594-95.804687 91.683594l-10.375 13.339843c-6.265626 8.054688-4.976563 19.640626 2.914062 26.117188 7.667969 6.300781 18.941406 5.601562 25.695312-1.667969 16.113282-17.355469 49.988282-45 102.296876-45 76.230468 0 114.347656 64.902344 114.347656 64.902344s-16.480469 28.84375 3.09375 47.386719l18.542968-28.84375 36.054688 8.242187s-2.0625-31.9375-35.027344-37.085937zm0 0" fill="#cbe6f7"/><path d="m158.746094 121.5625c9.945312 0 9.960937-15.453125 0-15.453125-9.941406 0-9.960938 15.453125 0 15.453125zm0 0" fill="#97c9e8"/><path d="m428 446.546875c-1.167969-1.289063-2.308594-2.609375-3.453125-3.925781-8.128906-9.371094-18.246094-21.035156-37.707031-21.035156-19.460938 0-29.578125 11.664062-37.707032 21.035156-7.613281 8.777344-13.625 15.707031-26.035156 15.707031-4.269531 0-7.726562 3.460937-7.726562 7.726563 0 4.265624 3.457031 7.726562 7.726562 7.726562 19.460938 0 29.578125-11.664062 37.707032-21.035156 7.613281-8.777344 13.628906-15.707032 26.035156-15.707032 12.410156 0 18.421875 6.933594 26.035156 15.707032 1.117188 1.289062 2.238281 2.574218 3.390625 3.851562 4.0625-3.171875 8.03125-6.464844 11.90625-9.867187zm0 0" fill="#0181fb"/><path d="m103.65625 405.359375c7.613281-8.777344 13.625-15.707031 26.035156-15.707031 12.40625 0 18.417969 6.929687 26.03125 15.707031 8.128906 9.371094 18.246094 21.035156 37.707032 21.035156 4.269531 0 7.726562-3.460937 7.726562-7.726562 0-4.269531-3.457031-7.726563-7.726562-7.726563-12.40625 0-18.417969-6.933594-26.03125-15.710937-8.128907-9.371094-18.246094-21.03125-37.707032-21.03125-19.464844 0-29.578125 11.664062-37.707031 21.03125-7.613281 8.777343-13.625 15.710937-26.035156 15.710937-2.742188 0-5.203125-.328125-7.519531-.996094-.402344-.117187-.753907-.191406-1.167969-.242187-.058594-.007813-4.199219-.605469-10.613281-3.371094 5.234374 6.933594 10.78125 13.601563 16.625 19.976563.882812.050781 1.773437.085937 2.675781.085937 19.460937 0 29.578125-11.664062 37.707031-21.035156zm0 0" fill="#0181fb"/></svg>