<?xml version="1.0" encoding="iso-8859-1"?>
<!-- Generator: Adobe Illustrator 18.0.0, SVG Export Plug-In . SVG Version: 6.00 Build 0)  -->
<!DOCTYPE svg PUBLIC "-//W3C//DTD SVG 1.1//EN" "http://www.w3.org/Graphics/SVG/1.1/DTD/svg11.dtd">
<svg version="1.1" id="Capa_1" xmlns="http://www.w3.org/2000/svg" xmlns:xlink="http://www.w3.org/1999/xlink" x="0px" y="0px"
	 viewBox="0 0 469.608 469.608" style="enable-background:new 0 0 469.608 469.608;" xml:space="preserve">
<g>
	<path d="M469.319,393.442c-6.666-23.331-32.769-68.993-37.333-76.886c-1.341-6.537-7.994-35.272-27.521-70.626
		c-19.823-35.888-57.234-85.49-123.144-119.301c-7.696-20.583,3.65-30.175,18.127-39.652c3.123-2.045,5.591-3.66,7.428-5.497
		c1.97-1.97,2.686-4.871,1.857-7.531c-0.827-2.661-3.063-4.643-5.803-5.148c-36.537-6.732-63.44,3.299-79.568,12.899
		c-12.168,7.243-20.183,15.305-24.095,19.763c-24.559-2.471-48.747-0.317-71.928,6.564c-52.111,15.468-81.911,48.536-92.304,62.036
		c-9.396,12.205-14.68,26.871-15.279,42.41l-0.007,0.179c-0.222,6.346-2.134,12.43-5.529,17.594
		c-20.086,30.542-15.226,46.029-7.611,53.644c14.286,14.285,35.165-0.543,51.941-12.459c8.523-6.053,17.337-12.312,22.859-13.393
		c1.928-0.377,4.279-0.926,7.255-1.622c6.936-1.62,17.006-3.968,29.851-5.962c2.775,3.399,7.632,9.11,13.555,15.066
		c12.931,13.001,24.302,20.469,33.799,22.195c0.446,0.081,0.896,0.121,1.342,0.121c1.742,0,3.446-0.607,4.806-1.742
		c1.708-1.425,2.694-3.534,2.694-5.758c0-7.312-0.833-23.804-1.372-33.694c3.846,0.053,7.793,0.175,11.836,0.371
		c6.305,5.807,12.969,10.405,18.001,13.523c16.243,10.066,34.749,16.83,46.047,16.83c3.803,0,7.004-2.847,7.448-6.624
		c0.443-3.763,0.249-7.71-0.548-11.825c42.339,12.464,82.526,34.395,119.732,65.351c-7.828,7.705-16.992,17.807-24.289,28.956
		c-9.89,15.109-13.937,28.575-12.029,40.023c0.374,2.24,1.741,4.19,3.721,5.303c1.979,1.113,4.355,1.27,6.463,0.427
		c3.34-1.335,6.953-3.429,11.137-5.854c20.232-11.723,50.808-29.442,96.482,8.17c1.378,1.135,3.069,1.71,4.769,1.71
		c1.426,0,2.856-0.406,4.109-1.227C468.964,399.976,470.22,396.599,469.319,393.442z M279.509,81.603
		c0.539,0,1.077,0.004,1.623,0.013c-4.094,3.333-8.215,7.426-11.386,12.477c-4.642,7.395-6.533,15.565-5.676,24.414
		c-15.406-6.558-30.883-11.33-46.278-14.316C228.647,94.735,249.173,81.603,279.509,81.603z M136.287,248.193
		c6.82-0.675,14.175-1.184,22.035-1.429c0.326,5.974,0.78,14.692,1.079,22.149C151.811,264.105,143.255,255.918,136.287,248.193z
		 M355.505,378.89c4.15-13.778,17.18-31.573,36.634-49.405c1.576-1.445,2.46-3.494,2.431-5.632c-0.029-2.138-0.97-4.162-2.585-5.563
		c-43.679-37.89-91.55-63.678-142.334-76.705c-3.684-6.89-8.748-14.141-15.224-21.737c-11.65-13.667-23.588-23.441-24.091-23.851
		c-3.212-2.617-7.936-2.135-10.552,1.077c-2.616,3.211-2.134,7.935,1.077,10.552c0.112,0.091,11.375,9.313,22.15,21.954
		c10.222,11.991,16.422,22.74,18.294,31.599c-8.059-2.003-19.142-6.522-30.23-13.394c-16.235-10.061-27.028-21.757-29.611-32.087
		c-1.005-4.019-5.078-6.464-9.095-5.457c-4.019,1.004-6.462,5.077-5.457,9.095c1.084,4.336,2.938,8.444,5.286,12.291
		c-41.509-0.418-71.591,6.595-86.947,10.182c-2.83,0.661-5.064,1.183-6.726,1.508c-8.692,1.702-18.393,8.591-28.663,15.884
		c-12.174,8.646-27.323,19.407-32.65,14.082c-4.966-4.966-1.312-18.299,9.538-34.795c4.907-7.463,7.669-16.215,7.986-25.279
		l0.006-0.155c0.478-12.414,4.688-24.115,12.175-33.839c9.502-12.343,36.777-42.586,84.687-56.807
		c44.949-13.342,92.197-7.854,140.434,16.313c63.844,31.989,99.955,79.619,119.006,113.943c20.749,37.382,26.386,67.6,26.438,67.893
		c0.155,0.866,0.462,1.699,0.905,2.459c0.221,0.378,16.512,28.367,27.638,52.295C404.699,352.283,373.906,368.299,355.505,378.89z"
		/>
	<path d="M179.239,125.68c-12.455-0.239-24.891,0.817-36.965,3.139c-4.068,0.782-6.731,4.714-5.949,8.781
		c0.69,3.589,3.833,6.085,7.357,6.085c0.47,0,0.946-0.044,1.424-0.136c11.048-2.125,22.432-3.089,33.846-2.872
		c4.117,0.066,7.563-3.214,7.642-7.355C186.673,129.181,183.38,125.759,179.239,125.68z"/>
	<path d="M266.235,147.532c-18.506-8.885-37.251-15.145-55.715-18.605c-4.07-0.762-7.99,1.919-8.753,5.99
		c-0.763,4.071,1.919,7.99,5.99,8.753c17.173,3.218,34.664,9.067,51.986,17.384c58.37,28.029,91.331,69.762,108.703,99.836
		c1.39,2.405,3.909,3.75,6.501,3.75c1.272,0,2.563-0.325,3.744-1.007c3.587-2.072,4.815-6.659,2.743-10.246
		C363.004,221.483,328.058,177.219,266.235,147.532z"/>
	<circle cx="59.208" cy="211.178" r="8.215"/>
</g>
<g>
</g>
<g>
</g>
<g>
</g>
<g>
</g>
<g>
</g>
<g>
</g>
<g>
</g>
<g>
</g>
<g>
</g>
<g>
</g>
<g>
</g>
<g>
</g>
<g>
</g>
<g>
</g>
<g>
</g>
</svg>
