<svg height="512" viewBox="0 0 60 60" width="512" xmlns="http://www.w3.org/2000/svg"><g id="Page-1" fill="none" fill-rule="evenodd"><g id="039---Dolphin" fill-rule="nonzero"><g id="Icons" transform="translate(1 1)"><path id="Shape" d="m58 24c0 1.42-1.12 2.53-3.04 3.09-2.9764406.6447131-6.071615.4754457-8.96-.49-3.4203505-1.1862534-6.9621841-1.9878616-10.56-2.39-1.9153716-.1833636-3.8458217-.1363613-5.75.14-.1097065.5035763-.2567802.998279-.44 1.48-1.248694 3.3372728-3.8990779 5.9584111-7.25 7.17-.0246952-1.828162-.1750497-3.6524634-.45-5.46-2.2694334 1.5223744-3.9189359 3.8068466-4.65 6.44-.8336803 2.856026-.0264026 5.9390581 2.1 8.02 3.89 3.89 10.25 4 10.94 4h.06s0-6 8-8c0 0 1 7-4 10 5 3 4 10 4 10-8-2-8-8-8-8s-14 4-22-3-8-15-8-20c.18138946-6.6320142 2.99088521-12.9201045 7.81-17.48-1.32-3.78-6.81-6.52-6.81-6.52s2-3 9-3c3.1742346-.01033526 6.2016613 1.33599634 8.32 3.7 4.1198488-1.1881866 8.392668-1.76104091 12.68-1.7 23.02 0 22 17 22 17s5 3 5 5z" fill="#02a9f4"/><path id="Shape" d="m38 38c-1.0111396.2479066-1.9920132.6060512-2.925 1.068.058 2.073-.275 6.653-4.075 8.932 3.8 2.279 4.133 6.859 4.075 8.932.9329868.4619488 1.9138604.8200934 2.925 1.068 0 0 1-7-4-10 5-3 4-10 4-10z" fill="#0377bc"/><path id="Shape" d="m53 19s1.02-17-22-17c-.606 0-1.2.00933333-1.782.028 21.748.598 20.782 16.972 20.782 16.972s5 3 5 5c0 1.42-1.12 2.53-3.04 3.09-.5530556.1549745-1.1185062.2617075-1.69.319 1.5697409.1790365 3.1589594.0709426 4.69-.319 1.92-.56 3.04-1.67 3.04-3.09 0-2-5-5-5-5z" fill="#0377bc"/><path id="Shape" d="m34.4 30c-1.3887359-1.7482013-3.1430713-3.1714656-5.14-4.17h-.01c.1832198-.481721.3302935-.9764237.44-1.48 1.9041783-.2763613 3.8346284-.3233636 5.75-.14.3973996 1.9920785.0258254 4.0607461-1.04 5.79z" fill="#0377bc"/><circle id="Oval" cx="46" cy="16" fill="#3f51b5" r="2"/><g fill="#02a9f4"><circle id="Oval" cx="55" cy="34" r="3"/><circle id="Oval" cx="50" cy="41" r="2"/><circle id="Oval" cx="56" cy="8" r="2"/></g><path id="Shape" d="m54.96 27.09c-2.9764406.6447131-6.071615.4754457-8.96-.49-.66-.19-1.31-.4-1.96-.6-2.7926886-.9089663-5.6765621-1.5092144-8.6-1.79-1.9153716-.1833636-3.8458217-.1363613-5.75.14.3507851-1.6627826.4351703-3.3707374.25-5.06 1.26-.06 2.43-.06 3.56-.01 5.66.27 9.97 1.91 14.5 3.72 2.5115475 1.007466 4.857676 2.3861536 6.96 4.09z" fill="#f5f5f5"/><path id="Shape" d="m48 23c-4.53-1.81-8.84-3.45-14.5-3.72-.985-.044-2.011-.041-3.09 0 5.434.22 9.664 1.752 14.59 3.72 2.5115475 1.007466 4.857676 2.3861536 6.96 4.09-.5530556.1549745-1.1185062.2617075-1.69.319 1.5697409.1790365 3.1589594.0709426 4.69-.319-2.102324-1.7038464-4.4484525-3.082534-6.96-4.09z" fill="#cfd8dc"/><path id="Shape" d="m29.94 46c-12.96.98-17.94-5.01-18.94-11-.84-5.06 1.16-10.84 8.42-13.72 1.1574644 1.9066252 1.8844131 4.0431034 2.13 6.26-2.2694334 1.5223744-3.9189359 3.8068466-4.65 6.44-.8336803 2.856026-.0264026 5.9390581 2.1 8.02 3.89 3.89 10.25 4 10.94 4z" fill="#f5f5f5"/></g><g id="Icons_copy" fill="#000"><path id="Shape" d="m55.006 19.446c-.1097856-4.1147867-1.7140438-8.0488273-4.513-11.067-3.987-4.233-10.209-6.379-18.493-6.379-4.1720831-.04340694-8.3301293.49031444-12.356 1.586-2.2766391-2.31686246-5.3958747-3.61089058-8.644-3.586-7.449 0-9.738 3.305-9.832 3.445-.15911847.23854197-.20818177.53391216-.13472777.81108624s.26235712.50948071.51872777.63791376c1.538.772 4.84 2.906 6.062 5.406-4.68225613 4.7267022-7.40241169 11.0501529-7.614 17.7 0 5.032 0 13.454 8.342 20.752 7.073 6.191 18.28 4.293 21.834 3.485.47 2.064 2.205 6.139 8.582 7.733.2744931.0685125.5651619.0175481.7999726-.1402629.2348107-.1578111.3917872-.4076994.4320274-.6877371.041-.288.88-6.569-3.284-10.142 4.164-3.573 3.325-9.854 3.284-10.142-.0402402-.2800377-.1972167-.529926-.4320274-.6877371-.2348107-.157811-.5254795-.2087754-.7999726-.1402629-6.6 1.65-8.227 5.956-8.627 7.941-1.9-.117-6.459-.713-9.424-3.678-1.865489-1.840174-2.5709175-4.555517-1.837-7.071.4950661-1.8395043 1.5128118-3.4960332 2.93-4.769.1284084 1.1780422.1951661 2.36199.2 3.547-.0000279.3344418.1671352.6467576.4454385.8322261.2783033.1854686.6308996.219534.9395615.0907739 3.2256694-1.1919216 5.8628344-3.5892465 7.356-6.687 1.4738485.8832064 2.7802246 2.0196419 3.859 3.357.1875939.2540684.4841832.4045875.8.406h.037c.3298866-.0119723.6326116-.1859737.809-.465.9741075-1.547611 1.4349923-3.363154 1.317-5.188 2.4377966.3200233 4.8418329.8588648 7.183 1.61l.583.181c.462.145.926.289 1.4.425 1.9747318.5856165 4.0204749.897525 6.08.927 1.1592166.0146577 2.3147738-.1331109 3.433-.439 2.388-.697 3.758-2.174 3.758-4.05 0-2.132-3.366-4.523-4.994-5.554zm-38.075 15.291c-.9346088 3.1966965-.0257625 6.6481576 2.362 8.97.4494489.4443177.9340217.8516398 1.449 1.218-4.0798675-1.3434441-7.0709649-4.8486123-7.756-9.089-.888-5.348 1.741-9.888 7.045-12.3.702992 1.4465766 1.1850215 2.9904192 1.43 4.58-2.2123453 1.634062-3.8084705 3.9669417-4.53 6.621zm18.241-5.52c-1.1045452-1.1268912-2.3614089-2.0936058-3.734-2.872l.021-.079c1.3557433-.1572733 2.7227575-.1940839 4.085-.11.1020987 1.0352687-.0249054 2.0803212-.372 3.061zm12.1-2.578c-.454-.131-.9-.271-1.35-.411l-.588-.183c-2.8599808-.9327372-5.8142187-1.5467921-8.809-1.831-1.5485929-.1422484-3.1068104-.1455951-4.656-.01.12043-.9754025.1578976-1.9592633.112-2.941.834-.018 1.654-.019 2.467.016 5.3.253 9.388 1.736 14.176 3.649 1.6830967.6773008 3.29165 1.526818 4.8 2.535-2.0798743.0496251-4.1545975-.2284445-6.148-.824zm8.88.329c-2.07041-1.6075444-4.3538462-2.9200575-6.785-3.9-4.964-1.983-9.209-3.522-14.825-3.79-.0333034-.0019978-.0666966-.0019978-.1 0-.873-.037-1.753-.035-2.649-.011-.168907-1.2342114-.4579455-2.448977-.863-3.627-.1979941-.515834-.776666-.7734941-1.2925-.5755s-.7734941.776666-.5755 1.2925c.181.473 4.128 11.166-5.108 16.085-.16-3.309-.924-10.544-4.511-12.338-.3197527-.1596977-.7004141-.1366785-.9985927.0603866-.2981787.1970651-.4685741.5382372-.4470001.895.0215741.3567629.2318401.6749157.5515928.8346134.039.019.074.052.112.074-5.821 2.858-8.668 8.068-7.651 14.2.621 3.718 3.541 11.945 17.158 11.945.895 0 1.838-.035 2.828-.11.5486069-.0032331.9934654-.4454225 1-.994 0-.2.134-4.693 6.077-6.7.017 1.966-.38 5.906-3.592 7.833-.3007398.1808357-.4846836.5060784-.4846836.857s.1839438.6761643.4846836.857c3.212 1.927 3.609 5.867 3.592 7.833-5.939-2.001-6.073-6.489-6.073-6.689.0000848-.3137063-.1470467-.6092714-.3973973-.7983117s-.574902-.2496438-.8766027-.1636883c-.133.039-13.578 3.763-21.068-2.79-7.658-6.702-7.658-14.248-7.658-19.248.18156544-5.6277018 2.31111705-11.0178532 6.025-15.25 0 .018 0 .036-.005.054-.10809117.5398874.24058374 1.0655818.78 1.176.06576956.0137352.13281296.0204396.2.02.47489292-.000378.88402154-.3347017.979-.8.883-4.414-3.936-7.951-6.3-9.394 1.083-.761 3.301-1.806 7.321-1.806 3.7968359.03790358 7.2779518 2.1209917 9.106 5.449.2485281.49401871.8504813.69302814 1.3445.4445s.6930281-.85048129.4445-1.3445c-.2356157-.44434814-.5029761-.87112218-.8-1.277 3.5681465-.87480165 7.231304-1.30208605 10.905-1.272 7.694 0 13.419 1.927 17.015 5.726 2.5634732 2.7836719 3.9860101 6.429793 3.985 10.214-.0223203.37176.1638024.7251234.483.917 2.138 1.284 4.517 3.3 4.517 4.143 0 1.054-1.007 1.65-1.844 1.968z"/><path id="Shape" d="m47 14c-1.2133867 0-2.3072956.7309265-2.7716386 1.8519497s-.2076757 2.4113767.6503183 3.2693706c.8579939.857994 2.1483474 1.1146613 3.2693706.6503183s1.8519497-1.5582519 1.8519497-2.7716386c0-1.6568542-1.3431458-3-3-3zm0 4c-.5522847 0-1-.4477153-1-1s.4477153-1 1-1 1 .4477153 1 1-.4477153 1-1 1z"/><path id="Shape" d="m38 6h-1c-.5522847 0-1 .44771525-1 1s.4477153 1 1 1h1c.5522847 0 1-.44771525 1-1s-.4477153-1-1-1z"/><path id="Shape" d="m56 31c-2.209139 0-4 1.790861-4 4s1.790861 4 4 4 4-1.790861 4-4-1.790861-4-4-4zm0 6c-1.1045695 0-2-.8954305-2-2s.8954305-2 2-2 2 .8954305 2 2-.8954305 2-2 2z"/><path id="Shape" d="m51 39c-1.6568542 0-3 1.3431458-3 3s1.3431458 3 3 3 3-1.3431458 3-3-1.3431458-3-3-3zm0 4c-.5522847 0-1-.4477153-1-1s.4477153-1 1-1 1 .4477153 1 1-.4477153 1-1 1z"/><path id="Shape" d="m57 6c-1.6568542 0-3 1.34314575-3 3 0 1.6568542 1.3431458 3 3 3s3-1.3431458 3-3c0-.79564947-.3160705-1.55871121-.8786797-2.12132034-.5626091-.56260914-1.3256708-.87867966-2.1213203-.87867966zm0 4c-.5522847 0-1-.44771525-1-1s.4477153-1 1-1 1 .44771525 1 1-.4477153 1-1 1z"/><circle id="Oval" cx="57" cy="42" r="1"/><circle id="Oval" cx="59" cy="14" r="1"/></g></g></g></svg>