<svg height="512pt" viewBox="0 0 512.0039 512" width="512pt" xmlns="http://www.w3.org/2000/svg"><path d="m189.496094 157.726562c-7.023438-38.578124-43.988282-64.15625-82.566406-57.132812-38.574219 7.023438-64.152344 43.988281-57.132813 82.5625 7.023437 38.578125 43.988281 64.15625 82.566406 57.132812 38.578125-7.019531 64.15625-43.988281 57.132813-82.5625zm0 0" fill="#ffe469"/><g fill="#97c9e8"><path d="m468.835938 257.03125c5.011718 7.726562 3.058593 17.890625-4.363282 22.703125s-17.5 2.453125-22.511718-5.273437c-10.394532-16.027344-3.140626-34.28125-3.140626-34.28125s19.460938.570312 30.015626 16.851562zm0 0"/><path d="m456.523438 162.933594c9.210937-.011719 16.683593 7.152344 16.695312 15.996094.011719 8.847656-7.445312 16.023437-16.65625 16.039062-19.101562.019531-30.488281-15.980469-30.488281-15.980469s11.046875-16.03125 30.449219-16.054687zm0 0"/><path d="m503.636719 308.1875c-30.9375 0-30.9375 35.664062-61.875 35.664062s-30.9375-35.664062-61.875-35.664062-30.9375 35.664062-61.875 35.664062-30.9375-35.664062-61.871094-35.664062c-30.9375 0-30.9375 35.664062-61.871094 35.664062-30.933593 0-30.933593-35.664062-61.871093-35.664062s-30.9375 35.664062-61.871094 35.664062-30.933594-35.664062-61.871094-35.664062h-1.144531c29.414062 113.035156 129.585937 196.261719 248.636719 196.261719 118.671874 0 218.585937-82.699219 248.355468-195.1875zm0 0"/></g><path d="m503.636719 308.1875c-30.9375 0-30.9375 35.664062-61.875 35.664062-1.367188 0-2.648438-.089843-3.898438-.222656-35.878906 86.292969-114.945312 149.015625-209.21875 159.324219 9.039063.988281 18.210938 1.496094 27.503907 1.496094 118.671874 0 218.585937-82.703125 248.355468-195.1875zm0 0" fill="#60b6ff"/><path d="m373.101562 187.453125s-19.625-120.875-118.097656-132.195313l-.902344-47.800781c-25.835937 15.660157-35.183593 35.480469-37.996093 45-100 19-93 88.996094-93 88.996094l-10.070313 12.949219c-6.082031 7.820312-4.828125 19.0625 2.828125 25.351562 7.445313 6.117188 18.386719 5.4375 24.941407-1.621094 15.640624-16.84375 48.523437-43.679687 99.296874-43.679687 74 0 111 63 111 63s-16 28 3 46l18-28 35 8s-2-31-34-36zm0 0" fill="#cbe6f7"/><path d="m74.972656 235.003906c13.277344 9.1875 28.695313 13.972656 44.503906 13.972656 10.050782 0 20.132813-1.9375 29.460938-5.675781 8.9375-3.585937 3.355469-17.511719-5.585938-13.921875-3.953124 1.582032-8.105468 2.777344-12.335937 3.546875-16.6875 3.039063-33.558594-.605469-47.507813-10.257812-13.945312-9.652344-23.300781-24.15625-26.335937-40.84375-3.039063-16.6875.605469-33.558594 10.257813-47.503907 9.652343-13.949218 24.15625-23.300781 40.84375-26.339843 4.738281-.859375 9.449218-1.152344 14.070312-.957031-6.132812 14.109374-6.882812 26.394531-6.839844 31.988281l-8.386718 10.785156c-19.570313 25.15625 17.507812 56.785156 39.183593 33.441406 7.316407-7.882812 19.0625-18.484375 35.226563-26.972656.214844.929687.414062 1.867187.589844 2.820313 2.761718 15.171874-.082032 30.800781-8.007813 44.007812-4.945313 8.253906 7.902344 15.992188 12.863281 7.71875 9.796875-16.332031 13.3125-35.65625 9.898438-54.414062-.390625-2.160157-.890625-4.285157-1.453125-6.382813 12.785156-4.839844 27.667969-8.058594 44.683593-8.058594 28.679688 0 54.917969 9.878907 77.984376 29.367188 12.605468 10.652343 20.796874 21.441406 24.414062 26.675781-1.476562 3.375-3.371094 8.488281-4.414062 14.40625-2.582032 14.699219 1.171874 27.320312 10.855468 36.492188 3.34375 3.167968 8.988282 2.472656 11.46875-1.386719l15.152344-23.574219 29.863281 6.828125c4.765625 1.089844 9.472657-2.894531 9.15625-7.792969-.773437-12.019531-9.191406-35.191406-35.074219-41.847656-2.730468-12.734375-11.585937-46.738281-33.363281-77.5-5.566406-7.859375-17.859375.734375-12.242187 8.667969 24.792968 35.023437 31.730468 75.960937 31.792968 76.367187.523438 3.199219 3.039063 5.707032 6.246094 6.207032 14.597656 2.28125 21.527344 11.167968 24.800782 18.527343l-22.972657-5.25c-3.078125-.703125-6.269531.601563-7.976562 3.257813l-11.949219 18.585937c-4.988281-12.949219 3.34375-28.054687 3.769531-28.808593 1.332031-2.332032 1.316407-5.203126-.046875-7.519532-.402344-.6875-10.109375-17.03125-29.351562-33.414062-25.582032-21.777344-56.050782-33.289063-88.113282-33.289063-53.957031 0-88.816406 28.867188-104.792968 46.074219-9.015625 9.710938-24.511719-3.53125-16.351563-14.023438l10.066407-12.945312c1.183593-1.519531 1.734374-3.433594 1.542968-5.351562-.011718-.152344-1.410156-15.414063 8.136719-33.058594 12.957031-23.953125 40.203125-40.492188 78.800781-47.824219 2.761719-.523437 4.996094-2.550781 5.792969-5.242187 4.265625-14.441407 14.878906-25.632813 23.574219-32.785157l.636718 33.597657c.070313 3.757812 2.910157 6.882812 6.640626 7.308593 19.453124 2.238281 37.105468 9.273438 52.460937 20.910157 7.738281 5.867187 16.726563-6.144532 9.0625-11.953126-15.792969-11.96875-33.691406-19.667968-53.289063-22.9375l-.78125-41.40625c-.105468-5.613281-6.550781-9.203124-11.386718-6.273437-25.367188 15.375-35.753906 34.296875-39.8125 44.90625-44.679688 9.417969-67.957032 29.210937-80.070313 46.722656-8.117187-1.109375-16.445312-.957031-24.742187.550781-42.585938 7.75-70.925782 48.703126-63.175782 91.289063 3.753907 20.621094 15.316407 38.554687 32.558594 50.488281zm0 0"/><path d="m439.039062 232.683594c-3.183593-.097656-6.023437 1.796875-7.1875 4.730468-.355468.890626-8.539062 22.070313 3.816407 41.125 3.480469 5.371094 8.785156 9.125 14.933593 10.5625 1.8125.425782 3.636719.636719 5.441407.636719 4.421875 0 8.734375-1.261719 12.507812-3.707031 5.320313-3.449219 8.917969-8.824219 10.128907-15.136719 1.195312-6.203125-.066407-12.574219-3.550782-17.941406-12.554687-19.363281-35.132812-20.242187-36.089844-20.269531zm24.910157 35.375c-.433594 2.265625-1.699219 4.179687-3.558594 5.382812-1.859375 1.207032-4.121094 1.582032-6.367187 1.054688-2.355469-.550782-4.40625-2.011719-5.769532-4.117188-4.976562-7.671875-4.773437-16.257812-3.875-21.746094 5.3125 1.359376 13.074219 4.632813 18.164063 12.480469 1.363281 2.101563 1.863281 4.570313 1.40625 6.945313zm0 0"/><path d="m456.519531 202.464844h.054688c13.328125-.015625 24.160156-10.578125 24.144531-23.542969-.007812-6.339844-2.566406-12.28125-7.210938-16.726563-4.550781-4.359374-10.570312-6.761718-16.960937-6.761718-.011719 0-.019531 0-.03125 0-23.074219.027344-36.074219 18.511718-36.617187 19.296875-1.789063 2.597656-1.765626 6.039062.066406 8.605469.554687.78125 13.875 19.132812 36.554687 19.128906zm.027344-32.03125c2.5 0 4.839844.921875 6.585937 2.59375 1.664063 1.59375 2.582032 3.695312 2.585938 5.910156.007812 4.699219-4.105469 8.523438-9.164062 8.527344-.011719 0-.019532 0-.03125 0-9.128907 0-16.214844-4.824219-20.332032-8.558594 4.027344-3.71875 10.988282-8.460938 20.34375-8.472656zm0 0"/><path d="m510.34375 304.558594c-1.515625-2.207032-3.949219-3.871094-6.707031-3.871094-18.890625 0-28.710938 11.320312-36.601563 20.417969-7.390625 8.519531-13.226562 15.246093-25.273437 15.246093s-17.882813-6.726562-25.273438-15.246093c-7.890625-9.097657-17.710937-20.417969-36.601562-20.417969s-28.710938 11.320312-36.605469 20.417969c-7.386719 8.519531-13.222656 15.246093-25.269531 15.246093s-17.882813-6.726562-25.269531-15.246093c-9.847657-11.351563-20.785157-20.417969-36.601563-20.417969-15.800781 0-26.765625 9.078125-36.601563 20.417969-6.898437 7.953125-13.992187 15.246093-25.269531 15.246093-11.3125 0-18.351562-7.269531-25.269531-15.246093-7.890625-9.097657-17.710938-20.417969-36.601562-20.417969-18.894532 0-28.710938 11.320312-36.601563 20.417969-7.390625 8.519531-13.226563 15.246093-25.273437 15.246093-12.042969 0-17.878907-6.726562-25.269532-15.246093-7.886718-9.097657-17.707031-20.417969-36.597656-20.417969-5.199219-.421875-9.792969 4.066406-8.40625 9.386719 15.621094 60.023437 51.277344 113.292969 100.402344 150 7.714844 5.765625 16.703125-6.242188 8.980468-12.015625-11.050781-8.253906-21.371093-17.402344-30.894531-27.308594 14.308594-2.441406 22.570313-11.957031 29.390625-19.816406 7.386719-8.519532 13.222656-15.246094 25.269532-15.246094 12.042968 0 17.878906 6.726562 25.269531 15.246094 7.890625 9.097656 17.710937 20.417968 36.601562 20.417968 9.628907 0 9.644531-15 0-15-12.042969 0-17.878906-6.730468-25.269531-15.246093-7.890625-9.097657-17.710938-20.417969-36.601562-20.417969-18.890626 0-28.710938 11.320312-36.601563 20.417969-7.390625 8.515625-13.226563 15.246093-25.269531 15.246093-2.234375 0-4.265625-.234374-6.191406-.691406-21.238282-25.886718-37.457032-55.9375-47.4375-88.34375 6.382812 2.5 10.816406 7.613282 16.027343 13.617188 7.890625 9.097656 17.710938 20.417968 36.601563 20.417968s28.710937-11.320312 36.601562-20.417968c7.386719-8.519532 13.222656-15.246094 25.269532-15.246094 12.042968 0 17.878906 6.726562 25.269531 15.246094 9.847656 11.351562 20.785156 20.417968 36.601562 20.417968 15.800781 0 26.765625-9.074218 36.601563-20.417968 6.894531-7.953125 13.992187-15.246094 25.269531-15.246094 11.3125 0 18.351563 7.269531 25.269531 15.246094 7.890625 9.097656 17.710938 20.417968 36.601563 20.417968s28.710937-11.320312 36.605469-20.417968c7.386718-8.519532 13.222656-15.246094 25.269531-15.246094s17.882812 6.726562 25.273437 15.246094c7.890625 9.097656 17.710938 20.417968 36.601563 20.417968 18.894531 0 28.714843-11.320312 36.605469-20.417968 5.207031-6.003906 9.644531-11.117188 16.03125-13.613282-14.070313 45.613282-40.722657 86.894532-76.21875 118.132813-7.660157-8.757813-17.402344-18.765625-35.167969-18.765625-18.890625 0-28.710938 11.320312-36.601563 20.417969-7.386718 8.515625-13.226562 15.246093-25.269531 15.246093-9.628906 0-9.644531 15 0 15 18.890625 0 28.710937-11.320312 36.601563-20.417968 7.390624-8.519532 13.226562-15.246094 25.273437-15.246094 11.125 0 16.957031 5.746094 23.605469 13.335938-43.609375 33.976562-95.566406 51.925781-150.472656 51.925781-40.546876 0-80.804688-10.234375-116.421876-29.601563-8.460937-4.601562-15.636718 8.574219-7.164062 13.179688 37.808594 20.558594 80.542969 31.421875 123.585938 31.421875 59.335937 0 115.421874-19.726563 162.195312-57.050781 45.269531-36.121094 78.445312-87.160157 93.410156-143.71875.609375-2.304688.085938-4.761719-1.410156-6.621094zm0 0"/><path d="m161.605469 110.457031c-9.652344 0-9.667969 14.996094 0 14.996094 9.648437 0 9.664062-14.996094 0-14.996094zm0 0"/></svg>