<svg id="dolphin" enable-background="new 0 0 300 300" height="512" viewBox="0 0 300 300" width="512" xmlns="http://www.w3.org/2000/svg"><g><circle cx="161.52" cy="161.914" fill="#ffded5" r="90"/><path d="m241.52 83.914c-7.719 0-14-6.281-14-14s6.281-14 14-14 14 6.281 14 14-6.281 14-14 14zm0-20c-3.309 0-6 2.691-6 6s2.691 6 6 6 6-2.691 6-6-2.691-6-6-6z" fill="#4c241d"/><circle cx="260.525" cy="100.841" fill="#4c241d" r="4.276"/><g><path d="m148.944 55.925s20.281-32.073 63.045-5.031c0 0-32.985.094-24.165 31.114" fill="#eaeaea"/><path d="m187.823 86.01c-1.742 0-3.346-1.148-3.846-2.908-2.928-10.297-1.973-18.756 2.838-25.145 3.562-4.73 8.646-7.438 13.316-8.988-32.027-14.605-47.133 8.045-47.814 9.109-1.195 1.848-3.668 2.395-5.52 1.213-1.857-1.186-2.412-3.641-1.234-5.504.234-.369 5.848-9.1 17.24-14.172 10.398-4.627 27.74-7.014 51.324 7.898 1.502.951 2.197 2.779 1.705 4.488s-2.055 2.887-3.832 2.893c-.121 0-13.033.188-18.814 7.9-3.207 4.279-3.717 10.375-1.514 18.119.604 2.125-.629 4.338-2.754 4.941-.365.105-.734.156-1.095.156z" fill="#4c241d"/></g><path d="m251.52 216.486c-6.522 0-12.259-3.395-15.909-8.571h-8.181c-3.651 5.176-9.387 8.571-15.909 8.571s-12.259-3.395-15.909-8.571h-8.181c-3.651 5.176-9.387 8.571-15.909 8.571s-12.259-3.395-15.909-8.571h-8.181c-3.651 5.176-9.387 8.571-15.909 8.571s-12.259-3.395-15.909-8.571h-8.181c-3.651 5.176-9.387 8.571-15.909 8.571s-12.259-3.395-15.909-8.571h-8.181c-3.651 5.176-9.387 8.571-15.909 8.571s-12.259-3.395-15.909-8.571h-.096v56h232v-56h-.091c-3.65 5.175-9.387 8.571-15.909 8.571z" fill="#02eae6"/><path d="m251.52 219.914c-8.338 0-15.697-4.273-20-10.746-4.303 6.473-11.662 10.746-20 10.746s-15.697-4.273-20-10.746c-4.303 6.473-11.662 10.746-20 10.746s-15.697-4.273-20-10.746c-4.303 6.473-11.662 10.746-20 10.746s-15.697-4.273-20-10.746c-4.303 6.473-11.662 10.746-20 10.746s-15.697-4.273-20-10.746c-4.303 6.473-11.662 10.746-20 10.746-13.234 0-24-10.766-24-24 0-2.209 1.791-4 4-4s4 1.791 4 4c0 8.822 7.178 16 16 16s16-7.178 16-16c0-2.209 1.791-4 4-4s4 1.791 4 4c0 8.822 7.178 16 16 16s16-7.178 16-16c0-2.209 1.791-4 4-4s4 1.791 4 4c0 8.822 7.178 16 16 16s16-7.178 16-16c0-2.209 1.791-4 4-4s4 1.791 4 4c0 8.822 7.178 16 16 16s16-7.178 16-16c0-2.209 1.791-4 4-4s4 1.791 4 4c0 8.822 7.178 16 16 16s16-7.178 16-16c0-2.209 1.791-4 4-4s4 1.791 4 4c0 8.822 7.178 16 16 16s16-7.178 16-16c0-2.209 1.791-4 4-4s4 1.791 4 4c0 13.235-10.766 24-24 24z" fill="#4c241d"/><g><path d="m77.844 111.686s-3.802 46.946 45.794 36.932c0 0-30.783-11.851-11.481-37.685" fill="#eaeaea"/><path d="m110.706 154.022c-10.1 0-18.338-2.789-24.596-8.346-13.863-12.312-12.324-33.42-12.252-34.312.176-2.203 2.125-3.852 4.301-3.662 2.199.174 3.842 2.1 3.674 4.299-.014.18-1.262 18.096 9.623 27.723 4.918 4.35 11.727 6.416 20.203 6.287-3.736-3.1-7.41-7.385-9.021-12.969-2.217-7.684-.092-15.928 6.314-24.504 1.322-1.77 3.826-2.135 5.6-.811 1.77 1.322 2.133 3.83.811 5.6-4.818 6.449-6.518 12.326-5.047 17.467 2.65 9.27 14.646 14.047 14.768 14.094 1.654.646 2.689 2.307 2.535 4.074-.152 1.768-1.449 3.227-3.189 3.576-4.898.989-9.476 1.484-13.724 1.484z" fill="#4c241d"/></g><g><path d="m48.26 129.944s-43.723-23.159-1.148-62.086 131.845-33.362 161.134 31.554 3.207 103.797 3.207 103.797 23.347 22.247 11.791 52.354c0 0-23.897-45.044-73.327-28.41 0 0 .912-20.376 39.698-27.278 0 0 19.275-44.682-36.098-70.718s-90.134 31.302-98.86 33.267-9.732-10.644-7.814-18.41c1.92-7.766 1.417-14.07 1.417-14.07z" fill="#b5a19c"/><path d="m223.243 259.559c-1.469 0-2.83-.809-3.529-2.115-.914-1.715-22.979-41.816-68.52-26.5-1.254.422-2.631.197-3.682-.596-1.055-.793-1.648-2.057-1.59-3.375.043-.943 1.48-22.822 40.729-30.609 2.795-8.484 10.492-42.273-34.834-63.586-40.518-19.043-69.252 9.262-84.695 24.467-5.316 5.236-8.525 8.395-11.584 9.084-3.68.822-7.031-.078-9.449-2.547-4.525-4.619-4.793-13.98-3.127-20.725 1.115-4.516 1.338-8.523 1.355-10.807-5.062-3.217-17.676-12.641-19.592-27.664-1.643-12.883 4.98-26.234 19.688-39.68 23.131-21.146 60.545-30.18 95.326-23.021 33.371 6.875 58.996 26.721 72.154 55.883 25.787 57.148 10.02 94.646 4.518 104.887 5.914 6.789 20.857 27.537 10.568 54.342-.561 1.461-1.924 2.459-3.486 2.555-.084.005-.168.007-.25.007zm-52.164-40.082c26.035 0 42.877 16.693 50.666 26.76 4.279-23.271-12.857-39.947-13.051-40.131-1.41-1.344-1.646-3.508-.562-5.125.055-.084 6.205-9.52 8.83-26.441 2.426-15.646 2.252-41.096-12.361-73.482-12.074-26.762-35.682-44.994-66.475-51.336-32.361-6.662-67.016 1.613-88.314 21.088-12.674 11.59-18.445 22.613-17.15 32.766 1.836 14.396 17.316 22.752 17.473 22.834 1.207.641 2.006 1.854 2.115 3.217.021.285.529 7.047-1.521 15.35-1.271 5.152-.77 11.324 1.076 13.207.238.242.635.643 1.977.342 1.092-.443 4.617-3.916 7.729-6.979 15.631-15.395 48.162-47.432 93.711-26.006 46.574 21.896 45.268 59.236 38.068 75.92-.531 1.234-1.648 2.119-2.971 2.354-21.301 3.791-30.166 11.738-33.838 17.344 5.148-1.165 10.017-1.682 14.598-1.682z" fill="#4c241d"/></g><circle cx="67.126" cy="111.942" fill="#4c241d" r="6"/><g><path d="m136.469 107.116s-24.055 40.494 24.892 53.305c0 0-22.437-24.178 6.257-38.895" fill="#b5a19c"/><path d="m161.362 164.42c-.336 0-.676-.043-1.014-.131-16.322-4.271-26.887-12.014-31.398-23.012-7.039-17.154 3.623-35.436 4.08-36.205 1.127-1.896 3.57-2.523 5.475-1.396 1.898 1.123 2.527 3.574 1.408 5.477-.092.154-9.088 15.697-3.545 29.129 2.504 6.07 7.66 10.934 15.381 14.531-1.992-4.428-3.408-9.895-2.4-15.617 1.387-7.875 6.92-14.344 16.443-19.229 1.967-1.02 4.373-.232 5.385 1.732 1.008 1.967.232 4.377-1.732 5.385-7.178 3.682-11.287 8.223-12.217 13.5-1.656 9.402 6.979 19.02 7.066 19.115 1.211 1.303 1.414 3.25.5 4.775-.735 1.227-2.049 1.946-3.432 1.946z" fill="#4c241d"/></g><path d="m76.221 70.803c-1.357 0-2.682-.689-3.432-1.938-1.139-1.891-.533-4.344 1.355-5.484.836-.506 20.766-12.35 46.004-10.391 2.203.17 3.852 2.094 3.682 4.295-.172 2.205-2.119 3.844-4.295 3.682-22.641-1.768-41.076 9.152-41.26 9.266-.644.386-1.353.57-2.054.57z" fill="#fff"/></g></svg>