<svg id="Capa_1" enable-background="new 0 0 511.803 511.803" height="512" viewBox="0 0 511.803 511.803" width="512" xmlns="http://www.w3.org/2000/svg"><g><path d="m225.403 408.342c7.735 22.469 17.248 38.244 17.876 39.273 3.406 5.584 10.003 8.283 16.298 6.776 3.446-.825 84.68-20.892 109.379-80.302 1.976-4.756 3.738-9.561 5.287-14.388-44.813 26.912-97.225 41.723-148.84 48.641z"/><path d="m89.646 270.713c.146-.017 6.735-.71 16.304-.785 11.273-67.088 36.478-133.89 84.601-182.012 10.615-10.619 21.958-20.685 33.968-30.174-15.406-4.392-34.899-5.561-59.457-.648-48.183 9.637-70.827 61.609-81.685 109.385-10.255 45.122-10.373 87.541-10.373 89.324 0 8.874 7.707 15.87 16.642 14.91z"/><path d="m171.573 412.814c-8.668.274-21.374.404-30.059-.08-22.924-1.271-41.17-19.515-42.442-42.464-.324-5.936-.485-17.321-.08-30.035-20.221 2.796-47.763 3.517-81.046-3.141-9.264-1.85-17.942 5.232-17.942 14.709 0 31.654 10.37 59.438 28.449 76.227 19.042 17.682 37.656 36.295 55.325 55.324 16.789 18.08 44.572 28.449 76.226 28.449 9.461 0 16.564-8.667 14.708-17.942-6.656-33.283-5.935-60.826-3.139-81.047z"/><path d="m456.335 214.815c-69.028-4.824-154.317-89.984-159.332-159.157-.057-.8-.039-.319-.039-10.031-32.147 17.751-60.778 39.073-85.196 63.5-54.31 54.308-76.71 138.113-81.885 213.988-1.292 19.019-1.342 36.617-.856 45.519.423 7.631 6.516 13.724 14.147 14.146 19.125 1.066 55.154-.344 89.905-5.874 53.108-8.481 106.67-26.05 149.033-58.814.016-.323 7.874-5.674 21.271-18.767 24.028-24.166 45.305-52.623 62.555-83.823z"/><path d="m510.873 48.834c-1.307-11.325-4.935-23.975-12.456-32.677-16.507-19.143-54.58-17.574-79.597-13.793-31.082 4.696-63.437 15.38-91.855 28.225v23.411c4.388 54.256 77.631 127.126 131.486 130.89l22.132 1.582c17.922-39.206 35.485-94.974 30.29-137.638zm-109.929 44.189c-7.064-3.685-10.18-12.752-6.16-20.28 3.652-7.288 13.664-10.592 21.55-5.41 3.188 2.105 5.531 5.472 6.38 9.54 2.387 12.764-10.894 21.983-21.77 16.15z"/></g></svg>