<svg id="Capa_1" enable-background="new 0 0 511.911 511.911" height="512" viewBox="0 0 511.911 511.911" width="512" xmlns="http://www.w3.org/2000/svg"><g><path d="m181.527 374.541c-.22.44-21.44 45.99-6.75 119.43 1.853 9.267-5.242 17.94-14.71 17.94-45.91 0-86.944-20.307-93.96-66.04-45.74-7.016-66.04-48.06-66.04-93.96 0-9.46 8.66-16.562 17.94-14.71 73.44 14.69 118.99-6.53 119.44-6.75 10.285-4.903 21.826 2.901 21.51 13.91-.08 3.23-.12 6.18-.14 8.8 2.62-.02 5.57-.06 8.8-.14 11.198-.3 18.799 11.376 13.91 21.52z" fill="#ffb454"/><path d="m181.527 374.541c-.22.44-21.44 45.99-6.75 119.43 1.853 9.267-5.242 17.94-14.71 17.94-45.91 0-86.944-20.307-93.96-66.04l92.71-92.71c2.62-.02 5.57-.06 8.8-.14 11.198-.3 18.799 11.376 13.91 21.52z" fill="#ff7d47"/><path d="m358.612 298.376c-33.34 24.05-77.146 40.541-130.2 49.013-7.668 1.225-13.134 8.098-12.6 15.845 3.027 43.879 26.531 82.852 27.53 84.49 3.406 5.584 10.003 8.282 16.298 6.776 3.445-.825 84.68-20.891 109.378-80.301 8.746-21.045 13.369-43.057 13.369-63.657.001-12.214-13.866-19.312-23.775-12.166z" fill="#ff7d47"/><path d="m283.217 89.941c-67.54 75.05-76.11 181.98-76.19 183.05-.55 7.48-6.54 13.42-14.02 13.89-19.384 1.021-48.352-1.813-75.11-9.56-52.147-15.099-93.243-46.984-115.45-95.12-2.43-5.26-1.61-11.44 2.1-15.89 40.565-48.695 104.454-75.307 166.27-89.04 54.97-12.22 99.39-12.36 101.25-12.36 12.958 0 19.814 15.404 11.15 25.03z" fill="#ffb454"/><path d="m136.017 180.631c-30.45 19.03-48.86 44.08-58.94 61.75l-7.89 13.95c-8.77-5.28-16.94-11.19-24.45-17.71l6.25-11.05c11.83-20.72 33.38-50.04 69.13-72.38 7.03-4.39 16.28-2.25 20.67 4.77 4.39 7.03 2.25 16.28-4.77 20.67z" fill="#ff7d47"/><path d="m402.747 300.151c-44.46 44.46-107.51 66.95-169.6 76.86-35.12 5.59-70.96 6.93-89.91 5.88-7.629-.44-13.708-6.499-14.15-14.15-.02-.39-.53-9.81-.11-25.18 2.22-82.38 24.57-176.04 82.85-234.33 95.088-95.108 249.223-132.74 285.34-94.42 38.5 40.11-.73 191.65-94.42 285.34z" fill="#f2d131"/><path d="m402.747 300.151c-44.46 44.46-107.51 66.95-169.6 76.86-35.12 5.59-70.96 6.93-89.91 5.88-3.81-.22-7.25-1.84-9.77-4.38l363.7-363.7c38.5 40.11-.73 191.65-94.42 285.34z" fill="#ff9d21"/><path d="m511.197 79.191c-2.3 27.7-10.85 60.66-24.08 92.78-173.81-16.41-180.81-131.23-180.81-131.23 37.14-19.32 77.12-32.91 112.58-38.27 24.4-3.69 61.36-5.62 78.28 12.34 14.72 15.32 15.77 43.4 14.03 64.38z" fill="#faf17d"/><path d="m511.197 79.191c-2.3 27.7-10.85 60.66-24.08 92.78-50.48-4.76-86.89-17.83-113.14-33.97l123.19-123.19c14.72 15.32 15.77 43.4 14.03 64.38z" fill="#f2d131"/><path d="m393.137 81.381c-.393-3.785.744-7.802 3.33-10.98 5.175-6.33 14.637-7.374 21.11-2.09 6.367 5.197 7.355 14.669 2.09 21.11-8.707 10.339-25.164 5.156-26.53-8.04z" fill="#966117"/></g></svg>