<?xml version="1.0" encoding="iso-8859-1"?>
<!-- Generator: Adobe Illustrator 19.0.0, SVG Export Plug-In . SVG Version: 6.00 Build 0)  -->
<svg version="1.1" id="Layer_1" xmlns="http://www.w3.org/2000/svg" xmlns:xlink="http://www.w3.org/1999/xlink" x="0px" y="0px"
	 viewBox="0 0 496.159 496.159" style="enable-background:new 0 0 496.159 496.159;" xml:space="preserve">
<path style="fill:#D61E1E;" d="M248.083,0.003C111.071,0.003,0,111.063,0,248.085c0,137.001,111.07,248.07,248.083,248.07
	c137.006,0,248.076-111.069,248.076-248.07C496.159,111.062,385.089,0.003,248.083,0.003z"/>
<path style="fill:#F4EDED;" d="M248.082,39.002C132.609,39.002,39,132.602,39,248.084c0,115.463,93.609,209.072,209.082,209.072
	c115.468,0,209.077-93.609,209.077-209.072C457.159,132.602,363.55,39.002,248.082,39.002z"/>
<g>
	<path style="fill:#5B5147;" d="M305.273,112.102h-10.928c-0.517,0-0.938,0.42-0.938,0.939v234.822
		c0,32.375-26.34,58.715-58.717,58.715c-32.375,0-58.715-26.34-58.715-58.715v-53.366c5.632,7.292,17.005,21.969,17.89,22.757
		c1.082,0.961,3.786,1.058,4.589,1.065h0.008c0.331,0,0.637-0.174,0.806-0.458c0.17-0.286,0.177-0.642,0.017-0.934
		c-29.306-53.239-30.177-80.751-30.183-81.023c-0.007-0.369-0.23-0.699-0.569-0.845c-0.337-0.144-0.731-0.08-1.003,0.17
		c-0.481,0.44-2.901,2.725-3.266,4.475c-2.167,10.4-1.156,27.584-1.095,28.578v79.346c0,39.436,32.083,71.52,71.52,71.52
		s71.521-32.084,71.521-71.52V113.041C306.212,112.522,305.792,112.102,305.273,112.102z"/>
	<circle style="fill:#5B5147;" cx="299.5" cy="110.789" r="33.777"/>
</g>
<circle style="fill:#F4EDED;" cx="299.5" cy="110.789" r="21.11"/>
<path style="fill:#D61E1E;" d="M85.851,60.394c-9.086,7.86-17.596,16.37-25.457,25.456l349.914,349.914
	c9.086-7.861,17.596-16.37,25.456-25.456L85.851,60.394z"/>
<g>
</g>
<g>
</g>
<g>
</g>
<g>
</g>
<g>
</g>
<g>
</g>
<g>
</g>
<g>
</g>
<g>
</g>
<g>
</g>
<g>
</g>
<g>
</g>
<g>
</g>
<g>
</g>
<g>
</g>
</svg>
