<svg id="svg" version="1.1" xmlns="http://www.w3.org/2000/svg" xmlns:xlink="http://www.w3.org/1999/xlink" width="400" height="389.3805309734513" viewBox="0, 0, 400,389.3805309734513"><g id="svgg"><path id="path0" d="M0.000 194.742 L 0.000 389.484 200.000 389.484 L 400.000 389.484 400.000 194.742 L 400.000 0.000 316.650 0.000 L 233.301 0.000 233.301 0.930 C 233.301 2.019,233.342 2.029,241.023 2.909 C 244.971 3.361,246.837 3.774,248.813 4.632 C 250.339 5.295,252.774 5.940,254.710 6.194 C 256.863 6.477,258.892 7.044,260.553 7.826 C 261.952 8.486,264.527 9.443,266.275 9.953 C 268.023 10.464,270.498 11.413,271.776 12.062 C 273.053 12.711,274.333 13.242,274.620 13.242 C 274.907 13.242,276.550 13.925,278.272 14.759 C 279.993 15.593,283.468 17.194,285.992 18.317 C 288.516 19.440,291.584 20.965,292.808 21.705 C 294.032 22.446,295.735 23.409,296.592 23.844 C 297.449 24.280,299.289 25.377,300.682 26.281 C 302.074 27.185,304.878 28.995,306.913 30.305 C 311.717 33.394,314.673 35.529,321.908 41.129 C 327.777 45.671,343.394 60.671,347.109 65.333 C 355.496 75.857,356.942 77.771,360.782 83.427 C 361.466 84.434,362.418 85.836,362.899 86.543 C 363.379 87.250,364.487 89.231,365.360 90.944 C 366.233 92.658,367.299 94.586,367.729 95.229 C 369.451 97.801,371.488 101.565,372.157 103.408 C 372.546 104.479,373.297 105.944,373.826 106.663 C 374.761 107.935,375.901 110.424,379.014 117.984 C 379.845 120.002,380.807 122.085,381.153 122.612 C 381.498 123.140,382.264 125.525,382.855 127.912 C 383.445 130.300,384.309 133.001,384.776 133.915 C 385.242 134.828,386.039 137.452,386.547 139.745 C 387.056 142.038,387.912 145.229,388.449 146.835 C 389.029 148.569,389.680 151.973,390.051 155.209 C 390.422 158.446,391.058 161.772,391.617 163.392 C 394.240 171.007,394.254 211.852,391.635 219.873 C 391.106 221.495,390.413 225.187,390.051 228.320 C 389.632 231.945,389.021 235.039,388.298 237.196 C 387.687 239.017,386.828 242.162,386.389 244.186 C 385.949 246.210,385.172 248.666,384.661 249.643 C 384.150 250.620,383.273 253.144,382.712 255.252 C 382.151 257.360,381.364 259.549,380.963 260.117 C 380.562 260.684,379.763 262.726,379.187 264.654 C 378.612 266.582,377.834 268.598,377.460 269.133 C 377.085 269.669,376.368 271.218,375.865 272.576 C 375.363 273.934,374.517 275.687,373.985 276.470 C 373.453 277.254,372.458 279.123,371.773 280.623 C 371.088 282.122,370.245 283.583,369.899 283.868 C 369.554 284.152,369.067 285.029,368.819 285.815 C 368.570 286.601,367.865 287.885,367.253 288.667 C 366.640 289.450,365.837 290.852,365.468 291.783 C 364.787 293.505,361.279 298.912,359.695 300.682 C 359.216 301.217,358.348 302.547,357.768 303.638 C 357.187 304.728,355.804 306.664,354.695 307.941 C 353.585 309.218,352.064 311.093,351.315 312.107 C 350.565 313.122,348.900 315.275,347.614 316.892 C 346.329 318.509,344.822 320.421,344.265 321.140 C 342.409 323.536,329.348 336.269,324.899 340.019 C 322.485 342.055,319.622 344.476,318.538 345.401 C 316.268 347.336,308.762 352.429,305.230 354.430 C 303.906 355.180,301.280 356.804,299.393 358.039 C 297.507 359.274,294.937 360.802,293.684 361.435 C 292.430 362.067,290.775 363.012,290.006 363.534 C 289.237 364.056,287.126 365.019,285.315 365.675 C 283.505 366.330,280.218 367.730,278.013 368.785 C 273.582 370.906,269.570 372.463,264.265 374.122 C 262.337 374.725,259.755 375.623,258.528 376.119 C 257.300 376.615,255.753 377.020,255.089 377.020 C 254.424 377.020,252.362 377.557,250.505 378.212 C 248.648 378.867,245.201 379.733,242.844 380.137 C 240.487 380.540,236.981 381.220,235.054 381.647 C 225.567 383.753,191.583 384.573,182.256 382.922 C 181.065 382.711,177.892 382.093,175.204 381.549 C 172.516 381.004,169.109 380.448,167.632 380.313 C 163.866 379.968,149.981 376.236,143.801 373.907 C 140.954 372.835,138.396 371.957,138.118 371.957 C 137.840 371.957,136.560 371.431,135.274 370.789 C 133.987 370.146,131.914 369.269,130.666 368.839 C 129.418 368.410,127.682 367.643,126.808 367.134 C 125.934 366.625,124.255 365.809,123.077 365.320 C 121.899 364.830,120.364 364.011,119.666 363.498 C 118.968 362.985,117.443 362.237,116.277 361.836 C 113.317 360.818,104.906 355.892,101.461 353.159 C 100.818 352.650,99.241 351.580,97.955 350.782 C 96.670 349.985,94.479 348.467,93.087 347.409 C 91.694 346.351,89.737 344.907,88.737 344.200 C 87.738 343.492,85.635 341.704,84.064 340.226 C 82.493 338.748,80.682 337.170,80.039 336.718 C 79.396 336.267,78.159 335.204,77.289 334.356 C 76.419 333.508,74.578 331.741,73.199 330.430 C 71.820 329.119,70.322 327.630,69.870 327.120 C 69.418 326.610,68.629 325.798,68.117 325.316 C 67.605 324.833,66.453 323.606,65.557 322.589 C 64.661 321.572,63.209 319.925,62.330 318.929 C 61.451 317.932,60.256 316.496,59.675 315.737 C 59.093 314.978,57.547 313.076,56.239 311.511 C 54.931 309.946,53.503 307.965,53.065 307.108 C 52.627 306.251,51.708 304.849,51.022 303.992 C 50.337 303.135,49.420 301.733,48.985 300.876 C 48.549 300.019,47.678 298.705,47.049 297.955 C 45.450 296.050,43.487 293.090,42.095 290.486 C 41.445 289.270,40.742 288.169,40.532 288.039 C 40.103 287.774,31.803 271.038,31.348 269.523 C 31.188 268.987,30.462 267.308,29.735 265.790 C 28.134 262.443,25.966 256.478,24.723 251.996 C 24.218 250.175,23.376 247.546,22.850 246.154 C 20.970 241.170,16.312 214.534,16.345 208.958 C 16.352 207.887,16.096 204.557,15.778 201.558 C 14.984 194.085,15.037 190.922,16.168 178.455 C 18.624 151.381,22.790 132.925,29.811 118.014 C 30.769 115.979,31.709 113.570,31.898 112.660 C 32.088 111.751,32.776 110.173,33.426 109.155 C 34.076 108.136,34.985 106.339,35.446 105.161 C 35.907 103.982,36.505 102.756,36.777 102.434 C 37.048 102.113,37.834 100.623,38.523 99.124 C 39.212 97.624,40.101 96.047,40.498 95.618 C 40.895 95.190,41.646 93.875,42.165 92.697 C 42.685 91.519,43.552 90.029,44.092 89.387 C 44.632 88.744,45.430 87.517,45.864 86.660 C 46.299 85.803,47.047 84.752,47.526 84.323 C 48.005 83.895,48.730 82.773,49.137 81.830 C 49.544 80.887,50.403 79.516,51.047 78.783 C 51.690 78.050,52.658 76.806,53.197 76.018 C 55.104 73.230,57.086 70.581,59.251 67.926 C 64.573 61.398,80.906 45.312,85.559 42.015 C 86.882 41.078,89.160 39.338,90.622 38.148 C 93.191 36.057,97.171 33.271,100.938 30.925 C 101.936 30.304,104.302 28.736,106.196 27.441 C 108.090 26.146,110.808 24.599,112.235 24.004 C 113.663 23.408,115.129 22.591,115.494 22.188 C 115.858 21.785,117.266 21.086,118.622 20.635 C 119.978 20.183,121.491 19.505,121.985 19.127 C 123.188 18.205,132.220 13.836,134.177 13.229 C 135.034 12.964,136.543 12.342,137.530 11.848 C 138.517 11.353,140.892 10.508,142.808 9.969 C 144.724 9.430,147.076 8.551,148.035 8.015 C 149.104 7.418,151.207 6.804,153.468 6.429 C 155.497 6.093,158.494 5.303,160.128 4.673 C 163.107 3.524,165.019 3.158,172.444 2.314 C 176.266 1.879,176.436 1.820,176.436 0.930 L 176.436 0.000 88.218 0.000 L 0.000 0.000 0.000 194.742 " stroke="none" fill="#f5f6f5" fill-rule="evenodd"></path><path id="path1" d="M188.121 0.931 C 188.121 2.781,184.364 3.681,173.424 4.455 C 166.322 4.957,165.870 5.036,164.740 5.987 C 163.314 7.187,161.860 7.596,156.977 8.171 C 153.981 8.523,152.965 8.821,151.547 9.760 C 149.660 11.010,148.165 11.500,144.987 11.910 C 143.811 12.062,142.572 12.504,142.066 12.952 C 140.909 13.978,139.345 14.615,136.608 15.176 C 135.352 15.434,133.871 16.051,133.243 16.579 C 132.627 17.098,130.851 17.953,129.297 18.478 C 127.743 19.004,126.014 19.873,125.455 20.409 C 124.895 20.945,123.320 21.731,121.955 22.156 C 120.590 22.581,119.013 23.357,118.451 23.880 C 117.889 24.403,116.530 25.123,115.430 25.479 C 114.331 25.836,113.104 26.497,112.704 26.949 C 112.304 27.401,110.894 28.266,109.571 28.872 C 108.247 29.477,106.933 30.290,106.650 30.677 C 106.366 31.065,105.039 32.121,103.700 33.023 C 97.900 36.932,96.590 37.858,96.386 38.187 C 96.268 38.379,95.401 38.877,94.460 39.293 C 93.520 39.709,92.344 40.519,91.848 41.093 C 90.950 42.130,86.713 45.442,84.376 46.933 C 83.328 47.601,81.783 48.950,79.623 51.081 C 77.296 53.376,76.560 54.089,75.457 55.114 C 74.764 55.758,73.704 56.602,73.101 56.989 C 72.498 57.377,71.679 58.455,71.280 59.386 C 70.881 60.317,70.223 61.183,69.817 61.312 C 69.411 61.441,68.694 62.067,68.223 62.704 C 67.752 63.341,66.845 64.132,66.207 64.462 C 65.568 64.793,64.797 65.660,64.492 66.390 C 64.186 67.121,63.422 67.985,62.792 68.310 C 62.163 68.636,61.426 69.440,61.153 70.097 C 60.881 70.754,60.190 71.568,59.618 71.906 C 59.046 72.244,58.184 73.378,57.703 74.427 C 57.222 75.475,56.136 77.134,55.289 78.112 C 54.442 79.091,53.749 80.129,53.749 80.419 C 53.749 80.709,53.212 81.443,52.557 82.051 C 51.902 82.658,51.119 83.731,50.818 84.436 C 50.517 85.141,49.684 86.455,48.967 87.357 C 48.251 88.259,47.337 89.752,46.937 90.675 C 46.537 91.598,45.715 92.706,45.111 93.136 C 44.506 93.567,44.010 94.126,44.008 94.379 C 44.001 95.241,42.028 99.122,41.298 99.708 C 40.898 100.029,40.098 101.694,39.519 103.408 C 38.940 105.122,38.193 106.836,37.858 107.217 C 37.272 107.883,35.104 113.788,35.070 114.808 C 35.061 115.080,33.936 117.621,32.570 120.456 C 31.074 123.560,29.594 127.389,28.848 130.088 C 28.167 132.551,27.379 134.921,27.097 135.354 C 26.815 135.787,26.198 138.241,25.728 140.807 C 24.676 146.537,24.053 149.122,23.054 151.899 C 22.571 153.241,22.045 156.513,21.645 160.662 C 21.294 164.304,20.748 168.685,20.430 170.399 C 19.249 176.780,19.033 179.193,18.811 188.499 C 18.558 199.092,19.055 207.252,20.286 212.739 C 20.705 214.605,21.220 218.285,21.430 220.918 C 21.641 223.552,21.984 226.407,22.192 227.264 C 22.401 228.121,22.576 229.470,22.581 230.262 C 22.586 231.055,23.005 233.070,23.513 234.741 C 24.020 236.413,24.823 239.796,25.297 242.259 C 25.771 244.722,26.509 247.307,26.936 248.001 C 27.364 248.696,28.217 251.243,28.832 253.662 C 29.447 256.080,30.384 258.842,30.912 259.799 C 31.441 260.756,32.263 262.853,32.737 264.460 C 33.212 266.066,33.831 267.647,34.112 267.973 C 34.393 268.298,35.175 269.876,35.851 271.478 C 36.526 273.080,37.480 274.830,37.969 275.365 C 39.092 276.594,39.941 278.288,40.311 280.039 C 40.469 280.789,41.193 282.423,41.920 283.670 C 42.647 284.917,43.405 286.665,43.605 287.554 C 43.829 288.551,44.347 289.445,44.958 289.890 C 45.897 290.575,47.517 293.591,47.517 294.656 C 47.517 294.929,48.120 295.508,48.856 295.942 C 49.815 296.508,50.333 297.190,50.678 298.341 C 50.943 299.225,51.471 300.115,51.851 300.319 C 52.232 300.522,53.001 301.608,53.562 302.730 C 54.122 303.853,55.169 305.385,55.888 306.134 C 56.607 306.884,57.350 308.111,57.539 308.861 C 57.798 309.890,58.231 310.390,59.310 310.903 C 60.124 311.291,61.015 312.127,61.385 312.851 C 61.742 313.548,62.267 314.256,62.552 314.423 C 62.838 314.591,63.679 315.642,64.422 316.760 C 65.165 317.878,66.284 319.318,66.910 319.961 C 67.536 320.604,68.338 321.694,68.692 322.384 C 69.046 323.074,69.729 323.845,70.209 324.097 C 70.688 324.349,72.308 325.819,73.807 327.363 C 75.307 328.907,77.059 330.496,77.702 330.895 C 78.345 331.294,79.221 331.938,79.649 332.326 C 80.078 332.714,81.392 333.693,82.571 334.503 C 83.749 335.312,85.063 336.524,85.492 337.196 C 85.920 337.868,86.779 338.635,87.401 338.901 C 88.023 339.167,89.513 340.247,90.712 341.301 C 91.911 342.355,94.011 344.031,95.380 345.026 C 96.748 346.021,98.413 347.297,99.080 347.861 C 99.747 348.425,100.920 349.149,101.687 349.469 C 102.455 349.789,103.459 350.530,103.919 351.115 C 104.379 351.701,105.994 352.780,107.508 353.514 C 109.021 354.248,110.355 355.097,110.471 355.400 C 110.587 355.703,111.324 356.161,112.108 356.418 C 112.893 356.675,114.674 357.455,116.066 358.151 C 117.459 358.848,119.621 359.870,120.871 360.423 C 122.122 360.976,123.651 361.855,124.270 362.376 C 124.889 362.897,125.969 363.446,126.670 363.598 C 128.119 363.911,130.757 365.160,131.683 365.971 C 132.025 366.271,133.865 366.964,135.772 367.512 C 137.680 368.059,139.854 368.926,140.604 369.439 C 141.353 369.951,143.264 370.642,144.850 370.976 C 146.435 371.309,148.122 371.798,148.598 372.062 C 149.074 372.325,149.998 372.845,150.650 373.217 C 151.303 373.588,153.962 374.234,156.561 374.651 C 159.628 375.143,161.791 375.709,162.726 376.265 C 164.934 377.577,166.025 377.790,172.596 378.195 C 178.817 378.579,182.965 379.252,185.395 380.272 C 190.104 382.249,220.734 381.848,226.238 379.738 C 227.481 379.261,230.086 378.782,232.664 378.554 C 242.507 377.686,243.538 377.509,245.959 376.270 C 247.795 375.330,249.130 374.987,252.191 374.670 C 255.987 374.276,258.228 373.708,258.228 373.140 C 258.228 372.515,260.953 371.537,264.190 371.000 C 266.735 370.577,267.921 370.178,268.784 369.451 C 269.424 368.913,270.684 368.272,271.585 368.026 C 275.209 367.038,275.821 366.788,276.960 365.830 C 277.621 365.273,279.381 364.506,280.942 364.094 C 282.480 363.688,284.229 363.002,284.828 362.568 C 286.107 361.643,290.553 359.494,291.189 359.494 C 291.430 359.494,291.869 359.204,292.163 358.850 C 292.457 358.495,293.749 357.730,295.034 357.150 C 296.319 356.570,297.722 355.702,298.150 355.221 C 298.962 354.310,301.487 352.872,302.274 352.872 C 302.525 352.872,303.377 352.303,304.168 351.607 C 304.960 350.910,306.383 349.853,307.332 349.257 C 310.593 347.207,312.952 345.522,313.924 344.548 C 314.460 344.011,315.351 343.338,315.905 343.053 C 316.947 342.517,319.199 340.662,323.487 336.806 C 324.857 335.574,326.120 334.567,326.293 334.567 C 326.947 334.567,341.393 319.885,342.504 318.090 C 342.876 317.489,344.047 316.042,345.105 314.873 C 346.164 313.704,347.030 312.604,347.030 312.428 C 347.030 312.252,347.446 311.886,347.954 311.614 C 348.462 311.342,349.259 310.442,349.724 309.615 C 350.189 308.788,351.075 307.751,351.693 307.311 C 352.311 306.871,353.018 305.901,353.264 305.155 C 353.510 304.410,354.324 303.067,355.072 302.170 C 355.821 301.274,356.772 299.877,357.186 299.066 C 357.600 298.255,358.300 297.398,358.742 297.162 C 359.183 296.925,359.866 295.983,360.258 295.069 C 360.650 294.154,361.407 293.071,361.940 292.662 C 362.552 292.193,363.230 290.936,363.774 289.262 C 364.409 287.312,364.887 286.493,365.573 286.180 C 366.176 285.906,366.652 285.221,366.913 284.252 C 367.489 282.112,368.793 279.133,369.354 278.676 C 369.617 278.462,370.335 277.023,370.950 275.478 C 371.565 273.934,372.482 272.282,372.986 271.808 C 373.491 271.333,373.905 270.707,373.905 270.416 C 373.905 269.330,375.553 265.015,376.259 264.256 C 376.661 263.822,377.264 262.288,377.599 260.847 C 378.283 257.894,378.795 256.571,379.857 255.007 C 380.260 254.414,380.905 252.392,381.289 250.513 C 381.733 248.349,382.422 246.391,383.171 245.166 C 384.102 243.642,384.485 242.337,384.975 239.003 C 385.363 236.373,386.021 233.796,386.718 232.187 C 387.566 230.226,387.901 228.706,388.100 225.901 C 388.546 219.621,389.883 209.522,390.491 207.835 C 392.242 202.985,392.196 184.501,390.414 176.241 C 389.589 172.419,388.774 165.914,388.301 159.365 C 387.934 154.294,387.791 153.596,386.744 151.739 C 385.615 149.739,385.383 148.608,384.607 141.316 C 384.440 139.742,384.102 138.815,383.430 138.091 C 382.427 137.008,381.508 134.248,381.089 131.061 C 380.949 129.990,380.439 128.500,379.956 127.751 C 378.995 126.258,378.518 125.035,377.773 122.155 C 377.504 121.113,376.864 119.761,376.351 119.152 C 375.838 118.543,375.016 116.581,374.524 114.793 C 373.948 112.699,373.283 111.196,372.655 110.568 C 372.119 110.032,371.277 108.377,370.784 106.890 C 370.291 105.403,369.581 103.969,369.205 103.703 C 368.830 103.437,368.032 101.967,367.432 100.438 C 366.832 98.908,365.885 97.198,365.327 96.637 C 364.770 96.077,364.005 94.669,363.628 93.510 C 363.250 92.350,362.538 91.084,362.046 90.696 C 361.554 90.309,360.760 89.030,360.283 87.853 C 359.795 86.651,359.102 85.615,358.702 85.488 C 358.310 85.363,357.511 84.437,356.926 83.429 C 356.342 82.421,355.645 81.466,355.377 81.305 C 355.109 81.145,354.175 79.881,353.301 78.497 C 352.427 77.113,351.396 75.812,351.011 75.606 C 350.625 75.400,350.063 74.735,349.761 74.129 C 349.459 73.524,348.589 72.401,347.829 71.634 C 346.103 69.893,343.911 67.225,343.113 65.895 C 342.780 65.339,341.767 64.350,340.862 63.698 C 339.957 63.046,338.971 62.149,338.671 61.704 C 337.860 60.506,328.093 50.648,325.538 48.448 C 321.393 44.881,320.351 44.036,318.987 43.138 C 318.238 42.644,317.459 41.867,317.256 41.412 C 317.044 40.934,316.249 40.393,315.376 40.131 C 314.490 39.866,313.183 38.968,312.221 37.963 C 311.317 37.020,309.925 35.976,309.126 35.642 C 308.328 35.309,307.337 34.698,306.925 34.286 C 306.513 33.874,305.597 33.239,304.889 32.875 C 304.182 32.510,302.888 31.628,302.015 30.915 C 301.141 30.201,299.739 29.335,298.899 28.989 C 298.059 28.644,296.845 27.881,296.203 27.293 C 295.560 26.705,293.982 25.834,292.697 25.358 C 291.412 24.882,289.922 24.086,289.387 23.589 C 288.851 23.092,287.461 22.377,286.298 21.999 C 285.025 21.586,283.708 20.806,282.988 20.039 C 282.128 19.124,281.299 18.689,280.039 18.490 C 278.072 18.180,276.267 17.370,275.306 16.366 C 274.952 15.997,273.143 15.323,271.286 14.869 C 269.192 14.357,267.478 13.681,266.773 13.087 C 266.120 12.538,264.681 11.940,263.392 11.683 C 259.351 10.877,258.279 10.509,257.113 9.528 C 256.222 8.778,255.230 8.469,252.714 8.157 C 247.446 7.503,245.499 7.021,243.990 5.997 C 242.695 5.118,241.890 4.978,235.110 4.453 C 231.009 4.135,227.390 3.803,227.069 3.715 C 221.381 2.160,220.837 1.919,220.837 0.957 L 220.837 0.000 204.479 0.000 L 188.121 0.000 188.121 0.931 M212.853 16.522 C 222.742 16.677,224.803 16.820,229.406 17.670 C 234.760 18.659,239.515 19.493,244.394 20.297 C 245.890 20.544,248.256 21.180,249.652 21.711 C 251.049 22.241,253.944 23.080,256.086 23.574 C 258.228 24.068,260.944 24.900,262.123 25.424 C 263.301 25.948,266.105 26.941,268.354 27.631 C 275.265 29.751,294.564 39.623,302.240 44.963 C 304.651 46.641,307.051 48.270,309.445 49.854 C 310.730 50.705,312.497 51.973,313.371 52.672 C 314.246 53.372,316.086 54.779,317.461 55.800 C 324.400 60.952,339.201 75.617,341.041 79.163 C 341.347 79.752,341.761 80.234,341.960 80.234 C 342.160 80.234,342.784 81.019,343.347 81.980 C 343.909 82.940,344.868 84.145,345.478 84.658 C 346.087 85.170,347.168 86.460,347.879 87.523 C 351.449 92.860,352.326 94.086,352.780 94.375 C 353.051 94.548,353.798 95.687,354.440 96.907 C 355.081 98.126,356.215 99.972,356.960 101.008 C 357.704 102.044,358.492 103.554,358.710 104.364 C 358.928 105.174,360.003 107.042,361.098 108.517 C 363.910 112.302,364.757 113.701,365.316 115.482 C 365.584 116.339,366.376 118.179,367.076 119.572 C 367.775 120.964,368.569 123.067,368.839 124.245 C 369.110 125.424,369.901 127.439,370.598 128.724 C 371.295 130.010,372.174 132.376,372.552 133.982 C 372.929 135.589,373.540 137.342,373.909 137.877 C 375.278 139.866,375.844 141.381,376.262 144.169 C 376.498 145.743,377.101 148.351,377.602 149.965 C 378.103 151.579,378.883 155.435,379.335 158.533 C 379.787 161.632,380.500 166.008,380.920 168.257 C 383.160 180.271,383.331 198.377,381.329 211.685 C 380.653 216.183,379.850 221.825,379.546 224.223 C 378.881 229.472,378.716 230.190,377.574 232.802 C 377.085 233.919,376.405 236.724,376.063 239.033 C 375.659 241.759,375.057 244.053,374.349 245.571 C 373.748 246.856,372.941 249.223,372.554 250.829 C 372.056 252.897,370.155 257.155,366.034 265.433 C 356.660 284.260,356.255 285.000,354.140 287.177 C 353.007 288.343,351.977 289.848,351.696 290.750 C 350.897 293.308,349.842 295.115,348.654 295.961 C 348.038 296.399,346.889 297.685,346.101 298.817 C 345.313 299.950,344.057 301.315,343.311 301.850 C 342.564 302.386,341.411 303.822,340.748 305.043 C 340.085 306.264,338.525 308.192,337.282 309.327 C 336.038 310.463,332.631 313.707,329.710 316.537 C 326.789 319.366,323.665 322.258,322.768 322.963 C 321.870 323.668,319.929 325.349,318.454 326.697 C 316.979 328.046,315.096 329.494,314.270 329.915 C 313.443 330.337,312.463 331.145,312.092 331.712 C 311.721 332.278,309.659 333.877,307.510 335.264 C 305.361 336.652,303.080 338.225,302.441 338.760 C 301.802 339.295,300.049 340.316,298.546 341.030 C 297.043 341.744,294.586 343.036,293.087 343.902 C 291.587 344.767,289.309 346.025,288.023 346.697 C 286.738 347.369,285.141 348.334,284.475 348.842 C 283.809 349.350,281.987 350.200,280.427 350.731 C 278.866 351.262,276.789 352.165,275.810 352.739 C 274.831 353.313,272.534 354.263,270.705 354.850 C 268.877 355.437,265.015 356.912,262.123 358.127 C 259.231 359.342,255.560 360.581,253.964 360.882 C 252.369 361.182,248.952 361.945,246.370 362.577 C 243.787 363.209,238.958 364.097,235.638 364.551 C 232.317 365.005,228.466 365.636,227.079 365.955 C 219.072 367.793,196.278 368.074,183.866 366.486 C 173.414 365.150,165.118 363.757,163.245 363.025 C 162.253 362.637,159.602 361.922,157.354 361.436 C 155.106 360.950,150.637 359.589,147.422 358.411 C 144.208 357.233,140.000 355.702,138.072 355.009 C 136.144 354.317,133.534 353.273,132.271 352.690 C 131.009 352.107,129.265 351.379,128.396 351.073 C 127.527 350.766,126.019 350.063,125.044 349.510 C 124.069 348.958,121.931 347.935,120.293 347.237 C 118.655 346.539,114.536 344.126,111.140 341.875 C 107.744 339.624,104.352 337.470,103.603 337.088 C 101.400 335.966,96.221 332.258,93.281 329.697 C 91.782 328.391,90.029 327.000,89.387 326.606 C 88.744 326.212,86.641 324.349,84.713 322.466 C 82.785 320.582,79.551 317.495,77.526 315.606 C 73.426 311.780,68.936 306.885,64.958 301.905 C 64.041 300.757,62.502 298.885,61.538 297.746 C 59.628 295.486,58.593 294.013,54.574 287.829 C 53.112 285.579,51.555 283.528,51.114 283.271 C 50.674 283.013,49.938 281.786,49.480 280.544 C 49.022 279.302,48.153 277.585,47.549 276.728 C 46.945 275.871,45.994 274.264,45.435 273.156 C 44.876 272.048,43.988 270.507,43.462 269.732 C 42.936 268.956,42.205 267.409,41.837 266.294 C 41.470 265.178,40.684 263.389,40.091 262.317 C 39.498 261.246,38.756 259.486,38.441 258.406 C 38.127 257.326,37.429 255.573,36.889 254.511 C 36.350 253.449,34.854 249.338,33.566 245.375 C 29.010 231.365,29.027 231.430,27.847 223.014 C 27.520 220.677,26.992 217.642,26.674 216.271 C 26.356 214.900,26.094 212.343,26.093 210.589 C 26.092 208.835,25.918 206.349,25.707 205.063 C 24.633 198.525,25.233 175.869,26.677 168.452 C 27.177 165.881,27.783 162.376,28.023 160.662 C 28.596 156.570,29.095 154.279,30.192 150.713 C 30.689 149.097,31.299 146.643,31.549 145.260 C 31.798 143.877,32.420 141.957,32.931 140.993 C 33.442 140.029,34.369 137.384,34.991 135.116 C 35.613 132.847,36.574 129.955,37.125 128.689 C 37.676 127.423,39.203 123.846,40.519 120.740 C 41.834 117.634,43.316 114.557,43.812 113.903 C 44.308 113.249,45.261 111.584,45.929 110.203 C 46.598 108.822,48.009 106.290,49.065 104.576 C 50.120 102.863,51.628 100.278,52.415 98.832 C 53.201 97.386,53.991 96.203,54.169 96.203 C 54.348 96.203,55.193 95.005,56.048 93.541 C 56.903 92.077,57.866 90.660,58.189 90.392 C 58.513 90.124,59.253 89.087,59.835 88.088 C 61.050 86.000,63.062 83.449,65.080 81.435 C 65.849 80.667,66.643 79.736,66.843 79.367 C 67.975 77.274,82.713 62.312,86.340 59.573 C 87.449 58.736,88.460 57.882,88.588 57.676 C 88.715 57.469,90.769 55.953,93.152 54.305 C 95.535 52.657,97.982 50.743,98.589 50.052 C 99.196 49.360,100.667 48.200,101.856 47.474 C 103.046 46.748,105.455 45.234,107.211 44.109 C 108.966 42.984,110.600 42.064,110.842 42.064 C 111.084 42.064,112.052 41.396,112.993 40.580 C 115.046 38.798,119.038 36.580,123.054 34.988 C 124.673 34.346,126.524 33.502,127.167 33.112 C 127.809 32.722,129.451 31.937,130.816 31.367 C 132.180 30.797,133.933 29.936,134.711 29.454 C 135.488 28.972,137.669 28.175,139.556 27.683 C 141.443 27.191,144.002 26.282,145.242 25.662 C 146.481 25.043,148.853 24.189,150.513 23.764 C 152.172 23.340,155.196 22.459,157.234 21.806 C 159.271 21.154,162.278 20.436,163.916 20.212 C 165.554 19.987,168.734 19.389,170.983 18.882 C 178.050 17.289,191.573 16.013,198.832 16.254 C 200.331 16.304,206.641 16.425,212.853 16.522 M186.900 65.051 C 185.908 65.219,184.681 65.624,184.174 65.952 C 183.667 66.279,181.587 67.006,179.552 67.566 C 177.517 68.126,174.428 69.268,172.687 70.105 C 170.946 70.942,169.069 71.740,168.516 71.879 C 167.331 72.176,166.836 72.717,165.749 74.901 C 164.773 76.863,162.786 78.057,159.269 78.795 C 157.893 79.084,155.561 79.896,154.088 80.600 C 148.765 83.142,139.813 82.841,137.491 80.042 C 137.202 79.694,136.163 78.950,135.182 78.387 C 134.201 77.825,131.996 76.285,130.282 74.965 C 123.461 69.712,121.382 71.052,123.416 79.390 C 123.817 81.032,124.532 84.152,125.006 86.323 L 125.868 90.270 124.909 93.918 C 124.382 95.924,123.829 98.442,123.681 99.513 C 123.532 100.584,123.015 102.074,122.531 102.824 C 119.143 108.070,122.597 111.550,127.167 107.495 C 127.595 107.114,129.085 106.239,130.477 105.549 C 131.870 104.859,133.297 104.041,133.649 103.730 C 138.370 99.576,149.562 101.275,149.562 106.146 C 149.562 108.050,149.686 108.176,152.225 108.841 C 154.244 109.369,156.906 108.956,159.182 107.762 C 160.916 106.852,161.887 106.933,165.601 108.299 C 169.942 109.896,170.460 110.288,171.584 112.830 C 172.693 115.339,172.924 115.547,176.709 117.465 C 180.154 119.210,182.971 119.220,186.672 117.501 C 187.910 116.926,188.999 116.456,189.093 116.456 C 189.186 116.456,190.333 115.764,191.641 114.919 C 194.591 113.012,195.510 112.726,200.429 112.184 C 202.593 111.946,205.284 111.401,206.408 110.974 C 208.944 110.011,215.867 108.829,221.032 108.479 C 224.119 108.270,225.210 108.032,226.290 107.333 C 228.108 106.157,229.761 105.644,233.900 104.974 C 236.124 104.614,238.154 103.998,239.580 103.251 C 240.801 102.611,242.779 101.832,243.976 101.519 C 251.153 99.645,252.801 92.459,247.013 88.280 C 240.742 83.753,239.719 83.240,230.185 79.831 C 229.649 79.640,227.246 79.121,224.844 78.678 C 222.442 78.235,219.326 77.440,217.920 76.910 C 216.020 76.195,214.040 75.850,210.213 75.567 C 201.276 74.905,200.300 74.657,198.053 72.470 C 193.193 67.742,189.686 64.658,189.216 64.700 C 188.935 64.725,187.893 64.883,186.900 65.051 M255.112 169.866 C 254.576 170.081,252.561 170.528,250.633 170.860 C 248.672 171.197,246.183 171.934,244.985 172.532 C 243.807 173.120,241.879 173.910,240.701 174.287 C 237.965 175.162,236.203 176.806,234.847 179.748 C 233.168 183.391,231.799 184.247,226.481 184.973 C 224.315 185.268,222.600 185.796,220.837 186.709 C 213.349 190.590,208.311 189.117,199.644 180.513 C 196.170 177.064,193.143 176.046,192.431 178.087 C 191.924 179.542,192.532 184.454,193.560 187.200 C 195.641 192.763,195.445 198.411,192.994 203.505 C 188.705 212.418,191.037 215.655,198.053 210.525 C 198.695 210.055,200.016 209.379,200.987 209.022 C 201.958 208.665,203.695 207.767,204.846 207.025 C 209.948 203.739,216.284 204.877,218.008 209.390 C 219.786 214.048,223.007 215.611,227.153 213.828 C 232.328 211.602,240.191 214.231,242.648 219.009 C 243.961 221.560,244.121 221.711,246.933 223.056 C 252.013 225.486,252.456 225.402,260.008 220.568 C 261.555 219.578,263.430 218.755,264.775 218.478 C 265.994 218.226,268.744 217.414,270.886 216.673 C 273.964 215.609,275.802 215.245,279.649 214.934 C 282.787 214.680,285.561 214.205,287.451 213.596 C 289.065 213.076,292.794 212.302,295.738 211.876 C 299.012 211.402,301.978 210.729,303.371 210.142 C 304.624 209.615,306.890 208.924,308.407 208.608 C 314.986 207.236,322.468 201.987,321.079 199.719 C 319.493 197.130,316.920 194.396,314.734 192.975 C 313.324 192.059,311.657 190.768,311.027 190.105 C 310.398 189.442,309.697 188.899,309.469 188.898 C 308.229 188.891,305.946 187.932,304.444 186.785 C 303.269 185.888,301.839 185.277,299.860 184.827 C 298.278 184.467,296.028 183.626,294.861 182.958 C 292.930 181.854,292.333 181.722,288.239 181.503 C 285.349 181.348,283.321 181.045,282.571 180.656 C 281.905 180.310,279.811 179.940,277.702 179.796 C 271.423 179.366,268.714 178.214,264.165 174.039 C 259.996 170.213,257.320 168.979,255.112 169.866 M185.979 262.537 C 184.479 263.164,181.324 264.315,178.968 265.096 C 172.212 267.334,171.924 267.530,168.514 272.249 C 166.746 274.695,165.094 275.469,157.770 277.285 C 147.612 279.803,143.532 278.755,133.914 271.160 C 128.398 266.805,126.511 269.620,129.339 277.985 C 131.071 283.109,129.844 290.635,125.662 300.554 C 124.829 302.529,124.748 304.820,125.486 305.557 C 125.771 305.842,129.578 304.380,131.767 303.144 C 133.012 302.441,134.852 301.502,135.856 301.058 C 136.861 300.614,138.563 299.645,139.639 298.905 C 144.870 295.304,153.465 296.527,153.780 300.915 C 154.021 304.260,155.670 304.965,161.052 304.024 C 170.332 302.400,174.064 304.055,176.602 310.922 C 177.467 313.262,178.221 313.729,182.002 314.270 C 188.027 315.130,189.589 314.933,192.391 312.960 C 193.753 312.001,195.496 311.018,196.265 310.776 C 197.034 310.533,198.277 309.931,199.026 309.436 C 200.656 308.362,206.362 307.310,210.682 307.287 C 214.086 307.270,217.728 306.616,222.316 305.200 C 224.093 304.651,227.172 303.941,229.159 303.621 C 231.145 303.301,233.723 302.607,234.886 302.078 C 236.049 301.550,238.622 300.838,240.603 300.498 C 245.007 299.741,245.155 299.688,247.276 298.084 C 248.214 297.375,249.906 296.503,251.035 296.147 C 254.578 295.030,255.958 290.416,253.426 288.151 C 245.733 281.268,232.160 274.221,226.533 274.187 C 225.649 274.182,224.226 274.017,223.369 273.821 C 222.512 273.625,219.796 273.192,217.332 272.859 C 214.869 272.527,211.538 272.071,209.932 271.847 C 208.325 271.623,206.091 271.076,204.967 270.631 C 202.996 269.851,202.372 269.287,199.416 265.605 C 195.851 261.164,191.593 260.192,185.979 262.537 " stroke="none" fill="#07111f" fill-rule="evenodd"></path><path id="path2" d="M193.768 20.655 C 191.412 20.821,186.504 21.163,182.863 21.416 C 174.037 22.028,167.275 22.889,165.565 23.617 C 164.796 23.944,161.676 24.718,158.631 25.336 C 155.023 26.069,152.289 26.867,150.783 27.627 C 149.512 28.268,147.271 29.090,145.804 29.454 C 144.142 29.865,142.660 30.525,141.876 31.203 C 141.184 31.802,139.518 32.634,138.176 33.053 C 136.834 33.472,134.421 34.420,132.814 35.160 C 127.347 37.678,124.444 38.899,121.908 39.746 C 120.516 40.211,118.763 40.981,118.014 41.457 C 117.264 41.932,115.906 42.792,114.995 43.367 C 114.085 43.942,113.340 44.578,113.340 44.780 C 113.340 44.982,112.507 45.616,111.490 46.188 C 107.838 48.242,103.996 50.795,100.043 53.796 C 98.457 54.999,96.112 56.515,94.831 57.162 C 92.382 58.401,89.014 61.627,86.196 65.433 C 84.524 67.690,79.238 72.865,77.537 73.910 C 75.669 75.057,71.646 79.251,70.864 80.864 C 70.437 81.746,68.865 83.809,67.371 85.448 C 65.877 87.087,64.654 88.557,64.654 88.713 C 64.654 88.870,63.863 89.849,62.895 90.888 C 59.959 94.041,58.584 95.897,57.375 98.345 C 52.439 108.331,52.828 107.652,49.636 111.858 C 46.707 115.718,44.717 119.704,43.618 123.913 C 43.246 125.336,42.402 127.702,41.742 129.171 C 39.894 133.282,37.396 140.092,36.550 143.330 C 36.130 144.937,35.199 148.092,34.482 150.341 C 33.729 152.705,32.676 157.569,31.986 161.871 C 31.330 165.963,30.596 169.819,30.354 170.439 C 29.684 172.162,29.451 188.235,29.940 198.998 C 30.631 214.206,32.624 231.505,33.868 233.106 C 34.328 233.698,35.701 238.163,36.563 241.870 C 36.986 243.690,37.671 245.969,38.084 246.933 C 38.498 247.897,39.301 250.300,39.869 252.272 C 40.856 255.704,44.038 262.214,45.537 263.869 C 46.961 265.441,50.179 272.241,50.808 275.006 C 51.526 278.164,52.862 280.301,55.488 282.496 C 56.716 283.523,57.429 284.551,58.034 286.167 C 58.496 287.402,59.230 288.744,59.665 289.149 C 60.100 289.555,60.689 290.445,60.974 291.128 C 61.260 291.810,62.554 293.494,63.852 294.870 C 65.149 296.246,66.853 298.423,67.639 299.708 C 69.815 303.265,74.631 308.617,79.030 312.366 C 80.831 313.901,83.365 316.266,90.398 322.976 C 91.382 323.915,92.831 324.989,93.618 325.362 C 95.754 326.376,99.750 329.197,103.659 332.450 C 105.572 334.043,107.273 335.346,107.438 335.346 C 107.604 335.346,108.634 336.091,109.729 337.001 C 113.467 340.110,120.781 343.764,127.167 345.711 C 128.238 346.038,130.428 346.901,132.035 347.629 C 138.708 350.654,142.492 352.214,144.774 352.884 C 146.104 353.274,148.558 354.201,150.227 354.943 C 152.093 355.774,154.987 356.616,157.741 357.131 C 160.204 357.592,163.710 358.392,165.531 358.908 C 169.508 360.037,175.169 360.895,182.278 361.446 C 185.170 361.670,188.939 362.016,190.652 362.214 C 197.737 363.036,220.928 362.512,225.802 361.420 C 226.807 361.194,230.088 360.843,233.094 360.638 C 242.121 360.022,252.131 357.705,255.611 355.424 C 256.529 354.823,260.639 353.141,267.381 350.610 C 269.094 349.966,271.986 349.040,273.807 348.552 C 278.864 347.195,281.291 345.948,282.830 343.914 C 284.539 341.656,287.085 340.334,291.751 339.280 C 296.107 338.296,298.464 336.803,303.977 331.533 C 305.809 329.781,307.997 327.997,308.837 327.568 C 309.678 327.139,310.478 326.607,310.615 326.386 C 310.751 326.164,311.751 325.533,312.836 324.983 C 313.921 324.434,315.267 323.542,315.827 323.002 C 316.387 322.462,317.556 321.556,318.425 320.989 C 320.939 319.350,323.903 316.565,324.599 315.190 C 324.951 314.494,325.371 313.924,325.533 313.924 C 325.694 313.924,326.792 313.004,327.972 311.879 C 331.730 308.298,335.981 304.530,337.074 303.813 C 337.656 303.431,338.530 302.264,339.016 301.219 C 339.501 300.174,340.367 298.763,340.941 298.084 C 341.514 297.406,342.320 296.091,342.732 295.163 C 343.144 294.235,344.296 292.687,345.293 291.723 C 346.289 290.759,347.814 288.919,348.682 287.634 C 349.550 286.349,350.937 284.632,351.764 283.819 C 353.273 282.336,355.184 278.752,356.789 274.391 C 357.263 273.106,357.794 271.871,357.969 271.647 C 358.145 271.423,359.095 269.671,360.082 267.753 C 361.068 265.834,362.916 262.249,364.187 259.786 C 365.458 257.322,366.856 254.013,367.293 252.432 C 367.730 250.850,368.511 248.659,369.028 247.563 C 369.545 246.467,370.153 244.737,370.380 243.719 C 370.930 241.249,372.170 238.038,372.878 237.249 C 373.193 236.899,373.746 234.859,374.107 232.717 C 374.468 230.574,375.022 228.121,375.338 227.264 C 376.862 223.131,377.069 221.744,377.593 212.222 C 378.272 199.866,378.078 177.805,377.236 171.568 C 374.922 154.420,373.898 149.451,371.900 145.667 C 370.403 142.830,366.504 133.631,366.504 132.934 C 366.504 132.743,365.964 130.930,365.304 128.903 C 364.643 126.877,363.766 123.689,363.354 121.818 C 362.153 116.359,361.100 114.417,357.861 111.691 C 356.863 110.850,356.235 109.805,353.244 103.992 C 351.387 100.386,349.686 97.858,347.609 95.618 C 343.038 90.691,341.658 88.789,339.552 84.518 C 337.117 79.579,335.452 77.865,329.189 73.854 C 327.243 72.607,326.011 71.488,325.294 70.315 C 324.717 69.371,323.848 68.381,323.362 68.115 C 322.876 67.849,321.613 66.282,320.555 64.633 C 318.387 61.253,315.969 58.943,313.013 57.426 C 311.907 56.859,309.806 55.791,308.343 55.051 C 306.880 54.312,304.952 53.047,304.058 52.240 C 303.165 51.433,301.777 50.376,300.974 49.892 C 300.170 49.408,299.513 48.854,299.513 48.662 C 299.513 48.469,298.856 47.955,298.053 47.518 C 297.249 47.081,295.803 46.150,294.839 45.448 C 293.875 44.747,292.139 43.784,290.980 43.309 C 288.435 42.266,284.173 39.651,282.571 38.150 C 281.038 36.715,278.332 35.696,273.914 34.893 C 269.845 34.153,267.512 33.394,263.240 31.423 C 261.605 30.669,259.470 29.932,258.496 29.786 C 257.474 29.633,255.849 28.940,254.653 28.147 C 253.300 27.250,251.363 26.466,249.075 25.891 C 247.147 25.406,244.343 24.537,242.843 23.961 C 240.669 23.126,238.827 22.803,233.750 22.367 C 230.248 22.067,226.735 21.646,225.942 21.433 C 222.094 20.397,203.766 19.954,193.768 20.655 M191.864 61.980 C 193.137 62.300,193.957 62.838,194.861 63.946 C 195.545 64.785,196.759 65.815,197.558 66.235 C 198.357 66.655,199.269 67.500,199.586 68.111 C 199.939 68.796,200.580 69.309,201.249 69.445 C 202.271 69.653,205.404 71.035,207.597 72.246 C 208.165 72.559,210.900 72.960,214.129 73.203 C 219.939 73.640,226.038 74.668,229.017 75.713 C 229.981 76.051,231.057 76.330,231.410 76.333 C 232.648 76.344,237.095 77.902,238.404 78.784 C 239.132 79.274,240.675 80.081,241.833 80.576 C 247.329 82.926,252.209 86.971,253.992 90.656 C 256.373 95.573,252.750 102.770,247.351 103.850 C 246.647 103.991,244.799 104.764,243.245 105.568 C 241.691 106.372,239.388 107.239,238.126 107.493 C 236.865 107.748,234.956 108.377,233.885 108.891 C 230.533 110.501,214.076 113.817,205.063 114.699 C 200.781 115.118,194.564 117.410,191.670 119.637 C 189.810 121.068,185.856 121.956,180.324 122.187 C 173.018 122.491,171.859 121.852,168.980 115.927 C 167.589 113.063,164.979 111.927,161.114 112.502 C 153.571 113.624,148.342 111.978,144.342 107.224 C 142.216 104.698,137.277 105.421,133.009 108.882 C 128.021 112.927,119.379 114.882,116.999 112.503 C 115.739 111.243,116.127 106.563,117.760 103.315 C 120.535 97.797,121.070 92.999,119.809 84.941 C 118.260 75.047,117.677 69.265,118.137 68.354 C 119.544 65.569,122.826 65.496,126.211 68.175 C 126.970 68.776,128.569 69.700,129.764 70.228 C 130.958 70.756,132.052 71.377,132.194 71.607 C 132.336 71.837,134.108 73.000,136.132 74.191 C 141.346 77.260,144.368 77.699,152.203 76.528 C 157.418 75.748,158.147 75.386,162.206 71.565 C 162.842 70.967,164.354 70.115,165.567 69.673 C 166.917 69.181,168.088 68.442,168.586 67.768 C 169.954 65.918,174.299 63.981,178.248 63.460 C 180.144 63.210,183.096 62.690,184.810 62.305 C 188.586 61.456,189.599 61.409,191.864 61.980 M262.675 168.087 C 264.620 169.089,266.650 170.306,267.186 170.792 C 267.722 171.278,269.474 172.547,271.081 173.611 C 274.241 175.705,274.497 175.762,288.023 177.435 C 292.340 177.969,297.759 179.785,301.850 182.070 C 302.386 182.369,303.649 182.900,304.658 183.251 C 305.667 183.602,307.149 184.334,307.952 184.879 C 308.754 185.424,310.169 186.098,311.095 186.376 C 322.328 189.757,328.695 200.143,322.822 205.508 C 320.166 207.934,309.568 212.565,304.165 213.660 C 302.359 214.026,300.092 214.672,299.126 215.095 C 296.174 216.389,293.809 216.876,288.272 217.330 C 282.114 217.835,280.663 218.081,273.028 219.920 C 269.009 220.888,267.100 221.537,266.407 222.171 C 258.151 229.723,241.791 228.475,235.696 219.829 C 233.799 217.138,230.772 216.555,227.035 218.163 C 223.344 219.751,216.982 216.987,214.264 212.616 C 212.035 209.029,208.405 208.597,205.033 211.516 C 204.076 212.344,202.579 213.236,201.705 213.498 C 200.831 213.759,199.853 214.375,199.531 214.867 C 198.735 216.082,196.816 217.183,194.937 217.502 C 194.080 217.648,192.459 218.105,191.334 218.518 L 189.289 219.269 188.060 218.170 C 186.917 217.149,186.819 216.857,186.656 213.989 C 186.480 210.874,186.555 210.385,188.692 200.779 C 189.842 195.608,189.832 189.590,188.663 182.863 C 187.881 178.363,187.936 172.223,188.765 171.306 C 189.920 170.031,192.890 170.333,194.643 171.904 C 195.447 172.625,196.644 173.489,197.302 173.826 C 197.960 174.162,198.728 174.714,199.009 175.052 C 199.289 175.390,200.251 175.990,201.145 176.386 C 202.118 176.816,203.623 178.083,204.888 179.538 C 209.728 185.103,212.742 185.373,223.174 181.177 C 224.781 180.531,226.816 179.813,227.698 179.583 C 229.107 179.214,229.382 178.949,229.978 177.387 C 230.851 175.103,231.716 174.299,235.054 172.672 C 236.553 171.941,238.504 170.910,239.389 170.381 C 240.379 169.788,242.550 169.127,245.036 168.660 C 247.258 168.242,250.389 167.459,251.996 166.919 C 256.120 165.534,258.142 165.755,262.675 168.087 M197.533 258.775 C 200.553 260.650,202.641 262.236,204.976 264.429 C 208.403 267.646,214.204 269.216,225.316 269.931 C 236.118 270.627,241.875 273.104,249.650 280.401 C 249.976 280.708,251.397 281.705,252.807 282.617 C 260.276 287.451,260.961 295.809,254.129 298.738 C 253.209 299.133,252.346 299.803,252.211 300.228 C 251.452 302.620,241.926 305.509,233.400 305.934 C 228.406 306.182,228.206 306.226,227.135 307.297 C 225.365 309.067,222.678 309.640,216.140 309.640 C 210.262 309.640,210.127 309.665,205.842 311.588 C 204.985 311.972,203.374 312.555,202.261 312.884 C 201.148 313.212,199.745 313.818,199.145 314.232 C 192.509 318.800,189.682 319.365,182.073 317.642 C 174.532 315.936,172.057 314.941,170.398 312.950 C 170.183 312.692,168.816 311.579,167.359 310.476 L 164.710 308.471 160.934 308.467 C 156.050 308.462,150.847 306.695,147.593 303.938 C 146.879 303.333,143.651 303.745,141.298 304.742 C 140.501 305.079,139.169 305.355,138.337 305.355 C 136.464 305.355,134.431 306.014,133.380 306.961 C 132.941 307.356,131.101 308.046,129.290 308.493 C 127.480 308.940,125.266 309.732,124.371 310.252 C 122.501 311.339,121.629 311.426,120.504 310.638 C 119.661 310.048,120.362 301.186,121.484 298.240 C 121.710 297.646,122.161 296.014,122.486 294.613 C 122.811 293.211,123.499 291.155,124.014 290.044 C 125.401 287.054,125.547 285.806,124.876 282.663 C 122.163 269.966,122.121 266.150,124.669 263.844 C 126.258 262.406,131.652 263.544,136.264 266.290 C 137.258 266.883,138.685 267.654,139.435 268.005 C 140.185 268.355,141.480 269.191,142.313 269.862 C 143.145 270.532,144.027 271.081,144.271 271.081 C 144.515 271.081,145.995 271.694,147.560 272.444 C 150.882 274.036,152.897 274.183,155.514 273.026 C 156.486 272.596,158.129 272.129,159.166 271.988 C 162.270 271.567,163.438 270.844,167.276 266.968 C 171.318 262.887,173.344 261.704,177.583 260.949 C 178.964 260.704,180.778 260.154,181.613 259.728 C 186.504 257.233,194.299 256.766,197.533 258.775 " stroke="none" fill="#0699d3" fill-rule="evenodd"></path><path id="path3" d="M188.705 16.622 C 180.187 17.149,176.695 17.594,170.983 18.882 C 168.734 19.389,165.554 19.987,163.916 20.212 C 162.278 20.436,159.271 21.154,157.234 21.806 C 155.196 22.459,152.172 23.340,150.513 23.764 C 148.853 24.189,146.481 25.043,145.242 25.662 C 144.002 26.282,141.443 27.191,139.556 27.683 C 137.669 28.175,135.488 28.972,134.711 29.454 C 133.933 29.936,132.180 30.797,130.816 31.367 C 129.451 31.937,127.809 32.722,127.167 33.112 C 126.524 33.502,124.673 34.346,123.054 34.988 C 119.038 36.580,115.046 38.798,112.993 40.580 C 112.052 41.396,111.084 42.064,110.842 42.064 C 110.600 42.064,108.966 42.984,107.211 44.109 C 105.455 45.234,103.046 46.748,101.856 47.474 C 100.667 48.200,99.196 49.360,98.589 50.052 C 97.982 50.743,95.535 52.657,93.152 54.305 C 90.769 55.953,88.715 57.469,88.588 57.676 C 88.460 57.882,87.449 58.736,86.340 59.573 C 82.713 62.312,67.975 77.274,66.843 79.367 C 66.643 79.736,65.849 80.667,65.080 81.435 C 63.062 83.449,61.050 86.000,59.835 88.088 C 59.253 89.087,58.513 90.124,58.189 90.392 C 57.866 90.660,56.903 92.077,56.048 93.541 C 55.193 95.005,54.348 96.203,54.169 96.203 C 53.991 96.203,53.201 97.386,52.415 98.832 C 51.628 100.278,50.120 102.863,49.065 104.576 C 48.009 106.290,46.598 108.822,45.929 110.203 C 45.261 111.584,44.308 113.249,43.812 113.903 C 43.316 114.557,41.834 117.634,40.519 120.740 C 39.203 123.846,37.676 127.423,37.125 128.689 C 36.574 129.955,35.613 132.847,34.991 135.116 C 34.369 137.384,33.442 140.029,32.931 140.993 C 32.420 141.957,31.798 143.877,31.549 145.260 C 31.299 146.643,30.689 149.097,30.192 150.713 C 29.095 154.279,28.596 156.570,28.023 160.662 C 27.783 162.376,27.177 165.881,26.677 168.452 C 25.233 175.869,24.633 198.525,25.707 205.063 C 25.918 206.349,26.092 208.835,26.093 210.589 C 26.094 212.343,26.356 214.900,26.674 216.271 C 26.992 217.642,27.520 220.677,27.847 223.014 C 29.027 231.430,29.010 231.365,33.566 245.375 C 34.854 249.338,36.350 253.449,36.889 254.511 C 37.429 255.573,38.127 257.326,38.441 258.406 C 38.756 259.486,39.498 261.246,40.091 262.317 C 40.684 263.389,41.470 265.178,41.837 266.294 C 42.205 267.409,42.936 268.956,43.462 269.732 C 43.988 270.507,44.876 272.048,45.435 273.156 C 45.994 274.264,46.945 275.871,47.549 276.728 C 48.153 277.585,49.022 279.302,49.480 280.544 C 49.938 281.786,50.674 283.013,51.114 283.271 C 51.555 283.528,53.112 285.579,54.574 287.829 C 58.593 294.013,59.628 295.486,61.538 297.746 C 62.502 298.885,64.041 300.757,64.958 301.905 C 68.936 306.885,73.426 311.780,77.526 315.606 C 79.551 317.495,82.785 320.582,84.713 322.466 C 86.641 324.349,88.744 326.212,89.387 326.606 C 90.029 327.000,91.782 328.391,93.281 329.697 C 96.221 332.258,101.400 335.966,103.603 337.088 C 104.352 337.470,107.744 339.624,111.140 341.875 C 114.536 344.126,118.655 346.539,120.293 347.237 C 121.931 347.935,124.069 348.958,125.044 349.510 C 126.019 350.063,127.527 350.766,128.396 351.073 C 129.265 351.379,131.009 352.107,132.271 352.690 C 133.534 353.273,136.144 354.317,138.072 355.009 C 140.000 355.702,144.208 357.233,147.422 358.411 C 150.637 359.589,155.106 360.950,157.354 361.436 C 159.602 361.922,162.253 362.637,163.245 363.025 C 165.118 363.757,173.414 365.150,183.866 366.486 C 196.278 368.074,219.072 367.793,227.079 365.955 C 228.466 365.636,232.317 365.005,235.638 364.551 C 238.958 364.097,243.787 363.209,246.370 362.577 C 248.952 361.945,252.369 361.182,253.964 360.882 C 255.560 360.581,259.231 359.342,262.123 358.127 C 265.015 356.912,268.877 355.437,270.705 354.850 C 272.534 354.263,274.831 353.313,275.810 352.739 C 276.789 352.165,278.866 351.262,280.427 350.731 C 281.987 350.200,283.809 349.350,284.475 348.842 C 285.141 348.334,286.738 347.369,288.023 346.697 C 289.309 346.025,291.587 344.767,293.087 343.902 C 294.586 343.036,297.043 341.744,298.546 341.030 C 300.049 340.316,301.802 339.295,302.441 338.760 C 303.080 338.225,305.361 336.652,307.510 335.264 C 309.659 333.877,311.721 332.278,312.092 331.712 C 312.463 331.145,313.443 330.337,314.270 329.915 C 315.096 329.494,316.979 328.046,318.454 326.697 C 319.929 325.349,321.870 323.668,322.768 322.963 C 323.665 322.258,326.789 319.366,329.710 316.537 C 332.631 313.707,336.038 310.463,337.282 309.327 C 338.525 308.192,340.085 306.264,340.748 305.043 C 341.411 303.822,342.564 302.386,343.311 301.850 C 344.057 301.315,345.313 299.950,346.101 298.817 C 346.889 297.685,348.038 296.399,348.654 295.961 C 349.842 295.115,350.897 293.308,351.696 290.750 C 351.977 289.848,353.007 288.343,354.140 287.177 C 356.255 285.000,356.660 284.260,366.034 265.433 C 370.155 257.155,372.056 252.897,372.554 250.829 C 372.941 249.223,373.748 246.856,374.349 245.571 C 375.057 244.053,375.659 241.759,376.063 239.033 C 376.405 236.724,377.085 233.919,377.574 232.802 C 378.716 230.190,378.881 229.472,379.546 224.223 C 379.850 221.825,380.653 216.183,381.329 211.685 C 383.331 198.377,383.160 180.271,380.920 168.257 C 380.500 166.008,379.787 161.632,379.335 158.533 C 378.883 155.435,378.103 151.579,377.602 149.965 C 377.101 148.351,376.498 145.743,376.262 144.169 C 375.844 141.381,375.278 139.866,373.909 137.877 C 373.540 137.342,372.929 135.589,372.552 133.982 C 372.174 132.376,371.295 130.010,370.598 128.724 C 369.901 127.439,369.110 125.424,368.839 124.245 C 368.569 123.067,367.775 120.964,367.076 119.572 C 366.376 118.179,365.584 116.339,365.316 115.482 C 364.757 113.701,363.910 112.302,361.098 108.517 C 360.003 107.042,358.928 105.174,358.710 104.364 C 358.492 103.554,357.704 102.044,356.960 101.008 C 356.215 99.972,355.081 98.126,354.440 96.907 C 353.798 95.687,353.051 94.548,352.780 94.375 C 352.326 94.086,351.449 92.860,347.879 87.523 C 347.168 86.460,346.087 85.170,345.478 84.658 C 344.868 84.145,343.909 82.940,343.347 81.980 C 342.784 81.019,342.160 80.234,341.960 80.234 C 341.761 80.234,341.347 79.752,341.041 79.163 C 339.201 75.617,324.400 60.952,317.461 55.800 C 316.086 54.779,314.246 53.372,313.371 52.672 C 312.497 51.973,310.730 50.705,309.445 49.854 C 307.051 48.270,304.651 46.641,302.240 44.963 C 294.564 39.623,275.265 29.751,268.354 27.631 C 266.105 26.941,263.301 25.948,262.123 25.424 C 260.944 24.900,258.228 24.068,256.086 23.574 C 253.944 23.080,251.049 22.241,249.652 21.711 C 248.256 21.180,245.890 20.544,244.394 20.297 C 239.515 19.493,234.760 18.659,229.406 17.670 C 224.803 16.820,222.742 16.677,212.853 16.522 C 206.641 16.425,200.331 16.304,198.832 16.254 C 197.332 16.204,192.775 16.370,188.705 16.622 M220.819 20.698 C 222.844 20.889,225.150 21.219,225.942 21.433 C 226.735 21.646,230.248 22.067,233.750 22.367 C 238.827 22.803,240.669 23.126,242.843 23.961 C 244.343 24.537,247.147 25.406,249.075 25.891 C 251.363 26.466,253.300 27.250,254.653 28.147 C 255.849 28.940,257.474 29.633,258.496 29.786 C 259.470 29.932,261.605 30.669,263.240 31.423 C 267.512 33.394,269.845 34.153,273.914 34.893 C 278.332 35.696,281.038 36.715,282.571 38.150 C 284.173 39.651,288.435 42.266,290.980 43.309 C 292.139 43.784,293.875 44.747,294.839 45.448 C 295.803 46.150,297.249 47.081,298.053 47.518 C 298.856 47.955,299.513 48.469,299.513 48.662 C 299.513 48.854,300.170 49.408,300.974 49.892 C 301.777 50.376,303.165 51.433,304.058 52.240 C 304.952 53.047,306.880 54.312,308.343 55.051 C 309.806 55.791,311.907 56.859,313.013 57.426 C 315.969 58.943,318.387 61.253,320.555 64.633 C 321.613 66.282,322.876 67.849,323.362 68.115 C 323.848 68.381,324.717 69.371,325.294 70.315 C 326.011 71.488,327.243 72.607,329.189 73.854 C 335.452 77.865,337.117 79.579,339.552 84.518 C 341.658 88.789,343.038 90.691,347.609 95.618 C 349.686 97.858,351.387 100.386,353.244 103.992 C 356.235 109.805,356.863 110.850,357.861 111.691 C 361.100 114.417,362.153 116.359,363.354 121.818 C 363.766 123.689,364.643 126.877,365.304 128.903 C 365.964 130.930,366.504 132.743,366.504 132.934 C 366.504 133.631,370.403 142.830,371.900 145.667 C 373.898 149.451,374.922 154.420,377.236 171.568 C 378.078 177.805,378.272 199.866,377.593 212.222 C 377.069 221.744,376.862 223.131,375.338 227.264 C 375.022 228.121,374.468 230.574,374.107 232.717 C 373.746 234.859,373.193 236.899,372.878 237.249 C 372.170 238.038,370.930 241.249,370.380 243.719 C 370.153 244.737,369.545 246.467,369.028 247.563 C 368.511 248.659,367.730 250.850,367.293 252.432 C 366.856 254.013,365.458 257.322,364.187 259.786 C 362.916 262.249,361.068 265.834,360.082 267.753 C 359.095 269.671,358.145 271.423,357.969 271.647 C 357.794 271.871,357.263 273.106,356.789 274.391 C 355.184 278.752,353.273 282.336,351.764 283.819 C 350.937 284.632,349.550 286.349,348.682 287.634 C 347.814 288.919,346.289 290.759,345.293 291.723 C 344.296 292.687,343.144 294.235,342.732 295.163 C 342.320 296.091,341.514 297.406,340.941 298.084 C 340.367 298.763,339.501 300.174,339.016 301.219 C 338.530 302.264,337.656 303.431,337.074 303.813 C 335.981 304.530,331.730 308.298,327.972 311.879 C 326.792 313.004,325.694 313.924,325.533 313.924 C 325.371 313.924,324.951 314.494,324.599 315.190 C 323.903 316.565,320.939 319.350,318.425 320.989 C 317.556 321.556,316.387 322.462,315.827 323.002 C 315.267 323.542,313.921 324.434,312.836 324.983 C 311.751 325.533,310.751 326.164,310.615 326.386 C 310.478 326.607,309.678 327.139,308.837 327.568 C 307.997 327.997,305.809 329.781,303.977 331.533 C 298.464 336.803,296.107 338.296,291.751 339.280 C 287.085 340.334,284.539 341.656,282.830 343.914 C 281.291 345.948,278.864 347.195,273.807 348.552 C 271.986 349.040,269.094 349.966,267.381 350.610 C 260.639 353.141,256.529 354.823,255.611 355.424 C 252.131 357.705,242.121 360.022,233.094 360.638 C 230.088 360.843,226.807 361.194,225.802 361.420 C 220.928 362.512,197.737 363.036,190.652 362.214 C 188.939 362.016,185.170 361.670,182.278 361.446 C 175.169 360.895,169.508 360.037,165.531 358.908 C 163.710 358.392,160.204 357.592,157.741 357.131 C 154.987 356.616,152.093 355.774,150.227 354.943 C 148.558 354.201,146.104 353.274,144.774 352.884 C 142.492 352.214,138.708 350.654,132.035 347.629 C 130.428 346.901,128.238 346.038,127.167 345.711 C 120.781 343.764,113.467 340.110,109.729 337.001 C 108.634 336.091,107.604 335.346,107.438 335.346 C 107.273 335.346,105.572 334.043,103.659 332.450 C 99.750 329.197,95.754 326.376,93.618 325.362 C 92.831 324.989,91.382 323.915,90.398 322.976 C 83.365 316.266,80.831 313.901,79.030 312.366 C 74.631 308.617,69.815 303.265,67.639 299.708 C 66.853 298.423,65.149 296.246,63.852 294.870 C 62.554 293.494,61.260 291.810,60.974 291.128 C 60.689 290.445,60.100 289.555,59.665 289.149 C 59.230 288.744,58.496 287.402,58.034 286.167 C 57.429 284.551,56.716 283.523,55.488 282.496 C 52.862 280.301,51.526 278.164,50.808 275.006 C 50.179 272.241,46.961 265.441,45.537 263.869 C 44.038 262.214,40.856 255.704,39.869 252.272 C 39.301 250.300,38.498 247.897,38.084 246.933 C 37.671 245.969,36.986 243.690,36.563 241.870 C 35.701 238.163,34.328 233.698,33.868 233.106 C 32.624 231.505,30.631 214.206,29.940 198.998 C 29.451 188.235,29.684 172.162,30.354 170.439 C 30.596 169.819,31.330 165.963,31.986 161.871 C 32.676 157.569,33.729 152.705,34.482 150.341 C 35.199 148.092,36.130 144.937,36.550 143.330 C 37.396 140.092,39.894 133.282,41.742 129.171 C 42.402 127.702,43.246 125.336,43.618 123.913 C 44.717 119.704,46.707 115.718,49.636 111.858 C 52.463 108.133,52.829 107.540,54.968 103.213 C 55.656 101.821,56.739 99.630,57.375 98.345 C 58.584 95.897,59.959 94.041,62.895 90.888 C 63.863 89.849,64.654 88.870,64.654 88.713 C 64.654 88.557,65.877 87.087,67.371 85.448 C 68.865 83.809,70.437 81.746,70.864 80.864 C 71.646 79.251,75.669 75.057,77.537 73.910 C 79.238 72.865,84.524 67.690,86.196 65.433 C 89.014 61.627,92.382 58.401,94.831 57.162 C 96.112 56.515,98.457 54.999,100.043 53.796 C 103.996 50.795,107.838 48.242,111.490 46.188 C 112.507 45.616,113.340 44.982,113.340 44.780 C 113.340 44.578,114.085 43.942,114.995 43.367 C 115.906 42.792,117.264 41.932,118.014 41.457 C 118.763 40.981,120.516 40.211,121.908 39.746 C 124.444 38.899,127.347 37.678,132.814 35.160 C 134.421 34.420,136.834 33.472,138.176 33.053 C 139.518 32.634,141.184 31.802,141.876 31.203 C 142.660 30.525,144.142 29.865,145.804 29.454 C 147.271 29.090,149.512 28.268,150.783 27.627 C 152.289 26.867,155.023 26.069,158.631 25.336 C 161.676 24.718,164.796 23.944,165.565 23.617 C 167.275 22.889,174.037 22.028,182.863 21.416 C 186.504 21.163,191.412 20.821,193.768 20.655 C 199.607 20.246,216.304 20.272,220.819 20.698 M184.810 62.305 C 183.096 62.690,180.144 63.210,178.248 63.460 C 174.299 63.981,169.954 65.918,168.586 67.768 C 168.088 68.442,166.917 69.181,165.567 69.673 C 164.354 70.115,162.842 70.967,162.206 71.565 C 158.147 75.386,157.418 75.748,152.203 76.528 C 144.368 77.699,141.346 77.260,136.132 74.191 C 134.108 73.000,132.336 71.837,132.194 71.607 C 132.052 71.377,130.958 70.756,129.764 70.228 C 128.569 69.700,126.970 68.776,126.211 68.175 C 122.826 65.496,119.544 65.569,118.137 68.354 C 117.677 69.265,118.260 75.047,119.809 84.941 C 121.070 92.999,120.535 97.797,117.760 103.315 C 116.127 106.563,115.739 111.243,116.999 112.503 C 119.379 114.882,128.021 112.927,133.009 108.882 C 137.277 105.421,142.216 104.698,144.342 107.224 C 148.342 111.978,153.571 113.624,161.114 112.502 C 164.979 111.927,167.589 113.063,168.980 115.927 C 171.859 121.852,173.018 122.491,180.324 122.187 C 185.856 121.956,189.810 121.068,191.670 119.637 C 194.564 117.410,200.781 115.118,205.063 114.699 C 214.076 113.817,230.533 110.501,233.885 108.891 C 234.956 108.377,236.865 107.748,238.126 107.493 C 239.388 107.239,241.691 106.372,243.245 105.568 C 244.799 104.764,246.647 103.991,247.351 103.850 C 252.750 102.770,256.373 95.573,253.992 90.656 C 252.209 86.971,247.329 82.926,241.833 80.576 C 240.675 80.081,239.132 79.274,238.404 78.784 C 237.095 77.902,232.648 76.344,231.410 76.333 C 231.057 76.330,229.981 76.051,229.017 75.713 C 226.038 74.668,219.939 73.640,214.129 73.203 C 210.900 72.960,208.165 72.559,207.597 72.246 C 205.404 71.035,202.271 69.653,201.249 69.445 C 200.580 69.309,199.939 68.796,199.586 68.111 C 199.269 67.500,198.357 66.655,197.558 66.235 C 196.759 65.815,195.545 64.785,194.861 63.946 C 192.862 61.496,190.281 61.075,184.810 62.305 M192.917 67.615 C 194.670 69.243,196.981 71.428,198.053 72.470 C 200.300 74.657,201.276 74.905,210.213 75.567 C 214.040 75.850,216.020 76.195,217.920 76.910 C 219.326 77.440,222.442 78.235,224.844 78.678 C 227.246 79.121,229.649 79.640,230.185 79.831 C 239.719 83.240,240.742 83.753,247.013 88.280 C 252.801 92.459,251.153 99.645,243.976 101.519 C 242.779 101.832,240.801 102.611,239.580 103.251 C 238.154 103.998,236.124 104.614,233.900 104.974 C 229.761 105.644,228.108 106.157,226.290 107.333 C 225.210 108.032,224.119 108.270,221.032 108.479 C 215.867 108.829,208.944 110.011,206.408 110.974 C 205.284 111.401,202.593 111.946,200.429 112.184 C 195.510 112.726,194.591 113.012,191.641 114.919 C 190.333 115.764,189.186 116.456,189.093 116.456 C 188.999 116.456,187.910 116.926,186.672 117.501 C 182.971 119.220,180.154 119.210,176.709 117.465 C 172.924 115.547,172.693 115.339,171.584 112.830 C 170.460 110.288,169.942 109.896,165.601 108.299 C 161.887 106.933,160.916 106.852,159.182 107.762 C 156.906 108.956,154.244 109.369,152.225 108.841 C 149.686 108.176,149.562 108.050,149.562 106.146 C 149.562 101.275,138.370 99.576,133.649 103.730 C 133.297 104.041,131.870 104.859,130.477 105.549 C 129.085 106.239,127.595 107.114,127.167 107.495 C 122.597 111.550,119.143 108.070,122.531 102.824 C 123.015 102.074,123.532 100.584,123.681 99.513 C 123.829 98.442,124.382 95.924,124.909 93.918 L 125.868 90.270 125.006 86.323 C 124.532 84.152,123.817 81.032,123.416 79.390 C 121.382 71.052,123.461 69.712,130.282 74.965 C 131.996 76.285,134.201 77.825,135.182 78.387 C 136.163 78.950,137.202 79.694,137.491 80.042 C 139.813 82.841,148.765 83.142,154.088 80.600 C 155.561 79.896,157.893 79.084,159.269 78.795 C 162.786 78.057,164.773 76.863,165.749 74.901 C 166.836 72.717,167.331 72.176,168.516 71.879 C 169.069 71.740,170.946 70.942,172.687 70.105 C 174.428 69.268,177.517 68.126,179.552 67.566 C 181.587 67.006,183.667 66.279,184.174 65.952 C 184.954 65.448,187.259 64.875,189.216 64.700 C 189.498 64.675,191.163 65.986,192.917 67.615 M251.996 166.919 C 250.389 167.459,247.258 168.242,245.036 168.660 C 242.550 169.127,240.379 169.788,239.389 170.381 C 238.504 170.910,236.553 171.941,235.054 172.672 C 231.716 174.299,230.851 175.103,229.978 177.387 C 229.382 178.949,229.107 179.214,227.698 179.583 C 226.816 179.813,224.781 180.531,223.174 181.177 C 212.742 185.373,209.728 185.103,204.888 179.538 C 203.623 178.083,202.118 176.816,201.145 176.386 C 200.251 175.990,199.289 175.390,199.009 175.052 C 198.728 174.714,197.960 174.162,197.302 173.826 C 196.644 173.489,195.447 172.625,194.643 171.904 C 192.890 170.333,189.920 170.031,188.765 171.306 C 187.936 172.223,187.881 178.363,188.663 182.863 C 189.832 189.590,189.842 195.608,188.692 200.779 C 186.555 210.385,186.480 210.874,186.656 213.989 C 186.819 216.857,186.917 217.149,188.060 218.170 L 189.289 219.269 191.334 218.518 C 192.459 218.105,194.080 217.648,194.937 217.502 C 196.816 217.183,198.735 216.082,199.531 214.867 C 199.853 214.375,200.831 213.759,201.705 213.498 C 202.579 213.236,204.076 212.344,205.033 211.516 C 208.405 208.597,212.035 209.029,214.264 212.616 C 216.982 216.987,223.344 219.751,227.035 218.163 C 230.772 216.555,233.799 217.138,235.696 219.829 C 241.791 228.475,258.151 229.723,266.407 222.171 C 267.100 221.537,269.009 220.888,273.028 219.920 C 280.663 218.081,282.114 217.835,288.272 217.330 C 293.809 216.876,296.174 216.389,299.126 215.095 C 300.092 214.672,302.359 214.026,304.165 213.660 C 309.568 212.565,320.166 207.934,322.822 205.508 C 328.695 200.143,322.328 189.757,311.095 186.376 C 310.169 186.098,308.754 185.424,307.952 184.879 C 307.149 184.334,305.667 183.602,304.658 183.251 C 303.649 182.900,302.386 182.369,301.850 182.070 C 297.759 179.785,292.340 177.969,288.023 177.435 C 274.497 175.762,274.241 175.705,271.081 173.611 C 269.474 172.547,267.722 171.278,267.186 170.792 C 262.935 166.932,256.694 165.341,251.996 166.919 M259.202 170.352 C 260.273 170.858,262.506 172.517,264.165 174.039 C 268.714 178.214,271.423 179.366,277.702 179.796 C 279.811 179.940,281.905 180.310,282.571 180.656 C 283.321 181.045,285.349 181.348,288.239 181.503 C 292.333 181.722,292.930 181.854,294.861 182.958 C 296.028 183.626,298.278 184.467,299.860 184.827 C 301.839 185.277,303.269 185.888,304.444 186.785 C 305.946 187.932,308.229 188.891,309.469 188.898 C 309.697 188.899,310.398 189.442,311.027 190.105 C 311.657 190.768,313.324 192.059,314.734 192.975 C 316.920 194.396,319.493 197.130,321.079 199.719 C 322.468 201.987,314.986 207.236,308.407 208.608 C 306.890 208.924,304.624 209.615,303.371 210.142 C 301.978 210.729,299.012 211.402,295.738 211.876 C 292.794 212.302,289.065 213.076,287.451 213.596 C 285.561 214.205,282.787 214.680,279.649 214.934 C 275.802 215.245,273.964 215.609,270.886 216.673 C 268.744 217.414,265.994 218.226,264.775 218.478 C 263.430 218.755,261.555 219.578,260.008 220.568 C 252.456 225.402,252.013 225.486,246.933 223.056 C 244.121 221.711,243.961 221.560,242.648 219.009 C 240.191 214.231,232.328 211.602,227.153 213.828 C 223.007 215.611,219.786 214.048,218.008 209.390 C 216.284 204.877,209.948 203.739,204.846 207.025 C 203.695 207.767,201.958 208.665,200.987 209.022 C 200.016 209.379,198.695 210.055,198.053 210.525 C 191.037 215.655,188.705 212.418,192.994 203.505 C 195.445 198.411,195.641 192.763,193.560 187.200 C 192.532 184.454,191.924 179.542,192.431 178.087 C 193.143 176.046,196.170 177.064,199.644 180.513 C 208.311 189.117,213.349 190.590,220.837 186.709 C 222.600 185.796,224.315 185.268,226.481 184.973 C 231.799 184.247,233.168 183.391,234.847 179.748 C 236.203 176.806,237.965 175.162,240.701 174.287 C 241.879 173.910,243.807 173.120,244.985 172.532 C 246.183 171.934,248.672 171.197,250.633 170.860 C 252.561 170.528,254.576 170.081,255.112 169.866 C 256.561 169.284,257.066 169.344,259.202 170.352 M185.919 258.197 C 184.387 258.613,182.449 259.301,181.613 259.728 C 180.778 260.154,178.964 260.704,177.583 260.949 C 173.344 261.704,171.318 262.887,167.276 266.968 C 163.438 270.844,162.270 271.567,159.166 271.988 C 158.129 272.129,156.486 272.596,155.514 273.026 C 152.897 274.183,150.882 274.036,147.560 272.444 C 145.995 271.694,144.515 271.081,144.271 271.081 C 144.027 271.081,143.145 270.532,142.313 269.862 C 141.480 269.191,140.185 268.355,139.435 268.005 C 138.685 267.654,137.258 266.883,136.264 266.290 C 131.652 263.544,126.258 262.406,124.669 263.844 C 122.121 266.150,122.163 269.966,124.876 282.663 C 125.547 285.806,125.401 287.054,124.014 290.044 C 123.499 291.155,122.811 293.211,122.486 294.613 C 122.161 296.014,121.710 297.646,121.484 298.240 C 120.362 301.186,119.661 310.048,120.504 310.638 C 121.629 311.426,122.501 311.339,124.371 310.252 C 125.266 309.732,127.480 308.940,129.290 308.493 C 131.101 308.046,132.941 307.356,133.380 306.961 C 134.431 306.014,136.464 305.355,138.337 305.355 C 139.169 305.355,140.501 305.079,141.298 304.742 C 143.651 303.745,146.879 303.333,147.593 303.938 C 150.847 306.695,156.050 308.462,160.934 308.467 L 164.710 308.471 167.359 310.476 C 168.816 311.579,170.183 312.692,170.398 312.950 C 172.057 314.941,174.532 315.936,182.073 317.642 C 189.682 319.365,192.509 318.800,199.145 314.232 C 199.745 313.818,201.148 313.212,202.261 312.884 C 203.374 312.555,204.985 311.972,205.842 311.588 C 210.127 309.665,210.262 309.640,216.140 309.640 C 222.678 309.640,225.365 309.067,227.135 307.297 C 228.206 306.226,228.406 306.182,233.400 305.934 C 241.926 305.509,251.452 302.620,252.211 300.228 C 252.346 299.803,253.209 299.133,254.129 298.738 C 260.961 295.809,260.276 287.451,252.807 282.617 C 251.397 281.705,249.976 280.708,249.650 280.401 C 241.875 273.104,236.118 270.627,225.316 269.931 C 214.204 269.216,208.403 267.646,204.976 264.429 C 202.641 262.236,200.553 260.650,197.533 258.775 C 195.220 257.338,190.041 257.080,185.919 258.197 M194.422 261.838 C 196.441 262.369,197.397 263.090,199.416 265.605 C 202.372 269.287,202.996 269.851,204.967 270.631 C 206.091 271.076,208.325 271.623,209.932 271.847 C 211.538 272.071,214.869 272.527,217.332 272.859 C 219.796 273.192,222.512 273.625,223.369 273.821 C 224.226 274.017,225.649 274.182,226.533 274.187 C 232.160 274.221,245.733 281.268,253.426 288.151 C 255.958 290.416,254.578 295.030,251.035 296.147 C 249.906 296.503,248.214 297.375,247.276 298.084 C 245.155 299.688,245.007 299.741,240.603 300.498 C 238.622 300.838,236.049 301.550,234.886 302.078 C 233.723 302.607,231.145 303.301,229.159 303.621 C 227.172 303.941,224.093 304.651,222.316 305.200 C 217.728 306.616,214.086 307.270,210.682 307.287 C 206.362 307.310,200.656 308.362,199.026 309.436 C 198.277 309.931,197.034 310.533,196.265 310.776 C 195.496 311.018,193.753 312.001,192.391 312.960 C 187.688 316.272,178.124 315.037,176.602 310.922 C 174.064 304.055,170.332 302.400,161.052 304.024 C 155.670 304.965,154.021 304.260,153.780 300.915 C 153.465 296.527,144.870 295.304,139.639 298.905 C 138.563 299.645,136.861 300.614,135.856 301.058 C 134.852 301.502,133.012 302.441,131.767 303.144 C 129.578 304.380,125.771 305.842,125.486 305.557 C 124.748 304.820,124.829 302.529,125.662 300.554 C 129.844 290.635,131.071 283.109,129.339 277.985 C 126.511 269.620,128.398 266.805,133.914 271.160 C 143.532 278.755,147.612 279.803,157.770 277.285 C 165.094 275.469,166.746 274.695,168.514 272.249 C 171.924 267.530,172.212 267.334,178.968 265.096 C 181.324 264.315,184.479 263.164,185.979 262.537 C 189.002 261.275,191.495 261.068,194.422 261.838 " stroke="none" fill="#216180" fill-rule="evenodd"></path><path id="path4" d="M176.436 0.930 C 176.436 1.820,176.266 1.879,172.444 2.314 C 165.019 3.158,163.107 3.524,160.128 4.673 C 158.494 5.303,155.497 6.093,153.468 6.429 C 151.207 6.804,149.104 7.418,148.035 8.015 C 147.076 8.551,144.724 9.430,142.808 9.969 C 140.892 10.508,138.517 11.353,137.530 11.848 C 136.543 12.342,135.034 12.964,134.177 13.229 C 132.220 13.836,123.188 18.205,121.985 19.127 C 121.491 19.505,119.978 20.183,118.622 20.635 C 117.266 21.086,115.858 21.785,115.494 22.188 C 115.129 22.591,113.663 23.408,112.235 24.004 C 110.808 24.599,108.090 26.146,106.196 27.441 C 104.302 28.736,101.936 30.304,100.938 30.925 C 97.171 33.271,93.191 36.057,90.622 38.148 C 89.160 39.338,86.882 41.078,85.559 42.015 C 80.906 45.312,64.573 61.398,59.251 67.926 C 57.086 70.581,55.104 73.230,53.197 76.018 C 52.658 76.806,51.690 78.050,51.047 78.783 C 50.403 79.516,49.544 80.887,49.137 81.830 C 48.730 82.773,48.005 83.895,47.526 84.323 C 47.047 84.752,46.299 85.803,45.864 86.660 C 45.430 87.517,44.632 88.744,44.092 89.387 C 43.552 90.029,42.685 91.519,42.165 92.697 C 41.646 93.875,40.895 95.190,40.498 95.618 C 40.101 96.047,39.212 97.624,38.523 99.124 C 37.834 100.623,37.048 102.113,36.777 102.434 C 36.505 102.756,35.907 103.982,35.446 105.161 C 34.985 106.339,34.076 108.136,33.426 109.155 C 32.776 110.173,32.088 111.751,31.898 112.660 C 31.709 113.570,30.769 115.979,29.811 118.014 C 20.396 138.007,13.431 179.473,15.778 201.558 C 16.096 204.557,16.352 207.887,16.345 208.958 C 16.312 214.534,20.970 241.170,22.850 246.154 C 23.376 247.546,24.218 250.175,24.723 251.996 C 25.966 256.478,28.134 262.443,29.735 265.790 C 30.462 267.308,31.188 268.987,31.348 269.523 C 31.803 271.038,40.103 287.774,40.532 288.039 C 40.742 288.169,41.445 289.270,42.095 290.486 C 43.487 293.090,45.450 296.050,47.049 297.955 C 47.678 298.705,48.549 300.019,48.985 300.876 C 49.420 301.733,50.337 303.135,51.022 303.992 C 51.708 304.849,52.627 306.251,53.065 307.108 C 53.503 307.965,54.931 309.946,56.239 311.511 C 57.547 313.076,59.093 314.978,59.675 315.737 C 60.256 316.496,61.451 317.932,62.330 318.929 C 63.209 319.925,64.661 321.572,65.557 322.589 C 66.453 323.606,67.605 324.833,68.117 325.316 C 68.629 325.798,69.418 326.610,69.870 327.120 C 70.322 327.630,71.820 329.119,73.199 330.430 C 74.578 331.741,76.419 333.508,77.289 334.356 C 78.159 335.204,79.396 336.267,80.039 336.718 C 80.682 337.170,82.493 338.748,84.064 340.226 C 85.635 341.704,87.738 343.492,88.737 344.200 C 89.737 344.907,91.694 346.351,93.087 347.409 C 94.479 348.467,96.670 349.985,97.955 350.782 C 99.241 351.580,100.818 352.650,101.461 353.159 C 104.906 355.892,113.317 360.818,116.277 361.836 C 117.443 362.237,118.968 362.985,119.666 363.498 C 120.364 364.011,121.899 364.830,123.077 365.320 C 124.255 365.809,125.934 366.625,126.808 367.134 C 127.682 367.643,129.418 368.410,130.666 368.839 C 131.914 369.269,133.987 370.146,135.274 370.789 C 136.560 371.431,137.840 371.957,138.118 371.957 C 138.396 371.957,140.954 372.835,143.801 373.907 C 149.981 376.236,163.866 379.968,167.632 380.313 C 169.109 380.448,172.516 381.004,175.204 381.549 C 177.892 382.093,181.065 382.711,182.256 382.922 C 191.583 384.573,225.567 383.753,235.054 381.647 C 236.981 381.220,240.487 380.540,242.844 380.137 C 245.201 379.733,248.648 378.867,250.505 378.212 C 252.362 377.557,254.424 377.020,255.089 377.020 C 255.753 377.020,257.300 376.615,258.528 376.119 C 259.755 375.623,262.337 374.725,264.265 374.122 C 269.570 372.463,273.582 370.906,278.013 368.785 C 280.218 367.730,283.505 366.330,285.315 365.675 C 287.126 365.019,289.237 364.056,290.006 363.534 C 290.775 363.012,292.430 362.067,293.684 361.435 C 294.937 360.802,297.507 359.274,299.393 358.039 C 301.280 356.804,303.906 355.180,305.230 354.430 C 308.762 352.429,316.268 347.336,318.538 345.401 C 319.622 344.476,322.485 342.055,324.899 340.019 C 329.348 336.269,342.409 323.536,344.265 321.140 C 344.822 320.421,346.329 318.509,347.614 316.892 C 348.900 315.275,350.565 313.122,351.315 312.107 C 352.064 311.093,353.585 309.218,354.695 307.941 C 355.804 306.664,357.187 304.728,357.768 303.638 C 358.348 302.547,359.216 301.217,359.695 300.682 C 361.279 298.912,364.787 293.505,365.468 291.783 C 365.837 290.852,366.640 289.450,367.253 288.667 C 367.865 287.885,368.570 286.601,368.819 285.815 C 369.067 285.029,369.554 284.152,369.899 283.868 C 370.245 283.583,371.088 282.122,371.773 280.623 C 372.458 279.123,373.453 277.254,373.985 276.470 C 374.517 275.687,375.363 273.934,375.865 272.576 C 376.368 271.218,377.085 269.669,377.460 269.133 C 377.834 268.598,378.612 266.582,379.187 264.654 C 379.763 262.726,380.562 260.684,380.963 260.117 C 381.364 259.549,382.151 257.360,382.712 255.252 C 383.273 253.144,384.150 250.620,384.661 249.643 C 385.172 248.666,385.949 246.210,386.389 244.186 C 386.828 242.162,387.687 239.017,388.298 237.196 C 389.021 235.039,389.632 231.945,390.051 228.320 C 390.413 225.187,391.106 221.495,391.635 219.873 C 394.254 211.852,394.240 171.007,391.617 163.392 C 391.058 161.772,390.422 158.446,390.051 155.209 C 389.680 151.973,389.029 148.569,388.449 146.835 C 387.912 145.229,387.056 142.038,386.547 139.745 C 386.039 137.452,385.242 134.828,384.776 133.915 C 384.309 133.001,383.445 130.300,382.855 127.912 C 382.264 125.525,381.498 123.140,381.153 122.612 C 380.807 122.085,379.845 120.002,379.014 117.984 C 375.901 110.424,374.761 107.935,373.826 106.663 C 373.297 105.944,372.546 104.479,372.157 103.408 C 371.488 101.565,369.451 97.801,367.729 95.229 C 367.299 94.586,366.233 92.658,365.360 90.944 C 364.487 89.231,363.379 87.250,362.899 86.543 C 362.418 85.836,361.466 84.434,360.782 83.427 C 356.942 77.771,355.496 75.857,347.109 65.333 C 343.394 60.671,327.777 45.671,321.908 41.129 C 314.673 35.529,311.717 33.394,306.913 30.305 C 304.878 28.995,302.074 27.185,300.682 26.281 C 299.289 25.377,297.449 24.280,296.592 23.844 C 295.735 23.409,294.032 22.446,292.808 21.705 C 291.584 20.965,288.516 19.440,285.992 18.317 C 283.468 17.194,279.993 15.593,278.272 14.759 C 276.550 13.925,274.907 13.242,274.620 13.242 C 274.333 13.242,273.053 12.711,271.776 12.062 C 270.498 11.413,268.023 10.464,266.275 9.953 C 264.527 9.443,261.952 8.486,260.553 7.826 C 258.892 7.044,256.863 6.477,254.710 6.194 C 252.774 5.940,250.339 5.295,248.813 4.632 C 246.837 3.774,244.971 3.361,241.023 2.909 C 233.342 2.029,233.301 2.019,233.301 0.930 L 233.301 0.000 227.069 0.000 L 220.837 0.000 220.837 0.957 C 220.837 1.919,221.381 2.160,227.069 3.715 C 227.390 3.803,231.009 4.135,235.110 4.453 C 241.890 4.978,242.695 5.118,243.990 5.997 C 245.499 7.021,247.446 7.503,252.714 8.157 C 255.230 8.469,256.222 8.778,257.113 9.528 C 258.279 10.509,259.351 10.877,263.392 11.683 C 264.681 11.940,266.120 12.538,266.773 13.087 C 267.478 13.681,269.192 14.357,271.286 14.869 C 273.143 15.323,274.952 15.997,275.306 16.366 C 276.267 17.370,278.072 18.180,280.039 18.490 C 281.299 18.689,282.128 19.124,282.988 20.039 C 283.708 20.806,285.025 21.586,286.298 21.999 C 287.461 22.377,288.851 23.092,289.387 23.589 C 289.922 24.086,291.412 24.882,292.697 25.358 C 293.982 25.834,295.560 26.705,296.203 27.293 C 296.845 27.881,298.059 28.644,298.899 28.989 C 299.739 29.335,301.141 30.201,302.015 30.915 C 302.888 31.628,304.182 32.510,304.889 32.875 C 305.597 33.239,306.513 33.874,306.925 34.286 C 307.337 34.698,308.328 35.309,309.126 35.642 C 309.925 35.976,311.317 37.020,312.221 37.963 C 313.183 38.968,314.490 39.866,315.376 40.131 C 316.249 40.393,317.044 40.934,317.256 41.412 C 317.459 41.867,318.238 42.644,318.987 43.138 C 320.351 44.036,321.393 44.881,325.538 48.448 C 328.093 50.648,337.860 60.506,338.671 61.704 C 338.971 62.149,339.957 63.046,340.862 63.698 C 341.767 64.350,342.780 65.339,343.113 65.895 C 343.911 67.225,346.103 69.893,347.829 71.634 C 348.589 72.401,349.459 73.524,349.761 74.129 C 350.063 74.735,350.625 75.400,351.011 75.606 C 351.396 75.812,352.427 77.113,353.301 78.497 C 354.175 79.881,355.109 81.145,355.377 81.305 C 355.645 81.466,356.342 82.421,356.926 83.429 C 357.511 84.437,358.310 85.363,358.702 85.488 C 359.102 85.615,359.795 86.651,360.283 87.853 C 360.760 89.030,361.554 90.309,362.046 90.696 C 362.538 91.084,363.250 92.350,363.628 93.510 C 364.005 94.669,364.770 96.077,365.327 96.637 C 365.885 97.198,366.832 98.908,367.432 100.438 C 368.032 101.967,368.830 103.437,369.205 103.703 C 369.581 103.969,370.291 105.403,370.784 106.890 C 371.277 108.377,372.119 110.032,372.655 110.568 C 373.283 111.196,373.948 112.699,374.524 114.793 C 375.016 116.581,375.838 118.543,376.351 119.152 C 376.864 119.761,377.504 121.113,377.773 122.155 C 378.518 125.035,378.995 126.258,379.956 127.751 C 380.439 128.500,380.949 129.990,381.089 131.061 C 381.508 134.248,382.427 137.008,383.430 138.091 C 384.102 138.815,384.440 139.742,384.607 141.316 C 385.383 148.608,385.615 149.739,386.744 151.739 C 387.791 153.596,387.934 154.294,388.301 159.365 C 388.774 165.914,389.589 172.419,390.414 176.241 C 392.196 184.501,392.242 202.985,390.491 207.835 C 389.883 209.522,388.546 219.621,388.100 225.901 C 387.901 228.706,387.566 230.226,386.718 232.187 C 386.021 233.796,385.363 236.373,384.975 239.003 C 384.485 242.337,384.102 243.642,383.171 245.166 C 382.422 246.391,381.733 248.349,381.289 250.513 C 380.905 252.392,380.260 254.414,379.857 255.007 C 378.795 256.571,378.283 257.894,377.599 260.847 C 377.264 262.288,376.661 263.822,376.259 264.256 C 375.553 265.015,373.905 269.330,373.905 270.416 C 373.905 270.707,373.491 271.333,372.986 271.808 C 372.482 272.282,371.565 273.934,370.950 275.478 C 370.335 277.023,369.617 278.462,369.354 278.676 C 368.793 279.133,367.489 282.112,366.913 284.252 C 366.652 285.221,366.176 285.906,365.573 286.180 C 364.887 286.493,364.409 287.312,363.774 289.262 C 363.230 290.936,362.552 292.193,361.940 292.662 C 361.407 293.071,360.650 294.154,360.258 295.069 C 359.866 295.983,359.183 296.925,358.742 297.162 C 358.300 297.398,357.600 298.255,357.186 299.066 C 356.772 299.877,355.821 301.274,355.072 302.170 C 354.324 303.067,353.510 304.410,353.264 305.155 C 353.018 305.901,352.311 306.871,351.693 307.311 C 351.075 307.751,350.189 308.788,349.724 309.615 C 349.259 310.442,348.462 311.342,347.954 311.614 C 347.446 311.886,347.030 312.252,347.030 312.428 C 347.030 312.604,346.164 313.704,345.105 314.873 C 344.047 316.042,342.876 317.489,342.504 318.090 C 341.393 319.885,326.947 334.567,326.293 334.567 C 326.120 334.567,324.857 335.574,323.487 336.806 C 319.199 340.662,316.947 342.517,315.905 343.053 C 315.351 343.338,314.460 344.011,313.924 344.548 C 312.952 345.522,310.593 347.207,307.332 349.257 C 306.383 349.853,304.960 350.910,304.168 351.607 C 303.377 352.303,302.525 352.872,302.274 352.872 C 301.487 352.872,298.962 354.310,298.150 355.221 C 297.722 355.702,296.319 356.570,295.034 357.150 C 293.749 357.730,292.457 358.495,292.163 358.850 C 291.869 359.204,291.430 359.494,291.189 359.494 C 290.553 359.494,286.107 361.643,284.828 362.568 C 284.229 363.002,282.480 363.688,280.942 364.094 C 279.351 364.514,277.622 365.272,276.932 365.853 C 276.265 366.414,274.983 367.074,274.082 367.320 C 270.468 368.305,269.848 368.556,268.757 369.475 C 267.925 370.175,266.703 370.583,264.190 371.000 C 260.953 371.537,258.228 372.515,258.228 373.140 C 258.228 373.708,255.987 374.276,252.191 374.670 C 249.130 374.987,247.795 375.330,245.959 376.270 C 243.538 377.509,242.507 377.686,232.664 378.554 C 230.086 378.782,227.481 379.261,226.238 379.738 C 220.734 381.848,190.104 382.249,185.395 380.272 C 182.965 379.252,178.817 378.579,172.596 378.195 C 166.025 377.790,164.934 377.577,162.726 376.265 C 161.791 375.709,159.628 375.143,156.561 374.651 C 153.962 374.234,151.303 373.588,150.650 373.217 C 149.998 372.845,149.074 372.325,148.598 372.062 C 148.122 371.798,146.435 371.309,144.850 370.976 C 143.264 370.642,141.353 369.951,140.604 369.439 C 139.854 368.926,137.680 368.059,135.772 367.512 C 133.865 366.964,132.025 366.271,131.683 365.971 C 130.757 365.160,128.119 363.911,126.670 363.598 C 125.969 363.446,124.889 362.897,124.270 362.376 C 123.651 361.855,122.122 360.976,120.871 360.423 C 119.621 359.870,117.459 358.848,116.066 358.151 C 114.674 357.455,112.893 356.675,112.108 356.418 C 111.324 356.161,110.587 355.703,110.471 355.400 C 110.355 355.097,109.021 354.248,107.508 353.514 C 105.994 352.780,104.379 351.701,103.919 351.115 C 103.459 350.530,102.455 349.789,101.687 349.469 C 100.920 349.149,99.747 348.425,99.080 347.861 C 98.413 347.297,96.748 346.021,95.380 345.026 C 94.011 344.031,91.911 342.355,90.712 341.301 C 89.513 340.247,88.023 339.167,87.401 338.901 C 86.779 338.635,85.920 337.868,85.492 337.196 C 85.063 336.524,83.749 335.312,82.571 334.503 C 81.392 333.693,80.078 332.714,79.649 332.326 C 79.221 331.938,78.345 331.294,77.702 330.895 C 77.059 330.496,75.307 328.907,73.807 327.363 C 72.308 325.819,70.688 324.349,70.209 324.097 C 69.729 323.845,69.046 323.074,68.692 322.384 C 68.338 321.694,67.536 320.604,66.910 319.961 C 66.284 319.318,65.165 317.878,64.422 316.760 C 63.679 315.642,62.838 314.591,62.552 314.423 C 62.267 314.256,61.742 313.548,61.385 312.851 C 61.015 312.127,60.124 311.291,59.310 310.903 C 58.231 310.390,57.798 309.890,57.539 308.861 C 57.350 308.111,56.607 306.884,55.888 306.134 C 55.169 305.385,54.122 303.853,53.562 302.730 C 53.001 301.608,52.232 300.522,51.851 300.319 C 51.471 300.115,50.943 299.225,50.678 298.341 C 50.333 297.190,49.815 296.508,48.856 295.942 C 48.120 295.508,47.517 294.929,47.517 294.656 C 47.517 293.591,45.897 290.575,44.958 289.890 C 44.347 289.445,43.829 288.551,43.605 287.554 C 43.405 286.665,42.647 284.917,41.920 283.670 C 41.193 282.423,40.469 280.789,40.311 280.039 C 39.941 278.288,39.092 276.594,37.969 275.365 C 37.480 274.830,36.526 273.080,35.851 271.478 C 35.175 269.876,34.393 268.298,34.112 267.973 C 33.831 267.647,33.212 266.066,32.737 264.460 C 32.263 262.853,31.441 260.756,30.912 259.799 C 30.384 258.842,29.447 256.080,28.832 253.662 C 28.217 251.243,27.364 248.696,26.936 248.001 C 26.509 247.307,25.771 244.722,25.297 242.259 C 24.823 239.796,24.020 236.413,23.513 234.741 C 23.005 233.070,22.586 231.055,22.581 230.262 C 22.576 229.470,22.401 228.121,22.192 227.264 C 21.984 226.407,21.641 223.552,21.430 220.918 C 21.220 218.285,20.705 214.605,20.286 212.739 C 19.055 207.252,18.558 199.092,18.811 188.499 C 19.033 179.193,19.249 176.780,20.430 170.399 C 20.748 168.685,21.294 164.304,21.645 160.662 C 22.045 156.513,22.571 153.241,23.054 151.899 C 24.053 149.122,24.676 146.537,25.728 140.807 C 26.198 138.241,26.815 135.787,27.097 135.354 C 27.379 134.921,28.167 132.551,28.848 130.088 C 29.594 127.389,31.074 123.560,32.570 120.456 C 33.936 117.621,35.061 115.080,35.070 114.808 C 35.104 113.788,37.272 107.883,37.858 107.217 C 38.193 106.836,38.940 105.122,39.519 103.408 C 40.098 101.694,40.898 100.029,41.298 99.708 C 42.028 99.122,44.001 95.241,44.008 94.379 C 44.010 94.126,44.506 93.567,45.111 93.136 C 45.715 92.706,46.537 91.598,46.937 90.675 C 47.337 89.752,48.251 88.259,48.967 87.357 C 49.684 86.455,50.517 85.141,50.818 84.436 C 51.119 83.731,51.902 82.658,52.557 82.051 C 53.212 81.443,53.749 80.709,53.749 80.419 C 53.749 80.129,54.442 79.091,55.289 78.112 C 56.136 77.134,57.222 75.475,57.703 74.427 C 58.184 73.378,59.046 72.244,59.618 71.906 C 60.190 71.568,60.881 70.754,61.153 70.097 C 61.426 69.440,62.163 68.636,62.792 68.310 C 63.422 67.985,64.186 67.121,64.492 66.390 C 64.797 65.660,65.568 64.793,66.207 64.462 C 66.845 64.132,67.752 63.341,68.223 62.704 C 68.694 62.067,69.411 61.441,69.817 61.312 C 70.223 61.183,70.881 60.317,71.280 59.386 C 71.679 58.455,72.498 57.377,73.101 56.989 C 73.704 56.602,74.764 55.758,75.457 55.114 C 76.560 54.089,77.296 53.376,79.623 51.081 C 81.783 48.950,83.328 47.601,84.376 46.933 C 86.713 45.442,90.950 42.130,91.848 41.093 C 92.344 40.519,93.520 39.709,94.460 39.293 C 95.401 38.877,96.268 38.379,96.386 38.187 C 96.590 37.858,97.900 36.932,103.700 33.023 C 105.039 32.121,106.366 31.065,106.650 30.677 C 106.933 30.290,108.247 29.477,109.571 28.872 C 110.894 28.266,112.304 27.401,112.704 26.949 C 113.104 26.497,114.331 25.836,115.430 25.479 C 116.530 25.123,117.889 24.403,118.451 23.880 C 119.013 23.357,120.590 22.581,121.955 22.156 C 123.320 21.731,124.895 20.945,125.455 20.409 C 126.014 19.873,127.743 19.004,129.297 18.478 C 130.851 17.953,132.627 17.098,133.243 16.579 C 133.871 16.051,135.352 15.434,136.608 15.176 C 139.345 14.615,140.909 13.978,142.066 12.952 C 142.572 12.504,143.811 12.062,144.987 11.910 C 148.165 11.500,149.660 11.010,151.547 9.760 C 152.965 8.821,153.981 8.523,156.977 8.171 C 161.860 7.596,163.314 7.187,164.740 5.987 C 165.870 5.036,166.322 4.957,173.424 4.455 C 184.364 3.681,188.121 2.781,188.121 0.931 L 188.121 0.000 182.278 0.000 L 176.436 0.000 176.436 0.930 " stroke="none" fill="#425a5e" fill-rule="evenodd"></path></g></svg>