<svg height="512pt" viewBox="-15 0 511 512" width="512pt" xmlns="http://www.w3.org/2000/svg"><path d="m382.433594 427.101562s-20.148438 25.367188-45 25.367188c-24.851563 0-45-25.367188-45-25.367188s20.148437-25.367187 45-25.367187c24.851562 0 45 25.367187 45 25.367187zm0 0" fill="#ffb655"/><path d="m382.433594 427.101562s-13.011719-16.371093-31.019532-22.804687c-4.699218 6.382813-7.484374 14.265625-7.484374 22.804687 0 8.535157 2.785156 16.421876 7.484374 22.804688 18.007813-6.433594 31.019532-22.804688 31.019532-22.804688zm0 0" fill="#ffe477"/><path d="m165.230469 281.765625c83.585937 83.589844 220.160156 80.042969 299.296875-7.769531l7.765625-8.617188-7.765625-8.617187c-79.136719-87.8125-215.710938-91.359375-299.296875-7.773438l-81.628907-64.753906c16.421876 52.851563 16.421876 109.441406 0 162.289063zm0 0" fill="#ffb655"/><path d="m349.722656 192.15625-38.105468-38.105469h-123.820313l48.484375 48.484375c36.285156-14.105468 75.695312-17.511718 113.441406-10.378906zm0 0" fill="#ff7956"/><path d="m209.046875 315.238281-42.714844 42.710938h69.453125l22.570313-22.570313c-17.042969-4.492187-33.628907-11.199218-49.308594-20.140625zm0 0" fill="#ff7956"/><path d="m464.527344 256.761719c-25.828125-28.664063-57.777344-48.339844-92.003906-58.949219-13.074219 19.269531-20.714844 42.527344-20.714844 67.566406 0 25.039063 7.640625 48.292969 20.714844 67.5625 34.226562-10.605468 66.175781-30.285156 92.003906-58.945312l7.765625-8.617188zm0 0" fill="#ffe477"/><path d="m424.015625 248.25c0 6.164062-4.996094 11.160156-11.160156 11.160156-6.164063 0-11.160157-4.996094-11.160157-11.160156s4.996094-11.160156 11.160157-11.160156c6.164062 0 11.160156 4.996094 11.160156 11.160156zm0 0" fill="#ff9811"/><path d="m404.015625 248.25c0 6.164062-4.996094 11.160156-11.160156 11.160156-6.164063 0-11.160157-4.996094-11.160157-11.160156s4.996094-11.160156 11.160157-11.160156c6.164062 0 11.160156 4.996094 11.160156 11.160156zm0 0" fill="#57565c"/><path d="m56.523438 454.441406c42.652343 42.648438 112.339843 40.839844 152.722656-3.964844l3.960937-4.398437-3.960937-4.398437c-40.382813-44.808594-110.070313-46.617188-152.722656-3.964844l-41.652344-33.042969c8.378906 26.96875 8.378906 55.84375 0 82.8125zm0 0" fill="#ffb655"/><path d="m150.664062 408.714844-25.957031-25.957032h-63.179687l31.253906 31.253907c18.511719-7.199219 38.625-8.9375 57.882812-5.296875zm0 0" fill="#ff7956"/><path d="m209.246094 441.679688c-13.179688-14.625-29.484375-24.664063-46.949219-30.078126-6.667969 9.832032-10.570313 21.699219-10.570313 34.476563s3.902344 24.640625 10.570313 34.472656c17.464844-5.410156 33.769531-15.453125 46.949219-30.078125l3.960937-4.398437zm0 0" fill="#ffe477"/><path d="m111.824219 483.542969c-10.019531-1.84375-19.828125-5.148438-29.085938-9.921875l-30.878906 30.878906h41.03125zm0 0" fill="#ff7956"/><path d="m92.617188 88.082031c47.949218 47.949219 126.292968 45.914063 171.6875-4.457031l4.457031-4.945312-4.457031-4.941407c-45.394532-50.371093-123.738282-52.40625-171.6875-4.457031l-46.824219-37.144531c9.421875 30.316406 9.421875 62.777343 0 93.09375zm0 0" fill="#ffb655"/><path d="m198.449219 36.679688-29.179688-29.179688h-71.023437l35.132812 35.132812c20.8125-8.089843 43.421875-10.042968 65.070313-5.953124zm0 0" fill="#ff7956"/><path d="m264.304688 73.738281c-14.816407-16.441406-33.140626-27.726562-52.777344-33.8125-7.5 11.054688-11.882813 24.394531-11.882813 38.757813 0 14.363281 4.382813 27.703125 11.882813 38.757812 19.636718-6.085937 37.960937-17.375 52.777344-33.8125l4.457031-4.945312zm0 0" fill="#ffe477"/><path d="m154.785156 120.800781c-11.261718-2.070312-22.289062-5.789062-32.695312-11.15625l-34.714844 34.714844h46.128906zm0 0" fill="#ff7956"/><path d="m454.460938 184.234375c0 7.898437-6.40625 14.304687-14.304688 14.304687-7.902344 0-14.304688-6.40625-14.304688-14.304687 0-7.902344 6.402344-14.304687 14.304688-14.304687 7.898438 0 14.304688 6.402343 14.304688 14.304687zm0 0" fill="#bddbff"/><path d="m423.796875 128.222656c0 10.921875-8.855469 19.78125-19.78125 19.78125s-19.78125-8.859375-19.78125-19.78125c0-10.925781 8.855469-19.78125 19.78125-19.78125s19.78125 8.855469 19.78125 19.78125zm0 0" fill="#bddbff"/><path d="m322.433594 427.101562s12.523437-15.757812 30-22.429687c-4.691406-1.792969-9.738282-2.9375-15-2.9375-24.851563 0-45 25.367187-45 25.367187s20.148437 25.367188 45 25.367188c5.261718 0 10.308594-1.144531 15-2.9375-17.476563-6.675781-30-22.429688-30-22.429688zm0 0" fill="#ff8243"/><path d="m363.929688 427.101562c0-5.140624 1.015624-10.042968 2.847656-14.527343-4.449219-3.199219-9.652344-6.238281-15.363282-8.277344-4.699218 6.382813-7.484374 14.265625-7.484374 22.804687 0 8.535157 2.785156 16.421876 7.484374 22.804688 5.710938-2.039062 10.914063-5.078125 15.363282-8.277344-1.832032-4.484375-2.847656-9.386718-2.847656-14.527344zm0 0" fill="#ff9811"/><path d="m121.027344 316.832031c6.511718-33.992187 6.511718-68.914062 0-102.90625l-37.425782-29.691406c16.421876 52.851563 16.421876 109.441406 0 162.289063zm0 0" fill="#ff8243"/><path d="m195.230469 248.988281c36.566406-36.566406 83.273437-56.457031 130.875-59.914062-51.699219-3.726563-104.621094 11.90625-146.921875 47.1875zm0 0" fill="#ff8243"/><path d="m195.230469 281.765625-16.046875 12.730469c42.300781 35.28125 95.222656 50.914062 146.921875 47.183594-47.601563-3.457032-94.308594-23.347657-130.875-59.914063zm0 0" fill="#ff8243"/><path d="m217.796875 154.050781h-30l48.484375 48.484375c7.441406-2.894531 15.019531-5.328125 22.679688-7.320312zm0 0" fill="#ed4726"/><path d="m326.070312 189.085938c7.925782.570312 15.828126 1.589843 23.652344 3.070312l-3.542968-3.546875c-6.703126-.164063-13.414063-.007813-20.109376.476563zm0 0" fill="#ed4726"/><path d="m209.046875 315.238281-42.710937 42.710938h30l32.730468-32.730469c-6.804687-2.949219-13.496094-6.257812-20.019531-9.980469zm0 0" fill="#ed4726"/><path d="m381.808594 265.378906c0-21.148437 5.464844-41.011718 15.035156-58.289062-7.9375-3.613282-16.0625-6.714844-24.320312-9.277344-13.074219 19.269531-20.714844 42.523438-20.714844 67.566406 0 25.039063 7.640625 48.292969 20.714844 67.5625 8.257812-2.558594 16.382812-5.660156 24.320312-9.277344-9.570312-17.273437-15.035156-37.136718-15.035156-58.285156zm0 0" fill="#ff9811"/><path d="m50.511719 459.210938c.828125-8.738282.828125-17.53125 0-26.265626l-35.640625-28.273437c8.378906 26.96875 8.378906 55.84375 0 82.8125zm0 0" fill="#ff8243"/><path d="m91.527344 382.757812h-30l31.253906 31.253907c7.730469-3.007813 15.738281-5.046875 23.847656-6.152344zm0 0" fill="#ed4726"/><path d="m181.726562 446.078125c0-8.324219 1.664063-16.257813 4.664063-23.496094-7.621094-4.714843-15.722656-8.386719-24.09375-10.980469-6.667969 9.832032-10.570313 21.699219-10.570313 34.476563s3.902344 24.640625 10.570313 34.472656c8.371094-2.59375 16.472656-6.261719 24.09375-10.980469-3-7.238281-4.664063-15.167968-4.664063-23.492187zm0 0" fill="#ff9811"/><path d="m82.738281 473.621094-30.878906 30.878906h20l24.90625-24.902344c-4.78125-1.640625-9.472656-3.628906-14.027344-5.976562zm0 0" fill="#ed4726"/><path d="m81.820312 96.648438c1.375-11.9375 1.375-23.996094 0-35.933594l-36.027343-28.578125c9.421875 30.316406 9.421875 62.777343 0 93.09375zm0 0" fill="#ff8243"/><path d="m128.246094 7.5h-30l35.132812 35.132812c7.65625-2.976562 15.558594-5.113281 23.5625-6.433593zm0 0" fill="#ed4726"/><path d="m191.269531 35.5625c2.402344.304688 4.796875.667969 7.179688 1.117188l-1.675781-1.675782c-1.835938.144532-3.671876.324219-5.503907.558594zm0 0" fill="#ed4726"/><path d="m229.644531 78.683594c0-10.042969 2.152344-19.582032 6.003907-28.195313-7.695313-4.453125-15.789063-7.980469-24.121094-10.5625-7.5 11.050781-11.882813 24.390625-11.882813 38.757813 0 14.363281 4.382813 27.703125 11.882813 38.753906 8.332031-2.582031 16.425781-6.109375 24.121094-10.5625-3.851563-8.609375-6.003907-18.148438-6.003907-28.191406zm0 0" fill="#ff9811"/><path d="m122.089844 109.644531-34.714844 34.714844h30l26.207031-26.207031c-7.359375-2.113282-14.566406-4.933594-21.492187-8.507813zm0 0" fill="#ed4726"/><path d="m404.234375 128.222656c0-7.273437 3.9375-13.609375 9.78125-17.046875-2.9375-1.726562-6.347656-2.734375-10-2.734375-10.921875 0-19.78125 8.855469-19.78125 19.78125 0 10.921875 8.855469 19.78125 19.78125 19.78125 3.652344 0 7.0625-1.011718 10-2.738281-5.84375-3.4375-9.78125-9.773437-9.78125-17.042969zm0 0" fill="#999fed"/><path d="m350.136719 396.019531-18.566407-18.566406-10.605468 10.609375 7.140625 7.140625c-15.699219 3.234375-28.597657 13.84375-35.675781 20.835937-5.210938-5.144531-13.574219-12.253906-23.832032-16.917968l-6.207031 13.65625c8.527344 3.878906 15.636719 10.078125 19.890625 14.332031-4.234375 4.242187-11.3125 10.414063-19.890625 14.316406l6.207031 13.652344c10.257813-4.664063 18.621094-11.769531 23.832032-16.914063 4.96875 4.910157 12.816406 11.609376 22.488281 16.277344l-7.039063 7.039063 10.605469 10.605469 12.578125-12.574219c2.082031.296875 4.207031.457031 6.371094.457031 28.152344 0 49.960937-27.054688 50.875-28.203125l3.703125-4.664063-3.703125-4.667968c-.773438-.96875-16.40625-20.363282-38.171875-26.414063zm-47.542969 31.082031c6.597656-6.605468 20.019531-17.867187 34.839844-17.867187.855468 0 1.703125.035156 2.546875.109375-2.339844 5.570312-3.550781 11.574219-3.550781 17.757812 0 6.179688 1.210937 12.179688 3.550781 17.753907-.847657.074219-1.695313.113281-2.546875.113281-14.820313 0-28.246094-11.269531-34.839844-17.867188zm51.832031 13.308594c-1.972656-4.125-2.996093-8.640625-2.996093-13.308594 0-4.6875 1.03125-9.21875 3.015624-13.355468 7.613282 3.882812 13.949219 9.464844 17.859376 13.386718-4.269532 4.269532-10.597657 9.570313-17.878907 13.277344zm0 0"/><path d="m470.097656 251.738281c-20.019531-22.214843-43.871094-39.65625-70.882812-51.832031-26.035156-11.730469-53.78125-18.058594-82.472656-18.804688-3.519532-.089843-7.03125-.097656-10.53125-.019531l-16.394532-16.394531-10.605468 10.605469 7.148437 7.148437c-5.421875.625-10.804687 1.457032-16.148437 2.496094l-20.25-20.25-10.605469 10.605469 13.71875 13.71875c-6.632813 1.871093-13.191407 4.066406-19.667969 6.589843-25.542969 9.953126-48.617188 24.542969-68.671875 43.417969l-95.503906-75.757812 7.207031 23.199219c16.042969 51.628906 16.042969 106.207031 0 157.835937l-7.207031 23.199219 95.503906-75.761719c20.054687 18.875 43.128906 33.464844 68.671875 43.417969 26.609375 10.367187 54.660156 15.246094 83.335938 14.5 28.6875-.746094 56.4375-7.074219 82.472656-18.804688 27.011718-12.175781 50.859375-29.617187 70.882812-51.832031l12.292969-13.640625zm-11.144531 17.238281c-36.882813 40.925782-87.523437 64.25-142.601563 65.679688-55.101562 1.417969-106.859374-19.234375-145.820312-58.191406l-4.726562-4.726563-69.121094 54.832031c9.050781-40.390624 9.050781-81.992187 0-122.382812l69.121094 54.832031 4.726562-4.726562c38.957031-38.957031 90.722656-59.632813 145.820312-58.195313 55.078126 1.429688 105.71875 24.757813 142.605469 65.683594l3.238281 3.597656zm0 0"/><path d="m108.933594 250.421875 4.257812-14.382813 33.914063 10.035157-4.257813 14.386719zm0 0"/><path d="m108.925781 280.332031 33.914063-10.035156 4.253906 14.382813-33.914062 10.035156zm0 0"/><path d="m355.640625 212.65625c-7.519531 16.613281-11.332031 34.351562-11.332031 52.722656 0 18.367188 3.8125 36.105469 11.332031 52.71875l13.664063-6.183594c-6.632813-14.65625-9.996094-30.3125-9.996094-46.535156 0-16.226562 3.363281-31.882812 9.996094-46.539062zm0 0"/><path d="m392.855469 229.589844c-10.289063 0-18.660157 8.371094-18.660157 18.660156s8.371094 18.660156 18.660157 18.660156c10.289062 0 18.660156-8.371094 18.660156-18.660156s-8.371094-18.660156-18.660156-18.660156zm0 22.320312c-2.015625 0-3.660157-1.640625-3.660157-3.660156s1.644532-3.660156 3.660157-3.660156c2.019531 0 3.660156 1.640625 3.660156 3.660156s-1.640625 3.660156-3.660156 3.660156zm0 0"/><path d="m296.21875 237.027344-17.742188 17.742187-12.4375-12.4375 27.046876-27.046875-10.605469-10.605468-27.046875 27.046874-13.1875-13.1875-10.605469 10.605469 13.183594 13.1875-12.4375 12.4375-17.742188-17.742187-10.609375 10.605468 17.742188 17.742188-17.742188 17.742188 10.609375 10.605468 17.742188-17.742187 12.4375 12.441406-13.183594 13.1875 10.605469 10.605469 13.1875-13.1875 27.046875 27.046875 10.605469-10.605469-27.046876-27.046875 12.4375-12.441406 17.742188 17.742187 10.605469-10.605468-17.742188-17.742188 17.742188-17.742188zm-40.789062 40.789062-12.4375-12.4375 12.4375-12.441406 12.441406 12.441406zm0 0"/><path d="m154.3125 401.753906-26.496094-26.496094h-84.394531l36.324219 36.328126c-8.449219 4.320312-16.386719 9.753906-23.644532 16.21875l-55.601562-44.105469 7.207031 23.199219c7.964844 25.632812 7.964844 52.730468 0 78.359374l-7.207031 23.199219 55.601562-44.105469c4.542969 4.046876 9.355469 7.6875 14.390626 10.90625l-36.738282 36.742188h62.46875l18.394532-20.363281c6.324218.910156 12.777343 1.285156 19.3125 1.113281 31.242187-.808594 59.964843-14.039062 80.886718-37.253906l8.488282-9.417969-8.488282-9.417969c-16.277344-18.0625-37.273437-30.078125-60.503906-34.90625zm-127.328125 66.546875c2.269531-14.746093 2.269531-29.703125 0-44.449219l28.015625 22.226563zm52.648437-78.042969h41.96875l9.105469 9.105469c-12.464843.015625-24.59375 2.035157-36.050781 5.917969zm9.925782 106.742188h-19.59375l14.265625-14.261719c4.402343 2.007813 8.929687 3.726563 13.566406 5.144531zm43.980468-19.242188c-27.054687.710938-52.550781-9.460937-71.710937-28.621093l-3.058594-3.058594 3.058594-3.0625c19.15625-19.15625 44.621094-29.308594 71.710937-28.621094 26.808594.699219 51.480469 11.941407 69.566407 31.679688-18.085938 19.742187-42.757813 30.988281-69.566407 31.683593zm0 0"/><path d="m31.421875 146.203125 60.757813-48.195313c5.535156 4.992188 11.429687 9.4375 17.625 13.316407l-40.535157 40.535156h67.566407l20.734374-22.953125c7.210938 1.066406 14.578126 1.511719 22.042969 1.316406 34.859375-.90625 66.917969-15.671875 90.265625-41.578125l8.976563-9.960937-8.976563-9.964844c-18.226562-20.222656-41.757812-33.65625-67.789062-39.007812l-29.710938-29.710938h-92.242187l40.15625 40.15625c-10.082031 5.03125-19.53125 11.460938-28.113281 19.203125l-60.753907-48.195313 7.207031 23.195313c9.007813 28.996094 9.007813 59.648437 0 88.644531zm98.75-9.34375h-24.691406l18.082031-18.082031c5.542969 2.566406 11.265625 4.714844 17.132812 6.433594zm-13.820313-121.859375h49.8125l12.113282 12.113281c-14.902344-.238281-29.40625 2.082031-43.039063 6.773438zm-18.429687 59.585938c21.722656-21.722657 50.585937-33.242188 81.304687-32.449219 30.671876.796875 58.878907 13.773437 79.4375 36.546875-20.558593 22.769531-48.765624 35.746094-79.4375 36.542968-30.695312.796876-59.582031-10.726562-81.304687-32.445312l-4.097656-4.097656zm-39.8125-23.109376 34.292969 27.207032-34.292969 27.203125c3.042969-18.03125 3.042969-36.375 0-54.410157zm0 0"/><path d="m418.351562 184.234375c0 12.023437 9.78125 21.804687 21.804688 21.804687s21.804688-9.78125 21.804688-21.804687-9.78125-21.804687-21.804688-21.804687-21.804688 9.78125-21.804688 21.804687zm21.804688-6.804687c3.75 0 6.804688 3.054687 6.804688 6.804687 0 3.753906-3.054688 6.804687-6.804688 6.804687-3.753906 0-6.804688-3.050781-6.804688-6.804687s3.050782-6.804687 6.804688-6.804687zm0 0"/><path d="m404.015625 155.5c15.042969 0 27.28125-12.238281 27.28125-27.277344 0-15.042968-12.238281-27.28125-27.28125-27.28125s-27.28125 12.238282-27.28125 27.28125c0 15.042969 12.238281 27.277344 27.28125 27.277344zm0-39.558594c6.769531 0 12.28125 5.507813 12.28125 12.28125 0 6.769532-5.511719 12.277344-12.28125 12.277344s-12.28125-5.507812-12.28125-12.277344c0-6.773437 5.507813-12.28125 12.28125-12.28125zm0 0"/><path d="m209.890625 96.929688c-1.820313-5.882813-2.746094-12.023438-2.746094-18.246094 0-6.226563.925781-12.363282 2.746094-18.25l-14.328125-4.4375c-2.265625 7.324218-3.417969 14.953125-3.417969 22.683594 0 7.730468 1.152344 15.363281 3.417969 22.6875zm0 0"/><path d="m146.613281 428.035156c-1.582031 5.859375-2.386719 11.929688-2.386719 18.042969s.804688 12.183594 2.386719 18.039063l14.480469-3.914063c-1.238281-4.582031-1.867188-9.332031-1.867188-14.125s.628907-9.546875 1.867188-14.128906zm0 0"/><path d="m215.613281 192.472656 10.605469-10.609375-20.316406-20.3125h102.609375l12.8125 12.8125 10.609375-10.605469-17.210938-17.207031h-145.03125zm0 0"/><path d="m199.703125 335.1875-10.609375-10.605469-40.867188 40.867188h87.558594v-15h-51.34375zm0 0"/><g fill="#fff"><path d="m388.746094 305-6.253906-13.632812c17.101562-7.84375 32.71875-18.417969 46.421874-31.429688l10.328126 10.878906c-14.902344 14.152344-31.894532 25.652344-50.496094 34.183594zm0 0"/><path d="m327.078125 322.011719c-6.007813-15.390625-9.503906-31.605469-10.390625-48.199219l14.980469-.800781c.800781 14.996093 3.957031 29.644531 9.382812 43.542969zm4.398437-58.5-15-.195313c.066407-5.234375.402344-10.523437.992188-15.710937l14.902344 1.695312c-.53125 4.691407-.835938 9.472657-.894532 14.210938zm2.285157-23.605469-14.757813-2.691406c.941406-5.152344 2.15625-10.3125 3.613282-15.335938l14.40625 4.179688c-1.316407 4.539062-2.414063 9.199218-3.261719 13.847656zm0 0"/><path d="m130.914062 467.789062c-18.003906 0-35.199218-5.351562-49.871093-15.554687l8.5625-12.3125c12.671875 8.808594 27.628906 13.246094 43.289062 12.84375l.386719 14.996094c-.789062.019531-1.578125.027343-2.367188.027343zm0 0"/><path d="m176.246094 102.160156c-20.050782 0-39.195313-5.960937-55.53125-17.320312l8.5625-12.316406c14.410156 10.019531 31.402344 15.082031 49.21875 14.609374l.390625 14.996094c-.878907.019532-1.761719.03125-2.640625.03125zm0 0"/></g></svg>