<svg id="Capa_1" enable-background="new 0 0 512 512" height="512" viewBox="0 0 512 512" width="512" xmlns="http://www.w3.org/2000/svg"><g><path d="m293.654 419v28c0 4.33-1.87 8.44-5.12 11.29-1.8 1.58-45.01 38.73-117.64 44.86-23.216 1.906-42.717-16.466-42.34-39.23v-61.75c-.38-23.172 19.466-41.249 42.34-39.32 72.63 6.13 115.84 43.28 117.64 44.86 3.25 2.85 5.12 6.96 5.12 11.29z" fill="#6aa6fb"/><path d="m293.654 433v14c0 4.33-1.87 8.44-5.12 11.29-1.8 1.58-45.01 38.73-117.64 44.86-23.216 1.906-42.717-16.466-42.34-39.23v-30.92z" fill="#4880fa"/><path d="m436.754 440.3c-1.63 2.93-40.94 71.7-126.77 71.7-45.89 0-73.28-20.17-88.17-37.09-15.93-18.1-21.1-36.01-21.64-37.99-.674-2.468-.709-5.156-.01-7.79.53-2 5.68-20.12 21.57-38.45 14.9-17.19 42.3-37.68 88.25-37.68 85.9 0 125.19 69.81 126.82 72.78 2.489 4.516 2.462 10.031-.05 14.52z" fill="#93c5ec"/><path d="m438.654 433c0 2.51-.63 5.03-1.9 7.3-1.63 2.93-40.94 71.7-126.77 71.7-45.89 0-73.28-20.17-88.17-37.09-15.93-18.1-21.1-36.01-21.64-37.99-.35-1.28-.52-2.6-.52-3.92z" fill="#6aa6fb"/><path d="m345.024 447.93c-12.933 1.044-20.816-12.85-13.95-23.26 5.02-7.449 15.191-8.811 21.979-3.27 10.209 8.321 5.386 25.125-8.029 26.53z" fill="#25429a"/><path d="m358.544 433c0 12.378-14.277 19.676-24.51 11.6-3.677-3.097-5.49-7.34-5.49-11.6z" fill="#152659"/><path d="m167.279 240v32c0 4.08-1.67 7.99-4.61 10.82-2.22 2.13-55.33 52.18-140.39 52.18-5.02 0-9.7-2.51-12.48-6.68-16.4-24.59-6.88-58.25-1.69-72.32-5.19-14.07-14.71-47.73 1.69-72.32 2.78-4.17 7.46-6.68 12.48-6.68 85.06 0 138.17 50.05 140.39 52.18 2.94 2.83 4.61 6.74 4.61 10.82z" fill="#e20059"/><path d="m167.279 256v16c0 4.08-1.67 7.99-4.61 10.82-2.22 2.13-55.33 52.18-140.39 52.18-5.02 0-9.7-2.51-12.48-6.68-16.4-24.59-6.88-58.25-1.69-72.32z" fill="#b10042"/><path d="m287.279 256c0 6.178-5.95 23.392-18.86 37.95-13.37 15.08-38.94 33.05-84.81 33.05-45.4 0-72.64-17.6-87.49-32.36-16.26-16.17-21.61-32.41-22.17-34.2-.893-2.855-.894-6.019 0-8.88.56-1.79 5.91-18.03 22.17-34.2 14.85-14.76 42.09-32.36 87.49-32.36 45.87 0 71.44 17.97 84.81 33.05 12.877 14.52 18.86 31.81 18.86 37.95z" fill="#de5b5b"/><path d="m287.279 256c0 6.178-5.95 23.392-18.86 37.95-13.37 15.08-38.94 33.05-84.81 33.05-45.4 0-72.64-17.6-87.49-32.36-16.26-16.17-21.61-32.41-22.17-34.2-.45-1.44-.67-2.94-.67-4.44z" fill="#e20059"/><path d="m223.279 256c0 7.934-6.223 14.323-13.53 14.92-8.04.818-15.515-4.993-16.4-13.44-.795-7.98 4.927-15.517 13.45-16.41 8.602-.879 16.48 5.927 16.48 14.93z" fill="#966117"/><path d="m223.279 256c0 7.934-6.223 14.323-13.53 14.92-8.73.888-16.47-5.999-16.47-14.92z" fill="#7e491d"/><path d="m366.389 66v28c0 4.33-1.87 8.44-5.12 11.29-1.8 1.58-45.01 38.73-117.64 44.86-23.216 1.906-42.717-16.466-42.34-39.23v-61.75c-.38-23.172 19.466-41.249 42.34-39.32 72.63 6.13 115.84 43.28 117.64 44.86 3.25 2.85 5.12 6.96 5.12 11.29z" fill="#ffb454"/><path d="m366.389 80v14c0 4.33-1.87 8.44-5.12 11.29-1.8 1.58-45.01 38.73-117.64 44.86-23.216 1.906-42.717-16.466-42.34-39.23v-30.92z" fill="#ff7d47"/><path d="m509.489 87.3c-1.63 2.93-40.94 71.7-126.77 71.7-45.89 0-73.28-20.17-88.17-37.09-15.93-18.1-21.1-36.01-21.64-37.99-.674-2.468-.709-5.156-.01-7.79.53-2 5.68-20.12 21.57-38.45 14.9-17.19 42.3-37.68 88.25-37.68 85.9 0 125.19 69.81 126.82 72.78 2.489 4.516 2.462 10.031-.05 14.52z" fill="#faf17d"/><path d="m511.389 80c0 2.51-.63 5.03-1.9 7.3-1.63 2.93-40.94 71.7-126.77 71.7-45.89 0-73.28-20.17-88.17-37.09-15.93-18.1-21.1-36.01-21.64-37.99-.35-1.28-.52-2.6-.52-3.92z" fill="#f2d131"/><path d="m417.759 94.93c-12.933 1.044-20.816-12.85-13.95-23.26 5.02-7.449 15.191-8.811 21.979-3.27 10.209 8.321 5.386 25.125-8.029 26.53z" fill="#966117"/><path d="m431.279 80c0 12.378-14.277 19.676-24.51 11.6-3.677-3.097-5.49-7.34-5.49-11.6z" fill="#7e491d"/></g></svg>