<svg height="512.003pt" viewBox="0 0 512.003 512.003" width="512.003pt" xmlns="http://www.w3.org/2000/svg"><path d="m99.351562 24.121094c0 9.179687-7.441406 16.621094-16.617187 16.621094-9.179687 0-16.621094-7.441407-16.621094-16.621094 0-9.179688 7.441407-16.621094 16.621094-16.621094 9.175781 0 16.617187 7.441406 16.617187 16.621094zm0 0" fill="#57565c"/><path d="m185.988281 24.121094c0 9.179687-7.441406 16.621094-16.621093 16.621094-9.179688 0-16.621094-7.441407-16.621094-16.621094 0-9.179688 7.441406-16.621094 16.621094-16.621094 9.179687 0 16.621093 7.441406 16.621093 16.621094zm0 0" fill="#57565c"/><path d="m272.621094 24.121094c0 9.179687-7.441406 16.621094-16.621094 16.621094s-16.617188-7.441407-16.617188-16.621094c0-9.179688 7.4375-16.621094 16.617188-16.621094s16.621094 7.441406 16.621094 16.621094zm0 0" fill="#57565c"/><path d="m359.253906 24.121094c0 9.179687-7.441406 16.621094-16.617187 16.621094-9.179688 0-16.621094-7.441407-16.621094-16.621094 0-9.179688 7.441406-16.621094 16.621094-16.621094 9.175781 0 16.617187 7.441406 16.617187 16.621094zm0 0" fill="#57565c"/><path d="m445.890625 24.121094c0 9.179687-7.441406 16.621094-16.621094 16.621094-9.179687 0-16.621093-7.441407-16.621093-16.621094 0-9.179688 7.441406-16.621094 16.621093-16.621094 9.179688 0 16.621094 7.441406 16.621094 16.621094zm0 0" fill="#57565c"/><path d="m99.351562 487.882812c0 9.175782-7.441406 16.617188-16.617187 16.617188-9.179687 0-16.621094-7.441406-16.621094-16.617188 0-9.179687 7.441407-16.621093 16.621094-16.621093 9.175781 0 16.617187 7.441406 16.617187 16.621093zm0 0" fill="#57565c"/><path d="m185.988281 487.882812c0 9.175782-7.441406 16.617188-16.621093 16.617188-9.179688 0-16.621094-7.441406-16.621094-16.617188 0-9.179687 7.441406-16.621093 16.621094-16.621093 9.179687 0 16.621093 7.441406 16.621093 16.621093zm0 0" fill="#57565c"/><path d="m272.621094 487.882812c0 9.175782-7.441406 16.617188-16.621094 16.617188s-16.617188-7.441406-16.617188-16.617188c0-9.179687 7.4375-16.621093 16.617188-16.621093s16.621094 7.441406 16.621094 16.621093zm0 0" fill="#57565c"/><path d="m359.253906 487.882812c0 9.175782-7.441406 16.617188-16.617187 16.617188-9.179688 0-16.621094-7.441406-16.621094-16.617188 0-9.179687 7.441406-16.621093 16.621094-16.621093 9.175781 0 16.617187 7.441406 16.617187 16.621093zm0 0" fill="#57565c"/><path d="m445.890625 487.882812c0 9.175782-7.441406 16.617188-16.621094 16.617188-9.179687 0-16.621093-7.441406-16.621093-16.617188 0-9.179687 7.441406-16.621093 16.621093-16.621093 9.179688 0 16.621094 7.441406 16.621094 16.621093zm0 0" fill="#57565c"/><path d="m504.5 82.734375c0 9.175781-7.441406 16.617187-16.617188 16.617187-9.179687 0-16.621093-7.441406-16.621093-16.617187 0-9.179687 7.441406-16.621094 16.621093-16.621094 9.175782 0 16.617188 7.441407 16.617188 16.621094zm0 0" fill="#57565c"/><path d="m504.5 169.367188c0 9.179687-7.441406 16.621093-16.617188 16.621093-9.179687 0-16.621093-7.441406-16.621093-16.621093 0-9.179688 7.441406-16.621094 16.621093-16.621094 9.175782 0 16.617188 7.441406 16.617188 16.621094zm0 0" fill="#57565c"/><path d="m504.5 256c0 9.179688-7.441406 16.621094-16.617188 16.621094-9.179687 0-16.621093-7.441406-16.621093-16.621094s7.441406-16.617188 16.621093-16.617188c9.175782 0 16.617188 7.4375 16.617188 16.617188zm0 0" fill="#57565c"/><path d="m504.5 342.636719c0 9.175781-7.441406 16.617187-16.617188 16.617187-9.179687 0-16.621093-7.441406-16.621093-16.617187 0-9.179688 7.441406-16.621094 16.621093-16.621094 9.175782 0 16.617188 7.441406 16.617188 16.621094zm0 0" fill="#57565c"/><path d="m504.5 429.269531c0 9.179688-7.441406 16.621094-16.617188 16.621094-9.179687 0-16.621093-7.441406-16.621093-16.621094 0-9.179687 7.441406-16.621093 16.621093-16.621093 9.175782 0 16.617188 7.441406 16.617188 16.621093zm0 0" fill="#57565c"/><path d="m40.742188 82.734375c0 9.175781-7.441407 16.617187-16.621094 16.617187-9.179688 0-16.621094-7.441406-16.621094-16.617187 0-9.179687 7.441406-16.621094 16.621094-16.621094 9.179687 0 16.621094 7.441407 16.621094 16.621094zm0 0" fill="#57565c"/><path d="m40.742188 169.367188c0 9.179687-7.441407 16.621093-16.621094 16.621093-9.179688 0-16.621094-7.441406-16.621094-16.621093 0-9.179688 7.441406-16.621094 16.621094-16.621094 9.179687 0 16.621094 7.441406 16.621094 16.621094zm0 0" fill="#57565c"/><path d="m40.742188 256c0 9.179688-7.441407 16.621094-16.621094 16.621094-9.179688 0-16.621094-7.441406-16.621094-16.621094s7.441406-16.617188 16.621094-16.617188c9.179687 0 16.621094 7.4375 16.621094 16.617188zm0 0" fill="#57565c"/><path d="m40.742188 342.636719c0 9.175781-7.441407 16.617187-16.621094 16.617187-9.179688 0-16.621094-7.441406-16.621094-16.617187 0-9.179688 7.441406-16.621094 16.621094-16.621094 9.179687 0 16.621094 7.441406 16.621094 16.621094zm0 0" fill="#57565c"/><path d="m40.742188 429.269531c0 9.179688-7.441407 16.621094-16.621094 16.621094-9.179688 0-16.621094-7.441406-16.621094-16.621094 0-9.179687 7.441406-16.621093 16.621094-16.621093 9.179687 0 16.621094 7.441406 16.621094 16.621093zm0 0" fill="#57565c"/><path d="m187.273438 355.988281c57.117187 0 102.566406-47.875 99.601562-104.914062l-.289062-5.597657-5.601563-.289062c-57.039063-2.964844-104.910156 42.484375-104.910156 99.601562l-50.011719 5.765626c23.664062 12.445312 43 31.78125 55.445312 55.445312zm0 0" fill="#ffb655"/><path d="m219.691406 262.335938h-34.761718l-42.300782 42.304687h41.847656c7.578126-17.214844 19.878907-31.84375 35.214844-42.304687zm0 0" fill="#ff7956"/><path d="m280.984375 245.1875c-18.617187-.96875-36.253906 3.222656-51.570313 11.292969 2.113282 11.050781 7.449219 21.605469 16.003907 30.160156 8.554687 8.554687 19.113281 13.890625 30.160156 16.007813 8.070313-15.320313 12.265625-32.957032 11.296875-51.574219l-.289062-5.597657zm0 0" fill="#ffe477"/><path d="m243.785156 338.445312c-7.941406 5.472657-16.722656 9.828126-26.117187 12.828126v41.355468l27.472656-27.472656zm0 0" fill="#ff7956"/><path d="m275.003906 167.214844c0 57.113281 47.871094 102.5625 104.910156 99.597656l5.597657-.289062.292969-5.597657c2.960937-57.039062-42.488282-104.914062-99.601563-104.914062l-5.765625-50.011719c-12.449219 23.667969-31.78125 43.003906-55.449219 55.449219zm0 0" fill="#ffb655"/><path d="m368.652344 199.628906v-34.757812l-42.304688-42.304688v41.851563c17.214844 7.578125 31.847656 19.878906 42.304688 35.210937zm0 0" fill="#ff7956"/><path d="m385.804688 260.925781c.964843-18.617187-3.226563-36.253906-11.296876-51.574219-11.050781 2.117188-21.605468 7.453126-30.160156 16.007813-8.554687 8.554687-13.890625 19.109375-16.007812 30.160156 15.320312 8.070313 32.957031 12.261719 51.574218 11.292969l5.597657-.289062zm0 0" fill="#ffe477"/><path d="m292.542969 223.726562c-5.472657-7.941406-9.828125-16.722656-12.828125-26.117187h-41.355469l27.476563 27.472656zm0 0" fill="#ff7956"/><path d="m471.261719 95.703125v-25.941406h-29.023438v-29.019531h-25.9375v29.019531h-60.695312v-29.019531h-25.941407v29.019531h-60.691406v-29.019531h-25.941406v29.019531h-60.695312v-29.019531h-25.9375v29.019531h-60.695313v-29.019531h-25.941406v29.019531h-29.019531v25.941406h29.019531v60.695313h-29.019531v25.9375h29.019531v60.695312h-29.019531v25.941406h29.019531v60.691406h-29.019531v25.941407h29.019531v60.695312h-29.019531v25.9375h29.019531v29.023438h25.941406v-29.023438h60.695313v29.023438h25.9375v-29.023438h60.695312v29.023438h25.941406v-29.023438h60.691406v29.023438h25.941407v-29.023438h60.695312v29.023438h25.9375v-29.023438h29.023438v-25.9375h-29.023438v-60.695312h29.023438v-25.941407h-29.023438v-60.691406h29.023438v-25.941406h-29.023438v-60.695312h29.023438v-25.9375h-29.023438v-60.695313zm-375.558594 0h60.695313v60.695313h-60.695313zm0 86.632813h60.695313v60.695312h-60.695313zm233.960937 233.964843h-60.691406v-60.695312h60.691406zm0-86.636719h-60.691406v-16.195312c-6.835937 9.738281-15.371094 18.210938-25.1875 24.976562l1.355469 26.710938-2.109375 2.109375v49.035156h-60.695312v-17.484375l-.828126 7.183594c-6.574218-12.5-15.070312-23.792969-25.109374-33.5v43.800781h-60.695313v-60.695312h39.132813c-2.851563-1.789063-5.777344-3.476563-8.773438-5.050781l50.011719-5.765626c0-12.289062 2.214843-24.035156 6.265625-34.878906v-5.269531h-25.941406v25.027344h-60.695313v-60.695313h60.695313v21.898438l28.53125-28.53125h34.75c17.355468-11.84375 38.605468-18.332032 61.304687-17.152344l5.601563.289062.289062 5.597657c.316406 6.085937.082031 12.066406-.660156 17.898437h43.449218zm86.636719 86.636719h-60.695312v-60.695312h60.695312zm0-86.636719h-60.695312v-60.691406h60.695312zm0-173.265624h-56.121093l8.472656 8.472656v17.464844h47.648437v60.695312h-31.15625c.738281 5.828125.972657 11.808594.660157 17.894531l-.292969 5.597657-5.597657.289062c-26.636718 1.386719-51.277343-7.789062-69.972656-23.78125h-40.972656v-18.109375l-3.132812.160156-22.804688-22.804687v40.753906h-60.695312v-60.695312h60.695312v15.269531h25.9375v-15.269531h7.171875c-.75-4.929688-1.136719-9.980469-1.136719-15.125l-50.015625-5.765626c2.996094-1.574218 5.921875-3.257812 8.773438-5.050781h-51.425781v-60.691406h60.695312v54.304687c9.808594-7.394531 18.539062-16.125 25.9375-25.929687v-28.375h60.695312v30.179687l25.941407 25.941407v-56.121094h60.691406zm0 0" fill="#fff5cc"/><path d="m326.347656 156.398438h-31.335937c11.074219.964843 21.617187 3.738281 31.335937 8.019531zm0 0" fill="#57a4ff"/><path d="m217.667969 355.605469v-4.332031h.003906c-6.902344 2.203124-14.132813 3.679687-21.609375 4.332031zm0 0" fill="#57a4ff"/><path d="m326.347656 156.398438h-31.335937c11.074219.964843 21.617187 3.738281 31.335937 8.019531zm0 0" fill="#424ede"/><path d="m217.667969 355.605469v-4.332031h.003906c-6.902344 2.203124-14.132813 3.679687-21.609375 4.332031zm0 0" fill="#424ede"/><path d="m169.367188 40.742188c3.757812 0 7.214843-1.261719 10-3.367188-4.015626-3.035156-6.621094-7.832031-6.621094-13.253906 0-5.417969 2.605468-10.21875 6.621094-13.253906-2.785157-2.101563-6.242188-3.363282-10-3.363282-9.179688 0-16.621094 7.4375-16.621094 16.617188 0 9.179687 7.441406 16.621094 16.621094 16.621094zm0 0" fill="#2d2d30"/><path d="m256 40.742188c3.761719 0 7.21875-1.261719 10-3.367188-4.011719-3.035156-6.617188-7.832031-6.617188-13.253906 0-5.417969 2.605469-10.21875 6.617188-13.253906-2.785156-2.101563-6.238281-3.363282-10-3.363282-9.179688 0-16.617188 7.4375-16.617188 16.617188 0 9.179687 7.4375 16.621094 16.617188 16.621094zm0 0" fill="#2d2d30"/><path d="m342.636719 40.742188c3.757812 0 7.214843-1.261719 10-3.367188-4.015625-3.035156-6.621094-7.832031-6.621094-13.253906 0-5.417969 2.605469-10.21875 6.621094-13.253906-2.785157-2.101563-6.242188-3.363282-10-3.363282-9.179688 0-16.621094 7.4375-16.621094 16.617188 0 9.179687 7.441406 16.621094 16.621094 16.621094zm0 0" fill="#2d2d30"/><path d="m82.734375 40.742188c3.757813 0 7.214844-1.261719 10-3.367188-4.015625-3.035156-6.621094-7.832031-6.621094-13.253906 0-5.417969 2.605469-10.21875 6.621094-13.253906-2.785156-2.101563-6.242187-3.363282-10-3.363282-9.179687 0-16.621094 7.4375-16.621094 16.617188 0 9.179687 7.441407 16.621094 16.621094 16.621094zm0 0" fill="#2d2d30"/><path d="m487.882812 272.621094c3.757813 0 7.214844-1.261719 10-3.367188-4.015624-3.035156-6.621093-7.832031-6.621093-13.253906 0-5.417969 2.605469-10.21875 6.621093-13.253906-2.785156-2.101563-6.242187-3.363282-10-3.363282-9.179687 0-16.621093 7.4375-16.621093 16.617188s7.4375 16.621094 16.621093 16.621094zm0 0" fill="#2d2d30"/><path d="m429.269531 40.742188c3.757813 0 7.214844-1.261719 10-3.367188-4.015625-3.035156-6.621093-7.832031-6.621093-13.253906 0-5.417969 2.605468-10.21875 6.621093-13.253906-2.785156-2.101563-6.242187-3.363282-10-3.363282-9.179687 0-16.621093 7.4375-16.621093 16.617188 0 9.179687 7.441406 16.621094 16.621093 16.621094zm0 0" fill="#2d2d30"/><path d="m24.121094 99.351562c3.757812 0 7.214844-1.261718 10-3.367187-4.015625-3.03125-6.621094-7.832031-6.621094-13.25 0-5.421875 2.605469-10.21875 6.621094-13.253906-2.785156-2.105469-6.242188-3.367188-10-3.367188-9.179688 0-16.621094 7.441407-16.621094 16.621094 0 9.175781 7.441406 16.617187 16.621094 16.617187zm0 0" fill="#2d2d30"/><path d="m487.882812 99.351562c3.757813 0 7.214844-1.261718 10-3.367187-4.015624-3.03125-6.621093-7.832031-6.621093-13.25 0-5.421875 2.605469-10.21875 6.621093-13.253906-2.785156-2.105469-6.242187-3.367188-10-3.367188-9.179687 0-16.621093 7.441407-16.621093 16.621094 0 9.175781 7.4375 16.617187 16.621093 16.617187zm0 0" fill="#2d2d30"/><path d="m487.882812 359.257812c3.757813 0 7.214844-1.265624 10-3.371093-4.015624-3.03125-6.621093-7.832031-6.621093-13.25 0-5.421875 2.605469-10.222657 6.621093-13.253907-2.785156-2.105468-6.242187-3.367187-10-3.367187-9.179687 0-16.621093 7.4375-16.621093 16.617187 0 9.179688 7.4375 16.625 16.621093 16.625zm0 0" fill="#2d2d30"/><path d="m487.882812 185.988281c3.757813 0 7.214844-1.265625 10-3.371093-4.015624-3.03125-6.621093-7.832032-6.621093-13.25 0-5.421876 2.605469-10.21875 6.621093-13.253907-2.785156-2.105469-6.242187-3.367187-10-3.367187-9.179687 0-16.621093 7.441406-16.621093 16.617187 0 9.179688 7.4375 16.625 16.621093 16.625zm0 0" fill="#2d2d30"/><path d="m346.015625 487.882812c0-5.421874 2.605469-10.222656 6.621094-13.253906-2.785157-2.105468-6.242188-3.367187-10-3.367187-9.179688 0-16.621094 7.441406-16.621094 16.621093 0 9.175782 7.441406 16.617188 16.621094 16.617188 3.757812 0 7.214843-1.261719 10-3.367188-4.015625-3.035156-6.621094-7.832031-6.621094-13.25zm0 0" fill="#2d2d30"/><path d="m24.121094 185.988281c3.757812 0 7.214844-1.265625 10-3.371093-4.015625-3.03125-6.621094-7.832032-6.621094-13.25 0-5.421876 2.605469-10.21875 6.621094-13.253907-2.785156-2.105469-6.242188-3.367187-10-3.367187-9.179688 0-16.621094 7.441406-16.621094 16.617187 0 9.179688 7.441406 16.625 16.621094 16.625zm0 0" fill="#2d2d30"/><path d="m432.648438 487.882812c0-5.421874 2.605468-10.222656 6.621093-13.253906-2.785156-2.105468-6.242187-3.367187-10-3.367187-9.179687 0-16.621093 7.441406-16.621093 16.621093 0 9.175782 7.441406 16.617188 16.621093 16.617188 3.757813 0 7.214844-1.261719 10-3.367188-4.015625-3.035156-6.621093-7.832031-6.621093-13.25zm0 0" fill="#2d2d30"/><path d="m172.746094 487.882812c0-5.421874 2.605468-10.222656 6.621094-13.253906-2.785157-2.105468-6.242188-3.367187-10-3.367187-9.179688 0-16.621094 7.441406-16.621094 16.621093 0 9.175782 7.441406 16.617188 16.621094 16.617188 3.757812 0 7.214843-1.261719 10-3.367188-4.015626-3.035156-6.621094-7.832031-6.621094-13.25zm0 0" fill="#2d2d30"/><path d="m491.261719 429.269531c0-5.421875 2.605469-10.21875 6.617187-13.253906-2.785156-2.105469-6.238281-3.367187-10-3.367187-9.179687 0-16.617187 7.441406-16.617187 16.621093 0 9.179688 7.4375 16.621094 16.617187 16.621094 3.761719 0 7.214844-1.265625 10-3.367187-4.011718-3.035157-6.617187-7.835938-6.617187-13.253907zm0 0" fill="#2d2d30"/><path d="m259.382812 487.882812c0-5.421874 2.605469-10.222656 6.617188-13.253906-2.785156-2.105468-6.238281-3.367187-10-3.367187-9.179688 0-16.617188 7.441406-16.617188 16.621093 0 9.175782 7.4375 16.617188 16.617188 16.617188 3.761719 0 7.21875-1.261719 10-3.367188-4.011719-3.035156-6.617188-7.832031-6.617188-13.25zm0 0" fill="#2d2d30"/><path d="m24.121094 272.621094c3.757812 0 7.214844-1.261719 10-3.367188-4.015625-3.035156-6.621094-7.832031-6.621094-13.253906 0-5.417969 2.605469-10.21875 6.621094-13.253906-2.785156-2.101563-6.242188-3.363282-10-3.363282-9.179688 0-16.621094 7.4375-16.621094 16.617188s7.441406 16.621094 16.621094 16.621094zm0 0" fill="#2d2d30"/><path d="m86.113281 487.882812c0-5.421874 2.605469-10.222656 6.617188-13.253906-2.785157-2.105468-6.238281-3.367187-10-3.367187-9.175781 0-16.617188 7.441406-16.617188 16.621093 0 9.175782 7.441407 16.617188 16.617188 16.617188 3.761719 0 7.21875-1.261719 10-3.367188-4.011719-3.035156-6.617188-7.832031-6.617188-13.25zm0 0" fill="#2d2d30"/><path d="m24.121094 359.257812c3.757812 0 7.214844-1.265624 10-3.371093-4.015625-3.03125-6.621094-7.832031-6.621094-13.25 0-5.421875 2.605469-10.222657 6.621094-13.253907-2.785156-2.105468-6.242188-3.367187-10-3.367187-9.179688 0-16.621094 7.4375-16.621094 16.617187 0 9.179688 7.441406 16.625 16.621094 16.625zm0 0" fill="#2d2d30"/><path d="m27.5 429.269531c0-5.421875 2.605469-10.21875 6.621094-13.253906-2.785156-2.105469-6.242188-3.367187-10-3.367187-9.179688 0-16.621094 7.441406-16.621094 16.621093 0 9.179688 7.441406 16.621094 16.621094 16.621094 3.757812 0 7.214844-1.265625 10-3.367187-4.015625-3.035157-6.621094-7.835938-6.621094-13.253907zm0 0" fill="#2d2d30"/><path d="m146.0625 350.554688 50.011719-5.765626c0-52.222656 40.023437-94.683593 90.480469-99.3125l-5.570313-.289062c-57.039063-2.964844-104.910156 42.484375-104.910156 99.601562l-50.011719 5.765626c23.664062 12.445312 43 31.78125 55.445312 55.445312l2.886719-25.042969c-10.71875-12.363281-23.695312-22.703125-38.332031-30.402343zm0 0" fill="#ff8243"/><path d="m184.929688 262.335938-42.300782 42.304687h20l42.300782-42.304687zm0 0" fill="#ce492c"/><path d="m265.417969 286.640625c-8.554688-8.554687-13.890625-19.109375-16.003907-30.160156 11.296876-5.953125 23.863282-9.785157 37.148438-11.003907l-5.574219-.289062c-18.617187-.96875-36.257812 3.222656-51.574219 11.292969 2.117188 11.050781 7.449219 21.605469 16.007813 30.160156 8.554687 8.554687 19.109375 13.890625 30.160156 16.007813 1.058594-2.007813 2.046875-4.058594 2.96875-6.144532-4.710937-2.589844-9.140625-5.871094-13.132812-9.863281zm0 0" fill="#ff9811"/><path d="m237.667969 351.277344c2.253906-.722656 4.46875-1.523438 6.648437-2.394532l-.53125-10.4375c-7.941406 5.476563-16.722656 9.828126-26.117187 12.832032v41.351562l20-20zm0 0" fill="#ce492c"/><path d="m295.003906 167.214844-50.015625-5.765625c14.640625-7.699219 27.617188-18.039063 38.335938-30.40625l-2.886719-25.042969c-12.449219 23.667969-31.78125 43.003906-55.449219 55.449219l50.015625 5.765625c0 57.113281 47.871094 102.5625 104.910156 99.597656l5.566407-.289062c-50.453125-4.625-90.476563-47.089844-90.476563-99.308594zm0 0" fill="#ff8243"/><path d="m346.347656 164.417969v-21.851563l-20-20v41.851563c17.214844 7.578125 31.847656 19.878906 42.304688 35.214843v-21.628906c-6.761719-5.445312-14.246094-10.039062-22.304688-13.585937zm0 0" fill="#ce492c"/><path d="m348.339844 255.519531c2.117187-11.050781 7.453125-21.605469 16.007812-30.160156 3.992188-3.992187 8.417969-7.273437 13.128906-9.863281-.921874-2.085938-1.910156-4.136719-2.96875-6.144532-11.050781 2.117188-21.605468 7.453126-30.160156 16.007813-8.554687 8.554687-13.890625 19.109375-16.007812 30.160156 15.320312 8.070313 32.957031 12.261719 51.574218 11.292969l5.578126-.289062c-13.289063-1.21875-25.851563-5.050782-37.152344-11.003907zm0 0" fill="#ff9811"/><path d="m258.359375 197.609375h-20l27.476563 27.472656 19.03125-.96875zm0 0" fill="#ce492c"/><g fill="#ffb655"><path d="m329.664062 268.972656h25.941407v60.691406h-25.941407zm0 0"/><path d="m398.652344 164.871094-8.472656-8.472656h-30l8.472656 8.472656v17.464844h47.648437v60.695312h25.9375v-60.695312h4.0625-47.648437zm0 0"/><path d="m416.300781 268.972656h25.9375v60.691406h-25.9375zm0 0"/><path d="m416.300781 95.703125h25.9375v60.695313h-25.9375zm0 0"/><path d="m243.03125 150.007812c9.808594-7.394531 18.539062-16.121093 25.941406-25.929687v-28.375h-25.941406zm0 0"/><path d="m182.335938 398.816406-.828126 7.183594c-6.574218-12.5-15.070312-23.792969-25.109374-33.5v43.800781h25.9375zm0 0"/><path d="m156.398438 290.871094 21.898437-21.898438h-52.59375 30.695313zm0 0"/><path d="m156.398438 182.335938h25.9375v60.695312h-25.9375zm0 0"/><path d="m316.214844 268.972656c.738281-5.832031.976562-11.8125.660156-17.898437l-.140625-2.726563c-1.382813-.992187-2.738281-2.015625-4.066406-3.074218l-1.683594-.085938c-8.34375-.433594-16.496094.175781-24.328125 1.699219l.21875 4.1875c.316406 6.085937.082031 12.066406-.660156 17.898437zm0 0"/><path d="m385.585938 265.117188c7.832031 1.527343 15.980468 2.128906 24.328124 1.695312l5.597657-.289062.292969-5.597657c.3125-6.085937.078124-12.066406-.660157-17.894531h-30c.738281 5.828125.972657 11.808594.660157 17.894531zm0 0"/><path d="m186.398438 156.398438h-4.0625v-60.695313h-25.9375v60.695313zm0 0"/><path d="m156.398438 329.664062h20.835937c1.039063-6.839843 2.75-13.453124 5.101563-19.753906v-5.269531h-25.9375zm0 0"/><path d="m243.03125 182.335938h25.941406v15.273437h-25.941406zm0 0"/><path d="m268.972656 224.921875-3.136718.160156-22.804688-22.804687v40.753906h25.941406zm0 0"/><path d="m329.664062 125.882812 25.941407 25.941407v-56.121094h-25.941407zm0 0"/><path d="m70.742188 416.300781h24.960937v-60.695312h-24.960937v-25.941407h24.960937v-60.691406h-24.960937v-25.941406h24.960937v-60.695312h-24.960937v-25.9375h24.960937v-60.695313h-24.960937v-25.941406h24.960937v-29.019531h-25.941406v29.019531h-29.019531v25.941406h29.019531v60.695313h-29.019531v25.9375h29.019531v60.695312h-29.019531v25.941406h29.019531v60.691406h-29.019531v25.941407h29.019531v60.695312h-29.019531v25.9375h29.019531v29.023438h25.941406v-29.023438h-24.960937zm0 0"/><path d="m156.398438 442.238281h25.9375v29.023438h-25.9375zm0 0"/><path d="m416.300781 442.238281h25.9375v29.023438h-25.9375zm0 0"/><path d="m243.03125 442.238281h25.941406v29.023438h-25.941406zm0 0"/><path d="m329.664062 442.238281h25.941407v29.023438h-25.941407zm0 0"/><path d="m268.972656 355.605469h5.683594l-.871094-17.160157c3.871094-2.667968 7.535156-5.609374 10.980469-8.78125h-15.792969v-16.195312c-6.835937 9.738281-15.371094 18.210938-25.1875 24.976562l1.355469 26.710938-2.109375 2.109375v49.035156h25.9375v-60.695312zm0 0"/><path d="m416.300781 355.605469h25.9375v60.695312h-25.9375zm0 0"/><path d="m329.664062 355.605469h25.941407v60.695312h-25.941407zm0 0"/><path d="m416.300781 40.742188h25.9375v29.019531h-25.9375zm0 0"/><path d="m156.398438 40.742188h25.9375v29.019531h-25.9375zm0 0"/><path d="m243.03125 40.742188h25.941406v29.019531h-25.941406zm0 0"/><path d="m329.664062 40.742188h25.941407v29.019531h-25.941407zm0 0"/></g><path d="m265.042969 330.085938c20.449219-21.542969 30.863281-49.738282 29.320312-79.402344l-.640625-12.34375-12.347656-.644532c-23.042969-1.199218-45.191406 4.816407-64.027344 17.140626h-35.523437l-57.304688 57.304687h49.0625c-2.640625 8.324219-4.261719 17.015625-4.804687 25.9375l-67.707032 7.804687 21.5 11.308594c22.421876 11.792969 40.507813 29.875 52.296876 52.300782l11.308593 21.5 7.804688-67.710938c5.492187-.332031 10.898437-1.078125 16.183593-2.214844v49.667969l42.632813-42.632813-1.3125-25.917968c4.796875-3.605469 9.332031-7.648438 13.558594-12.097656zm-104.308594-32.945313 27.300781-27.300781h11.078125c-7.996093 8.15625-14.527343 17.355468-19.464843 27.300781zm15.761719 86.859375c-8.054688-10.820312-17.613282-20.378906-28.433594-28.433594l32.136719-3.703125zm60.984375-21.792969-12.3125 12.316407v-17.867188c4.023437-1.511719 7.953125-3.273438 11.765625-5.269531zm-50.207031-13.71875h-3.699219v-3.699219c0-25.546874 10.203125-49.304687 28.730469-66.890624 18.246093-17.324219 42.027343-26.277344 67.132812-25.273438 1 25.085938-7.949219 48.886719-25.273438 67.132812-17.589843 18.527344-41.34375 28.730469-66.890624 28.730469zm0 0"/><path d="m243.035156 271.492188-12.871094 7.707031c2.765626 4.617187 6.113282 8.90625 9.953126 12.746093 3.847656 3.847657 8.148437 7.203126 12.777343 9.972657l7.699219-12.875c-3.574219-2.136719-6.894531-4.730469-9.871094-7.703125-2.96875-2.96875-5.554687-6.28125-7.6875-9.847656zm0 0"/><path d="m380.304688 274.304688 12.347656-.644532.644531-12.347656c1.195313-23.035156-4.820313-45.183594-17.144531-64.023438v-35.523437l-57.304688-57.304687v49.0625c-8.320312-2.640626-17.015625-4.261719-25.9375-4.804688l-7.804687-67.707031-11.304688 21.5c-11.792969 22.421875-29.878906 40.507812-52.304687 52.296875l-21.5 11.308594 67.710937 7.804687c.332031 5.492187 1.078125 10.898437 2.214844 16.183594h-49.667969l42.632813 42.632812 25.917969-1.3125c3.609374 4.792969 7.644531 9.328125 12.097656 13.554688 20.148437 19.125 46.109375 29.472656 73.652344 29.472656 1.910156 0 3.828124-.050781 5.75-.148437zm-46.457032-133.628907 27.304688 27.300781v11.074219c-8.160156-7.992187-17.359375-14.523437-27.304688-19.464843zm-86.855468 15.757813c10.820312-8.054688 20.375-17.613282 28.429687-28.429688l3.707031 32.132813zm21.789062 60.988281-12.3125-12.3125h17.863281c1.515625 4.023437 3.273438 7.949219 5.273438 11.761719zm13.722656-50.210937v-3.699219h3.699219c25.542969 0 49.300781 10.203125 66.890625 28.730469 17.320312 18.246093 26.273438 42.046874 25.273438 67.136718-25.082032 1-48.886719-7.953125-67.132813-25.273437-18.527344-17.589844-28.730469-41.347657-28.730469-66.894531zm0 0"/><path d="m339.046875 220.054688c-3.839844 3.835937-7.1875 8.125-9.953125 12.746093l12.871094 7.703125c2.132812-3.5625 4.71875-6.875 7.6875-9.84375 2.976562-2.976562 6.296875-5.566406 9.867187-7.699218l-7.691406-12.878907c-4.636719 2.769531-8.933594 6.125-12.78125 9.972657zm0 0"/><path d="m163.898438 174.835938h-75.695313v75.695312h75.695313zm-15 60.695312h-45.695313v-45.695312h45.695313zm0 0"/><path d="m189.835938 103.203125h45.695312v20.363281h15v-35.363281h-75.695312v68.195313h15zm0 0"/><path d="m163.898438 88.203125h-75.695313v75.695313h75.695313zm-15 60.695313h-45.695313v-45.695313h45.695313zm0 0"/><path d="m408.800781 322.164062h-45.695312v-36.726562h-15v51.726562h75.695312v-68.191406h-15zm0 0"/><path d="m348.105469 123.539062h15v-20.335937h45.695312v45.695313h-20.335937v15h35.335937v-75.695313h-75.695312zm0 0"/><path d="m388.652344 189.835938h20.148437v53.195312h15v-68.195312h-35.148437zm0 0"/><path d="m475.132812 189.835938c3.703126 2.3125 8.070313 3.652343 12.75 3.652343 13.296876 0 24.117188-10.820312 24.117188-24.121093 0-13.300782-10.820312-24.121094-24.117188-24.121094-4.679687 0-9.046874 1.339844-12.75 3.648437h-25.394531v-45.691406h25.394531c3.703126 2.3125 8.070313 3.648437 12.75 3.648437 13.296876 0 24.117188-10.820312 24.117188-24.121093s-10.820312-24.121094-24.117188-24.121094c-4.679687 0-9.046874 1.339844-12.75 3.652344h-25.394531v-25.394531c2.316407-3.699219 3.652344-8.070313 3.652344-12.746094 0-13.300782-10.820313-24.121094-24.121094-24.121094s-24.121093 10.820312-24.121093 24.121094c0 4.675781 1.339843 9.046875 3.652343 12.746094v25.394531h-45.695312v-25.394531c2.3125-3.699219 3.652343-8.070313 3.652343-12.746094 0-13.300782-10.820312-24.121094-24.121093-24.121094s-24.121094 10.820312-24.121094 24.121094c0 4.675781 1.335937 9.046875 3.648437 12.746094v25.394531h-45.691406v-25.394531c2.3125-3.699219 3.648438-8.070313 3.648438-12.746094 0-13.300782-10.820313-24.121094-24.121094-24.121094s-24.121094 10.820312-24.121094 24.121094c0 4.679687 1.339844 9.046875 3.652344 12.746094v25.394531h-45.695312v-25.394531c2.3125-3.699219 3.652343-8.070313 3.652343-12.746094 0-13.300782-10.820312-24.121094-24.121093-24.121094-13.300782 0-24.121094 10.820312-24.121094 24.121094 0 4.675781 1.339844 9.046875 3.648437 12.746094v25.394531h-45.691406v-25.394531c2.3125-3.699219 3.648437-8.070313 3.648437-12.746094 0-13.300782-10.820312-24.121094-24.121093-24.121094-13.296875 0-24.117188 10.820312-24.117188 24.121094 0 4.675781 1.335938 9.046875 3.648438 12.746094v25.398437h-25.394531c-3.699219-2.316406-8.070313-3.652344-12.746094-3.652344-13.300782 0-24.121094 10.820313-24.121094 24.117188 0 13.300781 10.820312 24.121093 24.121094 24.121093 4.675781 0 9.046875-1.335937 12.746094-3.648437h25.398437v45.695313h-25.398437c-3.699219-2.3125-8.070313-3.652344-12.746094-3.652344-13.300782 0-24.121094 10.820312-24.121094 24.121094 0 13.300781 10.820312 24.121093 24.121094 24.121093 4.675781 0 9.046875-1.339843 12.746094-3.648437h25.394531v45.691406h-25.394531c-3.699219-2.3125-8.070313-3.648438-12.746094-3.648438-13.300782-.003906-24.121094 10.816407-24.121094 24.117188s10.820312 24.121094 24.121094 24.121094c4.679687 0 9.046875-1.335938 12.746094-3.648438h25.394531v45.691406h-25.394531c-3.699219-2.3125-8.070313-3.648437-12.746094-3.648437-13.300782 0-24.121094 10.820313-24.121094 24.121094 0 13.296875 10.820312 24.117187 24.121094 24.117187 4.675781 0 9.046875-1.335937 12.746094-3.648437h25.394531v45.695312h-25.394531c-3.699219-2.316406-8.070313-3.652343-12.746094-3.652343-13.300782 0-24.121094 10.820312-24.121094 24.121093s10.820312 24.121094 24.121094 24.121094c4.675781 0 9.046875-1.339844 12.746094-3.652344h25.394531v25.398438c-2.3125 3.699219-3.648438 8.066406-3.648438 12.746093 0 13.300782 10.820313 24.121094 24.121094 24.121094 13.296875 0 24.121094-10.820312 24.121094-24.121094 0-4.675781-1.339844-9.046874-3.652344-12.746093v-25.398438h45.695313v25.398438c-2.3125 3.699219-3.652344 8.066406-3.652344 12.746093 0 13.300782 10.820312 24.121094 24.121094 24.121094 13.300781 0 24.121093-10.820312 24.121093-24.121094 0-4.675781-1.335937-9.046874-3.648437-12.746093v-25.398438h45.691406v25.394531c-2.3125 3.703126-3.648438 8.070313-3.648438 12.75-.003906 13.296876 10.816407 24.117188 24.117188 24.117188s24.121094-10.820312 24.121094-24.121094c0-4.675781-1.339844-9.042968-3.648438-12.746094v-25.394531h45.691406v25.394531c-2.3125 3.703126-3.648437 8.070313-3.648437 12.746094 0 13.300782 10.820313 24.121094 24.121094 24.121094s24.121093-10.820312 24.121093-24.121094c0-4.675781-1.339843-9.042968-3.652343-12.746094v-25.394531h45.695312v25.394531c-2.3125 3.703126-3.652343 8.070313-3.652343 12.746094 0 13.300782 10.820312 24.121094 24.121093 24.121094s24.121094-10.820312 24.121094-24.121094c0-4.675781-1.339844-9.042968-3.652344-12.746094v-25.394531h25.394531c3.703126 2.3125 8.070313 3.648438 12.75 3.648438 13.296876 0 24.117188-10.820313 24.117188-24.117188 0-13.300781-10.820312-24.121093-24.117188-24.121093-4.679687 0-9.046874 1.335937-12.75 3.648437h-25.394531v-45.695313h25.398438c3.699219 2.3125 8.066406 3.652344 12.746093 3.652344 13.300782 0 24.121094-10.820312 24.121094-24.121094 0-13.300781-10.820312-24.121093-24.121094-24.121093-4.679687 0-9.046874 1.339843-12.746093 3.648437h-25.394531v-45.6875h25.394531c3.699219 2.3125 8.070312 3.648438 12.746093 3.648438 13.300782 0 24.121094-10.820313 24.121094-24.121094s-10.820312-24.121094-24.121094-24.121094c-4.675781 0-9.046874 1.339844-12.746093 3.652344h-25.394531v-45.695312zm12.75-29.589844c5.027344 0 9.117188 4.09375 9.117188 9.121094 0 5.027343-4.089844 9.121093-9.117188 9.121093-5.03125 0-9.121093-4.089843-9.121093-9.121093 0-5.027344 4.089843-9.121094 9.121093-9.121094zm0-86.632813c5.027344 0 9.117188 4.089844 9.117188 9.117188 0 5.03125-4.089844 9.121093-9.117188 9.121093-5.03125 0-9.121093-4.089843-9.121093-9.121093 0-5.027344 4.089843-9.117188 9.121093-9.117188zm-58.613281-58.613281c5.03125 0 9.121094 4.09375 9.121094 9.121094 0 5.03125-4.089844 9.121094-9.121094 9.121094-5.027343 0-9.121093-4.089844-9.121093-9.121094 0-5.027344 4.089843-9.121094 9.121093-9.121094zm-86.632812 0c5.027343 0 9.121093 4.09375 9.121093 9.121094 0 5.03125-4.09375 9.121094-9.121093 9.121094-5.03125 0-9.121094-4.089844-9.121094-9.121094 0-5.027344 4.089844-9.121094 9.121094-9.121094zm-86.636719 0c5.03125 0 9.121094 4.09375 9.121094 9.121094 0 5.03125-4.089844 9.121094-9.121094 9.121094-5.027344 0-9.121094-4.089844-9.121094-9.121094 0-5.027344 4.09375-9.121094 9.121094-9.121094zm-86.632812 0c5.027343 0 9.121093 4.09375 9.121093 9.121094 0 5.03125-4.089843 9.121094-9.121093 9.121094-5.027344 0-9.121094-4.089844-9.121094-9.121094 0-5.027344 4.09375-9.121094 9.121094-9.121094zm-86.636719 0c5.03125 0 9.121093 4.09375 9.121093 9.121094 0 5.03125-4.089843 9.121094-9.121093 9.121094-5.027344 0-9.117188-4.089844-9.117188-9.121094 0-5.027344 4.089844-9.121094 9.117188-9.121094zm-58.609375 76.851562c-5.027344 0-9.121094-4.089843-9.121094-9.121093 0-5.027344 4.09375-9.117188 9.121094-9.117188 5.03125 0 9.121094 4.089844 9.121094 9.117188 0 5.03125-4.09375 9.121093-9.121094 9.121093zm0 86.636719c-5.027344 0-9.121094-4.09375-9.121094-9.121093 0-5.03125 4.09375-9.121094 9.121094-9.121094 5.03125 0 9.121094 4.089844 9.121094 9.121094 0 5.027343-4.09375 9.121093-9.121094 9.121093zm0 86.632813c-5.027344 0-9.121094-4.089844-9.121094-9.121094 0-5.027344 4.09375-9.121094 9.121094-9.121094 5.03125 0 9.121094 4.09375 9.121094 9.121094 0 5.03125-4.09375 9.121094-9.121094 9.121094zm0 86.632812c-5.027344 0-9.121094-4.089844-9.121094-9.117187 0-5.03125 4.09375-9.121094 9.121094-9.121094 5.03125 0 9.121094 4.089844 9.121094 9.121094 0 5.027343-4.09375 9.117187-9.121094 9.117187zm0 86.636719c-5.027344 0-9.121094-4.089844-9.121094-9.121094 0-5.027343 4.09375-9.121093 9.121094-9.121093 5.03125 0 9.121094 4.089843 9.121094 9.121093 0 5.027344-4.09375 9.121094-9.121094 9.121094zm58.609375 58.609375c-5.027344 0-9.117188-4.089844-9.117188-9.121094 0-5.027344 4.089844-9.117187 9.117188-9.117187 5.03125 0 9.121093 4.089843 9.121093 9.117187 0 5.03125-4.089843 9.121094-9.121093 9.121094zm86.636719 0c-5.027344 0-9.121094-4.089844-9.121094-9.121094 0-5.027344 4.09375-9.117187 9.121094-9.117187 5.027343 0 9.121093 4.089843 9.121093 9.117187 0 5.03125-4.09375 9.121094-9.121093 9.121094zm86.632812 0c-5.027344 0-9.121094-4.089844-9.121094-9.121094 0-5.027344 4.09375-9.117187 9.121094-9.117187 5.03125 0 9.121094 4.089843 9.121094 9.117187 0 5.03125-4.089844 9.121094-9.121094 9.121094zm86.636719 0c-5.03125 0-9.121094-4.089844-9.121094-9.121094 0-5.027344 4.089844-9.117187 9.121094-9.117187 5.027343 0 9.121093 4.089843 9.121093 9.117187 0 5.03125-4.09375 9.121094-9.121093 9.121094zm86.632812 0c-5.027343 0-9.121093-4.089844-9.121093-9.121094 0-5.027344 4.09375-9.117187 9.121093-9.117187 5.03125 0 9.121094 4.089843 9.121094 9.117187 0 5.03125-4.089844 9.121094-9.121094 9.121094zm58.613281-76.851562c5.027344 0 9.117188 4.089843 9.117188 9.121093s-4.089844 9.121094-9.117188 9.121094c-5.03125 0-9.121093-4.089844-9.121093-9.121094s4.089843-9.121093 9.121093-9.121093zm0-86.632813c5.027344 0 9.117188 4.089844 9.117188 9.121094 0 5.027343-4.089844 9.121093-9.117188 9.121093-5.03125 0-9.121093-4.09375-9.121093-9.121093 0-5.03125 4.089843-9.121094 9.121093-9.121094zm0-86.636719c5.027344 0 9.117188 4.09375 9.117188 9.121094 0 5.03125-4.089844 9.121094-9.117188 9.121094-5.03125 0-9.121093-4.089844-9.121093-9.121094 0-5.027344 4.089843-9.121094 9.121093-9.121094zm-24.121093 3.652344v10.9375h-29.023438v75.695312h29.023438v10.941407h-29.023438v75.691406h29.023438v10.941406h-29.023438v29.019531h-10.9375v-29.019531h-75.695312v29.019531h-10.941407v-29.019531h-75.691406v29.019531h-10.941406v-29.019531h-75.695312v29.019531h-10.9375v-29.019531h-75.695313v29.019531h-10.941406v-29.019531h-29.019531v-10.941406h29.019531v-75.691406h-29.019531v-10.941407h29.019531v-75.691406h-29.019531v-10.941406h29.019531v-75.695312h-29.019531v-10.9375h29.019531v-75.695313h-29.019531v-10.941406h29.019531v-29.019531h10.941406v29.019531h75.695313v-29.019531h10.9375v29.019531h75.695312v-29.019531h10.9375v29.019531h75.695312v-29.019531h10.941407v29.019531h75.691406v-29.019531h10.941406v29.019531h29.019531v10.941406h-29.019531v75.695313h29.019531v10.9375h-29.019531v75.695312zm0 0"/><path d="m348.105469 423.800781h75.695312v-75.695312h-75.695312zm15-60.695312h45.695312v45.695312h-45.695312zm0 0"/><path d="m189.835938 189.835938h14.96875v-15h-29.96875v67.5h15zm0 0"/><path d="m132.613281 322.164062h-29.410156v-45.691406h46.808594v-15h-61.808594v75.691406h44.410156zm0 0"/><path d="m148.898438 408.800781h-45.695313v-51.617187h-15v66.617187h75.695313v-20.65625h-15zm0 0"/><path d="m322.164062 322.164062h-40.28125v15h55.28125v-58.996093h-15zm0 0"/><path d="m235.53125 408.800781h-13.25v15h28.25v-28.25h-15zm0 0"/><path d="m261.472656 423.800781h75.691406v-75.695312h-75.691406zm15-60.695312h45.691406v45.695312h-45.691406zm0 0"/><path d="m202.285156 338.484375-2.652344-14.761719c14.296876-2.570312 27.21875-9.578125 37.363282-20.265625l10.878906 10.328125c-12.359375 13.019532-28.125 21.5625-45.589844 24.699219zm0 0" fill="#fff"/><path d="m317.203125 227.8125c-13.019531-12.359375-21.558594-28.125-24.699219-45.589844l14.765625-2.652344c2.570313 14.296876 9.574219 27.21875 20.261719 37.367188zm0 0" fill="#fff"/></svg>