<svg id="svg" version="1.1" xmlns="http://www.w3.org/2000/svg" xmlns:xlink="http://www.w3.org/1999/xlink" width="400" height="403.6036036036036" viewBox="0, 0, 400,403.6036036036036"><g id="svgg"><path id="path0" d="M0.000 19.400 L 0.000 38.800 0.900 38.798 C 1.678 38.796,1.930 38.363,2.754 35.611 C 3.279 33.859,4.044 32.123,4.453 31.752 C 4.862 31.382,5.650 30.088,6.205 28.877 C 6.759 27.666,7.885 25.905,8.706 24.963 C 9.528 24.020,11.098 22.159,12.196 20.827 C 13.293 19.494,15.419 17.368,16.919 16.102 C 18.419 14.836,20.365 13.152,21.242 12.360 C 22.119 11.568,23.773 10.488,24.918 9.961 C 26.063 9.434,27.239 8.776,27.531 8.499 C 28.425 7.650,29.568 7.158,32.544 6.337 C 34.115 5.904,35.794 5.295,36.275 4.982 C 38.487 3.546,38.500 3.546,197.800 3.495 L 354.600 3.445 357.600 4.670 C 359.250 5.343,362.130 6.279,364.000 6.750 C 365.870 7.221,367.861 7.945,368.424 8.359 C 368.988 8.773,370.518 9.665,371.824 10.341 C 373.131 11.018,374.721 12.114,375.358 12.777 C 375.995 13.440,376.811 14.077,377.172 14.191 C 377.532 14.305,378.150 14.946,378.545 15.614 C 378.940 16.283,379.969 17.275,380.831 17.820 C 381.694 18.364,382.400 18.993,382.400 19.217 C 382.400 19.441,383.255 20.495,384.300 21.558 C 388.970 26.309,391.848 30.849,393.447 35.989 C 394.031 37.865,394.889 40.480,395.354 41.800 L 396.200 44.200 396.303 201.324 C 396.391 336.641,396.325 358.764,395.832 360.724 C 394.753 365.007,391.918 372.885,390.933 374.337 C 390.392 375.135,389.667 376.381,389.322 377.107 C 388.978 377.834,388.361 378.607,387.952 378.826 C 387.543 379.045,386.917 379.803,386.561 380.512 C 385.943 381.742,384.507 383.428,382.228 385.600 C 381.651 386.150,380.508 387.243,379.689 388.029 C 378.870 388.814,377.660 389.790,377.000 390.197 C 376.340 390.603,375.562 391.270,375.271 391.677 C 374.980 392.085,373.630 392.924,372.271 393.542 C 370.912 394.160,369.537 394.984,369.216 395.374 C 368.489 396.259,367.472 396.649,364.030 397.367 C 362.251 397.738,360.940 398.279,360.233 398.935 C 358.125 400.888,363.377 400.831,196.600 400.708 C 30.465 400.586,37.872 400.673,35.519 398.822 C 34.983 398.401,33.140 397.696,31.424 397.256 C 29.528 396.771,27.890 396.077,27.252 395.488 C 26.673 394.955,25.151 393.932,23.869 393.213 C 22.588 392.494,21.452 391.680,21.346 391.404 C 21.240 391.128,20.273 390.423,19.197 389.837 C 15.132 387.624,9.411 381.043,6.636 375.388 C 5.878 373.841,4.891 372.245,4.445 371.841 C 3.611 371.086,2.642 368.549,2.175 365.900 C 1.957 364.659,1.746 364.400,0.955 364.400 L 0.000 364.400 0.000 384.000 L 0.000 403.600 200.000 403.600 L 400.000 403.600 400.000 201.800 L 400.000 0.000 200.000 0.000 L 0.000 0.000 0.000 19.400 M305.800 22.597 C 305.580 22.670,304.908 22.838,304.307 22.971 L 303.213 23.212 303.107 80.506 C 302.983 146.839,303.455 140.066,298.633 144.741 C 296.192 147.109,295.398 147.623,293.133 148.302 C 291.062 148.924,290.106 149.488,288.743 150.896 L 287.000 152.696 281.340 152.974 C 274.386 153.316,272.904 152.992,270.612 150.634 C 269.435 149.423,268.407 148.796,267.027 148.449 C 261.857 147.147,255.225 140.733,251.880 133.800 C 251.137 132.260,250.083 130.347,249.536 129.549 C 248.990 128.751,248.227 126.681,247.840 124.949 C 247.454 123.217,246.689 120.270,246.142 118.400 C 245.594 116.530,244.791 113.486,244.357 111.635 C 243.407 107.585,242.739 106.364,240.938 105.395 L 239.571 104.658 237.572 106.627 C 235.563 108.606,235.392 108.976,234.162 114.000 C 233.368 117.243,233.391 124.332,234.213 129.600 C 235.369 137.006,235.669 138.205,236.796 139.913 C 237.418 140.855,238.144 142.565,238.410 143.713 C 238.729 145.086,239.349 146.279,240.221 147.200 C 240.951 147.970,241.931 149.632,242.400 150.892 C 242.868 152.153,243.435 153.298,243.659 153.437 C 243.883 153.575,244.669 154.631,245.406 155.783 C 249.177 161.677,257.879 168.389,266.110 171.751 C 278.798 176.933,298.020 173.506,308.262 164.236 C 310.428 162.276,312.416 160.279,312.680 159.799 C 312.944 159.319,313.774 158.457,314.525 157.885 C 315.414 157.206,316.210 156.035,316.811 154.522 C 317.317 153.245,318.140 151.480,318.639 150.600 C 320.797 146.792,320.772 147.525,320.891 82.944 L 321.000 23.288 319.772 22.844 C 318.679 22.449,306.870 22.240,305.800 22.597 M222.436 208.120 C 217.976 209.651,218.010 209.873,223.597 215.637 C 228.322 220.512,231.415 223.607,235.414 227.459 C 242.944 234.714,246.567 238.281,252.267 244.052 C 255.824 247.653,259.090 250.897,259.525 251.260 C 259.960 251.623,260.511 252.253,260.750 252.660 C 261.357 253.691,261.853 252.874,262.455 249.849 C 262.762 248.310,263.385 246.894,264.261 245.747 C 264.996 244.784,265.970 243.204,266.425 242.236 C 267.755 239.406,274.067 235.437,277.894 235.023 C 282.766 234.497,290.453 240.496,292.218 246.200 C 294.096 252.271,293.301 260.906,290.566 264.134 C 287.599 267.635,285.056 270.061,283.768 270.620 C 281.379 271.656,281.596 274.531,284.192 276.232 C 284.769 276.610,285.501 277.421,285.818 278.036 C 286.136 278.650,286.912 279.457,287.544 279.830 C 288.175 280.203,288.992 281.018,289.360 281.640 C 289.728 282.262,290.538 283.072,291.160 283.440 C 291.782 283.808,292.597 284.625,292.970 285.256 C 293.343 285.888,294.222 286.699,294.924 287.060 C 296.478 287.858,306.534 297.684,307.666 299.511 C 309.382 302.279,313.968 302.765,316.595 300.458 C 317.330 299.813,318.622 299.068,319.466 298.802 C 321.792 298.071,330.059 294.009,331.253 293.011 C 331.832 292.527,333.362 291.704,334.653 291.182 C 335.944 290.660,337.360 289.895,337.800 289.482 C 338.240 289.068,339.230 288.401,340.000 287.999 C 340.770 287.597,342.457 286.443,343.748 285.434 C 345.040 284.425,346.249 283.600,346.435 283.600 C 346.774 283.600,350.472 280.575,351.600 279.375 C 351.930 279.024,352.894 278.020,353.742 277.144 C 354.591 276.268,355.221 275.508,355.142 275.456 C 354.771 275.206,349.338 273.589,348.888 273.594 C 348.606 273.597,347.307 273.150,346.000 272.600 C 344.693 272.050,343.089 271.600,342.436 271.600 C 339.847 271.600,331.066 267.757,329.051 265.742 C 328.116 264.807,327.483 262.105,327.914 260.886 C 328.249 259.941,333.776 256.100,335.767 255.427 C 336.850 255.062,338.857 254.136,340.228 253.369 C 341.713 252.539,343.884 251.753,345.595 251.427 C 347.661 251.034,348.636 250.642,349.062 250.033 C 349.389 249.567,350.588 248.717,351.728 248.145 C 352.868 247.572,353.868 247.043,353.950 246.968 C 354.521 246.454,346.404 239.500,342.781 237.400 C 341.643 236.740,339.427 235.441,337.856 234.514 C 336.285 233.586,333.665 232.182,332.033 231.393 C 330.401 230.605,328.572 229.607,327.968 229.178 C 327.365 228.748,325.693 228.032,324.254 227.587 C 322.814 227.143,321.117 226.342,320.483 225.808 C 319.765 225.205,318.243 224.611,316.457 224.239 C 314.679 223.868,312.712 223.103,311.293 222.229 C 309.580 221.176,308.251 220.713,306.043 220.403 C 303.322 220.020,301.796 219.470,298.624 217.729 C 297.977 217.374,295.997 216.914,294.224 216.708 C 289.670 216.177,289.509 216.134,287.853 215.010 C 286.847 214.327,285.820 213.999,284.682 213.998 C 282.383 213.996,276.771 213.056,270.572 211.633 C 267.727 210.981,263.600 210.335,261.400 210.199 C 259.200 210.062,255.240 209.698,252.600 209.390 C 249.960 209.082,244.290 208.645,240.000 208.419 C 227.799 207.776,226.652 207.699,225.800 207.462 C 225.360 207.340,223.846 207.636,222.436 208.120 M178.400 210.860 C 177.410 211.066,175.029 211.591,173.109 212.027 C 171.189 212.463,167.500 213.097,164.913 213.437 C 161.794 213.846,159.774 214.321,158.923 214.848 C 158.216 215.284,155.807 216.094,153.568 216.646 C 151.329 217.199,148.576 218.166,147.449 218.795 C 146.322 219.424,144.279 220.156,142.908 220.420 C 141.408 220.710,139.595 221.430,138.351 222.231 C 137.157 223.001,135.103 223.831,133.477 224.201 C 131.932 224.552,130.176 225.190,129.574 225.619 C 128.972 226.047,127.274 226.939,125.800 227.600 C 124.326 228.261,122.639 229.145,122.051 229.563 C 121.463 229.982,119.968 230.620,118.728 230.980 C 117.488 231.340,116.031 232.078,115.491 232.618 C 114.950 233.159,113.327 234.137,111.883 234.791 C 110.440 235.446,109.142 236.170,108.999 236.401 C 108.856 236.632,107.358 237.546,105.670 238.433 C 100.093 241.359,94.376 244.861,90.869 247.498 C 89.918 248.214,88.915 248.800,88.641 248.800 C 88.368 248.800,87.437 249.404,86.572 250.141 C 82.016 254.028,76.923 254.425,73.346 251.172 C 72.436 250.345,71.176 249.400,70.546 249.072 C 69.916 248.744,68.950 247.989,68.400 247.395 C 67.850 246.800,66.477 245.903,65.350 245.401 C 64.222 244.899,62.602 243.874,61.750 243.124 C 60.897 242.373,58.794 240.689,57.075 239.380 C 55.357 238.071,53.287 236.494,52.475 235.875 C 51.664 235.256,50.132 233.996,49.072 233.075 C 48.011 232.154,46.100 230.500,44.823 229.400 C 43.547 228.300,40.858 225.973,38.846 224.229 C 36.835 222.485,34.427 220.626,33.495 220.098 C 32.563 219.569,31.488 218.856,31.106 218.512 C 30.222 217.716,27.421 219.388,26.742 221.116 C 25.732 223.682,26.103 235.215,27.265 237.417 C 27.850 238.526,28.620 240.435,28.976 241.658 C 29.335 242.894,30.226 244.587,30.979 245.467 C 31.725 246.339,32.706 247.763,33.159 248.632 C 33.612 249.501,34.912 251.199,36.048 252.406 C 37.184 253.613,38.822 255.556,39.687 256.724 C 40.553 257.893,41.517 258.947,41.829 259.067 C 43.036 259.530,46.129 264.557,46.458 266.592 C 46.808 268.749,47.099 268.073,42.399 276.000 C 41.812 276.990,40.838 279.283,40.234 281.096 C 39.631 282.909,38.951 284.507,38.723 284.647 C 37.872 285.174,36.770 288.461,36.367 291.676 C 36.138 293.504,35.489 296.080,34.926 297.400 C 32.656 302.718,33.290 309.453,36.804 317.331 L 37.665 319.263 39.171 317.631 C 39.999 316.734,40.858 316.000,41.079 316.000 C 41.300 316.000,42.045 315.145,42.735 314.100 C 43.426 313.055,44.633 311.390,45.418 310.400 C 46.203 309.410,47.902 307.250,49.195 305.600 C 53.251 300.421,65.957 287.409,74.679 279.500 C 78.287 276.229,81.167 276.326,86.499 279.900 C 87.434 280.527,90.090 281.999,92.400 283.170 C 94.710 284.341,96.960 285.618,97.400 286.007 C 97.840 286.396,99.460 287.368,101.000 288.168 C 102.540 288.968,105.240 290.426,107.000 291.408 C 108.760 292.390,111.370 293.740,112.800 294.408 C 114.230 295.075,115.760 295.832,116.200 296.089 C 116.640 296.346,118.525 297.339,120.389 298.296 C 122.253 299.254,124.053 300.286,124.389 300.590 C 124.725 300.894,126.440 301.613,128.200 302.187 C 129.960 302.761,132.030 303.654,132.800 304.172 C 133.570 304.690,135.190 305.336,136.400 305.609 C 138.916 306.177,139.771 306.563,141.260 307.800 C 142.012 308.425,143.119 308.763,145.060 308.961 C 148.707 309.333,151.002 309.921,153.312 311.072 C 154.443 311.636,156.566 312.191,158.512 312.431 C 162.125 312.877,163.617 313.225,167.800 314.598 C 169.669 315.211,172.129 315.610,175.200 315.796 C 177.730 315.950,182.050 316.446,184.800 316.898 C 196.209 318.774,238.145 318.456,256.000 316.358 C 257.650 316.164,261.160 315.832,263.800 315.619 C 267.098 315.354,269.539 314.909,271.600 314.199 C 273.250 313.630,276.670 312.897,279.200 312.570 C 285.027 311.816,284.639 312.020,284.464 309.813 L 284.314 307.929 236.605 260.164 C 210.366 233.894,188.730 212.400,188.526 212.400 C 188.322 212.400,187.545 211.950,186.800 211.400 C 185.312 210.303,182.081 210.095,178.400 210.860 " stroke="none" fill="#f5ebf4" fill-rule="evenodd"></path><path id="path1" d="M321.124 6.209 C 321.006 6.328,259.928 6.417,185.397 6.407 C 90.929 6.395,48.540 6.520,45.443 6.823 C 31.709 8.163,21.616 13.619,13.706 23.979 C 12.438 25.641,10.712 27.680,9.872 28.510 C 9.016 29.357,8.063 30.852,7.705 31.910 C 7.353 32.950,6.503 34.621,5.816 35.624 C 4.976 36.850,4.403 38.359,4.068 40.224 C 3.160 45.285,2.077 48.000,0.967 48.000 L 0.000 48.000 0.000 119.400 L 0.000 190.800 1.000 190.800 C 1.844 190.800,2.000 190.987,2.000 192.000 C 2.000 193.013,1.844 193.200,1.000 193.200 L 0.000 193.200 0.000 211.400 L 0.000 229.600 1.000 229.600 C 1.919 229.600,2.000 229.747,2.000 231.400 C 2.000 233.053,1.919 233.200,1.000 233.200 L 0.000 233.200 0.000 244.600 L 0.000 256.000 1.000 256.000 L 2.000 256.000 2.000 265.000 L 2.000 274.000 1.000 274.000 L 0.000 274.000 0.000 315.000 L 0.000 356.000 0.951 356.000 C 2.107 356.000,3.266 358.769,4.214 363.800 C 4.639 366.052,5.174 367.498,6.020 368.681 C 6.681 369.605,7.485 371.106,7.806 372.017 C 8.127 372.928,8.842 374.210,9.395 374.867 C 9.948 375.524,10.400 376.186,10.400 376.338 C 10.400 376.490,11.472 377.769,12.782 379.180 C 14.092 380.592,15.365 382.208,15.612 382.773 C 16.039 383.749,17.420 384.976,22.171 388.600 C 23.324 389.480,24.587 390.521,24.976 390.913 C 25.365 391.305,26.340 391.963,27.142 392.374 C 27.944 392.786,29.036 393.590,29.570 394.161 C 30.203 394.840,30.966 395.202,31.770 395.206 C 33.468 395.214,37.293 396.153,41.048 397.483 L 44.200 398.600 199.433 398.600 L 354.666 398.600 356.699 397.493 C 357.842 396.872,360.220 396.111,362.128 395.757 C 364.890 395.245,365.780 394.892,366.903 393.864 C 367.662 393.169,369.191 392.273,370.302 391.874 C 371.412 391.475,373.118 390.395,374.092 389.474 C 384.389 379.743,388.140 375.144,389.160 371.000 C 389.430 369.900,390.022 368.370,390.475 367.600 C 391.402 366.022,392.208 363.520,392.811 360.348 C 393.345 357.540,393.354 49.559,392.821 46.400 C 391.992 41.495,391.085 37.850,390.397 36.659 C 389.997 35.966,389.294 34.166,388.835 32.658 C 388.375 31.149,387.595 29.406,387.100 28.783 C 386.605 28.160,385.625 26.874,384.923 25.925 C 384.220 24.976,382.915 23.397,382.023 22.416 C 381.130 21.435,380.400 20.504,380.400 20.349 C 380.400 20.193,379.804 19.697,379.075 19.246 C 378.346 18.796,377.506 17.972,377.209 17.416 C 375.985 15.130,366.231 10.190,358.400 7.889 L 354.200 6.655 340.800 6.562 C 333.430 6.511,326.037 6.362,324.370 6.231 C 322.704 6.100,321.243 6.090,321.124 6.209 M296.600 20.864 C 299.460 20.915,312.600 20.904,325.800 20.840 L 349.800 20.723 354.600 21.730 C 369.631 24.881,379.567 37.012,379.595 52.245 C 379.598 53.810,379.770 55.985,379.977 57.079 C 380.208 58.296,380.379 115.405,380.419 204.433 L 380.484 349.800 379.420 355.400 C 378.128 362.202,377.571 363.437,375.120 364.938 L 373.240 366.090 371.720 365.174 C 370.884 364.670,367.320 361.448,363.800 358.014 C 356.658 351.046,353.683 348.449,350.301 346.231 C 348.631 345.136,347.646 344.105,346.701 342.462 C 345.950 341.155,343.203 337.986,340.200 334.958 C 337.340 332.075,332.693 327.286,329.873 324.316 C 327.054 321.345,323.579 318.058,322.153 317.011 C 320.726 315.963,318.606 313.912,317.442 312.453 C 316.277 310.994,315.026 309.553,314.662 309.251 C 314.298 308.949,314.000 308.486,314.000 308.223 C 314.000 307.105,311.157 304.465,309.192 303.758 C 307.669 303.210,306.663 302.444,305.087 300.628 C 301.999 297.071,294.426 289.681,292.905 288.741 C 292.176 288.291,291.317 287.413,290.995 286.790 C 290.672 286.167,290.042 285.540,289.594 285.398 C 289.145 285.256,288.478 284.658,288.111 284.070 C 287.743 283.481,286.173 281.787,284.621 280.305 C 280.337 276.213,280.061 275.937,278.268 273.965 C 277.351 272.955,276.150 271.351,275.600 270.400 C 274.047 267.714,272.905 266.507,270.867 265.398 C 269.749 264.790,268.504 263.655,267.794 262.596 C 267.137 261.618,266.490 260.814,266.356 260.809 C 266.222 260.804,265.322 260.106,264.356 259.257 C 263.390 258.408,261.861 257.338,260.957 256.878 C 259.920 256.350,259.125 255.585,258.801 254.802 C 258.518 254.120,257.765 253.292,257.126 252.962 C 256.487 252.631,255.658 251.865,255.282 251.259 C 254.365 249.776,250.132 245.375,240.131 235.504 C 238.629 234.021,236.950 232.362,236.400 231.816 C 235.850 231.271,234.590 230.089,233.600 229.189 C 231.039 226.861,226.874 222.664,225.000 220.524 C 224.120 219.519,222.950 218.263,222.400 217.732 C 215.056 210.647,212.000 207.383,212.000 206.624 C 212.000 206.092,208.699 202.914,205.257 200.132 C 204.122 199.215,202.495 197.595,201.642 196.532 C 198.913 193.134,181.278 175.890,178.186 173.597 C 175.807 171.831,174.039 169.891,172.798 167.682 C 171.945 166.164,166.259 160.860,162.797 158.352 C 161.920 157.717,160.225 155.713,159.030 153.899 C 157.487 151.557,155.727 149.614,152.961 147.200 C 145.749 140.906,131.964 127.447,126.439 121.305 C 124.070 118.671,121.757 116.564,119.961 115.403 C 117.794 114.001,116.817 113.036,115.601 111.098 C 114.632 109.555,112.863 107.616,110.970 106.026 C 109.286 104.610,106.083 101.457,103.854 99.020 C 101.624 96.582,96.965 91.896,93.500 88.605 C 90.035 85.315,87.200 82.513,87.200 82.378 C 87.200 81.976,84.435 79.217,80.407 75.600 C 75.199 70.924,72.390 68.072,68.322 63.335 C 65.996 60.625,64.142 58.881,62.722 58.067 C 60.315 56.685,58.184 54.593,56.635 52.089 C 54.962 49.386,50.152 44.137,47.669 42.306 C 44.062 39.646,39.200 34.282,36.943 30.473 L 34.885 27.001 35.604 25.601 C 36.884 23.104,39.144 21.726,43.313 20.900 C 44.614 20.642,282.183 20.609,296.600 20.864 M24.220 45.633 C 24.368 45.871,25.255 46.395,26.192 46.797 C 27.239 47.245,29.576 49.175,32.248 51.798 C 34.642 54.147,37.515 56.757,38.633 57.597 C 39.751 58.438,42.091 60.680,43.833 62.579 C 45.575 64.479,48.906 67.974,51.235 70.346 C 53.565 72.719,56.232 75.623,57.162 76.800 C 58.093 77.977,60.147 80.116,61.727 81.552 C 63.307 82.989,67.224 86.782,70.431 89.982 C 73.639 93.182,78.589 98.060,81.431 100.821 C 84.274 103.583,88.310 107.637,90.400 109.830 C 92.490 112.023,94.830 114.250,95.600 114.779 C 97.614 116.161,113.857 132.698,115.069 134.600 C 116.412 136.708,120.888 141.281,123.400 143.111 C 126.754 145.555,129.737 148.396,133.999 153.206 C 136.239 155.732,139.180 158.794,140.535 160.008 C 141.891 161.223,145.190 164.373,147.867 167.008 C 150.545 169.644,154.235 173.265,156.067 175.056 C 161.376 180.242,168.110 187.239,175.267 195.000 C 181.878 202.171,187.349 207.481,189.480 208.795 C 190.096 209.175,191.500 210.510,192.600 211.761 C 193.700 213.013,199.190 218.609,204.800 224.197 C 210.410 229.785,215.236 234.592,215.523 234.878 C 215.811 235.165,222.207 241.610,229.737 249.200 C 237.266 256.790,243.780 263.281,244.213 263.624 C 244.646 263.968,248.150 267.547,252.000 271.578 C 260.128 280.090,259.193 279.153,262.600 282.200 C 265.627 284.907,281.200 300.485,281.200 300.806 C 281.200 300.920,282.875 302.506,284.922 304.330 C 286.968 306.154,288.965 308.244,289.359 308.976 C 289.753 309.707,290.485 310.524,290.986 310.793 C 291.488 311.061,292.562 312.075,293.374 313.047 C 294.186 314.018,295.722 315.400,296.788 316.118 C 297.854 316.835,300.560 319.488,302.802 322.011 C 307.076 326.822,323.592 343.278,326.000 345.125 C 328.214 346.822,344.791 363.603,345.880 365.250 C 346.421 366.067,347.893 367.631,349.152 368.726 C 353.748 372.724,356.690 377.101,356.790 380.091 C 356.796 380.252,355.496 381.242,353.903 382.291 L 351.006 384.200 205.603 384.320 C 95.146 384.411,59.815 384.327,58.600 383.970 C 57.681 383.701,54.788 383.525,51.800 383.558 C 44.933 383.634,33.251 380.848,29.725 378.293 C 24.136 374.244,22.963 372.970,21.845 369.734 C 21.249 368.010,20.243 365.430,19.608 364.000 C 17.460 359.160,17.225 355.010,16.971 317.374 C 16.716 279.786,16.721 277.189,17.042 273.800 C 17.167 272.480,17.068 266.630,16.822 260.800 C 16.444 251.847,16.472 248.894,17.007 241.800 C 17.724 232.280,17.768 227.576,17.205 220.400 C 16.520 211.654,17.035 60.392,17.768 55.000 C 18.601 48.873,19.315 46.971,21.142 46.006 C 22.802 45.129,23.832 45.004,24.220 45.633 " stroke="none" fill="#240f19" fill-rule="evenodd"></path><path id="path2" d="M50.427 23.514 C 45.809 23.796,41.777 28.937,43.819 31.942 C 44.358 32.736,44.800 33.614,44.800 33.893 C 44.800 34.172,44.951 34.400,45.135 34.400 C 45.319 34.400,46.393 35.300,47.523 36.400 C 48.652 37.500,49.740 38.400,49.940 38.400 C 51.470 38.400,57.412 44.418,58.826 47.400 C 59.991 49.857,65.816 55.507,67.850 56.152 C 69.042 56.531,72.869 60.961,76.003 65.590 C 76.669 66.574,77.559 67.564,77.981 67.790 C 80.164 68.959,91.420 79.908,93.928 83.302 C 94.861 84.566,95.779 85.600,95.968 85.600 C 96.552 85.600,104.482 93.143,105.449 94.619 C 106.420 96.100,113.053 102.547,114.794 103.700 C 115.561 104.208,116.391 105.031,116.639 105.527 C 116.886 106.024,117.361 106.649,117.692 106.915 C 118.024 107.182,118.725 108.052,119.250 108.849 C 120.394 110.586,123.196 112.912,125.400 113.954 C 126.923 114.674,129.065 116.784,132.600 121.047 C 133.480 122.108,134.740 123.500,135.400 124.141 C 140.471 129.062,141.635 130.283,141.825 130.880 C 141.944 131.253,142.378 131.666,142.789 131.797 C 143.201 131.927,144.145 132.701,144.887 133.517 C 145.628 134.333,146.942 135.535,147.807 136.188 C 151.759 139.177,160.615 148.073,162.000 150.445 C 163.506 153.024,170.200 159.379,172.530 160.441 C 173.551 160.906,177.599 165.862,177.601 166.649 C 177.602 167.180,182.190 171.600,182.741 171.600 C 183.366 171.600,196.556 184.444,207.352 195.566 C 211.285 199.618,213.033 200.815,217.699 202.652 C 219.709 203.444,220.045 203.846,218.900 204.092 C 218.515 204.174,224.950 204.358,233.200 204.501 C 248.345 204.763,253.740 205.242,256.336 206.555 C 257.911 207.351,259.435 207.546,267.770 208.014 C 273.282 208.323,275.963 208.648,277.633 209.211 C 279.485 209.835,280.168 209.900,281.178 209.548 C 283.628 208.694,289.268 210.154,287.598 211.210 C 287.141 211.498,287.272 211.589,288.150 211.594 C 288.783 211.597,290.916 212.246,292.889 213.036 C 294.863 213.825,297.604 214.631,298.980 214.826 C 302.065 215.263,302.702 215.490,304.131 216.668 C 304.974 217.363,305.759 217.600,307.218 217.600 C 308.793 217.600,309.130 217.717,308.945 218.200 C 308.782 218.623,308.978 218.800,309.611 218.800 C 311.192 218.800,313.597 219.707,314.553 220.662 C 315.190 221.299,316.413 221.771,318.441 222.162 C 321.850 222.820,323.518 223.402,324.474 224.267 C 324.846 224.603,325.343 224.759,325.578 224.613 C 326.199 224.230,327.600 224.762,327.600 225.382 C 327.600 225.703,328.329 226.018,329.465 226.189 C 330.756 226.382,331.694 226.833,332.513 227.651 C 333.164 228.302,334.786 229.211,336.118 229.672 C 338.347 230.444,345.211 234.646,345.800 235.601 C 345.940 235.827,346.807 236.394,347.727 236.862 C 349.638 237.835,353.358 241.280,354.214 242.872 C 354.532 243.461,355.114 244.046,355.509 244.171 C 358.089 244.990,357.841 248.339,355.105 249.626 C 354.167 250.067,352.548 251.036,351.507 251.779 C 350.465 252.523,348.709 253.325,347.603 253.562 C 346.498 253.799,344.898 254.453,344.049 255.015 C 343.200 255.577,341.536 256.404,340.352 256.852 C 337.450 257.950,336.694 258.654,337.266 259.723 C 338.125 261.329,338.780 264.964,338.270 265.298 C 336.944 266.167,342.171 268.779,345.258 268.791 C 348.186 268.803,352.648 270.170,353.215 271.229 C 353.451 271.669,354.579 272.444,355.722 272.950 C 359.096 274.444,359.575 277.340,356.696 278.844 C 356.203 279.102,354.519 280.636,352.952 282.255 C 351.386 283.873,349.477 285.459,348.711 285.779 C 347.944 286.100,347.017 286.819,346.651 287.379 C 346.284 287.938,345.374 288.651,344.627 288.963 C 343.881 289.275,342.538 290.262,341.643 291.157 C 340.556 292.244,339.410 292.937,338.195 293.243 C 337.158 293.504,336.197 294.031,335.964 294.467 C 335.739 294.888,334.350 295.839,332.877 296.580 C 321.282 302.415,321.344 302.375,322.003 303.606 C 322.388 304.325,322.314 304.772,321.582 306.151 L 320.694 307.825 321.960 310.068 C 322.657 311.302,324.125 313.097,325.224 314.056 C 329.352 317.661,334.933 323.050,335.948 324.412 C 337.167 326.047,341.901 330.417,345.468 333.200 C 346.682 334.147,349.019 337.320,350.239 339.676 C 350.979 341.107,354.149 344.047,355.615 344.663 C 357.278 345.362,361.617 348.930,365.658 352.921 L 369.115 356.335 370.858 356.107 C 372.879 355.841,374.281 354.844,375.786 352.600 L 376.858 351.000 376.729 327.600 C 376.658 314.730,376.640 249.794,376.689 183.298 C 376.776 66.408,376.718 59.689,375.608 57.616 C 375.384 57.196,375.194 55.986,375.186 54.926 C 375.178 53.867,374.905 51.830,374.579 50.400 C 374.253 48.970,373.715 46.574,373.383 45.075 C 372.732 42.137,370.908 38.525,369.104 36.600 C 368.485 35.940,367.430 34.552,366.758 33.516 C 365.939 32.253,364.658 31.083,362.869 29.966 C 361.401 29.050,359.840 27.983,359.400 27.596 C 358.850 27.111,357.103 26.693,353.800 26.253 C 350.084 25.759,348.468 25.342,346.644 24.408 L 344.288 23.200 336.526 23.200 C 327.867 23.200,327.133 23.434,326.543 26.383 C 326.258 27.812,325.612 27.608,325.572 26.076 C 325.547 25.127,325.506 25.094,325.220 25.800 C 325.041 26.240,324.872 52.663,324.844 84.518 L 324.793 142.436 323.767 145.318 C 323.202 146.903,322.497 149.100,322.200 150.200 C 320.734 155.624,318.902 158.317,312.200 164.903 C 309.120 167.930,306.240 170.519,305.800 170.657 C 305.360 170.795,304.418 171.416,303.706 172.037 C 302.514 173.076,299.117 174.398,297.627 174.401 C 297.282 174.402,296.373 174.785,295.607 175.252 C 292.567 177.105,291.489 177.263,281.600 177.299 C 271.668 177.336,268.471 176.971,266.113 175.535 C 265.405 175.104,263.626 174.408,262.159 173.988 C 260.692 173.569,259.111 172.948,258.646 172.608 C 258.181 172.269,257.080 171.522,256.200 170.948 C 253.511 169.195,244.731 160.601,243.811 158.821 C 243.477 158.176,242.676 157.336,242.031 156.954 C 240.857 156.261,240.416 155.381,240.405 153.713 C 240.402 153.089,240.221 152.894,239.800 153.055 C 239.336 153.233,239.200 152.963,239.200 151.863 C 239.200 150.897,238.876 150.092,238.190 149.352 C 237.635 148.753,237.080 147.798,236.958 147.231 C 236.554 145.362,235.936 144.061,235.343 143.833 C 234.433 143.484,233.285 140.460,232.978 137.600 C 232.811 136.045,232.226 134.009,231.524 132.535 C 229.274 127.810,228.999 118.091,230.953 112.292 C 231.529 110.582,232.000 108.377,232.000 107.392 C 232.000 105.731,232.760 104.735,232.833 106.300 C 232.852 106.726,233.087 106.493,233.431 105.706 C 233.943 104.535,234.851 103.769,238.463 101.456 C 241.038 99.807,244.104 101.586,245.603 105.600 C 246.055 106.810,246.958 108.880,247.610 110.200 C 248.431 111.863,249.048 114.120,249.617 117.549 C 250.174 120.903,250.801 123.224,251.563 124.749 C 252.182 125.987,253.005 127.967,253.392 129.148 C 253.780 130.330,254.450 131.650,254.883 132.083 C 255.316 132.516,255.908 133.441,256.200 134.138 C 256.491 134.835,257.446 136.049,258.322 136.835 C 259.198 137.622,260.301 139.021,260.772 139.945 C 261.331 141.040,262.293 142.034,263.536 142.799 C 264.585 143.444,265.913 144.500,266.489 145.146 C 267.211 145.956,268.174 146.457,269.598 146.762 C 272.059 147.290,273.015 147.750,274.562 149.149 C 275.201 149.727,275.595 149.975,275.438 149.700 C 275.281 149.425,275.298 149.192,275.476 149.183 C 275.654 149.173,276.593 149.012,277.562 148.825 C 279.572 148.437,282.074 149.032,281.139 149.676 C 280.449 150.151,284.727 149.651,285.691 149.145 C 286.071 148.945,286.570 148.430,286.800 148.000 C 287.030 147.571,288.069 146.957,289.109 146.637 C 290.149 146.317,290.674 146.043,290.276 146.028 C 289.878 146.013,289.657 145.832,289.783 145.627 C 289.910 145.422,290.519 145.268,291.137 145.286 C 293.434 145.351,297.088 141.343,298.442 137.274 L 299.323 134.628 299.274 80.510 C 299.225 27.086,299.160 24.283,297.977 25.014 C 297.767 25.144,297.011 24.834,296.297 24.325 L 295.000 23.400 173.800 23.391 C 107.140 23.386,51.622 23.441,50.427 23.514 M24.937 55.928 C 22.277 56.923,22.205 57.623,22.172 82.800 C 22.157 94.570,21.962 121.120,21.739 141.800 C 21.458 167.903,21.462 180.501,21.752 183.000 C 22.194 186.801,22.332 198.805,22.007 205.200 C 21.828 208.717,21.895 209.175,22.907 211.348 C 23.516 212.658,24.000 214.395,24.000 215.276 L 24.000 216.854 25.214 215.990 C 27.617 214.279,35.460 215.327,36.282 217.468 C 36.401 217.779,37.180 218.381,38.012 218.806 C 38.844 219.230,39.947 220.096,40.462 220.730 C 40.978 221.364,41.965 222.287,42.655 222.783 C 43.345 223.278,44.133 224.101,44.406 224.611 C 44.679 225.122,45.329 225.646,45.851 225.777 C 46.372 225.908,47.252 226.699,47.805 227.536 C 48.967 229.291,51.492 230.748,51.833 229.859 C 51.979 229.477,52.431 229.711,53.380 230.660 C 54.117 231.397,55.008 232.000,55.360 232.000 C 55.719 232.000,56.000 232.329,56.000 232.751 C 56.000 233.164,56.282 233.736,56.626 234.022 C 56.971 234.308,57.503 235.025,57.808 235.615 C 58.138 236.254,59.222 237.097,60.482 237.695 C 61.647 238.248,63.638 239.700,64.906 240.921 C 66.174 242.143,67.851 243.353,68.632 243.611 C 69.413 243.868,70.649 244.675,71.377 245.404 C 72.551 246.578,72.768 246.660,73.298 246.130 C 73.828 245.600,74.116 245.626,75.848 246.357 C 79.393 247.852,81.665 248.167,82.383 247.263 C 83.167 246.275,84.588 245.842,85.454 246.326 C 86.193 246.740,90.120 244.557,92.027 242.674 C 92.591 242.116,93.761 241.256,94.627 240.763 C 95.492 240.270,96.651 239.456,97.201 238.953 C 97.752 238.450,99.417 237.489,100.901 236.816 C 102.386 236.143,103.600 235.434,103.600 235.242 C 103.600 235.049,104.275 234.578,105.100 234.196 C 110.182 231.842,115.275 229.107,116.895 227.862 C 117.709 227.236,119.454 226.388,120.772 225.978 C 122.091 225.567,123.872 224.767,124.730 224.199 C 125.732 223.536,127.527 222.939,129.736 222.533 C 132.642 221.999,133.391 221.695,134.535 220.584 C 135.739 219.415,138.040 218.409,139.524 218.402 C 139.812 218.401,139.952 218.246,139.835 218.057 C 139.449 217.432,142.318 216.158,142.870 216.710 C 143.249 217.089,143.548 217.013,144.245 216.357 C 144.776 215.859,145.998 215.395,147.268 215.210 C 148.441 215.039,148.995 214.877,148.500 214.850 C 147.278 214.782,147.369 214.309,148.762 213.486 C 149.972 212.771,152.996 212.547,153.366 213.144 C 153.483 213.334,154.442 213.061,155.497 212.539 C 156.843 211.873,158.429 211.515,160.808 211.341 C 163.314 211.158,164.827 210.801,166.600 209.971 C 167.920 209.354,170.127 208.634,171.505 208.372 C 173.253 208.038,173.902 207.759,173.654 207.447 C 173.459 207.201,173.444 206.640,173.621 206.200 C 174.155 204.876,174.028 201.467,173.405 200.400 C 173.084 199.850,172.486 198.727,172.076 197.904 C 171.667 197.082,170.627 195.870,169.766 195.211 C 168.905 194.553,167.300 193.291,166.200 192.407 C 165.100 191.524,163.186 190.088,161.947 189.217 C 159.588 187.560,157.794 185.546,156.603 183.220 C 156.214 182.460,155.645 181.588,155.339 181.282 C 155.032 180.975,154.491 180.156,154.137 179.462 C 153.180 177.587,150.446 174.725,148.613 173.680 C 146.884 172.694,130.479 156.342,128.933 154.063 C 127.825 152.430,124.633 149.606,121.402 147.400 C 118.524 145.435,115.837 142.746,114.540 140.534 C 113.451 138.676,110.355 135.523,106.945 132.800 C 104.076 130.509,99.861 126.284,97.800 123.635 C 94.675 119.617,92.189 116.865,91.434 116.587 C 90.542 116.258,86.286 112.017,82.000 107.187 C 78.419 103.151,77.317 102.048,72.423 97.600 C 67.917 93.505,64.329 89.816,63.843 88.779 C 63.646 88.360,63.163 87.915,62.768 87.790 C 62.374 87.665,61.253 86.806,60.278 85.881 C 59.303 84.957,58.076 83.812,57.552 83.337 C 57.029 82.862,55.700 81.461,54.600 80.224 C 53.500 78.986,52.250 77.664,51.821 77.287 C 51.393 76.909,50.271 75.880,49.327 75.000 C 48.384 74.120,46.556 72.500,45.266 71.400 C 43.976 70.300,42.592 68.860,42.191 68.200 C 41.790 67.540,41.088 66.629,40.631 66.175 C 40.174 65.722,38.545 63.882,37.010 62.087 C 35.476 60.292,33.707 58.610,33.079 58.350 C 32.452 58.090,31.664 57.460,31.330 56.949 C 30.955 56.377,30.162 55.927,29.261 55.776 C 28.457 55.641,27.530 55.480,27.200 55.418 C 26.870 55.356,25.852 55.586,24.937 55.928 M60.000 236.024 C 60.000 236.231,59.730 236.400,59.400 236.400 C 58.781 236.400,58.605 235.928,59.056 235.478 C 59.375 235.158,60.000 235.519,60.000 236.024 M67.414 239.623 C 67.729 240.132,67.310 242.000,66.880 242.000 C 66.481 242.000,65.620 239.713,65.910 239.423 C 66.277 239.056,67.134 239.170,67.414 239.623 M280.616 240.350 C 280.066 242.084,275.689 242.067,275.110 240.329 C 275.032 240.096,273.658 240.690,272.056 241.650 C 268.645 243.693,265.670 248.498,266.923 249.941 C 267.237 250.303,267.590 251.358,267.707 252.284 C 267.850 253.415,268.393 254.546,269.366 255.732 C 270.161 256.703,271.222 258.285,271.724 259.249 C 272.455 260.655,273.154 261.272,275.266 262.377 C 276.713 263.134,278.235 264.258,278.648 264.876 C 279.174 265.661,279.738 265.998,280.526 265.999 C 281.146 265.999,281.990 266.181,282.403 266.402 C 283.219 266.838,286.800 264.795,286.800 263.893 C 286.800 263.646,287.249 262.795,287.798 262.003 C 288.927 260.374,289.023 259.296,288.708 251.800 C 288.539 247.766,286.859 240.822,286.809 243.949 C 286.802 244.394,286.685 244.402,286.195 243.996 C 285.765 243.639,285.710 243.350,286.005 242.993 C 286.320 242.614,286.078 242.429,285.002 242.227 C 284.221 242.080,282.971 241.423,282.223 240.766 C 280.952 239.650,280.847 239.623,280.616 240.350 M273.089 243.066 C 273.306 243.718,271.621 244.181,271.063 243.623 C 270.721 243.281,270.756 243.071,271.203 242.784 C 271.945 242.308,272.883 242.448,273.089 243.066 M25.522 244.852 C 25.638 245.637,25.984 246.175,26.453 246.298 C 28.085 246.725,26.684 247.582,24.336 247.595 C 21.810 247.607,21.406 249.843,21.543 263.022 C 21.617 270.140,21.476 276.522,21.178 279.490 C 20.791 283.363,20.796 285.125,21.207 288.268 C 21.550 290.894,21.756 298.778,21.826 312.000 C 22.014 347.380,22.617 360.862,24.098 362.880 C 24.631 363.606,25.463 365.266,25.946 366.569 C 26.434 367.884,27.532 369.705,28.413 370.660 C 29.286 371.607,30.000 372.552,30.000 372.760 C 30.000 372.968,30.605 373.338,31.345 373.582 C 32.084 373.826,33.718 374.645,34.974 375.401 C 36.877 376.547,37.983 376.878,41.597 377.382 C 43.983 377.715,46.928 378.358,48.141 378.812 L 50.346 379.637 169.473 379.777 C 234.993 379.854,300.265 380.029,314.522 380.168 C 342.624 380.440,341.900 380.486,346.083 378.161 L 348.664 376.727 347.860 375.064 C 347.418 374.149,346.458 372.724,345.728 371.899 C 344.998 371.073,344.400 370.143,344.400 369.831 C 344.400 369.520,343.770 368.876,343.000 368.400 C 342.230 367.924,341.600 367.387,341.600 367.206 C 341.600 366.761,336.363 361.600,335.911 361.600 C 335.376 361.600,331.187 357.567,330.408 356.302 C 330.036 355.698,328.262 353.671,326.466 351.796 C 324.670 349.922,323.200 348.240,323.200 348.058 C 323.200 347.877,322.759 347.527,322.219 347.282 C 321.304 346.865,318.182 343.975,310.249 336.200 C 308.453 334.440,305.817 331.897,304.392 330.548 C 302.966 329.200,301.256 327.490,300.591 326.748 C 296.586 322.282,290.592 317.427,288.561 317.005 C 285.010 316.267,282.728 315.435,283.452 315.142 C 283.863 314.976,283.120 314.947,281.800 315.076 C 280.480 315.206,278.770 315.624,278.000 316.005 C 275.588 317.198,271.596 317.932,266.000 318.213 C 262.130 318.407,260.090 318.696,258.800 319.232 C 253.538 321.420,249.908 321.634,218.428 321.612 C 188.848 321.591,184.399 321.397,180.461 319.956 C 178.781 319.341,177.224 319.126,174.400 319.117 C 171.434 319.108,171.039 319.049,172.600 318.849 C 174.294 318.632,173.887 318.550,169.935 318.313 C 166.736 318.121,164.536 317.763,162.935 317.175 C 161.651 316.703,159.790 316.238,158.800 316.142 C 155.767 315.849,154.843 315.566,155.783 315.220 C 156.316 315.023,155.770 314.848,154.073 314.671 C 151.459 314.398,149.602 313.657,148.110 312.293 C 147.468 311.706,146.157 311.332,143.415 310.953 C 139.608 310.426,137.784 309.786,136.837 308.644 C 136.450 308.178,136.168 308.138,135.632 308.473 C 135.133 308.784,134.595 308.788,133.766 308.487 C 132.628 308.073,132.624 308.062,133.600 308.025 C 135.144 307.967,133.817 307.305,131.525 306.990 C 130.437 306.840,128.874 306.229,127.905 305.575 C 126.967 304.942,125.238 304.222,124.062 303.976 C 121.650 303.470,119.367 302.594,119.027 302.044 C 118.902 301.841,118.428 301.772,117.973 301.891 C 116.983 302.150,115.102 301.232,115.342 300.607 C 115.500 300.196,111.613 298.002,108.400 296.689 C 107.630 296.374,106.190 295.503,105.200 294.752 C 104.210 294.002,102.640 293.051,101.712 292.639 C 100.783 292.227,99.703 291.534,99.312 291.100 C 98.920 290.667,97.340 289.682,95.800 288.913 C 94.260 288.144,92.640 287.198,92.200 286.811 C 91.760 286.424,90.507 285.774,89.415 285.367 C 88.323 284.960,86.883 284.150,86.215 283.567 C 84.785 282.321,82.671 281.481,83.511 282.493 C 83.944 283.015,83.763 283.165,82.231 283.551 C 79.296 284.289,77.300 284.144,76.990 283.170 C 76.735 282.364,76.691 282.373,75.497 283.470 C 73.149 285.626,68.819 290.202,68.809 290.536 C 68.796 290.997,65.424 294.237,63.216 295.909 C 60.121 298.253,51.596 307.280,50.551 309.319 C 50.010 310.374,49.305 311.338,48.984 311.462 C 48.663 311.585,48.400 311.914,48.400 312.193 C 48.400 313.875,39.407 323.600,37.851 323.600 C 37.579 323.600,36.821 323.015,36.165 322.300 C 32.804 318.635,31.255 315.041,31.133 310.627 L 31.066 308.200 30.833 310.600 L 30.600 313.000 30.123 310.800 C 29.137 306.250,29.104 305.266,29.861 302.896 L 30.593 300.600 30.810 302.000 C 30.984 303.122,31.084 302.804,31.316 300.400 C 31.476 298.750,32.156 295.420,32.828 293.000 C 33.501 290.580,34.278 287.340,34.557 285.800 C 35.123 282.665,36.038 280.633,37.213 279.899 C 37.646 279.629,38.000 279.100,38.000 278.723 C 38.000 276.647,38.993 273.787,40.176 272.453 C 41.744 270.687,42.209 269.600,41.395 269.600 C 40.610 269.600,40.185 267.741,40.801 266.999 C 41.070 266.674,41.435 266.498,41.611 266.607 C 41.788 266.716,41.811 266.399,41.662 265.903 C 41.352 264.863,38.603 260.573,38.014 260.209 C 37.797 260.075,36.964 258.978,36.164 257.772 C 35.363 256.566,34.372 255.399,33.962 255.180 C 33.551 254.960,32.762 254.113,32.208 253.297 L 31.200 251.814 31.200 252.940 C 31.200 254.492,30.417 254.132,29.257 252.046 C 28.344 250.407,28.338 250.333,29.057 249.789 C 29.527 249.432,29.608 249.221,29.278 249.213 C 28.991 249.206,28.315 248.237,27.776 247.061 C 26.479 244.227,25.255 243.027,25.522 244.852 M35.200 257.853 C 35.200 258.683,34.362 258.933,33.723 258.294 C 33.230 257.801,33.210 257.529,33.614 256.775 C 34.132 255.805,35.200 256.531,35.200 257.853 M351.800 268.433 C 351.800 269.008,350.427 269.060,349.200 268.532 C 348.780 268.352,348.960 268.188,349.800 267.987 C 351.329 267.621,351.800 267.726,351.800 268.433 M146.551 312.009 C 146.284 312.276,145.599 312.290,144.571 312.049 L 143.000 311.680 144.980 311.640 C 146.328 311.613,146.830 311.730,146.551 312.009 " stroke="none" fill="#db077b" fill-rule="evenodd"></path><path id="path3" d="M182.000 4.800 L 42.200 5.000 36.429 6.747 C 26.784 9.666,19.078 14.861,12.785 22.682 C 11.471 24.316,9.771 26.405,9.008 27.326 C 7.092 29.635,3.902 36.002,2.800 39.714 C 1.994 42.429,1.770 42.800,0.942 42.800 C 0.049 42.800,0.000 42.936,0.000 45.400 C 0.000 51.319,2.692 47.894,4.068 40.224 C 4.403 38.359,4.976 36.850,5.816 35.624 C 6.503 34.621,7.353 32.950,7.705 31.910 C 8.063 30.852,9.016 29.357,9.872 28.510 C 10.712 27.680,12.438 25.641,13.706 23.979 C 21.616 13.619,31.709 8.163,45.443 6.823 C 49.247 6.452,311.017 6.016,324.600 6.359 C 326.580 6.409,334.050 6.495,341.200 6.552 L 354.200 6.654 358.400 7.888 C 366.234 10.191,375.986 15.131,377.209 17.416 C 377.506 17.972,378.346 18.796,379.075 19.246 C 379.804 19.697,380.400 20.193,380.400 20.349 C 380.400 20.504,381.130 21.435,382.023 22.416 C 382.915 23.397,384.220 24.976,384.923 25.925 C 385.625 26.874,386.605 28.160,387.100 28.783 C 387.595 29.406,388.375 31.149,388.835 32.658 C 389.294 34.166,389.997 35.966,390.397 36.659 C 391.085 37.850,391.992 41.495,392.821 46.400 C 393.354 49.559,393.345 357.540,392.811 360.348 C 392.208 363.520,391.402 366.022,390.475 367.600 C 390.022 368.370,389.430 369.900,389.160 371.000 C 388.140 375.144,384.389 379.743,374.092 389.474 C 373.118 390.395,371.412 391.475,370.302 391.874 C 369.191 392.273,367.662 393.169,366.903 393.864 C 365.780 394.892,364.890 395.245,362.128 395.757 C 360.220 396.111,357.842 396.872,356.699 397.493 L 354.666 398.600 199.433 398.600 L 44.200 398.600 41.048 397.483 C 37.293 396.153,33.468 395.214,31.770 395.206 C 30.966 395.202,30.203 394.840,29.570 394.161 C 29.036 393.590,27.944 392.786,27.142 392.374 C 26.340 391.963,25.365 391.305,24.976 390.913 C 24.587 390.521,23.324 389.480,22.171 388.600 C 17.420 384.976,16.039 383.749,15.612 382.773 C 15.365 382.208,14.092 380.592,12.782 379.180 C 11.472 377.769,10.400 376.490,10.400 376.338 C 10.400 376.186,9.948 375.524,9.395 374.867 C 8.842 374.210,8.127 372.928,7.806 372.017 C 7.485 371.106,6.681 369.605,6.020 368.681 C 5.174 367.498,4.639 366.052,4.214 363.800 C 3.266 358.769,2.107 356.000,0.951 356.000 C 0.065 356.000,0.000 356.150,0.000 358.200 C 0.000 360.273,0.057 360.400,0.989 360.400 C 2.032 360.400,2.024 360.381,3.621 366.535 C 3.898 367.600,4.552 369.101,5.074 369.872 C 5.597 370.642,6.550 372.313,7.192 373.585 C 8.404 375.985,11.895 380.817,14.783 384.090 C 16.547 386.090,21.679 390.205,25.508 392.690 C 26.768 393.508,28.277 394.561,28.859 395.029 C 29.442 395.497,31.035 396.099,32.399 396.368 C 33.763 396.636,36.256 397.428,37.939 398.128 L 41.000 399.400 198.600 399.400 L 356.200 399.400 358.823 398.104 C 360.265 397.392,362.385 396.630,363.534 396.413 C 365.707 396.000,366.957 395.482,368.034 394.546 C 368.383 394.243,369.769 393.462,371.114 392.810 C 373.571 391.620,374.195 391.119,380.088 385.600 C 387.314 378.834,391.535 371.487,393.993 361.400 L 394.870 357.800 394.842 202.992 C 394.824 105.812,394.671 47.442,394.430 46.192 C 392.641 36.918,390.125 30.332,386.780 26.171 C 384.394 23.202,381.521 19.988,380.409 19.042 C 379.864 18.579,378.784 17.541,378.009 16.735 C 374.132 12.703,367.591 9.233,359.200 6.755 L 353.400 5.042 345.400 4.920 C 341.000 4.853,333.890 4.754,329.600 4.699 C 325.310 4.645,258.890 4.690,182.000 4.800 M43.313 20.900 C 39.144 21.726,36.884 23.104,35.604 25.601 L 34.885 27.001 36.943 30.473 C 39.200 34.282,44.062 39.646,47.669 42.306 C 50.152 44.137,54.962 49.386,56.635 52.089 C 58.184 54.593,60.315 56.685,62.722 58.067 C 64.142 58.881,65.996 60.625,68.322 63.335 C 72.390 68.072,75.199 70.924,80.407 75.600 C 84.435 79.217,87.200 81.976,87.200 82.378 C 87.200 82.513,90.035 85.315,93.500 88.605 C 96.965 91.896,101.624 96.582,103.854 99.020 C 106.083 101.457,109.286 104.610,110.970 106.026 C 112.863 107.616,114.632 109.555,115.601 111.098 C 116.817 113.036,117.794 114.001,119.961 115.403 C 121.757 116.564,124.070 118.671,126.439 121.305 C 131.964 127.447,145.749 140.906,152.961 147.200 C 155.727 149.614,157.487 151.557,159.030 153.899 C 160.225 155.713,161.920 157.717,162.797 158.352 C 166.259 160.860,171.945 166.164,172.798 167.682 C 174.039 169.891,175.807 171.831,178.186 173.597 C 181.278 175.890,198.913 193.134,201.642 196.532 C 202.495 197.595,204.122 199.215,205.257 200.132 C 208.699 202.914,212.000 206.092,212.000 206.624 C 212.000 207.383,215.056 210.647,222.400 217.732 C 222.950 218.263,224.120 219.519,225.000 220.524 C 226.874 222.664,231.039 226.861,233.600 229.189 C 234.590 230.089,235.850 231.271,236.400 231.816 C 236.950 232.362,238.629 234.021,240.131 235.504 C 250.132 245.375,254.365 249.776,255.282 251.259 C 255.658 251.865,256.487 252.631,257.126 252.962 C 257.765 253.292,258.518 254.120,258.801 254.802 C 259.125 255.585,259.920 256.350,260.957 256.878 C 261.861 257.338,263.390 258.408,264.356 259.257 C 265.322 260.106,266.222 260.804,266.356 260.809 C 266.490 260.814,267.137 261.618,267.794 262.596 C 268.504 263.655,269.749 264.790,270.867 265.398 C 272.905 266.507,274.047 267.714,275.600 270.400 C 276.150 271.351,277.351 272.955,278.268 273.965 C 280.061 275.937,280.337 276.213,284.621 280.305 C 286.173 281.787,287.743 283.481,288.111 284.070 C 288.478 284.658,289.145 285.256,289.594 285.398 C 290.042 285.540,290.672 286.167,290.995 286.790 C 291.317 287.413,292.176 288.291,292.905 288.741 C 294.426 289.681,301.999 297.071,305.087 300.628 C 306.663 302.444,307.669 303.210,309.192 303.758 C 311.157 304.465,314.000 307.105,314.000 308.223 C 314.000 308.486,314.298 308.949,314.662 309.251 C 315.026 309.553,316.277 310.994,317.442 312.453 C 318.606 313.912,320.726 315.963,322.153 317.011 C 323.579 318.058,327.054 321.345,329.873 324.316 C 332.693 327.286,337.340 332.075,340.200 334.958 C 343.203 337.986,345.950 341.155,346.701 342.462 C 347.646 344.105,348.631 345.136,350.301 346.231 C 353.683 348.449,356.658 351.046,363.800 358.014 C 367.320 361.448,370.884 364.670,371.720 365.174 L 373.240 366.090 375.120 364.938 C 377.571 363.437,378.128 362.202,379.420 355.400 L 380.484 349.800 380.419 204.433 C 380.379 115.405,380.208 58.296,379.977 57.079 C 379.770 55.985,379.598 53.810,379.595 52.245 C 379.567 37.012,369.631 24.881,354.600 21.730 L 349.800 20.723 325.800 20.840 C 312.600 20.904,299.460 20.915,296.600 20.864 C 282.183 20.609,44.614 20.642,43.313 20.900 M323.500 22.564 L 325.600 23.260 325.600 25.206 C 325.600 27.438,326.186 28.169,326.543 26.383 C 327.133 23.434,327.867 23.200,336.526 23.200 L 344.288 23.200 346.644 24.408 C 348.468 25.342,350.084 25.759,353.800 26.253 C 357.103 26.693,358.850 27.111,359.400 27.596 C 359.840 27.983,361.401 29.050,362.869 29.966 C 364.658 31.083,365.939 32.253,366.758 33.516 C 367.430 34.552,368.485 35.940,369.104 36.600 C 370.908 38.525,372.732 42.137,373.383 45.075 C 373.715 46.574,374.253 48.970,374.579 50.400 C 374.905 51.830,375.178 53.867,375.186 54.926 C 375.194 55.986,375.384 57.196,375.608 57.616 C 376.718 59.689,376.776 66.408,376.689 183.298 C 376.640 249.794,376.658 314.730,376.729 327.600 L 376.858 351.000 375.786 352.600 C 374.281 354.844,372.879 355.841,370.858 356.107 L 369.115 356.335 365.658 352.921 C 361.617 348.930,357.278 345.362,355.615 344.663 C 354.149 344.047,350.979 341.107,350.239 339.676 C 349.019 337.320,346.682 334.147,345.468 333.200 C 341.901 330.417,337.167 326.047,335.948 324.412 C 334.933 323.050,329.352 317.661,325.224 314.056 C 324.125 313.097,322.657 311.302,321.960 310.068 L 320.694 307.825 321.582 306.151 C 322.855 303.753,322.243 302.618,319.865 302.968 C 313.039 303.973,309.335 303.415,307.258 301.068 C 305.912 299.547,296.501 290.205,288.130 282.080 C 278.774 272.999,276.772 268.400,282.176 268.400 C 282.472 268.400,282.833 268.090,282.979 267.711 C 283.325 266.809,282.213 266.000,280.624 265.999 C 279.729 265.998,279.198 265.696,278.648 264.876 C 278.235 264.258,276.713 263.134,275.266 262.377 C 273.154 261.272,272.455 260.655,271.724 259.249 C 271.222 258.285,270.156 256.696,269.353 255.717 C 268.324 254.461,267.836 253.421,267.697 252.185 C 267.289 248.568,264.698 248.341,264.168 251.876 C 263.722 254.848,261.876 256.338,260.500 254.836 C 260.115 254.416,258.270 252.405,256.400 250.367 C 253.110 246.782,242.029 235.676,231.887 225.800 C 229.177 223.160,226.031 220.010,224.898 218.800 C 223.764 217.590,221.502 215.330,219.870 213.778 C 218.239 212.226,216.767 210.516,216.599 209.978 C 216.432 209.440,215.961 208.526,215.553 207.946 C 214.586 206.572,215.618 205.066,218.021 204.346 C 220.040 203.742,220.006 203.561,217.699 202.652 C 213.033 200.815,211.285 199.618,207.352 195.566 C 196.556 184.444,183.366 171.600,182.741 171.600 C 182.190 171.600,177.602 167.180,177.601 166.649 C 177.599 165.862,173.551 160.906,172.530 160.441 C 170.200 159.379,163.506 153.024,162.000 150.445 C 160.615 148.073,151.759 139.177,147.807 136.188 C 146.942 135.535,145.628 134.333,144.887 133.517 C 144.145 132.701,143.201 131.927,142.789 131.797 C 142.378 131.666,141.944 131.253,141.825 130.880 C 141.635 130.283,140.471 129.062,135.400 124.141 C 134.740 123.500,133.480 122.108,132.600 121.047 C 129.065 116.784,126.923 114.674,125.400 113.954 C 123.196 112.912,120.394 110.586,119.250 108.849 C 118.725 108.052,118.024 107.182,117.692 106.915 C 117.361 106.649,116.886 106.024,116.639 105.527 C 116.391 105.031,115.561 104.208,114.794 103.700 C 113.053 102.547,106.420 96.100,105.449 94.619 C 104.482 93.143,96.552 85.600,95.968 85.600 C 95.779 85.600,94.861 84.566,93.928 83.302 C 91.420 79.908,80.164 68.959,77.981 67.790 C 77.559 67.564,76.669 66.574,76.003 65.590 C 72.869 60.961,69.042 56.531,67.850 56.152 C 65.816 55.507,59.991 49.857,58.826 47.400 C 57.412 44.418,51.470 38.400,49.940 38.400 C 49.740 38.400,48.652 37.500,47.523 36.400 C 46.393 35.300,45.319 34.400,45.135 34.400 C 44.951 34.400,44.800 34.172,44.800 33.893 C 44.800 33.614,44.358 32.736,43.819 31.942 C 42.377 29.820,42.926 28.263,46.080 25.531 L 48.539 23.400 171.770 23.400 L 295.000 23.400 296.297 24.325 C 297.698 25.324,298.400 25.208,298.400 23.976 C 298.400 23.497,298.674 23.200,299.115 23.200 C 299.509 23.200,300.814 22.840,302.015 22.400 C 304.983 21.314,320.074 21.429,323.500 22.564 M21.142 46.006 C 19.315 46.971,18.601 48.873,17.768 55.000 C 17.035 60.392,16.520 211.654,17.205 220.400 C 17.768 227.576,17.724 232.280,17.007 241.800 C 16.472 248.894,16.444 251.847,16.822 260.800 C 17.068 266.630,17.167 272.480,17.042 273.800 C 16.721 277.189,16.716 279.786,16.971 317.374 C 17.225 355.010,17.460 359.160,19.608 364.000 C 20.243 365.430,21.249 368.010,21.845 369.734 C 22.963 372.970,24.136 374.244,29.725 378.293 C 33.251 380.848,44.933 383.634,51.800 383.558 C 54.788 383.525,57.681 383.701,58.600 383.970 C 59.815 384.327,95.146 384.411,205.603 384.320 L 351.006 384.200 353.903 382.291 C 355.496 381.242,356.796 380.252,356.790 380.091 C 356.690 377.101,353.748 372.724,349.152 368.726 C 347.893 367.631,346.421 366.067,345.880 365.250 C 344.791 363.603,328.214 346.822,326.000 345.125 C 323.592 343.278,307.076 326.822,302.802 322.011 C 300.560 319.488,297.854 316.835,296.788 316.118 C 295.722 315.400,294.186 314.018,293.374 313.047 C 292.562 312.075,291.488 311.061,290.986 310.793 C 290.485 310.524,289.753 309.707,289.359 308.976 C 288.965 308.244,286.968 306.154,284.922 304.330 C 282.875 302.506,281.200 300.920,281.200 300.806 C 281.200 300.485,265.627 284.907,262.600 282.200 C 259.193 279.153,260.128 280.090,252.000 271.578 C 248.150 267.547,244.646 263.968,244.213 263.624 C 243.780 263.281,237.266 256.790,229.737 249.200 C 222.207 241.610,215.811 235.165,215.523 234.878 C 215.236 234.592,210.410 229.785,204.800 224.197 C 199.190 218.609,193.700 213.013,192.600 211.761 C 191.500 210.510,190.096 209.175,189.480 208.795 C 187.349 207.481,181.878 202.171,175.267 195.000 C 168.110 187.239,161.376 180.242,156.067 175.056 C 154.235 173.265,150.545 169.644,147.867 167.008 C 145.190 164.373,141.891 161.223,140.535 160.008 C 139.180 158.794,136.239 155.732,133.999 153.206 C 129.737 148.396,126.754 145.555,123.400 143.111 C 120.888 141.281,116.412 136.708,115.069 134.600 C 113.857 132.698,97.614 116.161,95.600 114.779 C 94.830 114.250,92.490 112.023,90.400 109.830 C 88.310 107.637,84.274 103.583,81.431 100.821 C 78.589 98.060,73.639 93.182,70.431 89.982 C 67.224 86.782,63.307 82.989,61.727 81.552 C 60.147 80.116,58.093 77.977,57.162 76.800 C 56.232 75.623,53.565 72.719,51.235 70.346 C 48.906 67.974,45.575 64.479,43.833 62.579 C 42.091 60.680,39.751 58.438,38.633 57.597 C 37.515 56.757,34.642 54.147,32.248 51.798 C 29.576 49.175,27.239 47.245,26.192 46.797 C 25.255 46.395,24.368 45.871,24.220 45.633 C 23.832 45.004,22.802 45.129,21.142 46.006 M29.261 55.776 C 30.162 55.927,30.955 56.377,31.330 56.949 C 31.664 57.460,32.452 58.090,33.079 58.350 C 33.707 58.610,35.476 60.292,37.010 62.087 C 38.545 63.882,40.174 65.722,40.631 66.175 C 41.088 66.629,41.790 67.540,42.191 68.200 C 42.592 68.860,43.976 70.300,45.266 71.400 C 46.556 72.500,48.384 74.120,49.327 75.000 C 50.271 75.880,51.393 76.909,51.821 77.287 C 52.250 77.664,53.500 78.986,54.600 80.224 C 55.700 81.461,57.029 82.862,57.552 83.337 C 58.076 83.812,59.303 84.957,60.278 85.881 C 61.253 86.806,62.374 87.665,62.768 87.790 C 63.163 87.915,63.646 88.360,63.843 88.779 C 64.329 89.816,67.917 93.505,72.423 97.600 C 77.317 102.048,78.419 103.151,82.000 107.187 C 86.286 112.017,90.542 116.258,91.434 116.587 C 92.189 116.865,94.675 119.617,97.800 123.635 C 99.861 126.284,104.076 130.509,106.945 132.800 C 110.355 135.523,113.451 138.676,114.540 140.534 C 115.837 142.746,118.524 145.435,121.402 147.400 C 124.633 149.606,127.825 152.430,128.933 154.063 C 130.479 156.342,146.884 172.694,148.613 173.680 C 150.446 174.725,153.180 177.587,154.137 179.462 C 154.491 180.156,155.032 180.975,155.339 181.282 C 155.645 181.588,156.214 182.460,156.603 183.220 C 157.794 185.546,159.588 187.560,161.947 189.217 C 163.186 190.088,165.100 191.524,166.200 192.407 C 167.300 193.291,168.905 194.553,169.766 195.211 C 170.627 195.870,171.667 197.082,172.076 197.904 C 172.486 198.727,173.084 199.850,173.405 200.400 C 174.071 201.542,174.185 204.661,173.615 206.160 C 173.056 207.631,173.531 207.773,179.340 207.876 C 187.068 208.014,183.202 204.754,224.200 245.693 C 244.000 265.464,266.101 287.526,273.313 294.720 C 290.380 311.744,291.369 313.468,284.855 314.835 L 282.600 315.308 284.200 315.876 C 285.080 316.188,286.663 316.611,287.718 316.815 C 290.486 317.351,295.935 321.555,300.591 326.748 C 301.256 327.490,302.966 329.200,304.392 330.548 C 305.817 331.897,308.453 334.440,310.249 336.200 C 318.182 343.975,321.304 346.865,322.219 347.282 C 322.759 347.527,323.200 347.877,323.200 348.058 C 323.200 348.240,324.670 349.922,326.466 351.796 C 328.262 353.671,330.036 355.698,330.408 356.302 C 331.187 357.567,335.376 361.600,335.911 361.600 C 336.363 361.600,341.600 366.761,341.600 367.206 C 341.600 367.387,342.230 367.924,343.000 368.400 C 343.770 368.876,344.400 369.520,344.400 369.831 C 344.400 370.143,344.998 371.073,345.728 371.899 C 346.458 372.724,347.418 374.149,347.860 375.064 L 348.664 376.727 346.083 378.161 C 341.900 380.486,342.624 380.440,314.522 380.168 C 300.265 380.029,234.993 379.854,169.473 379.777 L 50.346 379.637 48.141 378.812 C 46.928 378.358,43.983 377.715,41.597 377.382 C 37.983 376.878,36.877 376.547,34.974 375.401 C 33.718 374.645,32.084 373.826,31.345 373.582 C 30.605 373.338,30.000 372.968,30.000 372.760 C 30.000 372.552,29.286 371.607,28.413 370.660 C 27.532 369.705,26.434 367.884,25.946 366.569 C 25.463 365.266,24.631 363.606,24.098 362.880 C 22.617 360.862,22.014 347.380,21.826 312.000 C 21.756 298.778,21.550 290.894,21.207 288.268 C 20.796 285.125,20.791 283.363,21.178 279.490 C 21.476 276.522,21.617 270.140,21.543 263.022 C 21.406 249.843,21.810 247.607,24.336 247.595 C 26.726 247.582,28.079 246.723,26.400 246.284 C 25.913 246.157,25.600 245.738,25.600 245.216 C 25.600 244.743,25.218 243.519,24.752 242.495 C 23.683 240.147,23.098 235.771,23.403 232.400 C 24.189 223.738,23.923 213.527,22.853 211.231 C 21.902 209.190,21.830 208.676,22.007 205.200 C 22.332 198.805,22.194 186.801,21.752 183.000 C 21.462 180.501,21.458 167.903,21.739 141.800 C 21.962 121.120,22.157 94.570,22.172 82.800 C 22.205 57.623,22.277 56.923,24.937 55.928 C 25.852 55.586,26.870 55.356,27.200 55.418 C 27.530 55.480,28.457 55.641,29.261 55.776 M232.028 107.900 C 232.048 109.555,232.153 109.976,232.400 109.400 C 232.882 108.278,232.882 105.600,232.400 105.600 C 232.176 105.600,232.012 106.615,232.028 107.900 M289.783 145.627 C 289.657 145.832,290.193 146.000,290.976 146.000 C 291.759 146.000,292.400 145.847,292.400 145.661 C 292.400 145.195,290.069 145.164,289.783 145.627 M278.600 148.599 C 278.380 148.673,277.520 148.848,276.689 148.987 C 274.412 149.369,275.314 150.001,278.124 149.994 C 281.224 149.986,282.206 149.489,280.379 148.853 C 279.665 148.604,279.062 148.414,279.040 148.432 C 279.018 148.449,278.820 148.524,278.600 148.599 M239.200 151.733 C 239.200 152.540,239.376 153.200,239.592 153.200 C 239.808 153.200,239.921 152.653,239.843 151.984 C 239.635 150.201,239.200 150.031,239.200 151.733 M0.000 192.000 C 0.000 193.013,0.156 193.200,1.000 193.200 C 1.844 193.200,2.000 193.013,2.000 192.000 C 2.000 190.987,1.844 190.800,1.000 190.800 C 0.156 190.800,0.000 190.987,0.000 192.000 M280.900 209.612 C 279.472 210.187,279.841 210.700,282.020 211.167 C 285.870 211.993,289.265 211.441,287.400 210.293 C 285.756 209.280,282.559 208.946,280.900 209.612 M148.700 213.493 C 146.771 214.707,147.849 215.237,151.413 214.828 C 153.057 214.639,153.400 214.462,153.400 213.800 C 153.400 212.697,150.288 212.493,148.700 213.493 M140.619 217.178 C 139.659 217.815,139.559 218.009,140.085 218.211 C 141.364 218.702,143.000 218.250,143.000 217.405 C 143.000 216.325,142.041 216.233,140.619 217.178 M306.200 218.000 C 307.312 218.478,308.705 218.478,309.000 218.000 C 309.153 217.753,308.510 217.611,307.324 217.628 C 305.881 217.649,305.600 217.742,306.200 218.000 M325.478 224.656 C 325.024 225.109,325.620 225.600,326.624 225.600 C 327.721 225.600,327.932 225.013,326.967 224.643 C 326.160 224.333,325.797 224.336,325.478 224.656 M51.831 229.863 C 51.446 230.867,52.309 232.291,53.471 232.568 C 54.092 232.717,54.915 232.932,55.300 233.046 C 55.757 233.182,56.000 233.037,56.000 232.627 C 56.000 232.282,55.712 232.000,55.360 232.000 C 55.008 232.000,54.117 231.397,53.380 230.660 C 52.424 229.704,51.980 229.476,51.831 229.863 M0.000 231.400 C 0.000 233.053,0.081 233.200,1.000 233.200 C 1.919 233.200,2.000 233.053,2.000 231.400 C 2.000 229.747,1.919 229.600,1.000 229.600 C 0.081 229.600,0.000 229.747,0.000 231.400 M59.056 235.478 C 58.605 235.928,58.781 236.400,59.400 236.400 C 59.730 236.400,60.000 236.231,60.000 236.024 C 60.000 235.519,59.375 235.158,59.056 235.478 M276.200 239.151 C 275.540 239.292,275.045 239.541,275.100 239.704 C 275.155 239.867,275.200 240.163,275.200 240.362 C 275.200 240.686,278.459 242.000,279.262 242.000 C 279.438 242.000,279.877 241.549,280.238 240.998 C 281.446 239.154,279.771 238.388,276.200 239.151 M65.910 239.423 C 65.620 239.713,66.481 242.000,66.880 242.000 C 67.310 242.000,67.729 240.132,67.414 239.623 C 67.134 239.170,66.277 239.056,65.910 239.423 M271.203 242.784 C 270.756 243.071,270.721 243.281,271.063 243.623 C 271.621 244.181,273.306 243.718,273.089 243.066 C 272.883 242.448,271.945 242.308,271.203 242.784 M285.828 243.155 C 285.707 243.350,285.877 243.732,286.204 244.004 C 286.700 244.415,286.800 244.355,286.800 243.649 C 286.800 242.791,286.232 242.502,285.828 243.155 M73.156 246.256 C 72.830 246.652,72.765 246.986,73.000 247.066 C 74.744 247.657,76.218 248.723,76.324 249.471 C 76.637 251.668,80.840 251.582,81.901 249.358 C 82.394 248.324,82.798 248.000,83.598 248.000 C 85.103 248.000,86.409 246.959,85.600 246.404 C 84.786 245.845,83.135 246.274,82.387 247.239 C 81.725 248.093,78.745 247.776,76.400 246.602 C 74.468 245.635,73.734 245.556,73.156 246.256 M288.598 248.875 C 288.461 249.604,288.525 251.911,288.739 254.002 C 288.953 256.093,288.989 258.568,288.818 259.502 C 288.496 261.264,288.749 261.625,289.595 260.607 C 290.316 259.737,291.025 251.728,290.571 249.577 C 290.095 247.321,288.964 246.919,288.598 248.875 M28.846 249.963 C 28.391 250.251,28.463 250.620,29.246 252.027 C 30.538 254.349,31.200 254.497,31.200 252.466 C 31.200 249.777,30.431 248.959,28.846 249.963 M0.000 265.000 L 0.000 274.000 1.000 274.000 L 2.000 274.000 2.000 265.000 L 2.000 256.000 1.000 256.000 L 0.000 256.000 0.000 265.000 M33.614 256.775 C 33.210 257.529,33.230 257.801,33.723 258.294 C 34.896 259.467,35.691 258.024,34.653 256.604 C 34.126 255.883,34.087 255.890,33.614 256.775 M334.759 259.804 C 331.228 260.772,331.103 260.920,331.963 263.109 C 332.798 265.236,336.397 266.480,338.270 265.289 C 338.921 264.875,337.573 259.111,336.857 259.250 C 336.716 259.277,335.771 259.527,334.759 259.804 M40.804 266.995 C 40.191 267.734,40.604 269.600,41.381 269.600 C 42.165 269.600,42.534 268.198,42.008 267.215 C 41.487 266.241,41.437 266.232,40.804 266.995 M349.800 267.987 C 348.960 268.188,348.780 268.352,349.200 268.532 C 350.427 269.060,351.800 269.008,351.800 268.433 C 351.800 267.726,351.329 267.621,349.800 267.987 M77.700 281.612 C 76.760 281.990,76.639 282.314,77.043 283.367 C 77.341 284.143,80.215 284.182,82.600 283.442 L 84.200 282.946 82.800 282.074 C 81.348 281.171,79.268 280.982,77.700 281.612 M115.200 300.656 C 115.200 301.156,116.614 301.975,117.500 301.987 C 118.530 302.002,118.727 301.011,117.767 300.643 C 116.932 300.322,115.200 300.331,115.200 300.656 M29.857 302.886 C 29.125 305.203,29.282 308.113,30.340 311.800 C 30.807 313.428,31.320 304.443,30.888 302.200 L 30.580 300.600 29.857 302.886 M133.600 307.972 C 132.615 308.260,132.619 308.269,133.890 308.562 C 135.359 308.900,136.420 308.512,135.543 307.956 C 134.934 307.571,134.974 307.570,133.600 307.972 M144.571 312.049 C 145.599 312.290,146.284 312.276,146.551 312.009 C 146.830 311.730,146.328 311.613,144.980 311.640 L 143.000 311.680 144.571 312.049 M155.829 315.158 C 155.114 315.438,155.109 315.480,155.762 315.730 C 156.851 316.148,160.400 316.048,160.400 315.600 C 160.400 315.380,159.785 315.200,159.033 315.200 C 158.281 315.200,157.426 315.123,157.133 315.028 C 156.840 314.933,156.253 314.992,155.829 315.158 M172.100 319.091 C 172.925 319.178,174.275 319.178,175.100 319.091 C 175.925 319.005,175.250 318.934,173.600 318.934 C 171.950 318.934,171.275 319.005,172.100 319.091 " stroke="none" fill="#891c5d" fill-rule="evenodd"></path><path id="path4" d="M41.519 3.679 C 39.560 3.857,37.666 4.321,36.319 4.954 C 35.153 5.502,33.300 6.167,32.200 6.433 C 30.036 6.956,28.389 7.684,27.538 8.492 C 27.242 8.773,26.063 9.434,24.918 9.961 C 23.773 10.488,22.119 11.568,21.242 12.360 C 20.365 13.152,18.419 14.836,16.919 16.102 C 15.419 17.368,13.293 19.494,12.196 20.827 C 11.098 22.159,9.528 24.020,8.706 24.963 C 7.885 25.905,6.759 27.666,6.205 28.877 C 5.650 30.088,4.862 31.382,4.453 31.752 C 4.044 32.123,3.279 33.859,2.754 35.611 C 1.930 38.363,1.678 38.796,0.900 38.798 C 0.087 38.800,0.000 38.993,0.000 40.800 C 0.000 44.333,1.614 43.707,2.800 39.714 C 3.902 36.002,7.092 29.635,9.008 27.326 C 9.771 26.405,11.471 24.316,12.785 22.682 C 19.078 14.861,26.784 9.666,36.429 6.747 L 42.200 5.000 182.400 4.800 C 259.510 4.690,329.530 4.695,338.000 4.811 L 353.400 5.022 359.200 6.745 C 367.602 9.240,374.143 12.715,378.009 16.735 C 378.784 17.541,379.864 18.579,380.409 19.042 C 381.521 19.988,384.394 23.202,386.780 26.171 C 390.125 30.332,392.641 36.918,394.430 46.192 C 394.671 47.442,394.824 105.812,394.842 202.992 L 394.870 357.800 393.993 361.400 C 391.535 371.487,387.314 378.834,380.088 385.600 C 374.195 391.119,373.571 391.620,371.114 392.810 C 369.769 393.462,368.383 394.243,368.034 394.546 C 366.957 395.482,365.707 396.000,363.534 396.413 C 362.385 396.630,360.265 397.392,358.823 398.104 L 356.200 399.400 198.600 399.400 L 41.000 399.400 37.939 398.128 C 36.256 397.428,33.763 396.636,32.399 396.368 C 31.035 396.099,29.442 395.497,28.859 395.029 C 28.277 394.561,26.768 393.508,25.508 392.690 C 21.679 390.205,16.547 386.090,14.783 384.090 C 11.895 380.817,8.404 375.985,7.192 373.585 C 6.550 372.313,5.597 370.642,5.074 369.872 C 4.552 369.101,3.898 367.600,3.621 366.535 C 2.024 360.381,2.032 360.400,0.989 360.400 C 0.069 360.400,0.000 360.539,0.000 362.400 C 0.000 364.242,0.076 364.400,0.955 364.400 C 1.746 364.400,1.957 364.659,2.175 365.900 C 2.642 368.549,3.611 371.086,4.445 371.841 C 4.891 372.245,5.878 373.841,6.636 375.388 C 9.411 381.043,15.132 387.624,19.197 389.837 C 20.273 390.423,21.240 391.128,21.346 391.404 C 21.452 391.680,22.588 392.494,23.869 393.213 C 25.151 393.932,26.673 394.955,27.252 395.488 C 27.890 396.077,29.528 396.771,31.424 397.256 C 33.140 397.696,34.983 398.401,35.519 398.822 C 37.872 400.673,30.465 400.586,196.600 400.708 C 363.377 400.831,358.125 400.888,360.233 398.935 C 360.940 398.279,362.251 397.738,364.030 397.367 C 367.472 396.649,368.489 396.259,369.216 395.374 C 369.537 394.984,370.912 394.160,372.271 393.542 C 373.630 392.924,374.980 392.085,375.271 391.677 C 375.562 391.270,376.340 390.603,377.000 390.197 C 377.660 389.790,378.870 388.814,379.689 388.029 C 380.508 387.243,381.651 386.150,382.228 385.600 C 384.507 383.428,385.943 381.742,386.561 380.512 C 386.917 379.803,387.543 379.045,387.952 378.826 C 388.361 378.607,388.978 377.834,389.322 377.107 C 389.667 376.381,390.392 375.135,390.933 374.337 C 391.918 372.885,394.753 365.007,395.832 360.724 C 396.325 358.764,396.391 336.641,396.303 201.324 L 396.200 44.200 395.354 41.800 C 394.889 40.480,394.031 37.865,393.447 35.989 C 391.848 30.849,388.970 26.309,384.300 21.558 C 383.255 20.495,382.400 19.441,382.400 19.217 C 382.400 18.993,381.694 18.364,380.831 17.820 C 379.969 17.275,378.940 16.283,378.545 15.614 C 378.150 14.946,377.532 14.305,377.172 14.191 C 376.811 14.077,375.995 13.440,375.358 12.777 C 374.721 12.114,373.131 11.018,371.824 10.341 C 370.518 9.665,368.988 8.773,368.424 8.359 C 367.861 7.945,365.870 7.221,364.000 6.750 C 362.130 6.279,359.250 5.343,357.600 4.670 L 354.600 3.446 199.600 3.423 C 114.350 3.410,43.213 3.526,41.519 3.679 M302.015 22.400 C 300.814 22.840,299.509 23.200,299.115 23.200 C 298.305 23.200,298.156 24.396,298.812 25.623 C 299.089 26.139,299.241 44.220,299.274 80.510 L 299.323 134.628 298.442 137.274 C 297.842 139.076,296.962 140.603,295.681 142.064 C 292.618 145.556,292.204 145.871,289.977 146.406 C 288.530 146.753,287.492 147.307,286.733 148.138 C 284.714 150.348,276.528 150.921,274.400 149.000 C 273.018 147.753,271.996 147.276,269.598 146.762 C 268.174 146.457,267.211 145.956,266.489 145.146 C 265.913 144.500,264.585 143.444,263.536 142.799 C 262.293 142.034,261.331 141.040,260.772 139.945 C 260.301 139.021,259.198 137.622,258.322 136.835 C 257.446 136.049,256.491 134.835,256.200 134.138 C 255.908 133.441,255.316 132.516,254.883 132.083 C 254.450 131.650,253.780 130.330,253.392 129.148 C 253.005 127.967,252.182 125.987,251.563 124.749 C 250.801 123.224,250.174 120.903,249.617 117.549 C 249.048 114.120,248.431 111.863,247.610 110.200 C 246.958 108.880,246.055 106.810,245.603 105.600 C 244.104 101.586,241.038 99.807,238.463 101.456 C 233.794 104.446,233.290 105.056,232.645 108.500 C 232.490 109.325,232.199 110.000,231.998 110.000 C 229.335 110.000,228.974 127.180,231.524 132.535 C 232.226 134.009,232.811 136.045,232.978 137.600 C 233.285 140.460,234.433 143.484,235.343 143.833 C 235.936 144.061,236.554 145.361,236.959 147.235 C 237.082 147.804,237.796 148.920,238.545 149.714 C 239.603 150.836,240.004 151.710,240.342 153.627 C 240.733 155.846,241.519 157.145,242.495 157.187 C 242.657 157.194,243.264 157.951,243.843 158.868 C 245.319 161.207,253.451 169.156,256.200 170.948 C 257.080 171.522,258.181 172.269,258.646 172.608 C 259.111 172.948,260.692 173.569,262.159 173.988 C 263.626 174.408,265.405 175.104,266.113 175.535 C 268.471 176.971,271.668 177.336,281.600 177.299 C 291.489 177.263,292.567 177.105,295.607 175.252 C 296.373 174.785,297.282 174.402,297.627 174.401 C 299.117 174.398,302.514 173.076,303.706 172.037 C 304.418 171.416,305.360 170.795,305.800 170.657 C 309.415 169.524,320.408 156.310,321.820 151.400 C 322.199 150.080,322.960 147.761,323.510 146.247 C 324.905 142.409,324.821 146.063,324.965 83.000 C 325.037 51.540,325.227 25.234,325.387 24.542 C 325.673 23.305,325.641 23.271,323.539 22.576 C 320.072 21.429,305.003 21.306,302.015 22.400 M319.772 22.844 L 321.000 23.288 320.891 82.944 C 320.772 147.525,320.797 146.792,318.639 150.600 C 318.140 151.480,317.317 153.245,316.811 154.522 C 316.210 156.035,315.414 157.206,314.525 157.885 C 313.774 158.457,312.944 159.319,312.680 159.799 C 308.078 168.175,288.663 175.599,275.600 173.979 C 263.973 172.536,251.199 164.839,245.406 155.783 C 244.669 154.631,243.883 153.575,243.659 153.437 C 243.435 153.298,242.868 152.153,242.400 150.892 C 241.931 149.632,240.951 147.970,240.221 147.200 C 239.349 146.279,238.729 145.086,238.410 143.713 C 238.144 142.565,237.418 140.855,236.796 139.913 C 235.669 138.205,235.369 137.006,234.213 129.600 C 233.391 124.332,233.368 117.243,234.162 114.000 C 235.392 108.976,235.563 108.606,237.572 106.627 L 239.571 104.658 240.938 105.395 C 242.739 106.364,243.407 107.585,244.357 111.635 C 244.791 113.486,245.594 116.530,246.142 118.400 C 246.689 120.270,247.454 123.217,247.840 124.949 C 248.227 126.681,248.990 128.751,249.536 129.549 C 250.083 130.347,251.137 132.260,251.880 133.800 C 255.225 140.733,261.857 147.147,267.027 148.449 C 268.407 148.796,269.435 149.423,270.612 150.634 C 272.904 152.992,274.386 153.316,281.340 152.974 L 287.000 152.696 288.743 150.896 C 290.106 149.488,291.062 148.924,293.133 148.302 C 295.398 147.623,296.192 147.109,298.633 144.741 C 303.455 140.066,302.983 146.839,303.107 80.506 L 303.213 23.212 304.307 22.971 C 304.908 22.838,305.580 22.670,305.800 22.597 C 306.870 22.240,318.679 22.449,319.772 22.844 M216.002 205.536 L 214.743 206.796 215.519 207.898 C 215.946 208.504,216.432 209.440,216.599 209.978 C 216.767 210.516,218.239 212.226,219.870 213.778 C 221.502 215.330,223.764 217.590,224.898 218.800 C 226.031 220.010,229.177 223.160,231.887 225.800 C 242.029 235.676,253.110 246.782,256.400 250.367 C 258.270 252.405,260.115 254.416,260.500 254.836 C 261.881 256.343,263.722 254.848,264.171 251.854 C 264.394 250.364,264.670 249.860,265.460 249.500 C 266.121 249.199,266.922 248.078,267.804 246.221 C 268.996 243.711,269.400 243.249,271.472 242.026 C 272.752 241.271,274.165 240.332,274.611 239.940 C 276.405 238.364,279.571 238.550,281.728 240.358 C 282.788 241.247,284.274 242.090,285.029 242.232 C 286.236 242.458,286.546 242.792,287.599 244.997 C 288.312 246.493,289.107 247.587,289.567 247.707 C 291.842 248.302,290.948 259.248,288.434 261.568 C 287.535 262.398,286.800 263.373,286.800 263.734 C 286.800 264.095,286.073 264.849,285.185 265.410 C 284.296 265.970,283.367 266.873,283.121 267.415 C 282.874 267.957,282.439 268.400,282.155 268.400 C 276.773 268.400,278.789 273.014,288.130 282.080 C 296.501 290.205,305.912 299.547,307.258 301.068 C 309.829 303.974,319.295 304.367,323.035 301.723 C 323.676 301.270,325.460 300.278,327.000 299.519 C 334.087 296.024,335.582 295.181,335.964 294.467 C 336.197 294.031,337.158 293.504,338.195 293.243 C 339.410 292.937,340.556 292.244,341.643 291.157 C 342.538 290.262,343.881 289.275,344.627 288.963 C 345.374 288.651,346.284 287.938,346.651 287.379 C 347.017 286.819,347.944 286.100,348.711 285.779 C 349.477 285.459,351.386 283.873,352.952 282.255 C 354.519 280.636,356.203 279.102,356.696 278.844 C 359.575 277.340,359.096 274.444,355.722 272.950 C 354.579 272.444,353.451 271.669,353.215 271.229 C 352.656 270.184,348.193 268.800,345.384 268.800 C 342.916 268.800,341.610 268.378,339.442 266.878 C 338.442 266.186,336.955 265.657,335.292 265.400 L 332.701 265.000 331.959 263.106 L 331.218 261.211 332.309 260.659 C 332.909 260.355,334.046 259.990,334.836 259.847 C 335.626 259.705,336.687 259.146,337.193 258.607 C 337.700 258.067,338.963 257.344,339.999 257.000 C 341.036 256.656,342.734 255.835,343.773 255.176 C 344.812 254.517,346.551 253.788,347.638 253.555 C 348.724 253.322,350.465 252.523,351.507 251.779 C 352.548 251.036,354.167 250.067,355.105 249.626 C 357.841 248.339,358.089 244.990,355.509 244.171 C 355.114 244.046,354.532 243.461,354.214 242.872 C 353.358 241.280,349.638 237.835,347.727 236.862 C 346.807 236.394,345.940 235.827,345.800 235.601 C 345.211 234.646,338.347 230.444,336.118 229.672 C 334.786 229.211,333.176 228.315,332.542 227.680 C 331.659 226.797,330.731 226.406,328.594 226.014 C 326.748 225.676,325.461 225.188,324.800 224.576 C 323.533 223.404,322.145 222.877,318.441 222.162 C 316.413 221.771,315.190 221.299,314.553 220.662 C 313.513 219.622,311.635 218.976,308.455 218.563 C 306.955 218.369,305.813 217.906,304.655 217.023 C 302.609 215.462,302.109 215.269,298.980 214.826 C 297.604 214.631,294.863 213.825,292.889 213.036 C 290.008 211.883,288.759 211.598,286.550 211.590 C 283.315 211.579,280.556 211.013,279.736 210.193 C 278.615 209.072,274.950 208.410,267.600 208.000 C 259.436 207.545,257.906 207.349,256.336 206.555 C 253.689 205.216,248.390 204.758,232.731 204.516 L 217.261 204.277 216.002 205.536 M229.400 207.846 C 230.940 207.935,235.710 208.193,240.000 208.419 C 244.290 208.645,249.960 209.082,252.600 209.390 C 255.240 209.698,259.200 210.062,261.400 210.199 C 263.600 210.335,267.727 210.981,270.572 211.633 C 276.771 213.056,282.383 213.996,284.682 213.998 C 285.820 213.999,286.847 214.327,287.853 215.010 C 289.509 216.134,289.670 216.177,294.224 216.708 C 295.997 216.914,297.977 217.374,298.624 217.729 C 301.796 219.470,303.322 220.020,306.043 220.403 C 308.251 220.713,309.580 221.176,311.293 222.229 C 312.712 223.103,314.679 223.868,316.457 224.239 C 318.243 224.611,319.765 225.205,320.483 225.808 C 321.117 226.342,322.814 227.143,324.254 227.587 C 325.693 228.032,327.365 228.748,327.968 229.178 C 328.572 229.607,330.401 230.605,332.033 231.393 C 333.665 232.182,336.285 233.586,337.856 234.514 C 339.427 235.441,341.643 236.740,342.781 237.400 C 346.404 239.500,354.521 246.454,353.950 246.968 C 353.868 247.043,352.868 247.572,351.728 248.145 C 350.588 248.717,349.389 249.567,349.062 250.033 C 348.636 250.642,347.661 251.034,345.595 251.427 C 343.884 251.753,341.713 252.539,340.228 253.369 C 338.857 254.136,336.850 255.062,335.767 255.427 C 333.776 256.100,328.249 259.941,327.914 260.886 C 327.483 262.105,328.116 264.807,329.051 265.742 C 331.066 267.757,339.847 271.600,342.436 271.600 C 343.089 271.600,344.693 272.050,346.000 272.600 C 347.307 273.150,348.606 273.597,348.888 273.594 C 349.338 273.589,354.771 275.206,355.142 275.456 C 355.221 275.508,354.591 276.268,353.742 277.144 C 352.894 278.020,351.930 279.024,351.600 279.375 C 350.472 280.575,346.774 283.600,346.435 283.600 C 346.249 283.600,345.040 284.425,343.748 285.434 C 342.457 286.443,340.770 287.597,340.000 287.999 C 339.230 288.401,338.240 289.068,337.800 289.482 C 337.360 289.895,335.944 290.660,334.653 291.182 C 333.362 291.704,331.832 292.527,331.253 293.011 C 330.059 294.009,321.792 298.071,319.466 298.802 C 318.622 299.068,317.330 299.813,316.595 300.458 C 313.968 302.765,309.382 302.279,307.666 299.511 C 306.534 297.684,296.478 287.858,294.924 287.060 C 294.222 286.699,293.343 285.888,292.970 285.256 C 292.597 284.625,291.782 283.808,291.160 283.440 C 290.538 283.072,289.728 282.262,289.360 281.640 C 288.992 281.018,288.175 280.203,287.544 279.830 C 286.912 279.457,286.136 278.650,285.818 278.036 C 285.501 277.421,284.769 276.610,284.192 276.232 C 281.596 274.531,281.379 271.656,283.768 270.620 C 285.056 270.061,287.599 267.635,290.566 264.134 C 293.301 260.906,294.096 252.271,292.218 246.200 C 290.453 240.496,282.766 234.497,277.894 235.023 C 274.067 235.437,267.755 239.406,266.425 242.236 C 265.970 243.204,264.996 244.784,264.261 245.747 C 263.385 246.894,262.762 248.310,262.455 249.849 C 261.853 252.874,261.357 253.691,260.750 252.660 C 260.511 252.253,259.960 251.623,259.525 251.260 C 259.090 250.897,255.824 247.653,252.267 244.052 C 246.567 238.281,242.944 234.714,235.414 227.459 C 223.184 215.676,218.716 210.782,219.329 209.837 C 219.968 208.851,224.636 207.138,225.800 207.462 C 226.240 207.584,227.860 207.757,229.400 207.846 M171.063 208.484 C 169.397 208.864,167.172 209.611,166.117 210.145 C 164.745 210.840,163.256 211.182,160.883 211.347 C 157.272 211.598,154.328 212.640,153.651 213.905 C 153.303 214.555,152.542 214.755,149.128 215.092 C 145.105 215.491,144.998 215.528,143.769 216.949 C 142.683 218.205,142.279 218.400,140.758 218.402 C 138.093 218.406,136.036 219.127,134.535 220.584 C 133.391 221.695,132.642 221.999,129.736 222.533 C 127.527 222.939,125.732 223.536,124.730 224.199 C 123.872 224.767,122.091 225.567,120.772 225.978 C 119.454 226.388,117.709 227.236,116.895 227.862 C 115.275 229.107,110.182 231.842,105.100 234.196 C 104.275 234.578,103.600 235.049,103.600 235.242 C 103.600 235.434,102.386 236.143,100.901 236.816 C 99.417 237.489,97.752 238.451,97.201 238.954 C 96.651 239.457,95.366 240.344,94.347 240.924 C 93.328 241.504,92.391 242.245,92.266 242.571 C 92.141 242.897,91.337 243.522,90.480 243.959 C 89.622 244.397,88.051 245.418,86.989 246.229 C 85.926 247.040,84.459 247.869,83.729 248.071 C 82.893 248.302,82.183 248.859,81.812 249.577 C 80.794 251.546,76.400 251.508,76.400 249.531 C 76.400 249.016,75.900 248.552,74.900 248.138 C 74.075 247.796,72.659 246.747,71.753 245.807 C 70.848 244.866,69.455 243.882,68.659 243.619 C 67.863 243.357,66.174 242.143,64.906 240.921 C 63.638 239.700,61.648 238.249,60.485 237.697 C 59.322 237.144,58.175 236.312,57.935 235.846 C 57.087 234.198,55.810 233.164,54.085 232.729 C 52.844 232.417,52.234 232.015,51.978 231.343 C 51.780 230.822,50.987 230.095,50.215 229.727 C 49.443 229.359,48.359 228.373,47.805 227.536 C 47.252 226.699,46.372 225.908,45.851 225.777 C 45.329 225.646,44.679 225.122,44.406 224.611 C 44.133 224.101,43.345 223.278,42.655 222.783 C 41.965 222.287,40.978 221.364,40.462 220.730 C 39.947 220.096,38.844 219.230,38.012 218.806 C 37.180 218.381,36.401 217.779,36.282 217.468 C 35.923 216.533,32.734 215.254,30.600 215.189 C 26.649 215.070,26.109 215.177,24.878 216.327 L 23.672 217.454 23.564 224.827 C 23.345 239.716,23.506 241.134,25.728 243.829 C 26.415 244.662,27.376 246.205,27.863 247.258 C 28.487 248.605,29.053 249.248,29.771 249.429 C 30.537 249.621,30.898 250.077,31.215 251.256 C 31.483 252.250,32.366 253.559,33.615 254.815 C 34.701 255.907,36.036 257.506,36.579 258.367 C 37.123 259.228,37.757 260.050,37.988 260.193 C 38.755 260.667,41.373 264.973,41.883 266.600 C 42.520 268.630,41.999 270.428,40.187 272.453 C 38.992 273.789,38.000 276.633,38.000 278.723 C 38.000 279.100,37.646 279.629,37.213 279.899 C 36.038 280.633,35.123 282.665,34.557 285.800 C 34.278 287.340,33.480 290.580,32.782 293.000 C 31.147 298.669,30.598 310.924,31.794 315.039 C 32.715 318.208,36.531 323.600,37.851 323.600 C 39.407 323.600,48.400 313.875,48.400 312.193 C 48.400 311.914,48.663 311.585,48.984 311.462 C 49.305 311.338,50.010 310.374,50.551 309.319 C 51.596 307.280,60.121 298.253,63.216 295.909 C 65.424 294.237,68.796 290.997,68.809 290.536 C 68.819 290.205,72.763 286.039,75.862 283.087 C 78.458 280.614,83.049 280.830,86.215 283.573 C 86.883 284.153,88.323 284.960,89.415 285.367 C 90.507 285.774,91.760 286.424,92.200 286.811 C 92.640 287.198,94.260 288.144,95.800 288.913 C 97.340 289.682,98.920 290.667,99.312 291.100 C 99.703 291.534,100.783 292.227,101.712 292.639 C 102.640 293.051,104.210 294.002,105.200 294.752 C 106.190 295.503,107.630 296.373,108.400 296.686 C 109.170 297.000,111.177 297.964,112.861 298.828 C 114.545 299.693,116.301 300.400,116.764 300.400 C 117.227 300.400,118.009 300.866,118.503 301.435 C 119.552 302.646,121.045 303.329,124.037 303.970 C 125.227 304.224,126.873 304.899,127.696 305.468 C 128.623 306.110,130.478 306.766,132.570 307.194 C 134.934 307.677,136.320 308.198,137.191 308.931 C 138.635 310.146,140.320 310.658,144.140 311.043 C 146.092 311.239,147.184 311.573,147.940 312.203 C 149.946 313.877,151.594 314.422,156.002 314.871 C 159.001 315.176,160.400 315.477,160.400 315.816 C 160.400 316.644,163.591 317.656,167.400 318.036 C 169.380 318.233,172.620 318.558,174.600 318.758 C 176.580 318.958,179.218 319.496,180.461 319.953 C 184.392 321.397,188.831 321.591,218.428 321.612 C 249.908 321.634,253.538 321.420,258.800 319.232 C 260.090 318.696,262.130 318.407,266.000 318.213 C 271.530 317.936,275.673 317.184,277.800 316.071 C 278.460 315.726,280.779 315.225,282.953 314.958 C 291.845 313.865,291.247 312.608,273.313 294.720 C 266.101 287.526,244.000 265.464,224.200 245.693 C 196.774 218.306,187.757 209.534,186.340 208.856 C 183.810 207.647,175.610 207.447,171.063 208.484 M186.800 211.400 C 187.545 211.950,188.322 212.400,188.526 212.400 C 188.730 212.400,210.366 233.894,236.605 260.164 L 284.314 307.929 284.464 309.813 C 284.639 312.020,285.027 311.816,279.200 312.570 C 276.670 312.897,273.250 313.630,271.600 314.199 C 269.539 314.909,267.098 315.354,263.800 315.619 C 261.160 315.832,257.650 316.164,256.000 316.358 C 238.145 318.456,196.209 318.774,184.800 316.898 C 182.050 316.446,177.730 315.950,175.200 315.796 C 172.129 315.610,169.669 315.211,167.800 314.598 C 163.617 313.225,162.125 312.877,158.512 312.431 C 156.566 312.191,154.443 311.636,153.312 311.072 C 151.002 309.921,148.707 309.333,145.060 308.961 C 143.119 308.763,142.012 308.425,141.260 307.800 C 139.771 306.563,138.916 306.177,136.400 305.609 C 135.190 305.336,133.570 304.690,132.800 304.172 C 132.030 303.654,129.960 302.761,128.200 302.187 C 126.440 301.613,124.725 300.894,124.389 300.590 C 124.053 300.286,122.253 299.254,120.389 298.296 C 118.525 297.339,116.640 296.346,116.200 296.089 C 115.760 295.832,114.230 295.075,112.800 294.408 C 111.370 293.740,108.760 292.390,107.000 291.408 C 105.240 290.426,102.540 288.968,101.000 288.168 C 99.460 287.368,97.840 286.396,97.400 286.007 C 96.960 285.618,94.710 284.341,92.400 283.170 C 90.090 281.999,87.434 280.527,86.499 279.900 C 81.167 276.326,78.287 276.229,74.679 279.500 C 65.957 287.409,53.251 300.421,49.195 305.600 C 47.902 307.250,46.203 309.410,45.418 310.400 C 44.633 311.390,43.426 313.055,42.735 314.100 C 42.045 315.145,41.300 316.000,41.079 316.000 C 40.858 316.000,39.999 316.734,39.171 317.631 L 37.665 319.263 36.804 317.331 C 33.290 309.453,32.656 302.718,34.926 297.400 C 35.489 296.080,36.138 293.504,36.367 291.676 C 36.770 288.461,37.872 285.174,38.723 284.647 C 38.951 284.507,39.631 282.909,40.234 281.096 C 40.838 279.283,41.812 276.990,42.399 276.000 C 47.099 268.073,46.808 268.749,46.458 266.592 C 46.129 264.557,43.036 259.530,41.829 259.067 C 41.517 258.947,40.553 257.893,39.687 256.724 C 38.822 255.556,37.184 253.613,36.048 252.406 C 34.912 251.199,33.612 249.501,33.159 248.632 C 32.706 247.763,31.725 246.339,30.979 245.467 C 30.226 244.587,29.335 242.894,28.976 241.658 C 28.620 240.435,27.850 238.526,27.265 237.417 C 26.103 235.215,25.732 223.682,26.742 221.116 C 27.421 219.388,30.222 217.716,31.106 218.512 C 31.488 218.856,32.563 219.569,33.495 220.098 C 34.427 220.626,36.835 222.485,38.846 224.229 C 40.858 225.973,43.547 228.300,44.823 229.400 C 46.100 230.500,48.011 232.154,49.072 233.075 C 50.132 233.996,51.664 235.256,52.475 235.875 C 53.287 236.494,55.357 238.071,57.075 239.380 C 58.794 240.689,60.897 242.373,61.750 243.124 C 62.602 243.874,64.222 244.899,65.350 245.401 C 66.477 245.903,67.850 246.800,68.400 247.395 C 68.950 247.989,69.916 248.744,70.546 249.072 C 71.176 249.400,72.436 250.345,73.346 251.172 C 76.923 254.425,82.016 254.028,86.572 250.141 C 87.437 249.404,88.368 248.800,88.641 248.800 C 88.915 248.800,89.918 248.214,90.869 247.498 C 94.376 244.861,100.093 241.359,105.670 238.433 C 107.358 237.546,108.856 236.632,108.999 236.401 C 109.142 236.170,110.440 235.446,111.883 234.791 C 113.327 234.137,114.950 233.159,115.491 232.618 C 116.031 232.078,117.488 231.340,118.728 230.980 C 119.968 230.620,121.463 229.982,122.051 229.563 C 122.639 229.145,124.326 228.261,125.800 227.600 C 127.274 226.939,128.972 226.047,129.574 225.619 C 130.176 225.190,131.932 224.552,133.477 224.201 C 135.103 223.831,137.157 223.001,138.351 222.231 C 139.595 221.430,141.408 220.710,142.908 220.420 C 144.279 220.156,146.322 219.424,147.449 218.795 C 148.576 218.166,151.329 217.199,153.568 216.646 C 155.807 216.094,158.216 215.284,158.923 214.848 C 159.774 214.321,161.794 213.846,164.913 213.437 C 167.500 213.097,171.189 212.463,173.109 212.027 C 179.237 210.635,180.148 210.487,182.822 210.443 C 185.031 210.407,185.658 210.558,186.800 211.400 " stroke="none" fill="#d05d9f" fill-rule="evenodd"></path></g></svg>