<?xml version="1.0" encoding="iso-8859-1"?>
<!-- Generator: Adobe Illustrator 17.1.0, SVG Export Plug-In . SVG Version: 6.00 Build 0)  -->
<!DOCTYPE svg PUBLIC "-//W3C//DTD SVG 1.1//EN" "http://www.w3.org/Graphics/SVG/1.1/DTD/svg11.dtd">
<svg version="1.1" id="Capa_1" xmlns="http://www.w3.org/2000/svg" xmlns:xlink="http://www.w3.org/1999/xlink" x="0px" y="0px"
	 viewBox="0 0 478.769 478.769" style="enable-background:new 0 0 478.769 478.769;" xml:space="preserve">
<path d="M454.7,254.246l-14.86-14.86l14.863-14.863c6.342,2.33,13.734,0.967,18.826-4.125c6.987-6.987,6.987-18.314,0-25.301
	c-6.987-6.987-18.314-6.987-25.301,0c-5.089,5.089-6.453,12.475-4.129,18.815l-14.866,14.866l-27.363-27.363l14.863-14.863
	c6.342,2.328,13.733,0.966,18.824-4.126c6.987-6.987,6.987-18.314,0-25.301c-6.987-6.987-18.314-6.987-25.301,0
	c-5.089,5.089-6.453,12.477-4.128,18.817l-14.865,14.865L363.9,163.446l14.864-14.864c6.341,2.328,13.731,0.964,18.822-4.126
	c6.987-6.987,6.987-18.314,0-25.301s-18.314-6.987-25.301,0c-5.09,5.09-6.453,12.478-4.127,18.819l-14.865,14.865l-27.363-27.363
	l14.864-14.864c6.341,2.327,13.731,0.964,18.821-4.127c6.987-6.987,6.987-18.314,0-25.301c-6.987-6.987-18.315-6.987-25.301,0
	c-5.09,5.09-6.453,12.479-4.127,18.82l-14.864,14.864l-27.363-27.363l14.865-14.865c6.341,2.326,13.729,0.963,18.819-4.127
	c6.987-6.987,6.987-18.315,0-25.301c-6.987-6.987-18.315-6.987-25.301,0c-5.091,5.091-6.454,12.481-4.126,18.822l-14.864,14.864
	l-27.363-27.363l14.865-14.865c6.34,2.325,13.728,0.961,18.817-4.128c6.987-6.987,6.987-18.315,0-25.301
	c-6.987-6.987-18.314-6.987-25.301,0c-5.091,5.091-6.454,12.482-4.126,18.824l-14.863,14.863l-14.859-14.859
	c2.331-6.343,0.968-13.736-4.124-18.829c-6.987-6.987-18.314-6.987-25.301,0c-6.987,6.987-6.987,18.315,0,25.301
	c5.088,5.088,12.473,6.452,18.813,4.13l14.864,14.864L201.41,76.898l-14.859-14.859c2.33-6.343,0.968-13.735-4.124-18.827
	c-6.987-6.987-18.315-6.987-25.301,0c-6.987,6.987-6.987,18.314,0,25.301c5.088,5.088,12.474,6.452,18.814,4.129l14.863,14.863
	l-27.363,27.363l-14.859-14.859c2.329-6.342,0.967-13.734-4.125-18.826c-6.987-6.987-18.315-6.987-25.301,0
	c-6.987,6.987-6.987,18.314,0,25.301c5.089,5.089,12.476,6.453,18.816,4.128l14.863,14.863l-27.363,27.363l-14.86-14.86
	c2.328-6.342,0.965-13.733-4.126-18.824c-6.987-6.987-18.314-6.987-25.301,0c-6.987,6.987-6.987,18.314,0,25.301
	c5.089,5.089,12.477,6.453,18.818,4.128l14.862,14.862l-27.363,27.363l-14.86-14.86c2.328-6.341,0.965-13.732-4.126-18.822
	c-6.987-6.987-18.314-6.987-25.301,0c-6.987,6.987-6.987,18.314,0,25.301c5.09,5.09,12.478,6.453,18.819,4.127l14.861,14.861
	l-27.363,27.363l-14.861-14.861c2.327-6.341,0.963-13.73-4.127-18.821c-6.987-6.987-18.314-6.987-25.301,0
	c-6.987,6.987-6.987,18.314,0,25.301c5.09,5.09,12.479,6.453,18.821,4.127l14.861,14.861l-14.858,14.858
	c-6.342-2.328-13.732-0.965-18.823,4.126c-6.987,6.987-6.987,18.314,0,25.301c6.987,6.987,18.314,6.987,25.301,0
	c5.089-5.089,6.453-12.477,4.128-18.818l14.86-14.86l27.363,27.363l-14.858,14.858c-6.341-2.328-13.732-0.964-18.822,4.126
	c-6.987,6.987-6.987,18.314,0,25.301c6.987,6.987,18.314,6.987,25.301,0c5.09-5.09,6.453-12.478,4.127-18.819l14.859-14.859
	l27.363,27.363l-14.859,14.859c-6.341-2.327-13.731-0.964-18.821,4.127c-6.987,6.987-6.987,18.314,0,25.301
	c6.987,6.987,18.315,6.987,25.301,0c5.09-5.09,6.453-12.479,4.127-18.82l14.859-14.859l27.362,27.362l-14.859,14.86
	c-6.341-2.326-13.729-0.962-18.818,4.127c-6.987,6.987-6.987,18.314,0,25.301c6.987,6.987,18.315,6.987,25.301,0
	c5.091-5.091,6.454-12.481,4.126-18.823l14.858-14.858l27.363,27.363l-14.86,14.86c-6.34-2.325-13.728-0.961-18.817,4.128
	c-6.987,6.987-6.987,18.315,0,25.301c6.987,6.987,18.314,6.987,25.301,0c5.091-5.091,6.454-12.482,4.125-18.824l14.858-14.858
	l27.363,27.363l-14.86,14.86c-6.34-2.325-13.727-0.961-18.816,4.128c-6.987,6.987-6.987,18.315,0,25.301
	c6.987,6.987,18.314,6.987,25.301,0c5.092-5.092,6.454-12.484,4.125-18.826l14.857-14.857l14.863,14.863
	c-2.327,6.341-0.963,13.73,4.127,18.821c6.987,6.987,18.315,6.987,25.301,0c6.987-6.987,6.987-18.315,0-25.301
	c-5.09-5.09-12.479-6.453-18.82-4.127l-20.147-20.147c-0.006-0.006-0.012-0.014-0.018-0.02s-0.014-0.012-0.02-0.018l-32.647-32.647
	l27.363-27.363l27.363,27.363l-11.158,11.158c-2.929,2.93-2.929,7.678,0,10.607c1.465,1.464,3.385,2.196,5.304,2.196
	s3.839-0.732,5.304-2.196l11.158-11.158l14.863,14.863c-2.326,6.341-0.962,13.729,4.127,18.819c6.987,6.987,18.315,6.987,25.301,0
	c6.987-6.987,6.987-18.314,0-25.301c-5.091-5.091-12.481-6.454-18.822-4.126l-14.862-14.862l27.363-27.363l14.863,14.863
	c-2.325,6.34-0.962,13.728,4.128,18.818c6.987,6.987,18.314,6.987,25.301,0c6.987-6.987,6.987-18.314,0-25.301
	c-5.091-5.091-12.482-6.454-18.824-4.126l-14.861-14.861l27.363-27.363l14.864,14.864c-2.324,6.34-0.96,13.727,4.128,18.816
	c6.987,6.987,18.314,6.987,25.301,0s6.987-18.314,0-25.301c-5.092-5.092-12.483-6.454-18.825-4.125l-14.861-14.861l27.363-27.363
	l14.865,14.865c-2.323,6.34-0.959,13.725,4.129,18.814c6.987,6.987,18.314,6.987,25.301,0c6.987-6.987,6.987-18.314,0-25.301
	c-5.092-5.092-12.485-6.455-18.827-4.124l-14.86-14.86l27.363-27.363l14.865,14.865c-2.323,6.339-0.958,13.724,4.13,18.813
	c6.987,6.987,18.314,6.987,25.301,0c6.987-6.987,6.987-18.314,0-25.301C468.436,253.277,461.043,251.915,454.7,254.246z
	 M380.655,201.416l-27.363,27.363l-27.363-27.363l27.363-27.363L380.655,201.416z M249.988,201.416l27.363-27.363l27.363,27.363
	l-27.363,27.363L249.988,201.416z M266.744,239.386l-27.363,27.363l-27.363-27.363l27.363-27.363L266.744,239.386z M239.381,190.809
	l-27.363-27.363l27.363-27.363l27.363,27.363L239.381,190.809z M228.774,201.416l-27.363,27.363l-27.363-27.363l27.363-27.363
	L228.774,201.416z M190.803,239.386L163.44,266.75l-27.363-27.363l27.363-27.363L190.803,239.386z M201.411,249.994l27.363,27.363
	L201.41,304.72l-27.363-27.363L201.411,249.994z M239.381,287.964l27.363,27.363l-27.363,27.363l-27.363-27.363L239.381,287.964z
	 M249.988,277.357l27.363-27.363l27.363,27.363l-27.363,27.363L249.988,277.357z M287.959,239.386l27.363-27.363l27.363,27.363
	l-27.363,27.363L287.959,239.386z M342.685,163.446l-27.363,27.363l-27.363-27.363l27.363-27.363L342.685,163.446z M304.714,125.475
	l-27.363,27.363l-27.363-27.363l27.363-27.363L304.714,125.475z M239.381,60.142l27.363,27.363l-27.363,27.363l-27.363-27.363
	L239.381,60.142z M201.41,98.113l27.363,27.363l-27.363,27.363l-27.363-27.363L201.41,98.113z M163.44,136.083l27.363,27.363
	l-27.363,27.363l-27.363-27.363L163.44,136.083z M125.47,174.053l27.363,27.363l-27.363,27.363l-27.363-27.363L125.47,174.053z
	 M60.136,239.386l27.363-27.363l27.363,27.363l-27.363,27.363L60.136,239.386z M98.107,277.357l27.363-27.363l27.363,27.363
	L125.47,304.72L98.107,277.357z M136.078,315.328l27.363-27.363l27.363,27.363L163.44,342.69L136.078,315.328z M201.411,380.661
	l-27.363-27.363l27.363-27.363l27.363,27.363L201.411,380.661z M277.351,380.661l-27.363-27.363l27.363-27.363l27.363,27.363
	L277.351,380.661z M315.322,342.69l-27.363-27.363l27.363-27.363l27.363,27.363L315.322,342.69z M353.292,304.72l-27.363-27.363
	l27.363-27.363l27.363,27.363L353.292,304.72z M391.262,266.749l-27.363-27.363l27.363-27.363l27.363,27.363L391.262,266.749z"/>
<g>
</g>
<g>
</g>
<g>
</g>
<g>
</g>
<g>
</g>
<g>
</g>
<g>
</g>
<g>
</g>
<g>
</g>
<g>
</g>
<g>
</g>
<g>
</g>
<g>
</g>
<g>
</g>
<g>
</g>
</svg>
