<?xml version="1.0" encoding="iso-8859-1"?>
<!-- Generator: Adobe Illustrator 18.0.0, SVG Export Plug-In . SVG Version: 6.00 Build 0)  -->
<!DOCTYPE svg PUBLIC "-//W3C//DTD SVG 1.1//EN" "http://www.w3.org/Graphics/SVG/1.1/DTD/svg11.dtd">
<svg version="1.1" id="Capa_1" xmlns="http://www.w3.org/2000/svg" xmlns:xlink="http://www.w3.org/1999/xlink" x="0px" y="0px"
	 viewBox="0 0 393.619 393.619" style="enable-background:new 0 0 393.619 393.619;" xml:space="preserve">
<g>
	<g>
		<g>
			<path style="fill:#F9993A;" d="M137.033,31.869c-9.83,15.67-25.29,24.54-41.5,26.62c-21.19,2.73-43.66-6.15-56.51-26.62
				c11.34-18.07,30.17-27.1,49.01-27.1c2.51,0,5.01,0.16,7.5,0.48C111.743,7.329,127.203,16.199,137.033,31.869z"/>
			<path style="fill:#F9D43A;" d="M137.033,31.869c-9.83,15.67-25.29,24.54-41.5,26.62c-4.94-7.67-7.8-16.81-7.8-26.62
				s2.86-18.95,7.8-26.62C111.743,7.329,127.203,16.199,137.033,31.869z"/>
			<circle style="fill:#4D4D4D;" cx="107.408" cy="31.369" r="8.486"/>
			<path style="fill:#F9993A;" d="M2.857,5.249C1.906,5.127,0.953,5.035,0,4.96v53.818c0.954-0.076,1.907-0.166,2.857-0.289
				c16.21-2.08,31.67-10.95,41.5-26.62C34.527,16.199,19.067,7.329,2.857,5.249z"/>
		</g>
		<g>
			<path style="fill:#F9993A;" d="M137.033,196.809c-9.83,15.67-25.29,24.54-41.5,26.62c-21.19,2.73-43.66-6.15-56.51-26.62
				c11.34-18.07,30.17-27.1,49.01-27.1c2.51,0,5.01,0.16,7.5,0.48C111.743,172.269,127.203,181.139,137.033,196.809z"/>
			<path style="fill:#F9D43A;" d="M137.033,196.809c-9.83,15.67-25.29,24.54-41.5,26.62c-4.94-7.67-7.8-16.81-7.8-26.62
				s2.86-18.95,7.8-26.62C111.743,172.269,127.203,181.139,137.033,196.809z"/>
			<circle style="fill:#4D4D4D;" cx="107.408" cy="196.309" r="8.486"/>
			<path style="fill:#F9993A;" d="M2.857,170.189C1.906,170.067,0.953,169.975,0,169.9v53.818c0.954-0.076,1.907-0.166,2.857-0.289
				c16.21-2.08,31.67-10.95,41.5-26.62C34.527,181.139,19.067,172.269,2.857,170.189z"/>
		</g>
		<g>
			<path style="fill:#F9993A;" d="M137.033,361.749c-9.83,15.67-25.29,24.54-41.5,26.62c-21.19,2.73-43.66-6.15-56.51-26.62
				c11.34-18.07,30.17-27.1,49.01-27.1c2.51,0,5.01,0.16,7.5,0.48C111.743,337.209,127.203,346.079,137.033,361.749z"/>
			<path style="fill:#F9D43A;" d="M137.033,361.749c-9.83,15.67-25.29,24.54-41.5,26.62c-4.94-7.67-7.8-16.81-7.8-26.62
				s2.86-18.95,7.8-26.62C111.743,337.209,127.203,346.079,137.033,361.749z"/>
			<circle style="fill:#4D4D4D;" cx="107.408" cy="361.249" r="8.486"/>
			<path style="fill:#F9993A;" d="M2.857,335.129c-0.951-0.122-1.903-0.214-2.857-0.289v53.818c0.954-0.076,1.907-0.166,2.857-0.289
				c16.21-2.08,31.67-10.95,41.5-26.62C34.527,346.079,19.067,337.209,2.857,335.129z"/>
		</g>
	</g>
	<g>
		<g>
			<path style="fill:#F9993A;" d="M265.326,116.117c-9.83,15.67-25.29,24.54-41.5,26.62c-21.19,2.73-43.66-6.15-56.51-26.62
				c11.34-18.07,30.17-27.1,49.01-27.1c2.51,0,5.01,0.16,7.5,0.48C240.036,91.577,255.496,100.447,265.326,116.117z"/>
			<path style="fill:#F9D43A;" d="M265.326,116.117c-9.83,15.67-25.29,24.54-41.5,26.62c-4.94-7.67-7.8-16.81-7.8-26.62
				s2.86-18.95,7.8-26.62C240.036,91.577,255.496,100.447,265.326,116.117z"/>
			<circle style="fill:#4D4D4D;" cx="235.701" cy="115.617" r="8.486"/>
			<path style="fill:#F9993A;" d="M131.149,89.497c-0.951-0.122-1.903-0.214-2.857-0.289v53.818
				c0.954-0.076,1.907-0.166,2.857-0.289c16.21-2.08,31.67-10.95,41.5-26.62C162.819,100.447,147.359,91.577,131.149,89.497z"/>
		</g>
		<g>
			<path style="fill:#F9993A;" d="M265.326,292.117c-9.83,15.67-25.29,24.54-41.5,26.62c-21.19,2.73-43.66-6.15-56.51-26.62
				c11.34-18.07,30.17-27.1,49.01-27.1c2.51,0,5.01,0.16,7.5,0.48C240.036,267.577,255.496,276.447,265.326,292.117z"/>
			<path style="fill:#F9D43A;" d="M265.326,292.117c-9.83,15.67-25.29,24.54-41.5,26.62c-4.94-7.67-7.8-16.81-7.8-26.62
				s2.86-18.95,7.8-26.62C240.036,267.577,255.496,276.447,265.326,292.117z"/>
			<circle style="fill:#4D4D4D;" cx="235.701" cy="291.617" r="8.486"/>
			<path style="fill:#F9993A;" d="M131.149,265.497c-0.951-0.122-1.903-0.214-2.857-0.289v53.818
				c0.954-0.076,1.907-0.166,2.857-0.289c16.21-2.08,31.67-10.95,41.5-26.62C162.819,276.447,147.359,267.577,131.149,265.497z"/>
		</g>
	</g>
	<g>
		<path style="fill:#F9993A;" d="M393.619,196.809c-9.83,15.67-25.29,24.54-41.5,26.62c-21.19,2.73-43.66-6.15-56.51-26.62
			c11.34-18.07,30.17-27.1,49.01-27.1c2.51,0,5.01,0.16,7.5,0.48C368.329,172.269,383.789,181.139,393.619,196.809z"/>
		<path style="fill:#F9D43A;" d="M393.619,196.809c-9.83,15.67-25.29,24.54-41.5,26.62c-4.94-7.67-7.8-16.81-7.8-26.62
			s2.86-18.95,7.8-26.62C368.329,172.269,383.789,181.139,393.619,196.809z"/>
		<circle style="fill:#4D4D4D;" cx="363.994" cy="196.309" r="8.486"/>
		<path style="fill:#F9993A;" d="M259.442,170.189c-0.951-0.122-1.903-0.214-2.857-0.289v53.818
			c0.954-0.076,1.907-0.166,2.857-0.289c16.21-2.08,31.67-10.95,41.5-26.62C291.112,181.139,275.652,172.269,259.442,170.189z"/>
	</g>
</g>
<g>
</g>
<g>
</g>
<g>
</g>
<g>
</g>
<g>
</g>
<g>
</g>
<g>
</g>
<g>
</g>
<g>
</g>
<g>
</g>
<g>
</g>
<g>
</g>
<g>
</g>
<g>
</g>
<g>
</g>
</svg>
