<svg height="511pt" viewBox="0 -93 511.99989 511" width="511pt" xmlns="http://www.w3.org/2000/svg"><path d="m272.898438 316.414062-14.828126-55.382812c-.945312-3.539062-4.441406-5.921875-8.082031-5.511719-10.546875 1.1875-21.367187 1.789063-32.15625 1.789063-17.15625 0-33.820312-1.125-49.539062-3.347656-6.015625-.851563-10.5625 5.777343-7.59375 11.085937 1.164062 2.085937 29.425781 51.222656 104.007812 60.742187 5.191407.664063 9.546875-4.3125 8.191407-9.375zm0 0" fill="#ff7c66"/><path d="m258.070312 261.03125c-.945312-3.539062-4.441406-5.921875-8.082031-5.511719-10.546875 1.1875-21.367187 1.789063-32.15625 1.789063-17.15625 0-33.820312-1.125-49.539062-3.347656-6.015625-.851563-10.5625 5.777343-7.59375 11.085937.523437.9375 6.515625 11.363281 19.707031 23.425781 11.742188 1.171875 24.199219 1.824219 37.425781 1.824219 16.625 0 32.324219-1.320313 47.09375-3.660156zm0 0" fill="#ff6c55"/><path d="m335.394531 86.808594c-7.242187-34.398438-40.878906-81.226563-42.308593-83.203125-1.621094-2.242188-4.347657-3.410157-7.089844-3.035157-63.570313 8.671876-115.765625 60.914063-117.953125 63.132813-4.894531 4.960937-.640625 13.546875 6.253906 12.714844 13.929687-1.699219 28.574219-2.558594 43.535156-2.558594 37.601563 0 73.707031 7.199219 107.308594 21.402344 5.472656 2.3125 11.476563-2.648438 10.253906-8.453125zm0 0" fill="#ff7c66"/><path d="m325.140625 95.261719c5.476563 2.3125 11.476563-2.648438 10.253906-8.449219-1.671875-7.957031-4.761719-16.574219-8.535156-25.152344-30.320313-12.238281-66.65625-20.789062-109.027344-20.789062-8.195312 0-16.097656.25-23.71875.714844-15.527343 11.550781-25.160156 21.195312-26.074219 22.121093-4.894531 4.957031-.640624 13.542969 6.257813 12.710938 13.929687-1.695313 28.574219-2.558594 43.53125-2.558594 37.605469 0 73.710937 7.199219 107.3125 21.402344zm0 0" fill="#ff6c55"/><path d="m479.566406 165.578125c0-39.417969 30.402344-75.933594 30.703125-76.292969 4.386719-5.183594-.175781-13.316406-6.882812-12.25-47.890625 7.511719-74.957031 37.011719-88.667969 58.539063-33.714844-31.386719-99.316406-76.710938-196.886719-76.710938-87.046875 0-141.261719 27.832031-171.410156 51.183594-33.097656 25.628906-45.226563 51.308594-45.726563 52.390625-.925781 1.996094-.925781 4.300781 0 6.296875.5 1.082031 12.628907 26.761719 45.726563 52.390625 30.148437 23.347656 84.363281 51.179688 171.410156 51.179688 97.574219 0 163.175781-45.324219 196.890625-76.710938 13.710938 21.523438 40.777344 51.019531 88.664063 58.535156 6.703125 1.050782 11.265625-7.054687 6.886719-12.246094-.304688-.363281-30.707032-36.882812-30.707032-76.304687zm0 0" fill="#ffb541"/><path d="m493.675781 216.246094c-38.066406-8.820313-61.628906-31.863282-75.179687-51.023438-2.0625-2.910156-6.1875-3.367187-8.859375-1-35.011719 31.023438-98.921875 72.09375-191.804688 72.09375-87.046875 0-141.261719-27.832031-171.410156-51.179687-17.796875-13.78125-29.519531-27.570313-36.644531-37.546875-6.128906 8.578125-8.851563 14.34375-9.082032 14.84375-.925781 1.996094-.925781 4.300781 0 6.300781.5 1.078125 12.628907 26.757813 45.726563 52.386719 30.148437 23.351562 84.363281 51.183594 171.410156 51.183594 97.574219 0 163.175781-45.328126 196.890625-76.710938 13.710938 21.523438 40.777344 51.019531 88.664063 58.53125 6.703125 1.050781 11.265625-7.050781 6.886719-12.242188-.160157-.191406-8.605469-10.34375-16.597657-25.636718zm0 0" fill="#ffa812"/><path d="m114.234375 79.746094c-2.027344-2.515625-5.433594-3.453125-8.464844-2.320313-78.546875 29.359375-104.027343 82.75-105.074219 85.007813-.925781 1.996094-.925781 4.304687 0 6.300781 1.046876 2.257813 26.527344 55.648437 105.074219 85.007813 2.996094 1.117187 6.460938.167968 8.464844-2.320313 19.5-24.21875 30.238281-54.703125 30.238281-85.839844 0-31.132812-10.738281-61.617187-30.238281-85.835937zm0 0" fill="#ffcf86"/><path d="m46.421875 185.136719c-17.8125-13.792969-29.542969-27.59375-36.664063-37.574219-6.007812 8.433594-8.734374 14.164062-9.0625 14.871094-.925781 2-.925781 4.304687 0 6.304687 1.046876 2.257813 26.527344 55.644531 105.078126 85.003907 2.992187 1.121093 6.457031.171874 8.464843-2.320313 6.441407-8 11.921875-16.691406 16.378907-25.859375-38.367188-10.242188-65.78125-26.164062-84.195313-40.425781zm0 0" fill="#ffc265"/><path d="m93.367188 165.582031c0 7.65625-6.210938 13.863281-13.867188 13.863281s-13.867188-6.207031-13.867188-13.863281c0-7.660156 6.210938-13.867187 13.867188-13.867187s13.867188 6.207031 13.867188 13.867187zm0 0" fill="#7b7179"/></svg>