<?xml version="1.0" encoding="iso-8859-1"?>
<!-- Generator: Adobe Illustrator 19.0.0, SVG Export Plug-In . SVG Version: 6.00 Build 0)  -->
<svg version="1.1" id="Capa_1" xmlns="http://www.w3.org/2000/svg" xmlns:xlink="http://www.w3.org/1999/xlink" x="0px" y="0px"
	 viewBox="0 0 511.999 511.999" style="enable-background:new 0 0 511.999 511.999;" xml:space="preserve">
<path style="fill:#F3C74F;" d="M418.726,172.114l-14.413-11.021c-6.706-5.128-14.913-7.906-23.355-7.906H320.43V92.218h29.797
	c42.044,0,76.127,34.083,76.127,76.127l0,0C426.353,172.275,421.848,174.501,418.726,172.114z"/>
<path style="fill:#394049;" d="M402.847,113.361c0.676,19.107-6.5,32.795-13.193,40.829c5.289,1.228,10.293,3.564,14.659,6.902
	l14.413,11.021c3.123,2.388,7.628,0.162,7.628-3.769l0,0C426.353,146.721,417.323,127.219,402.847,113.361z"/>
<path style="opacity:0.1;enable-background:new    ;" d="M362.099,93.144c-3.87-0.606-7.834-0.927-11.874-0.927h-29.797v60.968
	h42.207c3.956-9.005,6.167-18.95,6.167-29.416C368.802,112.832,366.4,102.46,362.099,93.144z"/>
<path style="fill:#F0B0B7;" d="M358.12,123.769c0-24.807-12.347-46.718-31.217-59.964c8.606-6.381,15.853-14.574,21.122-24.155l0,0
	c4.291-7.802-1.353-17.348-10.258-17.348c-3.855,0-7.464,1.898-9.647,5.076l-5.351,7.785c-3.697,5.38-8.656,9.62-14.323,12.462
	c3.3-8.973,4.914-18.575,4.605-28.327l0,0c-0.281-8.899-10.001-14.24-17.663-9.704c-3.318,1.964-5.456,5.435-5.717,9.281
	l-0.639,9.425c-0.57,8.403-3.903,16.248-9.292,22.437c-38.04,2.645-68.084,34.319-68.084,73.032
	c0,44.261,21.259,86.379,56.869,112.665l19.225,14.192c5.467,4.037,8.928,9.975,9.742,16.724c0.815,6.747-1.133,13.34-5.485,18.562
	c-12.416,14.9-30.66,23.445-50.054,23.445h-12.652v35.289h12.652c29.898,0,58.023-13.173,77.164-36.142
	c10.484-12.582,15.372-29.123,13.409-45.382c-1.962-16.258-10.644-31.161-23.818-40.886l-19.225-14.192
	c-4.734-3.494-9.122-7.371-13.149-11.556c2.808,0.327,5.658,0.514,8.553,0.514C325.333,197,358.12,164.214,358.12,123.769z"/>
<path style="opacity:0.05;enable-background:new    ;" d="M297.642,269.258c0.268,6.074-1.695,11.926-5.634,16.654
	c-12.416,14.9-30.66,23.445-50.054,23.445h-12.652v35.289h12.652c28.308,0,55.022-11.815,74.031-32.568
	C314.946,295.463,308.129,280.596,297.642,269.258z"/>
<path style="fill:#E6595A;" d="M315.357,145.681h-20.844c-4.382,0-7.934-3.551-7.934-7.934c0-4.383,3.553-7.934,7.934-7.934h20.844
	c4.382,0,7.934,3.551,7.934,7.934C323.291,142.13,319.739,145.681,315.357,145.681z"/>
<path style="fill:#F0B0B7;" d="M223.322,247.675l-115.408,18.12c-15.52,2.436-25.476,17.821-21.343,32.978l0,0
	c12.645,46.366,54.758,78.531,102.817,78.531h53.64c33.572,0,60.787-27.215,60.787-60.787l0,0
	C303.816,273.721,265.6,241.037,223.322,247.675z"/>
<path style="opacity:0.1;enable-background:new    ;" d="M205.887,286.931l-45.043,7.072c-6.058,0.951-9.943,6.956-8.33,12.871l0,0
	c4.935,18.096,21.372,30.65,40.129,30.65h20.935c13.104,0,23.725-10.623,23.725-23.725l0,0
	C237.303,297.096,222.387,284.34,205.887,286.931z"/>
<path d="M409.939,109.186c-14.555-14.685-33.606-23.34-54.074-24.69c-4.286-7.739-9.817-14.8-16.464-20.835
	c6.203-5.876,11.421-12.635,15.576-20.187c3.381-6.148,3.267-13.423-0.304-19.462c-3.57-6.039-9.892-9.644-16.907-9.644
	c-6.47,0-12.522,3.183-16.186,8.515l-0.583,0.848c0.038-1.557,0.033-3.119-0.017-4.683c-0.221-7.013-4.024-13.216-10.173-16.595
	c-6.15-3.379-13.424-3.262-19.461,0.311c-5.569,3.294-9.155,9.116-9.593,15.573l-0.639,9.426
	c-0.373,5.509-2.301,10.871-5.492,15.385c-40.6,4.631-71.901,39.371-71.901,80.619c0,46.768,22.464,91.272,60.091,119.049
	l7.74,5.714c-14.942-8.232-32.294-11.389-49.461-8.694l-115.408,18.12c-9.624,1.512-18.179,7.069-23.472,15.247
	c-5.293,8.178-6.859,18.259-4.295,27.657c11.448,41.975,45.654,73.252,87.048,81.944l-16.659,31.016
	c-1.321,2.459-1.253,5.431,0.18,7.827s4.018,3.861,6.81,3.861h44.143v78.555c0,4.383,3.553,7.934,7.934,7.934
	c4.382,0,7.934-3.551,7.934-7.934V425.51h48.679v9.195c0,4.383,3.553,7.934,7.934,7.934s7.934-3.551,7.934-7.934v-17.13
	c0-4.382-3.553-7.934-7.934-7.934h-56.614v-24.402h26.722c34.007,0,62.308-24.835,67.758-57.317
	c5.234-4.311,10.078-9.121,14.427-14.339c11.877-14.255,17.413-32.991,15.191-51.412c-2.223-18.419-12.057-35.302-26.982-46.319
	l-16.079-11.87c25.951-4.013,47.867-20.374,59.576-42.862h24.039c6.661,0,13.244,2.228,18.535,6.274l14.413,11.024
	c2.268,1.734,4.964,2.62,7.687,2.62c1.912,0,3.836-0.437,5.633-1.326c4.357-2.153,7.062-6.508,7.062-11.367
	C434.288,146.037,425.64,125.029,409.939,109.186z M200.437,409.642h-30.875l13.222-24.617c2.19,0.127,4.388,0.214,6.604,0.214
	h11.048v24.403H200.437z M243.028,369.371h-53.64c-44.359,0-83.491-29.89-95.163-72.685c-1.398-5.124-0.578-10.4,2.307-14.86
	c2.886-4.458,7.364-7.367,12.61-8.192l115.408-18.12c0.001,0,0.001,0,0.001,0c3.203-0.504,6.414-0.751,9.608-0.751
	c14.609,0,28.833,5.184,40.105,14.825c13.737,11.748,21.616,28.853,21.616,46.929C295.881,345.66,272.172,369.371,243.028,369.371z
	 M284.888,189.066c-2.474,0-4.973-0.151-7.638-0.461c-3.323-0.38-6.538,1.357-8.025,4.358c-1.487,3.001-0.93,6.612,1.391,9.025
	c4.382,4.554,9.145,8.74,14.154,12.438l19.225,14.192c11.425,8.433,18.953,21.355,20.653,35.453
	c1.701,14.099-2.536,28.442-11.627,39.351c-0.661,0.793-1.361,1.554-2.048,2.325c-1.174-8.407-3.708-16.507-7.471-24.011
	c1.847-4.85,2.501-10.071,1.865-15.338c-1.079-8.939-5.663-16.808-12.908-22.157l-19.225-14.191
	c-33.591-24.797-53.646-64.528-53.646-106.282c0-34.147,26.662-62.749,60.699-65.117c2.098-0.146,4.053-1.118,5.434-2.705
	c6.563-7.538,10.55-17.166,11.224-27.109l0.639-9.426c0.085-1.24,0.772-2.356,1.843-2.99c1.611-0.953,3.033-0.448,3.738-0.06
	c0.704,0.387,1.894,1.315,1.954,3.186c0.272,8.634-1.114,17.16-4.122,25.338c-1.124,3.056-0.267,6.487,2.161,8.657
	c2.429,2.169,5.933,2.631,8.844,1.174c6.942-3.484,12.926-8.691,17.303-15.061l5.351-7.785c0.704-1.024,1.866-1.634,3.109-1.634
	c1.872,0,2.838,1.161,3.247,1.852c0.409,0.691,0.961,2.097,0.059,3.737c-4.68,8.509-11.038,15.778-18.897,21.605
	c-2.048,1.518-3.241,3.928-3.208,6.477c0.034,2.549,1.29,4.927,3.376,6.391c17.434,12.236,27.841,32.226,27.841,53.47
	C350.186,159.774,320.893,189.066,284.888,189.066z M409.132,154.788c-8.043-6.151-18.049-9.537-28.175-9.537H363.16
	c1.881-6.846,2.895-14.047,2.895-21.482c0-7.67-1.114-15.199-3.192-22.407c29.39,5.564,52.246,30.132,55.226,60.275L409.132,154.788
	z M304.934,95.864c-10.121,0-18.356,8.235-18.356,18.357c0,4.383,3.553,7.934,7.934,7.934c4.382,0,7.934-3.551,7.934-7.934
	c0-1.372,1.116-2.488,2.487-2.488c1.372,0,2.488,1.116,2.488,2.488c0,4.383,3.553,7.934,7.934,7.934
	c4.382,0,7.934-3.551,7.934-7.934C323.291,104.098,315.056,95.864,304.934,95.864z M232.94,287.101
	c-7.815-6.684-18.124-9.605-28.285-8.009c0,0,0,0-0.001,0l-45.044,7.073c-5.114,0.804-9.659,3.757-12.472,8.102
	c-2.812,4.346-3.644,9.702-2.282,14.696c5.861,21.49,25.51,36.497,47.784,36.497h20.935c17.457,0,31.661-14.203,31.661-31.66
	C245.237,303.517,240.755,293.785,232.94,287.101z M213.577,329.59h-20.935c-15.138,0-28.492-10.201-32.474-24.804
	c-0.241-0.882,0.081-1.568,0.294-1.898c0.214-0.329,0.708-0.903,1.611-1.046l45.043-7.073h-0.001
	c5.572-0.876,11.224,0.726,15.509,4.391c4.285,3.665,6.742,9.001,6.742,14.64C229.368,322.508,222.284,329.59,213.577,329.59z"/>
<g>
</g>
<g>
</g>
<g>
</g>
<g>
</g>
<g>
</g>
<g>
</g>
<g>
</g>
<g>
</g>
<g>
</g>
<g>
</g>
<g>
</g>
<g>
</g>
<g>
</g>
<g>
</g>
<g>
</g>
</svg>
