<?xml version="1.0" encoding="utf-8"?>
<!-- Generator: Adobe Illustrator 18.0.0, SVG Export Plug-In . SVG Version: 6.00 Build 0)  -->
<!DOCTYPE svg PUBLIC "-//W3C//DTD SVG 1.1//EN" "http://www.w3.org/Graphics/SVG/1.1/DTD/svg11.dtd">
<svg version="1.1" id="Layer_1" xmlns="http://www.w3.org/2000/svg" xmlns:xlink="http://www.w3.org/1999/xlink" x="0px" y="0px"
	 viewBox="0 0 786.6389 1673.4679" enable-background="new 0 0 786.6389 1673.4679" xml:space="preserve">
<g>
	<path d="M604.3776,443.6949c4.3571,19.7362,9.8606,38.7488,16.1721,57.5279c11.1548,33.1895,25.366,65.0135,42.0562,95.8151
		c35.0193,64.6277,64.5142,131.7022,87.6917,201.4986c5.4027,16.2697,7.9958,33.0739,8.7032,50.1782
		c0.2078,5.024-0.62,9.6415-5.7755,12.0998c-2.8337,1.3511-1.8206,3.5245-1.4005,5.6287
		c6.632,33.2113,11.3663,66.6824,14.1157,100.4465c3.3039,40.5738,4.256,81.1611,2.7072,121.863
		c-1.7833,46.8635-7.752,93.0962-18.7454,138.6678c-24.9588,103.4634-73.1769,194.0392-149.6128,268.8392
		c-36.4648,35.6847-78.6395,62.8588-124.836,84.3704c-38.4721,17.9148-77.0443,35.4701-118.7788,44.1827
		c-21.5386,4.4966-43.5268,6.8947-65.353,9.9462c-38.0579,5.3215-75.338-0.9908-112.4032-8.4991
		c-32.5815-6.6002-64.9696-15.1416-94.77-29.6451c-22.8733-11.1322-46.4895-22.6361-63.6685-42.8531
		c-1.3694-1.6116-4.5538-3.1141-2.5889-5.8419c1.7789-2.4695,4.7688-1.7513,7.2764-0.8425
		c1.6182,0.5865,3.2621,1.4192,4.5566,2.5341c18.0829,15.5718,40.1756,23.6282,61.7829,32.2789
		c57.0253,22.8309,116.4367,32.2222,177.7203,28.9073c70.0374-3.7886,135.6165-23.562,197.3449-56.5504
		c1.8355-0.9807,4.6176-1.6617,3.6763-4.5481c-0.9277-2.8444-3.9298-1.9371-5.6479-1.501
		c-5.6642,1.4381-11.7131,2.5725-16.6194,5.4943c-6.9646,4.1476-14.5083,5.5104-22.0087,7.7294
		c-13.1837,3.9008-26.268,7.9022-39.9017,10.0765c-45.3037,7.2245-90.805,9.2042-136.5605,5.9722
		c-61.7639-4.3628-116.6591-26.3215-165.3539-64.2704c-4.5176-3.5206-4.518-3.5201-8.7859-13.812
		c2.9503,1.8046,5.052,2.995,7.0573,4.3303c43.835,29.1881,91.7377,47.7827,144.1567,53.3649
		c53.619,5.7102,106.3506-0.2865,158.2727-14.5771c73.0202-20.0973,134.2186-59.1688,185.3214-114.6248
		c29.2181-31.7069,57.4429-64.2405,79.4795-101.5206c31.9362-54.0271,50.9729-112.7196,62.144-174.2164
		c10.6064-58.3882,11.8748-117.3131,10.1899-176.3732c-1.3259-46.4775-10.4601-91.3427-28.9273-134.2545
		c-5.925-13.7676-11.6896-27.7154-14.7752-42.5684c-1.0098-4.8605-4.5517-8.8785-5.7697-13.8373
		c-0.4762-1.9386-2.5933-3.1589-4.6088-3.2228c-5.5223-0.1755-7.5023-3.7906-9.5583-8.2184
		c-21.714-46.7614-35.9296-95.9055-47.773-145.933c-10.4714-44.232-29.6304-84.3558-60.5037-118.3161
		c-5.9969-6.5966-6.9846-7.0255-10.6655,0.6133c-9.2003,19.0929-21.5764,36.4234-30.2326,55.7901
		c-2.3087,5.1654-1.8433,8.9116,2.174,13.3989c23.1122,25.8159,49.8983,46.9974,79.6627,64.5339
		c7.6465,4.5052,8.9469,17.7029,2.153,23.5123c-0.6594,0.5638-1.6342,1.0827-1.8416,1.8016
		c-2.4238,8.4023-7.4197,5.0408-12.3417,2.894c-14.0446-6.1256-26.0338-15.1238-36.6053-26.0783
		c-14.916-15.4562-31.9237-27.8613-52.0821-35.5554c-4.4375-1.6937-6.905-5.2383-9.8584-8.3535
		c-28.6976-30.2697-60.7238-55.924-99.5025-72.3217c-15.7542-6.6617-32.0202-11.5319-48.9405-14.0761
		c-3.0296-0.4555-5.1803-1.7075-7.1252-4.0437c-10.786-12.9562-23.8234-23.1382-39.0453-30.3369
		c-17.7205-8.3804-29.1976-22.3793-37.3105-39.7434c-2.3792-5.0924-1.2784-8.7295,2.9818-11.9581
		c4.1826-3.1698,7.3239-2.4578,11.3182,1.0865c14.0608,12.4764,28.4398,24.6027,42.9062,36.6112
		c14.0668,11.6768,29.9636,17.6885,48.5645,14.4568c1.7666-0.3069,3.3823-0.5857,4.7039-1.9325
		c3.741-3.8121,8.3262-6.2296,13.2291-8.2665c6.8157-2.8315,10.7391-9.8364,18.2921-12.2263
		c3.1429-0.9945-1.2123-3.032-2.5334-3.7725c-17.037-9.5509-31.3102-22.2392-43.2518-37.6173
		c-7.2619-9.3516-13.2182-19.5084-18.5766-30.0522c-22.0338-43.3564-46.8995-84.8797-78.7741-121.8942
		c-4.6939-5.4508-8.821-11.4015-13.058-17.2316c-9.4071-12.9444-21.6365-20.3777-37.9716-21.3786
		c-7.0182-0.43-14.0908-2.1467-20.2753-6.3208c-4.2714-2.8829-4.4224-6.0219-1.9235-9.9815
		c4.9741-7.8817,12.1884-11.527,21.4126-11.708c13.7281-0.2694,23.3909-6.3685,26.6838-19.7607
		c12.2033-49.6303,43.4533-86.5181,79.4577-120.1361c15.091-14.0907,33.4923-22.057,54.5218-22.6232
		c11.0389-0.2972,16.4816,3.5596,20.5197,13.5451c1.4816,3.6638-0.8469,6.3287-2.0057,9.2304
		c-1.7544,4.3935-2.2901,7.8501,3.2127,10.0069c5.9746,2.3417,5.1145,7.597,4.0779,12.3077
		c-1.2639,5.7429-2.5008,11.1974,3.367,15.2784c0.4833,0.3361,1.0736,1.1907,0.9544,1.622
		c-2.5361,9.1719,6.995,14.9253,6.503,23.6934c-0.5123,9.13,6.6957,15.3246,10.1743,22.9556
		c1.2076,2.6493,1.8158,4.6522-0.2759,7.0836c-2.9962,3.4828-2.1137,6.2661,1.9429,8.2806c1.5771,0.7832,3.5836,2.082,2.4639,3.971
		c-3.2525,5.487,0.8405,7.7607,4.0583,10.5983c23.9904,21.1563,49.5611,40.2058,76.7185,57.0833
		c33.0126,20.5164,62.8435,44.8595,90.8991,71.7757c13.0264,12.4973,25.2602,25.2361,35.3461,40.1555
		c2.5374,3.7535,5.6774,7.4788,9.3739,9.9904c7.5609,5.1373,11.9365,12.4536,16.2211,20.0994
		c8.2214,14.6706,16.5661,29.275,25.0868,43.7734c2.7231,4.6335,1.9106,6.2082-3.423,5.6669
		c-3.9099-0.3968-7.8758-0.3252-11.7594-0.8705c-2.6536-0.3725-4.6048-0.0593-6.2355,2.2623
		c-1.7004,2.4209-0.955,4.4117,0.3521,6.6299c4.9235,8.355,4.096,9.7433-5.5528,10.1516
		C627.1193,442.5113,616.0029,443.1207,604.3776,443.6949z M411.6158,468.2028c-1.9276-0.46-3.3642,0.5113-4.816,1.5417
		c-5.3596,3.804-11.213,6.7122-17.1625,9.4551c-4.8104,2.2178-8.89,5.4282-12.6671,9.1432
		c-3.3341,3.2793-3.8205,5.0415,0.9367,8.0082c34.2416,21.3538,68.3106,42.987,102.258,64.8062
		c4.3849,2.8184,7.0083,2.1384,10.6181-0.9626c17.8482-15.3325,28.5917-34.9053,34.9515-57.2106
		c2.4241-8.5015,2.4003-8.3194-5.7504-10.8416c-25.2867-7.825-51.5624-10.7717-77.3952-15.8994
		C432.11,474.1628,421.8318,471.2914,411.6158,468.2028z"/>
</g>
</svg>
