<svg id="Flat" height="512" viewBox="0 0 512 512" width="512" xmlns="http://www.w3.org/2000/svg"><path d="m240 360h32v64h-32z" fill="#e09f2c"/><path d="m176 360h32v64h-32z" fill="#e09f2c"/><path d="m224 424h96a0 0 0 0 1 0 0v32a0 0 0 0 1 0 0h-64a32 32 0 0 1 -32-32 0 0 0 0 1 0 0z" fill="#ed8424" transform="matrix(-1 0 0 -1 544 880)"/><path d="m160 424h96a0 0 0 0 1 0 0v32a0 0 0 0 1 0 0h-64a32 32 0 0 1 -32-32 0 0 0 0 1 0 0z" fill="#ff8e26" transform="matrix(-1 0 0 -1 416 880)"/><path d="m408 144h80a0 0 0 0 1 0 0 48 48 0 0 1 -48 48h-32a0 0 0 0 1 0 0v-48a0 0 0 0 1 0 0z" fill="#fa730a"/><path d="m363.979 227.456a88.018 88.018 0 1 0 -100.154-33.107c-.725 6.038-4.464 21.651-23.825 21.651h-144c-56 0-72-56-72-56v72a160 160 0 0 0 160 160h151.756a79.987 79.987 0 0 0 79.767-86.181c-3.354-42.835-24.078-68.708-51.544-78.363z" fill="#f7b030"/><circle cx="376" cy="136" fill="#452d23" r="8"/><path d="m184 352c-24.616 0-40-14.963-40-40h14.857c-24.616 0-46.857-22.963-46.857-48h14.857c-24.616 0-46.857-22.963-46.857-48h144a64 64 0 0 1 64 64v8a64 64 0 0 1 -64 64z" fill="#e09f2c"/></svg>