<?xml version="1.0" encoding="iso-8859-1"?>
<!-- Generator: Adobe Illustrator 18.0.0, SVG Export Plug-In . SVG Version: 6.00 Build 0)  -->
<!DOCTYPE svg PUBLIC "-//W3C//DTD SVG 1.1//EN" "http://www.w3.org/Graphics/SVG/1.1/DTD/svg11.dtd">
<svg version="1.1" id="Capa_1" xmlns="http://www.w3.org/2000/svg" xmlns:xlink="http://www.w3.org/1999/xlink" x="0px" y="0px"
	 viewBox="0 0 393.002 393.002" style="enable-background:new 0 0 393.002 393.002;" xml:space="preserve">
<g>
	<path d="M392.881,140.758c-0.632-3.486-3.616-6.055-7.157-6.16l-66.01-1.961c-11.534-4.549-97.906-37.545-191.315-44.138
		c-1.157-0.082-2.064-1.044-2.064-2.19V75.603c0-28.861-23.48-52.342-52.342-52.342c-12.752,0-25.043,4.644-34.608,13.075
		c-2.6,2.292-4.453,5.164-5.521,8.279c-6.775,1.444-18.798,4.821-30.371,12.141c-3.501,2.214-4.544,6.847-2.33,10.348
		c1.428,2.257,3.859,3.492,6.346,3.492c1.371,0,2.759-0.375,4.002-1.163c8.581-5.427,17.64-8.274,23.446-9.676
		c5.148,10.102,14.898,17.125,26.803,19.28c0.697,0.126,1.048,0.674,1.166,0.903c0.246,0.478,0.251,0.975,0.016,1.476
		c-5.037,10.69-7.647,23.179-7.757,37.103l-0.003,0.308c-0.334,42.278,26.431,79.546,66.6,92.735l10.625,3.489
		c7.416,2.435,14.928,4.296,22.488,5.592v34.024c-33.788,9.324-58.683,40.313-58.683,77.026c0,7.89,1.149,15.595,3.385,23.016
		c-0.413,0.018-0.828,0.031-1.244,0.031c-7.819,0-15.098-3.118-20.492-8.78c-1.415-1.485-3.378-2.326-5.43-2.326
		s-4.015,0.841-5.43,2.326c-5.395,5.662-12.673,8.78-20.493,8.78c-7.819,0-15.098-3.118-20.492-8.78
		c-2.856-2.998-7.603-3.114-10.604-0.256c-2.999,2.857-3.113,7.605-0.256,10.604c8.253,8.663,19.388,13.433,31.352,13.433
		c9.509,0,18.492-3.013,25.923-8.597c7.431,5.584,16.414,8.597,25.922,8.597c9.509,0,18.492-3.013,25.923-8.597
		c7.431,5.584,16.414,8.597,25.923,8.597c9.508,0,18.491-3.013,25.922-8.597c7.43,5.584,16.414,8.597,25.922,8.597
		s18.492-3.013,25.922-8.597c7.431,5.584,16.414,8.597,25.923,8.597c9.508,0,18.491-3.013,25.922-8.597
		c7.431,5.584,16.414,8.597,25.922,8.597c11.965,0,23.1-4.771,31.353-13.433c2.857-2.999,2.743-7.746-0.256-10.604
		c-2.999-2.857-7.747-2.742-10.604,0.256c-5.395,5.662-12.673,8.78-20.493,8.78c-7.819,0-15.098-3.118-20.492-8.78
		c-1.415-1.485-3.378-2.326-5.43-2.326s-4.015,0.841-5.43,2.326c-5.395,5.662-12.673,8.78-20.492,8.78
		c-0.417,0-0.833-0.013-1.247-0.031c2.233-7.425,3.381-15.13,3.381-23.016c0-37.201-25.549-68.545-60.02-77.405v-32.293
		c1.927-0.206,3.847-0.443,5.753-0.725c20.104-2.979,37.747-9.614,52.463-19.726c29.98-9.96,129.836-50.754,134.122-52.507
		C391.618,147.696,393.513,144.244,392.881,140.758z M48.246,52.815c-0.878-1.755-0.443-3.904,1.056-5.226
		c6.825-6.016,15.593-9.328,24.69-9.328c20.591,0,37.342,16.751,37.342,37.342v10.706c0,8.984,7.031,16.519,16.008,17.153
		c69.058,4.874,134.232,24.555,166.636,35.727c-19.553,15.127-66.189,46.072-120.477,46.072c-77.283,0-91.365-22.153-93.403-26.594
		c-0.17-0.37-0.373-0.713-0.592-1.041c-6.093-11.632-9.434-24.827-9.325-38.664l0.003-0.308c0.092-11.754,2.221-22.132,6.326-30.844
		c2.229-4.731,2.138-10.104-0.251-14.739c-2.366-4.594-6.789-7.882-11.828-8.794C57.127,62.955,51.228,58.778,48.246,52.815z
		 M219.582,283.533h-86.929c11.516-10.404,26.764-16.75,43.469-16.75C192.823,266.783,208.068,273.13,219.582,283.533z
		 M120.349,298.533h111.534c1.502,2.516,2.846,5.137,4.001,7.858H116.347C117.503,303.671,118.848,301.05,120.349,298.533z
		 M233.393,345.96c-1.415-1.485-3.378-2.326-5.43-2.326s-4.015,0.841-5.43,2.327c-5.395,5.662-12.672,8.78-20.492,8.78
		s-15.099-3.118-20.493-8.78c-1.415-1.485-3.378-2.326-5.43-2.326s-4.015,0.841-5.43,2.327c-5.395,5.662-12.672,8.78-20.491,8.78
		c-7.82,0-15.099-3.118-20.493-8.78c-1.415-1.485-3.378-2.326-5.43-2.326s-4.015,0.841-5.43,2.326
		c-1.516,1.591-3.184,2.973-4.968,4.149c-1.759-5.937-2.666-12.101-2.666-18.416c0-3.506,0.289-6.945,0.826-10.302h128.157
		c0.538,3.357,0.826,6.796,0.826,10.302c0,6.311-0.906,12.474-2.662,18.415C236.576,348.932,234.908,347.55,233.393,345.96z
		 M181.001,251.947c-1.616-0.098-3.24-0.163-4.88-0.163c-2.098,0-4.17,0.106-6.228,0.266v-29.594
		c3.507,0.247,7.018,0.379,10.527,0.379c0.001,0,0.001,0,0.002,0c0.193,0,0.385-0.01,0.578-0.011V251.947z M248.512,187.63
		c-0.709,0.231-1.381,0.567-1.991,0.996c-12.97,9.119-28.771,15.11-46.966,17.806c-6.276,0.93-12.713,1.402-19.132,1.402
		c0,0-0.001,0-0.002,0c-14.543,0-29.123-2.367-43.336-7.033l-10.625-3.489c-0.776-0.255-1.54-0.532-2.304-0.808
		c14.23,2.494,30.711,3.757,49.345,3.757c67.764,0,122.715-42.887,136.996-55.107c3.028,1.152,4.709,1.833,4.827,1.881
		c0.833,0.341,1.721,0.53,2.62,0.556l31.703,0.942C316.069,162.059,266.502,181.773,248.512,187.63z"/>
	<circle cx="69.501" cy="50.761" r="8.215"/>
</g>
<g>
</g>
<g>
</g>
<g>
</g>
<g>
</g>
<g>
</g>
<g>
</g>
<g>
</g>
<g>
</g>
<g>
</g>
<g>
</g>
<g>
</g>
<g>
</g>
<g>
</g>
<g>
</g>
<g>
</g>
</svg>
