<svg height="74pt" viewBox="-3 -2 74 74.668108" width="74pt" xmlns="http://www.w3.org/2000/svg"><path d="m9.464844 60.9375c.40625-.605469.914062-1.132812 1.5-1.5625-.601563-.472656-1.1875-.980469-1.765625-1.53125-.050781 1.039062.042969 2.078125.265625 3.09375zm0 0"/><path d="m8.222656 16.28125c3.328125-2.734375 7.207032-4.71875 11.371094-5.832031-2.4375-2.210938-8.292969-6.34375-19.34375-7.71875 2.53125 2.929687 6.1875 8.222656 6.765625 14.703125.390625-.390625.777344-.785156 1.207031-1.152344zm0 0"/><path d="m67.960938 16.570312c-1.035157-1.984374-4.835938-2.847656-5.808594-2.925781-.390625.054688-.789063-.070312-1.070313-.355469-.246093-.25-.609375-.652343-1.042969-1.152343-1.578124-1.796875-4.515624-5.136719-7.210937-6.039063-1.546875-.714844-2.941406-1.734375-4.078125-2.996094-1.648438-1.550781-3.507812-3.3125-5.058594-3.0820308-1.019531.1523438-2.074218 1.1679688-3.125 3.0117188-1.054687 1.851562-1.296875 3.417969-.671875 4.621094 1.234375 2.402344 5.621094 3.347656 7.207031 3.515625.6875.066406 1.1875.675781 1.117188 1.363281-.066406.691406-.683594 1.1875-1.367188 1.121094-2.535156-.285156-4.972656-1.152344-7.113281-2.539063-.121093.035157-.253906.046875-.386719.039063-5.683593-.429688-11.410156-.035156-16.980468 1.179687-.066406.019531-.132813.039063-.203125.050781-4.507813.929688-8.730469 2.917969-12.320313 5.796876-1.0625.917968-2.019531 1.953124-2.855468 3.082031v.03125c-.046876.40625-.292969.757812-.660157.945312-1.910156 3.070313-2.976562 6.597657-3.078125 10.214844-.433594 9.039063 1.539063 16.242187 5.789063 21.492187.117187.09375.207031.203126.28125.332032.296875.351562.570312.722656.890625 1.054687 4.078125 4.25 9.636718 6.773438 15.523437 7.046875.496094 0 .949219.296875 1.144531.761719 2.214844 4.738281 7.261719 7.476563 12.441407 6.742187.375-.046874.703125-.089843.96875-.136718l-.007813-.003906c-2.65625-1.769532-8.171875-5.460938-5.738281-12.757813 1.15625-3.390625 2.566406-6.6875 4.230469-9.867187.230468-.453126.472656-.9375.671875-1.359376-.214844.082032-.460938.175782-.753907.292969-5.710937 2.28125-10.519531 12.980469-10.566406 13.085938-.234375.527343-.800781.824219-1.367187.722656-.535157-.097656-11.667969-2.214844-13.375-9.414063-.011719-.011718-.019531-.027343-.03125-.042968-3.667969-9.304688-1.039063-19.910156 6.550781-26.429688.332031-.308594.800781-.414062 1.234375-.277344.429687.136719.75.496094.84375.933594.09375.445313-.0625.90625-.40625 1.203125-5.132813 4.3125-7.855469 10.847657-7.304687 17.527344 1.796874-4.523437 4.90625-8.414063 8.925781-11.15625.035156-.257813.144531-.5.328125-.691406.488281-.484375 1.277344-.484375 1.765625 0 .101562.101562.179687.222656.273437.332031.074219.058594.140625.132812.195313.203125.007812.019531.007812.035156.019531.054687 2.171875 2.675782 2.601562 6.824219 2.578125 9.710938 4.398437-5.726562 3.5625-16.683594 3.550781-16.804688-.039062-.449218.160156-.882812.53125-1.144531.367188-.257812.84375-.296875 1.25-.101562.40625.191406.679688.585937.710938 1.035156.015625.183594.125 1.550781.074218 3.539063 1.753907-.09375 3.503907.019531 5.226563.335937 10.410156 1.894531 16.164063-2.917969 18.050781-4.925781-1.144531-.902344-2.171875-1.945313-3.046875-3.113282-.390625-.558593-.261719-1.332031.296875-1.730468.554688-.394532 1.328125-.277344 1.730469.273437.839844 1.160157 3.585937 4.15625 6.265625 4.15625h.066406c1.476563-.027343 2.859375-1 4.109375-2.875 1.046875-1.566406 1.3125-2.878906.785157-3.886719zm-23.484376-11.660156c-.6875 0-1.25-.554687-1.25-1.25 0-.6875.5625-1.25 1.25-1.25s1.25.5625 1.25 1.25c0 .695313-.5625 1.25-1.25 1.25zm-7.550781 17.125c-.488281.488282-1.277343.488282-1.765625 0-3.011718-3.007812-1.613281-7.339844-1.550781-7.519531.214844-.660156.921875-1.015625 1.582031-.796875.652344.214844 1.007813.921875.789063 1.578125-.011719.027344-.960938 3.066406.945312 4.972656.488281.484375.488281 1.28125 0 1.765625zm4.6875 0c-.488281.488282-1.28125.488282-1.769531 0-3.007812-3.007812-1.613281-7.339844-1.550781-7.519531.214843-.660156.921875-1.015625 1.582031-.796875.652344.214844 1.007812.921875.789062 1.578125-.007812.027344-.960937 3.066406.949219 4.972656.488281.484375.488281 1.28125 0 1.765625zm11.242188 1.25c-.488281.488282-1.277344.488282-1.765625 0-2.152344-1.917968-4.570313-3.519531-7.175782-4.753906-.613281-.308594-.863281-1.058594-.554687-1.679688.308594-.613281 1.058594-.867187 1.671875-.554687 2.851562 1.34375 5.488281 3.105469 7.824219 5.230469.484375.484375.484375 1.269531 0 1.757812zm11.609375-4.632812c-.6875 0-1.25-.554688-1.25-1.25 0-.6875.5625-1.25 1.25-1.25s1.25.5625 1.25 1.25c0 .695312-.5625 1.25-1.25 1.25zm0 0"/><path d="m37.292969 37.128906c1.347656-1.707031 2.113281-3.796875 2.1875-5.96875-.078125-.015625-.148438-.019531-.226563-.035156-1.160156-.203125-2.339844-.3125-3.523437-.316406 1.09375 1.921875 1.636719 4.109375 1.5625 6.320312zm0 0"/></svg>