<svg id="Capa_1" enable-background="new 0 0 512 512" height="512" viewBox="0 0 512 512" width="512" xmlns="http://www.w3.org/2000/svg"><g><path d="m256 0c-141.385 0-256 114.615-256 256 0 132.145 100.128 240.894 228.653 254.544l8.446-4.808 8.446 6.034c3.469.139 6.951.23 10.455.23 2.753 0 5.491-.059 8.223-.145l8.446-6.119 8.446 5.036c129.596-12.621 230.885-121.863 230.885-254.772 0-141.385-114.615-256-256-256z" fill="#dfcfc1"/><path d="m368.018 72.827-17-17-62.559 56.202-29.843 41.432 56.578 56.578 1.551 8.78-15.295 56.943-68.368 10.136-112.359 92.584 46.813 46.813-29.776 29.776 46.796 46.796c14.229 4.127 28.963 7.069 44.097 8.677l8.446-4.808 8.446 6.034c3.469.139 6.951.23 10.455.23 2.753 0 5.491-.059 8.223-.145l8.446-6.119 8.446 5.036c129.596-12.621 230.885-121.863 230.885-254.772 0-37.035-7.876-72.226-22.026-104.008l-81.005-81.005z" fill="#c6a98f"/><path d="m228.653 510.544c5.579.592 11.212.998 16.892 1.226v-192.569h-16.892z" fill="#ff8d8d"/><path d="m264.223 511.855c5.679-.179 11.312-.539 16.892-1.083v-191.571h-16.892z" fill="#ff5b5b"/><path d="m402.444 76.253-52.936 4.699v-14.301l59.461 4.336z" fill="#ff5b5b"/><path d="m254.884 248.171c-3.139-.503-6.357-.769-9.637-.769-28.312 0-52.07 19.468-58.636 45.746l-48.851 161.923s67.753-8.395 117.125-47.854l16.838-88.016z" fill="#fff"/><path d="m339.893 50.751c-3.19-.406-19.867-1.811-34.944 10.756-4.678 3.899-8.568 8.603-11.664 14.085v-.001l-.017.033c-.647 1.148-1.248 2.341-1.825 3.557l-36.48 71.094 3.652 3.188 26.228-33.039c1.181 11.33 4.626 23.22 8.221 35.625 9.601 33.125 20.18 69.659-2.941 111.314-9.025-9.997-21.341-16.962-35.241-19.19v159.047c25.491-20.373 46.087-49.021 49.919-89.083 58.348-68.686 40.247-131.148 27.946-173.589-3.805-13.129-7.399-25.53-6.99-33.177.679-12.678 4.175-16.899 5.645-18.125 1.314-1.095 3.215-1.511 3.235-1.511 11.318 1.441 21.667-6.547 23.118-17.864 1.453-11.319-6.545-21.669-17.862-23.12z" fill="#efefef"/><path d="m254.812 298.564c3.665 84.528-134.089 79.918-134.089 79.918s21.605-96.774 76.319-116.333c25.112-8.977 56.615 9.771 57.77 36.415z" fill="#adcfff"/><g><circle cx="336.728" cy="70.117" fill="#2d2d2d" r="4.495"/></g></g></svg>