<?xml version="1.0" encoding="iso-8859-1"?>
<!-- Generator: Adobe Illustrator 19.0.0, SVG Export Plug-In . SVG Version: 6.00 Build 0)  -->
<svg version="1.1" id="Layer_1" xmlns="http://www.w3.org/2000/svg" xmlns:xlink="http://www.w3.org/1999/xlink" x="0px" y="0px"
	 viewBox="0 0 512 512" style="enable-background:new 0 0 512 512;" xml:space="preserve">
<path style="fill:#F39E31;" d="M501.746,119.224C507.869,117.188,512,111.46,512,105s-4.131-12.188-10.254-14.224
	c0,0-92.055-30.352-110.746-36.582c0,31.091,0,71.454,0,102.611C407.57,151.282,501.746,119.224,501.746,119.224z"/>
<path style="fill:#E7812E;" d="M316,512h-60c-8.291,0-15-6.709-15-15v-91c0-8.291,6.709-15,15-15c8.291,0,15,6.709,15,15v76h45
	c8.291,0,15,6.709,15,15S324.291,512,316,512z"/>
<path style="fill:#F29A36;" d="M256,512h-60c-8.291,0-15-6.709-15-15v-91c0-8.291,6.709-15,15-15s15,6.709,15,15v76h45
	c8.291,0,15,6.709,15,15S264.291,512,256,512z"/>
<path style="fill:#E6EEFF;" d="M256,421h-60C88.48,421,0,333.52,0,226v-60c0-8.291,6.709-15,15-15h256V75c0-41.353,33.647-75,75-75
	s75,33.647,75,75v181C421,346.981,346.981,421,256,421z"/>
<path style="fill:#7F838C;" d="M166,271h-61C47.109,271,0,223.891,0,166c0-8.291,6.709-15,15-15h151c8.291,0,15,6.709,15,15v90
	C181,264.291,174.291,271,166,271z"/>
<path style="fill:#C4CAD9;" d="M256,361c-90.981,0-166-74.019-166-165v-30c0-8.291,6.709-15,15-15h151c57.891,0,105,47.109,105,105
	S313.891,361,256,361z"/>
<g>
	<path style="fill:#A1A7B3;" d="M196,301h-61.015c-8.291,0-15-6.709-15-15s6.709-15,15-15H196c8.291,0,15,6.709,15,15
		S204.291,301,196,301z"/>
	<path style="fill:#A1A7B3;" d="M166,241h-57.997c-8.291,0-15-6.709-15-15s6.709-15,15-15H166c8.291,0,15,6.709,15,15
		S174.291,241,166,241z"/>
</g>
<circle style="fill:#53565C;" cx="346" cy="75" r="15"/>
<g>
</g>
<g>
</g>
<g>
</g>
<g>
</g>
<g>
</g>
<g>
</g>
<g>
</g>
<g>
</g>
<g>
</g>
<g>
</g>
<g>
</g>
<g>
</g>
<g>
</g>
<g>
</g>
<g>
</g>
</svg>
