<?xml version="1.0" encoding="iso-8859-1"?>
<!-- Generator: Adobe Illustrator 19.0.0, SVG Export Plug-In . SVG Version: 6.00 Build 0)  -->
<svg version="1.1" id="Layer_1" xmlns="http://www.w3.org/2000/svg" xmlns:xlink="http://www.w3.org/1999/xlink" x="0px" y="0px"
	 viewBox="0 0 512 512" style="enable-background:new 0 0 512 512;" xml:space="preserve">
<circle style="fill:#FF6838;" cx="256" cy="256" r="256"/>
<path style="fill:#AE4E32;" d="M512,256c0-22.573-2.934-44.458-8.42-65.308l-48.469-48.469l-23.674,1.388l-44.454-44.453
	l2.457,143.927L115.386,369.602l84.158,83.256l-5.392,5.684l53.3,53.3c2.839,0.093,5.687,0.157,8.549,0.157
	c57.946,0,111.387-19.263,154.293-51.719l7.021-7.021l0.181,1.365C475.158,407.685,512,336.15,512,256z"/>
<path style="fill:#175D76;" d="M284.444,461.145H256c-3.332,0-6.034-2.701-6.034-6.034v-85.333c0-3.332,2.701-6.034,6.034-6.034
	s6.034,2.701,6.034,6.034v79.3h22.411c3.332,0,6.034,2.701,6.034,6.034C290.478,458.443,287.777,461.145,284.444,461.145z"/>
<path style="fill:#00263F;" d="M284.444,449.077h-22.411v-79.3c0-3.332-2.701-6.034-6.034-6.034v97.401h28.444
	c3.332,0,6.034-2.701,6.034-6.034C290.478,451.779,287.777,449.077,284.444,449.077z"/>
<path style="fill:#175D76;" d="M227.556,461.145h-28.444c-3.332,0-6.034-2.701-6.034-6.034v-85.333c0-3.332,2.701-6.034,6.034-6.034
	c3.332,0,6.034,2.701,6.034,6.034v79.3h22.411c3.332,0,6.034,2.701,6.034,6.034C233.589,458.443,230.888,461.145,227.556,461.145z"
	/>
<path style="fill:#FFFFFF;" d="M356.381,85.342c-23.917-0.455-43.492,19.699-43.492,43.618v70.151H85.333v98.981
	c0,55.299,44.83,100.13,100.131,100.13h112.628c55.299,0,100.13-44.83,100.13-100.13V128
	C398.222,104.712,379.564,85.782,356.381,85.342z"/>
<path style="fill:#E0E0E0;" d="M356.381,85.34c-23.917-0.453-43.492,19.701-43.492,43.62v70.151H256v199.111h42.091
	c55.301,0,100.131-44.83,100.131-100.13V128C398.222,104.712,379.564,85.782,356.381,85.34z"/>
<path style="fill:#175D76;" d="M199.111,341.333L199.111,341.333c-62.838,0-113.778-50.94-113.778-113.778v-28.444h227.556v28.444
	C312.889,290.394,261.949,341.333,199.111,341.333z"/>
<path style="fill:#00263F;" d="M256,199.111v126.962c33.999-19.675,56.889-56.411,56.889-98.518v-28.444L256,199.111L256,199.111z"
	/>
<polygon style="fill:#FFD863;" points="398.222,122.397 455.111,142.222 398.222,162.047 "/>
<polygon style="fill:#FFCF35;" points="398.222,141.648 398.222,162.047 455.111,142.222 453.463,141.648 "/>
<circle style="fill:#00263F;" cx="355.556" cy="128" r="8.62"/>
<g>
</g>
<g>
</g>
<g>
</g>
<g>
</g>
<g>
</g>
<g>
</g>
<g>
</g>
<g>
</g>
<g>
</g>
<g>
</g>
<g>
</g>
<g>
</g>
<g>
</g>
<g>
</g>
<g>
</g>
</svg>
