<svg height="416pt" viewBox="0 -3 416.42667 416" width="416pt" xmlns="http://www.w3.org/2000/svg"><path d="m307.199219 153.8125c0 84.832031-68.769531 153.601562-153.597657 153.601562-84.832031 0-153.601562-68.769531-153.601562-153.601562s68.769531-153.597656 153.601562-153.597656c84.828126 0 153.597657 68.765625 153.597657 153.597656zm0 0" fill="#d9be6f"/><path d="m245.761719 184.535156v-112.640625c0-20.738281-16.8125-37.546875-37.546875-37.546875-20.738282 0-37.546875 16.808594-37.546875 37.546875v180.90625h.039062c.421875 34 28.082031 61.4375 62.179688 61.4375h66.703125c34.367187 0 62.222656-27.855469 62.222656-62.21875v-67.484375zm0 0" fill="#fff"/><path d="m299.59375 321.066406h-66.707031c-37.328125 0-68.113281-30.167968-68.992188-67.40625-.035156-.28125-.054687-.566406-.054687-.859375v-180.90625c0-24.46875 19.90625-44.375 44.375-44.375 24.464844 0 44.371094 19.90625 44.371094 44.375v105.8125h109.226562c3.773438 0 6.828125 3.054688 6.828125 6.828125v67.484375c0 38.074219-30.972656 69.046875-69.046875 69.046875zm-122.101562-69.003906c.027343.214844.039062.429688.039062.652344.375 30.160156 25.207031 54.699218 55.355469 54.699218h66.707031c30.546875 0 55.394531-24.851562 55.394531-55.394531v-60.660156h-109.226562c-3.773438 0-6.828125-3.054687-6.828125-6.824219v-112.640625c0-16.941406-13.78125-30.722656-30.71875-30.722656-16.941406 0-30.722656 13.78125-30.722656 30.722656zm0 0" fill="#4c241d"/><path d="m180.90625 95.785156h-71.679688v23.894532c0 5.65625 4.585938 10.242187 10.238282 10.242187 5.65625 0 10.242187-4.585937 10.242187-10.242187v-3.414063h51.199219c5.65625 0 10.242188-4.582031 10.242188-10.238281s-4.585938-10.242188-10.242188-10.242188zm0 0" fill="#fc8c29"/><g fill="#4c241d"><path d="m119.464844 136.746094c-9.414063 0-17.066406-7.65625-17.066406-17.066406v-23.894532c0-3.769531 3.054687-6.824218 6.828124-6.824218h71.679688c9.414062 0 17.066406 7.65625 17.066406 17.066406s-7.652344 17.066406-17.066406 17.066406h-44.710938c-1.589843 7.78125-8.488281 13.652344-16.730468 13.652344zm-3.410156-34.132813v17.066407c0 1.882812 1.53125 3.414062 3.410156 3.414062 1.882812 0 3.414062-1.53125 3.414062-3.414062v-3.414063c0-3.769531 3.054688-6.824219 6.828125-6.824219h51.199219c1.882812 0 3.414062-1.53125 3.414062-3.414062 0-1.886719-1.53125-3.414063-3.414062-3.414063zm0 0"/><path d="m293.546875 409.8125h-88.746094c-3.773437 0-6.828125-3.054688-6.828125-6.824219 0-3.773437 3.054688-6.828125 6.828125-6.828125h88.746094c3.773437 0 6.828125 3.054688 6.828125 6.828125 0 3.769531-3.054688 6.824219-6.828125 6.824219zm0 0"/><path d="m273.066406 409.8125c-3.773437 0-6.828125-3.054688-6.828125-6.824219v-88.75c0-3.769531 3.054688-6.824219 6.828125-6.824219 3.773438 0 6.828125 3.054688 6.828125 6.824219v88.75c0 3.769531-3.054687 6.824219-6.828125 6.824219zm0 0"/><path d="m238.933594 409.8125c-3.773438 0-6.828125-3.054688-6.828125-6.824219v-88.75c0-3.769531 3.054687-6.824219 6.828125-6.824219 3.773437 0 6.828125 3.054688 6.828125 6.824219v88.75c0 3.769531-3.054688 6.824219-6.828125 6.824219zm0 0"/></g><path d="m409.601562 184.535156c0 45.242188-36.679687 81.917969-81.921874 81.917969-45.242188 0-81.917969-36.675781-81.917969-81.917969zm0 0" fill="#9dc1e4"/><path d="m327.679688 273.28125c-48.933594 0-88.746094-39.8125-88.746094-88.746094 0-3.773437 3.054687-6.828125 6.828125-6.828125h163.839843c3.773438 0 6.824219 3.054688 6.824219 6.828125 0 48.933594-39.8125 88.746094-88.746093 88.746094zm-74.785157-81.921875c3.457031 38.222656 35.679688 68.265625 74.785157 68.265625 39.105468 0 71.328124-30.042969 74.785156-68.265625zm0 0" fill="#4c241d"/><path d="m218.453125 75.308594c0 3.769531-3.054687 6.824218-6.828125 6.824218-3.769531 0-6.824219-3.054687-6.824219-6.824218 0-3.773438 3.054688-6.828125 6.824219-6.828125 3.773438 0 6.828125 3.054687 6.828125 6.828125zm0 0" fill="#4c241d"/><path d="m157.011719 75.308594c0 3.769531-3.054688 6.824218-6.824219 6.824218s-6.828125-3.054687-6.828125-6.824218c0-3.773438 3.058594-6.828125 6.828125-6.828125s6.824219 3.054687 6.824219 6.828125zm0 0" fill="#4c241d"/></svg>