<?xml version="1.0" encoding="iso-8859-1"?>
<!-- Generator: Adobe Illustrator 19.0.0, SVG Export Plug-In . SVG Version: 6.00 Build 0)  -->
<svg version="1.1" id="Layer_1" xmlns="http://www.w3.org/2000/svg" xmlns:xlink="http://www.w3.org/1999/xlink" x="0px" y="0px"
	 viewBox="0 0 512 512" style="enable-background:new 0 0 512 512;" xml:space="preserve">
<rect x="85.684" y="407.392" style="fill:#FF9940;" width="344.838" height="96.723"/>
<rect x="85.684" y="407.392" style="fill:#F5760F;" width="29.437" height="96.723"/>
<ellipse style="fill:#FFDAB2;" cx="258.103" cy="407.392" rx="172.419" ry="37.848"/>
<ellipse style="fill:#FFB266;" cx="258.103" cy="407.392" rx="109.339" ry="12.616"/>
<polygon style="fill:#FFD042;" points="94.094,87.786 9.988,87.786 26.809,66.76 81.478,66.76 "/>
<path style="fill:#EDECEB;" d="M104.06,70.965c-12.848,21.885-20.129,46.796-20.129,73.233c0,87.096,78.903,157.7,176.235,157.7
	c60.194,0,113.331-27.011,145.123-68.22L182.407,117.224V70.965H104.06z"/>
<path style="fill:#DBD9D7;" d="M281.193,289.643c-97.332,0-176.235-70.604-176.235-157.7c0-21.62,4.875-42.218,13.677-60.977H104.06
	c-12.848,21.885-20.129,46.796-20.129,73.233c0,87.096,78.904,157.7,176.235,157.7c39.949,0,76.779-11.907,106.335-31.955
	C341.223,282.485,312.146,289.643,281.193,289.643z"/>
<circle style="fill:#EDECEB;" cx="127.737" cy="62.554" r="54.669"/>
<path style="fill:#DBD9D7;" d="M144.558,100.402c-30.193,0-54.669-24.476-54.669-54.669c0-10.79,3.138-20.841,8.534-29.314
	c-15.238,9.703-25.355,26.732-25.355,46.136c0,30.193,24.476,54.669,54.669,54.669c19.403,0,36.433-10.118,46.136-25.355
	C165.399,97.264,155.348,100.402,144.558,100.402z"/>
<path style="fill:#807A72;" d="M182.407,113.018l319.606,58.875c0,0-50.464,96.723-197.651,71.491
	C183.519,222.669,182.407,113.018,182.407,113.018z"/>
<path style="fill:#6E685E;" d="M325.388,234.98c-95.656-16.399-116.286-88.51-120.731-117.862l-22.25-4.099
	c0,0,1.112,109.649,121.955,130.366c58.39,10.01,101.545,0.82,132.38-13.903C408.182,238.81,371.543,242.892,325.388,234.98z"/>
<path d="M182.407,462.587c-4.356,0-7.885,3.529-7.885,7.885v33.643c0,4.356,3.529,7.885,7.885,7.885s7.885-3.529,7.885-7.885
	v-33.643C190.292,466.117,186.762,462.587,182.407,462.587z"/>
<path d="M509.098,168.436c-1.097-2.25-3.196-3.844-5.658-4.298l-313.148-57.686V58.349c0-0.789-0.119-1.549-0.334-2.267
	C186.708,24.619,160.045,0,127.737,0C94.48,0,67.212,26.089,65.299,58.875h-38.49c-2.395,0-4.662,1.089-6.157,2.958L3.831,82.86
	c-1.893,2.368-2.262,5.61-0.949,8.342c1.313,2.732,4.075,4.469,7.106,4.469h63.08c0.527,0,1.041-0.054,1.538-0.152
	c1.995,3.204,4.263,6.222,6.787,9.006c-3.535,12.921-5.347,26.252-5.347,39.672c0,14.604,2.116,29.094,6.288,43.068
	c1.281,4.286,6.021,6.668,10.231,5.16c3.888-1.392,6.06-5.721,4.88-9.671c-3.735-12.509-5.629-25.481-5.629-38.557
	c0-9.584,1.025-19.12,3.044-28.455c9.56,5.932,20.823,9.367,32.877,9.367c18.598,0,35.316-8.168,46.784-21.093v13.208
	c0,0.896,0.157,1.753,0.431,2.556c1.022,10.398,4.468,31.568,16.098,54.252c14.856,28.974,46.343,65.873,111.978,77.125
	c17.332,2.971,33.344,4.265,48.107,4.265c8.096,0,15.812-0.391,23.16-1.108c-30.911,25.44-71.355,39.699-114.13,39.699
	c-67.406,0-128.157-35.633-154.769-90.78c-1.893-3.92-6.603-5.566-10.529-3.674c-3.921,1.893-5.567,6.607-3.674,10.529
	c20.957,43.429,60.994,75.833,109.042,90.694l12.135,36.398v25.807c-29.14,1.73-55.89,5.114-77.876,9.94
	c-38.15,8.375-56.695,19.647-56.695,34.464v96.723c0,4.356,3.529,7.885,7.885,7.885c4.356,0,7.885-3.529,7.885-7.885v-76.066
	c5.757,3.245,13.111,6.223,22.078,8.951v20.856c0,4.356,3.529,7.885,7.885,7.885c4.356,0,7.885-3.529,7.885-7.885v-16.694
	c1.013,0.233,2.034,0.465,3.077,0.694c33.104,7.267,77.003,11.269,123.609,11.269c5.83,0,11.617-0.063,17.347-0.186v17.533
	c0,4.356,3.529,7.885,7.885,7.885c4.356,0,7.885-3.529,7.885-7.885v-18.037c28.071-1.182,54.313-3.862,76.747-7.861v25.898
	c0,4.356,3.529,7.885,7.885,7.885s7.885-3.529,7.885-7.885V441.4c16.937-3.835,29.878-8.265,38.899-13.35v76.065
	c0,4.356,3.529,7.885,7.885,7.885s7.885-3.529,7.885-7.885v-96.723c0-14.816-18.546-26.089-56.695-34.464
	c-26.156-5.741-59.053-9.443-94.697-10.745v-26.282c0-0.945-0.17-1.883-0.503-2.769l-9.033-24.089
	c48.473-4.073,93.086-25.148,124.51-59.26c26.108-6.086,46.195-16.242,60.819-26.156c32.289-21.891,45.644-47.027,46.196-48.087
	C510.16,173.321,510.196,170.685,509.098,168.436z M26.394,79.901l4.205-5.257h35.767c0.35,1.781,0.783,3.532,1.283,5.257H26.394z
	 M127.737,109.339c-25.797,0-46.784-20.988-46.784-46.784S101.94,15.77,127.737,15.77s46.784,20.988,46.784,46.784
	S153.534,109.339,127.737,109.339z M378.331,388.332c36.786,8.075,44.305,17.088,44.305,19.061s-7.519,10.985-44.306,19.061
	c-32.027,7.03-74.725,10.902-120.227,10.902s-88.201-3.872-120.227-10.902c-36.786-8.075-44.306-17.088-44.306-19.061
	s7.519-10.985,44.306-19.061c20.988-4.607,46.557-7.858,74.494-9.551v14.335l-36.434,10.93c-4.172,1.251-6.538,5.647-5.286,9.818
	c1.025,3.416,4.157,5.621,7.55,5.621c0.751,0,1.513-0.108,2.269-0.334l42.053-12.616c3.335-1,5.619-4.07,5.619-7.553v-20.98
	c9.79-0.377,19.806-0.572,29.963-0.572c4.409,0,8.792,0.038,13.142,0.109v15.761l-32.457,10.818
	c-4.132,1.377-6.364,5.843-4.986,9.974c1.102,3.304,4.178,5.393,7.479,5.393c0.826,0,1.667-0.131,2.495-0.407l37.848-12.616
	c3.22-1.073,5.391-4.087,5.391-7.48v-21.02C321.49,379.244,353.197,382.814,378.331,388.332z M271.244,337.331v24.434
	c-4.351-0.07-8.734-0.107-13.142-0.107c-10.143,0-20.159,0.19-29.963,0.561v-26.318c0-0.847-0.137-1.69-0.405-2.494l-9.314-27.94
	c13.503,2.822,27.487,4.315,41.744,4.315c0.248,0,0.495-0.008,0.743-0.009L271.244,337.331z M460.44,205.914l-61.53-16.408
	c-4.21-1.128-8.528,1.38-9.651,5.587c-1.123,4.206,1.38,8.528,5.587,9.651l47.888,12.77c-6.952,3.923-14.197,7.328-21.727,10.214
	c-0.514-0.22-1.056-0.391-1.627-0.5l-88.312-16.821c-4.266-0.816-8.405,1.992-9.221,6.27c-0.816,4.278,1.992,8.406,6.27,9.221
	l58.353,11.115c-24.59,4.063-51.572,3.608-80.777-1.4c-47.285-8.106-81.035-31.053-100.315-68.206
	c-9.167-17.662-12.77-34.578-14.183-44.75l297.703,54.84C483.446,184.821,474.171,195.514,460.44,205.914z"/>
<path d="M111.967,50.464h-1.051c-4.356,0-7.885,3.529-7.885,7.885s3.529,7.885,7.885,7.885h1.051c4.356,0,7.885-3.529,7.885-7.885
	S116.323,50.464,111.967,50.464z"/>
<g>
</g>
<g>
</g>
<g>
</g>
<g>
</g>
<g>
</g>
<g>
</g>
<g>
</g>
<g>
</g>
<g>
</g>
<g>
</g>
<g>
</g>
<g>
</g>
<g>
</g>
<g>
</g>
<g>
</g>
</svg>
