<svg id="Capa_1" enable-background="new 0 0 512 512" height="512" viewBox="0 0 512 512" width="512" xmlns="http://www.w3.org/2000/svg"><g><g><path d="m512 396h-512v-16l11.667-16-11.667-16v-168c0-44.183 35.817-80 80-80h352c44.183 0 80 35.817 80 80v168l-15 16 15 16z" fill="#c8f5f0"/></g><g><path d="m32 420c0 13.255 10.745 24 24 24h96l38.333-16 33.667 16h80l44.334-16 43.666 16h64c13.255 0 24-10.745 24-24z" fill="#ffeacd"/></g><g><path d="m496 428h-480c-8.837 0-16-7.163-16-16h512c0 8.837-7.163 16-16 16z" fill="#ffd3ae"/></g><g><path d="m512 364-11-7.667h-489.333l-11.667 7.667v16h512z" fill="#a7d9ff"/></g><g><path d="m0 348h512v16h-512z" fill="#6bb2ff"/></g><g><path d="m384 284c10.499 0 19.732 5.126 25.567 12.936 4.026-3.055 8.989-4.936 14.433-4.936 13.255 0 24 10.745 24 24h-96c0-17.673 14.327-32 32-32z" fill="#fff"/></g><g><path d="m136 268c-10.499 0-19.732 5.126-25.567 12.936-4.026-3.055-8.989-4.936-14.433-4.936-13.255 0-24 10.745-24 24h96c0-17.673-14.327-32-32-32z" fill="#fff"/></g><g><path d="m368 180c-6.733 0-12.963 2.1-18.118 5.652-7.33-8.307-17.933-13.652-29.882-13.652-22.091 0-40 17.909-40 40h120c0-17.673-14.327-32-32-32z" fill="#fff"/></g><g><path d="m376 444 8-88-72-16 8 104" fill="#7c657c"/></g><g><path d="m160 252 8 192h40l8-192z" fill="#7c657c"/></g><g><path d="m264 76c-13.891 0-25.714 8.85-30.139 21.22-2.245 6.276-7.758 10.78-14.423 10.78h-11.438c-96 0-120 64-120 64v32h96c44.183 0 80-35.817 80-80 0-8.837 7.164-16 16-16h8v-8c0-13.255-10.745-24-24-24z" fill="#fff"/></g><g><path d="m216 108h-8c-96 0-120 64-120 64h96c17.673 0 32-14.327 32-32z" fill="#d1c9d1"/></g><g><path d="m392 444h-16v-81.583l-56-12.445v94.028h-16v-104c0-2.427 1.102-4.722 2.994-6.24 1.893-1.519 4.375-2.095 6.741-1.569l72 16c3.66.813 6.265 4.06 6.265 7.81z" fill="#503250"/></g><path d="m304 100h-8c0-17.645-14.355-32-32-32-16.856 0-31.996 10.659-37.672 26.526-1.189 3.325-3.894 5.474-6.891 5.474h-11.437c-52.104 0-83.855 18.501-101.315 34.021-19.259 17.119-25.902 34.441-26.176 35.17-.921 2.457-.579 5.209.916 7.366 1.494 2.156 3.951 3.443 6.575 3.443h96c4.418 0 8-3.582 8-8s-3.582-8-8-8h-82.497c3.566-5.317 8.899-11.99 16.479-18.609 22.333-19.502 52.619-29.391 90.018-29.391h11.438c9.843 0 18.461-6.314 21.956-16.085 3.405-9.52 12.49-15.915 22.606-15.915 8.822 0 16 7.177 16 16-13.234 0-24 10.766-24 24 0 39.701-32.299 72-72 72h-120c-4.418 0-8 3.582-8 8s3.582 8 8 8h112v32h-16c-4.418 0-8 3.582-8 8v192h16v-184h40v184h16v-192c0-4.418-3.582-8-8-8h-24v-32.368c44.788-4.055 80-41.806 80-87.632 0-4.411 3.589-8 8-8h24c4.418 0 8-3.582 8-8s-3.581-8-8-8z" fill="#503250"/></g></svg>