<svg id="Capa_1" enable-background="new 0 0 512 512" height="512" viewBox="0 0 512 512" width="512" xmlns="http://www.w3.org/2000/svg"><path d="m95.556 391.447c-2.105-4.557-4.747-8.862-7.716-12.905-10.954-14.919-28.142-29.104-47.831-27.041-16.748 1.756-32.509 15.052-32.509 32.708 0 6.453 1.897 12.764 5.454 18.148 15.174 22.965 40.861 36.781 68.386 36.781h17.444z" fill="#cb8956"/><path d="m81.34 409.138c-27.525 0-53.213-13.816-68.386-36.781-.575-.87-1.089-1.771-1.576-2.686-2.446 4.324-3.878 9.231-3.878 14.538 0 6.453 1.897 12.764 5.454 18.147 15.174 22.965 40.861 36.781 68.386 36.781h17.444l-2.031-30h-15.413z" fill="#9d602f"/><path d="m306.389 250.228c-7.717-20.181-16.618-41.41-26.51-61.504h90.994c9.105 18.492 17.191 35.916 24.258 52.331l-10.685 29.778h-49.534z" fill="#dedede"/><path d="m336.81 264.212c-1.948-5.625-22.313-64.249-26.643-65.489-.185 0-.103-.029 0 0l-26.625-2.415c8.302 17.519 15.949 35.881 22.847 53.92z" fill="#bcbac1"/><path d="m399.878 457.813c-20.676 18.803-47.875 28.801-75.822 28.801h-153.633c-42.944 0-77.753-34.809-77.753-77.753l234.648-98.691c-5.349-16.715-12.415-37.683-20.928-59.941 10.154 2.534 20.773 3.873 31.693 3.873 20.424 0 39.779-4.688 57.048-13.046 47.865 111.164 49.137 176.395 4.747 216.757z" fill="#cb8956"/><path d="m347.616 305.15c-2.775-13.877-6.173-27.564-10.806-40.937-.428-1.235-1.745-5.029-3.585-10.209-9.214-.337-18.195-1.619-26.836-3.775 8.513 22.258 15.58 43.226 20.928 59.941l-14.926 53.152c25.044-7.333 40.342-32.585 35.225-58.172z" fill="#9d602f"/><circle cx="338.079" cy="122.758" fill="#3dcdad" r="97.372"/><path d="m270.707 122.758c0-48.676 35.717-89.007 82.372-96.222-4.89-.756-9.899-1.15-15-1.15-53.777 0-97.372 43.595-97.372 97.372s43.595 97.372 97.372 97.372c5.101 0 10.11-.395 15-1.15-46.655-7.215-82.372-47.546-82.372-96.222z" fill="#1bad8e"/><path d="m265.018 426.284h-45.487l-47.254-118.969c12.765-8.659 26.918-16.133 42.488-21.637l57.348 60.728z" fill="#5889d8"/><path d="m183.792 336.306c17.495-11.639 35.943-19.974 55.201-24.972l-24.227-25.655c-.022.008-.044.015-.066.023-15.062 5.331-29.253 12.68-42.423 21.613z" fill="#245baf"/><path d="m219.531 426.284h-119.416c-10.668 0-17.492-11.348-12.493-20.773 13.473-25.403 41.051-68.668 84.655-98.196 16.628 21.326 40.604 61.086 47.254 118.969z" fill="#3dcdad"/><path d="m259.048 276.291c4.679-.369 9.455-.563 14.328-.563 41.575 0 75.288 33.703 75.288 75.278 0 29.859-17.385 55.66-42.594 67.823z" fill="#f5ea69"/><path d="m492.285 144.214c-15.276-4.291-41.665-15.892-60.148-46.708 0 0 2.043 18.102-21.291 37.304-5.53 4.551-8.758 11.323-8.758 18.485 0 13.199 10.7 23.898 23.898 23.898h61.703c9.284 0 16.81-7.526 16.81-16.81.001-7.517-4.978-14.136-12.214-16.169z" fill="#f5ea69"/><path d="m487.69 157.193h-61.703c-9.621 0-17.909-5.688-21.698-13.882-1.428 3.095-2.201 6.492-2.201 9.984 0 13.198 10.7 23.898 23.898 23.898h61.703c9.284 0 16.81-7.526 16.81-16.811 0-3.705-1.214-7.189-3.308-10.017-3.062 4.136-7.961 6.828-13.501 6.828z" fill="#eab657"/><ellipse cx="354.387" cy="140.901" fill="#ee9fa9" rx="35.625" ry="28.37"/><path d="m306.069 418.829c-9.882 4.776-20.977 7.455-32.693 7.455h-8.358c-2.611-73.667-34.45-121.328-50.253-140.606 13.658-4.824 28.403-8.134 44.283-9.387 17.055 22.171 46.099 70.386 47.021 142.538z" fill="#e05d7c"/><path d="m348.202 342.735c-1.906-17.433-9.919-33.618-22.621-45.94-19.284-18.707-40.185-22.834-66.142-20.531-.129.012-.259.022-.388.033l9.899 30.008c4.768-.38 9.577-.577 14.426-.577 27.598.001 51.718 14.86 64.826 37.007z" fill="#eab657"/><path d="m233.403 312.883c14.399-4.256 29.268-6.615 44.542-7.067-6.648-12.495-13.393-22.369-18.893-29.519-14.29 1.091-29.49 4.159-44.286 9.383 5.062 6.176 11.771 15.28 18.637 27.203z" fill="#d6375a"/><path d="m100.115 426.284h2.608c14.797-25.757 40.86-62.766 79.554-88.969 2.325-1.577 4.669-3.088 7.027-4.547-5.891-10.286-11.819-18.773-17.027-25.453-43.604 29.529-71.182 72.793-84.655 98.196-5.002 9.434 1.832 20.773 12.493 20.773z" fill="#1bad8e"/><path d="m380.002 90.556c-4.142 0-7.5 3.358-7.5 7.5v15.534c0 4.142 3.358 7.5 7.5 7.5s7.5-3.358 7.5-7.5v-15.534c0-4.142-3.357-7.5-7.5-7.5z"/><path d="m494.313 136.993c-13.239-3.719-37.909-14.193-55.263-42.569-12.634-45.121-53.972-76.538-100.97-76.538-57.827 0-104.872 47.045-104.872 104.872 0 37.329 19.608 70.159 49.061 88.748 9.42 21.015 17.756 42.372 25.532 64.248-16.541-7.596-31.148-8.373-49.342-6.939-52.87 4.169-85.522 29.844-90.387 32.29-.001 0-.002.001-.002.002-.001 0-.002.001-.002.001s-.001 0-.001.001c-9.154 6.2-18.152 13.362-26.742 21.289-3.044 2.809-3.235 7.554-.426 10.598s7.554 3.235 10.598.426c6.203-5.723 12.623-11.015 19.151-15.788 20.541 28.385 34.592 62.628 40.324 101.15-118.342-.027-111.457.254-113.353-.48-3.441-1.398-5.33-5.582-3.37-9.278 9.981-18.82 22.81-38.086 37.469-55.089 2.705-3.137 2.354-7.873-.783-10.578s-7.873-2.354-10.578.783c-9.671 11.217-17.826 22.47-24.52 32.731-13.047-19.194-33.627-35.239-56.609-32.831-19.283 2.021-39.228 17.597-39.228 40.167 0 7.947 2.316 15.652 6.697 22.282 16.609 25.139 44.513 40.146 74.644 40.146h12.687c14.135 28.405 43.598 47.476 76.396 47.476h153.633c30.341 0 59.061-10.921 80.867-30.751 10.285-9.351 18.367-20.132 24.021-32.044 1.776-3.742.183-8.215-3.559-9.991-3.741-1.776-8.215-.183-9.992 3.559-4.88 10.28-11.605 19.235-20.562 27.379-19.04 17.314-44.175 26.849-70.775 26.849h-153.634c-28.076 0-53.185-16.952-64.249-41.869l-.234-3.46h167.436c12.597 0 24.694-2.759 35.951-8.2h.001c52.474-25.313 63.629-96.896 18.958-136.508-3.338-9.907-6.741-19.582-10.165-28.91 24.134 3.483 49.594.666 73.104-9.134 27.209 64.743 37.405 111.699 32.056 147.346-.615 4.096 2.208 7.916 6.304 8.53 4.09.615 7.915-2.208 8.53-6.304 8.651-57.648-22.332-133.589-47.163-187.254 12.329-7.201 23.202-16.949 31.858-28.818 2.884.29.427.104 64.878.16 13.405 0 24.311-10.905 24.311-24.31.001-10.846-7.272-20.464-17.686-23.39zm-238.754 147.147c27.309 37.191 41.383 83.207 42.887 129.837-13.37 5.35-25.834 4.762-26.283 4.807-2.832-46.142-17.427-91.584-44.909-129.212 9.243-2.62 18.718-4.439 28.305-5.432zm-43.295 10.467c26.62 34.824 41.886 79.163 44.854 124.177h-30.982c-5.966-42.637-21.622-79.826-43.045-109.546 9.43-5.843 19.201-10.744 29.173-14.631zm-130.924 137.03c-25.079 0-48.304-12.492-62.129-33.416-2.755-4.169-4.211-9.014-4.211-14.012 0-12.973 12.491-25.408 28.862-25.408 17.814 0 34.834 17.05 43.159 32.361-1.421 2.439-6.134 10.65-7.167 13.359-3.623 9.505.011 19.954 7.971 25.455.143.558.302 1.108.456 1.662h-6.941zm231.77-25.73c-2.625-43.387-15.541-86.046-39.891-122.679 20.239 0 39.367 8.824 52.564 24.841 25.008 30.461 18.537 75.126-12.673 97.838zm64.377-185.943c2.73 5.905 5.341 11.685 7.808 17.287-23.183 9.619-48.983 11.826-73.334 6.573-2.949-7.613-5.942-15.037-8.959-22.221 24.455 8.669 51.488 7.844 74.485-1.639zm30.621-40.876c-8.404 10.453-18.951 18.75-30.273 24.279-59.01 29.165-129.628-13.73-129.628-80.609 0-49.555 40.316-89.872 89.872-89.872 40.352 0 75.846 27.009 86.601 65.786-.004 1.137-.186 4.333-1.851 8.725-4.965 13.096-16.543 21.066-19.582 24.267-5.539 5.819-8.66 13.511-8.66 21.631.001 10.219 4.999 19.85 13.521 25.793zm79.581-9.395h-61.703c-15.279 0-22.312-19.267-10.375-29.091 8.229-6.771 15.697-15.229 20.096-25.026 18.805 22.865 41.476 32.187 54.548 35.859 3.971 1.116 6.744 4.795 6.744 8.948.001 5.133-4.176 9.31-9.31 9.31z"/></svg>