<svg height="512pt" viewBox="0 -94 512.00036 512" width="512pt" xmlns="http://www.w3.org/2000/svg"><path d="m46.859375 204c2.941406-2.9375 8.914063-8.59375 14.867187-15.757812-1.574218-.242188-3.15625-.46875-4.71875-.726563-9.523437-1.558594-17.183593-7.878906-20.816406-16.1875-9.332031 4.617187-23.957031 13.542969-35.003906 28.136719-3.414062 4.507812 1.085938 10.761718 6.453125 8.988281 10.644531-3.515625 25.324219-6.757813 39.21875-4.453125zm0 0" fill="#6c9b1b"/><path d="m21.792969 199.46875c6.199219-8.191406 13.523437-14.597656 20.410156-19.457031-2.535156-2.480469-4.585937-5.425781-6.011719-8.683594-9.332031 4.617187-23.957031 13.546875-35.003906 28.140625-3.414062 4.503906 1.085938 10.757812 6.453125 8.984375 3.96875-1.308594 8.5-2.582031 13.34375-3.542969-.640625-1.703125-.511719-3.703125.808594-5.441406zm0 0" fill="#618913"/><path d="m297.820312 255.867188c5.441407 11.636718 11.984376 31.769531 13.957032 54.34375.671875 7.652343 7.046875 13.542968 14.730468 13.542968h33.183594c8.382813 0 15.109375-6.957031 14.777344-15.332031-.703125-17.757813-4-50.15625-17.121094-77.609375-14.246094 12.683594-33.457031 22.453125-59.527344 25.054688zm0 0" fill="#6c9b1b"/><path d="m333.929688 310.210938c-1.203126-13.734376-4.09375-26.5625-7.402344-37.128907-2.761719-8.824219 2.511718-18.070312 11.46875-20.378906 9.128906-2.355469 17.234375-5.695313 24.441406-9.734375-1.507812-4.117188-3.195312-8.1875-5.089844-12.15625-14.246094 12.679688-33.457031 22.453125-59.527344 25.054688 5.441407 11.636718 11.988282 31.777343 13.960938 54.355468.667969 7.648438 7.046875 13.527344 14.726562 13.527344h22.148438c-7.679688.003906-14.058594-5.886719-14.726562-13.539062zm0 0" fill="#618913"/><path d="m511.929688 91.917969c-3.75-17.960938-27.03125-99.691407-101.710938-91.316407-61.738281 6.921876-78.007812 59.203126-78.007812 59.203126-8.320313 19.503906-17.898438 51.355468-17.707032 94.308593.023438 5.710938-3.59375 10.820313-9.019531 12.589844-75.25 24.59375-164.550781 33.894531-245.160156 21.578125-3.523438 4.242188-7.925781 8.96875-13.386719 14.25-31.796875 30.71875-38.523438 79.566406-39.773438 104.851562-.441406 8.902344 6.625 16.367188 15.539063 16.367188h27.046875c9.125 0 16.664062-7.046875 17.371094-16.144531 1.496094-19.207031 5.457031-32.96875 8.855468-41.667969 2.527344-6.464844 9.558594-9.90625 16.261719-8.109375 39.539063 10.589844 77.875 1.671875 92.761719-2.734375 2.8125-.835938 5.488281 1.675781 4.835938 4.539062-4.167969 18.253907-5.097657 35.589844-5.074219 47.621094.015625 9.121094 7.417969 16.496094 16.539062 16.496094h32.914063c9.902344 0 18.152344-7.601562 18.964844-17.46875.925781-11.207031 2.65625-20.359375 4.527343-27.542969 3.085938-11.851562 13.777344-20.117187 26.019531-20.117187 92.609376 0 109.230469-83.632813 115.253907-103.960938 6.023437-20.332031 21.082031-22.589844 53.457031-22.589844s39.152344-36.140624 39.152344-36.140624h17.0625c2.117187 0 3.707031-1.941407 3.277344-4.011719zm0 0" fill="#76ab29"/><path d="m27.792969 307.382812c1.253906-25.285156 7.976562-74.132812 39.773437-104.851562 4.445313-4.296875 8.175782-8.222656 11.3125-11.820312-6.277344-.695313-12.472656-1.5-18.554687-2.429688-3.523438 4.242188-7.925781 8.96875-13.390625 14.25-31.792969 30.71875-38.519532 79.566406-39.769532 104.851562-.441406 8.902344 6.625 16.367188 15.539063 16.367188h20.628906c-8.914062.003906-15.980469-7.464844-15.539062-16.367188zm0 0" fill="#6c9b1b"/><path d="m205.390625 307.253906c-.023437-12.03125.90625-29.367187 5.078125-47.621094.652344-2.859374-2.027344-5.371093-4.839844-4.539062-3.816406 1.128906-9.179687 2.554688-15.703125 3.875-.011719.21875-.039062.4375-.089843.664062-4.167969 18.253907-5.097657 35.589844-5.074219 47.621094.015625 9.121094 7.421875 16.5 16.542969 16.5h20.628906c-9.121094 0-16.523438-7.378906-16.542969-16.5zm0 0" fill="#6c9b1b"/><path d="m410.21875.601562c-61.738281 6.921876-78.007812 59.203126-78.007812 59.203126-8.320313 19.503906-17.898438 51.355468-17.710938 94.308593.027344 5.710938-3.589844 10.820313-9.015625 12.589844 0 0 11.539063-2.824219 23.257813-9.285156 3.9375-2.171875 6.359374-6.308594 6.460937-10.804688.871094-39.171875 9.808594-68.457031 17.636719-86.808593 0 0 16.257812-52.242188 77.941406-59.195313-6.378906-.773437-13.21875-.832031-20.5625-.007813zm0 0" fill="#6c9b1b"/><path d="m332.210938 59.804688c-36.660157-40.226563-91.734376-62.488282-149.796876-54.902344-80.914062 10.570312-141.332031 75.664062-149.152343 153.492187-1.417969 14.101563 8.464843 26.890625 22.449219 29.179688 79.992187 13.101562 171.304687 4.777343 249.773437-20.867188 5.40625-1.769531 9.042969-6.847656 9.019531-12.539062-.199218-42.980469 9.382813-74.851563 17.707032-94.363281zm0 0" fill="#a0634a"/><path d="m53.953125 165.105469c7.152344-71.148438 53.824219-132.714844 120.1875-158.914063-76.730469 13.78125-133.328125 77.050782-140.878906 152.203125-1.417969 14.101563 8.464843 26.890625 22.449219 29.179688 2.070312.339843 4.164062.648437 6.253906.960937-5.742188-6.09375-8.90625-14.523437-8.011719-23.429687zm0 0" fill="#915039"/><path d="m491.589844 95.929688h-31.898438c-4.269531 0-7.726562 3.460937-7.726562 7.730468 0 4.265625 3.457031 7.726563 7.726562 7.726563h26.011719c4.496094-8.085938 5.886719-15.457031 5.886719-15.457031zm0 0" fill="#6c9b1b"/><path d="m458.40625 55.335938c0 6.238281-5.058594 11.292968-11.292969 11.292968-6.238281 0-11.296875-5.054687-11.296875-11.292968 0-6.238282 5.058594-11.292969 11.296875-11.292969 6.234375 0 11.292969 5.054687 11.292969 11.292969zm0 0" fill="#525468"/><path d="m121.707031 24.730469 21.523438 37.28125c1.390625 2.410156 3.964843 3.894531 6.746093 3.894531h52.085938c2.785156 0 5.355469-1.484375 6.75-3.894531l26.042969-45.105469c1.390625-2.414062 1.390625-5.382812 0-7.792969l-1.949219-3.371093c-37.714844-6.238282-77.105469.230468-111.199219 18.988281zm0 0" fill="#ba7861"/><path d="m126.703125 33.386719c14.253906-11.148438 30.171875-20.378907 47.4375-27.195313-18.339844 3.292969-36.03125 9.527344-52.433594 18.542969zm0 0" fill="#a0634a"/><g fill="#ba7861"><path d="m208.265625 94.488281c-1.390625-2.410156-3.964844-3.894531-6.75-3.894531h-52.082031c-2.785156 0-5.359375 1.484375-6.75 3.894531l-26.042969 45.109375c-1.390625 2.410156-1.390625 5.378906 0 7.792969 28.027344 48.542969 26.070313 45.300781 26.839844 46.214844 23.078125-.410157 45.355469-2.238281 67.175781-5.253907l23.648438-40.960937c1.394531-2.414063 1.394531-5.382813 0-7.792969zm0 0"/><path d="m315.371094 130.925781c2.523437-31.378906 10.09375-55.308593 16.839844-71.121093-12.519532-13.738282-27.191407-25.378907-43.394532-34.453126h-27.335937c-2.78125 0-5.355469 1.484376-6.746094 3.894532l-26.042969 45.109375c-1.394531 2.410156-1.394531 5.378906 0 7.792969l26.042969 45.105468c1.390625 2.410156 3.964844 3.894532 6.746094 3.894532 56.355469 0 52.550781.097656 53.890625-.222657zm0 0"/><path d="m260.9375 155.835938c-2.785156 0-5.359375 1.484374-6.75 3.894531l-13.679688 23.691406c22.691407-4.371094 44.441407-10.003906 64.972657-16.714844 4.832031-1.578125 8.242187-5.800781 8.898437-10.738281-1.078125-.191406 3.121094-.132812-53.441406-.132812zm0 0"/><path d="m38.261719 131.148438h50.925781c2.785156 0 5.355469-1.484376 6.75-3.894532l26.039062-45.105468c1.394532-2.410157 1.394532-5.382813 0-7.792969l-20.925781-36.25c-30.511719 23.027343-52.792969 55.800781-62.789062 93.042969zm0 0"/></g><path d="m101.050781 38.109375c-31.699219 24.015625-53.117187 57.011719-62.789062 93.039063h22.285156c8.898437-30.691407 25.332031-58.515626 47.433594-81.035157zm0 0" fill="#a0634a"/><path d="m95.390625 159.734375c-1.390625-2.414063-3.964844-3.898437-6.75-3.898437-56.617187 0-53.070313-.261719-55.167969.644531-1.910156 17.085937 8.882813 28.90625 22.238282 31.09375 18.769531 3.074219 38.554687 5.015625 59.085937 5.769531zm0 0" fill="#ba7861"/><path d="m61.964844 188.535156c-5.742188-6.09375-8.90625-14.527344-8.011719-23.429687.3125-3.109375.730469-6.195313 1.191406-9.269531-20.339843 0-19.6875-.210938-21.671875.644531-.1875 1.703125-.433594 3.367187-.320312 5.839843.578125 12.480469 9.886718 23.179688 22.558594 25.253907 2.066406.339843 4.195312.652343 6.253906.960937zm0 0" fill="#a0634a"/></svg>