<svg height="512" viewBox="0 0 512 512" width="512" xmlns="http://www.w3.org/2000/svg"><g id="flat"><g fill="#029532"><path d="m312 152 11.918-9.535a102.524 102.524 0 0 1 64.044-22.465 60.112 60.112 0 0 1 36.068 12.023 60.116 60.116 0 0 1 21.6 31.128l34.37 116.849a62.515 62.515 0 0 1 -56.762-36.318l-26.687-57.821a16.974 16.974 0 0 0 -15.412-9.861 16.971 16.971 0 0 0 -9.415 2.851l-26.867 18.449z"/><path d="m200 152-11.918-9.535a102.524 102.524 0 0 0 -64.044-22.465 60.112 60.112 0 0 0 -36.068 12.023 60.116 60.116 0 0 0 -21.6 31.128l-34.37 116.849a62.515 62.515 0 0 0 56.762-36.318l26.687-57.821a16.974 16.974 0 0 1 15.412-9.861 16.971 16.971 0 0 1 9.415 2.851l23.691 16.288z"/><path d="m331.43 357.742 33.849 30.894a46 46 0 0 1 14.564 27.727l7.518 54.832-1.666.229a62 62 0 0 1 -59.595-26.424l-.4-.587a62 62 0 0 1 -10.251-26.581l-3.449-25.127-1.733-9.478z"/><path d="m344 424v37a7.44 7.44 0 0 1 -.1 1.25 61.687 61.687 0 0 1 -15.9-14.63v-23.62a8 8 0 0 1 16 0z"/><path d="m368 440v31c0 .1 0 .2-.01.3a61.8 61.8 0 0 1 -15.99-4.69v-26.61a8 8 0 0 1 16 0z"/><path d="m180.57 357.742-33.849 30.894a46 46 0 0 0 -14.564 27.727l-7.518 54.837 1.666.229a62 62 0 0 0 59.595-26.429l.4-.587a62 62 0 0 0 10.251-26.581l3.449-25.127 1.252-8.543z"/><path d="m160 440v26.61a61.65 61.65 0 0 1 -15.9 4.68 9.1 9.1 0 0 1 -.1-1.29v-30a8 8 0 0 1 16 0z"/><path d="m184 424v23.62a61.656 61.656 0 0 1 -16 14.69v-38.31a8 8 0 0 1 16 0z"/><path d="m256 32a19.315 19.315 0 0 0 -13.657 5.657l-12.2 12.2a48.284 48.284 0 0 0 -14.143 34.143 48.284 48.284 0 0 0 14.142 34.142 4.252 4.252 0 0 1 1.027 4.351l-7.169 21.507-9.13 24 76.8-12-10.843-33.507a4.252 4.252 0 0 1 1.027-4.351 48.284 48.284 0 0 0 14.146-34.142 48.284 48.284 0 0 0 -14.142-34.142l-12.2-12.2a19.315 19.315 0 0 0 -13.658-5.658z"/></g><path d="m324.927 161.439a75.241 75.241 0 0 0 -48.168-17.439h-41.518a75.241 75.241 0 0 0 -48.168 17.439 75.241 75.241 0 0 0 -27.073 57.802v79.718a119.873 119.873 0 0 0 29.66 78.941 88.151 88.151 0 0 0 66.34 30.1 88.151 88.151 0 0 0 66.34-30.1 119.873 119.873 0 0 0 29.66-78.941v-79.718a75.241 75.241 0 0 0 -27.073-57.802z" fill="#6e3f0d"/><path d="m306.125 197.9a60.431 60.431 0 0 0 -46.554-21.9h-7.142a60.431 60.431 0 0 0 -46.554 21.9 60.431 60.431 0 0 0 -13.875 38.529v59.909a80.922 80.922 0 0 0 14.1 45.637l8.2 12a50.5 50.5 0 0 0 83.412 0l8.2-12a80.922 80.922 0 0 0 14.088-45.637v-59.909a60.431 60.431 0 0 0 -13.875-38.529z" fill="#7c470f"/><path d="m312.288 192.8a68.515 68.515 0 0 0 -17.047-14.79 7.982 7.982 0 0 0 -2.113-1.349c-.221-.1-.444-.176-.668-.251a68.288 68.288 0 0 0 -32.889-8.41h-7.142a68.43 68.43 0 0 0 -68.429 68.429v59.909a88.564 88.564 0 0 0 15.49 50.148l8.2 12a58.5 58.5 0 0 0 96.624 0l8.2-12a88.564 88.564 0 0 0 15.486-50.148v-59.909a68.574 68.574 0 0 0 -15.712-43.629zm-112.288 103.538v-40.338h17.44l12.3 21.3-12.9 22.343-16.463 4.026c-.243-2.423-.377-4.869-.377-7.331zm43.544-10.944h24.912l12.244 21.212-12.348 21.394h-24.7l-12.352-21.394zm-12.244-37.394 12.351-21.394h24.7l12.349 21.394-12.246 21.212h-24.911zm80.37 55.208-16.826-4.114-12.583-21.794 12.3-21.3h17.439v40.338c0 2.305-.12 4.596-.333 6.87zm.33-66.779v3.571h-17.44l-11.538-19.985 10.294-23.7a52.347 52.347 0 0 1 18.684 40.114zm-52.429-52.429a52.429 52.429 0 0 1 19.942 3.929l-9.849 22.677h-25.387l-10.125-23.313a52.444 52.444 0 0 1 18.277-3.293zm-59.571 52.429a52.448 52.448 0 0 1 20.116-41.29l9.97 22.958-12.646 21.903h-17.44zm12.7 101.034a72.911 72.911 0 0 1 -8.985-18.136l14.413-3.524 11.564 20.03-8.656 13.823c-.045-.065-.094-.125-.138-.189zm20.066 23.607 10.693-17.07h27.023l10.118 16.15a42.431 42.431 0 0 1 -47.827.92zm66.534-23.607-7.319 10.717-8.742-13.96 10.873-18.833 14.318 3.5a72.872 72.872 0 0 1 -9.13 18.576z" fill="#533222"/><path d="m376 122v22a8 8 0 0 1 -16 0v-20.1a99.472 99.472 0 0 1 15.9-3.18 7.714 7.714 0 0 1 .1 1.28z" fill="#029532"/><path d="m408 123.43v20.57a8 8 0 0 1 -16 0v-22a8.009 8.009 0 0 1 .21-1.85h.01a60.484 60.484 0 0 1 14.75 2.93c.34.12.69.23 1.03.35z" fill="#029532"/><path d="m440 150.01v17.99a8 8 0 0 1 -16 0v-36c.01.01.02.01.03.02a60.013 60.013 0 0 1 13.32 13.82q1.41 2.025 2.65 4.17z" fill="#029532"/><path d="m448 240v31.18c-.57-.33-1.13-.68-1.69-1.04a62.094 62.094 0 0 1 -14.31-12.62v-17.52a8 8 0 0 1 16 0z" fill="#029532"/><path d="m80 240v17.52a62.094 62.094 0 0 1 -14.31 12.62c-.56.36-1.12.71-1.69 1.04v-31.18a8 8 0 0 1 16 0z" fill="#029532"/><path d="m87.24 132.59a7.958 7.958 0 0 1 .76 3.41v32a8 8 0 0 1 -16 0v-17.99q1.245-2.145 2.65-4.17a59.712 59.712 0 0 1 12.59-13.25z" fill="#029532"/><path d="m105.03 123.08a60.367 60.367 0 0 1 14.97-2.94v23.86a8 8 0 0 1 -16 0v-20.57c.34-.12.69-.23 1.03-.35z" fill="#029532"/><path d="m152 123.9v20.1a8 8 0 0 1 -16 0v-23.29a100.7 100.7 0 0 1 16 3.19z" fill="#029532"/><circle cx="240" cy="72" fill="#533222" r="8"/><circle cx="272" cy="72" fill="#533222" r="8"/><g fill="#027e2a"><path d="m152 123.9v20.1a8 8 0 0 1 -16 0v-23.29a100.7 100.7 0 0 1 16 3.19z"/><path d="m120 120.14v23.86a8 8 0 0 1 -16 0v-20.57c.34-.12.69-.23 1.03-.35a60.367 60.367 0 0 1 14.97-2.94z"/><path d="m80 240v17.52a62.094 62.094 0 0 1 -14.31 12.62c-.56.36-1.12.71-1.69 1.04v-31.18a8 8 0 0 1 16 0z"/><path d="m448 240v31.18c-.57-.33-1.13-.68-1.69-1.04a62.094 62.094 0 0 1 -14.31-12.62v-17.52a8 8 0 0 1 16 0z"/><path d="m88 136v32a8 8 0 0 1 -16 0v-17.99q1.245-2.145 2.65-4.17a59.712 59.712 0 0 1 12.59-13.25 7.958 7.958 0 0 1 .76 3.41z"/><path d="m440 150.01v17.99a8 8 0 0 1 -16 0v-36c.01.01.02.01.03.02a60.013 60.013 0 0 1 13.32 13.82q1.41 2.025 2.65 4.17z"/><path d="m408 123.43v20.57a8 8 0 0 1 -16 0v-22a8.009 8.009 0 0 1 .21-1.85h.01a60.484 60.484 0 0 1 14.75 2.93c.34.12.69.23 1.03.35z"/><path d="m376 122v22a8 8 0 0 1 -16 0v-20.1a99.472 99.472 0 0 1 15.9-3.18 7.714 7.714 0 0 1 .1 1.28z"/><path d="m160 440v26.61a61.65 61.65 0 0 1 -15.9 4.68 9.1 9.1 0 0 1 -.1-1.29v-30a8 8 0 0 1 16 0z"/><path d="m184 424v23.62a61.656 61.656 0 0 1 -16 14.69v-38.31a8 8 0 0 1 16 0z"/><path d="m368 440v31c0 .1 0 .2-.01.3a61.8 61.8 0 0 1 -15.99-4.69v-26.61a8 8 0 0 1 16 0z"/><path d="m344 424v37a7.44 7.44 0 0 1 -.1 1.25 61.687 61.687 0 0 1 -15.9-14.63v-23.62a8 8 0 0 1 16 0z"/></g><path d="m256 416a96.146 96.146 0 0 1 -72.361-32.836 127.831 127.831 0 0 1 -31.639-84.205v-79.718a83.241 83.241 0 0 1 83.241-83.241h41.518a83.241 83.241 0 0 1 83.241 83.241v79.718a127.835 127.835 0 0 1 -31.639 84.206 96.149 96.149 0 0 1 -72.361 32.835zm-20.759-264a67.24 67.24 0 0 0 -67.241 67.241v79.718a111.843 111.843 0 0 0 27.68 73.669 80.151 80.151 0 0 0 120.64 0 111.847 111.847 0 0 0 27.68-73.669v-79.718a67.06 67.06 0 0 0 -24.194-51.656 67.368 67.368 0 0 0 -43.047-15.585z" fill="#533222"/><path d="m192 256h-32a8 8 0 0 1 0-16h32a8 8 0 0 1 0 16z" fill="#533222"/><path d="m168.006 336a8 8 0 0 1 -3.584-15.157l32-16a8 8 0 1 1 7.156 14.31l-32 16a7.976 7.976 0 0 1 -3.572.847z" fill="#533222"/><path d="m199.994 392c-1.671 0-3.355 1.079-4.794 0-3.534-2.651-4.251-1.266-1.6-4.8l24-32a8 8 0 1 1 12.8 9.6l-24 32c-1.571 2.1-3.974-4.8-6.406-4.8z" fill="#533222"/><path d="m224.006 192a8 8 0 0 1 -7.161-4.424l-16-32a8 8 0 0 1 14.31-7.156l16 32a8 8 0 0 1 -7.149 11.58z" fill="#533222"/><path d="m352 256h-32a8 8 0 0 1 0-16h32a8 8 0 0 1 0 16z" fill="#533222"/><path d="m343.994 336a7.976 7.976 0 0 1 -3.572-.847l-32-16a8 8 0 0 1 7.156-14.31l32 16a8 8 0 0 1 -3.584 15.157z" fill="#533222"/><path d="m312.006 392c-2.432 0-4.834 6.9-6.406 4.8l-24-32a8 8 0 0 1 12.8-9.6l24 32c2.651 3.534 1.934 2.149-1.6 4.8-1.439 1.079-3.124 0-4.794 0z" fill="#533222"/><path d="m287.994 192a8 8 0 0 1 -7.149-11.58l16-32a8 8 0 1 1 14.31 7.156l-16 32a8 8 0 0 1 -7.161 4.424z" fill="#533222"/></g></svg>