<svg id="Capa_1" enable-background="new 0 0 512 512" height="512" viewBox="0 0 512 512" width="512" xmlns="http://www.w3.org/2000/svg"><g><g><path d="m375.403 247.776c-11.918 0-20.631 25.446-46.902 25.447-14.136.001-56.796-.286-56.796-.286 28.008-17.094 46.27-46.163 46.27-83.198 0-60.891-40.208-120.253-110.253-120.253-34.473 0-61.712 14.384-80.495 36.246-11.974 19.073-21.758 49.132-21.758 84.007 0 38.659 26.605 68.36 58.759 83.881 3.991 1.927 4.183 9.607.306 11.934-41.137 24.677-60.348 50.748-60.348 89.721 0 42.622 35.649 74.002 83.536 74.002h150c30.496 0 61.862-14.33 85.578-28.5 15.424-16.991 24.675-38.661 24.675-62.268 0-64.842-54.615-110.733-72.572-110.733z" fill="#ffe07d"/><path d="m187.723 442.277c-42.554 0-76.536-29.713-76.536-67.002 0-31.459 16.067-65.044 72.807-89.721 5.349-2.326 5.083-10.007-.422-11.934-44.352-15.521-71.102-45.223-71.102-83.881 0-34.875 5.078-62.662 14.758-84.007-19.382 22.56-29.758 53.083-29.758 84.007 0 43.537 25.238 76.063 61.879 91.069-47.318 28.155-63.162 60.036-63.162 94.467 0 45.288 40.982 82.002 91.536 82.002h150c34.539 0 65.362-14.231 85.578-36.5-23.716 14.17-55.081 21.5-85.578 21.5-28.97 0-125.949 0-150 0z" fill="#ffc250"/><path d="m441.179 196.945c0-7.326 2.099-14.158 5.718-19.943-10.638 6.656-17.718 18.469-17.718 31.943 0 20.799 16.861 37.66 37.66 37.66 13.473 0 25.287-7.08 31.942-17.718-5.784 3.619-12.617 5.718-19.942 5.718-20.798 0-37.66-16.861-37.66-37.66z" fill="#d3effd"/><path d="m79.1 409.251c0-10.232 3.201-19.712 8.643-27.512-12.475 8.702-20.643 23.149-20.643 39.512 0 26.595 21.56 48.155 48.155 48.155 16.363 0 30.81-8.168 39.512-20.642-7.8 5.442-17.28 8.642-27.512 8.642-26.596 0-48.155-21.56-48.155-48.155z" fill="#d3effd"/><path d="m321.351 379.407c0-2.31.417-4.517 1.147-6.577-7.655 2.711-13.147 9.993-13.147 18.577 0 10.893 8.831 19.724 19.724 19.724 8.583 0 15.866-5.493 18.577-13.147-2.06.73-4.267 1.147-6.577 1.147-10.893 0-19.724-8.831-19.724-19.724z" fill="#fff0af"/><path d="m447.816 358.282c.103.146.159.227.159.227l-50.338 82.91c9.875 9.926 29.125 15.859 44.233 15.859 11.994 0 25.841-6.119 33.788-14.854 6.563-9.002 10.445-20.084 10.445-32.078 0-24.458-16.104-45.154-38.287-52.064z" fill="#e6f7fe"/><path d="m423.3 420.777c15.424-16.991 24.675-38.661 24.675-62.268 0 0-.056-.081-.159-.227-5.128-1.598-10.582-2.459-16.236-2.459-11.993 0-23.075 3.882-32.078 10.445-8.51 7.69-15.192 20.87-15.192 32.863 0 15.005 5.617 29.839 20.618 37.664 6.793-4.688 12.965-10.062 18.372-16.018z" fill="#fff6cf"/><path d="m443.58 452.868c-15.108 0-28.778-6.147-38.652-16.073l-15.001 8.716c10.001 11.834 24.945 19.357 41.653 19.357 18.118 0 34.164-8.845 44.078-22.445-9.002 6.563-20.084 10.445-32.078 10.445z" fill="#d3effd"/><path d="m389.058 398.345c0-11.994 3.882-23.075 10.445-32.078-13.6 9.914-22.445 25.959-22.445 44.078 0 13.404 4.846 25.671 12.87 35.165 5.273-2.545 10.288-5.463 15.001-8.716-9.808-9.857-15.871-23.444-15.871-38.449z" fill="#fff0af"/><path d="m466.84 171.285c-7.326 0-14.158 2.099-19.943 5.718-3.619 5.784-5.718 12.617-5.718 19.943 0 20.799 16.861 37.66 37.66 37.66 7.326 0 14.158-2.099 19.942-5.718 3.619-5.784 5.718-12.617 5.718-19.943.001-20.799-16.86-37.66-37.659-37.66z" fill="#e6f7fe"/><path d="m115.254 373.097c-10.232 0-19.712 3.201-27.512 8.643-5.442 7.8-8.643 17.28-8.643 27.512 0 26.595 21.56 48.155 48.155 48.155 10.232 0 19.712-3.201 27.512-8.642 5.442-7.8 8.643-17.28 8.643-27.512 0-26.597-21.56-48.156-48.155-48.156z" fill="#e6f7fe"/><path d="m202.226 457.277c-6.063 0-11.042 0-14.503 0 0 16.569 13.432 30 30 30 11.37 0 21.262-6.326 26.35-15.65-4.263 2.326-9.152 3.65-14.35 3.65-12.301 0-22.867-7.406-27.497-18z" fill="#d3effd"/><path d="m199.723 445.277c0-5.198 1.323-10.087 3.65-14.35-9.324 5.088-15.65 14.98-15.65 26.35h14.503c-1.606-3.676-2.503-7.732-2.503-12z" fill="#fff0af"/><path d="m329.075 371.683c-2.31 0-4.517.418-6.577 1.147-.73 2.06-1.147 4.267-1.147 6.577 0 10.893 8.831 19.724 19.724 19.724 2.31 0 4.517-.418 6.577-1.147.729-2.06 1.147-4.267 1.147-6.577 0-10.893-8.831-19.724-19.724-19.724z" fill="#fff6cf"/><path d="m229.723 475.277c5.198 0 10.087-1.323 14.35-3.65 2.326-4.263 3.65-9.152 3.65-14.35-17.265 0-33.51 0-45.497 0 4.63 10.594 15.196 18 27.497 18z" fill="#e6f7fe"/><path d="m217.723 427.277c-5.198 0-10.087 1.323-14.35 3.65-2.326 4.263-3.65 9.152-3.65 14.35 0 4.268.897 8.324 2.503 12h45.497c0-16.569-13.432-30-30-30z" fill="#fff6cf"/><path d="m147.22 222.323c-21.888 0-49.75-17.445-49.75-32.584 0 0-12.238 13.887-46.371 18.199-2.671.337-4.922 1.445-6.665 3.017 5.672 14.5 30.272 33.566 87.256 33.566 17.526 0 31.802-7.197 31.802-7.197-.015-7.501-5.455-15.001-16.272-15.001z" fill="#ffb3b7"/><path d="m44.434 210.955c-5.087 4.587-5.826 13.154.131 18.274 14.927 12.832 44.58 23.094 102.655 23.094 10.879 0 16.288-7.5 16.272-15-5.42 0-11.037 0-16.272 0-56.984 0-87.555-13.73-102.786-26.368z" fill="#ff9a9f"/><path d="m22.5 326.407c-1.515 0-2.975.229-4.353.647-3.277 3.277-7.525 13.682-1.376 19.831s17.176 1.781 20.082-1.125c.418-1.378.647-2.839.647-4.353 0-8.284-6.716-15-15-15z" fill="#e6f7fe"/><path d="m17.5 331.407c0-1.515.229-2.975.647-4.353-6.161 1.866-10.647 7.583-10.647 14.353 0 8.284 6.716 15 15 15 6.77 0 12.487-4.486 14.353-10.647-1.378.418-2.839.647-4.353.647-8.284 0-15-6.716-15-15z" fill="#d3effd"/><path d="m333.817 24.723c-1.515 0-2.975.229-4.353.647-3.277 3.277-7.525 13.682-1.376 19.831s17.177 1.781 20.082-1.125c.418-1.378.647-2.839.647-4.353 0-8.284-6.716-15-15-15z" fill="#e6f7fe"/><path d="m328.817 29.723c0-1.515.229-2.975.647-4.353-6.16 1.866-10.647 7.583-10.647 14.353 0 8.284 6.716 15 15 15 6.77 0 12.487-4.486 14.353-10.647-1.378.418-2.839.647-4.353.647-8.284 0-15-6.716-15-15z" fill="#d3effd"/><path d="m96.211 377.027c-2.99 1.292-5.828 2.87-8.469 4.712-7.263 8.213-13.642 22.28-13.642 32.512 0 26.595 21.56 48.155 48.155 48.155 8.835 0 23.624-5 30.707-11.222.007-.008.013-.017.019-.025z" fill="#e6f7fe"/><path d="m79.1 409.251c0-10.232 3.201-19.712 8.642-27.512-12.474 8.702-20.642 23.149-20.642 39.512 0 26.595 21.56 48.155 48.155 48.155 15.279 0 28.886-7.124 37.707-18.222-7.122 4.152-16.872 6.222-25.707 6.222-26.596 0-48.155-21.56-48.155-48.155z" fill="#d3effd"/><path d="m115.254 373.097c-6.767 0-13.202 1.408-19.043 3.93.784 33.516 24.015 62.083 56.77 74.131 6.522-8.216 10.428-18.602 10.428-29.907 0-26.595-21.56-48.154-48.155-48.154z" fill="#fff6cf"/></g><g><path d="m217.723 494.777c-18.183 0-33.384-13.008-36.788-30.206-8.778-.535-17.367-2.109-25.642-4.7-10.129 10.497-24.335 17.035-40.039 17.035-30.688 0-55.654-24.966-55.654-55.654 0-21.089 11.79-39.476 29.124-48.915.928-36.124 19.05-65.891 55.236-90.614-11.056-6.146-20.854-13.968-28.836-23.067-35.377-2.796-60.206-10.635-75.449-23.739-5.948-5.114-8.237-12.966-5.974-20.492 2.285-7.597 8.591-12.933 16.458-13.927 23.435-2.96 35.521-10.708 39.851-14.128.74-31.388 11.789-61.986 30.57-84.406 21.907-26.152 52.041-39.976 87.143-39.976 15.128 0 29.507 2.625 42.737 7.802 3.856 1.509 5.761 5.86 4.251 9.717-1.509 3.857-5.86 5.761-9.717 4.251-11.482-4.493-24.021-6.771-37.271-6.771-38.559 0-62.418 18.82-75.644 34.608-17.229 20.566-27.109 49.049-27.109 78.144 0 3.553 4.091 9.774 13.23 15.666 9.013 5.81 20.133 9.419 29.02 9.419 15.606 0 23.772 11.335 23.772 22.532 0 5.879-2.19 11.385-6.168 15.503-3.069 3.177-8.614 6.965-17.604 6.965-3.152 0-6.243-.029-9.271-.087 7.182 5.711 15.365 10.496 24.242 14.131 2.631 1.078 4.427 3.55 4.637 6.386s-1.201 5.546-3.645 7c-37.312 22.201-56.3 47.629-59.125 79.474 3.617-.742 7.361-1.131 11.195-1.131 30.688 0 55.655 24.967 55.655 55.655 0 9.255-2.271 17.99-6.285 25.676 5.343 1.354 10.823 2.228 16.4 2.617 3.573-16.98 18.671-29.768 36.698-29.768 18.109 0 33.262 12.905 36.747 30h83.253c14.224 0 27.894-2.504 40.731-7.452-5.646-9.344-8.896-20.289-8.896-31.98 0-34.199 27.823-62.022 62.022-62.022 2.87 0 5.695.196 8.463.575-2.016-22.386-10.703-40.537-18.138-52.359-2.205-3.507-1.15-8.137 2.356-10.342 3.505-2.204 8.137-1.149 10.341 2.356 12.624 20.076 19.746 42.266 20.75 64.505 22.438 9.345 38.251 31.503 38.251 57.287 0 34.2-27.823 62.023-62.023 62.023-16.899 0-32.241-6.793-43.438-17.792-15.798 6.771-32.744 10.201-50.419 10.201h-83.251c-3.486 17.095-18.638 30-36.747 30zm0-60c-12.406 0-22.5 10.093-22.5 22.5s10.094 22.5 22.5 22.5c9.778 0 18.119-6.27 21.215-15h-21.215c-4.143 0-7.5-3.358-7.5-7.5s3.357-7.5 7.5-7.5h21.215c-3.096-8.731-11.437-15-21.215-15zm-127.788-45.312c-9.34 7.455-15.335 18.935-15.335 31.786 0 22.417 18.237 40.654 40.654 40.654s40.655-18.237 40.655-40.654-18.238-40.655-40.655-40.655c-3.886 0-7.646.548-11.207 1.57 1.983 18.886 12.06 36.511 28.323 49.151 3.271 2.542 3.861 7.254 1.319 10.524s-7.255 3.861-10.524 1.319c-17.893-13.904-29.555-32.955-33.23-53.695zm341.645-26.142c-25.929 0-47.022 21.094-47.022 47.022 0 25.929 21.094 47.023 47.022 47.023s47.023-21.094 47.023-47.023c0-17.465-9.57-32.736-23.742-40.845-2.795 24.836-15.047 47.722-35.201 65.343-3.117 2.727-7.855 2.41-10.583-.709-2.727-3.118-2.408-7.856.71-10.583 18.276-15.98 28.97-36.905 30.498-59.421-2.821-.53-5.731-.807-8.705-.807zm-337.919-161.292c-7.928 4.854-21.272 10.778-41.621 13.349-2.779.351-3.706 2.471-3.975 3.366-.259.861-.643 3.051 1.388 4.796 16.427 14.122 49.32 21.282 97.767 21.282 2.993 0 5.286-.803 6.815-2.386 1.263-1.306 1.957-3.111 1.957-5.082 0-3.642-2.305-7.532-8.772-7.532-11.787 0-25.673-4.416-37.146-11.811-7.445-4.799-13.04-10.301-16.413-15.982zm235.414 216.6c-15.011 0-27.224-12.212-27.224-27.224s12.213-27.224 27.224-27.224 27.224 12.213 27.224 27.224-12.213 27.224-27.224 27.224zm0-39.448c-6.74 0-12.224 5.484-12.224 12.224s5.483 12.224 12.224 12.224 12.224-5.483 12.224-12.224-5.484-12.224-12.224-12.224zm-306.575-15.276c-12.406 0-22.5-10.093-22.5-22.5s10.094-22.5 22.5-22.5 22.5 10.093 22.5 22.5-10.094 22.5-22.5 22.5zm0-30c-4.136 0-7.5 3.365-7.5 7.5 0 4.136 3.364 7.5 7.5 7.5s7.5-3.364 7.5-7.5c0-4.135-3.364-7.5-7.5-7.5zm305.536-53.183c-.083 0-.165 0-.248 0l-56.12-.286c-3.354-.017-6.288-2.258-7.188-5.489-.899-3.23.456-6.666 3.318-8.413 27.521-16.797 42.677-44.07 42.677-76.796 0-35.732-14.593-69.44-39.036-90.168-3.159-2.679-3.549-7.412-.869-10.571 2.679-3.159 7.41-3.548 10.57-.87 27.761 23.542 44.335 61.526 44.335 101.608 0 29.746-11.373 56.397-31.813 75.81l34.201.174h.168c12.616 0 20.347-7.29 27.825-14.341 6.058-5.711 11.779-11.106 19.546-11.106 10.164 0 25.402 9.068 39.768 23.666 2.905 2.953 2.867 7.701-.085 10.606-2.953 2.904-7.702 2.867-10.606-.085-13.023-13.234-24.843-19.188-29.076-19.188-1.811 0-6.113 4.057-9.256 7.02-8.253 7.783-19.544 18.428-38.111 18.429zm138.804-26.619c-24.901 0-45.16-20.259-45.16-45.16s20.259-45.16 45.16-45.16 45.16 20.258 45.16 45.16-20.259 45.16-45.16 45.16zm0-75.32c-16.63 0-30.16 13.53-30.16 30.16s13.53 30.16 30.16 30.16c16.631 0 30.16-13.53 30.16-30.16s-13.529-30.16-30.16-30.16zm-319.608 18.945c-4.143 0-7.5-3.358-7.5-7.5v-18.945c0-4.142 3.357-7.5 7.5-7.5s7.5 3.358 7.5 7.5v18.945c0 4.142-3.357 7.5-7.5 7.5zm281.948-40.379c-4.143 0-7.5-3.358-7.5-7.5v-9.873c0-4.142 3.357-7.5 7.5-7.5s7.5 3.358 7.5 7.5v9.873c0 4.142-3.358 7.5-7.5 7.5zm32.805-18.943c-1.272 0-2.563-.324-3.743-1.006l-8.55-4.937c-3.587-2.071-4.816-6.658-2.745-10.245 2.069-3.588 6.658-4.818 10.245-2.745l8.55 4.937c3.587 2.071 4.816 6.658 2.745 10.245-1.389 2.406-3.91 3.751-6.502 3.751zm-65.612 0c-2.592 0-5.112-1.345-6.502-3.751-2.071-3.587-.842-8.174 2.745-10.245l8.55-4.937c3.586-2.07 8.173-.842 10.245 2.745 2.071 3.587.842 8.174-2.745 10.245l-8.55 4.937c-1.18.681-2.47 1.006-3.743 1.006zm57.076-32.953c-2.592 0-5.113-1.345-6.502-3.751-2.071-3.587-.842-8.174 2.745-10.245l8.55-4.936c3.585-2.072 8.174-.842 10.245 2.745s.842 8.174-2.745 10.245l-8.55 4.936c-1.18.681-2.47 1.006-3.743 1.006zm-48.54 0c-1.272 0-2.562-.324-3.743-1.006l-8.55-4.936c-3.587-2.071-4.816-6.658-2.745-10.245 2.07-3.587 6.656-4.818 10.245-2.745l8.55 4.936c3.587 2.071 4.816 6.658 2.745 10.245-1.389 2.405-3.91 3.751-6.502 3.751zm24.271-14.01c-4.143 0-7.5-3.358-7.5-7.5v-9.872c0-4.142 3.357-7.5 7.5-7.5s7.5 3.358 7.5 7.5v9.872c0 4.142-3.358 7.5-7.5 7.5zm-95.364-29.222c-12.406 0-22.5-10.093-22.5-22.5s10.094-22.5 22.5-22.5 22.5 10.093 22.5 22.5-10.093 22.5-22.5 22.5zm0-30c-4.136 0-7.5 3.365-7.5 7.5 0 4.136 3.364 7.5 7.5 7.5s7.5-3.364 7.5-7.5c0-4.135-3.364-7.5-7.5-7.5z"/></g></g></svg>