<?xml version="1.0" encoding="iso-8859-1"?>
<!-- Generator: Adobe Illustrator 19.0.0, SVG Export Plug-In . SVG Version: 6.00 Build 0)  -->
<svg version="1.1" id="Layer_1" xmlns="http://www.w3.org/2000/svg" xmlns:xlink="http://www.w3.org/1999/xlink" x="0px" y="0px"
	 viewBox="0 0 512 512" style="enable-background:new 0 0 512 512;" xml:space="preserve">
<circle style="fill:#71E2EF;" cx="256" cy="256" r="256"/>
<path style="fill:#38C6D9;" d="M336.16,137.169l-193.938,249.82L266.983,511.75c118.734-5.015,216.55-90.884,239.776-203.979
	L336.16,137.169z"/>
<path style="fill:#FFFFFF;" d="M142.222,386.989V217.902c0-62.838,50.94-113.778,113.778-113.778s113.778,50.94,113.778,113.778
	v169.088C369.778,386.989,259.687,476.01,142.222,386.989z"/>
<path style="fill:#E2E1E0;" d="M369.778,217.902c0-62.838-50.94-113.778-113.778-113.778c-0.193,0-0.381,0.014-0.574,0.014V426.53
	c66.386-0.772,114.352-39.541,114.352-39.541V217.902z"/>
<polygon style="fill:#D48B07;" points="256,217.1 287.03,234.624 256,325.163 224.97,234.624 "/>
<polygon style="fill:#BF7908;" points="287.03,234.624 256,217.1 255.426,217.424 255.426,323.487 256,325.163 "/>
<g>
	<circle style="fill:#273B7A;" cx="211.747" cy="216.316" r="9.481"/>
	<circle style="fill:#273B7A;" cx="298.667" cy="216.316" r="9.481"/>
</g>
<g>
</g>
<g>
</g>
<g>
</g>
<g>
</g>
<g>
</g>
<g>
</g>
<g>
</g>
<g>
</g>
<g>
</g>
<g>
</g>
<g>
</g>
<g>
</g>
<g>
</g>
<g>
</g>
<g>
</g>
</svg>
