<?xml version="1.0"?>
<svg xmlns:rdf="http://www.w3.org/1999/02/22-rdf-syntax-ns#" xmlns="http://www.w3.org/2000/svg" xmlns:cc="http://web.resource.org/cc/" xmlns:dc="http://purl.org/dc/elements/1.1/" id="svg2" viewBox="0 0 284.73 227.31" version="1.0">
  <g id="layer1" transform="translate(-52.248 183.08)">
    <path id="path2006" d="m168 38.767c2.05-0.254 6.94-0.337 7.18 0.284-1.97 0.201-7.44 0.353-7.4-0.25l0.17-0.026 0.05-0.008zm-56.47-5.051c0.82-2.865 3.61 0.543 0.65 0.446l-0.4-0.143-0.25-0.303zm13.38-0.598c-1.38-0.321-6.27-0.887-2.44-0.804 2.34 0.239 7.71-1.253 8.03 1.56-1.87 0.378-3.72-0.684-5.59-0.756zm9.1 0.215c1.97-1.197 6.58-0.156 7.05 0.53-2.31 0.428-4.94 0.754-7.05-0.53zm34.62-0.499c3.27-1.103 6.8-0.37 10.19-0.437 3.43 0.135 6.88 0.297 10.25 1.042-1.95 1.346-5.17 0.331-7.62 0.663-4.25-0.101-8.69 0.122-12.76-1.226l-0.06-0.042zm-6.78-2.393c0.92-0.64 4.74-3.529 4.26-1.843-1.85 1.594-5.44 4.282-6.93 4.147 0.66-0.996 1.8-1.516 2.67-2.304zm-18.29-1.959c0.45-1.381 4.62-4.003 2.45-0.954-1.18 1.181-4.54 3.56-4.72 3.455 0.76-0.834 1.52-1.667 2.27-2.501zm-3.79-1.308c0.8-1.603-2.49-0.706-1.73-2.492-0.43 1.966-3.94 2.027-1.43 0.266 3.15-2.11 6.53-3.944 9.19-6.7 2.81-1.697 6.13-2.301 8.95-4.026 1.29-1.038 5.91-1.879 2.38-0.065-5.7 3.388-12.05 5.814-17.06 10.283 3.45-0.856 6.71-2.695 10.04-4.031-1.96 2.525-5.38 3.278-7.6 5.435-0.22 1.405-3.32 4.72-2.74 1.33zm8.94-1.683c2.09-2.061 2.27 0.853-0.12 0.846-1.14 0.323-0.17-0.65 0.12-0.846zm51.68-0.403c0.6-1.381 3.96-4.364 0.65-4.423-1.26 0.46-6.4 2.511-3.42 0.303 2.49-0.625 6.85-4.981 2.36-5.962-3.27-0.044-6.34 1.505-9.49 2.252-4.35 1.326-8.95 3.106-13.54 2.205-2.89-2.227 2.9-3.67 4.56-4.445 2.94-1.625 8.33-0.962 9.72-4.128-2.76-0.198-5.63 0.755-8.41-0.134-1.25-0.183-2.93-1.3227-0.64-1.0176 2.37-0.5095 1.01-3.9544 4.03-3.6731 3.66-0.6782 7.16 1.1381 10.78 1.0942 2.25-0.1786 2.19-2.613-0.26-2.0497-1.83-0.0629-6.04 0.6319-6.15-1.2224 3.01-2.8988 7.4 1.7023 9.9-1.3554 2.24-3.1243 3.02-7.0238 4.14-10.648 3.88-14.508 4.78-29.748 3.34-44.666-0.63-3.907-4.13-6.21-7.49-7.664-4.02-1.96-8.49-3.429-11.65-6.723-3.37-1.476-6.63-3.101-9.72-5.133-1.89-1.599-6.43-2.87-5.9-5.759 2.88-0.835 4.56 2.609 6.78 3.877 4.63 4.129 10.42 6.524 15.82 9.433 4.86 2.554 9.89 5.028 14.02 8.677 1.45 2.088-0.54 7.39 2.95 7.36-0.06-2.685-0.54-5.662 1.32-7.963 2.94-3.681 7.75-5.151 12.15-6.193 6.08-1.067 12.36-0.952 18.25-3.013 6.54-2.02 12.78-4.978 18.79-8.214 2.23-1.033 0.45-2.432-0.25-2.484 2.58-2.765-1.45-5.335-4.09-4.58-0.5 1.358 3.98 2.508 1.26 3.894-2.11 0.656-5.07-2.364-6.52-0.726 3.22 3.154-2.89 4.265-5.06 3.364-2.85 0.366-6.67 2.965-9.01 0.377-0.41-3.249-2.53-5.625-5.6-6.661-3.55-1.456-7.95-0.969-10.94-3.633-2.54-2.612 3.7-7.071-0.5-8.02-2.38-0.393-1.54 2.76-3.73 1.959-0.72 1.381 4.82 5.342 0.9 4.711-3.13-1.574-5.04-4.97-8.48-6.014-2.63-1.076-1.17-4.465 1.38-2.623 3.11 1.834 6.58 1.45 9.44-0.067 2.88 0.608 6.1 1.225 8.68-0.638 2.21-1.272 1.52-5.122 4.77-3.761 3.01 0.697 5.8-0.838 8.71-0.974 2.07 0.572-1.08 3.698 2.21 3.075 2.78-0.349 3.99 4.1 1.69 5.411-2.29-0.88-1.04 3.226-3.76 2.467-4.64-0.635-1.93-7.242-6.52-8.118-1.76-0.633-4.06 1.205-1.28 1.837 3.06 2.029 3.52 5.916 4.18 9.135-1.11 3.141 3.12 4.52 1.96 7.614-0.31 1.433-1.32 3.876 0.49 1.649 1.59-1.464 4.81-3.821 1.52-5.269-3.36-1.903 0.06-6.579 2.64-3.553 1.45 1.387 0.62 7.018 3.15 5.883-0.04-2.203 3.23-3.546 0.37-4.675-2.67-1.474-3.22-5.649 0.39-5.833 1.23-2.978 5.34-3.759 5.68 0.179 0.7 1.928-1.27 2.37-2.47 2.024-1.61 1.323-0.3 6.106 1.53 2.996 1.64-2.557 7.42 0.439 6.27-4.199 1.74-3.406 6.62 0.111 6.59 3.045-0.51 2.084-4.91 1.929-2.14 4.485 2.14 2.678 4.76-0.285 3.36-2.77-0.31-3.263 2.92-2.981 4.39-0.957 3.45 1.389 0.8-4.091 0.16-5.613-0.83-1.617-2.54-5.037 0.77-4.045 5.99 1.34 11.52 4.164 17.05 6.758 2.38-1.74-1.65-5.076-2.44-7.093-2.82-3.276-7.4-3.508-11.01-5.5-3.11-1.37-6.25-2.77-9.58-3.53 1.7 2.73 5.53 3.19 8.31 4.43 3.41 0.673 6.23 2.65 8.83 4.846 1.64 0.813 4.18 3.987 0.71 2.574-4.83-1.269-9.52-3.078-14.17-4.892-1.56-0.31-5.25-3.448-5.81-1.177 1.53 2.041 2.96 5.945 0.19 7.536-3.02 0.358-5.36-2.865-6.34-5.434-1.38-2.884 2.41-2.332 3.04-3.913-0.44-1.85-0.32-3.86 1.95-3.76 0.86-3.43-4.46-3.74-6.9-3.99-3.99-0.65-8.31-1.14-11.53-3.82-0.88-1.68 3.82-0.24 1.08-2.22-3.74-2.43-8.08-3.64-12.22-5.15-3.15-0.25-1.99 4.07 0.72 3.5 3.85 1.85 7.67 4.34 10.03 7.96 0.53 4.02-6.59 0.14-4.35-2.73-1.69-2.11-5.12 0.82-6.8-1.91-3.19-0.63-6.49-2.22-9.53-2.43 1.5 1.71 4.3 2.16 6.12 3.71 1.46 1.15 4.81 3.78 2.55 5.4-1.78 0.15-3.28 3.84-4.69 1.07-0.73-2.12 2.99-4.6-0.86-4.72-2.32 3.02-6.71-0.32-9.3-2.35-2.37-1.72-5.75-0.84-8.05-2.61-3.18 2.08 2.59 2.93 4.2 3.74 3.09 1.17 5.73 3.2 8.46 4.98 3.12 0.33 7.23 4.32 4.34 6.973-2.81-0.348-3.97-3.713-6.35-5.043-2.21-1.81-4.69-3.35-7.44-4.16-3.56 1.97 4.35 3 3.38 5.68 2.04 1.24 6.26 1.62 5.81 4.939-2.09 3.125-5.62-1.133-7-3.049-2.02-2.41-5.31-0.84-7.71-3.01-2.81 2.67 3.24 4.446 4.67 6.301 0.76 2.701-4.25 1.072-5.58 0.037-2.39-1.503-5.43-1.385-7.56-3.418-2.17-1.63-5.41-3.82-7.98-1.71-2.19 1.31-0.93 7.885-4.24 5.82-0.85-2.415 0.05-5.23-1.42-7.46 0.61-3.93 5.98-2.75 7.82-5.17-0.36-3.29-4.88-2.28-6.78-0.94-1.55 1.67-1.34 4.09-4.12 4.59-2.62 0.95-0.84 3.28 1.3 2.74 2.11 1.63-3.08 6.192-3.39 2.32-2.24-1.56-5.31-4.11-7.75-3.94-0.28 3.41 4.51 4.468 6.69 6.403 1.35 0.795 5.05 2.873 4.32 3.581-3.49-0.604-5.89-3.609-9.13-4.756-3.1-0.064 1.23 3.303 1.95 4.258 2.42 2.551 5.88 5.803 9.46 3.17 1.34-0.963 5.03-2.235 4.08 0.684-1.58 1.574-3.78 0.148-5.28 1.886-3.77 0.716-6.53-2.656-9.2-4.747-3.14-2.766-6.18-5.757-9.97-7.619-2.09-2.43 1.13-6.94-1.16-8.58-2.18 2.31-1.09 6.39-1.56 9.32 1.46 3.06 5.34 3.509 7.5 5.943 2.57 2.213 4.21 5.388 6.95 7.381 1.45 0.294 3.77 3.071 0.94 2.655-4.16-2.348-6.31-6.9-9.96-9.829-1.63-2.54-7.41-2.625-5.23 1.427 0.98 3.071 2.78 5.789 5.17 7.938 2.01 1.451 4.1 7.745-0.23 6.167-5.53-5.065-8.12-12.736-14.28-17.24-6.31-4.382-11.94-10.032-15.68-16.792-3.31-7.56-2.3-16-2.88-24.02 0.12-3.79 0.34-8.23-4.29-9.24-4.97-2.42-10.6-2.52-15.97-3.38-3.26-1.01-5.95 0.51-9.08 1.01-3.02 0.5-5.96-0.09-8.91-0.45-3.074 1.56-6.534 2.34-9.81 3.51-7.26 2.28-14.026 5.78-20.733 9.32-1.186 0.71-6.219 3.08-3.965-0.05 4.091-4.05 8.642-8.25 14.413-9.6 2.032-0.11 2.374-3.52 4.941-3.6 8.877-4.1 18.584-5.87 28.024-8.18 5.09-1.11 10.21-2.91 14.09-6.52 1.24-1.63 4.64-1.78 5.26-2.53 0.05-3.42 4.36-4.23 6.84-5.53 2.6-1.44 4.77 1.3 6.82-0.64 3.23-0.01 6.06 2.01 8.77 3.58 5.95 4.01 9.67 10.96 9.82 18.13 0.42 5.34-1.11 10.84 0.38 16.07 2.15 3.73 7.18 3.29 10.89 3.17 6.9-0.6 13.73-2.26 20.7-1.89 7.68 0.09 15.13 2.19 22.41 4.46 6.54 1.79 12.78 4.46 18.81 7.53 7.45 3.53 15.22 6.33 22.79 9.56 3.52 1.99 6.82 4.38 10.62 5.85 11.44 5.26 23.2 10.06 35.54 12.788 7.7 2.011 15.49 4.042 22.75 7.352 3.51 2.778 0.28 7.644-3.69 6.942-9.55 1.371-19.29 1.278-28.75 3.337-3.16 1.815-6.67 3.153-10.37 2.673-5.82 0.045-11.73-1.592-17.48-0.286-5.75 1.767-10.92 4.976-16.6 6.949-4.84 1.779-9.88 3.076-14.58 5.224-3.78 1.082-7.87-0.039-11.6 1.139-0.91 2.961 3.32 4.779 3.96 7.587 1.62 4.498 0.74 9.367 0.78 14.035-0.28 7.577-1.35 15.181-0.67 22.756 0.53 4.349 4.75 5.548 8.3 6.4094 3.6 0.6214 3.01 3.8898-0.35 3.7827-3.36 0.6763-7.86-0.3908-9.04-3.9873 0.1-1.7418 0.25-7.2048-2.27-5.2718 2.73 2.884-1.29 5.8468-1.58 9.0471-1.33 4.5111-3.09 9.0677-6.57 12.374-2.03 1.1546-1.3 4.4769 1.06 2.3868 2.45-2.2848 4.24-5.455 5.27-8.6003-0.18-1.7667 1.9-6.3663 2.33-2.3156 0.13 3.744 1.41 8.5532-1.25 11.599-2.88 1.104-3.96 3.932-6.1 5.602-2.38 0.286-5.81 1.586-7.71 0.373 2.04-1.401 7.91-0.074 7-3.677-3.12 0.144-6.96 0.215-9.34 2.353-1.32 3.046-1.16 6.578-2.93 9.515-0.59 2.598-3.38 2.791-4.86 1.338 1.3 2.489-1.18 2.459-1.26 0.284zm5.77-3.299c1.17-3.462-0.13-7.99 3.1-10.558 1.13-0.016 5.19-0.402 2.22-1.5213-2-0.6607-6.12 1.1813-4.81-2.316 0.76-10.254 2.59-20.385 4.73-30.426 0.42-1.766-0.24-3.481-0.96-0.957-2.41 6.224-2.97 12.982-5.21 19.269-1.47 4.6821-3.51 9.1696-5.59 13.59-0.3 1.903-1.56 4.281-3.64 2.861-5.17 1.182-9.82 3.966-15.04 4.997-2.35 0.231-1.87 2.467 0.45 1.602 4-0.43 7.53-2.55 11.45-3.331 3.04-0.77 6.25-1.698 9.38-1.032 4 1.656 0.78 6.811 2.6 9.46 0.76-0.092 1.12-1.012 1.32-1.638zm-12.73-13.295c-1.09-0.9085-6.53-1.7671-4.52 0.5179 1.07 0.6714 6.62 0.882 4.63-0.4654l-0.11-0.0525zm31.71-1.9287c1.44-2.0758-0.88-2.7194-1.5-0.6285-1.01 0.9762-1.48 4.926 0.54 2.4051 0.4-0.5436 0.73-1.1446 0.96-1.7766zm-13.1 1.1258c-1.05-4.1039 5.08-3.661 6.01-7.0372 4.74-7.3376 6.18-16.222 6.23-24.814 0.46-10.689 0.28-21.67-3.51-31.821-0.84-3.967-6.47 0.823-6.35 3.557 0.4 5.26 2.87 10.06 4.5 15.009-2.91 5.823-5.36 11.897-6.67 18.292-1.88 7.604-3.44 15.329-3.82 23.168-0.79 1.6363 2.12 6.479 3.61 3.6463zm23.65-16.368c-0.95-1.3668-6.69-1.0889-3.09 0.3679 0.96 0.7204 6.67 2.2683 3.09-0.3679zm-8.9-12.003c-1.57 0.205 0.29 5.012 0.22 1.27 0-0.431-0.07-0.865-0.22-1.27zm1.43-4.077c-1.17-2.205-3.21 2.628-0.38 0.867 0.24-0.218 0.39-0.541 0.38-0.867zm-13.94-6.837c1.81-3.097 2.9-7.012 0.56-10.155-0.39-1.802-2.95-2.67-1.98-0.012 1.03 2.726-3.04 6.022-0.16 7.891-1.28 1.92-2.01 4.781-0.72 6.774 0.96-1.346 1.54-3.016 2.3-4.498zm15.01-13.505c-1.17-2.204-3.21 2.628-0.38 0.868 0.24-0.218 0.39-0.542 0.38-0.868zm0-4.282c-1.17-2.205-3.21 2.628-0.38 0.867 0.24-0.218 0.39-0.541 0.38-0.867zm49.79-29.618c-1.81-0.288-6-3.838-6.07-0.684 1.6 1.39 6.07 1.645 6.63 0.83-0.19-0.049-0.38-0.097-0.56-0.146zm27.2-2.017c-1.61-3.226-6.6 0.715-6.32 2.007 1.65-0.21 7.01 0.76 6.32-2.007zm-7.4-2.485c-1.36-2.568-3.83 1.882-6.07 0.436-2.8-0.525-6.43 0.315-8.43-2.062-2.51-2.883-2.41 2.702 0.36 2.497 3.3 1.04 6.93 0.274 9.98 2.117 2.07 1.089 3.82-1.16 4.16-2.988zm12.31 3.136c0.41-3.101-4.44 1.921-0.89 0.82 0.36-0.195 0.67-0.476 0.89-0.82zm-140.78-3.212c-1.02-2.891-2.84-1.028-1.2 0.97 0.48 1.555 2.85 2.595 1.68 0.062-0.14-0.354-0.3-0.698-0.48-1.032zm66.85-1.137c-2.15-2.549-0.13-8.216-4.5-8.802 0.06 1.775 3.94 4.981 0.67 6.554-3.58 0.964-3.32-3.233-4.96-4.792-2.61-1.176-2.77 1.966-0.78 2.889 0.01 2.1 0.26 5.171 3.14 3.377 2.92-1.174 5.67 5.083 7.49 2.573-0.17-0.688-0.62-1.263-1.06-1.799zm89.74 2.638c1.91-3.992-4.59-3.846-2.1 0.1 0.48 0.795 1.63 0.609 2.1-0.1zm-5.64-1.438c0.22-3.757-6.61-0.734-2.42 0.857 0.83 0.219 2.25 0.272 2.42-0.857zm-7.49-0.929c-0.1-1.564-3.55-6.406-3.13-2.341-0.04 1.348-2.93 3.622 0.19 3.122 0.98-0.107 2.3 0.182 2.94-0.781zm-34.26-1.543c-1.19-2.753-3.16 3.286-0.25 0.575l0.17-0.266 0.08-0.309zm27.42-0.355c0.15-1.816-2.13-5.543-2.78-1.962-1.44 3.546-4.49-1.379-5.71-2.331-2.65 2.299 0.58 5.187 3.2 5.345 1.36 0.579 5.65 1.445 5.29-1.052zm-141.97-4.616c-0.08-1.833-4.57-2.415-1.89-0.345 0.39 0.597 2.05 2.163 1.89 0.345zm-4.68-6.091c-0.64-1.32-5.25-3.182-2.67-0.472 1.14 1.11 3.75 3.76 4.65 2.589-0.51-0.836-1.27-1.457-1.98-2.117zm3.07-3.392c-0.31-1.51 0.16-6.63-2.44-4.87-0.16 1.29 1.02 6.044-1.39 3.33-0.57-1.27-3.96-3.97-2.85-0.74 0.98 2.33 5.34 5.791 6.89 4.274-0.04-0.667-0.13-1.33-0.21-1.994zm-9.3-4.01c0.74-2.99-2.42-5.09-3.26-7.61-1.91 2.27 0.8 4.08 1.88 5.66 0.03 1.56-0.92 5.82 1.07 5.24 0.27-1.07 0.22-2.19 0.31-3.29zm18.82 1.15c-0.19-3.31-5.47-1.43-2.61 1.05 0.85 0.8 3.33 0.66 2.61-1.05zm8.73-1.62c-1.7-1.56-7.34-1.45-6.15-4.21 3.21 0.02 6.66 4.13 9.62 1.13-0.26-2.52-6.32-0.04-4.31-3.3 1.42-1.12 3.17-0.3 3.11 0.81 3.64-0.72 7.08-3.42 10.93-2.32 3.03-1.04-1.9-2.44-3.03-2.38-2.62-1.46-1.68 3.19-4.64 1.94-2.72-0.85-5.39-1.59-7.46-3.66-1.2-1.16-3.53-0.61-1.53 0.9 1.09 0.85 2.4 3.73-0.2 2.33-3.15-0.34-5.95-4.46-1.46-5.32 2.32-1.96-4.83 1.53-3.58-1.52 2.84-2.06 6.78-1.47 9.94-2.91 1.5-0.48 5.75-1.42 4.86-2.86-2.39 0.68-6.19 3.22-6.92-0.5-3.19-0.66-7.39-1.42-10.1 0.87-2.14 2.57-7.23 1.35-6.71 5.96 0.08 1.99-0.75 6.53 1.72 6.75 1.1-2.01-1.17-7.89 1.73-7.27-0.1 2.16-0.88 7.64 2.37 6.88 0.99-1.66-1.52-5.43 1.28-5.64-0.6 3 3.64 5.69 2.4 8.14-2.14-0.18-5.18 1.37-3.47 3.71 1.65 0.05 2.05-2.72 2.92-0.33 2.53 1.78 5.49 2.98 8.29 4.28 1.27 0.38 0.81-0.93 0.39-1.48zm-8.08-19.34c0.77-2.69 6.06 0.16 2.2 0.99-0.79 0.22-2.1 0.01-2.2-0.99zm34.26 20.28c-0.2-2.59-5.16-0.94-2.23 0.67 0.73 0.17 1.94 0.2 2.23-0.67zm-56.74-0.95c-0.04-3.16-3.96-0.29-1.24 0.99 0.58 0.14 1.25-0.36 1.24-0.99zm42.79-0.02c3.45-3.38-6.1-0.91-2.21 0.96 0.83-0.04 1.5-0.59 2.21-0.96zm-35.16-3.54c-3.71-2.92-0.45 5.82 0.81 1.79-0.04-0.67-0.35-1.31-0.81-1.79zm-10.84-0.78c0.1-3.99-4.03 0.2-1.49 1.99 1.06 0.49 1.62-1.23 1.49-1.99zm16.43-0.58c-0.84-2.42-7.91-4.19-5.94-0.12 1.5 1.89 3.31-2.43 3.58 0.64 0.92 2.26 2.96 2.27 2.36-0.52zm36.56 1.65c-0.9-2.28-3.65 0.09-1.09 0.93 0.7 0.41 1.76-0.12 1.09-0.93zm10.17-1.13c-1.17-2.21-3.21 2.62-0.38 0.86 0.24-0.21 0.39-0.54 0.38-0.86zm-54.6-1.01c-0.58-2.58-4.56 0.31-1.45 0.98 0.66 0.33 1.5-0.26 1.45-0.98zm68.15-2.64c-1.02-3.37-2.79 0.15-1.06 1.64 2.16 2.36 1.71-0.52 1.06-1.64zm30.96 1.7c-0.53-2.14-6.98-1.95-3.4 0.08 0.64-0.07 4.25 1.76 3.4-0.08zm-98.23-3c-0.56-4.61-5.44 2.11-1.01 1.77 0.78-0.17 1.27-1.02 1.01-1.77zm45.69 0.73c-0.09-1.72-5.29-0.84-2.97-2.98 7.14-1.37 14.58-0.02 21.65-1.78 2.56-1.45-1.04-3.78-2.76-2.69-1.04-0.48-3.25-3.64-2.86-0.7 0.42 3.1-3.38 0.27-4.16-0.83-2.49-1.79-6.07-0.83-7.56 1.15-4.39-0.98-8.87-1.61-13.37-1.68-3.18 1.72 5.64 2.32 1.42 3.57-2.02 0.69-6.83-1.58-7.28 0.64 3.46 1.96 7.8 1.18 11.28 3.2 2.13 0.91 4.25 5.08 6.61 2.1zm-6.59-5.63c0.74-2.75 6.66-2.41 6.5 0.34-1.81 1.12-4.73 0.74-6.5-0.34zm11.56-0.68c-2.79-3.08 6.43-2.35 2.94 0.65-0.98 0.61-2.1-0.15-2.94-0.65zm-0.15 6.24c-1.17-2.2-3.21 2.63-0.38 0.87 0.24-0.22 0.38-0.54 0.38-0.87zm-59.42-1c-2.06-3.24-1.21 3.35 0.13 0.24l-0.13-0.24zm13.17-1.51c-1.98-2.35-1.05-8.53-5.94-6.21-3 0.72-2.25 4.51 0.81 3.77 1.9 0.68 4.37 6.16 5.87 3.17-0.19-0.3-0.47-0.52-0.74-0.73zm-17.98-0.1c-0.34-4.03-4.11 1.81-0.66 1.48 0.48-0.33 0.65-0.93 0.66-1.48zm4.39-4.28c0.81-1.65 3.22-6.92 4.59-3.06 2.16 1.24 3.16-2.05 5.3-1.29 3.26-2.95-0.2-7.51-3.16-9.24-2.2-1.56 2.99-0.36 4.03 0.22 2.07 1.51 5.07 3.18 6.23 5.11-1.65-0.49-5.58 1.12-2.16 2.2 2.55 2.01 8.55-0.89 5.28-3.73-3.24-1.02-5.43-3.5-7.89-5.57-1.44-1.05-6.63-0.79-5.35-3.04 3.32 1.25-3.82-4.49-0.47-3.93 2.03 1.38 6.33 2.57 7.62 2.39-1.03-1.33-3.55-3.61-3.63-4.33 1.38 0.31 4.43 1.57 4.74 1.28-1.15-1.36-6.18-3.77-2.45-4.5 3.08-1.87-3.26-2.8-2.02-5.62 1.02-3.88-2.71-6.66-6.3-5.39-2.56 1.59-4.6 3.86-7.94 3.98-3.39 0.92 0.68 3.97-0.82 5.08-1.9-2.08-4.92-4.67-7.92-2.28-0.95 2.21-4.2-0.22-1.46-0.9 2.24-3.53-5.52-2.2-5.15 0.69 0.89 0.61 3.35 0.65 0.97 1.3-4.01 1.14 1.76 1.9 3.06 2.79 2.4 1 4.78 2.13 6.92 3.62 1.02 3.03-1.28 6.07-0.6 9.2-0.05 3.43-0.24 6.88 0.27 10.29 0.93-1.41 3.47-6.74 4.13-3.76-2.08 0.92-3.14 6.19-1.63 6.15 0.15-1.34 3.33-5.2 2.73-1.95-0.96 1.31-2.3 5.77 0.43 3.52 0.27 1.53-1.7 7.24 0.96 4 0.65-1.03 1.04-2.2 1.69-3.23zm-1.57-4.29c1.03-3.93 2.66 2.51-0.03 1.32-0.28-0.38-0.18-0.92 0.03-1.32zm6.81-3.74c-3.39-2.46 3.99-1.1 1.56 0.55-0.57 0-1.07-0.29-1.56-0.55zm-7.49-0.42c0.69-2.26 5.22-0.33 1.67 0.4-0.57 0.03-1.24 0.05-1.67-0.4zm-0.81-5.45c-0.35-3.5 2.92-0.65 1.88 1.37-0.94 2.46-2.23 0.1-1.88-1.37zm0.23-4.91c-1.57-3.47 2.93 0.8 0.66 0.87-0.27-0.25-0.45-0.57-0.66-0.87zm-1.26-4.58c-0.96-0.52-4.78-3.63-2.6-3.43 2.28 0.55-1.78-2.75-2.92-1.57-2.89-0.15-1.31-4.18 0.9-1.82 2.01 1.96 8.19 1.87 5.41-1.94 2.04-2.35 6.08-1.86 8.3-4.26 1.57-1.97 2.88-0.68 2.54 1.35 1.32 1.8 1.85 4.5-1.32 4.35-1.65 0.16-3.61 1.55-0.67 1.08 2.36-0.58 2.77 2.54 0.21 2.27-2.95 1.45-7.69 0.67-9.79 1.73 0.38 2.64 6.12 2.22 5.25 4.58-2.01-0.01-3.64-1.39-5.31-2.34zm8.59 21.51c-2.85-2.54-5.71 6-2.67 5.26 1.63-1.17 2.38-3.34 2.67-5.26zm1.81 5.69c-0.04-3.17-3.95-0.29-1.24 0.98 0.59 0.15 1.26-0.36 1.24-0.98zm8.88-5.43c1.88-2.21-5.12-5.53-2.03-2.29 0.56 1.3 0.86 6.88 2.03 2.29zm20.03 0.48c-1.39-2.18-3.09 2.63-0.66 0.84 0.25-0.23 0.59-0.47 0.66-0.84zm49.78 0.6c-2.06-3.24-1.22 3.36 0.13 0.24l-0.13-0.24zm-45.5-1.07c-0.85-3.21-3.6 2.2-0.39 0.83 0.24-0.21 0.39-0.51 0.39-0.83zm37.47-3.24c-3.1-1.79-6.84-1.47-10.27-1.98-5.63-0.19-11.22 0.89-16.79 1.4-0.93 1.66 3.86 0.62 5.21 1.07 7.2 0.25 14.45 0.49 21.6-0.34l0.25-0.15zm-15.79-3.4c1.82 0.72 4.12-1.53 1.01-1.26-5.34-0.35-10.7-0.06-16.01 0.45 1.67 2 5.62 1.27 8.21 1.34 2.26-0.21 4.51-0.65 6.79-0.53zm-24.89-1.39c-1.62-2.34-7.66 0.62-2.61 0.77 0.9-0.12 1.81-0.33 2.61-0.77zm7.06-1.32c2.06 1.14 3.35-1.6 0.61-1.31-2.34-0.7-8.27 0.88-4.57 3.68 1.77 0.05 1.01-4.05 3.96-2.37zm-93.78-19.61c1.606-0.53 5.5-1.18 5.46-1.77-5.019 0.34-10.219 1.02-14.611 3.64 3.143 0.05 6.111-1.24 9.151-1.87zm21.14-2.68c3.34-1.89-1.79-2.88-3.22-1.52-3.33 0.87-6.6 1.95-9.89 2.95 4.38-0.42 8.79-0.6 13.11-1.43zm8.84 0.59c-1.25-1.41-5.03-1.4-5.48-0.35 1.54 0.56 4.36 2.51 5.48 0.35zm9.35-6.92c1.89-0.89 2.04-3.83-0.52-2.51-3.37 1.4-5.88 4.29-9.2 5.78 2.45 0.62 6.54-0.6 8.85-2.45l0.44-0.39 0.43-0.43zm12.06 1.57c-0.59-2.57-4.56 0.32-1.45 0.99 0.66 0.33 1.49-0.27 1.45-0.99zm7.7-3.85c-1.02-1.45-1.41-3.73-3.78-2.67-4.11 0.32-8.19 0.9-12.3 1.3 1.77 2.98 5.89 2.31 8.85 2.6 2.16-0.24 6.66 0.72 7.43-1.1l-0.2-0.13zm-21.13-4.64c0.84-2.92-2.73-0.24-0.76 0.91l0.43-0.41 0.33-0.5zm12.89-3.29c-0.9-2.27-3.65 0.1-1.08 0.94 0.69 0.41 1.75-0.12 1.08-0.94zm5.36 192.71c0.91-1.025 6.23-1.157 2.74 0.185-0.66 0.477-6.2 1.435-2.74-0.185zm10.17 0.366c3.49-1.064 6.91-2.491 10.55-3.026-1.86 2.321-5.17 2.51-7.8 3.438-0.36 0.024-4.46 0.65-2.75-0.412zm-11.78-3.515c1.22-3.089 3.21 1.485 0.07 0.387l-0.07-0.387zm-10.17-1.133c0.91-2.276 3.65 0.091 1.09 0.935-0.7 0.409-1.76-0.123-1.09-0.935zm14.99-0.863c5.89-2.817 12.35-4.106 18.62-5.766 1.45-0.444 4.52-0.564 1.74 0.747-3.65 1.185-7.43 1.967-11.12 3.065-3.2 0.824-6.48 1.987-9.64 2.598-0.04-0.298 0.37-0.385 0.4-0.644zm11.24-0.208c1.14-1.471 6.29-1.188 2.43 0.453-0.72 0.387-5.48 1.394-2.43-0.453zm-26.77-3.212c1.15-1.47 6.29-1.188 2.44 0.453-0.72 0.387-5.49 1.394-2.44-0.453zm83.8-0.647c1.66-1.241 3.37 1.215 0.67 0.541-0.24 0.008-1-0.123-0.67-0.541zm6.67-1.494c0.92-1.025 6.23-1.157 2.75 0.185-0.66 0.477-6.2 1.435-2.75-0.185zm8.3-1.8086c1.17-0.8313 5.84 0.4496 2.3 0.4756-0.24-0.069-3.53 0.246-2.3-0.4756zm7.22-0.3326c1.39-3.2846 6.66 1.2922 1.85 1.0522-0.72-0.037-1.65-0.245-1.85-1.0522zm-17.94-3.0338c0.04-4.1091-1.36-8.1781-0.99-12.261 1.96-2.0366 1.68 2.663 1.83 3.8245 0.28 2.9905 1.31 6.2248 2.98 8.2397-0.68 1.8733-4.59 3.9268-3.82 0.1968zm-52.43 1.3164c1.67-1.2409 3.37 1.2147 0.68 0.5406-0.25 0.0084-1-0.1229-0.68-0.5406zm-1.98-2.7086c1.06-1.5026 5.46-1.3758 5.41-0.0798-1.72 0.566-3.72 0.9091-5.41 0.0798zm61.65 0.2017c4.21-1.3203 8.65-1.6586 13.04-1.7764 0.33 1.4588-4.12 1.2359-5.56 1.6637-2.43 0.2242-5.15 1.1795-7.48 0.1127zm-74.14-0.7671c1.18-1.0159 4.34 0.803 1.34 0.54-0.23-0.0246-2.38 0.0423-1.34-0.54zm21.14-0.3616c1.14-1.0972 5.1-1.0598 1.92 0.4475-1.01 0.6563-4.87 0.7852-1.92-0.4475zm28.37-83.507c-1.21-2.798 3.09-4.179 2.69-0.593 0.92 2.061-2.69 5.241-2.66 1.62-0.01-0.342-0.02-0.684-0.03-1.027zm-32.71 0.623c-2.68-1.431-0.62-2.908 1.09-1.132 1.22 0.457 3.2 3.562 0.5 2.136-0.56-0.29-1.09-0.635-1.59-1.004zm25.88-2.496c-0.59-2.309 3.04-5.01 2.46-1.121 0.2 1.515-2.3 5.922-2.67 2.382 0.04-0.426 0.12-0.846 0.21-1.261zm-21.6-0.769c-2.85-2.46 2.47-0.698 3.39 0.226 2.41 2.565-2.72 0.628-3.39-0.226zm13.45 0.627c-0.39-2.391 3.7-1.817 1.48 0.068-0.31 0.494-1.53 0.879-1.48-0.068zm-26.64-7.62c-1.23-0.58-3.58-5.731-0.81-3.213 2.32 1.873 3.47 5.585 6.8 5.895 0.45 3.304-3.4 0.566-4.41-0.889-0.56-0.572-1.08-1.177-1.58-1.793zm16.46 3.212c0.19-3.283 5.66 1.632 1.6 0.986-0.61-0.157-1.23-0.45-1.6-0.986zm15.53-1.143c-1.45-3.324 5.82-0.089 2.73-2.388 0.61-4.05 6.53 2.511 1.85 3.052-1.51 0.86-5.3 3.039-4.58-0.664zm9.25 1.47c-2.97-2.095 2.84-5.58 2.51-1.511-0.14 1.087-1.41 2.574-2.51 1.511zm-17.64-3.687c-0.31-3.662 4.26-1.031 2.02 1.286-0.99 1.761-2.87 0.264-2.02-1.286zm5.71-4.141c-3.01-1.81 0.85-4.889 2.24-1.77 1.38 1.785-0.15 5.307-1.81 2.241-0.15-0.157-0.29-0.314-0.43-0.471zm4.82-2.135c0.66-3.199 4.7 1.996 1.02 0.986-0.46-0.127-1-0.44-1.02-0.986zm51.39-0.535c-2.21-3.666 5.21 0.387 1.35 1.433-0.53-0.395-0.87-0.989-1.35-1.433zm-60.4-0.392c-1.98-2.133 2.6-2.906 1.33-0.12-0.12 1.18-0.97 1.101-1.33 0.12zm53.44-1.214c-1.88-3.225 4.15-3.305 2.63 0.162-0.32 1.41-2.21 0.853-2.63-0.162zm3.75-4.965c1.32-2.12 4.96-1.65 6.23-3.41 1.71 2.41-2.83 4.99-5.17 4.47-0.54-0.05-1.08-0.47-1.06-1.06zm-18.2-0.39c0.41-3.04 3.05 2.75 0.23 0.62-0.18-0.16-0.18-0.4-0.23-0.62zm3.92 0.36c-2.45-3.01 1.91-7.47 4.61-4.05 3.22 3.15-1.76 6.615-4.61 4.05zm3.57-1.43c-0.83-2.78-2.74 1.16-0.29 0.99l0.23-0.47 0.06-0.52zm6.96-2.14c1.25-3.65 4.33 3.16 0.24 0.32l-0.24-0.32z"/>
  </g>
  <metadata>
    <rdf:RDF>
      <cc:Work>
        <dc:format>image/svg+xml</dc:format>
        <dc:type rdf:resource="http://purl.org/dc/dcmitype/StillImage"/>
        <cc:license rdf:resource="http://creativecommons.org/licenses/publicdomain/"/>
        <dc:publisher>
          <cc:Agent rdf:about="http://openclipart.org/">
            <dc:title>Openclipart</dc:title>
          </cc:Agent>
        </dc:publisher>
      </cc:Work>
      <cc:License rdf:about="http://creativecommons.org/licenses/publicdomain/">
        <cc:permits rdf:resource="http://creativecommons.org/ns#Reproduction"/>
        <cc:permits rdf:resource="http://creativecommons.org/ns#Distribution"/>
        <cc:permits rdf:resource="http://creativecommons.org/ns#DerivativeWorks"/>
      </cc:License>
    </rdf:RDF>
  </metadata>
</svg>
