<?xml version="1.0" encoding="utf-8"?>
<svg version="1.1" id="Layer_1" xmlns="http://www.w3.org/2000/svg" xmlns:xlink="http://www.w3.org/1999/xlink" x="0px" y="0px"
	 viewBox="0 0 891.732 1671.328" style="enable-background:new 0 0 891.732 1671.328;" xml:space="preserve">
<g>
	<path d="M501.213,166.026c-0.366,51.359-25.86,86.476-44.175,131.812c-79.972,197.963,10.702,241.244,13.877,275.692
		c0.165,1.795,0.79,2.174,2.372,3.21c11.638,7.624,16.514,18.18,31.66,20.107c21.624,2.752,46.931-8.022,89.881,46.854
		c5.443,6.955,15.309,26.359,39.489,45.408c5.124,4.037,7.001,11.017,12.317,14.904c6.663,4.873,11.59,11.582,18.189,16.6
		c2.081,1.583,3.687,5.314,5.348,8.026c3.252,5.313,8.373,9.129,10.682,15.317c1.647,4.415,5.615,8.057,9.2,11.562
		c26.76,26.164,75.04,123.87,88.453,161.151c5.346,14.86,8.947,30.222,13.928,45.188c3.851,11.57,8.427,22.885,12.322,34.339
		c6.601,19.41-1.687,24.319,12.168,64.653c19.465,56.666,18.487,86.708,21.865,153.681c5.139,11.577,6.175,20.514,13.227,75.333
		c1.674,13.009-1.448,26.076-2.313,39.09c-0.394,5.933-4.286,9.29-6.351,13.904c-0.794,1.774-3.391,3.518-5.147,1.2
		c-2.823-3.725-6.138-3.041-10.113-3.778c-18.164-3.368-80.051-50.998-85.28-63.622c-3.495-8.438-13.502-10.75-19.662-18.247
		c-13.211-16.077-40.322-59.98-42.724-41.069c-1.099,8.653,3.622,21.253,5.095,29.917c23.691,139.371-33.908,150.28-35.441,352.992
		c-0.257,33.937-24.912,24.735-29.664,11.044c-3.08-8.873-0.696-18.598,1.571-27.713c25.779-103.657,33.99-210.741,40.985-317.411
		c2.32-35.38-0.483-19.499-1.313-36.82c-0.3-6.25-2.045-12.196-2.343-18.416c-0.424-8.86-5.836-15.068-12.263-20.602
		c-1.253-1.079-1.887-2.248-3.596-0.953c-0.388,0.294-1.464,0.41-1.587,0.213c-1.535-2.465-4.635-2.539-6.738-4.165
		c-4.179-3.231-18.281-23.015-24.018-32.307c-36.543-22.573-44.721-39.58-46.097-28.294c-2.43,19.841-0.1,12.572,4.251,40.494
		c17.163,110.165,51.66,152.326,36.539,191.827c-1.52,3.97-4.077,7.767-2.142,12.392c0.214,0.512-0.324,1.44-0.686,2.076
		c-22.998,40.393-31.454,90.592-65.733,228.888c-1.035,4.176-0.259,8.219-0.517,12.301c-0.435,6.884-3.219,13.199-3.782,19.993
		c-0.588,7.097-11.381-1.331-23.947-0.47c-6.23,0.427-6.44-4.941-4.187-10.793c4.532-11.771,3.554-24.758,8.027-36.512
		c3.813-10.02,6.839-20.358,8.82-30.773c16.917-88.924,45.52-154.24,47.411-228.597c1.4-55.041,2.01-29.311-8.247-77.887
		c-35.723-169.195-22.852-101.608-47.638-155.427c-4.633-10.059-40.46-72.913-41.135-74.073
		c-42.573-73.242-57.434-70.757-64.687-101.555c-0.838-3.559-5.252-1.226-4.009-4.261c1.006-2.456,1.426-5.333,0.438-7.173
		c-4.395-8.187-0.301-39.015-4.906-52.314c-4.707-13.592-1.325-26.986-2.766-40.365c-3.324-30.854,2.26-35.15,1.542-55.755
		c-0.897-25.763-36.681-105.226-47.707-146.412c-21.836-81.559-12.848-130.866-8.957-175.737
		c17.015-196.258,77.35-158.871,81.074-238.392c0.532-11.369-8.347-38.296-10.978-42.671c-3.388-5.632-13.038-12.16-19.02-14.734
		c-16.007-6.889-64.288,1.621-81.367,4.69c-141.739,25.465-101.578,21.694-155.58,39.238
		c-16.448,5.344-111.068,39.689-115.309,33.09c-3.121-4.856,7.054-8.474,9.65-9.875c20.022-10.797,10.508-19.185,107.706-57.667
		c6.012-2.38,81.795-35.279,100.334-44.915c15.435-8.022,30.82-16.312,43.824-28.201C388.601-4.533,502.101,41.584,501.213,166.026z
		"/>
</g>
</svg>
