<?xml version="1.0" encoding="utf-8"?>
<!DOCTYPE svg PUBLIC "-//W3C//DTD SVG 1.1//EN" "http://www.w3.org/Graphics/SVG/1.1/DTD/svg11.dtd">
<svg version="1.1" id="Layer_1" xmlns="http://www.w3.org/2000/svg" xmlns:xlink="http://www.w3.org/1999/xlink" x="0px" y="0px"
	 viewBox="413.1167 -30.9123 1732.8833 1650.9592" enable-background="new 413.1167 -30.9123 1732.8833 1650.9592"
	 xml:space="preserve">
<g>
	<path d="M2119.26,830.71c0,0-2.3699,17.37-2.77,19.9c-2.46,15.88-10.45,29.31-19.1199,42.4
		c-11.78,17.73-25.8701,33.59-40.4602,48.99c-7.8198,8.24-10.2699,16.66-5.1799,27.25c4.27,8.91,4.3999,18.7,4.71,28.41
		c1.5,45.82-6.45,90.23-18.3799,134.2901c-24.22,89.51-68.8101,167.25-131.8701,235.0299c-27.3699,29.42-53.7,59.9301-83.28,87.05
		c-26.3799,24.1899-57.6099,42.02-88.8398,59.45c-70.6201,39.3401-146.75,62.8101-225.7001,77.8301
		c-24.9501,4.73-50.48,2.65-75.77,2.9399c-14.9,0.1801-29.7799,0.05-44.6801,0.05c-21.5798,0.02-43.2-0.5601-64.76,0.13
		c-2.95,0.09-5.8999,0.14-8.8198,0.14c-38.2301,0-75.4401-7.75-112.8801-14.3c-49.2-8.58-97.1799-21.8-144.6699-36.9
		c-38.61-12.2899-77.0701-25.14-115.14-39.01c-42.58-15.5199-86.83-23.4299-131.22-30.71c-39.67-6.51-79.71-12.05-119.98-8.78
		c-72,5.8301-142.46,18.5801-206.64,54.4401c-8.42,4.71-16.26,10.5-24.66,15.23c-4.72,2.66-19.29,3.64-19.29,3.64
		s6.69-15.14,9.86-17.8201c17.13-14.46,36.1201-26.3199,55.4901-37.33c47.29-26.85,95.84-51,148.4-66.22
		c37.15-10.74,75.37-11.79,113.48-15.3c41.91-3.84,83.42-0.27,124.74,3.51c32.4,2.95,64.65,9.49,96.42,17.5601
		c9.7,2.48,19.66,3.84,29.56,5.47c2.36,0.4,5.78,1.34,6.9-1.72c1.0701-2.9301-1.9-4.5801-3.98-5.99
		c-11.32-7.79-22.99-15.14-34.07-23.3201c-7.0099-5.16-16.91-10.36-14.61-20.51c2.24-9.85,13.16-10.63,21.67-12.9299
		c4.67-1.25,9.39-2.39,14.03-3.7101c2.68-0.76,6.7-0.0599,7.02-4.0399c0.29-3.66-3.42-4.38-6.01-5.7001
		c-31.08-16.01-61.9-32.41-91.24-51.6c-59.46-38.92-112.79-85.11-162.04-136.11c-46.67-48.3201-85.07-103.39-125.62-156.6
		c-12.64-16.6-21.31-36.59-28.57-56.63c-1.16-3.17-2.88-13.15-2.88-13.15s9.52,2.18,12.73,3.34c7.82,2.79,12.45,9.14,17.14,15.44
		c28.17,37.93,55.33,76.71,86.2,112.48c48.5,56.13,104.1,104.1,169.49,139.9299c54.58,29.89,111.03,55.67,170.05,75.4801
		c17.22,5.7899,34.9399,10.23,52.49,14.99c10.1699,2.75,17.99,0.2699,22.75-10.3c9.8201-21.8,21.4399-42.4,39-59.3099
		c8.3301-8.02,6.86-12.7301-4.16-17.13c-21.98-8.8-41.08-22.4701-60.62-35.3401c-3.6499-2.4099-6.62-5.99-9.5-9.36
		c-11.1699-12.98-10.8999-19.73,1.3-31.41c7.53-7.22,15.4099-14.0299,22.98-21.1799c7.9399-7.5,7.22-11.77-2.9399-16.35
		C1103.1,1091.85,1090.61,1086.98,1078.5,1081.3c-18.29-8.53-22.0701-20.35-12.26-37.9301c4.15-7.4399,9.13-14.4299,13.62-21.71
		c3.62-5.9,3.2201-10.2599-5.0499-9.7599c-35.6001,2.14-70.5001-4.45-105.23-10.17c-44.46-7.35-83.69-27.72-119.18-55.27
		c-7.58-5.87-7-12.55-0.5-18.98c5.03-4.96,10.28-9.72,15.35-14.66c10.08-9.81,9.38-13.8-4.22-18.05
		c-23.59-7.39-45.82-17.62-66.6201-30.89c-25.46-16.24-49.61-34.25-70.19-56.54c-4.59-4.9901-9.73-12.32-9.73-12.32
		s8.5-4.7,15.65-6.63c12.58-3.39,25.14-6.74,38.4-6.01c3.89,0.2,9.14,1.01,10.48-4.06c1.32-4.92-3.66-6.73-6.79-9.1
		c-47.69-36.0699-90.85-77.29-129.1-122.8799c-42.73-50.96-75.64-108.4101-98.49-171.3c-12.22-33.5801-25.47-66.79-33.04-101.78
		c-3.13-14.47-5.99-28.9399-7.95-43.8501c-0.91-6.9199-5.21-49.73-5.21-49.73S526.41,314.65,530.9,320.52
		c15.17,19.75,30.18,39.63,45.15,59.53c39,51.85,82.34,99.8199,128.09,145.74c39.45,39.61,81.58,76.09,124.79,111.4299
		c57.28,46.8701,120.03,84.3101,190.8,106.52c62.41,19.59,126.23,21.71,190.9299,11.81c39-5.96,77.2301-15.63,116.0701-22.07
		c10.23-1.7,12.54-5.43,9.16-16.66c-6.01-19.95-12.84-39.65-18.4301-59.72c-11.03-39.71-21.53-79.5699-31.99-119.4401
		c-1.2-4.5798-1.1799-9.6099-1-14.3899c0.1101-2.88,0.24-9.67,0.24-9.67s5.67,2.29,7.64,2.88c9.12,2.72,7.67-2.79,6.01-7.5701
		c-5.0199-14.3899-10.7899-28.5499-15.72-42.96c-7.7101-22.52-6.86-46.24-9.2999-69.5C1272.96,392.77,1272.78,376.8,1272.78,376.8
		s13.1399,10.58,15.95,13.71c8.2,9.11,16.0701,18.5601,24.27,27.7c2.12,2.3501,4.75,6.3,8.15,4.4c4.33-2.39,1.5-6.84,0.1801-9.96
		c-9.3401-22.3-19.3-44.35-25.1801-67.9401c-4.78-19.1899-9.9601-38.58-8.4401-58.3199c3.04-39.83-5.25-78.4401-9.97-117.49
		c-5.78-48.16-9.47-96.41,4.8501-143.9701c0.2699-0.9099,0.72-2.3899,1.0099-3.3499c0.1801-0.6001,0.4-1.1602,0.67-1.7201
		c3.24-6.7899,10.45-25.2899,10.45-25.2899s9.05,20.95,10.3701,26.7799c8.1699,35.86,14.7599,72.14,24.5,107.55
		C1353,213.9,1378,298.45,1424.87,374.4299c33.02,53.48,72.76,101.4601,117.6801,145.3301
		c29.0699,28.4199,60.76,53.64,92.8699,78.41c24.9301,19.24,37.01,60.32,28.9001,90.79c-8.4401,31.65-25.4401,59.22-38.8201,88.53
		c-19.97,43.76-29.13,89.13-19.8401,137.41c11.3701,59.13,43.54,103.05,95.05,133.1801c7.8701,4.61,16.47,7.26,26.52,5.9199
		c17.38-2.2999,18.45-16.46,22.1799-28.2999c10.8101-34.3301,20.02-69.2101,31.5701-103.3c12.55-37.15,39.4299-63.2401,71.15-84.77
		c18.34-12.47,38.67-20.76,59.9601-26.34c39.98-10.46,74.1199-0.6,101.6599,30.83c11.1699,12.75,11.5701,13.09,26.97,5.2
		c18.49-9.45,37.5-16.04,58.55-16.17C2107.03,831.09,2119.26,830.71,2119.26,830.71z"/>
</g>
</svg>
