<?xml version="1.0" encoding="iso-8859-1"?>
<!-- Generator: Adobe Illustrator 19.0.0, SVG Export Plug-In . SVG Version: 6.00 Build 0)  -->
<svg xmlns="http://www.w3.org/2000/svg" xmlns:xlink="http://www.w3.org/1999/xlink" version="1.1" id="Layer_1" x="0px" y="0px" viewBox="0 0 490 490" style="enable-background:new 0 0 490 490;" xml:space="preserve" width="512" height="512">
<g>
	<path style="fill:#557FB1;" d="M246.725,216.231h-36.36c0-20.081,16.279-36.36,36.36-36.36h25.372v35.301L246.725,216.231"/>
	<path style="fill:#557FB1;" d="M246.725,237.876c-20.081,0-36.36,16.279-36.36,36.36h36.36h40.738v-36.36H246.725z"/>
	<path style="fill:#557FB1;" d="M420.479,254.446H490c0-38.395-31.126-69.521-69.521-69.521h-27.902v71.131L420.479,254.446z"/>
	<path style="fill:#6EADE3;" d="M420.479,212.63c0,113.507-86.877,205.523-86.877,205.523s-86.877-92.016-86.877-205.523   S333.602,7.108,333.602,7.108S420.479,99.123,420.479,212.63z"/>
	<g>
		<path style="fill:#D4E9F4;" d="M397.98,108.975C372.238,48.041,333.602,7.108,333.602,7.108s-38.636,40.934-64.378,101.867    C305.571,142.441,361.633,142.441,397.98,108.975z"/>
	</g>
	<circle style="fill:#557FB1;" cx="333.602" cy="80.746" r="15.596"/>
	<g>
		<path style="fill:#557FB1;" d="M95.261,431.723c-38.987,0-70.705-31.718-70.705-70.705V44.993c0-4.142,3.357-7.5,7.5-7.5    s7.5,3.358,7.5,7.5v316.025c0,30.716,24.989,55.705,55.705,55.705s55.705-24.989,55.705-55.705v-60.181c0-4.142,3.357-7.5,7.5-7.5    s7.5,3.358,7.5,7.5v60.181C165.966,400.005,134.248,431.723,95.261,431.723z"/>
	</g>
	<circle style="fill:#FF638E;" cx="32.056" cy="179.871" r="32.056"/>
	<path style="fill:#6393CF;" d="M307.639,385.247l-43.327,97.645h39.786c16.295,0,29.504-13.209,29.504-29.504v-35.235   L307.639,385.247z"/>
	<path style="fill:#557FB1;" d="M359.565,385.247l43.327,97.645h-39.786c-16.295,0-29.504-13.209-29.504-29.504v-35.235   L359.565,385.247z"/>
	<g>
		<path style="fill:#557FB1;" d="M333.602,206.678c-1.919,0-3.839-0.732-5.304-2.197l-38.614-38.614    c-2.929-2.929-2.929-7.678,0-10.606c2.93-2.929,7.678-2.929,10.607,0l33.311,33.311l33.311-33.311c2.93-2.93,7.678-2.929,10.607,0    c2.929,2.929,2.929,7.678,0,10.606l-38.614,38.614C337.441,205.945,335.521,206.678,333.602,206.678z"/>
	</g>
	<g>
		<path style="fill:#557FB1;" d="M333.602,264.683c-1.919,0-3.839-0.732-5.304-2.197l-38.614-38.614    c-2.929-2.929-2.929-7.678,0-10.606c2.93-2.929,7.678-2.929,10.607,0l33.311,33.311l33.311-33.311    c2.93-2.929,7.678-2.929,10.607,0c2.929,2.929,2.929,7.678,0,10.606l-38.614,38.614    C337.441,263.951,335.521,264.683,333.602,264.683z"/>
	</g>
	<g>
		<path style="fill:#AEADB1;" d="M165.966,317.762h-58.022c-2.191,0-4.342-0.848-5.8-2.483c-2.3-2.58-2.522-6.274-0.738-9.06    l50.744-79.253c1.796-2.806,5.229-4.092,8.423-3.154c3.197,0.936,5.394,3.867,5.394,7.198V317.762z M121.43,302.762h29.536    v-46.131L121.43,302.762z"/>
	</g>
	<polygon style="fill:#AEADB1;" points="158.466,231.009 158.466,310.262 107.722,310.262  "/>
	<path style="opacity:0.31;fill:#557FB1;" d="M341.776,16.538c20.413,37.496,39.195,86.591,39.195,140.338   c0,102.918-68.858,188.798-86.187,208.781c20.074,32.636,38.818,52.496,38.818,52.496s86.877-92.016,86.877-205.523   C420.479,120.622,363.4,42.742,341.776,16.538z"/>
</g>















</svg>
