<?xml version="1.0" encoding="iso-8859-1"?>
<!-- Generator: Adobe Illustrator 19.0.0, SVG Export Plug-In . SVG Version: 6.00 Build 0)  -->
<svg version="1.1" id="Layer_1" xmlns="http://www.w3.org/2000/svg" xmlns:xlink="http://www.w3.org/1999/xlink" x="0px" y="0px"
	 viewBox="0 0 266.139 266.139" style="enable-background:new 0 0 266.139 266.139;" xml:space="preserve">
<g>
	<path style="fill:#1D1D1B;" d="M266.105,230.259c0.281,1.447-1.206,2.853-2.652,2.009c-11.011-6.59-30.581-3.577-37.775-15.793
		c-3.657,12.096-16.838,25.076-29.496,24.955c-1.206-0.04-2.009-1.366-1.407-2.451c5.063-8.841,3.255-19.169,6.952-28.411
		c2.451-6.229,6.832-11.453,12.659-14.628c-30.662-41.11-68.677-68.838-111.234-96.204c-0.04,0.08-0.08,0.201-0.161,0.281
		c-4.862,5.144-6.55,11.373-8.238,18.084c-0.804,3.175-1.286,7.635-3.094,10.408c-2.09,3.134-4.219,2.692-7.394,0.603
		c-11.533-7.676-13.824-26.322-11.252-39.02c-0.12-0.04-0.201,0-0.321-0.04c-11.051-3.657-22.705-3.858-33.756-7.274
		c-5.506-1.688-10.931-4.34-12.659-10.127c-0.804,0.121-1.648,0.241-2.492,0.322c-0.522,0.04-0.844-0.322-0.965-0.723
		c-0.201-0.121-0.402-0.322-0.402-0.643c-0.764-7.756,2.451-10.73,9.162-14.065c10.328-5.104,19.008-6.791,28.251-14.788
		c4.621-4.019,8.801-8.359,14.065-11.493c18.566-11.091,43.441-7.836,58.269,7.756c13.623-13.824,43.079-19.169,55.738-2.009
		c0.241,0.362,0.321,0.683,0.241,0.964c0.362,0.442,0.402,1.125-0.241,1.567c-25.036,18.003-3.818,34.198,7.515,49.509
		c6.55,8.841,11.774,18.526,16.114,28.612c10.328,24.152,14.387,49.991,17.32,75.911
		C248.142,196.865,262.287,211.091,266.105,230.259z M261.765,227.366c-4.3-16.195-17.24-27.688-34.037-30.541
		c-0.844-0.161-1.206-0.804-1.206-1.447c-0.482-0.241-0.844-0.683-0.924-1.326c-5.224-43.601-14.266-84.752-45.45-117.423
		c-13.985-14.668-13.944-28.532,5.184-38.176c-14.989-13.502-37.775-9.162-52.724,2.612c-0.482,0.643-1.407,0.924-2.21,0.281
		c-22.866-18.767-47.017-15.23-68.356,3.617c-5.465,4.822-10.488,9.202-17.4,11.855c-6.43,2.451-19.209,4.903-20.374,13.824
		c7.716-2.13,17.682-3.094,25.237-0.683c0.241,0.08,0.241,0.442,0,0.482c-3.978,0.764-7.957,0.683-11.975,0.924
		c-3.255,0.201-6.47,0.683-9.685,1.085c9.403,12.498,32.028,9.845,45.611,14.708c0.402,0.161,0.683,0.402,0.844,0.723
		c0.402,0.04,0.763,0.362,0.723,0.844c-0.201,6.59-0.482,13.101,1.005,19.651c1.125,4.903,4.782,17.682,11.051,16.637
		c4.179-0.683,3.657-3.737,4.661-7.756c0.643-2.532,1.246-5.104,2.09-7.595c1.567-4.461,3.778-8.318,7.073-11.734
		c0.442-0.442,0.884-0.482,1.326-0.362c0.121-0.04,0.241-0.08,0.402-0.04c45.932,19.329,85.033,57.506,114.288,96.968
		c0.201,0.281,0.281,0.563,0.241,0.844c0.362,0.281,0.482,0.764,0,1.165c-8.559,6.831-13.181,14.226-14.668,25.196
		c-0.764,5.706-1.326,11.091-3.577,16.275c11.694-1.768,21.7-15.029,24.714-25.156c0.482-1.607,2.572-1.125,2.733,0.322
		C234.278,224.874,249.91,222.182,261.765,227.366z"/>
	<path style="fill:#99D9F1;" d="M227.727,196.825c16.798,2.853,29.737,14.346,34.037,30.541
		c-11.855-5.184-27.487-2.492-35.404-14.226c-0.161-1.447-2.25-1.929-2.733-0.322c-3.014,10.127-13.02,23.388-24.714,25.156
		c2.25-5.184,2.813-10.569,3.577-16.275c1.487-10.971,6.108-18.365,14.668-25.196c0.482-0.402,0.362-0.884,0-1.165
		c0.04-0.281-0.04-0.563-0.241-0.844c-29.255-39.462-68.356-77.639-114.288-96.968c-0.161-0.04-0.281,0-0.402,0.04
		c-0.442-0.12-0.884-0.08-1.326,0.362c-3.295,3.416-5.506,7.274-7.073,11.734c-0.844,2.492-1.447,5.063-2.09,7.595
		c-1.005,4.019-0.482,7.073-4.661,7.756c-6.269,1.045-9.926-11.734-11.051-16.637c-1.487-6.55-1.206-13.06-1.005-19.651
		c0.04-0.482-0.321-0.804-0.723-0.844c-0.161-0.321-0.442-0.563-0.844-0.723c-13.583-4.862-36.207-2.21-45.611-14.708
		c3.215-0.402,6.43-0.884,9.685-1.085c4.019-0.241,7.997-0.161,11.975-0.924c0.241-0.04,0.241-0.402,0-0.482
		c-7.555-2.411-17.521-1.447-25.237,0.683C25.431,61.721,38.21,59.27,44.64,56.818c6.912-2.652,11.935-7.033,17.4-11.855
		c21.339-18.847,45.49-22.383,68.356-3.617c0.804,0.643,1.728,0.362,2.21-0.281c14.949-11.774,37.734-16.115,52.724-2.612
		c-19.128,9.645-19.169,23.509-5.184,38.176c31.184,32.671,40.226,73.821,45.45,117.423c0.08,0.643,0.442,1.085,0.924,1.326
		C226.522,196.021,226.883,196.664,227.727,196.825z M246.896,213.743c0.603,0.643,1.447-0.281,0.924-0.964
		c-1.085-1.406-2.25-2.733-3.416-4.099c-0.683-0.764-1.768,0.362-1.125,1.125C244.445,211.171,245.61,212.457,246.896,213.743z
		 M244.605,208.117c0.522,0.281,0.924-0.442,0.482-0.763c-1.487-1.085-2.974-2.09-4.501-3.094c-0.603-0.402-1.206,0.603-0.563,1.005
		C241.551,206.228,243.038,207.193,244.605,208.117z M214.707,223.588c0.362-0.683-0.603-1.246-1.045-0.603
		c-1.406,2.049-3.054,3.818-4.903,5.465c-0.482,0.442,0.161,1.206,0.723,0.884C211.854,227.969,213.542,226.04,214.707,223.588z
		 M212.216,220.816c0.522-0.603-0.281-1.447-0.884-0.884c-1.447,1.406-2.733,2.974-4.019,4.501
		c-0.482,0.603,0.281,1.407,0.844,0.844C209.563,223.829,210.97,222.383,212.216,220.816z M210.005,140.926
		c0,0.884,1.326,0.884,1.326,0c0-3.014-0.643-5.747-1.969-8.439c-0.402-0.764-1.567-0.08-1.206,0.723
		C209.322,135.622,209.925,138.234,210.005,140.926z M184.045,148.763c0.362,0.643,1.246,0.08,0.965-0.563
		c-1.286-2.733-2.853-5.104-4.903-7.314c-0.563-0.643-1.447,0.281-0.924,0.924C181.032,143.94,182.679,146.271,184.045,148.763z
		 M178.62,146.874c0.643,0.563,1.487-0.281,0.924-0.924c-1.406-1.607-3.014-3.014-4.541-4.501c-0.603-0.563-1.487,0.322-0.924,0.924
		C175.566,143.9,177.013,145.467,178.62,146.874z M167.81,55.21c0.281-0.442-0.402-0.884-0.723-0.402
		c-1.286,1.929-1.728,4.139-1.085,6.389c0.201,0.603,1.125,0.362,1.005-0.281C166.565,58.867,166.766,57.019,167.81,55.21z
		 M164.435,66.382c0.362,0.643,1.487,0.201,1.206-0.482c-0.884-2.21-1.567-4.461-1.688-6.872c0-0.643-1.005-0.643-1.045,0
		C162.787,61.68,163.189,64.091,164.435,66.382z M151.053,35.399c0.603-0.241,0.362-1.246-0.321-1.045
		c-2.733,0.844-5.385,1.929-8.037,3.054c-0.442,0.201-0.281,0.924,0.241,0.764C145.668,37.368,148.401,36.484,151.053,35.399z
		 M107.532,36.082c0.683,0.241,1.206-0.924,0.522-1.206c-2.09-0.965-4.099-1.326-6.349-1.165c-0.924,0.08-0.924,1.527,0,1.447
		C103.714,34.997,105.643,35.318,107.532,36.082z M104.518,32.586c0.804,0.201,1.125-0.964,0.362-1.246
		c-2.17-0.804-4.501-0.603-6.47,0.643c-0.482,0.281-0.161,1.125,0.402,0.924C100.741,32.224,102.509,32.104,104.518,32.586z
		 M84.626,103.915c0.12-0.723-0.924-1.045-1.125-0.322c-0.643,2.371-0.804,4.742-0.563,7.193c0.08,0.844,1.407,0.884,1.366,0
		C84.104,108.456,84.264,106.206,84.626,103.915z M81.572,114.966c0.241,0.643,1.286,0.321,1.045-0.322
		c-0.884-2.21-1.246-4.501-1.165-6.872c0-0.402-0.643-0.482-0.683-0.08C80.407,110.225,80.688,112.555,81.572,114.966z"/>
	<path style="fill:#1D1D1B;" d="M247.82,212.778c0.522,0.683-0.322,1.607-0.924,0.964c-1.286-1.286-2.451-2.572-3.617-3.938
		c-0.643-0.764,0.442-1.889,1.125-1.125C245.57,210.046,246.735,211.372,247.82,212.778z"/>
	<path style="fill:#1D1D1B;" d="M245.088,207.353c0.442,0.322,0.04,1.045-0.482,0.763c-1.567-0.924-3.054-1.889-4.581-2.853
		c-0.643-0.402-0.04-1.406,0.563-1.005C242.114,205.264,243.601,206.268,245.088,207.353z"/>
	<path style="fill:#1D1D1B;" d="M213.662,222.986c0.442-0.643,1.407-0.08,1.045,0.603c-1.165,2.451-2.853,4.38-5.224,5.747
		c-0.563,0.321-1.206-0.442-0.723-0.884C210.608,226.803,212.256,225.035,213.662,222.986z"/>
	<path style="fill:#1D1D1B;" d="M211.332,219.931c0.603-0.563,1.407,0.281,0.884,0.884c-1.246,1.567-2.652,3.014-4.059,4.461
		c-0.563,0.563-1.326-0.241-0.844-0.844C208.599,222.905,209.885,221.338,211.332,219.931z"/>
	<path style="fill:#1D1D1B;" d="M211.332,140.926c0,0.884-1.326,0.884-1.326,0c-0.08-2.692-0.683-5.304-1.849-7.716
		c-0.362-0.804,0.804-1.487,1.206-0.723C210.689,135.18,211.332,137.912,211.332,140.926z"/>
	<path style="fill:#1D1D1B;" d="M185.01,148.2c0.281,0.643-0.603,1.206-0.965,0.563c-1.366-2.492-3.014-4.822-4.862-6.952
		c-0.522-0.643,0.362-1.567,0.924-0.924C182.157,143.096,183.724,145.467,185.01,148.2z"/>
	<path style="fill:#1D1D1B;" d="M179.545,145.95c0.563,0.643-0.281,1.487-0.924,0.924c-1.608-1.407-3.054-2.974-4.541-4.501
		c-0.563-0.603,0.321-1.487,0.924-0.924C176.531,142.936,178.138,144.342,179.545,145.95z"/>
	<path style="fill:#1D1D1B;" d="M98.169,197.749c2.692-12.337,13.101-21.459,24.915-25.076c1.366-0.402,2.652,0.964,2.291,2.29
		c-3.577,12.699,6.671,18.084,15.753,23.79c2.974-6.872,8.961-11.574,15.914-14.145c1.326-0.482,2.773,1.045,2.331,2.331
		c-1.406,3.898,1.447,6.671,5.023,8.68c-1.045-1.206-1.808-2.612-2.009-4.38c-0.402-3.536,1.487-6.43,3.777-8.921
		c-9.162-2.612-18.485-0.241-25.719,6.47c-0.563,0.482-1.326,0.362-1.808,0c-0.241,0-0.442-0.08-0.643-0.241
		c-9.564-7.274-6.872-19.048,1.527-24.995c-8.399-2.974-16.958-5.023-25.88-2.331c-12.015,3.617-21.379,14.226-24.111,26.241
		c-0.12,0.522-0.563,0.723-1.005,0.764c-0.241,0.442-0.723,0.764-1.366,0.764c-13.623-0.201-16.556-15.552-9.243-24.312
		c-5.787-1.487-11.533-1.085-17.4,0.763c-4.501,1.407-16.115,5.626-17.561,10.85c-0.281,0.964-1.648,0.884-1.889,0
		c-0.522,0.884-1.688,1.326-2.692,0.442c-7.555-6.671-4.42-15.391,1.487-21.459c-20.696,1.929-32.309,21.62-36.569,40.989
		c3.858-11.011,13.141-21.258,20.575-28.974c0.723-0.764,2.13-0.402,2.371,0.603c2.13,9.725,8.519,15.753,17.601,19.249
		c0.04,0.04,0.08,0.08,0.161,0.08c6.269-7.555,14.065-12.417,23.509-15.271c1.165-0.321,2.532,0.844,2.09,2.09
		C62.002,193.489,86.033,196.222,98.169,197.749z M172.673,199.437c0.723,0.884,0.08,2.693-1.206,2.532
		c-6.148-0.723-15.713-5.505-16.235-12.417c-5.224,2.492-9.002,6.309-12.337,11.252c-0.161,0.241-0.362,0.402-0.603,0.482
		c-0.322,0.643-0.964,1.085-1.768,0.764c-11.132-4.099-21.097-12.658-19.45-24.754c-10.489,3.978-16.999,12.015-21.459,22.424
		c-0.08,0.121-0.201,0.161-0.281,0.241c-0.201,0.362-0.603,0.643-1.165,0.643c-14.266,0.281-37.614-6.59-32.832-24.473
		c-8.077,2.733-14.547,7.073-20.575,13.462c-0.482,0.482-1.005,0.362-1.366,0.04c-0.08,0-0.161,0-0.241,0
		c-9.403-2.049-16.235-9.604-18.968-18.566C14.703,181.072,5.3,193.208,2.728,206.911c-0.121,0.723-1.206,0.523-1.246-0.161
		c0-0.161,0.04-0.322,0.04-0.482c-0.442,0.442-1.286,0.281-1.366-0.522c-2.09-25.799,17.039-54.974,44.807-54.291
		c1.929,0.04,2.411,2.411,0.965,3.456c-5.827,4.099-12.337,11.091-5.104,19.329c0.201,0.241,0.321,0.482,0.402,0.683
		c1.406-6.108,9.765-9.363,14.949-11.614c8.479-3.617,17.2-4.621,25.92-1.407c1.648,0.643,1.849,2.532,0.442,3.577
		c-9.484,7.153-3.938,17.039,4.943,20.213c1.447-11.413,9.645-21.057,19.812-26.241c12.9-6.59,25.277-3.416,38.096,1.607
		c1.969,0.763,2.17,3.536,0,4.219c-12.578,4.019-10.167,13.543-5.787,20.575c7.836-8.841,20.575-11.212,31.345-6.189
		c1.165,0.563,1.326,2.411,0.402,3.215c-3.818,3.416-6.309,6.832-2.291,11.694c1.125,1.406,2.411,2.25,3.376,3.777
		C172.673,198.754,172.753,199.115,172.673,199.437z"/>
	<path style="fill:#1D1D1B;" d="M167.087,54.809c0.322-0.482,1.005-0.04,0.723,0.402c-1.045,1.808-1.246,3.657-0.804,5.706
		c0.121,0.643-0.804,0.884-1.005,0.281C165.359,58.948,165.801,56.737,167.087,54.809z"/>
	<path style="fill:#1D1D1B;" d="M165.64,65.9c0.281,0.683-0.844,1.125-1.206,0.482c-1.246-2.29-1.648-4.702-1.527-7.354
		c0.04-0.643,1.045-0.643,1.045,0C164.073,61.439,164.756,63.69,165.64,65.9z"/>
	<path style="fill:#66C5EE;" d="M162.385,191.239c0.201,1.768,0.964,3.175,2.009,4.38c-3.577-2.009-6.43-4.782-5.023-8.68
		c0.442-1.286-1.005-2.813-2.331-2.331c-6.952,2.572-12.94,7.274-15.914,14.145c-9.082-5.706-19.329-11.091-15.753-23.79
		c0.362-1.326-0.924-2.692-2.291-2.29c-11.815,3.617-22.223,12.739-24.915,25.076c-12.136-1.527-36.167-4.26-28.572-23.71
		c0.442-1.246-0.924-2.411-2.09-2.09c-9.444,2.853-17.24,7.716-23.509,15.271c-0.08,0-0.121-0.04-0.161-0.08
		c-9.082-3.496-15.472-9.524-17.601-19.249c-0.241-1.005-1.648-1.366-2.371-0.603c-7.434,7.716-16.717,17.963-20.575,28.974
		c4.26-19.369,15.873-39.06,36.569-40.989c-5.907,6.068-9.042,14.788-1.487,21.459c1.005,0.884,2.17,0.442,2.692-0.442
		c0.241,0.884,1.607,0.964,1.889,0c1.447-5.224,13.06-9.444,17.561-10.85c5.867-1.848,11.614-2.25,17.4-0.763
		c-7.314,8.76-4.38,24.111,9.243,24.312c0.643,0,1.125-0.321,1.366-0.764c0.442-0.04,0.884-0.241,1.005-0.764
		c2.733-12.016,12.096-22.625,24.111-26.241c8.921-2.692,17.481-0.643,25.88,2.331c-8.399,5.947-11.091,17.722-1.527,24.995
		c0.201,0.161,0.402,0.241,0.643,0.241c0.482,0.362,1.246,0.482,1.808,0c7.233-6.711,16.557-9.082,25.719-6.47
		C163.872,184.809,161.984,187.703,162.385,191.239z"/>
	<path style="fill:#1D1D1B;" d="M150.732,34.354c0.683-0.201,0.924,0.804,0.321,1.045c-2.652,1.085-5.385,1.969-8.117,2.773
		c-0.522,0.161-0.683-0.563-0.241-0.764C145.347,36.283,147.999,35.198,150.732,34.354z"/>
	<path style="fill:#1D1D1B;" d="M108.054,34.876c0.683,0.281,0.161,1.447-0.522,1.206c-1.889-0.764-3.818-1.085-5.827-0.924
		c-0.924,0.08-0.924-1.366,0-1.447C103.955,33.55,105.965,33.912,108.054,34.876z"/>
	<path style="fill:#1D1D1B;" d="M104.88,31.34c0.764,0.281,0.442,1.447-0.362,1.246c-2.009-0.482-3.777-0.362-5.706,0.322
		c-0.563,0.201-0.884-0.643-0.402-0.924C100.379,30.737,102.71,30.536,104.88,31.34z"/>
	<path style="fill:#1D1D1B;" d="M83.501,103.594c0.201-0.723,1.246-0.402,1.125,0.322c-0.362,2.29-0.522,4.541-0.321,6.872
		c0.04,0.884-1.286,0.844-1.366,0C82.697,108.336,82.858,105.965,83.501,103.594z"/>
	<path style="fill:#1D1D1B;" d="M82.617,114.645c0.241,0.643-0.804,0.965-1.045,0.322c-0.884-2.411-1.165-4.742-0.804-7.274
		c0.04-0.402,0.683-0.321,0.683,0.08C81.371,110.144,81.733,112.435,82.617,114.645z"/>
</g>
<g>
</g>
<g>
</g>
<g>
</g>
<g>
</g>
<g>
</g>
<g>
</g>
<g>
</g>
<g>
</g>
<g>
</g>
<g>
</g>
<g>
</g>
<g>
</g>
<g>
</g>
<g>
</g>
<g>
</g>
</svg>
