<?xml version="1.0" encoding="iso-8859-1"?>
<!-- Generator: Adobe Illustrator 16.0.0, SVG Export Plug-In . SVG Version: 6.00 Build 0)  -->
<!DOCTYPE svg PUBLIC "-//W3C//DTD SVG 1.1//EN" "http://www.w3.org/Graphics/SVG/1.1/DTD/svg11.dtd">
<svg version="1.1" id="Capa_1" xmlns="http://www.w3.org/2000/svg" xmlns:xlink="http://www.w3.org/1999/xlink" x="0px" y="0px"
	 width="575.006px" height="575.006px" viewBox="0 0 575.006 575.006" style="enable-background:new 0 0 575.006 575.006;"
	 xml:space="preserve">
<g>
	<g>
		<path d="M75.397,7.441c2.317,1.501,3.75,3.187,3.419,6.365c-0.163,1.55,0.926,3.843,2.203,4.843
			c11.673,9.147,19.458,22.007,30.51,31.738c2.211,1.946,4.047,4.308,2.697,7.768c-0.314,0.804,0.212,2.061,0.625,2.987
			c0.571,1.281,1.273,2.546,2.134,3.651c5.239,6.744,10.608,13.387,15.785,20.171c2.338,3.064,4.166,6.52,6.536,9.56
			c2.958,3.794,6.345,7.246,9.352,11.008c4.61,5.769,8.923,11.779,13.607,17.487c4.435,5.406,9.702,10.2,13.631,15.933
			c2.917,4.255,6.471,8.633,6.279,14.463c-0.053,1.62,0.049,3.456,0.759,4.847c2.028,3.978,2.04,8.348,3.064,12.493
			c1.175,4.773,1.983,9.42,1.387,14.255c-0.739,6.022,2.946,10.743,4.529,16.075c0.465,1.571,1.322,3.06,1.575,4.651
			c1.473,9.286,4.798,17.903,9.106,26.193c3.995,7.687,7.699,15.545,12.024,23.04c2.244,3.889,5.749,7.022,8.332,10.739
			c3.068,4.423,6.1,8.939,8.474,13.746c1.199,2.428,1.256,5.594,1.211,8.413c-0.049,3.142-0.779,6.271-1.24,9.404
			c-0.563,3.827-0.53,7.895-1.934,11.383c-0.971,2.42-3.696,4.391-6.042,5.957c-14.961,9.968-30.11,19.657-45.047,29.666
			c-7.128,4.773-13.95,10.012-20.861,15.108c-1.216,0.897-2.627,1.938-3.187,3.239c-3.019,7.046-9.702,10.322-15.026,14.974
			c-5.227,4.562-10.677,8.878-15.896,13.451c-1.881,1.653-4.455,3.733-2.056,6.492c2.477,2.844,5.006,0.575,7.12-1.013
			c9.131-6.854,18.054-13.986,27.308-20.665c7.144-5.157,14.721-9.71,22.007-14.672c5.149-3.504,9.804-7.919,15.316-10.636
			c3.843-1.894,8.821-2.375,13.19-2.061c4.594,0.33,6.365,8.348,3.387,13.378c-7.764,13.117-16.989,25.125-27.691,35.97
			c-7.348,7.445-14.859,14.736-22.297,22.093c-0.253,0.249-0.51,0.489-0.751,0.747c-1.803,1.938-3.235,4.251-1.277,6.581
			c1.905,2.264,4.435,1.158,6.304-0.4c5.324-4.438,10.616-8.923,15.716-13.614c12.293-11.318,24.737-22.493,36.61-34.235
			c10.951-10.829,21.252-22.318,31.815-33.538c1.934-2.052,3.558-4.443,5.696-6.246c1.363-1.15,3.403-2.113,5.137-2.105
			c6.471,0.024,12.962,0.261,19.4,0.873c2.97,0.281,5.928,1.407,8.715,2.57c1.285,0.539,2.75,1.918,3.109,3.203
			c2.231,7.972,9.073,12.966,12.623,20.032c3.293,6.561,9.359,9.984,15.026,13.917c1.053,0.734,2.362,1.493,2.86,2.562
			c1.755,3.77,5.076,5.292,8.548,6.907c3.586,1.669,6.965,3.79,10.444,5.684c5.264,2.864,10.56,5.667,15.807,8.56
			c8.318,4.582,16.332,9.841,25.002,13.611c5.753,2.505,9.56,6.96,14.301,10.444c0.734,0.543,1.338,1.33,1.84,2.109
			c4.646,7.186,9.103,14.496,13.925,21.563c4.166,6.1,8.825,11.86,13.085,17.898c1.75,2.48,2.827,5.442,4.577,7.924
			c1.812,2.565,4.125,4.773,6.112,7.226c1.023,1.265,1.754,2.758,2.721,4.071c2.836,3.852,5.758,7.638,8.568,11.502
			c1.44,1.979,2.697,4.092,4.076,6.12c1.979,2.9,3.811,5.94,6.087,8.592c0.991,1.159,2.962,1.44,4.419,2.248
			c1.437,0.796,3.312,1.433,4.08,2.693c5.446,8.931,10.804,17.923,15.883,27.066c2.791,5.019,4.766,10.49,7.573,15.496
			c1.016,1.812,3.447,2.799,5.12,4.288c1.229,1.094,2.518,2.244,3.342,3.627c1.008,1.693,1.338,3.795,2.366,5.472
			c1.399,2.284,3.166,2.142,4.003-0.367c0.926-2.774,1.913-5.721,1.885-8.585c-0.131-13.668-1.449-27.226-4.61-40.571
			c-1.053-4.443-1.607-9.005-2.677-13.439c-1.461-6.034-3.023-12.057-4.847-17.988c-3.962-12.894-8.091-25.741-12.204-38.585
			c-2.154-6.72-4.508-13.378-6.621-20.11c-1.787-5.704-2.84-11.689-5.142-17.164c-3.215-7.65-7.466-14.855-10.938-22.408
			c-3.423-7.445-6.426-15.088-9.616-22.64c-4.084-9.665-9.024-18.764-19-23.517c-3.86-1.841-8.238-2.632-12.412-3.771
			c-17.356-4.729-34.275-10.551-50.922-17.507c-12.277-5.129-17.622-14.443-21.017-25.97c-1.591-5.397-3.133-10.84-4.202-16.356
			c-1.641-8.499,2.252-15.978,5.451-23.358c4.067-9.372,10.126-17.295,18.898-23.04c6.467-4.231,12.562-9.025,18.935-13.651
			c-10.506-1.579-18.188,5.132-27.188,7.499c-3.48,0.918-6.748,1.795-10.62,1.159c-7.238-1.191-13.819,2.142-20.278,4.912
			c-0.216,0.094-0.387,0.192-0.53,0.298c-5.014-1.893-10.637-1.803-15.716,0.012c0.065-0.118,0.135-0.253,0.229-0.412
			c-3.668-1.497-7.328-2.823-10.845-4.455c-10.89-5.055-20.322-12.228-28.878-20.543c-5.308-5.161-6.589-12.113-7.16-19.074
			c-1.306-15.941-2.416-31.902-3.419-47.863c-0.277-4.443-0.094-8.935,0.212-13.382c0.327-4.778-1.665-8.743-3.966-12.57
			c-3.859-6.422-9.225-11.408-15.116-16.043c-6.626-5.214-12.962-10.865-18.935-16.817c-7.871-7.846-16.263-14.798-25.778-20.665
			c-10.681-6.589-20.673-14.289-31.069-21.355c-7.087-4.818-14.292-9.461-21.547-14.023c-6.046-3.803-12.191-7.462-18.376-11.037
			c-15.08-8.71-30.988-15.463-47.944-19.641c-0.681-0.167-1.473-0.494-2.061-0.298c-1.367,0.465-2.64,1.204-3.953,1.832
			c0.567,1.085,0.963,2.326,1.75,3.219C73.153,6.062,74.316,6.74,75.397,7.441z"/>
	</g>
</g>
<g>
</g>
<g>
</g>
<g>
</g>
<g>
</g>
<g>
</g>
<g>
</g>
<g>
</g>
<g>
</g>
<g>
</g>
<g>
</g>
<g>
</g>
<g>
</g>
<g>
</g>
<g>
</g>
<g>
</g>
</svg>
