<?xml version="1.0" encoding="UTF-8" standalone="no"?>
<svg id="svg2" xmlns:rdf="http://www.w3.org/1999/02/22-rdf-syntax-ns#" xmlns="http://www.w3.org/2000/svg" height="1225pt" width="864pt" version="1.1" xmlns:cc="http://creativecommons.org/ns#" xmlns:dc="http://purl.org/dc/elements/1.1/" viewBox="0 0 864 1225">
<path id="path4" d="m633.3 7.7617c-8.37-0.0075-16.72 0.3231-24.84 0.5762-37.91 0.2125-76.67 10.661-104.14 38.486-20.17 13.45-26.86 47.438-56.68 43.338 2.25 14.628 22.25 5.639 31.2 1.076-9.91 15.202-20.63 30.022-34.72 41.662-4.38 3.46 3.32 5.99 5.7 3.34 10.77-3.86 16.82-15.12 25.06-20.99-11.74 21.74-10.86 51.28-33.68 66.24 10.54 9.67 20.58-13.2 28.89-16.25-1.49 18.95-2.95 38.37 1.5 57.02 7.57 0.25 1.8-16.2 8.3-16.94 1.03 7.54 1.17 15.25 3.08 22.65 3.74 0.88 9.13-4.13 11.29 1.52 12.61 29.42 40.74 46.31 65.1 64.73 6.54 2.98 3.9 15.86 12.86 12.81-0.51-23.97-31.38-30.75-43.98-47.75-36.2-34.64-33.84-90.6-21.46-135.17 1.62-16.58 16.16-29.359 14.22-46.559 11.96-16.413 30.3-25.926 46.22-37.801 12.78-17.65 36.64-17.363 55.94-20.15 15.94-8.45 36.98 3.45 51.13-7.063-13.03-3.8124-27.03-4.7628-40.99-4.7753zm45.3 18.547c-4.08-0.016-8.18 0.22-12.31 0.779-11.55 1.475-20.57 14.75-14.17 25.662 3.36 4.012-1.01 8.087-1.8 12.225 3.07 8.975 16.42 12.412 15.83 22.937-13.02 14.408-34.61 12.228-51.75 7.5-18.81-1.175-36.26-21.711-25.3-40.111 8.5-5.5 24.25-4.677 28.14 6.336-1.05 3.962-18.22-0.512-11.64 6.451 7.61 11.15 25.99-5.788 16.19-14.801-2.28-1.15-4.53-7.187-0.18-5.074 14.69 8.262 4.25 33.9-12.06 30.025-7.22-0.4-9.34-11.326-16.66-10.351-0.07 31.95 50.97 22.413 50.68-4.487 0.82-23.525-27.04-36.663-47.54-32.55-21.43 1.662-34.79 20.088-47.12 35.338-10.92 48.512-11.46 107.51 24.78 146.37 31.05 32.04 78.44 39.03 110.77 69.23 17.45 19.33 25.05 44.88 34.1 68.75 1.25 3.02-0.36 11.48-2.53 6.15-12.53-46.05-51.61-77.51-91.84-99.63-45.63-26.36-95.94-68.7-89.8-127.34 3.91-5.47-7.44-12.02-5.61-2.42-21.5 51.39 18.32 100.73 57.65 130 28.6 24.5 67.12 37.63 88.46 70.31 28.95 43.37 43.49 97.07 38.2 149.07-7.74 55.12-21.4 112.57-58.03 156.11-0.25 4.4 5.7 4.1 7.69 1.36 54.65-48.64 84-125.71 74.5-198.03 10.77 13.07 9.05 32.57 20.89 44.95 9.55 0.4-1.19-16.08-0.8-20.92-20.04-50.21-16.39-105.45-33.78-156.19-17.8-46.16-57.95-79.5-100.94-101.57-16.68-9.72-32.37-23.12-40.12-41.13 4.26-10.16 3.85-21.09 5.39-31.79 1.7-10.92 16.53-11.33 19.08-21.67 21.88 2.36 44.45 5.48 65.78-3.74 36.49-18.41 78.93-9.961 117.75-17.548 78.81-5.725 158.21-10.35 237.1-2.95 16-2.162 30.9-9.849 46.6-13.761-103.28-12.1-207.23-20.489-310.69-32.139-28.97 1.116-56.37-11.244-84.91-11.353zm-135.42 43.836c-0.39-0.044-0.88 0.007-1.49 0.179-35.31 38.976-47.41 100.86-19.1 147.08 17.31 25.2 46.49 38.53 67.56 60.09 3.06-7.48-5.23-13.15-9.49-18.19-18.34-20.84-45.35-35.35-54.11-63.31-15.5-39.45-5.31-83.29 15.79-118.72 1.34-1.788 3.57-6.818 0.84-7.125zm-28.08 154.06c-3.6 5.32 2.54 12.14 4.59 17.38 23.13 34.67 66.98 47.46 91.07 81.37 23.98 30.77 31.78 80.04 6.53 112.05-23.89-27.17-62.5-41.24-98.93-35.47-56.85 7.8-111.26 32.86-154.66 70.4-53.81 50.96-108.56 102.68-146.98 166.78-21.06 34.54-34.21 73.25-45.62 111.88-5.91 38.64-22.74 74.51-26.24 113.86-4.95-6.98-1.35-19.62 1.88-28.36 3.22-35.99 15.75-70.37 25.01-105.07 0.53-2.58 2.96-8.03-1.2-7.6-10.42 15.85-18.9 32.86-28.79 49.07-24.05 41.3-32.91 88.56-45.822 133.68-6.7-13.68 8.662-22.72 4.812-36.53 4.46-4.11 8.1-16.29 0.71-17.77-12.585 30.86-20.348 63.46-31.636 94.91-11.362 24.1-34.386 43.38-61.449 45.93-3.4625 0.32-2.7008 5.61 0.8242 5.12 32.925 6.06 65.164-20.93 71.227-52.83 6-5.61 2.275 8.16 0.062 11.25-12.1 37.63-46.626 60.64-75.226 85.14-1.9503 5.6 5.064 4.6 8.414 3.6 21.162-10.3 41.437-23.2 56.937-41.1 15.85-13.39 22.949-38.97 44.107-43.12-8.78 19.43-21.495 37.21-33.908 54.62-1.462 2.2-5.649 7.9-0.824 8.9 19.638-11.3 31.762-34.58 45.112-50.79-10.53 27.53-17.05 60.59-42.25 79.09-0.675 4.6 7.562 3.9 10.062 1.8 36.238-26.2 32.408-79.93 62.838-109.24 5.13 9.24 15.95-2.82 20 2.35-17.17 8.09-36.58 40.64-8.49 47.03-7.62 11.16 12.33 8.16 17.96 9.46 35.55 6.7 70.87 16.1 105 27.6 5.4 13.6 22.12 21.5 33.33 9.7 10.09-0.7-5.5 13.9-10.17 13.3-10.79 4.2-14.29-10.1-23.1-9.9 15.72 52.8 19.37 108.6 27.76 163 8.33 36 11.61 73.1 16.42 109.8 12.1 53.3 9.53 109.1 32.9 159.6 6.34 11.3 22.95 10.7 28.79-0.3-39.09-140.8-56.6-286.3-61.15-432 83.32 14 165.7 34.3 248.45 51.3 6.86 13 6.94 31.1 17.96 43.2 7.68 7.1 7.89 19.7 0.4 26.9-10.43-3.3-24.86-4.8-26.05-20.2-18.05 3.5 0.48 32 15.44 27.8 15.65 1-3.41 6.8-9.61 3-18.9 2.7-17.35-21.7-27.25-30.7-7.91-1.6-9.74 10.2-10.44 15.7-17.44-12.1-11.79 24.9-2.22 29.9 20.31 8.5 48.14 23 67.92 5.8 11.39-1.9 21.93-8.5 26.51-19.4 4.38-13.6 20.99-21.7 16.85-38-6.28-41.4-42.18-69.5-81.93-74.2-74.68-7.5-147.39-25.7-219.13-47.1-5.57-2.1-15.06-1.9-17.66-8.2 6.16-23.09 0.68-47.83 8.95-70.53 5.33-20.23 15.2-38.87 20.95-58.95 5.31-7.22-4.93-4.24-5.05-8.91 49.47-24.4 97.11-52.27 144.61-80.27 22.06-12.58 42.59-27.71 61.31-44.85 2.83-3.09 6.67-6.35 6.18-10.98-9.63 0.5-15.7 8.91-23.24 13.84-90.68 68.72-197.61 110.56-303.88 148.61-24.85 8.4-49 20.66-75 24.48 6.67-18.58 16.39-37.08 21.02-56.88 21.45-3.66 29.09-31.9 50.79-38.26 44.77-19.42 88.83-45.67 117.06-86.66 2.31-7.04 9.4-12.92 6.82-21.02-7.26-1.71-7.07 10.78-11.48 15.08-33.03 47.95-100.94 49.3-136.19 95.04-8.58 8.34-12.5 22.55-23.27 27.96 12.92-42.61 19.03-94.95 58.28-122.76 0.54-2.5-8.75-5.04-2.31-7.32 50.52-28.17 100.56-57.11 148.87-88.82 69.18-39.54 148.16-79.29 181.13-156.52 10.93-23.83-13.1-43.89-35.22-42.18-32.81-3.55-65.19 5.35-93.92 20.69-50.85 25.42-97.27 64.29-123.25 115.47-6.16 10.25-8.15 29 7.03 31 25.88-0.57 46.93-18.11 68.39-30.54 23.09-16.86 56.45-34.07 56.53-66.64-13.44-22.47-47.28-3.75-54 15.28 5.69 7.58 23.33-24.52 25.08-4.9-12.74 25.82-38.91 43.39-65.04 53.99-6.77 3.28-9.93-5.08-6.09-9.89 23.5-44.37 67.06-74.87 113.59-91.54 20.72-6.53 43.55-12.1 64.81-4.58 10.8 7.46 6.72 23.12 0.86 32.89-28.88 48.35-81 74.96-128.85 101.02-63.1 36.66-131.01 67.56-184.3 118.46-2.97 1.63-3.37-0.9-1.31-2.71 34.1-33.51 72.96-62.08 114.66-85.44 44.33-25.95 92.79-44.9 133.99-76.02 15.56-12.55 30.44-28.35 35.95-48.02 5.35-31.23-40.8-33.62-54.94-16.18 5.55 8.21 25.19-4.2 27.65 11.32-0.87 23.59-22.41 40.82-40.01 54.04-31.44 18-59.5 42.05-93.68 55.06-55.93 28.38-107.86 68.7-145.56 118.28-5.19-0.84 0.4-7.74 2.54-10.09 20.49-33.3 53.95-55.33 78.73-84.99 17.37-19.21 25.86-43.95 36.91-66.81 6.14-12.3 22.66-21.46 20.78-35.84 48.29-43.2 101.69-88.02 167.92-98.04 45.06-7.03 90.06 9.78 122.39 40.81 3.26 1.95 10.15 11.67 13.43 5.27-4.91-10.91-14.34-20.21-17.01-32.15 16.36-8.86 19.39-29.4 22.97-46.01 1.63-36.92-10.15-77.61-40.81-100.68-32.2-24.18-73.75-42.85-94.91-77zm181.76 196.89c-0.54 0-1.08 0.03-1.64 0.09-3.4 32.16-20.08 61.27-21.31 93.81-4.51 27.22-4.09 55.42-11.52 82.22 9.28-1.81 10.69-13.06 14.79-20.03 17.3-47.49 28.73-98 24.71-148.8 1.66-5.63-1.31-7.28-5.03-7.29zm-115.56 27.86c-5.26 7.55 9.05 9.44 5 17.85 2.61 25.88-7.84 51.75-24.75 70.99-52.12 60.5-132.71 81.62-196.39 126.46-0.64 2.18 1.73 3.31 3.56 3.19 58.37-27.44 118.13-53.9 171.24-91.25 32.83-20.81 64.11-50.22 73.93-89.05 7.07-21.97-16.71-31.77-32.59-38.19zm50.49 37.18c-0.39 0-0.82 0.07-1.3 0.25-18.91 58.25-71.76 97.75-125.15 123.95-31.18 16.52-63.09 31.7-95.4 45.87-68.23 28.23-147.2 53.05-185.44 122.03-3.52 11.36-16.92 23.56-12.04 35.51 10.25-7.7 15.29-20.46 24.51-29.28 42.58-41.67 99.13-62.62 151.6-88.4 38.5-17.75 78.31-32.56 116.43-51.08 40.01-19.2 83.64-34.54 114.71-67.78 20.85-21.83 31.41-57.05 16.73-84.96-1.29-2.13-1.92-6.07-4.65-6.11zm24.82 75.16c-7.26 23.08-32.95 34.39-38.83 58.08 0.63 9.52-6.49 24.7 3.61 31.08 8.6-12.37 3.65-31.68 15.32-42.96 6.23 0.2 1.74 9.4 2.67 12.72-4.8 22.68-15.43 50.28-36.6 60.66-5.13-26 7-53.45 5.72-80.23-5.86-3.26-7.82 5.04-10.35 8.94-13.69 34.74-22.19 72.8-16.43 110.13 6.57 3.14 12.99-6.97 18.72-9.25 39.88-26.11 54.26-74.58 57.96-119.41 0.08-7.72 10.2-27.62-1.79-29.76zm-67.1 50.79c-27.87 26.95-54.73 59.71-65.51 97.97 2.7 11.2 12.34-14.1 17.06-4.77-1.71 13.31-9.95 26.25-21.25 33.49-4.11-29.65 3.63-61.3 24.16-83.66 3-3.27-3.22-4.96-5.35-2.97-17.13 10.01-24.61 29.49-30.22 47.5-7.59 22.81 2.29 49.87-14.12 69.73-1.42 2.06-5.08 7.53-0.59 7.91 22.43-8.67 42.82-23.25 57.75-42.15 18.52-26.85 16.46-61.33 24.67-91.55 2.38-10.66 14.1-22.54 13.4-31.5zm-79.15 60.56c-0.54-0.07-1.21 0.09-2 0.55-23.9 25.5-48.3 53.69-58.25 88 7.47 2.42 10.23-12.12 16.01-7.05-1.88 10.41-7.32 26.69-18.42 29.28-6.76-25.59 6.09-53.58 21.74-74.24 1.38-9.49-12.55 2.71-14.94 5.35-27.11 29.32-12.81 74.26-34.81 105.02 20.39-9.9 44.5-17.47 56.88-37.99 21.47-30.52 10.69-72.76 33.98-102.41 2.27-1.68 2.18-6.2-0.19-6.51zm-58.06 16.12c-0.49-0.02-1.01 0.13-1.54 0.49-21.84 23.53-42.75 49.6-54.37 79.79-0.54 15.75 6.77-1.46 13.42-0.19-3.06 11.28-8.47 27.73-19.62 30.75-1.58-25.72 4.95-52.61 22.34-72.16 5-2.68 4.44-10.13-2.71-6.7-18.61 11.45-24.66 34.03-30.67 53.56-2.62 19.03-0.87 40.53-13.66 56.34-1.99 1.98-2.55 5.68 0.8 6.56 24.95-9.22 48.23-27.42 58.41-52.52 9.19-30.38 10.24-64.28 29.3-90.81 1.91-1.87 0.43-5.04-1.7-5.11zm-59.25 35.01c-0.41 0.02-0.84 0.12-1.29 0.32-23.54 13.57-37.46 38.65-56.07 57.83-18.01 18.3-42.21 27.94-64.94 38.79-32.8 18.55-68.21 39.5-85.94 74.19-2.69 5.86-9.28 24.81 3.55 13.41 18.58-42.66 69.95-51 107.93-68.28 28.81-11.44 56.07-30.23 69.86-58.88 9.5-17.21 14.5-37.18 28.84-51.41 2.48-2 0.9-6.07-1.94-5.97zm-25.95 67.82c-0.11 0.01-0.23 0.04-0.35 0.09-17.04 21.26-36.34 41.46-61.21 53.82-30.45 17.36-68.17 19.28-96.19 41.33-3.25 1.95-8.07 11.16 0.7 7.19 39.5-19.74 85.73-22.11 123.63-45.33 18.28-11.76 29.56-31.09 36.22-51.3-0.34-1.68-1.12-5.92-2.8-5.8zm-28.69 89.6c-12.42 39.94-24 80.9-44.96 117.46-26.74-9.86-53.55-19.99-79.77-31.12 19.26-27.49 48.77-45.01 77.26-61.61 15.32-7.75 28.66-19.57 45.5-24.15 0.48-0.14 1.48-0.43 1.97-0.58zm-38.34 584.7c-11.1 0.1-22.29 1.1-32.86 1-25.67 6.3-55.27 4.3-77.31 20.9-4.86 7.3 3.19 13.8 9.78 15.3 74.4 18.9 152.01 13.2 227.96 19.7 11.68-4.2 31.67 4.7 37.52-9.4-16.5-0.8-33.23 1.4-49.55-2.9-61.81-4.4-125.57 2.3-185.85-15.1-9.29-6 3.33-12.2 9.64-13.5 28.5-5.6 58.16-12.5 87.26-8.1-13.9 5-34.11 1.9-47.8 11.7-0.5 3.1 0.45 7.1 3.9 8 15.05 6.3 31.38 9.2 47.49 11.4 65.06-0.4 131.68 5.4 195.18-12 5.61-0.8 4.53-10.8-1.11-11-37.46-11-84.08-19.9-116.83 3.9-23.31 3.8-47.18 2.9-70.48-0.1-6.05-5.9 3.16-7.2 3.94-11.6-12.48-7.1-26.61-8.4-40.88-8.2zm143.09 11.4c13.73 1.2 35.67-1.8 44.18 8.9-40.41 6.7-81.34 13.8-122.48 10 26.35-5.6 55.94 3 81.64-9.6-1.06-3.1-5.21-5.9-3.34-9.3z" transform="scale(.8)"/>
</svg>
