<svg id="svg" version="1.1" xmlns="http://www.w3.org/2000/svg" xmlns:xlink="http://www.w3.org/1999/xlink" width="400" height="400" viewBox="0, 0, 400,400"><g id="svgg"><path id="path0" d="M0.000 20.033 C 0.000 41.664,0.153 43.035,1.838 36.478 C 2.642 33.347,3.339 31.988,7.437 25.557 C 12.595 17.463,25.485 7.152,32.400 5.589 C 33.610 5.315,35.271 4.754,36.091 4.342 C 40.663 2.045,30.755 2.200,172.839 2.200 C 284.718 2.200,302.772 2.279,303.365 2.771 C 305.529 4.567,305.391 0.151,305.509 71.189 C 305.636 147.041,306.116 139.032,301.137 144.218 C 299.437 145.989,296.910 148.121,295.523 148.956 C 294.135 149.791,292.406 150.896,291.680 151.411 C 288.408 153.732,274.693 153.057,271.310 150.409 C 270.700 149.931,269.270 148.968,268.133 148.270 C 263.889 145.661,262.795 144.752,260.526 141.945 C 256.522 136.991,255.249 135.264,254.455 133.708 C 254.031 132.879,253.304 131.855,252.838 131.434 C 252.373 131.013,251.646 129.573,251.223 128.234 C 250.800 126.895,250.008 124.681,249.462 123.314 C 248.917 121.947,248.175 119.517,247.813 117.914 C 245.784 108.926,243.705 104.387,241.630 104.413 C 240.109 104.431,236.860 109.260,236.153 112.555 C 234.927 118.264,236.017 132.693,237.973 136.638 C 238.616 137.937,239.428 140.113,239.776 141.474 C 241.241 147.204,251.003 160.829,256.000 164.118 C 256.550 164.480,258.440 165.773,260.200 166.992 C 261.960 168.211,264.738 169.766,266.373 170.446 C 268.008 171.127,269.839 172.049,270.442 172.494 C 273.210 174.541,290.279 174.377,294.909 172.259 C 296.117 171.706,297.802 171.130,298.653 170.979 C 299.504 170.828,301.058 170.186,302.106 169.552 C 303.154 168.918,304.164 168.400,304.350 168.400 C 306.464 168.400,317.881 157.761,319.923 153.888 C 320.735 152.346,321.622 150.706,321.894 150.243 C 322.166 149.779,322.391 149.066,322.394 148.658 C 322.397 148.249,322.693 146.809,323.051 145.458 C 323.639 143.237,323.707 136.390,323.751 74.383 C 323.806 -2.146,323.549 4.523,326.504 2.908 C 329.727 1.147,354.577 1.876,359.400 3.874 C 360.720 4.421,362.962 5.128,364.383 5.445 C 368.577 6.383,378.209 11.890,382.141 15.600 C 386.381 19.600,391.867 26.181,392.448 27.964 C 392.706 28.754,393.251 29.830,393.659 30.355 C 394.067 30.880,394.655 32.163,394.964 33.205 C 395.274 34.247,396.071 36.339,396.735 37.852 C 398.907 42.800,398.859 38.788,398.724 207.400 C 398.605 356.022,398.569 362.682,397.876 364.524 C 397.478 365.582,396.623 367.591,395.976 368.989 C 395.329 370.386,394.791 371.770,394.779 372.065 C 394.642 375.659,383.160 390.204,378.312 392.924 C 377.454 393.406,376.058 394.179,375.208 394.642 C 374.359 395.106,372.736 396.166,371.601 396.999 C 370.466 397.832,368.980 398.628,368.299 398.767 C 367.617 398.907,366.986 399.241,366.897 399.510 C 366.770 399.891,370.424 400.000,383.367 400.000 L 400.000 400.000 400.000 200.000 L 400.000 0.000 200.000 0.000 L 0.000 0.000 0.000 20.033 M200.800 207.973 C 196.609 208.195,194.223 208.526,192.200 209.166 C 189.558 210.001,184.672 210.803,177.400 211.594 C 175.640 211.786,173.318 212.336,172.239 212.817 C 171.042 213.351,168.939 213.807,166.839 213.989 C 164.350 214.204,162.396 214.682,159.766 215.721 C 157.768 216.509,155.158 217.275,153.966 217.421 C 152.775 217.568,150.630 218.235,149.200 218.904 C 147.770 219.573,145.183 220.352,143.452 220.636 C 141.466 220.961,139.989 221.438,139.452 221.929 C 138.399 222.890,136.585 223.800,135.000 224.161 C 133.872 224.419,130.360 225.997,125.800 228.297 C 117.662 232.400,113.551 234.400,113.253 234.400 C 113.061 234.400,112.026 235.099,110.952 235.954 C 109.879 236.808,108.370 237.794,107.600 238.145 C 106.190 238.788,99.285 243.076,95.732 245.515 C 94.678 246.239,93.363 246.937,92.808 247.067 C 92.254 247.197,91.350 247.712,90.800 248.212 C 89.425 249.461,82.140 253.421,80.282 253.930 C 78.157 254.512,75.633 253.511,70.800 250.172 C 66.202 246.995,64.917 246.059,63.426 244.800 C 60.592 242.408,58.715 240.932,55.400 238.490 C 53.640 237.194,50.850 234.885,49.200 233.358 C 47.550 231.832,45.137 229.796,43.838 228.832 C 42.540 227.869,40.020 225.789,38.238 224.209 C 31.101 217.879,27.733 217.334,26.799 222.359 C 24.828 232.968,28.263 244.113,36.181 252.800 C 36.883 253.570,37.735 254.650,38.074 255.200 C 38.413 255.750,40.003 257.640,41.607 259.400 C 46.879 265.184,47.353 267.683,44.166 272.889 C 43.395 274.148,42.432 276.128,42.025 277.289 C 41.619 278.450,40.998 279.940,40.645 280.600 C 40.293 281.260,40.003 282.070,40.000 282.400 C 39.998 282.730,39.168 284.710,38.157 286.800 C 37.087 289.014,36.163 291.602,35.944 293.000 C 35.738 294.320,35.377 296.480,35.142 297.800 C 34.008 304.176,34.716 315.675,36.413 318.421 C 37.246 319.769,42.472 315.731,44.758 311.973 C 45.194 311.257,47.866 308.225,50.697 305.235 C 53.528 302.246,56.405 298.990,57.091 298.000 C 58.137 296.490,67.703 286.768,74.933 279.869 C 77.860 277.075,80.497 276.892,84.181 279.229 C 85.238 279.899,86.845 280.735,87.751 281.086 C 88.658 281.437,89.679 281.961,90.020 282.252 C 90.816 282.929,95.003 285.208,98.648 286.948 C 100.214 287.695,101.622 288.513,101.778 288.764 C 101.933 289.016,103.532 289.956,105.330 290.855 C 107.129 291.753,108.873 292.728,109.206 293.021 C 109.540 293.314,111.999 294.689,114.671 296.077 C 117.344 297.465,121.436 299.619,123.766 300.865 C 126.096 302.111,128.751 303.257,129.667 303.411 C 130.582 303.566,132.696 304.367,134.365 305.191 C 136.034 306.015,138.114 306.799,138.987 306.933 C 139.860 307.068,141.072 307.546,141.681 307.996 C 142.328 308.475,144.474 309.153,146.850 309.629 C 149.085 310.077,151.823 310.905,152.936 311.469 C 154.381 312.201,156.244 312.653,159.452 313.048 C 162.552 313.430,164.913 313.991,167.072 314.858 C 169.669 315.900,171.014 316.167,175.000 316.430 C 180.117 316.768,183.725 317.269,187.742 318.201 C 193.717 319.587,243.170 319.906,249.238 318.598 C 256.088 317.122,258.552 316.791,265.200 316.453 C 270.960 316.161,272.526 315.949,274.043 315.256 C 276.175 314.281,280.192 313.387,284.200 312.996 C 286.033 312.817,287.861 312.312,289.494 311.531 C 291.018 310.803,293.430 310.110,295.694 309.749 C 297.732 309.425,300.114 308.792,300.986 308.342 C 301.858 307.892,303.928 307.177,305.586 306.754 C 307.244 306.330,309.680 305.466,311.000 304.834 C 312.320 304.201,314.070 303.500,314.889 303.277 C 315.707 303.054,316.877 302.520,317.489 302.091 C 318.100 301.662,319.320 301.079,320.200 300.794 C 321.080 300.510,323.527 299.405,325.637 298.339 C 327.748 297.273,329.759 296.400,330.107 296.400 C 330.454 296.400,331.247 295.991,331.869 295.491 C 332.491 294.991,333.630 294.275,334.400 293.900 C 337.050 292.610,339.680 290.944,341.938 289.126 C 343.182 288.124,344.642 287.167,345.182 286.999 C 347.853 286.169,356.269 278.932,356.482 277.282 C 356.660 275.895,349.001 272.725,343.936 272.090 C 342.044 271.852,340.436 271.400,339.736 270.909 C 339.111 270.471,337.610 269.792,336.400 269.401 C 329.661 267.220,328.527 261.530,334.200 258.359 C 335.080 257.868,336.307 257.047,336.927 256.536 C 337.546 256.025,339.047 255.318,340.262 254.965 C 341.478 254.611,343.311 253.817,344.336 253.198 C 345.361 252.580,347.113 251.867,348.230 251.614 C 349.346 251.361,350.717 250.849,351.276 250.477 C 351.835 250.105,353.045 249.297,353.965 248.683 C 356.091 247.264,356.274 246.739,355.167 245.241 C 354.238 243.984,350.432 240.865,348.757 239.988 C 348.230 239.712,346.180 238.401,344.200 237.074 C 342.220 235.746,339.520 234.164,338.200 233.558 C 336.880 232.951,333.820 231.361,331.400 230.024 C 328.980 228.687,326.280 227.398,325.400 227.160 C 324.520 226.922,323.004 226.204,322.031 225.564 C 321.059 224.924,319.776 224.400,319.182 224.400 C 317.688 224.400,314.882 223.362,313.166 222.175 C 312.197 221.505,310.628 221.004,308.327 220.632 C 306.238 220.293,304.009 219.617,302.561 218.880 C 301.053 218.114,299.268 217.583,297.619 217.411 C 296.200 217.263,293.193 216.525,290.938 215.770 C 288.380 214.914,285.382 214.247,282.972 213.997 C 280.749 213.767,278.320 213.246,277.254 212.772 C 275.174 211.847,272.674 211.493,262.000 210.609 C 257.930 210.272,253.955 209.816,253.166 209.597 C 247.661 208.068,216.981 207.116,200.800 207.973 M284.312 235.975 C 289.150 237.362,293.513 241.876,294.780 246.807 C 295.033 247.793,295.502 249.279,295.820 250.108 C 298.502 257.085,292.304 270.034,285.361 271.962 C 283.425 272.500,276.786 272.516,274.500 271.988 C 266.018 270.031,261.612 255.732,266.420 245.759 C 267.960 242.564,270.970 238.886,272.099 238.818 C 272.264 238.808,273.254 238.189,274.299 237.443 C 276.869 235.608,280.948 235.010,284.312 235.975 M0.000 381.600 L 0.000 400.000 16.233 400.000 C 32.641 400.000,34.604 399.815,30.760 398.630 C 29.994 398.393,27.844 397.243,25.983 396.072 C 24.123 394.902,21.970 393.552,21.200 393.072 C 18.957 391.675,9.420 381.923,8.189 379.769 C 7.571 378.686,6.840 377.530,6.566 377.200 C 6.292 376.870,5.746 375.790,5.353 374.800 C 4.961 373.810,4.053 372.010,3.337 370.800 C 2.573 369.509,1.825 367.484,1.526 365.900 C 1.215 364.248,0.820 363.200,0.509 363.200 C 0.104 363.200,0.000 366.977,0.000 381.600 " stroke="none" fill="#ecf9f7" fill-rule="evenodd"></path><path id="path1" d="M340.075 6.831 C 333.190 7.157,333.166 7.164,330.400 9.520 L 329.000 10.712 329.006 15.856 C 329.010 18.685,329.056 43.860,329.108 71.800 C 329.161 99.740,329.090 128.630,328.952 136.000 L 328.700 149.400 327.581 151.400 C 326.965 152.500,326.187 154.198,325.852 155.173 C 325.514 156.159,324.714 157.360,324.050 157.880 C 323.394 158.393,322.447 159.485,321.945 160.307 C 320.825 162.142,318.438 164.517,315.674 166.546 C 314.526 167.389,313.402 168.423,313.176 168.845 C 312.950 169.267,312.008 170.081,311.083 170.654 C 310.157 171.227,308.913 172.150,308.319 172.705 C 307.631 173.347,306.501 173.830,305.212 174.034 C 303.685 174.275,302.941 174.646,302.187 175.543 C 300.891 177.082,300.547 177.125,286.909 177.432 C 270.474 177.802,266.391 176.980,260.400 172.098 C 259.190 171.112,257.257 169.888,256.105 169.377 C 252.915 167.963,251.176 166.576,247.860 162.800 C 247.570 162.470,246.756 161.348,246.051 160.306 C 245.346 159.264,244.416 158.223,243.983 157.991 C 243.233 157.589,240.800 153.305,240.800 152.384 C 240.800 152.143,240.012 150.979,239.049 149.796 C 238.081 148.609,237.179 147.014,237.033 146.233 C 236.887 145.455,236.175 143.771,235.451 142.490 C 233.793 139.556,233.202 137.867,233.194 136.040 C 233.191 135.248,232.931 133.860,232.616 132.956 C 231.057 128.485,230.936 114.876,232.413 110.200 C 234.150 104.700,234.480 103.998,236.238 102.043 C 241.184 96.541,247.567 97.408,250.006 103.913 C 250.442 105.075,251.047 106.425,251.352 106.913 C 251.694 107.461,252.001 109.599,252.155 112.510 C 252.373 116.626,252.551 117.510,253.561 119.510 C 254.198 120.770,255.464 123.303,256.376 125.140 C 257.288 126.977,258.746 129.444,259.617 130.623 C 260.488 131.802,261.200 132.882,261.200 133.025 C 261.200 133.167,261.744 134.090,262.409 135.075 C 263.073 136.060,263.975 137.567,264.413 138.425 C 265.233 140.032,268.805 142.800,270.059 142.800 C 270.427 142.800,271.200 143.360,271.777 144.045 C 272.642 145.073,273.222 145.339,275.112 145.570 C 276.370 145.724,277.940 146.131,278.600 146.475 C 281.740 148.110,286.048 148.811,287.169 147.869 C 287.516 147.577,288.556 147.122,289.480 146.859 C 290.552 146.553,291.473 145.941,292.025 145.165 C 292.501 144.497,293.815 143.538,294.945 143.033 C 296.169 142.487,297.829 141.234,299.052 139.934 L 301.103 137.750 301.392 119.975 C 301.737 98.760,301.439 10.571,301.019 9.333 C 300.237 7.034,305.980 7.134,179.200 7.206 C 60.253 7.273,48.031 7.406,39.737 8.720 C 33.587 9.694,27.587 12.489,24.405 15.864 C 23.608 16.709,22.111 18.154,21.078 19.077 C 20.045 19.999,19.200 20.936,19.200 21.160 C 19.200 21.383,18.405 22.032,17.433 22.602 C 16.462 23.171,15.171 24.304,14.564 25.118 C 13.958 25.933,13.133 26.922,12.731 27.316 C 12.329 27.709,12.000 28.254,12.000 28.526 C 12.000 28.797,11.209 29.764,10.243 30.674 C 8.723 32.103,8.448 32.617,8.215 34.464 C 8.067 35.639,7.608 37.680,7.195 39.000 C 5.402 44.737,5.096 47.991,5.353 58.600 C 5.574 67.740,5.625 111.657,5.628 295.957 C 5.629 357.824,5.660 360.599,6.371 362.557 C 8.249 367.730,9.043 369.549,10.292 371.534 C 11.030 372.708,11.743 374.215,11.877 374.883 C 12.041 375.704,12.569 376.363,13.508 376.916 C 14.271 377.367,15.109 378.243,15.370 378.864 C 15.838 379.976,20.825 384.757,22.394 385.597 C 22.837 385.834,23.200 386.286,23.200 386.600 C 23.200 387.434,25.570 390.000,26.341 390.001 C 26.704 390.002,27.540 390.331,28.200 390.732 C 28.860 391.132,30.930 391.952,32.800 392.553 C 36.486 393.737,39.262 395.184,40.082 396.348 C 40.367 396.753,41.374 397.479,42.319 397.961 C 43.265 398.442,44.139 399.098,44.262 399.418 C 44.457 399.926,64.200 400.000,199.355 400.000 L 354.225 400.000 354.674 398.809 C 355.136 397.585,355.766 397.211,358.689 396.427 C 359.619 396.178,360.969 395.433,361.689 394.772 C 362.410 394.111,363.450 393.462,364.000 393.330 C 364.550 393.198,365.213 392.923,365.473 392.719 C 365.733 392.514,367.096 392.185,368.501 391.985 C 369.924 391.784,371.893 391.156,372.943 390.570 C 375.186 389.316,386.000 378.556,386.000 377.577 C 386.000 377.360,386.450 376.978,387.000 376.727 C 387.550 376.477,388.000 376.055,388.000 375.790 C 388.000 375.525,388.356 374.855,388.791 374.302 C 389.227 373.748,390.043 371.789,390.605 369.948 C 395.266 354.683,395.371 354.064,395.032 343.900 C 394.884 339.445,394.789 335.350,394.821 334.800 C 395.482 323.572,395.086 51.523,394.404 48.921 C 393.962 47.231,393.600 45.478,393.600 45.025 C 393.600 44.571,393.240 43.253,392.800 42.096 C 392.360 40.938,392.000 39.300,392.000 38.455 C 392.000 36.320,388.173 28.594,386.140 26.625 C 385.293 25.804,383.430 23.675,382.000 21.892 C 379.603 18.905,376.417 16.090,375.360 16.027 C 374.729 15.988,369.677 13.266,368.875 12.532 C 365.775 9.694,362.963 8.513,358.142 8.022 C 355.534 7.756,352.472 7.283,351.338 6.969 C 350.205 6.656,348.675 6.427,347.938 6.461 C 347.202 6.494,343.664 6.661,340.075 6.831 M247.530 204.409 C 251.638 204.610,257.250 205.054,260.000 205.395 C 262.750 205.735,267.430 206.181,270.400 206.385 C 275.321 206.722,277.924 207.215,279.000 208.013 C 279.869 208.657,286.449 210.107,290.896 210.634 C 293.987 211.000,296.447 211.544,298.096 212.226 C 301.545 213.654,303.995 214.391,305.313 214.396 C 305.926 214.398,307.315 214.850,308.400 215.400 C 309.485 215.950,310.722 216.400,311.148 216.400 C 311.575 216.400,313.246 216.864,314.862 217.431 C 316.478 217.997,318.520 218.637,319.400 218.852 C 320.280 219.067,322.080 219.826,323.400 220.538 C 324.720 221.250,326.754 222.069,327.921 222.358 C 330.077 222.893,335.308 225.255,336.400 226.187 C 336.730 226.468,337.664 226.818,338.477 226.963 C 339.338 227.117,340.255 227.624,340.677 228.180 C 341.074 228.704,343.560 230.248,346.200 231.612 C 350.048 233.600,351.516 234.618,353.602 236.746 C 355.033 238.206,357.302 240.146,358.644 241.057 C 360.770 242.501,361.142 242.948,361.542 244.534 C 362.488 248.293,362.063 250.070,359.994 251.003 C 359.044 251.431,358.275 252.135,357.980 252.848 C 357.718 253.482,357.269 254.000,356.984 254.000 C 356.699 254.000,355.151 254.630,353.544 255.400 C 351.937 256.170,350.221 256.800,349.729 256.800 C 346.541 256.800,340.800 260.305,340.800 262.252 C 340.800 265.258,344.808 268.248,349.587 268.808 C 357.783 269.768,361.449 271.317,362.408 274.226 C 362.963 275.907,362.619 278.924,361.776 279.767 C 361.459 280.084,361.200 280.534,361.200 280.767 C 361.200 281.001,360.313 282.171,359.229 283.368 C 358.145 284.565,357.071 285.894,356.843 286.320 C 356.614 286.747,355.386 287.510,354.114 288.016 C 352.841 288.522,351.331 289.260,350.758 289.654 C 350.185 290.049,348.892 290.592,347.885 290.862 C 346.878 291.131,345.907 291.660,345.727 292.038 C 345.406 292.712,342.119 295.528,340.053 296.898 C 339.474 297.282,337.862 297.976,336.471 298.440 C 334.929 298.955,333.430 299.796,332.630 300.597 C 331.908 301.318,330.960 302.100,330.522 302.334 C 329.708 302.770,329.230 302.951,323.000 305.186 C 321.020 305.896,319.040 306.806,318.600 307.209 C 318.160 307.611,317.290 308.067,316.668 308.222 C 316.045 308.376,315.445 308.737,315.336 309.024 C 315.103 309.629,313.495 310.275,310.400 311.006 C 306.368 311.959,302.210 313.244,301.349 313.802 C 300.881 314.106,299.351 314.389,297.949 314.432 C 296.547 314.475,295.130 314.732,294.800 315.003 C 293.975 315.683,290.611 316.706,288.200 317.011 C 287.100 317.150,284.641 317.789,282.736 318.432 C 280.790 319.088,278.423 319.599,277.336 319.598 C 274.046 319.594,267.167 320.435,263.600 321.278 C 259.814 322.172,258.703 322.391,251.800 323.603 C 249.160 324.067,246.550 324.544,246.000 324.663 C 244.403 325.008,204.650 324.793,199.800 324.413 C 184.749 323.233,183.814 323.115,180.320 321.944 C 177.098 320.864,174.670 320.465,166.200 319.622 C 164.440 319.447,161.290 318.831,159.200 318.253 C 157.110 317.675,154.852 317.202,154.182 317.201 C 153.512 317.200,151.352 316.416,149.382 315.458 C 146.673 314.140,145.146 313.657,143.115 313.474 C 140.711 313.258,139.115 312.725,136.600 311.298 C 136.160 311.048,134.270 310.356,132.400 309.761 C 130.530 309.165,128.374 308.165,127.609 307.539 C 126.719 306.810,125.753 306.400,124.928 306.400 C 123.100 306.400,121.928 305.765,120.848 304.188 C 120.177 303.208,119.497 302.743,118.455 302.552 C 115.850 302.072,111.046 299.950,108.963 298.357 C 107.843 297.501,106.742 296.800,106.517 296.800 C 106.292 296.800,105.679 296.470,105.154 296.066 C 104.629 295.663,103.210 294.817,102.000 294.188 C 100.790 293.559,99.260 292.562,98.600 291.973 C 97.940 291.385,96.282 290.534,94.916 290.083 C 93.550 289.632,91.750 288.735,90.916 288.090 C 90.082 287.444,88.770 286.681,88.000 286.394 C 87.230 286.107,86.059 285.475,85.398 284.990 C 82.503 282.867,78.377 282.976,77.057 285.211 C 76.671 285.865,76.187 286.400,75.981 286.400 C 75.639 286.400,73.926 287.599,70.499 290.235 C 69.784 290.785,68.857 291.903,68.441 292.718 C 68.024 293.533,66.664 295.190,65.418 296.400 C 63.043 298.706,59.531 303.073,57.257 306.548 C 55.503 309.229,53.886 310.903,51.745 312.257 C 50.787 312.862,49.913 313.637,49.802 313.978 C 49.467 315.006,41.521 322.929,39.809 323.942 C 36.435 325.940,33.931 324.758,33.377 320.907 C 33.226 319.858,32.868 318.730,32.583 318.400 C 29.623 314.983,29.195 304.164,31.623 294.200 C 32.320 291.340,32.975 288.460,33.078 287.800 C 33.182 287.140,34.493 284.080,35.991 281.000 C 37.490 277.920,38.838 274.823,38.986 274.119 C 39.134 273.414,39.621 272.373,40.068 271.805 C 42.026 269.315,40.429 264.200,36.397 260.045 C 35.537 259.159,34.374 257.751,33.811 256.917 C 33.249 256.083,32.167 254.950,31.407 254.400 C 30.433 253.696,29.358 252.098,27.772 249.000 C 26.534 246.580,25.291 244.330,25.012 244.000 C 23.050 241.685,20.937 229.462,21.913 226.077 C 22.148 225.265,22.650 223.070,23.029 221.200 C 24.423 214.322,27.872 212.731,34.668 215.829 C 35.366 216.147,36.536 216.525,37.268 216.668 C 39.235 217.053,40.386 217.949,41.052 219.614 C 41.626 221.047,45.284 224.398,47.598 225.610 C 49.372 226.539,54.831 230.874,55.689 232.035 C 56.148 232.656,57.041 233.277,57.674 233.416 C 58.919 233.690,60.657 235.308,62.304 237.729 C 63.429 239.382,65.346 240.537,67.661 240.957 C 68.639 241.134,69.350 241.582,69.813 242.311 C 71.919 245.633,74.652 247.308,77.998 247.331 C 80.803 247.350,85.618 246.475,86.400 245.805 C 86.730 245.522,88.079 244.720,89.398 244.023 C 90.717 243.326,92.157 242.429,92.598 242.030 C 93.039 241.630,93.871 241.055,94.448 240.752 C 97.704 239.037,98.873 238.223,101.513 235.835 C 103.605 233.943,104.735 233.200,105.518 233.200 C 106.255 233.200,106.739 232.915,107.005 232.325 C 107.290 231.694,108.218 231.202,110.326 230.563 C 111.935 230.076,113.555 229.415,113.926 229.095 C 114.759 228.376,117.004 227.600,118.250 227.600 C 118.802 227.600,119.693 227.037,120.442 226.214 C 121.135 225.452,122.355 224.621,123.152 224.369 C 123.948 224.116,125.996 223.115,127.701 222.143 C 131.414 220.029,138.070 217.375,141.038 216.827 C 142.216 216.609,143.748 216.137,144.443 215.778 C 145.138 215.419,146.891 214.957,148.338 214.752 C 150.047 214.510,151.276 214.092,151.842 213.561 C 152.828 212.634,157.061 211.443,161.800 210.759 C 163.560 210.505,165.314 210.135,165.699 209.935 C 166.083 209.736,167.429 209.383,168.690 209.150 C 173.453 208.269,177.486 206.641,177.336 205.660 C 177.146 204.410,178.038 204.204,181.137 204.783 C 183.262 205.180,185.134 205.179,190.400 204.780 C 197.810 204.218,227.566 203.615,235.130 203.874 C 237.841 203.966,243.421 204.207,247.530 204.409 M280.598 241.080 C 279.719 241.388,278.185 241.817,277.189 242.034 C 270.238 243.547,267.851 261.550,274.228 264.371 C 275.295 264.843,276.148 265.538,276.367 266.114 C 277.824 269.944,282.171 270.322,285.415 266.900 C 286.614 265.635,287.596 264.483,287.597 264.341 C 287.599 264.198,288.484 263.178,289.564 262.075 C 292.903 258.666,292.980 253.231,289.786 246.510 L 287.842 242.419 285.019 241.470 C 282.425 240.598,282.067 240.566,280.598 241.080 " stroke="none" fill="#05a984" fill-rule="evenodd"></path><path id="path2" d="M40.800 3.752 C 39.590 4.023,37.880 4.618,37.000 5.074 C 36.120 5.530,34.770 6.035,34.000 6.198 C 30.002 7.041,22.104 11.366,17.845 15.045 C 12.705 19.484,2.400 33.578,2.400 36.168 C 2.400 37.693,1.009 42.000,0.516 42.000 C 0.095 42.000,0.000 71.418,0.000 201.200 C 0.000 304.269,0.137 360.400,0.390 360.400 C 1.099 360.400,1.895 362.562,2.176 365.249 C 2.575 369.072,6.576 376.908,10.600 381.746 C 13.259 384.943,20.399 391.600,21.170 391.600 C 21.359 391.600,22.382 392.318,23.443 393.195 C 25.755 395.105,30.381 397.419,32.600 397.773 C 36.966 398.472,38.400 398.881,38.400 399.428 C 38.400 399.743,38.760 400.000,39.200 400.000 C 41.947 400.000,39.212 398.280,34.043 396.758 C 31.031 395.871,30.340 395.515,25.724 392.469 C 24.282 391.517,22.781 390.617,22.391 390.469 C 19.036 389.199,10.913 379.771,7.857 373.600 C 6.604 371.070,5.227 368.365,4.797 367.589 C 2.254 363.006,2.406 373.535,2.401 201.712 C 2.398 102.499,2.537 45.805,2.786 44.712 C 3.000 43.770,3.467 41.470,3.823 39.600 C 5.549 30.542,15.590 17.666,25.553 11.734 C 27.669 10.475,29.688 9.206,30.039 8.915 C 30.391 8.624,32.846 7.856,35.495 7.210 C 38.144 6.563,41.096 5.621,42.055 5.117 L 43.800 4.200 172.480 4.200 C 275.655 4.200,301.260 4.300,301.666 4.706 C 301.948 4.988,302.266 6.663,302.386 8.506 L 302.600 11.800 303.100 9.433 C 303.799 6.126,303.728 5.040,302.758 4.162 C 301.695 3.200,45.057 2.798,40.800 3.752 M326.400 3.484 C 324.531 4.171,324.542 4.095,324.451 17.092 C 324.404 23.852,324.187 30.107,323.968 30.992 C 323.592 32.518,323.678 105.446,324.088 132.400 C 324.220 141.067,324.138 143.739,323.703 145.000 C 323.399 145.880,322.970 147.556,322.750 148.724 C 322.530 149.893,321.819 151.751,321.168 152.854 C 320.518 153.956,319.734 155.462,319.426 156.200 C 317.672 160.397,303.286 171.600,299.650 171.600 C 299.076 171.600,297.255 172.275,295.604 173.100 L 292.600 174.600 283.800 174.731 C 272.831 174.895,271.500 174.740,268.765 172.978 C 267.589 172.220,266.171 171.592,265.613 171.582 C 263.265 171.542,259.114 169.342,256.402 166.700 C 255.556 165.875,254.628 165.200,254.340 165.200 C 254.053 165.200,253.184 164.524,252.409 163.698 C 251.634 162.872,250.370 161.655,249.600 160.994 C 248.830 160.334,247.312 158.535,246.226 156.997 C 245.140 155.458,243.665 153.504,242.947 152.653 C 242.230 151.802,241.535 150.613,241.402 150.009 C 241.270 149.406,240.593 148.392,239.899 147.756 L 238.637 146.600 239.718 148.073 C 240.312 148.883,240.986 150.038,241.216 150.641 C 241.633 151.738,242.735 153.359,246.627 158.600 C 248.999 161.793,253.650 166.400,254.502 166.400 C 254.816 166.400,255.507 166.767,256.037 167.215 C 258.317 169.145,262.655 171.740,264.357 172.192 C 265.371 172.461,266.901 173.158,267.758 173.741 C 270.410 175.548,271.445 175.665,283.600 175.528 L 295.000 175.400 299.800 173.461 C 302.440 172.395,304.870 171.301,305.200 171.029 C 305.530 170.758,306.647 170.052,307.682 169.462 C 308.716 168.871,309.796 168.075,310.082 167.692 C 310.367 167.310,311.320 166.525,312.200 165.948 C 314.554 164.405,319.947 158.846,320.881 157.000 C 321.326 156.120,322.014 155.040,322.410 154.600 C 322.806 154.160,323.910 151.910,324.865 149.600 L 326.600 145.400 326.680 79.600 C 326.762 12.903,326.862 6.216,327.792 4.943 C 328.260 4.304,329.303 4.217,338.256 4.075 C 348.735 3.908,349.072 3.942,357.200 5.959 C 359.950 6.642,363.006 7.391,363.990 7.623 C 364.975 7.855,367.229 8.999,369.000 10.166 C 372.641 12.564,374.157 13.382,375.600 13.727 C 377.312 14.137,386.855 23.905,389.098 27.543 C 389.592 28.344,389.997 28.842,389.998 28.649 C 390.012 26.286,378.284 13.324,375.531 12.659 C 374.943 12.517,373.953 11.974,373.331 11.454 C 372.709 10.934,371.480 10.146,370.600 9.705 C 369.720 9.263,368.010 8.361,366.800 7.699 C 365.324 6.892,363.777 6.417,362.098 6.254 C 360.687 6.118,358.770 5.593,357.698 5.051 C 354.569 3.468,329.815 2.228,326.400 3.484 M392.613 34.331 C 392.763 34.624,393.031 35.344,393.209 35.931 C 393.467 36.789,393.538 36.837,393.566 36.176 C 393.585 35.724,393.317 35.004,392.970 34.576 C 392.624 34.149,392.463 34.039,392.613 34.331 M394.020 39.885 C 394.009 40.152,394.379 41.322,394.842 42.485 C 395.305 43.648,395.835 45.860,396.018 47.400 L 396.352 50.200 396.217 47.400 C 396.103 45.035,394.090 38.149,394.020 39.885 M240.600 100.960 C 239.180 101.586,237.327 103.371,236.987 104.440 C 236.855 104.858,236.600 105.200,236.422 105.200 C 236.026 105.200,234.640 108.381,234.015 110.725 C 233.762 111.674,233.464 112.754,233.352 113.125 C 232.813 114.917,234.420 111.488,235.118 109.358 C 236.219 106.000,239.186 102.152,241.078 101.629 C 244.232 100.759,245.455 103.350,248.426 117.200 C 249.188 120.756,249.904 123.123,250.422 123.800 C 250.590 124.020,251.126 125.460,251.613 127.000 C 252.101 128.540,253.107 130.595,253.850 131.566 C 254.592 132.537,255.200 133.595,255.200 133.917 C 255.200 134.239,255.785 135.165,256.500 135.973 C 259.302 139.143,261.431 141.729,262.095 142.770 C 262.477 143.369,263.287 144.111,263.895 144.419 C 264.503 144.726,265.810 145.633,266.800 146.433 C 268.720 147.986,273.166 150.370,275.800 151.260 C 279.775 152.602,289.216 151.709,290.764 149.843 C 291.042 149.508,292.559 148.517,294.135 147.641 C 299.476 144.671,302.785 140.428,303.029 136.235 L 303.171 133.800 302.801 135.813 C 302.022 140.057,299.760 142.908,294.400 146.403 C 292.970 147.335,290.990 148.661,290.000 149.349 L 288.200 150.600 282.800 150.547 L 277.400 150.495 273.200 148.233 C 268.114 145.494,263.346 142.226,262.733 141.059 C 262.486 140.586,261.618 139.390,260.804 138.400 C 259.991 137.410,258.814 135.700,258.189 134.600 C 257.563 133.500,256.278 131.566,255.331 130.303 C 254.028 128.562,253.454 127.301,252.962 125.103 C 252.606 123.506,251.789 121.271,251.148 120.136 C 250.200 118.456,249.869 117.151,249.374 113.136 C 248.264 104.125,244.686 99.159,240.600 100.960 M232.672 118.600 C 232.799 119.700,232.969 120.675,233.051 120.767 C 233.332 121.082,233.120 118.599,232.780 117.600 C 232.551 116.926,232.516 117.251,232.672 118.600 M302.934 124.000 C 302.934 125.650,303.005 126.325,303.091 125.500 C 303.178 124.675,303.178 123.325,303.091 122.500 C 303.005 121.675,302.934 122.350,302.934 124.000 M234.235 133.527 C 234.351 134.917,234.609 136.447,234.808 136.927 C 235.208 137.891,234.954 135.437,234.360 132.600 C 234.097 131.347,234.070 131.548,234.235 133.527 M235.200 138.160 C 235.200 138.308,235.738 139.367,236.396 140.514 C 237.513 142.461,238.153 142.598,237.140 140.674 C 236.556 139.563,235.200 137.806,235.200 138.160 M201.000 205.828 C 194.007 206.312,188.580 207.042,185.800 207.871 C 183.834 208.458,180.674 208.974,177.609 209.211 C 172.986 209.567,168.646 210.545,166.600 211.691 C 166.160 211.938,164.090 212.365,162.000 212.641 C 159.760 212.936,157.260 213.560,155.909 214.162 C 154.649 214.723,152.418 215.373,150.951 215.608 C 148.205 216.046,147.257 216.410,145.695 217.621 C 145.193 218.010,143.680 218.446,142.295 218.599 C 140.573 218.790,139.023 219.305,137.292 220.262 C 135.913 221.024,133.780 221.910,132.552 222.229 C 131.324 222.549,129.392 223.419,128.260 224.163 C 127.127 224.906,125.637 225.633,124.949 225.778 C 124.261 225.923,123.122 226.468,122.417 226.988 C 121.711 227.508,120.114 228.339,118.867 228.835 C 117.620 229.331,116.142 230.052,115.582 230.437 C 115.022 230.822,113.569 231.578,112.351 232.116 C 111.134 232.654,109.360 233.659,108.409 234.347 C 107.458 235.036,106.459 235.600,106.189 235.600 C 105.919 235.600,105.465 235.880,105.181 236.223 C 104.896 236.566,104.019 237.114,103.232 237.441 C 102.444 237.768,101.166 238.543,100.392 239.163 C 99.617 239.783,98.177 240.695,97.192 241.189 C 96.206 241.683,94.897 242.559,94.282 243.136 C 93.668 243.712,92.457 244.547,91.591 244.992 C 90.725 245.436,87.878 247.015,85.264 248.500 C 80.230 251.359,79.052 251.650,76.617 250.633 C 74.816 249.880,67.397 245.002,65.482 243.311 C 64.648 242.573,63.345 241.674,62.586 241.313 C 61.828 240.951,61.116 240.365,61.003 240.010 C 60.890 239.654,58.279 237.413,55.199 235.028 C 52.120 232.643,49.600 230.542,49.600 230.358 C 49.600 230.037,45.807 227.045,44.296 226.174 C 43.890 225.940,42.055 224.356,40.219 222.653 C 35.204 218.001,31.477 215.948,28.240 216.053 L 26.600 216.107 28.400 216.371 C 31.009 216.753,37.066 221.332,46.432 230.000 C 48.099 231.543,50.439 233.510,51.632 234.371 C 55.887 237.443,58.956 239.837,61.875 242.362 C 63.504 243.771,66.430 245.931,68.377 247.162 C 70.324 248.393,73.043 250.190,74.419 251.156 C 78.986 254.361,79.653 254.155,90.364 246.212 C 91.115 245.655,92.054 245.200,92.451 245.200 C 92.848 245.200,93.790 244.584,94.543 243.830 C 95.296 243.077,96.697 242.062,97.656 241.574 C 98.615 241.086,100.026 240.172,100.791 239.543 C 101.556 238.915,102.381 238.400,102.624 238.400 C 103.261 238.400,108.677 235.498,111.163 233.825 C 112.327 233.041,113.492 232.400,113.751 232.400 C 114.010 232.400,115.150 231.702,116.285 230.849 C 117.420 229.996,118.959 229.184,119.704 229.044 C 120.449 228.905,121.876 228.272,122.874 227.639 C 123.872 227.006,125.299 226.360,126.045 226.204 C 126.790 226.047,128.214 225.405,129.209 224.776 C 130.204 224.147,132.143 223.371,133.517 223.050 C 134.909 222.726,136.946 221.850,138.115 221.074 C 139.645 220.059,140.863 219.602,142.607 219.390 C 145.232 219.072,146.037 218.749,147.731 217.341 C 148.653 216.573,149.324 216.400,151.370 216.400 C 153.482 216.400,154.309 216.172,156.594 214.960 C 158.934 213.718,159.858 213.471,163.298 213.173 C 167.761 212.785,168.564 212.597,170.000 211.603 C 171.783 210.369,173.696 210.015,179.683 209.810 C 183.660 209.673,186.121 209.400,187.283 208.967 C 192.778 206.915,191.002 207.017,221.200 207.008 C 250.442 207.000,253.307 207.144,256.373 208.786 C 257.350 209.309,263.023 209.936,269.218 210.207 C 275.345 210.475,276.156 210.623,278.328 211.873 C 279.667 212.643,280.976 212.950,284.128 213.233 C 289.157 213.685,289.665 213.799,292.400 215.091 C 293.830 215.766,295.789 216.256,298.000 216.492 C 300.611 216.771,302.008 217.169,304.022 218.208 C 305.861 219.158,307.453 219.645,309.352 219.839 C 311.194 220.028,312.506 220.419,313.453 221.062 C 316.070 222.838,317.962 223.600,319.753 223.600 C 321.040 223.600,321.854 223.863,322.669 224.541 C 324.242 225.849,325.383 226.400,326.518 226.400 C 327.052 226.400,328.158 226.854,328.977 227.410 C 329.795 227.965,331.561 228.865,332.901 229.410 C 334.240 229.954,335.621 230.657,335.969 230.972 C 336.317 231.287,337.771 232.102,339.201 232.784 C 341.678 233.966,344.401 235.680,346.983 237.683 C 347.633 238.187,348.830 238.898,349.642 239.262 C 350.454 239.626,351.271 240.184,351.459 240.502 C 351.646 240.820,353.375 242.290,355.300 243.769 C 360.005 247.385,359.983 247.627,354.718 250.154 C 352.479 251.228,349.724 252.322,348.597 252.584 C 347.469 252.847,345.748 253.606,344.773 254.273 C 343.798 254.939,342.309 255.612,341.464 255.767 C 339.580 256.114,338.000 256.807,338.000 257.287 C 338.000 257.484,336.695 258.242,335.100 258.971 C 328.169 262.139,328.925 266.300,336.888 268.810 C 338.490 269.315,340.430 270.035,341.200 270.410 C 341.970 270.785,343.983 271.293,345.674 271.539 C 347.364 271.786,350.064 272.506,351.674 273.141 C 353.283 273.776,355.416 274.414,356.413 274.559 C 358.402 274.849,361.115 276.281,360.553 276.745 C 360.359 276.906,359.210 277.856,358.000 278.857 C 356.790 279.857,355.392 280.892,354.894 281.155 C 354.395 281.419,353.101 282.392,352.018 283.317 C 349.180 285.743,346.198 287.951,345.341 288.263 C 344.934 288.412,343.921 289.137,343.090 289.875 C 342.260 290.612,340.460 291.779,339.090 292.468 C 337.721 293.157,335.783 294.132,334.785 294.635 C 333.786 295.139,332.628 295.927,332.211 296.388 C 331.794 296.849,330.659 297.425,329.688 297.670 C 328.718 297.914,327.065 298.705,326.015 299.427 C 324.965 300.150,323.396 300.932,322.529 301.165 C 321.662 301.399,320.153 302.113,319.176 302.752 C 318.199 303.391,316.770 304.045,316.000 304.207 C 315.230 304.368,313.569 305.018,312.308 305.651 C 311.047 306.285,308.475 307.163,306.591 307.602 C 304.708 308.041,302.632 308.796,301.978 309.279 C 301.162 309.883,299.457 310.379,296.536 310.864 C 293.483 311.371,292.035 311.803,291.405 312.395 C 290.202 313.526,288.314 314.000,285.003 314.002 C 281.839 314.005,280.042 314.423,276.826 315.903 C 274.893 316.793,273.793 316.971,268.481 317.250 C 261.908 317.595,258.042 318.153,256.417 318.989 C 253.991 320.237,249.610 320.401,219.121 320.385 C 202.334 320.377,187.880 320.215,187.000 320.025 C 186.120 319.836,184.500 319.487,183.400 319.250 C 182.300 319.014,180.410 318.548,179.200 318.215 C 177.990 317.882,175.740 317.601,174.200 317.592 C 169.683 317.563,166.343 316.978,163.377 315.697 C 161.664 314.957,159.527 314.396,157.800 314.232 C 154.144 313.886,151.988 313.302,151.000 312.391 C 150.293 311.739,148.330 311.270,143.342 310.559 C 142.650 310.460,141.454 309.879,140.684 309.267 C 139.742 308.518,138.402 307.991,136.593 307.658 C 135.113 307.385,132.842 306.627,131.546 305.973 C 130.250 305.319,128.361 304.670,127.347 304.531 C 125.998 304.346,125.151 303.924,124.180 302.954 C 123.452 302.225,122.348 301.518,121.728 301.382 C 119.846 300.970,118.348 300.304,117.247 299.390 C 116.671 298.913,115.660 298.390,115.000 298.229 C 114.340 298.068,111.720 296.601,109.179 294.968 C 106.637 293.336,104.272 292.000,103.923 292.000 C 103.575 292.000,102.371 291.368,101.248 290.596 C 100.125 289.823,98.240 288.829,97.058 288.387 C 95.876 287.945,94.570 287.209,94.155 286.751 C 93.741 286.293,92.322 285.394,91.001 284.753 C 86.461 282.549,84.488 281.373,82.845 279.888 C 81.457 278.635,80.914 278.400,79.396 278.400 L 77.594 278.400 67.364 288.500 C 61.738 294.055,56.857 299.129,56.517 299.776 C 56.178 300.423,54.528 302.344,52.850 304.045 C 49.397 307.546,46.002 311.474,43.380 315.000 C 40.461 318.926,37.213 322.944,36.689 323.277 C 36.414 323.452,36.383 323.590,36.620 323.594 C 37.411 323.605,42.706 318.797,44.436 316.497 C 46.524 313.721,53.795 305.421,56.700 302.497 C 57.855 301.334,58.800 300.207,58.800 299.993 C 58.800 299.160,72.490 285.323,75.500 283.112 C 76.435 282.426,77.200 281.715,77.200 281.532 C 77.200 279.578,80.738 279.050,82.323 280.767 C 82.915 281.410,84.390 282.414,85.600 282.999 C 89.015 284.652,91.652 286.101,93.400 287.285 C 94.280 287.881,95.746 288.631,96.658 288.952 C 97.569 289.272,99.224 290.173,100.334 290.954 C 101.445 291.734,102.859 292.492,103.477 292.638 C 104.095 292.784,105.050 293.300,105.600 293.786 C 106.150 294.272,107.500 295.173,108.600 295.789 C 109.700 296.404,110.960 297.228,111.400 297.618 C 111.840 298.009,112.925 298.521,113.811 298.756 C 114.696 298.990,116.029 299.631,116.773 300.180 C 117.516 300.728,119.041 301.474,120.162 301.838 C 121.283 302.201,122.650 302.914,123.200 303.423 C 123.758 303.938,125.397 304.646,126.908 305.024 C 128.397 305.396,130.377 306.199,131.308 306.808 C 132.239 307.417,133.810 308.047,134.800 308.207 C 135.790 308.367,137.920 309.196,139.534 310.049 C 141.830 311.263,142.917 311.602,144.534 311.610 C 147.436 311.623,149.582 312.197,150.239 313.135 C 150.877 314.046,155.281 315.200,158.119 315.200 C 159.185 315.200,160.576 315.565,161.640 316.124 C 163.960 317.341,166.807 317.934,172.400 318.364 C 175.571 318.608,177.994 319.052,180.200 319.795 C 186.636 321.961,253.939 322.261,257.286 320.139 C 258.022 319.672,265.461 318.431,267.625 318.414 C 271.396 318.385,278.308 317.235,279.992 316.358 C 281.115 315.772,282.874 315.374,285.333 315.148 C 289.319 314.781,290.740 314.357,292.635 312.965 C 293.570 312.279,294.815 311.953,297.765 311.624 C 299.907 311.385,302.141 310.947,302.730 310.649 C 303.779 310.119,307.398 308.930,310.635 308.051 C 311.534 307.807,312.658 307.270,313.132 306.859 C 313.606 306.448,315.030 305.795,316.297 305.409 C 317.564 305.023,319.235 304.211,320.012 303.606 C 320.788 303.000,322.388 302.297,323.568 302.044 C 326.286 301.461,328.317 300.502,328.819 299.565 C 329.034 299.163,329.840 298.716,330.609 298.572 C 331.379 298.427,332.107 298.150,332.227 297.956 C 332.347 297.762,333.771 296.991,335.392 296.242 C 338.499 294.806,341.292 293.044,343.571 291.081 C 344.325 290.431,345.573 289.636,346.345 289.313 C 347.714 288.742,350.197 287.054,351.000 286.150 C 351.220 285.902,351.688 285.542,352.041 285.350 C 352.800 284.935,355.883 282.369,357.987 280.400 C 358.810 279.630,359.959 278.609,360.542 278.130 C 362.302 276.684,361.499 275.027,358.400 273.712 C 357.630 273.385,356.271 272.788,355.379 272.385 C 354.488 271.982,352.148 271.441,350.179 271.183 C 347.935 270.888,345.406 270.219,343.400 269.389 C 341.640 268.661,339.390 267.841,338.400 267.566 C 333.470 266.197,332.385 262.444,336.269 260.193 C 337.331 259.578,338.761 258.589,339.446 257.997 C 340.162 257.378,341.430 256.802,342.427 256.642 C 343.382 256.489,344.711 256.032,345.382 255.625 C 346.052 255.219,347.950 254.406,349.600 253.819 C 351.250 253.232,353.400 252.267,354.378 251.676 C 355.355 251.084,356.975 250.124,357.978 249.542 C 360.811 247.897,360.701 246.940,357.300 243.661 C 354.670 241.126,351.412 238.556,348.432 236.667 C 347.680 236.190,346.780 235.620,346.432 235.400 C 346.084 235.180,344.990 234.448,344.000 233.772 C 343.010 233.097,340.040 231.451,337.400 230.115 C 334.760 228.778,331.718 227.216,330.640 226.642 C 329.563 226.069,328.343 225.600,327.931 225.600 C 327.518 225.600,326.030 224.873,324.623 223.985 C 322.791 222.828,321.462 222.302,319.933 222.130 C 318.550 221.974,316.956 221.398,315.400 220.492 C 313.632 219.463,312.293 219.016,310.316 218.796 C 308.319 218.573,307.155 218.181,305.775 217.266 C 304.709 216.560,303.127 215.931,302.059 215.788 C 299.764 215.482,295.182 214.309,292.873 213.437 C 291.923 213.079,289.763 212.673,288.073 212.536 C 286.215 212.386,283.419 211.751,281.000 210.930 C 277.448 209.724,276.266 209.529,270.452 209.188 C 266.851 208.978,263.235 208.625,262.416 208.404 C 254.256 206.207,250.772 205.958,226.200 205.820 C 213.440 205.749,202.100 205.752,201.000 205.828 M24.109 224.800 C 24.109 225.790,24.187 226.195,24.282 225.700 C 24.378 225.205,24.378 224.395,24.282 223.900 C 24.187 223.405,24.109 223.810,24.109 224.800 M23.724 229.400 C 23.726 230.720,23.801 231.212,23.890 230.493 C 23.979 229.774,23.977 228.694,23.886 228.093 C 23.795 227.492,23.722 228.080,23.724 229.400 M275.598 237.801 C 274.402 238.572,273.059 239.317,272.612 239.458 C 269.843 240.331,265.051 247.787,264.694 251.776 C 264.009 259.438,266.552 265.935,271.592 269.400 L 274.501 271.400 278.990 271.400 L 283.480 271.400 286.040 269.650 C 289.270 267.441,291.867 264.717,292.951 262.400 C 294.249 259.626,294.195 249.495,292.868 246.600 C 289.087 238.357,281.073 234.274,275.598 237.801 M285.185 239.384 C 296.822 244.723,296.229 263.737,284.234 269.875 C 274.433 274.889,264.790 262.850,268.124 249.763 C 269.045 246.148,272.251 240.400,273.346 240.400 C 273.607 240.400,274.896 239.866,276.210 239.213 C 279.455 237.600,281.377 237.637,285.185 239.384 M28.870 247.500 C 29.197 247.885,29.970 249.100,30.587 250.200 C 31.204 251.300,32.180 252.660,32.755 253.223 C 33.330 253.786,35.510 256.284,37.600 258.775 C 39.690 261.266,41.734 263.686,42.142 264.152 C 43.780 266.022,43.727 270.061,42.046 271.532 C 41.369 272.125,37.836 279.600,38.233 279.600 C 38.320 279.600,39.132 278.115,40.038 276.300 C 40.944 274.485,42.014 272.640,42.415 272.200 C 43.373 271.150,44.546 267.717,44.464 266.200 C 44.414 265.262,43.680 264.302,41.100 261.800 C 39.285 260.040,37.080 257.631,36.200 256.447 C 35.320 255.263,33.970 253.516,33.200 252.565 C 32.430 251.614,31.170 249.929,30.400 248.822 C 29.630 247.715,28.837 246.807,28.638 246.804 C 28.439 246.802,28.543 247.115,28.870 247.500 M35.892 284.567 C 33.876 288.887,33.980 289.400,36.042 285.308 C 36.945 283.516,37.620 281.889,37.542 281.692 C 37.464 281.495,36.721 282.788,35.892 284.567 M33.293 294.400 C 33.293 295.170,33.375 295.485,33.476 295.100 C 33.576 294.715,33.576 294.085,33.476 293.700 C 33.375 293.315,33.293 293.630,33.293 294.400 M396.128 356.000 C 396.128 357.430,396.201 358.015,396.289 357.300 C 396.378 356.585,396.378 355.415,396.289 354.700 C 396.201 353.985,396.128 354.570,396.128 356.000 M395.071 362.253 C 394.670 362.789,394.431 363.446,394.540 363.713 C 394.674 364.046,394.747 364.020,394.768 363.631 C 394.786 363.319,395.099 362.733,395.464 362.329 C 395.830 361.925,396.055 361.524,395.964 361.437 C 395.874 361.350,395.472 361.717,395.071 362.253 M393.844 366.162 C 393.673 367.240,392.926 369.393,392.184 370.946 C 390.560 374.345,390.600 374.631,392.330 371.988 C 393.577 370.083,394.618 366.327,394.302 364.876 C 394.221 364.504,394.015 365.083,393.844 366.162 M390.032 375.969 C 390.014 376.281,389.692 376.911,389.315 377.369 C 388.669 378.153,388.683 378.151,389.562 377.342 C 390.075 376.870,390.397 376.240,390.279 375.942 C 390.104 375.503,390.057 375.508,390.032 375.969 M387.624 379.653 C 386.662 380.954,381.025 386.973,380.036 387.754 C 379.725 387.999,378.734 388.920,377.832 389.800 C 376.931 390.680,375.695 391.623,375.085 391.897 C 374.476 392.170,373.875 392.660,373.750 392.986 C 373.625 393.312,372.865 393.697,372.061 393.842 C 370.230 394.172,369.275 394.641,367.977 395.850 C 367.223 396.552,366.223 396.896,364.177 397.156 C 361.322 397.520,358.807 398.616,358.803 399.500 C 358.801 399.775,358.980 400.000,359.200 400.000 C 359.420 400.000,359.600 399.750,359.600 399.443 C 359.600 398.599,362.542 397.600,365.028 397.600 C 367.255 397.600,369.030 396.969,369.963 395.845 C 370.240 395.511,371.471 394.945,372.698 394.589 C 375.010 393.917,374.983 393.939,383.120 385.892 C 384.506 384.521,386.163 382.637,386.804 381.704 C 388.859 378.709,389.492 377.126,387.624 379.653 " stroke="none" fill="#62bba0" fill-rule="evenodd"></path><path id="path3" d="M44.000 2.284 C 41.442 2.583,37.603 3.583,36.091 4.342 C 35.271 4.754,33.610 5.315,32.400 5.589 C 23.122 7.687,9.358 20.481,2.871 33.039 C 2.632 33.500,2.142 35.177,1.780 36.766 C 1.416 38.369,0.873 39.750,0.562 39.870 C -0.143 40.141,-0.183 42.000,0.516 42.000 C 1.009 42.000,2.400 37.693,2.400 36.168 C 2.400 33.578,12.705 19.484,17.845 15.045 C 22.104 11.367,30.000 7.042,34.000 6.197 C 34.770 6.035,36.230 5.483,37.245 4.972 C 40.917 3.122,37.593 3.163,173.058 3.284 C 300.829 3.399,301.923 3.407,302.791 4.192 C 303.549 4.877,303.627 5.226,303.372 6.792 C 303.210 7.786,303.036 37.864,302.985 73.631 C 302.897 134.869,302.851 138.742,302.186 140.031 C 301.002 142.329,297.164 145.957,294.135 147.641 C 292.559 148.517,291.042 149.508,290.764 149.843 C 289.216 151.709,279.775 152.602,275.800 151.260 C 273.166 150.370,268.720 147.986,266.800 146.433 C 265.810 145.633,264.503 144.726,263.895 144.419 C 263.287 144.111,262.477 143.369,262.095 142.770 C 261.431 141.729,259.302 139.143,256.500 135.973 C 255.785 135.165,255.200 134.239,255.200 133.917 C 255.200 133.595,254.592 132.537,253.850 131.566 C 253.107 130.595,252.101 128.540,251.613 127.000 C 251.126 125.460,250.590 124.020,250.422 123.800 C 249.904 123.123,249.188 120.756,248.426 117.200 C 245.455 103.350,244.232 100.759,241.078 101.629 C 239.345 102.108,236.152 106.034,235.362 108.659 C 235.085 109.579,234.299 111.608,233.614 113.168 C 232.492 115.725,232.413 116.162,232.806 117.623 C 233.046 118.514,233.130 119.999,232.993 120.922 C 232.549 123.903,235.030 137.440,236.402 139.521 C 237.026 140.467,237.661 141.979,237.814 142.880 C 238.203 145.188,238.966 146.846,240.144 147.950 C 240.702 148.473,241.268 149.397,241.401 150.003 C 241.534 150.610,242.230 151.802,242.947 152.653 C 243.665 153.504,245.140 155.458,246.226 156.997 C 247.312 158.535,248.830 160.334,249.600 160.994 C 250.370 161.655,251.634 162.872,252.409 163.698 C 253.184 164.524,254.053 165.200,254.340 165.200 C 254.628 165.200,255.556 165.875,256.402 166.700 C 259.114 169.342,263.265 171.542,265.613 171.582 C 266.171 171.592,267.589 172.220,268.765 172.978 C 271.500 174.740,272.831 174.895,283.800 174.731 L 292.600 174.600 295.604 173.100 C 297.255 172.275,299.076 171.600,299.650 171.600 C 303.286 171.600,317.672 160.397,319.426 156.200 C 319.734 155.462,320.518 153.956,321.168 152.854 C 321.819 151.751,322.530 149.893,322.750 148.724 C 322.970 147.556,323.431 145.812,323.775 144.850 C 324.443 142.979,324.640 137.600,324.040 137.600 C 323.842 137.600,323.597 139.175,323.495 141.100 C 323.286 145.065,322.211 150.295,321.419 151.197 C 321.128 151.529,320.339 152.901,319.666 154.246 C 317.921 157.736,306.381 168.400,304.350 168.400 C 304.164 168.400,303.154 168.918,302.106 169.552 C 301.058 170.186,299.504 170.828,298.653 170.979 C 297.802 171.130,296.117 171.706,294.909 172.259 C 290.279 174.377,273.210 174.541,270.442 172.494 C 269.839 172.049,268.008 171.127,266.373 170.446 C 264.738 169.766,261.960 168.211,260.200 166.992 C 258.440 165.773,256.550 164.480,256.000 164.118 C 251.003 160.829,241.241 147.204,239.776 141.474 C 239.428 140.113,238.616 137.937,237.973 136.638 C 236.017 132.693,234.927 118.264,236.153 112.555 C 236.860 109.260,240.109 104.431,241.630 104.413 C 243.705 104.387,245.784 108.926,247.813 117.914 C 248.175 119.517,248.917 121.947,249.462 123.314 C 250.008 124.681,250.800 126.895,251.223 128.234 C 251.646 129.573,252.373 131.013,252.838 131.434 C 253.304 131.855,254.031 132.879,254.455 133.708 C 255.249 135.264,256.522 136.991,260.526 141.945 C 262.795 144.752,263.889 145.661,268.133 148.270 C 269.270 148.968,270.700 149.931,271.310 150.409 C 274.693 153.057,288.408 153.732,291.680 151.411 C 292.406 150.896,294.135 149.791,295.523 148.956 C 296.910 148.121,299.437 145.989,301.137 144.218 C 306.116 139.032,305.636 147.041,305.509 71.189 C 305.391 0.151,305.529 4.567,303.365 2.771 C 302.714 2.230,48.532 1.753,44.000 2.284 M327.436 2.592 C 326.576 2.899,325.496 3.559,325.036 4.060 L 324.200 4.970 325.141 4.185 C 327.412 2.291,353.612 2.979,357.678 5.039 C 358.771 5.593,360.674 6.116,362.098 6.254 C 363.777 6.417,365.324 6.892,366.800 7.699 C 368.010 8.361,369.720 9.263,370.600 9.705 C 371.480 10.146,372.709 10.934,373.331 11.454 C 373.953 11.974,374.943 12.517,375.531 12.659 C 378.810 13.451,388.154 24.148,390.410 29.690 C 391.033 31.222,391.985 33.133,392.526 33.938 C 393.066 34.742,393.624 36.210,393.765 37.200 C 393.907 38.190,394.559 40.565,395.216 42.477 L 396.409 45.954 396.304 203.735 C 396.205 354.202,396.167 361.552,395.490 362.301 C 395.062 362.774,394.559 364.450,394.223 366.525 C 393.787 369.220,393.363 370.423,392.264 372.082 C 391.492 373.247,390.729 374.740,390.568 375.400 C 390.407 376.060,389.930 377.050,389.508 377.600 C 389.086 378.150,388.047 379.680,387.199 381.000 C 386.351 382.320,384.519 384.521,383.128 385.892 C 374.848 394.053,375.013 393.916,372.698 394.589 C 371.471 394.945,370.240 395.511,369.963 395.845 C 369.030 396.969,367.255 397.600,365.028 397.600 C 362.542 397.600,359.600 398.599,359.600 399.443 C 359.600 400.287,366.620 400.245,366.945 399.400 C 367.071 399.070,367.611 398.800,368.143 398.800 C 368.676 398.800,370.167 398.035,371.456 397.100 C 372.745 396.165,374.430 395.079,375.200 394.686 C 378.662 392.920,380.128 391.715,385.128 386.528 C 390.194 381.272,394.800 374.340,394.800 371.971 C 394.800 371.728,395.329 370.386,395.976 368.989 C 396.623 367.591,397.478 365.582,397.876 364.524 C 398.569 362.682,398.605 356.022,398.724 207.400 C 398.859 38.788,398.907 42.800,396.735 37.852 C 396.071 36.339,395.274 34.247,394.964 33.205 C 394.655 32.163,394.067 30.880,393.659 30.355 C 393.251 29.830,392.706 28.754,392.448 27.964 C 390.254 21.233,372.939 7.227,364.790 5.590 C 363.585 5.349,361.531 4.686,360.223 4.119 C 355.657 2.136,331.831 1.026,327.436 2.592 M323.904 8.287 C 323.541 13.881,323.619 31.884,324.002 30.648 C 324.198 30.015,324.401 24.122,324.452 17.554 C 324.544 5.913,324.313 2.008,323.904 8.287 M324.140 124.800 C 324.140 126.670,324.209 127.435,324.293 126.500 C 324.377 125.565,324.377 124.035,324.293 123.100 C 324.209 122.165,324.140 122.930,324.140 124.800 M193.717 207.224 C 192.131 207.417,190.151 207.869,189.317 208.227 C 186.522 209.429,185.429 209.607,179.600 209.810 C 173.691 210.015,171.778 210.372,170.000 211.603 C 168.564 212.597,167.761 212.785,163.298 213.173 C 159.858 213.471,158.934 213.718,156.594 214.960 C 154.309 216.172,153.482 216.400,151.370 216.400 C 149.324 216.400,148.653 216.573,147.731 217.341 C 146.037 218.749,145.232 219.072,142.607 219.390 C 140.863 219.602,139.645 220.059,138.115 221.074 C 136.946 221.850,134.909 222.726,133.517 223.050 C 132.143 223.371,130.204 224.147,129.209 224.776 C 128.214 225.405,126.790 226.047,126.045 226.204 C 125.299 226.360,123.872 227.006,122.874 227.639 C 121.876 228.272,120.449 228.905,119.704 229.044 C 118.959 229.184,117.420 229.996,116.285 230.849 C 115.150 231.702,114.010 232.400,113.751 232.400 C 113.492 232.400,112.327 233.041,111.163 233.825 C 108.677 235.498,103.261 238.400,102.624 238.400 C 102.381 238.400,101.556 238.915,100.791 239.543 C 100.026 240.172,98.615 241.086,97.656 241.574 C 96.697 242.062,95.296 243.077,94.543 243.830 C 93.790 244.584,92.848 245.200,92.451 245.200 C 92.054 245.200,91.115 245.655,90.364 246.212 C 79.653 254.155,78.986 254.361,74.419 251.156 C 73.043 250.190,70.324 248.393,68.377 247.162 C 66.430 245.931,63.504 243.771,61.875 242.362 C 58.956 239.837,55.887 237.443,51.632 234.371 C 50.439 233.510,48.099 231.543,46.432 230.000 C 30.980 215.699,24.428 212.696,24.390 219.900 C 24.384 220.945,24.273 224.548,24.142 227.906 C 23.878 234.668,24.436 239.822,25.592 241.310 C 25.973 241.800,26.493 242.830,26.749 243.600 C 27.005 244.370,27.857 245.720,28.642 246.600 C 29.427 247.480,30.543 248.920,31.121 249.800 C 31.699 250.680,32.718 252.046,33.386 252.836 C 34.054 253.626,35.320 255.246,36.200 256.436 C 37.080 257.626,39.285 260.040,41.100 261.800 C 43.680 264.302,44.414 265.262,44.464 266.200 C 44.545 267.699,43.380 271.136,42.432 272.200 C 41.412 273.344,37.600 280.779,37.600 281.624 C 37.600 282.014,36.983 283.497,36.228 284.919 C 34.605 287.980,34.125 289.624,33.574 294.018 C 33.348 295.820,32.929 297.528,32.643 297.814 C 30.964 299.493,30.702 310.431,32.269 313.438 C 32.717 314.297,33.295 316.260,33.554 317.800 C 34.426 322.988,35.943 324.527,37.819 322.125 C 38.303 321.506,39.349 320.190,40.145 319.200 C 40.940 318.210,42.395 316.320,43.378 315.000 C 46.010 311.464,49.403 307.540,52.850 304.045 C 54.528 302.344,56.178 300.423,56.517 299.776 C 56.857 299.129,61.738 294.055,67.364 288.500 L 77.594 278.400 79.396 278.400 C 80.914 278.400,81.457 278.635,82.845 279.888 C 84.488 281.373,86.461 282.549,91.001 284.753 C 92.322 285.394,93.741 286.293,94.155 286.751 C 94.570 287.209,95.876 287.945,97.058 288.387 C 98.240 288.829,100.125 289.823,101.248 290.596 C 102.371 291.368,103.575 292.000,103.923 292.000 C 104.272 292.000,106.637 293.336,109.179 294.968 C 111.720 296.601,114.340 298.068,115.000 298.229 C 115.660 298.390,116.671 298.913,117.247 299.390 C 118.348 300.304,119.846 300.970,121.728 301.382 C 122.348 301.518,123.452 302.225,124.180 302.954 C 125.151 303.924,125.998 304.346,127.347 304.531 C 128.361 304.670,130.250 305.319,131.546 305.973 C 132.842 306.627,135.113 307.385,136.593 307.658 C 138.402 307.991,139.742 308.518,140.684 309.267 C 141.454 309.879,142.650 310.460,143.342 310.559 C 148.330 311.270,150.293 311.739,151.000 312.391 C 151.988 313.302,154.144 313.886,157.800 314.232 C 159.527 314.396,161.664 314.957,163.377 315.697 C 166.343 316.978,169.683 317.563,174.200 317.592 C 175.740 317.601,177.990 317.882,179.200 318.215 C 180.410 318.548,182.300 319.014,183.400 319.250 C 184.500 319.487,186.120 319.836,187.000 320.025 C 187.880 320.215,202.334 320.377,219.121 320.385 C 249.610 320.401,253.991 320.237,256.417 318.989 C 258.042 318.153,261.908 317.595,268.481 317.250 C 273.793 316.971,274.893 316.793,276.826 315.903 C 280.042 314.423,281.839 314.005,285.003 314.002 C 288.314 314.000,290.202 313.526,291.405 312.395 C 292.035 311.803,293.483 311.371,296.536 310.864 C 299.457 310.379,301.162 309.883,301.978 309.279 C 302.632 308.796,304.708 308.041,306.591 307.602 C 308.475 307.163,311.047 306.285,312.308 305.651 C 313.569 305.018,315.230 304.368,316.000 304.207 C 316.770 304.045,318.199 303.391,319.176 302.752 C 320.153 302.113,321.662 301.399,322.529 301.165 C 323.396 300.932,324.965 300.150,326.015 299.427 C 327.065 298.705,328.718 297.914,329.688 297.670 C 330.659 297.425,331.794 296.849,332.211 296.388 C 332.628 295.927,333.786 295.139,334.785 294.635 C 335.783 294.132,337.721 293.157,339.090 292.468 C 340.460 291.779,342.260 290.612,343.090 289.875 C 343.921 289.137,344.934 288.412,345.341 288.263 C 346.198 287.951,349.180 285.743,352.018 283.317 C 353.101 282.392,354.395 281.419,354.894 281.155 C 355.392 280.892,356.790 279.857,358.000 278.857 C 359.210 277.856,360.359 276.906,360.553 276.745 C 361.115 276.281,358.402 274.849,356.413 274.559 C 355.416 274.414,353.283 273.776,351.674 273.141 C 350.064 272.506,347.364 271.786,345.674 271.540 C 343.983 271.294,342.090 270.834,341.466 270.519 C 340.843 270.203,338.981 269.504,337.329 268.964 C 335.677 268.425,333.667 267.514,332.863 266.939 L 331.400 265.895 332.836 267.294 C 333.662 268.099,335.191 268.994,336.436 269.403 C 337.626 269.793,339.111 270.471,339.736 270.909 C 340.436 271.400,342.044 271.852,343.936 272.090 C 349.001 272.725,356.660 275.895,356.482 277.282 C 356.269 278.932,347.853 286.169,345.182 286.999 C 344.642 287.167,343.182 288.124,341.938 289.126 C 339.680 290.944,337.050 292.610,334.400 293.900 C 333.630 294.275,332.491 294.991,331.869 295.491 C 331.247 295.991,330.454 296.400,330.107 296.400 C 329.759 296.400,327.748 297.273,325.637 298.339 C 323.527 299.405,321.080 300.510,320.200 300.794 C 319.320 301.079,318.100 301.662,317.489 302.091 C 316.877 302.520,315.707 303.054,314.889 303.277 C 314.070 303.500,312.320 304.201,311.000 304.834 C 309.680 305.466,307.244 306.330,305.586 306.754 C 303.928 307.177,301.858 307.892,300.986 308.342 C 300.114 308.792,297.732 309.425,295.694 309.749 C 293.430 310.110,291.018 310.803,289.494 311.531 C 287.861 312.312,286.033 312.817,284.200 312.996 C 280.192 313.387,276.175 314.281,274.043 315.256 C 272.526 315.949,270.960 316.161,265.200 316.453 C 258.552 316.791,256.088 317.122,249.238 318.598 C 243.170 319.906,193.717 319.587,187.742 318.201 C 183.725 317.269,180.117 316.768,175.000 316.430 C 171.014 316.167,169.669 315.900,167.072 314.858 C 164.913 313.991,162.552 313.430,159.452 313.048 C 156.244 312.653,154.381 312.201,152.936 311.469 C 151.823 310.905,149.085 310.077,146.850 309.629 C 144.474 309.153,142.328 308.475,141.681 307.996 C 141.072 307.546,139.860 307.068,138.987 306.933 C 138.114 306.799,136.034 306.015,134.365 305.191 C 132.696 304.367,130.582 303.566,129.667 303.411 C 128.751 303.257,126.096 302.111,123.766 300.865 C 121.436 299.619,117.344 297.465,114.671 296.077 C 111.999 294.689,109.540 293.314,109.206 293.021 C 108.873 292.728,107.129 291.753,105.330 290.855 C 103.532 289.956,101.933 289.016,101.778 288.764 C 101.622 288.513,100.214 287.695,98.648 286.948 C 95.003 285.208,90.816 282.929,90.020 282.252 C 89.679 281.961,88.658 281.437,87.751 281.086 C 86.845 280.735,85.238 279.899,84.181 279.229 C 80.497 276.892,77.860 277.075,74.933 279.869 C 67.703 286.768,58.137 296.490,57.091 298.000 C 56.405 298.990,53.528 302.246,50.697 305.235 C 47.866 308.225,45.194 311.257,44.758 311.973 C 42.472 315.731,37.246 319.769,36.413 318.421 C 34.716 315.675,34.008 304.176,35.142 297.800 C 35.377 296.480,35.738 294.320,35.944 293.000 C 36.163 291.602,37.087 289.014,38.157 286.800 C 39.168 284.710,39.998 282.730,40.000 282.400 C 40.003 282.070,40.293 281.260,40.645 280.600 C 40.998 279.940,41.619 278.450,42.025 277.289 C 42.432 276.128,43.395 274.148,44.166 272.889 C 47.353 267.683,46.879 265.184,41.607 259.400 C 40.003 257.640,38.413 255.750,38.074 255.200 C 37.735 254.650,36.883 253.570,36.181 252.800 C 28.263 244.113,24.828 232.968,26.799 222.359 C 27.733 217.334,31.101 217.879,38.238 224.209 C 40.020 225.789,42.540 227.869,43.838 228.832 C 45.137 229.796,47.550 231.832,49.200 233.358 C 50.850 234.885,53.640 237.194,55.400 238.490 C 58.715 240.932,60.592 242.408,63.426 244.800 C 64.917 246.059,66.202 246.995,70.800 250.172 C 75.633 253.511,78.157 254.512,80.282 253.930 C 82.140 253.421,89.425 249.461,90.800 248.212 C 91.350 247.712,92.254 247.197,92.808 247.067 C 93.363 246.937,94.678 246.239,95.732 245.515 C 99.285 243.076,106.190 238.788,107.600 238.145 C 108.370 237.794,109.879 236.808,110.952 235.954 C 112.026 235.099,113.061 234.400,113.253 234.400 C 113.551 234.400,117.662 232.400,125.800 228.297 C 130.360 225.997,133.872 224.419,135.000 224.161 C 136.585 223.800,138.399 222.890,139.452 221.929 C 139.989 221.438,141.466 220.961,143.452 220.636 C 145.183 220.352,147.770 219.573,149.200 218.904 C 150.630 218.235,152.775 217.568,153.966 217.421 C 155.158 217.275,157.768 216.509,159.766 215.721 C 162.396 214.682,164.350 214.204,166.839 213.989 C 168.939 213.807,171.042 213.351,172.239 212.817 C 173.318 212.336,175.640 211.786,177.400 211.594 C 184.642 210.806,189.545 210.006,192.000 209.213 C 199.209 206.883,244.739 207.174,253.214 209.604 C 253.974 209.822,257.926 210.275,261.998 210.611 C 272.660 211.491,275.172 211.847,277.254 212.772 C 278.320 213.246,280.749 213.767,282.972 213.997 C 285.382 214.247,288.380 214.914,290.938 215.770 C 293.193 216.525,296.200 217.263,297.619 217.411 C 299.268 217.583,301.053 218.114,302.561 218.880 C 304.009 219.617,306.238 220.293,308.327 220.632 C 310.628 221.004,312.197 221.505,313.166 222.175 C 314.882 223.362,317.688 224.400,319.182 224.400 C 319.776 224.400,321.059 224.924,322.031 225.564 C 323.004 226.204,324.520 226.922,325.400 227.160 C 326.280 227.398,328.980 228.687,331.400 230.024 C 333.820 231.361,336.880 232.951,338.200 233.558 C 339.520 234.164,342.220 235.746,344.200 237.074 C 346.180 238.401,348.230 239.712,348.757 239.988 C 350.432 240.865,354.238 243.984,355.167 245.241 C 356.274 246.739,356.091 247.264,353.965 248.683 C 353.045 249.297,351.835 250.105,351.276 250.477 C 350.717 250.849,349.346 251.361,348.230 251.614 C 347.113 251.867,345.361 252.580,344.336 253.198 C 343.311 253.817,341.478 254.611,340.262 254.965 C 339.047 255.318,337.546 256.025,336.927 256.536 C 336.307 257.047,335.080 257.868,334.200 258.360 C 333.320 258.852,332.252 259.737,331.827 260.327 C 331.064 261.387,331.064 261.392,331.827 260.741 C 332.252 260.379,333.815 259.535,335.300 258.866 C 336.785 258.197,338.000 257.488,338.000 257.289 C 338.000 256.807,339.576 256.114,341.464 255.767 C 342.309 255.612,343.798 254.939,344.773 254.273 C 345.748 253.606,347.469 252.847,348.597 252.584 C 349.724 252.322,352.479 251.228,354.718 250.154 C 359.983 247.627,360.005 247.385,355.300 243.769 C 353.375 242.290,351.646 240.820,351.459 240.502 C 351.271 240.184,350.454 239.626,349.642 239.262 C 348.830 238.898,347.633 238.187,346.983 237.683 C 344.401 235.680,341.678 233.966,339.201 232.784 C 337.771 232.102,336.317 231.287,335.969 230.972 C 335.621 230.657,334.240 229.954,332.901 229.410 C 331.561 228.865,329.795 227.965,328.977 227.410 C 328.158 226.854,327.052 226.400,326.518 226.400 C 325.383 226.400,324.242 225.849,322.669 224.541 C 321.854 223.863,321.040 223.600,319.753 223.600 C 317.962 223.600,316.070 222.838,313.453 221.062 C 312.506 220.419,311.194 220.028,309.352 219.839 C 307.453 219.645,305.861 219.158,304.022 218.208 C 302.008 217.169,300.611 216.771,298.000 216.492 C 295.789 216.256,293.830 215.766,292.400 215.091 C 289.665 213.799,289.157 213.685,284.128 213.233 C 280.976 212.950,279.667 212.643,278.328 211.873 C 276.156 210.623,275.345 210.475,269.218 210.207 C 263.042 209.937,257.351 209.309,256.382 208.790 C 253.475 207.235,250.947 207.096,223.400 206.983 C 208.660 206.922,195.303 207.030,193.717 207.224 M277.000 235.889 C 276.560 235.997,275.345 236.696,274.299 237.443 C 273.254 238.189,272.264 238.808,272.099 238.818 C 270.974 238.885,267.960 242.563,266.433 245.732 C 264.159 250.449,264.542 250.537,266.962 245.853 C 268.934 242.037,270.444 240.415,273.197 239.160 C 273.969 238.809,275.300 238.044,276.156 237.460 C 280.918 234.214,289.286 238.791,292.868 246.600 C 294.195 249.495,294.249 259.626,292.951 262.400 C 291.867 264.717,289.270 267.441,286.040 269.650 L 283.480 271.400 278.990 271.400 L 274.501 271.400 271.601 269.401 C 268.891 267.532,266.884 265.274,266.020 263.120 C 265.816 262.611,265.640 262.468,265.627 262.800 C 265.527 265.285,271.270 271.243,274.480 271.984 C 276.783 272.515,283.417 272.502,285.361 271.962 C 292.304 270.034,298.502 257.085,295.820 250.108 C 295.502 249.279,295.033 247.793,294.780 246.807 C 292.796 239.089,284.562 234.033,277.000 235.889 M264.443 254.884 C 264.388 256.257,265.285 262.336,265.463 261.800 C 265.536 261.580,265.346 259.690,265.041 257.600 C 264.736 255.510,264.467 254.288,264.443 254.884 M0.000 361.800 C 0.000 362.666,0.194 363.200,0.509 363.200 C 0.820 363.200,1.215 364.248,1.526 365.900 C 1.825 367.484,2.573 369.509,3.337 370.800 C 4.053 372.010,4.961 373.810,5.353 374.800 C 5.746 375.790,6.292 376.870,6.566 377.200 C 6.840 377.530,7.571 378.686,8.189 379.769 C 9.425 381.931,18.969 391.686,21.200 393.066 C 21.970 393.543,24.213 394.950,26.185 396.193 C 28.156 397.437,30.287 398.557,30.919 398.684 C 31.551 398.810,32.163 399.158,32.277 399.457 C 32.584 400.258,38.400 400.231,38.400 399.428 C 38.400 398.881,36.966 398.472,32.600 397.773 C 30.381 397.419,25.755 395.105,23.443 393.195 C 22.382 392.318,21.359 391.600,21.170 391.600 C 20.399 391.600,13.259 384.943,10.600 381.746 C 6.576 376.908,2.575 369.072,2.176 365.249 C 1.761 361.270,0.000 358.480,0.000 361.800 " stroke="none" fill="#5ec5c4" fill-rule="evenodd"></path><path id="path4" d="M44.565 4.398 C 43.445 4.563,42.094 4.982,41.562 5.331 C 41.030 5.679,38.364 6.509,35.637 7.175 C 32.910 7.841,30.391 8.624,30.039 8.915 C 29.688 9.206,27.669 10.475,25.553 11.734 C 15.590 17.666,5.549 30.542,3.823 39.600 C 3.467 41.470,3.000 43.770,2.786 44.712 C 2.537 45.805,2.398 102.499,2.401 201.712 C 2.406 373.535,2.254 363.006,4.797 367.589 C 5.227 368.365,6.604 371.070,7.857 373.600 C 10.913 379.771,19.036 389.199,22.391 390.469 C 22.781 390.617,24.282 391.517,25.724 392.469 C 30.340 395.515,31.031 395.871,34.043 396.758 C 38.076 397.946,40.000 398.819,40.000 399.461 C 40.000 399.849,40.627 400.000,42.233 400.000 C 44.924 400.000,44.962 399.452,42.371 398.024 C 41.397 397.488,40.367 396.725,40.082 396.330 C 39.249 395.176,36.455 393.727,32.800 392.553 C 30.930 391.952,28.860 391.132,28.200 390.732 C 27.540 390.331,26.704 390.002,26.341 390.001 C 25.570 390.000,23.200 387.434,23.200 386.600 C 23.200 386.286,22.837 385.834,22.394 385.597 C 20.825 384.757,15.838 379.976,15.370 378.864 C 15.109 378.243,14.271 377.367,13.508 376.916 C 12.569 376.363,12.041 375.704,11.877 374.883 C 11.743 374.215,11.030 372.708,10.292 371.534 C 9.043 369.549,8.249 367.730,6.371 362.557 C 5.660 360.599,5.629 357.824,5.628 295.957 C 5.625 111.657,5.574 67.740,5.353 58.600 C 5.096 47.991,5.402 44.737,7.195 39.000 C 7.608 37.680,8.067 35.639,8.215 34.464 C 8.448 32.617,8.723 32.103,10.243 30.674 C 11.209 29.764,12.000 28.797,12.000 28.526 C 12.000 28.254,12.329 27.709,12.731 27.316 C 13.133 26.922,13.958 25.933,14.564 25.118 C 15.171 24.304,16.462 23.171,17.433 22.602 C 18.405 22.032,19.200 21.383,19.200 21.160 C 19.200 20.936,20.045 19.999,21.078 19.077 C 22.111 18.154,23.608 16.709,24.405 15.864 C 27.587 12.489,33.587 9.694,39.737 8.720 C 48.031 7.406,60.253 7.273,179.200 7.206 C 305.980 7.134,300.237 7.034,301.019 9.333 C 301.439 10.571,301.737 98.760,301.392 119.975 L 301.103 137.750 299.052 139.934 C 297.829 141.234,296.169 142.487,294.945 143.033 C 293.815 143.538,292.501 144.497,292.025 145.165 C 291.473 145.941,290.552 146.553,289.480 146.859 C 288.556 147.122,287.516 147.577,287.169 147.869 C 286.048 148.811,281.740 148.110,278.600 146.475 C 277.940 146.131,276.370 145.724,275.112 145.570 C 273.222 145.339,272.642 145.073,271.777 144.045 C 271.200 143.360,270.427 142.800,270.059 142.800 C 268.805 142.800,265.233 140.032,264.413 138.425 C 263.975 137.567,263.073 136.060,262.409 135.075 C 261.744 134.090,261.200 133.167,261.200 133.025 C 261.200 132.882,260.488 131.802,259.617 130.623 C 258.746 129.444,257.288 126.977,256.376 125.140 C 255.464 123.303,254.198 120.770,253.561 119.510 C 252.551 117.510,252.373 116.626,252.155 112.510 C 252.001 109.599,251.694 107.461,251.352 106.913 C 251.047 106.425,250.442 105.075,250.006 103.913 C 247.567 97.408,241.184 96.541,236.238 102.043 C 234.480 103.998,234.150 104.700,232.413 110.200 C 230.936 114.876,231.057 128.485,232.616 132.956 C 232.931 133.860,233.191 135.248,233.194 136.040 C 233.202 137.867,233.793 139.556,235.451 142.490 C 236.175 143.771,236.887 145.455,237.033 146.233 C 237.179 147.014,238.081 148.609,239.049 149.796 C 240.012 150.979,240.800 152.143,240.800 152.384 C 240.800 153.305,243.233 157.589,243.983 157.991 C 244.416 158.223,245.346 159.264,246.051 160.306 C 246.756 161.348,247.570 162.470,247.860 162.800 C 251.176 166.576,252.915 167.963,256.105 169.377 C 257.257 169.888,259.190 171.112,260.400 172.098 C 266.391 176.980,270.474 177.802,286.909 177.432 C 300.547 177.125,300.891 177.082,302.187 175.543 C 302.941 174.646,303.685 174.275,305.212 174.034 C 306.501 173.830,307.631 173.347,308.319 172.705 C 308.913 172.150,310.157 171.227,311.083 170.654 C 312.008 170.081,312.950 169.267,313.176 168.845 C 313.402 168.423,314.526 167.389,315.674 166.546 C 318.438 164.517,320.825 162.142,321.945 160.307 C 322.447 159.485,323.394 158.393,324.050 157.880 C 324.714 157.360,325.514 156.159,325.852 155.173 C 326.187 154.198,326.965 152.500,327.581 151.400 L 328.700 149.400 328.952 136.000 C 329.090 128.630,329.161 99.740,329.108 71.800 C 329.056 43.860,329.010 18.685,329.006 15.856 L 329.000 10.712 330.400 9.520 C 333.146 7.181,333.035 7.209,341.429 6.809 C 347.873 6.502,349.760 6.535,351.390 6.984 C 352.495 7.289,355.534 7.756,358.142 8.022 C 362.963 8.513,365.775 9.694,368.875 12.532 C 369.677 13.266,374.729 15.988,375.360 16.027 C 376.417 16.090,379.603 18.905,382.000 21.892 C 383.430 23.675,385.293 25.804,386.140 26.625 C 388.173 28.594,392.000 36.320,392.000 38.455 C 392.000 39.300,392.360 40.938,392.800 42.096 C 393.240 43.253,393.600 44.571,393.600 45.025 C 393.600 45.478,393.962 47.231,394.404 48.921 C 395.086 51.523,395.482 323.572,394.821 334.800 C 394.789 335.350,394.884 339.445,395.032 343.900 C 395.371 354.064,395.266 354.683,390.605 369.948 C 390.043 371.789,389.227 373.748,388.791 374.302 C 388.356 374.855,388.000 375.525,388.000 375.790 C 388.000 376.055,387.550 376.477,387.000 376.727 C 386.450 376.978,386.000 377.360,386.000 377.577 C 386.000 378.556,375.186 389.316,372.943 390.570 C 371.906 391.149,369.944 391.781,368.584 391.974 C 367.224 392.166,365.771 392.495,365.355 392.703 C 364.940 392.912,363.925 393.407,363.100 393.804 C 362.275 394.201,361.600 394.686,361.600 394.883 C 361.600 395.371,358.412 396.780,357.282 396.791 C 356.237 396.801,354.400 398.453,354.400 399.382 C 354.400 399.864,354.882 400.000,356.600 400.000 C 358.092 400.000,358.801 399.839,358.803 399.500 C 358.807 398.616,361.322 397.520,364.177 397.156 C 366.223 396.896,367.223 396.552,367.977 395.850 C 369.275 394.641,370.230 394.172,372.061 393.842 C 372.865 393.697,373.625 393.312,373.750 392.986 C 373.875 392.660,374.476 392.170,375.085 391.897 C 375.695 391.623,376.931 390.680,377.832 389.800 C 378.734 388.920,379.725 387.999,380.036 387.754 C 382.893 385.496,389.628 377.431,390.191 375.594 C 390.358 375.047,391.165 373.160,391.982 371.400 C 392.800 369.640,393.693 367.048,393.966 365.641 C 394.240 364.233,394.854 362.553,395.332 361.907 L 396.200 360.733 396.200 203.467 L 396.200 46.200 395.099 43.166 C 394.493 41.497,393.801 39.072,393.562 37.778 C 392.896 34.174,388.928 26.818,385.699 23.200 C 381.501 18.497,376.696 13.990,375.600 13.727 C 374.157 13.382,372.641 12.564,369.000 10.166 C 367.229 8.999,364.975 7.855,363.990 7.623 C 363.006 7.391,359.950 6.642,357.200 5.959 C 349.072 3.942,348.735 3.908,338.256 4.075 C 329.303 4.217,328.260 4.304,327.792 4.943 C 326.862 6.216,326.762 12.903,326.680 79.600 L 326.600 145.400 324.865 149.600 C 323.910 151.910,322.806 154.160,322.410 154.600 C 322.014 155.040,321.326 156.120,320.881 157.000 C 319.947 158.846,314.554 164.405,312.200 165.948 C 311.320 166.525,310.367 167.310,310.082 167.692 C 309.796 168.075,308.716 168.871,307.682 169.462 C 306.647 170.052,305.530 170.758,305.200 171.029 C 304.870 171.301,302.440 172.395,299.800 173.461 L 295.000 175.400 283.600 175.528 C 271.445 175.665,270.410 175.548,267.758 173.741 C 266.901 173.158,265.371 172.461,264.357 172.192 C 262.655 171.740,258.317 169.145,256.037 167.215 C 255.507 166.767,254.816 166.400,254.502 166.400 C 253.650 166.400,248.999 161.793,246.627 158.600 C 242.818 153.471,241.635 151.745,241.261 150.768 C 241.056 150.236,240.262 148.871,239.496 147.736 C 238.730 146.601,237.977 144.981,237.823 144.136 C 237.669 143.291,237.042 141.700,236.430 140.600 C 234.517 137.160,233.763 133.117,232.791 121.098 L 232.378 115.995 233.642 111.898 C 234.862 107.941,235.814 105.617,236.386 105.200 C 236.537 105.090,236.979 104.452,237.368 103.782 C 241.531 96.616,247.956 101.621,249.374 113.136 C 249.869 117.151,250.200 118.456,251.148 120.136 C 251.789 121.271,252.606 123.506,252.962 125.103 C 253.454 127.301,254.028 128.562,255.331 130.303 C 256.278 131.566,257.563 133.500,258.189 134.600 C 258.814 135.700,259.991 137.410,260.804 138.400 C 261.618 139.390,262.486 140.586,262.733 141.059 C 263.346 142.226,268.114 145.494,273.200 148.233 L 277.400 150.495 282.800 150.547 L 288.200 150.600 290.000 149.349 C 290.990 148.661,292.970 147.335,294.400 146.403 C 298.501 143.730,301.404 140.675,302.176 138.219 C 303.014 135.556,302.973 7.430,302.134 5.563 C 301.680 4.553,301.544 4.520,296.771 4.263 C 289.995 3.899,47.083 4.029,44.565 4.398 M213.600 203.992 C 204.470 204.150,194.030 204.505,190.400 204.780 C 185.134 205.179,183.262 205.180,181.137 204.783 C 178.038 204.204,177.146 204.410,177.336 205.660 C 177.486 206.641,173.453 208.269,168.690 209.150 C 167.429 209.383,166.083 209.736,165.699 209.935 C 165.314 210.135,163.560 210.505,161.800 210.759 C 157.061 211.443,152.828 212.634,151.842 213.561 C 151.276 214.092,150.047 214.510,148.338 214.752 C 146.891 214.957,145.138 215.419,144.443 215.778 C 143.748 216.137,142.216 216.609,141.038 216.827 C 138.070 217.375,131.414 220.029,127.701 222.143 C 125.996 223.115,123.948 224.116,123.152 224.369 C 122.355 224.621,121.135 225.452,120.442 226.214 C 119.693 227.037,118.802 227.600,118.250 227.600 C 117.004 227.600,114.759 228.376,113.926 229.095 C 113.555 229.415,111.935 230.076,110.326 230.563 C 108.218 231.202,107.290 231.694,107.005 232.325 C 106.739 232.915,106.255 233.200,105.518 233.200 C 104.735 233.200,103.605 233.943,101.513 235.835 C 98.873 238.223,97.704 239.037,94.448 240.752 C 93.871 241.055,93.039 241.630,92.598 242.030 C 92.157 242.429,90.717 243.326,89.398 244.023 C 88.079 244.720,86.730 245.522,86.400 245.805 C 85.618 246.475,80.803 247.350,77.998 247.331 C 74.652 247.308,71.919 245.633,69.813 242.311 C 69.350 241.582,68.639 241.134,67.661 240.957 C 65.346 240.537,63.429 239.382,62.304 237.729 C 60.657 235.308,58.919 233.690,57.674 233.416 C 57.041 233.277,56.148 232.656,55.689 232.035 C 54.831 230.874,49.372 226.539,47.598 225.610 C 45.284 224.398,41.626 221.047,41.052 219.614 C 40.386 217.949,39.235 217.053,37.268 216.668 C 36.536 216.525,35.366 216.147,34.668 215.829 C 27.872 212.731,24.423 214.322,23.029 221.200 C 22.650 223.070,22.148 225.265,21.913 226.077 C 20.937 229.462,23.050 241.685,25.012 244.000 C 25.291 244.330,26.534 246.580,27.772 249.000 C 29.358 252.098,30.433 253.696,31.407 254.400 C 32.167 254.950,33.249 256.083,33.811 256.917 C 34.374 257.751,35.537 259.159,36.397 260.045 C 40.429 264.200,42.026 269.315,40.068 271.805 C 39.621 272.373,39.134 273.414,38.986 274.119 C 38.838 274.823,37.490 277.920,35.991 281.000 C 34.493 284.080,33.182 287.140,33.078 287.800 C 32.975 288.460,32.320 291.340,31.623 294.200 C 29.195 304.164,29.623 314.983,32.583 318.400 C 32.868 318.730,33.226 319.858,33.377 320.907 C 33.931 324.758,36.435 325.940,39.809 323.942 C 41.521 322.929,49.467 315.006,49.802 313.978 C 49.913 313.637,50.787 312.862,51.745 312.257 C 53.886 310.903,55.503 309.229,57.257 306.548 C 59.531 303.073,63.043 298.706,65.418 296.400 C 66.664 295.190,68.024 293.533,68.441 292.718 C 68.857 291.903,69.784 290.785,70.499 290.235 C 73.926 287.599,75.639 286.400,75.981 286.400 C 76.187 286.400,76.671 285.865,77.057 285.211 C 78.377 282.976,82.503 282.867,85.398 284.990 C 86.059 285.475,87.230 286.107,88.000 286.394 C 88.770 286.681,90.082 287.444,90.916 288.090 C 91.750 288.735,93.550 289.632,94.916 290.083 C 96.282 290.534,97.940 291.385,98.600 291.973 C 99.260 292.562,100.790 293.559,102.000 294.188 C 103.210 294.817,104.629 295.663,105.154 296.066 C 105.679 296.470,106.292 296.800,106.517 296.800 C 106.742 296.800,107.843 297.501,108.963 298.357 C 111.046 299.950,115.850 302.072,118.455 302.552 C 119.497 302.743,120.177 303.208,120.848 304.188 C 121.928 305.765,123.100 306.400,124.928 306.400 C 125.753 306.400,126.719 306.810,127.609 307.539 C 128.374 308.165,130.530 309.165,132.400 309.761 C 134.270 310.356,136.160 311.048,136.600 311.298 C 139.115 312.725,140.711 313.258,143.115 313.474 C 145.146 313.657,146.673 314.140,149.382 315.458 C 151.352 316.416,153.512 317.200,154.182 317.201 C 154.852 317.202,157.110 317.675,159.200 318.253 C 161.290 318.831,164.440 319.447,166.200 319.622 C 174.670 320.465,177.098 320.864,180.320 321.944 C 183.814 323.115,184.749 323.233,199.800 324.413 C 204.650 324.793,244.403 325.008,246.000 324.663 C 246.550 324.544,249.160 324.067,251.800 323.603 C 258.703 322.391,259.814 322.172,263.600 321.278 C 267.167 320.435,274.046 319.594,277.336 319.598 C 278.423 319.599,280.790 319.088,282.736 318.432 C 284.641 317.789,287.100 317.150,288.200 317.011 C 290.611 316.706,293.975 315.683,294.800 315.003 C 295.130 314.732,296.547 314.475,297.949 314.432 C 299.351 314.389,300.881 314.106,301.349 313.802 C 302.210 313.244,306.368 311.959,310.400 311.006 C 313.495 310.275,315.103 309.629,315.336 309.024 C 315.445 308.737,316.045 308.376,316.668 308.222 C 317.290 308.067,318.160 307.611,318.600 307.209 C 319.040 306.806,321.020 305.896,323.000 305.186 C 329.230 302.951,329.708 302.770,330.522 302.334 C 330.960 302.100,331.908 301.318,332.630 300.597 C 333.430 299.796,334.929 298.955,336.471 298.440 C 337.862 297.976,339.474 297.282,340.053 296.898 C 342.119 295.528,345.406 292.712,345.727 292.038 C 345.907 291.660,346.878 291.131,347.885 290.862 C 348.892 290.592,350.185 290.049,350.758 289.654 C 351.331 289.260,352.841 288.522,354.114 288.016 C 355.386 287.510,356.614 286.747,356.843 286.320 C 357.071 285.894,358.145 284.565,359.229 283.368 C 360.313 282.171,361.200 281.001,361.200 280.767 C 361.200 280.534,361.459 280.084,361.776 279.767 C 362.619 278.924,362.963 275.907,362.408 274.226 C 361.449 271.317,357.783 269.768,349.587 268.808 C 344.808 268.248,340.800 265.258,340.800 262.252 C 340.800 260.305,346.541 256.800,349.729 256.800 C 350.221 256.800,351.937 256.170,353.544 255.400 C 355.151 254.630,356.699 254.000,356.984 254.000 C 357.269 254.000,357.718 253.482,357.980 252.848 C 358.275 252.135,359.044 251.431,359.994 251.003 C 362.063 250.070,362.488 248.293,361.542 244.534 C 361.142 242.948,360.770 242.501,358.644 241.057 C 357.302 240.146,355.033 238.206,353.602 236.746 C 351.516 234.618,350.048 233.600,346.200 231.612 C 343.560 230.248,341.074 228.704,340.677 228.180 C 340.255 227.624,339.338 227.117,338.477 226.963 C 337.664 226.818,336.730 226.468,336.400 226.187 C 335.308 225.255,330.077 222.893,327.921 222.358 C 326.754 222.069,324.720 221.250,323.400 220.538 C 322.080 219.826,320.280 219.067,319.400 218.852 C 318.520 218.637,316.478 217.997,314.862 217.431 C 313.246 216.864,311.575 216.400,311.148 216.400 C 310.722 216.400,309.485 215.950,308.400 215.400 C 307.315 214.850,305.926 214.398,305.313 214.396 C 303.995 214.391,301.545 213.654,298.096 212.226 C 296.447 211.544,293.987 211.000,290.896 210.634 C 286.449 210.107,279.869 208.657,279.000 208.013 C 277.924 207.215,275.321 206.722,270.400 206.385 C 267.430 206.181,262.750 205.735,260.000 205.395 C 255.267 204.809,246.120 204.249,235.130 203.874 C 232.418 203.781,222.730 203.834,213.600 203.992 M253.000 206.549 C 257.487 207.294,260.491 207.886,262.416 208.404 C 263.235 208.625,266.851 208.978,270.452 209.188 C 276.266 209.529,277.448 209.724,281.000 210.930 C 283.419 211.751,286.215 212.386,288.073 212.536 C 289.763 212.673,291.923 213.079,292.873 213.437 C 295.182 214.309,299.764 215.482,302.059 215.788 C 303.127 215.931,304.709 216.560,305.775 217.266 C 307.155 218.181,308.319 218.573,310.316 218.796 C 312.293 219.016,313.632 219.463,315.400 220.492 C 316.956 221.398,318.550 221.974,319.933 222.130 C 321.462 222.302,322.791 222.828,324.623 223.985 C 326.030 224.873,327.518 225.600,327.931 225.600 C 328.343 225.600,329.563 226.069,330.640 226.642 C 331.718 227.216,334.760 228.778,337.400 230.115 C 340.040 231.451,343.010 233.097,344.000 233.772 C 344.990 234.448,346.084 235.180,346.432 235.400 C 346.780 235.620,347.680 236.190,348.432 236.667 C 351.412 238.556,354.670 241.126,357.300 243.661 C 360.701 246.940,360.811 247.897,357.978 249.542 C 356.975 250.124,355.355 251.084,354.378 251.676 C 353.400 252.267,351.250 253.232,349.600 253.819 C 347.950 254.406,346.052 255.219,345.382 255.625 C 344.711 256.032,343.382 256.489,342.427 256.642 C 341.430 256.802,340.162 257.378,339.446 257.997 C 338.761 258.589,337.331 259.578,336.269 260.193 C 332.385 262.444,333.470 266.197,338.400 267.566 C 339.390 267.841,341.640 268.661,343.400 269.389 C 345.406 270.219,347.935 270.888,350.179 271.183 C 352.148 271.441,354.488 271.982,355.379 272.385 C 356.271 272.788,357.630 273.385,358.400 273.712 C 361.499 275.027,362.302 276.684,360.542 278.130 C 359.959 278.609,358.810 279.630,357.987 280.400 C 355.883 282.369,352.800 284.935,352.041 285.350 C 351.688 285.542,351.220 285.902,351.000 286.150 C 350.197 287.054,347.714 288.742,346.345 289.313 C 345.573 289.636,344.325 290.431,343.571 291.081 C 341.292 293.044,338.499 294.806,335.392 296.242 C 333.771 296.991,332.347 297.762,332.227 297.956 C 332.107 298.150,331.379 298.427,330.609 298.572 C 329.840 298.716,329.034 299.163,328.819 299.565 C 328.317 300.502,326.286 301.461,323.568 302.044 C 322.388 302.297,320.788 303.000,320.012 303.606 C 319.235 304.211,317.564 305.023,316.297 305.409 C 315.030 305.795,313.606 306.448,313.132 306.859 C 312.658 307.270,311.534 307.807,310.635 308.051 C 307.398 308.930,303.779 310.119,302.730 310.649 C 302.141 310.947,299.907 311.385,297.765 311.624 C 294.815 311.953,293.570 312.279,292.635 312.965 C 290.740 314.357,289.319 314.781,285.333 315.148 C 282.874 315.374,281.115 315.772,279.992 316.358 C 278.308 317.235,271.396 318.385,267.625 318.414 C 265.461 318.431,258.022 319.672,257.286 320.139 C 253.939 322.261,186.636 321.961,180.200 319.795 C 177.994 319.052,175.571 318.608,172.400 318.364 C 166.807 317.934,163.960 317.341,161.640 316.124 C 160.576 315.565,159.185 315.200,158.119 315.200 C 155.281 315.200,150.877 314.046,150.239 313.135 C 149.582 312.197,147.436 311.623,144.534 311.610 C 142.917 311.602,141.830 311.263,139.534 310.049 C 137.920 309.196,135.790 308.367,134.800 308.207 C 133.810 308.047,132.239 307.417,131.308 306.808 C 130.377 306.199,128.397 305.396,126.908 305.024 C 125.397 304.646,123.758 303.938,123.200 303.423 C 122.650 302.914,121.283 302.201,120.162 301.838 C 119.041 301.474,117.516 300.728,116.773 300.180 C 116.029 299.631,114.696 298.990,113.811 298.756 C 112.925 298.521,111.840 298.009,111.400 297.618 C 110.960 297.228,109.700 296.404,108.600 295.789 C 107.500 295.173,106.150 294.272,105.600 293.786 C 105.050 293.300,104.095 292.784,103.477 292.638 C 102.859 292.492,101.445 291.734,100.334 290.954 C 99.224 290.173,97.569 289.272,96.658 288.952 C 95.746 288.631,94.280 287.881,93.400 287.285 C 91.652 286.101,89.015 284.652,85.600 282.999 C 84.390 282.414,82.915 281.410,82.323 280.767 C 80.738 279.050,77.200 279.578,77.200 281.532 C 77.200 281.715,76.435 282.426,75.500 283.112 C 72.490 285.323,58.800 299.160,58.800 299.993 C 58.800 300.207,57.855 301.334,56.700 302.497 C 53.817 305.399,46.530 313.714,44.474 316.447 C 43.048 318.343,40.351 320.939,37.545 323.115 C 35.882 324.405,34.412 322.575,33.599 318.200 C 33.354 316.880,32.761 314.900,32.281 313.800 C 31.000 310.867,30.994 301.735,32.269 298.200 C 32.746 296.880,33.252 294.720,33.394 293.400 C 33.777 289.857,34.259 288.173,35.969 284.400 C 36.816 282.530,38.360 279.020,39.401 276.600 C 40.441 274.180,41.633 271.900,42.050 271.532 C 43.727 270.056,43.778 266.020,42.142 264.152 C 41.734 263.686,39.690 261.266,37.600 258.775 C 35.510 256.284,33.330 253.786,32.755 253.223 C 32.180 252.660,31.193 251.300,30.562 250.200 C 29.931 249.100,28.826 247.304,28.107 246.209 C 27.388 245.114,26.800 244.014,26.800 243.765 C 26.800 243.516,26.376 242.687,25.858 241.924 C 23.802 238.894,23.019 223.357,24.647 217.896 C 25.851 213.856,33.134 216.081,40.219 222.653 C 42.055 224.356,43.890 225.940,44.296 226.174 C 45.807 227.045,49.600 230.037,49.600 230.358 C 49.600 230.542,52.120 232.643,55.199 235.028 C 58.279 237.413,60.890 239.654,61.003 240.010 C 61.116 240.365,61.828 240.951,62.586 241.313 C 63.345 241.674,64.648 242.573,65.482 243.311 C 67.397 245.002,74.816 249.880,76.617 250.633 C 79.052 251.650,80.230 251.359,85.264 248.500 C 87.878 247.015,90.725 245.436,91.591 244.992 C 92.457 244.547,93.668 243.712,94.282 243.136 C 94.897 242.559,96.206 241.683,97.192 241.189 C 98.177 240.695,99.617 239.783,100.392 239.163 C 101.166 238.543,102.444 237.768,103.232 237.441 C 104.019 237.114,104.896 236.566,105.181 236.223 C 105.465 235.880,105.919 235.600,106.189 235.600 C 106.459 235.600,107.458 235.036,108.409 234.347 C 109.360 233.659,111.134 232.654,112.351 232.116 C 113.569 231.578,115.022 230.822,115.582 230.437 C 116.142 230.052,117.620 229.331,118.867 228.835 C 120.114 228.339,121.711 227.508,122.417 226.988 C 123.122 226.468,124.261 225.923,124.949 225.778 C 125.637 225.633,127.127 224.906,128.260 224.163 C 129.392 223.419,131.324 222.549,132.552 222.229 C 133.780 221.910,135.913 221.024,137.292 220.262 C 139.023 219.305,140.573 218.790,142.295 218.599 C 143.680 218.446,145.193 218.010,145.695 217.621 C 147.257 216.410,148.205 216.046,150.951 215.608 C 152.418 215.373,154.649 214.723,155.909 214.162 C 157.260 213.560,159.760 212.936,162.000 212.641 C 164.090 212.365,166.160 211.938,166.600 211.691 C 168.646 210.545,172.986 209.567,177.609 209.211 C 180.674 208.974,183.834 208.458,185.800 207.871 C 188.580 207.042,194.007 206.312,201.000 205.828 C 207.210 205.399,249.612 205.986,253.000 206.549 M276.210 239.213 C 274.896 239.866,273.607 240.400,273.346 240.400 C 272.251 240.400,269.045 246.148,268.124 249.763 C 265.370 260.573,270.611 270.292,279.434 270.738 C 285.399 271.039,291.880 265.272,293.217 258.474 C 295.691 245.903,285.644 234.525,276.210 239.213 M289.786 246.510 C 292.980 253.231,292.903 258.666,289.564 262.075 C 288.484 263.178,287.599 264.198,287.597 264.341 C 287.596 264.483,286.614 265.635,285.415 266.900 C 282.171 270.322,277.824 269.944,276.367 266.114 C 276.148 265.538,275.295 264.843,274.228 264.371 C 267.851 261.550,270.238 243.547,277.189 242.034 C 278.185 241.817,279.719 241.388,280.598 241.080 C 282.067 240.566,282.425 240.598,285.019 241.470 L 287.842 242.419 289.786 246.510 " stroke="none" fill="#2c9d83" fill-rule="evenodd"></path></g></svg>