<?xml version="1.0" encoding="iso-8859-1"?>
<!-- Generator: Adobe Illustrator 19.0.0, SVG Export Plug-In . SVG Version: 6.00 Build 0)  -->
<svg version="1.1" id="Capa_1" xmlns="http://www.w3.org/2000/svg" xmlns:xlink="http://www.w3.org/1999/xlink" x="0px" y="0px"
	 viewBox="0 0 512 512" style="enable-background:new 0 0 512 512;" xml:space="preserve">
<path style="fill:#393B85;" d="M329.956,512c-45.057,0-81.713-36.656-81.713-81.713v-6.994c0-4.284,3.473-7.758,7.758-7.758
	s7.758,3.473,7.758,7.758v6.994c0,36.502,29.696,66.198,66.198,66.198s66.198-29.696,66.198-66.198v-91.628
	c0-3.138,1.89-5.966,4.789-7.167c2.899-1.2,6.235-0.537,8.454,1.682l25.356,25.356c3.03,3.03,3.03,7.942,0,10.97
	c-3.03,3.03-7.942,3.03-10.97,0l-12.113-12.113v72.901C411.669,475.343,375.013,512,329.956,512z"/>
<path style="fill:#605D9C;" d="M467.889,257.416L345.122,338.25c-14.212,9.361-25.6,21.98-33.43,36.512
	c-7.84,14.533-12.112,30.979-12.112,48.004c0,11.378-8.513,21.245-19.839,22.228c-12.919,1.127-23.738-9.03-23.738-21.701
	c0,12.298-10.188,22.218-22.59,21.773c-5.896-0.207-11.15-2.834-14.915-6.878c-3.775-4.044-6.072-9.506-6.072-15.422
	c0-34.04-17.118-65.795-45.542-84.516L44.108,257.416c-26.221-17.274-29.075-54.665-5.772-75.714
	c41.984-37.909,91.715-62.878,143.908-74.907c-3.01-3.165-5.43-6.899-7.106-11.005c-1.676-4.117-2.596-8.616-2.596-13.333
	c0-19.539,15.846-35.385,35.385-35.385h96.142c9.775,0,18.629,3.962,25.031,10.364s10.364,15.246,10.364,25.021
	c0,9.433-3.693,17.998-9.712,24.338c52.193,12.029,101.924,36.998,143.908,74.907C496.964,202.751,494.12,240.143,467.889,257.416z"
	/>
<g>
	<path style="fill:#393B85;" d="M256.003,423.293c0,12.298-10.188,22.218-22.59,21.773c-5.896-0.207-11.15-2.834-14.915-6.878
		c-3.775-4.044-6.072-9.506-6.072-15.422c0-34.04-17.118-65.795-45.542-84.516L44.108,257.415
		c-26.221-17.274-29.075-54.665-5.772-75.714c41.984-37.909,91.715-62.878,143.908-74.907c-3.01-3.165-5.43-6.899-7.106-11.005
		c-1.676-4.117-2.596-8.616-2.596-13.333c0-19.539,15.846-35.385,35.385-35.385h21.183c-27.276,27.276,18.618,57.158,18.618,57.158
		l-26.593,53.207c-18.08,0-32.747,14.667-32.747,32.758c0,8.378,3.144,16.012,8.326,21.804c5.172,5.792,12.381,9.733,20.49,10.705
		c-5.254,7.602-8.357,16.829-8.357,26.779v14.233c0,16.56,8.554,31.134,21.473,39.533L256.003,423.293z"/>
	<path style="fill:#393B85;" d="M207.93,65.17c-4.284,0-7.758-3.473-7.758-7.758V26.25c0-14.474,11.775-26.25,26.25-26.25h7.396
		c4.284,0,7.758,3.473,7.758,7.758s-3.473,7.758-7.758,7.758h-7.396c-5.92,0-10.734,4.816-10.734,10.734v31.163
		C215.688,61.697,212.214,65.17,207.93,65.17z"/>
	<path style="fill:#393B85;" d="M304.07,65.17c-4.284,0-7.758-3.473-7.758-7.758V26.25c0-5.92-4.816-10.734-10.734-10.734h-7.396
		c-4.284,0-7.758-3.473-7.758-7.758S273.899,0,278.183,0h7.396c14.475,0,26.25,11.776,26.25,26.25v31.163
		C311.828,61.697,308.355,65.17,304.07,65.17z"/>
</g>
<path style="fill:#605D9C;" d="M220.608,110.817c-6.959,0-10.404-8.94-5.133-13.564c2.357-2.068,5.815-2.522,8.618-1.115
	c2.994,1.503,4.725,4.891,4.164,8.203C227.634,108.027,224.356,110.817,220.608,110.817z"/>
<g>
	<path style="fill:#393B85;" d="M291.388,110.817c-7.02,0-10.413-9.082-5.033-13.654c5.422-4.609,13.875,0.211,12.677,7.227
		C298.404,108.066,295.107,110.817,291.388,110.817z"/>
	<path style="fill:#393B85;" d="M281.693,311.003c-2.54,0-5.029-1.246-6.514-3.535c-2.332-3.594-1.309-8.398,2.285-10.73
		c2.281-1.48,4.43-3.223,6.386-5.179c7.438-7.447,11.536-17.338,11.536-27.847v-14.23c0-8.046-2.412-15.779-6.975-22.364
		c-1.55-2.236-1.815-5.121-0.698-7.601c1.116-2.481,3.451-4.196,6.152-4.52c12.54-1.501,21.996-12.165,21.996-24.806
		c0-6.676-2.6-12.951-7.321-17.673c-4.721-4.721-10.997-7.321-17.673-7.321c-4.284,0-7.758-3.473-7.758-7.758
		c0-4.284,3.473-7.758,7.758-7.758c10.819,0,20.992,4.214,28.643,11.865s11.865,17.824,11.865,28.643
		c0,16.715-10.206,31.299-25.005,37.427c2.982,6.847,4.53,14.256,4.53,21.863v14.23c0,14.649-5.71,28.434-16.077,38.814
		c-2.727,2.727-5.725,5.157-8.915,7.227C284.605,310.599,283.141,311.003,281.693,311.003z"/>
</g>
<g>
</g>
<g>
</g>
<g>
</g>
<g>
</g>
<g>
</g>
<g>
</g>
<g>
</g>
<g>
</g>
<g>
</g>
<g>
</g>
<g>
</g>
<g>
</g>
<g>
</g>
<g>
</g>
<g>
</g>
</svg>
