<svg height="512" viewBox="0 0 60 60" width="512" xmlns="http://www.w3.org/2000/svg"><g id="Page-1" fill="none" fill-rule="evenodd"><g id="031---Manta-Ray" fill-rule="nonzero"><path id="Shape" d="m47.687 9.407c-.5522847 0-1-.44771525-1-1v-1.75c.2032698-2.43826148 1.3175941-4.71046901 3.121-6.364.3923789-.37897221 1.0160848-.37355237 1.4018186.01218143.3857338.38573379.3911536 1.00943968.0121814 1.40181857-1.4140405 1.29049468-2.3142888 3.04837609-2.535 4.95v1.75c0 .55228475-.4477153 1-1 1z" fill="#3f5c6c"/><path id="Shape" d="m53.343 13.313h-1.643c-.5522847 0-1-.4477153-1-1s.4477153-1 1-1h1.639c1.9055903-.2075474 3.6678687-1.1100476 4.95-2.535.2510745-.25995658.6228779-.3642126.9725073-.27269716.3496295.09151544.6226744.3645604.7141899.71418984.0915154.34962943-.0127406.72143285-.2726972.97250732-1.6525405 1.8025083-3.9231559 2.9167521-6.36 3.121z" fill="#3f5c6c"/><path id="Shape" d="m1 60c-.55228475 0-1-.4477153-1-1 0-8.562 2.383-9.836 10.649-12.937 5.667-2.125 8.609-6.737 11.644-9.77l2.5-2.5c.3923789-.3789722 1.0160848-.3735524 1.4018186.0121814s.3911536 1.0094397.0121814 1.4018186l-2.5 2.5c-2.939 2.942-6.191 7.917-12.356 10.23-7.869 2.95-9.351 3.738-9.351 11.063 0 .5522847-.44771525 1-1 1z" fill="#3f5c6c"/><path id="Shape" d="m41.435 7.265c2.299-2.265 3.635-3.224 5.544-1.315l3.536 3.535 3.535 3.536c1.909 1.909.955 3.245-1.315 5.544z" fill="#7f8c8d"/><path id="Shape" d="m23.645 36.355c.707.707 2.828 2.829 5.657 1.415s3.535-2.122 7.071 1.414c3.2149724 2.9464431 5.2290563 6.9760353 5.656 11.316 1.02 7.139 6.364 2.122 8.486 0 13.509-13.509 5.657-29.7-2.829-38.183s-24.674-16.341-38.186-2.832c-2.122 2.122-7.139 7.466 0 8.486 4.338899.427659 8.367306 2.4416845 11.313 5.656 3.536 3.536 2.829 4.243 1.414 7.071s.711 4.95 1.418 5.657z" fill="#95a5a5"/><path id="Shape" d="m30.715 21.8c-.3359618-.000373-.6492848-.1694232-.8340607-.4500088-.1847759-.2805857-.2163085-.6352051-.0839393-.9439912 2.2-5.13 6.557-9.488 7.99-10.92.3938446-.36932331 1.0097448-.35932217 1.3913906.02259374s.3912112.99782306.0216094 1.39140626c-1.365 1.365-5.52 5.518-7.566 10.294-.1575827.3676038-.5190439.6059558-.919.606z" fill="#7f8c8d"/><path id="Shape" d="m39.2 30.285c-.475773.0014715-.8867065-.3324707-.9825795-.7984862-.095873-.4660156.149864-.9350541.5875795-1.1215138 4.776-2.046 8.929-6.2 10.294-7.566.3923789-.3789722 1.0160848-.3735524 1.4018186.0121814s.3911536 1.0094397.0121814 1.4018186c-1.432 1.433-5.79 5.792-10.92 7.99-.12411.0536185-.2578038.0815139-.393.082z" fill="#7f8c8d"/><g fill="#3b97d3"><circle id="Oval" cx="9" cy="28" r="3"/><circle id="Oval" cx="30" cy="53" r="3"/><circle id="Oval" cx="3" cy="22" r="2"/><circle id="Oval" cx="38" cy="57" r="2"/></g><circle id="Oval" cx="2" cy="28" fill="#2980ba" r="1"/><circle id="Oval" cx="37" cy="51" fill="#2980ba" r="1"/></g></g></svg>