<svg enable-background="new 0 0 256 256" height="512" viewBox="0 0 256 256" width="512" xmlns="http://www.w3.org/2000/svg"><path d="m252.843 31.043c-4.968 4.539-12.565 5.94-19.417 5.174-8.012-.895-15.539-4.17-23.347-6.177-28.479-7.321-56.007 3.345-70.701 23.68 3.715-.57 7.47 1.251 9.331 4.508 4.43-6.445 10.029-11.943 16.838-15.46 26.466-13.669 52.331-.683 69.085-1.835 7.212-.496 14.751-3.596 18.791-9.379.267-.382-.236-.825-.58-.511z" fill="#52565b"/><path d="m148.547 68.792c1.087-2.237 2.178-5.796.704-9.467-1.721-4.284-6.507-6.636-10.949-5.38-3.542 1.001-5.652 3.704-6.82 5.869 6.963-1.137 14.037 2.541 17.065 8.978z" fill="#828487"/><path d="m219.495 169.305c-11.396-3.948-61.262-24.038-73.799-76.906-.298-1.256-.058-2.604.635-3.725 2.023-3.273 5.821-11.021 2.593-19.061-3.013-7.504-11.396-11.623-19.178-9.423-8.337 2.357-12.15 10.098-13.505 13.699-.464 1.233-1.384 2.247-2.561 2.778-49.512 22.378-95.885-4.822-105.973-11.43-1.09-.714-2.603-.203-3.095 1.074-11.941 31.026 30.176 75.209 41.447 87.584.115.127.229.253.342.379 7.852 8.806 7.26 22.346-1.38 30.381-2.753 2.56-5.081 5.061-6.918 7.189-2.7 3.13-2.212 7.881 1.036 10.13l.087.06c2.968 2.055 7.037 1.153 9.212-1.944 3.689-5.25 7.738-8.458 10.59-10.265 1.917-1.214 4.34-1.035 5.926.488 4.247 4.079 13.829 9.094 20.549 10.097 2.175.325 3.798 2.134 4.007 4.393.312 3.362.247 8.527-1.655 14.655-1.122 3.614.65 7.387 4.09 8.48l.101.032c3.765 1.196 7.825-1.32 8.652-5.369 1.038-5.08 2.056-12.256 1.757-20.006-.065-1.674.676-3.327 1.997-4.363 3.1-2.431 9.795-6.065 21.425-5.117 16.683 1.36 77.394 7.705 94.658-20.705.711-1.169.191-2.679-1.04-3.105z" fill="#a8aeb2"/><path d="m93.958 230.766c-.901 0-1.802-.136-2.669-.411l-.106-.034c-4.752-1.511-7.266-6.608-5.715-11.603 1.797-5.786 1.836-10.634 1.554-13.682-.105-1.135-.864-1.999-1.888-2.152-7.467-1.114-17.541-6.568-21.911-10.767-.745-.715-1.894-.79-2.856-.179-2.586 1.639-6.399 4.634-9.882 9.59-3.006 4.28-8.576 5.403-12.681 2.562l-.093-.064c-2.074-1.438-3.453-3.735-3.78-6.303-.343-2.697.488-5.436 2.28-7.512 2.251-2.61 4.643-5.096 7.109-7.388 7.594-7.061 8.139-19.122 1.216-26.886l-1.78-1.951c-6.342-6.924-19.54-21.33-29.468-37.528-12.496-20.385-16.2-37.56-11.009-51.045.513-1.332 1.581-2.345 2.929-2.779 1.315-.422 2.725-.237 3.868.511 8.757 5.737 54.903 33.24 103.574 11.243.56-.253 1.016-.756 1.25-1.38 1.386-3.681 5.636-12.531 15.165-15.224 8.961-2.532 18.705 2.252 22.178 10.896 3.689 9.189-.72 17.962-2.786 21.308-.351.567-.471 1.236-.329 1.834 12.322 51.963 62.293 71.692 72.186 75.12 1.291.447 2.3 1.45 2.769 2.75.479 1.334.33 2.798-.41 4.017-17.395 28.622-75.695 23.696-94.853 22.078l-2.145-.179c-10.897-.883-17.006 2.495-19.679 4.592-.677.531-1.077 1.412-1.042 2.301.315 8.179-.808 15.717-1.806 20.602-.549 2.688-2.209 5.02-4.555 6.396-1.429.837-3.033 1.267-4.635 1.267zm-32.231-44.234c1.815 0 3.596.671 4.958 1.979 3.819 3.668 12.835 8.479 19.186 9.427 3.292.492 5.811 3.221 6.127 6.636.325 3.5.284 9.053-1.757 15.626-.725 2.335.356 4.688 2.46 5.356l.106.034c1.072.342 2.229.197 3.253-.404 1.125-.66 1.921-1.784 2.188-3.086.943-4.614 2.004-11.727 1.708-19.407-.096-2.499 1.008-4.901 2.953-6.427 3.248-2.548 10.58-6.665 23.171-5.643l2.16.181c18.308 1.549 73.833 6.241 89.926-19.316-11.423-4.046-62.178-24.851-74.903-78.513-.445-1.88-.103-3.927.94-5.615 1.668-2.7 5.24-9.742 2.399-16.816-2.532-6.306-9.64-9.797-16.178-7.949-7.335 2.073-10.727 9.204-11.845 12.174-.699 1.858-2.11 3.381-3.872 4.176-50.256 22.717-97.735-4.752-107.917-11.323-10.397 28.354 27.243 69.441 39.652 82.988l1.825 2c8.72 9.779 8.027 24.976-1.543 33.876-2.333 2.168-4.596 4.521-6.728 6.991-.867 1.005-1.27 2.323-1.106 3.615.15 1.18.744 2.184 1.673 2.827l.092.063c1.808 1.255 4.333.67 5.738-1.33 3.955-5.63 8.326-9.056 11.296-10.938 1.252-.793 2.655-1.182 4.038-1.182z"/><path d="m111.839 163.795c-.474 0-.954-.135-1.378-.416-1.151-.763-1.466-2.314-.703-3.465 3.633-5.482 7.044-11.453 10.137-17.749 5.456-11.104 9.457-22.209 11.571-32.114.289-1.353 1.621-2.211 2.967-1.924 1.351.289 2.212 1.617 1.924 2.967-2.199 10.302-6.34 21.809-11.975 33.276-3.188 6.487-6.706 12.646-10.457 18.306-.481.726-1.276 1.119-2.086 1.119z"/><path d="m79.825 148.064c-.267 0-.539-.044-.806-.135-1.307-.444-2.005-1.865-1.561-3.172 2.19-6.431 4.916-12.979 8.103-19.464 5.635-11.469 12.214-21.776 19.026-29.811.893-1.053 2.472-1.182 3.523-.29 1.053.894 1.183 2.471.29 3.524-6.549 7.724-12.895 17.677-18.352 28.781-3.092 6.294-5.736 12.643-7.856 18.87-.355 1.042-1.326 1.697-2.367 1.697z"/><path d="m148.709 60.728c-.034 0-.069-.001-.104-.002-.859-.036-1.641-.511-2.067-1.258-1.356-2.374-4.089-3.687-6.781-3.277-.995.153-1.987-.308-2.512-1.167-.525-.86-.483-1.951.106-2.768 16.102-22.281 44.896-31.953 73.35-24.637 2.791.717 5.559 1.596 8.234 2.446 5.037 1.601 9.795 3.111 14.768 3.667 6.972.782 13.492-.916 17.453-4.534 1.091-.996 2.747-1.012 3.854-.04 1.109.974 1.308 2.62.461 3.829-4.143 5.932-11.869 9.835-20.667 10.44-5.653.39-12.227-.736-19.183-1.928-14.843-2.543-31.666-5.425-48.927 3.49-6.02 3.108-11.378 8.039-15.926 14.653-.466.682-1.238 1.086-2.059 1.086zm-4.531-9.088c1.628.504 3.138 1.358 4.409 2.505 4.596-5.979 9.904-10.546 15.813-13.598 18.747-9.682 37.221-6.516 52.066-3.976 5.674.973 10.716 1.836 15.13 1.929-4.9-.723-9.608-2.219-14.175-3.669-2.61-.83-5.31-1.688-7.965-2.37-24.885-6.393-49.993 1.117-65.278 19.179zm110.352-18.751c-.002.001-.004.003-.005.004.002-.001.003-.003.005-.004zm-1.686-1.846h.01z"/><path d="m148.547 71.293c-.005 0-.011 0-.016 0-.963-.006-1.837-.564-2.246-1.436-2.554-5.429-8.471-8.545-14.4-7.575-.934.151-1.886-.241-2.438-1.017-.553-.776-.617-1.799-.164-2.638 1.372-2.546 3.934-5.843 8.34-7.089 5.636-1.597 11.765 1.418 13.948 6.854 1.799 4.479.571 8.722-.774 11.492-.42.863-1.293 1.409-2.25 1.409zm-11.671-13.964c4.03.63 7.767 2.581 10.585 5.525-.022-.849-.18-1.725-.53-2.598-1.244-3.099-4.74-4.812-7.949-3.906-.789.224-1.488.565-2.106.979z"/><path d="m84.224 188.555c-1.523 0-3.043-.344-4.437-1.028-2.556-1.256-4.467-3.549-5.243-6.291-.375-1.329.396-2.71 1.725-3.086 1.326-.378 2.71.396 3.086 1.725.39 1.38 1.351 2.533 2.636 3.164 1.286.633 2.786.687 4.117.154 1.284-.512 2.738.108 3.25 1.391.514 1.281-.108 2.736-1.39 3.25-1.201.481-2.474.721-3.744.721z"/><path d="m102.301 180.75c-.367 0-.741-.082-1.093-.254-1.241-.604-1.757-2.101-1.152-3.342.345-.709.05-1.566-.659-1.912-.707-.344-1.565-.05-1.911.659-.605 1.241-2.104 1.754-3.343 1.151-1.241-.605-1.756-2.102-1.151-3.343 1.554-3.187 5.411-4.517 8.597-2.962 3.186 1.554 4.515 5.409 2.962 8.596-.434.889-1.324 1.407-2.25 1.407z"/><path d="m80.425 170.015c-.37 0-.746-.083-1.1-.257-1.239-.609-1.75-2.107-1.142-3.347.347-.707.055-1.565-.653-1.913-.344-.17-.731-.194-1.091-.07-.361.123-.653.38-.822.723-.609 1.239-2.107 1.748-3.346 1.142-1.239-.609-1.75-2.107-1.142-3.347.757-1.541 2.069-2.695 3.695-3.25 1.626-.554 3.371-.441 4.911.314 3.182 1.563 4.499 5.424 2.935 8.606-.434.885-1.322 1.399-2.245 1.399z"/></svg>