<?xml version="1.0" encoding="iso-8859-1"?>
<!-- Generator: Adobe Illustrator 19.0.0, SVG Export Plug-In . SVG Version: 6.00 Build 0)  -->
<svg version="1.1" id="Layer_1" xmlns="http://www.w3.org/2000/svg" xmlns:xlink="http://www.w3.org/1999/xlink" x="0px" y="0px"
	 viewBox="0 0 473.935 473.935" style="enable-background:new 0 0 473.935 473.935;" xml:space="preserve">
<circle style="fill:#A0D2DC;" cx="236.967" cy="236.967" r="236.967"/>
<g>
	<path style="fill:#F5F3E2;" d="M108.561,100.156c9.081,5.119,18.163,10.23,27.24,15.353c7.91,4.464,15.959,8.842,21.369,16.453
		c2.604,3.667,4.797,7.686,6.739,11.757c3.525,7.409,6.72,14.975,10.058,22.469c0.344,0.771,0.737,1.512,1.108,2.271
		c3.514,7.237,6.672,9.459,14.503,8.138c6.492-1.093,12,0.067,17.265,3.723c1.871,1.295,3.966,2.271,6.342,3.611
		c-5.051,1.489-9.654,2.72-14.155,4.247c-1.366,0.464-2.447,1.751-3.663,2.66c0.954,1.16,1.714,2.586,2.889,3.427
		c5.07,3.603,10.282,7.001,15.405,10.526c6.335,4.359,11.154,9.964,13.687,17.31c4.816,13.987,9.557,28,13.8,42.754
		c-3.083-1.388-6.297-2.544-9.223-4.213c-10.054-5.725-17.497-13.729-21.201-24.928c-0.348-1.048-1.474-1.983-2.455-2.649
		c-11.933-8.127-23.91-16.191-35.869-24.273c-0.614-0.412-1.194-0.868-1.785-1.313c-3.832-2.892-4.834-2.836-7.293,1.433
		c-2.769,4.812-5.171,9.833-7.79,14.877c-10.335-2.107-18.11-7.611-21.474-17.448c-1.295-3.787-3.6-7.955-2.11-12.621
		c0.587-1.837,1.007-2.668,3.001-2.653c4.838,0.037,9.676-0.109,14.514-0.221c0.621-0.011,1.246-0.191,1.848-0.382
		c3.708-1.167,3.891-1.845,2.312-5.298c-7.252-15.873-14.391-31.794-21.68-47.648c-0.543-1.175-1.893-2.028-2.971-2.907
		c-2.163-1.759-4.434-3.386-6.574-5.171c-0.797-0.662-1.227-1.777-2.039-2.406c-7.132-5.512-9.725-13.478-11.91-21.695
		c-0.075-0.273-0.34-0.498-0.52-0.748C108.138,103.112,108.347,101.634,108.561,100.156z"/>
	<path style="fill:#F5F3E2;" d="M239.729,362.493c-4.239-1.265-8.599-2.253-12.681-3.91c-2.327-0.943-4.206-2.99-6.335-4.576
		c3.536-6.799,10.963-11.214,11.162-19.603c-12.954-2.548-25.366-4.861-37.71-7.472c-5.957-1.261-11.813-3.005-17.665-4.703
		c-1.833-0.531-3.27-0.554-5.029,0.415c-1.882,1.04-4.079,1.714-6.215,2.036c-3.637,0.55-7.334,0.677-11.005,1.04
		c-5.781,0.576-19.397-3.525-23.648-7.319c4.333-1.837,8.535-3.63,12.737-5.403c7.267-3.068,14.574-6.05,21.796-9.223
		c12.079-5.302,24.4-5.702,37.077-2.522c8.464,2.122,17.018,3.899,25.553,5.725c7.154,1.534,10.582,0.498,14.065-5.848
		c3.356-6.118,7.948-10.043,14.503-12.019c1.998-0.602,3.876-1.616,6.488-2.728c-1.411,3.555-2.66,6.582-3.813,9.643
		c-0.629,1.665-1.239,3.364-1.605,5.096c-0.692,3.293,0.471,4.46,3.667,3.525c4.745-1.388,9.523-2.746,14.107-4.587
		c11.555-4.629,22.911-4.12,34.514,0.015c11.285,4.019,22.787,7.427,34.192,11.117c0.76,0.247,1.493,0.569,3.319,1.276
		c-4.123,2.095-7.326,4.071-10.776,5.411c-10.537,4.105-21.287,4.696-32.187,1.302c-0.992-0.307-2.264-0.198-3.282,0.127
		c-14.922,4.763-29.822,9.616-44.741,14.41c-3.641,1.171-4.367,2.167-2.75,5.639c2.036,4.382,4.314,8.677,6.821,12.808
		c1.381,2.275,1.007,3.712-1.104,4.808c-3.701,1.92-7.48,3.686-11.225,5.519C245.222,362.493,242.475,362.493,239.729,362.493z"/>
	<path style="fill:#F5F3E2;" d="M403.847,282.019c-10.499,2.324-20.213-0.097-29.541-4.879c-0.281-0.142-0.655-0.183-0.857-0.393
		c-6.099-6.481-14.2-4.861-21.77-5.441c-5.751-0.442-11.528-0.775-17.227-1.616c-10.649-1.564-9.141-0.752-8.587,7.442
		c0.21,3.139,0.49,6.279,0.756,9.62c-7.719,2.327-15.154,2.881-21.796-2.148c-3.005-2.275-5.399-5.407-7.891-8.307
		c-1.313-1.523-1.048-2.851,0.969-4.022c3.547-2.062,6.926-4.423,10.305-6.754c3.345-2.312,3.181-3.731-0.269-6.017
		c-8.408-5.572-16.771-11.218-25.126-16.872c-1.126-0.767-2.133-1.717-3.143-2.638c-4.262-3.888-8.89-6.253-14.975-6.919
		c-10.114-1.1-18.103-6.739-24.715-14.604c0.479-0.355,0.707-0.67,0.935-0.67c10.975-0.007,21.957-0.284,32.917,0.097
		c11.749,0.412,22.047,4.662,30.817,12.763c3.768,3.48,8.18,6.301,12.486,9.13c5.961,3.925,9.137,3.704,14.986-0.475
		c6.107-4.37,9.893-5.025,17.519-2.982c-2.634,2.769-5.347,5.384-7.775,8.239c-2.152,2.529-1.714,3.532,1.515,3.933
		c6.896,0.846,13.833,1.411,20.7,2.44c4.995,0.748,9.283,3.237,13.066,6.612c8.03,7.158,16.097,14.275,24.168,21.388
		c0.775,0.688,1.688,1.201,2.537,1.8C403.847,281.173,403.847,281.592,403.847,282.019z"/>
</g>
<g>
</g>
<g>
</g>
<g>
</g>
<g>
</g>
<g>
</g>
<g>
</g>
<g>
</g>
<g>
</g>
<g>
</g>
<g>
</g>
<g>
</g>
<g>
</g>
<g>
</g>
<g>
</g>
<g>
</g>
</svg>
