<svg id="Capa_1" enable-background="new 0 0 497 497" height="512" viewBox="0 0 497 497" width="512" xmlns="http://www.w3.org/2000/svg"><g><path d="m252.137 483.415c-65.083 0-104.511-14.982-104.511-50.043 0-17.53-1.02-30.778 19.385-41.77 20.406-10.992 48.947-17.602 81.488-17.602 65.083 0 114.162 26.439 114.162 61.5 0 4.816-.926 9.469-2.692 13.914-11.093 27.911-51.688 34.001-107.832 34.001z" fill="#d2ea7b"/><path d="m359.959 449.41c-11.08 27.91-55.32 47.59-111.46 47.59-65.08 0-114.16-26.44-114.16-61.5 0-17.54 12.28-32.91 32.7-43.91-1.77 4.44-2.7 9.1-2.7 13.91 0 35.06 49.08 61.5 114.16 61.5 32.53 0 61.06-6.61 81.46-17.59z" fill="#c4e456"/><path d="m227.499 143h42v266.848c0 2.052-.631 4.054-1.808 5.735l-15.096 21.566c-1.991 2.844-6.202 2.844-8.192 0l-15.096-21.566c-1.177-1.681-1.808-3.683-1.808-5.735l8.298-130.348z" fill="#f8f7f7"/><path d="m269.499 181.82v-38.82h-22-20v38.82 228.03c0 2.05.63 4.05 1.81 5.73l15.09 21.57c1.99 2.84 6.21 2.84 8.2 0l5.9-8.43-9.19-13.14c-1.18-1.68-1.81-3.68-1.81-5.73v-222.076c0-2.112 1.635-3.859 3.743-3.992 4.94-.309 13.551-.969 18.257-1.962z" fill="#ebebeb"/><path d="m330.499 82c0 17.536-5.504 33.786-14.88 47.117-14.837 21.097-39.369 30.042-67.12 30.042-45.287 0-76.532-34.117-76.532-79.404 0-27.751 8.318-50.038 29.415-64.875 13.331-9.376 29.581-14.88 47.117-14.88 45.287 0 82 36.713 82 82z" fill="#f5de46"/><g fill="#f3d332"><path d="m315.609 129.11c-14.82 21.1-39.36 34.89-67.11 34.89-45.29 0-82-36.71-82-82 0-27.75 13.79-52.29 34.89-67.11-9.39 13.33-14.89 29.58-14.89 47.11 0 45.29 36.71 82 82 82 17.53 0 33.78-5.5 47.11-14.89z"/><circle cx="248.499" cy="82" r="42"/></g></g></svg>