<?xml version="1.0" standalone="no"?>
<!DOCTYPE svg PUBLIC "-//W3C//DTD SVG 20010904//EN"
 "http://www.w3.org/TR/2001/REC-SVG-20010904/DTD/svg10.dtd">
<svg version="1.0" xmlns="http://www.w3.org/2000/svg"
 width="900.000000pt" height="450.000000pt" viewBox="0 0 900.000000 450.000000"
 preserveAspectRatio="xMidYMid meet">
<metadata>
Created by potrace 1.12, written by Peter Selinger 2001-2015
</metadata>
<g transform="translate(0.000000,450.000000) scale(0.100000,-0.100000)"
fill="#000000" stroke="none">
<path d="M2156 4484 l-6 -20 -36 -18 -36 -17 -18 16 -19 17 -17 -4 -17 -3 -5
-12 -4 -13 16 0 16 0 0 -15 0 -15 -14 0 -14 0 -6 15 -5 15 -25 0 -25 0 -7 -11
-7 -12 -14 27 -14 27 -9 -6 -10 -6 0 -25 0 -24 -11 0 -12 0 -12 16 -12 17 -27
-7 -26 -6 6 -23 5 -23 -15 -13 -16 -13 0 -13 0 -13 -25 -16 -25 -16 0 18 0 19
25 27 25 27 0 10 0 9 -12 0 -13 -1 -24 -29 -24 -28 -19 11 -19 12 -9 -16 -10
-17 -33 -19 -33 -20 -15 10 -16 10 -21 -19 -22 -18 0 -16 0 -16 -12 -12 -12
-12 -18 0 -18 0 0 -16 0 -16 -21 -26 -21 -27 -34 -10 -35 -10 -18 -35 -18 -35
-17 -38 -16 -38 0 -37 0 -37 -8 -11 -7 -11 -22 -12 -23 -12 0 -76 0 -76 17
-12 16 -12 -7 -18 -7 -18 -11 11 -12 12 -13 0 -13 0 0 -112 0 -112 -19 -20
-19 -21 -19 -31 -18 -31 -42 -62 -43 -62 0 -15 0 -14 -8 0 -7 0 -20 -36 -19
-36 -37 -49 -37 -50 -68 -51 -69 -52 -8 -13 -8 -13 -13 0 -13 0 -47 -45 -48
-45 -12 0 -12 0 -64 -57 -64 -58 -41 -40 -40 -40 -25 -30 -25 -30 -14 -35 -14
-35 -4 -56 -5 -55 16 -13 16 -13 0 -9 0 -8 43 -40 42 -40 19 -1 19 0 17 15 17
16 59 1 59 1 22 13 22 14 31 0 31 0 36 15 35 15 24 0 23 0 14 15 15 14 26 7
26 6 0 9 0 9 14 0 14 0 46 35 46 35 6 0 6 0 62 45 61 45 34 27 34 27 21 11 21
11 50 37 50 37 15 14 15 13 42 26 41 26 34 34 33 34 30 6 30 5 40 11 40 11 66
0 65 0 20 15 19 14 21 1 22 0 14 22 14 21 12 -7 12 -7 0 -13 0 -14 -19 -5 -19
-5 6 -27 5 -27 -13 -8 -12 -8 -6 -93 -5 -94 -13 -20 -14 -19 0 -62 0 -62 -15
-12 -15 -12 0 -22 0 -22 -15 -20 -14 -19 -1 -16 0 -16 -30 -41 -30 -42 0 -5 0
-5 -46 -67 -46 -68 -16 -13 -17 -12 13 -21 13 -21 -5 -5 -6 -6 -15 13 -15 12
-7 -18 -6 -19 -29 -29 -28 -30 0 -17 0 -17 -35 -46 -35 -46 0 -19 0 -19 20 -5
20 -5 0 -15 0 -16 -10 -6 -10 -6 -6 15 -6 16 -13 0 -14 0 -6 -20 -6 -20 -10 0
-9 0 0 -25 0 -26 -15 -5 -15 -6 0 -24 0 -25 -15 -5 -15 -6 0 -18 0 -18 -15
-12 -14 -12 -30 7 -30 6 -37 -17 -36 -17 -31 11 -31 12 -10 -10 -10 -10 -51 0
-51 0 -24 -17 -24 -17 -34 2 -34 3 -24 -16 -23 -15 -35 0 -35 0 -15 -15 -15
-15 -33 0 -34 0 -20 -15 -19 -14 -26 -1 -27 0 -12 -15 -12 -15 -25 0 -24 0 -5
-14 -5 -14 -24 -6 -24 -6 -11 -39 -10 -39 7 -18 7 -19 20 -22 21 -23 19 0 19
0 13 -17 13 -18 19 12 19 12 12 -25 11 -24 19 0 19 0 12 -15 12 -15 13 0 13 0
12 -15 12 -15 18 0 18 0 12 -15 12 -15 27 0 26 -1 19 -14 20 -15 28 0 28 0 0
-9 0 -9 30 -11 30 -10 0 -10 0 -11 38 0 37 -1 19 -14 20 -15 34 0 33 0 -6 -10
-6 -10 -187 5 -187 6 -42 5 -43 5 -5 10 -6 9 -133 0 -133 0 -31 11 -31 11
-173 1 -173 2 -3 -37 -3 -38 14 0 15 0 12 -15 12 -15 27 0 26 -1 19 -14 20
-15 47 0 47 0 12 -15 12 -15 42 0 42 0 20 -15 19 -14 56 -1 57 0 6 -15 5 -15
65 0 64 0 28 -15 29 -15 67 0 67 0 6 -9 5 -9 30 -7 30 -7 9 -15 8 -16 27 5 27
5 10 -18 10 -19 77 0 78 0 57 -15 58 -15 127 0 128 0 11 -11 11 -11 188 -8
189 -7 28 -12 28 -11 120 0 120 0 22 -12 22 -12 283 -3 284 -2 14 -12 15 -12
11 11 11 11 -13 15 -12 16 16 6 17 6 107 -8 107 -7 20 2 20 3 10 9 10 10 -15
9 -15 9 -330 2 -330 1 -240 7 -240 8 -40 11 -40 12 -85 0 -85 0 -60 15 -60 14
-75 1 -74 0 -43 16 -43 17 -18 -17 -19 -16 -36 0 -36 0 -6 10 -6 10 -23 0 -23
0 -18 20 -18 20 -38 0 -37 0 -4 12 -4 12 -98 3 -97 3 -22 15 -21 15 -66 0 -65
1 -19 14 -20 15 -74 0 -73 0 -15 15 -15 15 -53 0 -54 0 -12 15 -12 15 -53 0
-53 0 -12 15 -12 15 -48 0 -48 0 -12 14 -12 15 -36 4 -37 5 60 -3 60 -3 50
-10 50 -11 171 0 170 -1 55 -16 54 -17 275 8 275 7 25 0 25 1 105 -12 105 -12
96 -7 96 -7 17 -14 17 -14 74 -1 75 -1 4 -12 5 -13 128 2 128 1 39 15 38 15
191 -7 192 -7 9 -9 10 -10 120 0 119 0 18 16 17 16 47 0 46 0 35 30 35 31 11
-11 10 -10 -7 -12 -7 -11 -25 -10 -25 -9 -5 -20 -5 -19 -37 -4 -36 -4 50 -3
50 -2 150 -1 150 -2 45 6 45 7 12 -10 13 -10 32 14 33 15 320 2 320 3 17 15
18 16 0 14 0 13 9 0 9 0 16 -6 16 -6 0 -9 0 -10 -22 -9 -23 -9 21 0 20 -1 12
12 11 11 165 -2 166 -2 21 12 22 11 168 7 168 7 26 28 26 28 22 -6 22 -7 55
-10 55 -11 10 -6 10 -7 20 -3 20 -3 69 -5 68 -6 -4 13 -5 14 -69 11 -69 12
-38 7 -38 8 4 10 3 11 50 3 49 4 63 -17 62 -17 58 16 57 16 82 5 82 5 6 -19 6
-20 63 0 64 0 31 6 31 7 0 6 0 6 -92 3 -93 4 -4 4 -4 4 18 20 18 20 -14 1 -14
1 -21 -1 -20 -2 -30 12 -29 11 23 9 23 9 68 -2 69 -2 17 14 17 14 41 2 42 2
35 10 35 10 45 9 45 8 48 -5 47 -5 3 -10 2 -10 -62 -5 -62 -5 -13 -13 -12 -12
-50 0 -51 -1 -19 -14 -20 -15 -62 0 -63 0 -5 -9 -6 -9 16 -6 16 -6 53 0 54 0
15 -15 15 -15 71 0 71 0 5 15 6 15 19 0 19 0 0 9 0 10 -12 7 -11 7 -12 -16
-12 -17 -72 0 -71 0 0 15 0 15 58 0 58 0 11 11 11 11 63 5 64 6 20 13 19 14
32 0 32 0 17 6 17 7 9 23 9 24 33 0 33 0 10 9 9 10 49 8 48 8 0 10 -1 10 -33
6 -33 5 -22 12 -22 12 -65 0 -65 0 -46 -24 -46 -25 -15 6 -14 5 0 13 0 13 15
6 15 5 0 16 0 15 -39 0 -40 0 -15 15 -15 15 -10 0 -11 0 0 -15 0 -15 -67 -1
-68 -1 -22 1 -21 2 -7 -10 -6 -11 8 0 8 -1 74 -5 75 -5 18 -10 18 -10 0 -14 0
-14 -11 -7 -12 -7 -9 17 -9 16 -104 0 -105 0 0 9 0 9 19 13 19 14 -5 37 -5 36
-36 4 -36 4 -23 -4 -23 -4 0 -13 0 -13 13 -5 12 -4 -16 -29 -15 -29 -20 2 -19
2 -6 -11 -7 -10 -158 -5 -157 -4 -28 -15 -28 -14 -59 0 -60 0 -12 -15 -12 -15
-27 0 -26 -1 -15 -12 -16 -12 -17 -45 -17 -46 0 -6 0 -6 21 -5 21 -6 -4 -18
-3 -18 -22 -3 -22 -3 -23 15 -23 14 -45 2 -45 3 -17 -2 -18 -1 0 -15 0 -15 64
0 65 0 6 -10 6 -9 -27 -7 -27 -7 -116 13 -115 12 -4 -11 -4 -11 -18 0 -18 0
-16 -6 -16 -6 0 -19 0 -20 -16 -6 -15 -6 -12 12 -12 12 23 5 22 6 0 8 0 8 -15
12 -15 12 0 8 0 8 55 7 55 6 5 10 6 9 38 0 37 0 10 10 10 10 88 5 88 5 9 6 9
5 -5 10 -6 9 -69 0 -68 0 -6 15 -5 15 -68 0 -68 -1 -40 -14 -40 -15 -21 0 -22
0 -6 -24 -6 -24 6 -15 5 -15 -20 -7 -21 -6 -11 6 -11 7 5 19 5 18 -30 6 -29 7
-7 -7 -7 -7 0 -41 0 -42 -45 -1 -45 -1 -70 -8 -70 -7 -30 -2 -30 -1 0 15 0 15
30 6 30 6 -26 7 -26 7 -39 -3 -39 -3 3 -22 3 -21 -9 -6 -10 -6 -30 6 -31 6 -6
16 -6 16 16 13 17 12 -7 10 -6 11 -33 0 -32 0 -30 -31 -29 -30 -25 5 -25 5
-43 9 -44 10 -11 11 -11 11 -17 0 -18 0 -6 10 -7 11 13 15 12 14 18 -5 17 -6
7 11 6 10 -13 1 -13 1 -10 3 -10 2 -22 1 -22 2 -17 35 -17 36 -19 -7 -19 -6
-42 41 -42 41 -10 0 -11 0 -22 -16 -22 -15 0 -25 0 -24 14 0 15 0 6 -20 6 -20
-6 -10 -6 -10 -25 0 -25 0 -31 16 -30 16 -37 -7 -36 -7 -10 -8 -10 -8 -23 -4
-23 -3 -2 -10 -2 -10 53 -3 54 -3 13 11 13 11 6 -9 5 -9 68 -6 68 -7 41 -42
41 -43 16 -12 16 -13 16 0 15 0 0 11 0 11 -20 5 -21 6 4 11 4 11 21 3 22 3 6
-15 6 -16 33 0 34 0 5 -9 6 -9 45 -11 45 -11 0 -21 0 -21 -17 8 -18 7 -37 5
-37 4 -17 -16 -16 -17 -16 3 -15 3 -5 13 -4 12 27 0 27 0 -4 13 -5 12 -18 4
-18 3 -9 -16 -9 -16 -28 0 -27 0 -20 15 -19 14 -16 1 -17 0 -6 -15 -5 -15 -21
0 -20 0 0 21 0 21 20 -5 20 -5 5 8 5 9 -10 6 -10 6 -18 -10 -19 -10 -46 17
-46 18 -7 7 -7 7 -32 0 -33 0 -12 -15 -13 -16 -17 16 -17 15 -22 0 -22 0 -5
15 -6 15 -20 0 -20 0 -28 30 -28 30 -35 0 -35 0 -6 15 -5 15 -15 0 -15 0 -33
30 -32 30 -14 0 -14 0 -44 36 -44 36 -15 -6 -15 -6 -40 21 -40 21 0 9 0 9 -14
0 -14 0 -17 28 -18 27 -14 8 -13 8 0 9 0 10 25 0 26 0 5 -15 6 -15 19 0 20 0
5 -15 6 -15 13 0 13 0 12 -15 12 -15 24 0 24 0 0 -15 0 -15 28 0 27 0 20 -30
20 -30 21 0 22 0 6 -15 5 -15 30 0 29 0 6 -15 5 -15 26 0 26 0 5 -15 6 -15 28
0 28 0 6 -15 5 -15 31 0 30 0 0 15 0 15 -30 0 -31 0 -5 15 -6 15 -29 0 -30 0
-5 15 -6 15 -28 0 -28 0 -6 15 -5 15 -21 0 -21 0 -26 30 -25 30 -23 0 -23 0
-6 15 -5 15 -26 0 -25 0 0 15 0 15 -24 0 -24 0 -6 15 -5 15 -21 0 -21 0 -5 14
-5 14 -20 5 -19 5 0 20 0 19 -52 8 -53 8 -35 -2 -36 -2 -16 18 -16 18 -6 22
-7 21 9 6 10 6 12 -15 12 -15 19 0 19 0 0 6 0 7 -26 23 -25 24 -14 0 -14 0
-11 21 -12 21 15 16 14 17 7 20 7 20 21 -27 20 -28 14 0 15 0 5 -15 6 -15 14
0 14 0 0 -25 0 -25 19 -19 19 -19 21 -7 21 -6 0 -10 0 -9 9 0 10 0 44 -30 45
-30 20 0 20 0 6 -15 5 -15 19 0 18 0 17 30 18 30 14 0 14 0 25 -24 26 -23 0
-7 0 -6 -50 0 -50 0 0 -15 0 -15 49 0 49 0 6 15 5 15 26 0 25 0 0 11 0 11 -22
19 -23 18 -18 1 -19 0 -19 22 -18 23 -1 8 0 7 35 0 36 0 5 -14 6 -15 29 -6 29
-7 5 -9 6 -9 19 0 19 0 6 10 6 10 -24 9 -24 9 -6 21 -5 21 -27 -12 -27 -12 -9
17 -10 17 -14 0 -14 0 -9 15 -8 16 -57 0 -57 1 0 12 0 12 -45 23 -45 22 0 14
0 14 9 6 10 5 6 -10 6 -10 35 0 34 0 0 9 0 9 -36 21 -35 21 -26 0 -26 0 -33
21 -34 21 0 9 0 9 -19 0 -19 0 -12 15 -12 15 -29 0 -29 0 0 10 0 11 15 5 15 6
0 20 0 20 20 5 20 5 0 10 0 9 -29 17 -30 17 -10 22 -11 23 -10 0 -10 0 0 14 0
14 -15 12 -15 12 0 19 0 19 -15 0 -15 0 0 -19 0 -19 15 -12 15 -12 0 -14 0
-14 15 0 15 0 0 -15 0 -15 -25 0 -24 0 -11 20 -11 20 -9 0 -10 0 0 -37 0 -37
22 -23 21 -23 -17 0 -17 0 -5 15 -6 15 -14 0 -14 0 0 20 0 21 -15 5 -15 6 0
18 0 18 -14 12 -15 11 -3 21 -3 21 -12 5 -13 4 0 -25 0 -25 15 -12 15 -12 0
-18 0 -18 15 -6 15 -5 0 -18 0 -18 35 -38 35 -38 23 3 22 3 3 23 3 22 9 0 8 0
6 -16 6 -16 0 -25 0 -26 33 -43 32 -43 18 -1 18 0 -3 -27 -3 -28 23 -3 23 -4
6 -14 5 -14 29 0 28 0 44 -30 45 -30 16 0 16 0 0 -19 0 -20 -9 -6 -10 -5 -6
10 -6 10 -20 0 -19 0 0 10 0 10 -25 10 -25 10 0 10 0 10 -15 0 -15 0 0 -10 0
-10 20 -20 20 -20 15 0 16 0 5 -15 6 -15 14 0 15 0 5 -15 6 -15 24 0 24 0 0
-15 0 -15 -35 0 -36 0 -5 15 -6 15 -14 0 -15 0 -32 23 -32 22 -5 6 -5 5 -18 7
-17 7 -7 17 -6 18 -14 8 -13 8 0 10 0 11 -37 31 -36 32 -64 63 -64 62 -12 0
-12 1 -22 18 -23 19 0 20 0 20 -15 6 -15 5 0 24 0 25 -15 12 -15 12 0 30 0 29
-15 5 -15 6 0 33 0 34 9 6 10 6 11 -21 11 -20 8 0 9 0 4 28 5 27 8 18 7 17
-21 0 -20 0 -11 20 -11 20 -9 0 -10 0 0 -14 0 -13 -19 -25 -19 -24 8 -43 8
-43 11 -11 11 -11 0 -27 0 -27 15 -12 15 -12 0 -25 0 -24 15 -5 15 -6 0 -22 0
-22 -30 -17 -30 -18 0 -13 0 -13 25 -11 25 -12 10 -25 10 -25 10 0 10 0 0 -50
0 -51 -15 -5 -15 -6 0 -9 0 -9 40 -38 40 -37 14 -13 15 -12 15 0 14 0 31 -31
31 -31 0 -8 0 -9 -17 -10 -18 -10 30 -25 30 -25 8 -1 8 0 5 15 6 15 17 0 16 0
23 -24 22 -24 0 -6 0 -6 -15 0 -15 0 0 -15 0 -15 16 0 15 0 15 15 15 15 10 0
9 0 0 -14 0 -14 -21 -5 -21 -6 7 -10 6 -11 19 0 18 0 6 15 5 15 11 0 10 0 0
-15 0 -15 9 0 10 0 3 -27 3 -28 64 -3 64 -3 25 -20 25 -19 13 0 14 0 0 -10 0
-10 15 0 16 0 5 -15 6 -15 29 0 29 0 0 -45 0 -45 -15 0 -15 0 0 -15 0 -15 -25
0 -25 0 0 10 0 10 -34 14 -34 14 -19 19 -20 20 -14 7 -14 7 -20 12 -21 12 -29
28 -30 27 -6 0 -7 0 -7 -17 -6 -18 -15 20 -14 20 -20 -13 -20 -12 -7 0 -8 1
19 14 18 14 -7 10 -6 11 -19 0 -18 0 -6 15 -5 15 -14 0 -13 0 -17 30 -18 30
-7 0 -7 0 -55 50 -55 50 -12 0 -13 0 0 -12 0 -13 23 -21 22 -20 18 -7 18 -7
-18 -26 -17 -27 -53 59 -53 58 0 8 0 9 -12 15 -13 15 -17 20 -18 19 0 19 0 19
-15 6 -15 5 0 23 0 24 -30 11 -30 11 0 16 0 17 15 6 16 5 18 -16 18 -16 11 0
12 0 0 15 0 15 16 0 15 0 -3 18 -4 17 -22 -1 -22 -1 0 7 0 6 12 12 12 12 -15
17 -14 18 -18 32 -17 31 0 21 0 22 15 5 15 6 0 23 0 23 -15 12 -15 12 0 18 0
18 -15 6 -15 5 0 64 0 64 -35 24 -35 24 0 16 0 17 -16 6 -16 6 -19 0 -19 0 0
-19 0 -19 -22 -16 -23 -15 16 -13 16 -13 -10 -16 -11 -17 17 -17 17 -16 11 7
11 7 -5 44 -5 45 14 5 14 5 20 -23 19 -24 1 -77 0 -77 10 -6 10 -6 0 -24 0
-24 -10 -6 -10 -6 0 -31 0 -31 -16 -19 -17 -18 13 -15 13 -16 38 6 37 7 12
-22 11 -21 -3 -22 -3 -22 -25 0 -25 0 -5 29 -5 30 -10 0 -10 1 -3 -23 -3 -22
-10 0 -10 0 -18 10 -18 9 -7 31 -6 31 -10 -6 -10 -6 0 -60 0 -60 15 -36 15
-35 0 -8 0 -7 -21 -27 -22 -28 -8 14 -9 13 0 26 0 27 -15 12 -15 12 0 59 0 59
-15 0 -15 0 0 -49 0 -49 15 -28 15 -29 0 -45 1 -45 14 -19 15 -20 0 -17 0 -17
15 -12 15 -12 0 -18 0 -18 15 -6 15 -5 0 -16 0 -15 9 0 10 0 5 -17 6 -18 60
-64 60 -65 0 -8 0 -9 30 -29 30 -29 0 -10 0 -9 13 -5 12 -4 -6 -7 -6 -6 -30
15 -31 15 -81 80 -81 80 0 13 0 14 -30 29 -29 29 -1 16 0 17 -15 6 -15 5 0 21
0 21 -15 15 -15 15 0 52 0 52 -9 14 -8 13 -9 -13 -8 -14 1 -58 1 -58 16 -18
16 -18 0 -15 0 -16 15 -12 15 -12 0 -9 0 -8 30 -33 30 -32 0 -12 0 -11 80 -82
80 -81 10 0 10 0 0 -15 0 -15 -10 0 -11 0 -5 15 -6 15 -30 0 -31 0 -53 55 -54
55 0 20 0 20 -20 20 -20 20 0 10 0 10 -10 0 -10 0 -10 25 -10 25 -10 0 -10 0
0 -25 0 -25 15 0 15 0 0 -15 0 -15 16 0 15 0 -3 -27 -3 -28 -19 -4 -20 -3 -12
17 -13 17 6 29 6 29 -14 0 -14 -1 -18 -25 -18 -24 76 -76 77 -75 -6 -6 -6 -6
-25 11 -26 12 -11 0 -10 0 5 -14 6 -14 -21 6 -20 5 -5 13 -5 14 -14 0 -14 0 0
15 0 15 -11 0 -11 0 -29 21 -30 21 12 14 11 14 14 0 14 0 0 24 0 24 -15 6 -15
5 0 24 0 25 -15 12 -15 12 0 14 0 13 10 6 10 6 35 -35 35 -35 0 -11 0 -10 15
0 15 0 0 19 0 20 16 16 16 16 -6 14 -5 15 -10 0 -9 0 -6 -22 -5 -23 -12 12
-13 13 19 20 19 21 -17 28 -17 29 0 16 0 16 -24 0 -25 0 -4 7 -5 8 -3 69 -4
69 12 4 13 5 10 -26 10 -26 9 0 10 0 3 -37 3 -36 11 -4 12 -4 6 26 6 25 10 0
10 0 0 20 0 21 -15 5 -15 6 0 23 0 23 -14 11 -15 12 -7 32 -7 32 -4 -13 -5
-12 -14 0 -15 0 -5 15 -6 15 -14 0 -14 0 -2 -17 -1 -18 2 -25 2 -25 9 -8 8 -9
-13 -26 -13 -27 5 -53 6 -54 13 -5 14 -5 0 -8 0 -8 -30 -32 -30 -32 0 -35 0
-36 15 -11 15 -11 2 -43 1 -42 -6 -6 -6 -6 -10 7 -11 6 0 20 0 19 -14 0 -15 0
-6 -10 -6 -10 -24 0 -24 0 -15 22 -16 22 0 34 0 33 -13 4 -12 5 -2 103 -3 102
-17 13 -18 12 14 23 14 22 3 40 3 40 6 33 6 32 9 0 9 0 3 28 3 27 15 0 15 0
-3 -50 -3 -50 -15 -11 -15 -12 3 -118 3 -118 25 -6 25 -6 -13 -8 -12 -7 0 -43
0 -42 15 -20 14 -19 1 -22 0 -23 15 0 15 0 0 29 0 29 -15 6 -15 5 0 51 0 50
16 0 16 0 5 -20 5 -20 9 0 9 0 0 44 0 45 -10 6 -11 7 -14 -12 -15 -12 0 35 0
36 -20 11 -20 11 0 24 0 24 10 6 10 6 5 -15 5 -16 5 -15 5 -16 25 17 25 17
-12 15 -13 15 0 26 0 26 -17 3 -16 3 -4 -21 -3 -21 -10 0 -10 0 -3 24 -3 24
15 13 16 12 0 40 0 40 13 -4 12 -5 3 -26 3 -27 15 0 14 0 0 29 0 30 -10 6 -9
6 24 36 25 36 0 28 0 29 20 20 20 20 18 0 19 0 6 6 6 6 -12 20 -12 21 13 4 12
5 0 18 0 18 -15 12 -15 12 0 24 0 24 15 0 15 0 0 -19 0 -20 11 -7 12 -7 9 17
9 16 24 0 25 0 0 -10 0 -11 -15 -5 -15 -6 0 -25 0 -25 13 6 12 6 18 6 17 6 1
17 2 16 -2 38 -3 37 37 33 36 32 22 5 22 6 3 27 3 27 10 0 9 0 20 -20 20 -20
0 -5 0 -5 -20 -20 -20 -20 0 -10 0 -10 12 0 11 0 18 -16 17 -15 21 27 21 27 0
17 0 18 15 12 15 12 0 27 0 27 30 22 30 23 0 24 0 25 15 0 15 0 0 -40 0 -41
-15 -5 -15 -6 0 -13 0 -14 9 -5 9 -6 16 6 16 6 0 24 0 25 15 6 16 5 19 -17 20
-18 0 -21 0 -21 6 -22 6 -23 19 0 18 0 6 11 7 11 -21 19 -21 20 0 12 0 13 29
25 29 25 41 13 41 12 -10 18 -10 19 15 12 15 12 6 -16 6 -16 12 0 11 0 20 30
20 30 11 0 11 0 15 -17 15 -18 6 -18 7 -19 48 52 48 52 13 -16 12 -15 -22 -11
-21 -12 31 -28 31 -29 0 -10 0 -11 -16 0 -16 0 4 -12 5 -13 21 -3 22 -3 6 15
6 15 29 6 29 7 0 19 0 20 -15 5 -15 6 0 14 0 14 21 0 20 0 10 -30 11 -30 14 0
15 0 5 15 6 15 49 0 49 0 0 -15 0 -15 -26 0 -25 0 -20 -10 -19 -11 0 -11 0
-11 60 6 60 5 6 -9 5 -9 -15 -6 -16 -6 0 -14 0 -14 10 0 10 0 20 20 20 20 45
-7 45 -6 0 11 0 12 40 20 39 20 34 0 33 0 10 -10 10 -10 37 15 37 15 0 9 0 10
22 7 22 7 -16 11 -15 11 -7 37 -7 37 -10 7 -11 6 -81 2 -81 1 -25 -20 -26 -20
-13 -12 -13 -13 -19 0 -19 0 -8 -13 -8 -14 -32 -6 -31 -6 -13 16 -13 15 19 14
19 14 -12 0 -12 0 0 18 0 17 38 20 37 19 19 19 18 18 37 -6 36 -6 33 31 33 30
9 0 9 0 9 -16 9 -16 22 7 21 6 0 19 0 19 11 7 11 6 11 -11 11 -11 21 0 20 1
-19 14 -18 14 7 10 6 11 23 0 22 0 9 -9 10 -9 30 -4 30 -3 0 -15 0 -15 -32 -3
-33 -3 0 -15 0 -14 55 0 56 0 5 15 6 15 24 0 24 0 20 -17 20 -17 0 -17 0 -16
-22 -11 -23 -12 -45 -2 -45 -3 3 -27 2 -26 -50 -7 -50 -7 37 -34 36 -34 25 -7
25 -6 12 17 12 16 12 0 11 0 0 11 0 12 -17 12 -16 12 7 11 7 12 15 0 15 0 8
-22 8 -23 -9 -26 -9 -27 -20 -18 -19 -17 0 -12 0 -13 -17 -6 -17 -7 29 -24 30
-24 -13 -21 -14 -22 9 -9 8 -8 23 5 22 6 0 24 0 24 14 0 14 0 12 -15 12 -15
15 0 14 0 29 -31 28 -32 46 5 46 6 7 -11 6 -10 -17 -13 -17 -12 -40 2 -40 2
-9 14 -8 13 -38 -18 -37 -17 -51 11 -51 10 -45 -2 -45 -2 4 68 3 67 -30 0 -29
0 -26 20 -25 20 -11 0 -10 0 -26 -24 -27 -25 4 -17 3 -18 25 -6 25 -6 3 -22 3
-23 -32 -11 -32 -11 27 -14 26 -14 -17 -25 -16 -25 -20 5 -19 5 -26 -10 -25
-10 10 -10 11 -11 48 10 47 10 14 -5 13 -5 13 10 12 9 38 7 37 7 6 -16 6 -15
-11 -14 -11 -13 7 -6 6 -7 19 0 18 0 9 -23 9 -23 16 -13 16 -13 0 -12 0 -12
-12 -27 -13 -27 -30 0 -30 0 -13 -9 -14 -8 17 -7 17 -6 28 0 28 0 6 17 7 16
10 -10 11 -11 -7 -21 -6 -21 -24 0 -23 0 -16 -6 -16 -6 6 -9 5 -9 31 0 31 0
11 16 12 16 89 -1 90 0 35 8 35 8 -60 7 -60 7 -43 -2 -42 -2 -6 5 -5 6 -4 33
-3 34 -7 63 -6 62 16 0 16 0 5 -17 5 -18 10 -15 9 -15 10 -22 10 -23 11 0 11
0 -4 -12 -5 -13 -28 -5 -29 -5 2 -10 2 -10 67 -3 67 -3 21 10 20 9 61 6 62 5
12 -14 12 -15 33 0 33 0 5 -14 5 -13 58 2 58 3 4 11 4 11 58 0 58 0 35 15 36
15 28 0 27 0 32 -31 32 -31 146 1 147 0 9 6 10 6 0 12 0 12 -97 -2 -98 -2 -22
15 -23 14 0 13 0 13 -19 16 -19 16 -21 12 -21 11 -43 -15 -42 -15 -24 24 -23
23 6 11 7 11 77 0 77 0 15 10 14 9 -14 5 -15 4 -108 5 -108 5 -20 -5 -20 -6 3
-26 3 -26 -70 3 -70 3 -27 0 -28 -1 -109 -2 -109 -3 -35 35 -35 35 19 24 20
24 57 1 57 1 -2 22 -3 23 30 15 29 15 25 0 25 0 14 33 14 32 12 28 11 28 -18
5 -17 6 -27 14 -26 14 -35 0 -35 0 -6 15 -5 15 -19 0 -18 0 -29 30 -28 29 -9
-5 -8 -5 0 -24 0 -24 28 -3 27 -3 3 -23 3 -22 -23 -9 -23 -9 -7 5 -8 4 0 27
-1 27 -25 18 -25 19 -16 -6 -16 -7 11 -11 12 -12 0 -13 0 -13 -39 0 -40 0 -6
11 -7 10 15 12 15 12 4 20 3 20 20 3 20 3 14 5 13 4 -33 23 -34 23 -3 18 -4
18 22 20 21 20 -6 18 -6 18 11 7 11 7 15 -13 15 -12 11 11 12 12 19 0 20 0 12
-17 12 -17 12 22 12 22 8 0 9 0 5 -22 6 -21 25 24 26 24 0 11 0 12 16 6 15 6
-18 31 -18 31 -16 9 -17 8 -5 21 -5 20 18 0 18 0 26 -14 26 -13 43 3 42 3 22
-15 22 -14 31 0 30 0 0 -15 0 -15 -20 0 -21 0 -5 -15 -6 -15 -25 0 -26 0 -12
16 -12 17 -18 -10 -17 -10 35 -27 36 -27 39 12 40 12 26 -7 26 -6 0 -45 0 -45
-18 0 -18 0 -12 13 -13 12 -45 1 -45 1 -18 17 -19 17 -34 -3 -33 -3 -17 -35
-16 -35 9 -9 9 -10 0 -13 0 -13 -14 0 -14 0 -6 15 -5 15 -14 -6 -13 -5 4 -29
4 -30 -28 -1 -29 -2 50 -7 50 -8 27 -1 27 -1 15 15 15 15 25 0 26 0 0 -15 0
-15 24 0 25 0 6 -10 6 -10 -25 -11 -25 -12 5 -8 5 -9 35 0 34 0 0 -14 0 -14
-15 -6 -15 -5 0 -16 0 -15 10 0 11 0 24 16 24 15 25 -16 26 -17 0 -9 0 -9 89
0 88 0 27 -25 26 -24 0 -21 0 -20 -27 -1 -28 -1 -70 -3 -70 -4 -40 -1 -40 -1
-43 7 -44 6 -11 -11 -11 -11 20 -14 19 -15 -15 -5 -15 -5 -75 -4 -75 -3 2 -20
2 -19 7 -33 7 -34 12 -5 13 -5 22 22 21 21 21 -7 20 -6 55 7 55 7 -5 5 -5 5
-86 3 -86 4 -10 6 -10 6 0 10 0 9 189 0 190 0 24 31 24 31 56 -16 55 -16 30 0
30 0 12 15 12 15 29 0 29 0 0 15 0 15 -44 0 -44 0 -5 19 -5 19 -25 -5 -25 -5
-6 11 -7 11 23 10 23 9 19 16 20 15 -11 11 -11 11 -155 -1 -155 -1 -16 25 -16
24 0 14 0 15 13 11 14 11 -4 27 -3 28 18 21 18 21 52 6 52 6 11 7 11 6 -13 9
-14 9 -48 0 -49 0 -5 -21 -6 -20 -26 3 -26 3 -3 18 -3 17 12 0 12 0 13 18 12
17 79 1 78 1 34 1 33 2 -13 16 -13 16 15 9 14 9 46 0 47 0 12 -14 11 -15 31
-3 31 -3 5 -12 4 -13 -34 0 -33 -1 -22 -18 -23 -19 0 -10 0 -10 16 -6 16 -6
38 0 37 0 32 6 31 6 0 9 0 9 -25 10 -25 10 0 10 0 10 33 2 32 2 25 2 25 1 18
7 17 6 15 5 15 4 0 16 0 15 -20 0 -20 0 -20 20 -20 20 0 25 0 25 -44 0 -45 0
-6 10 -6 10 -22 0 -22 -1 19 -14 18 -14 -7 -10 -6 -11 -14 0 -13 0 -6 15 -5
15 -21 0 -21 0 -5 -15 -6 -15 -37 0 -37 0 -29 -30 -29 -30 -36 0 -35 0 -37
-20 -37 -20 -26 10 -25 10 0 21 0 21 -20 5 -21 6 4 11 4 11 81 5 81 5 13 13
12 12 52 0 52 0 17 7 17 6 -37 18 -38 19 -33 6 -33 6 -5 15 -6 14 -30 -18 -30
-18 -21 13 -20 13 -20 -6 -20 -7 -16 13 -16 14 -66 -4 -67 -3 -14 16 -13 17
-18 -17 -18 -16 -10 7 -11 6 0 16 0 15 -17 -7 -18 -7 -37 -5 -38 -6 0 -8 0 -9
-30 0 -30 0 0 13 0 13 63 32 62 31 28 7 28 6 20 -18 19 -18 12 12 12 12 24 0
25 0 11 -16 12 -15 28 15 29 15 19 -10 19 -10 41 42 41 42 16 -10 15 -9 10
-18 11 -17 -17 -10 -18 -10 0 -14 0 -15 34 -14 34 -14 6 -11 7 -11 40 0 40 0
71 -12 70 -11 20 12 19 12 40 -3 39 -2 12 12 12 12 -19 20 -18 20 -14 0 -13 0
0 10 0 10 -20 20 -20 20 -40 0 -41 0 -24 16 -24 15 -91 0 -91 0 3 27 3 27 30
3 30 2 85 0 84 -1 6 -8 5 -8 23 -12 22 -12 27 13 26 13 11 19 11 20 28 24 27
24 0 18 0 18 -16 6 -16 6 -31 -14 -32 -14 -35 -5 -35 -4 -32 -14 -32 -13 -8 7
-7 8 11 18 12 19 -6 6 -6 6 -18 0 -17 0 -6 -16 -6 -15 -11 7 -11 7 27 22 26
23 226 1 226 1 16 -14 16 -14 30 -4 30 -3 0 -10 0 -10 -65 -3 -64 -3 -23 12
-24 13 -27 -10 -27 -9 0 -25 0 -25 15 5 15 4 83 4 82 3 6 -15 6 -16 19 0 18 0
8 14 8 13 72 6 72 6 10 -13 11 -13 -7 -6 -6 -7 -38 0 -38 0 -24 -11 -24 -11
-21 11 -20 11 -5 -14 -6 -14 -138 -4 -138 -3 -28 -19 -28 -19 3 -21 3 -21 43
-3 42 -3 0 -18 0 -19 -30 -12 -30 -12 0 -16 0 -15 55 7 55 6 12 -20 13 -20 16
0 16 0 17 19 17 18 72 -5 72 -4 27 -25 26 -25 59 -7 58 -7 25 -15 25 -14 8
-12 8 -13 20 0 21 0 31 -17 31 -18 54 -57 54 -57 20 -7 19 -6 -3 -21 -3 -22
-47 -3 -47 -3 -20 20 -21 21 0 19 0 19 -27 10 -28 9 -25 25 -25 25 -47 22 -48
23 -6 9 -5 9 -23 0 -24 0 -12 15 -12 15 -48 0 -47 0 -29 30 -29 29 -17 1 -17
0 -8 -13 -8 -12 -27 -18 -27 -17 -24 0 -25 0 -12 16 -13 15 -36 -3 -36 -3 3
-24 2 -25 17 -18 16 -18 28 0 28 0 5 -9 6 -9 40 -21 41 -21 93 0 94 0 12 -15
12 -15 24 0 23 0 6 10 6 10 -24 9 -25 10 -7 10 -6 11 -25 0 -25 0 -24 16 -25
16 0 14 0 14 22 0 23 0 68 -32 68 -32 -3 -30 -3 -31 25 0 25 0 40 -27 40 -28
11 0 12 0 12 -15 12 -15 19 0 19 0 0 -14 0 -14 -15 -12 -15 -12 -29 12 -30 12
-5 14 -5 14 -24 0 -23 0 -20 15 -19 14 -30 1 -31 0 -19 13 -20 13 -109 2 -108
2 -14 -11 -14 -11 -15 12 -15 12 -25 -16 -24 -16 -33 -1 -33 -1 -25 -7 -25 -7
-3 -17 -3 -17 15 0 15 0 11 -20 11 -20 19 0 19 0 5 9 6 8 -20 18 -20 18 5 7 5
8 39 -5 39 -5 51 12 51 12 29 -13 30 -13 5 -19 5 -19 20 7 20 6 8 -15 8 -14
25 -4 25 -3 0 -15 0 -15 -50 3 -50 3 -11 15 -11 14 -20 0 -21 0 -12 15 -12 15
-29 0 -28 0 -6 -9 -5 -9 34 -29 35 -28 11 -29 11 -29 -16 -23 -15 -23 -32 -3
-33 -3 0 -10 0 -10 43 -3 43 -3 -6 -30 -7 -29 65 0 65 0 12 -15 12 -15 23 0
23 0 12 -15 12 -14 121 0 121 1 41 15 40 14 178 1 178 1 17 -15 17 -15 59 -1
59 -1 21 14 21 14 92 5 92 5 25 -24 26 -24 0 -10 0 -10 -21 -6 -20 -7 6 -15 5
-16 -16 -18 -17 -19 24 -20 24 -21 55 5 56 5 28 -29 27 -30 -6 -10 -7 -11 6
-23 6 -23 70 -1 70 -2 20 17 20 17 0 13 0 13 -61 0 -60 0 3 18 3 17 30 1 30 0
30 2 30 2 -15 10 -15 10 -45 -2 -45 -2 0 42 0 42 -10 1 -10 1 -14 -2 -15 -2
-27 -29 -27 -29 -10 0 -11 0 -15 22 -16 22 0 13 0 13 30 0 30 0 0 9 0 9 -15
12 -14 12 2 21 2 22 -25 3 -25 3 -12 16 -12 15 -53 -4 -53 -3 -3 16 -3 16 33
7 33 7 -17 10 -18 10 0 19 0 20 -34 0 -34 0 -14 -22 -14 -21 -83 -1 -82 -1
-20 7 -19 7 0 41 0 40 35 0 36 0 28 -21 28 -20 26 6 27 7 0 13 0 13 -15 6 -15
5 0 40 0 39 -15 6 -15 5 0 26 0 25 36 0 37 0 12 -17 12 -16 19 8 19 8 10 -3
10 -3 74 -1 75 -2 7 -26 7 -26 -52 5 -52 5 -59 -17 -59 -17 15 -9 14 -9 33 0
33 0 20 -11 20 -10 78 -3 77 -3 23 -12 22 -12 18 -30 19 -31 6 11 7 11 25 0
25 0 35 -26 34 -26 0 -14 0 -13 30 -23 30 -22 0 -23 0 -24 -15 -5 -15 -6 0
-14 0 -14 -10 0 -10 0 -18 18 -18 18 -13 32 -13 32 -12 0 -12 0 -27 31 -28 32
-30 -34 -30 -34 -22 0 -22 0 -3 -15 -3 -15 33 -14 33 -14 65 -6 65 -6 0 -25 0
-25 33 -3 32 -3 6 15 6 16 25 0 25 0 29 -21 29 -20 -22 -30 -22 -29 -16 0 -16
0 -23 17 -24 16 -13 -17 -12 -18 34 -32 35 -33 -7 -16 -6 -17 18 -6 19 -6 26
-14 27 -14 6 15 6 15 22 10 23 9 -37 0 -38 1 -17 26 -17 26 11 17 10 16 17 3
17 4 30 -33 31 -33 13 17 12 17 5 0 4 0 1 -37 1 -36 16 -9 16 -9 0 -34 0 -34
10 -27 11 -27 -11 -11 -10 -10 0 -22 0 -22 -30 -25 -30 -26 0 -14 0 -15 15 -6
15 -5 0 -21 0 -20 -15 0 -15 0 0 -11 0 -11 -19 -25 -20 -24 6 -16 6 -16 -24
-18 -24 -19 -7 0 -8 0 0 20 0 21 15 5 15 6 -1 32 -1 31 5 62 6 62 12 23 12 23
11 7 11 7 -13 13 -12 12 0 28 0 28 -24 0 -24 0 -12 15 -12 15 -32 0 -31 0 -15
-10 -15 -10 10 -1 10 -2 23 -2 23 -2 6 -6 5 -6 -5 -15 -6 -14 -19 5 -20 5 -7
-11 -6 -11 17 -7 17 -6 19 12 19 12 9 -6 10 -6 0 -32 0 -32 -24 -60 -24 -60
-25 -26 -25 -26 6 -28 5 -28 -14 -11 -14 -11 -19 -35 -19 -35 -12 -10 -12 -10
-7 -22 -7 -22 -22 -7 -22 -6 -17 -16 -18 -15 0 -14 0 -13 33 0 33 0 10 8 9 8
57 23 57 23 10 -7 11 -6 37 20 38 20 37 15 36 16 26 0 26 0 0 9 0 9 40 21 41
21 24 0 24 0 6 9 5 10 45 7 44 6 12 14 11 14 18 0 18 0 12 15 12 15 10 0 10 0
26 21 27 21 37 34 38 34 32 7 33 6 36 29 37 28 32 0 31 0 -3 18 -3 17 -24 0
-24 0 -5 13 -4 14 28 -2 29 -2 16 1 17 1 6 24 6 24 25 16 25 16 0 11 0 11 69
69 69 69 15 0 16 0 8 14 8 13 40 48 40 47 92 97 93 96 0 8 0 9 59 56 59 57 29
23 28 23 40 38 40 38 46 29 46 29 34 28 34 27 70 56 70 57 22 10 23 10 0 8 0
8 23 7 22 7 28 19 27 19 0 19 0 19 -16 9 -17 9 7 11 7 11 13 -5 13 -5 16 15
16 16 10 0 11 0 0 25 0 25 -29 0 -29 0 -12 -15 -12 -15 -25 0 -24 0 -22 -12
-22 -13 -95 -13 -95 -12 -125 -15 -125 -14 -35 -11 -35 -10 -310 -1 -310 0
-70 -11 -70 -12 -183 -2 -183 -1 -11 -11 -10 -10 43 -6 44 -5 95 -7 95 -7 90
-6 90 -6 0 -15 0 -15 -62 -3 -63 -3 0 -9 0 -9 22 -3 23 -3 3 -17 3 -18 -58 0
-59 0 -20 15 -19 14 -29 1 -28 0 4 25 5 25 -31 0 -32 0 -11 -11 -11 -11 -6 11
-7 11 -29 0 -29 0 -24 9 -25 10 -7 21 -7 21 -11 -4 -12 -4 -3 -20 -3 -21 -20
-5 -19 -5 0 -18 0 -17 15 -17 16 -17 -16 -13 -15 -12 -15 12 -15 12 0 14 0 13
-37 10 -38 11 -42 0 -42 0 -5 9 -6 9 6 15 6 15 15 6 15 6 44 -15 45 -15 35 0
36 0 -4 13 -5 12 -50 3 -51 3 -12 14 -12 15 -47 0 -47 0 -19 14 -20 14 -50 6
-50 6 -65 9 -65 10 -115 2 -115 2 -27 14 -27 13 -76 0 -76 0 -18 -9 -17 -10
-14 9 -15 9 -16 -15 -16 -15 -75 -1 -74 -2 -12 8 -12 7 5 10 6 9 37 0 37 1 25
14 25 14 35 1 36 0 21 15 21 15 291 1 290 1 23 -16 22 -16 40 0 39 0 16 -13
16 -13 45 -18 45 -18 15 -9 15 -9 13 -6 13 -7 12 12 11 11 -20 14 -19 14 8 8
7 7 23 -10 22 -11 18 -6 17 -5 0 -15 0 -14 -27 -7 -28 -7 19 -10 19 -11 11 15
11 15 53 8 52 7 6 9 5 9 36 0 36 0 17 15 16 15 258 2 258 3 6 13 5 14 -17 16
-17 17 -112 2 -112 2 -45 5 -45 4 -15 6 -15 5 -170 6 -170 7 -40 4 -40 5 -125
5 -125 5 -5 8 -5 7 -40 15 -40 15 -3 22 -3 22 9 0 10 0 30 -17 30 -17 43 19
44 19 11 13 11 13 21 0 20 0 6 15 5 15 19 0 20 0 12 15 12 15 18 0 18 0 12 15
12 15 17 0 16 1 19 14 20 15 17 0 17 0 12 15 12 15 39 0 38 0 6 9 5 9 30 7 30
7 46 24 45 24 18 0 17 0 20 15 19 14 18 1 17 0 57 30 56 30 36 0 37 0 20 15
21 14 69 3 69 3 0 35 0 35 -42 3 -42 3 -23 -15 -23 -14 -95 -7 -95 -7 -10 -8
-10 -7 -95 -7 -95 -7 -35 -11 -35 -10 -18 -10 -18 -9 -32 27 -31 26 -66 -6
-65 -7 -10 -10 -9 -9 -47 0 -46 0 -63 -20 -63 -20 -72 0 -73 0 -28 -15 -29
-15 -75 0 -75 -1 -19 -14 -20 -15 -61 0 -61 0 -9 -9 -10 -9 -94 -12 -94 -11
-18 -9 -18 -10 -28 0 -28 0 -40 -15 -40 -14 -46 -1 -47 0 -28 -15 -29 -15 -37
0 -37 0 -6 -9 -5 -10 -45 -7 -45 -6 0 -14 0 -14 54 0 54 0 17 -27 17 -26 -18
8 -19 7 -72 8 -73 7 -35 28 -36 27 -37 -5 -37 -6 -35 -7 -35 -7 18 21 18 20
-9 6 -10 6 -145 -1 -145 -1 -10 6 -11 6 -133 7 -133 7 -122 1 -121 0 -31 -23
-31 -22 -20 12 -21 13 -20 -27 -21 -28 -10 0 -9 0 6 23 7 22 -13 -12 -13 -13
-28 0 -28 0 -57 -20 -56 -19 -8 5 -9 5 -22 -15 -22 -16 -51 0 -50 -1 -19 -14
-20 -15 -21 0 -21 0 -10 -9 -9 -9 -74 -25 -75 -26 -16 -21 -15 -21 -12 12 -12
12 -17 -7 -17 -6 16 -18 17 -18 -16 -22 -15 -22 -20 0 -20 0 -15 -15 -15 -15
-20 0 -20 0 -15 -15 -15 -15 -23 0 -24 0 -12 -15 -12 -15 -24 0 -24 0 0 -14 0
-15 -16 -15 -15 -16 -33 0 -34 0 -12 15 -12 15 -24 0 -23 0 -6 -10 -7 -11 13
-16 14 -16 -33 7 -32 8 0 -20 0 -19 -50 -7 -51 -7 -6 -14 -5 -15 -19 0 -19 0
-17 -15 -18 -15 -35 -28 -35 -29 -17 -6 -17 -6 -3 -28 -3 -28 -25 0 -25 0 -3
49 -3 48 14 32 15 31 4 117 5 116 -19 6 -20 5 7 10 6 11 18 0 19 0 7 216 8
216 -12 40 -12 40 -6 71 -6 72 -13 8 -14 8 0 58 0 59 -15 12 -14 12 1 34 1 34
-17 19 -18 19 11 20 11 21 -6 14 -5 15 -20 5 -19 5 0 36 0 37 -17 18 -18 18
-20 7 -20 7 25 19 24 18 -24 21 -25 20 -17 1 -17 0 -6 11 -7 10 18 14 19 14
-15 5 -15 5 -35 3 -35 3 3 22 3 22 -20 20 -21 21 -19 0 -19 0 -12 15 -13 15
-14 -11 -14 -12 -11 11 -12 12 -12 0 -12 0 -30 30 -30 30 -31 0 -30 0 -5 9 -6
9 -54 6 -53 7 -10 22 -10 22 -7 -21z m-306 -129 l0 -15 -20 0 -20 0 0 8 0 9 7
6 6 7 14 0 13 0 0 -15z m236 6 l9 -9 25 -4 25 -3 0 -20 0 -20 -20 -3 -20 -4
-18 -16 -17 -15 -29 20 -28 21 -13 -8 -14 -9 -8 5 -8 5 0 20 0 19 25 0 26 0 5
15 6 15 22 0 22 0 10 -9z m314 -6 l0 -15 -20 0 -20 0 0 15 0 15 20 0 20 0 0
-15z m-146 -94 l-19 -40 -39 -3 -39 -3 -5 -12 -4 -13 31 0 30 0 6 -10 6 -9
-35 -23 -36 -23 0 -7 0 -8 19 0 20 0 6 10 6 10 20 0 19 0 0 -14 0 -15 -26 -20
-27 -21 -21 0 -21 -1 -19 -14 -20 -15 -23 0 -23 0 0 -25 0 -25 -20 0 -20 0 0
-9 0 -9 13 -4 12 -5 38 5 37 4 0 19 0 19 15 0 15 0 0 -19 0 -19 6 -17 6 -16
29 -15 29 -15 0 -43 0 -44 -15 -12 -14 -12 -7 -21 -6 -20 -9 -11 -8 -11 -28
-33 -28 -33 -40 -10 -40 -11 -15 0 -15 0 -40 8 -40 7 -23 15 -23 15 7 26 7 26
1 28 1 27 10 0 10 0 0 -28 0 -29 25 -26 25 -27 38 0 39 0 35 16 34 17 25 36
24 36 0 47 0 48 -15 0 -15 0 0 -15 0 -15 -14 0 -14 0 -5 13 -4 12 15 18 15 17
-47 0 -46 0 -20 -12 -19 -12 -8 7 -7 8 12 19 12 20 -9 0 -9 0 -4 -8 -3 -9 -27
-7 -28 -6 0 13 0 13 49 52 49 52 21 0 21 0 0 14 0 14 15 6 15 5 14 -5 14 -5 6
9 6 10 -15 12 -15 12 0 8 0 8 31 6 30 6 -3 22 -3 23 -20 1 -20 2 -17 1 -18 1
0 15 0 15 11 0 11 0 73 35 73 35 6 17 7 16 11 -11 10 -10 -18 -41z m-364 32
l0 -18 -27 -12 -27 -13 -13 0 -13 0 0 15 0 15 14 0 14 0 6 15 5 15 21 0 20 0
0 -17z m498 -5 l-3 -23 -10 0 -10 0 -3 23 -3 22 16 0 16 0 -3 -22z m-735 -44
l6 -6 -16 -24 -15 -24 -17 0 -18 0 -6 6 -6 7 22 23 22 24 11 0 11 0 6 -6z
m330 -1 l7 -6 -16 -18 -17 -19 -8 6 -9 5 0 20 0 19 18 0 19 0 6 -7z m467 -7
l0 -14 -17 -4 -18 -5 -12 4 -13 5 0 14 0 14 30 0 30 0 0 -14z m-766 -55 l-18
-21 -13 0 -13 0 0 15 0 15 14 0 14 0 6 17 7 16 10 -10 11 -11 -18 -21z m196
20 l0 -9 37 -13 37 -12 4 12 4 11 24 0 24 0 0 -20 0 -19 -42 -41 -42 -40 -17
0 -18 0 -6 -11 -7 -10 16 -12 16 -12 -35 -37 -34 -38 -16 0 -16 0 -44 -45 -45
-44 0 -11 0 -10 12 0 11 0 19 16 18 17 6 -18 7 -17 -16 -10 -17 -9 0 -43 0
-44 15 -12 15 -12 0 -12 0 -12 29 -32 30 -32 15 0 16 0 0 -13 0 -13 -12 -12
-12 -12 12 -12 12 -12 0 -8 0 -8 -15 0 -15 0 0 -9 0 -10 10 -6 10 -6 6 15 6
16 14 0 15 0 -3 -27 -3 -27 30 -6 30 -5 3 -20 4 -20 19 -18 20 -18 -6 -32 -6
-32 31 -14 31 -13 19 5 19 5 -2 -22 -2 -21 28 -3 27 -3 0 -15 0 -14 -10 0 -10
0 0 -14 0 -14 16 -6 15 -6 -6 -20 -6 -20 15 0 16 0 0 -30 0 -29 20 -11 20 -11
0 -15 0 -14 28 -11 27 -10 32 -31 31 -30 11 6 11 7 0 20 0 20 15 5 15 6 0 8 0
8 -23 6 -23 5 -38 35 -39 34 6 15 5 14 69 -1 68 -1 0 -20 0 -20 -22 2 -23 3 0
-11 0 -10 25 -26 24 -27 -9 -11 -9 -11 17 -37 17 -36 13 -1 12 0 0 -43 0 -43
-12 -12 -12 -12 -18 17 -19 17 -19 -12 -20 -12 -10 0 -10 0 -25 22 -25 22 5
17 6 17 -9 6 -9 5 -19 -14 -19 -14 -61 -1 -62 0 -6 15 -5 15 -49 0 -50 0 -12
14 -12 15 -36 3 -37 3 0 25 0 25 23 3 24 4 12 -18 13 -17 12 7 12 8 -25 23
-26 24 -37 3 -38 3 2 23 3 23 -18 6 -17 7 -7 10 -7 11 -21 -12 -20 -13 -27 0
-26 0 -19 -17 -18 -17 -10 10 -10 10 32 24 32 23 28 0 28 0 0 14 0 13 -16 0
-16 0 -11 29 -11 30 -20 5 -21 6 -27 -20 -27 -20 -26 0 -25 0 0 16 0 16 -25
-6 -25 -6 -7 16 -6 17 16 12 16 11 -10 15 -9 14 0 18 0 17 23 -12 22 -13 8
-12 8 -13 9 0 10 0 0 15 0 15 -7 0 -8 0 -20 30 -20 30 -12 0 -12 0 -6 9 -5 10
17 35 18 36 13 0 12 0 0 15 0 15 -15 0 -15 0 0 15 0 15 15 0 15 0 0 15 0 15
-15 0 -15 0 0 -15 0 -15 -15 0 -15 0 0 -15 0 -15 15 0 15 0 0 -15 0 -15 -12 0
-11 0 -19 17 -18 16 0 14 0 13 10 0 10 0 0 15 0 15 -10 0 -10 0 0 24 0 25 21
6 20 7 -7 16 -7 17 1 17 1 18 25 33 26 34 -7 6 -6 7 -19 0 -18 0 0 10 0 9 92
91 91 90 -7 7 -7 7 -29 -32 -29 -32 -10 0 -11 0 0 -10 0 -10 -17 0 -18 0 -17
-28 -17 -27 -13 -20 -13 -20 -14 -9 -14 -9 18 -13 19 -14 -11 -11 -11 -11 -18
4 -19 3 -3 27 -3 27 18 28 18 28 18 17 17 18 13 0 14 0 5 6 6 5 -11 34 -10 34
41 40 42 39 0 11 0 11 -10 0 -10 0 0 15 0 15 15 0 15 0 0 -10 0 -10 10 0 10 0
20 17 20 17 0 17 0 17 14 5 14 5 13 -11 13 -12 -13 17 -13 17 8 12 7 12 13
-18 14 -18 26 26 27 27 13 0 14 0 0 -9z m537 -101 l6 -30 13 0 13 0 25 10 25
9 6 -20 7 -20 26 -10 27 -11 -28 -24 -28 -24 -10 0 -9 0 0 25 0 25 -25 0 -25
0 -20 -12 -20 -13 -12 17 -13 16 -20 4 -20 4 4 15 4 14 0 22 -1 22 27 4 26 4
8 2 8 1 6 -30z m-1075 -61 l-8 -20 -9 -2 -10 -2 -3 23 -3 22 20 0 20 0 -7 -21z
m116 -70 l-3 -24 -10 2 -10 2 -3 16 -4 16 6 16 7 16 10 -10 11 -11 -4 -23z
m1133 -4 l0 -10 -26 -3 -25 -3 0 16 0 16 25 -3 26 -3 0 -10z m-191 -25 l0 -11
-15 -5 -15 -6 0 -14 0 -14 40 6 40 7 0 -26 0 -25 -15 -6 -15 -5 0 -19 0 -19
-7 -6 -6 -7 -24 26 -23 25 0 20 0 19 -13 0 -13 0 -11 -11 -11 -11 -6 11 -7 11
-30 0 -30 0 -6 16 -6 16 14 9 14 8 49 -2 49 -2 4 13 5 12 19 0 19 0 0 -10z
m123 -17 l-6 -18 -9 -12 -9 -12 -15 6 -14 5 0 13 0 13 28 10 27 10 2 1 2 1 -6
-17z m-583 -38 l13 -16 -23 -24 -23 -25 -9 0 -9 0 -5 14 -6 14 17 26 17 26 8
0 8 0 12 -15z m780 -11 l0 -14 -15 0 -15 0 0 13 0 14 6 6 7 6 8 -5 9 -5 0 -15z
m-175 -30 l0 -19 -18 -3 -17 -3 -6 16 -7 17 14 9 14 9 10 -3 10 -4 0 -19z
m-482 -25 l6 -21 -6 -14 -5 -14 -24 -6 -23 -6 -10 7 -11 6 0 19 0 19 16 15 15
16 19 0 18 0 5 -21z m537 -13 l0 -25 -20 -6 -20 -6 -10 6 -10 6 0 9 0 9 16 15
15 16 15 0 14 0 0 -24z m-1322 -11 l-3 -26 -10 0 -10 0 -3 26 -3 25 16 0 16 0
-3 -25z m1532 -9 l0 -15 -9 -5 -9 -6 -16 6 -16 6 0 14 0 14 25 0 25 0 0 -14z
m-383 -22 l6 -16 -13 -8 -12 -8 -19 5 -19 5 0 12 0 13 7 6 6 7 19 0 19 0 6
-16z m-1027 -17 l0 -24 -23 -21 -23 -22 -6 6 -6 5 17 40 16 39 13 0 12 0 0
-23z m1056 -39 l6 -9 -12 -14 -12 -15 -24 0 -24 0 0 -10 0 -11 15 -5 15 -6 0
-18 0 -19 20 -6 20 -6 0 -12 0 -13 -21 -18 -21 -18 -34 -5 -34 -6 0 -17 0 -17
-51 -27 -51 -26 -28 0 -29 0 -6 -10 -6 -10 -15 0 -15 0 3 28 3 27 40 9 40 9
25 10 25 10 18 23 18 24 -21 0 -21 0 -6 16 -6 16 18 10 17 10 -27 24 -28 24
-3 0 -3 0 -43 -22 -43 -22 -5 -7 -5 -6 -20 -6 -20 -7 -15 10 -14 9 26 24 26
24 26 7 26 6 0 9 0 9 33 7 32 7 10 8 10 8 20 4 20 4 73 1 73 0 5 -9z m94 -32
l0 -25 -20 -6 -20 -6 0 -10 0 -9 -15 0 -15 0 0 26 0 27 18 13 17 13 18 1 17 0
0 -24z m110 -30 l0 -54 16 -6 15 -6 -7 -11 -7 -12 -12 16 -12 17 -12 0 -11 0
0 55 0 55 15 0 15 0 0 -54z m180 -41 l0 -15 -14 0 -15 0 -5 9 -5 8 6 7 6 6 14
0 13 0 0 -15z m-235 -45 l7 -11 -12 -14 -12 -15 -24 0 -23 0 -6 10 -7 11 12
14 12 15 24 0 23 0 6 -10z m-92 -42 l6 -43 -10 -10 -9 -9 -14 14 -13 15 4 38
5 37 13 0 12 0 6 -42z m-53 -67 l32 -29 -7 -21 -7 -22 -26 3 -27 3 -3 23 -3
22 -30 0 -29 0 6 -24 6 -24 -12 -7 -11 -7 12 -14 11 -14 -12 -15 -13 -16 -22
21 -21 20 -17 0 -17 0 0 15 0 15 9 0 10 0 6 21 7 20 24 11 24 11 5 19 6 18 34
0 34 0 31 -29z m-1035 -57 l1 -69 13 -23 12 -23 -10 -31 -11 -31 0 -24 0 -24
-15 -5 -15 -6 0 -44 0 -43 21 -11 21 -12 6 7 6 6 -12 19 -12 20 0 14 0 15 23
35 22 35 15 1 15 0 38 -35 37 -34 0 -10 0 -11 -15 0 -15 0 0 -11 0 -10 -25
-33 -25 -33 -1 -19 0 -19 -30 -23 -29 -24 0 11 0 10 -24 25 -23 26 -13 0 -12
0 7 -27 7 -28 10 -12 10 -13 15 0 14 0 -3 -27 -3 -28 -21 -3 -21 -3 -77 -74
-78 -75 -62 -41 -61 -41 -10 -12 -10 -12 -44 -22 -43 -23 -7 6 -6 7 18 12 17
13 0 17 0 16 -15 0 -14 0 -26 -25 -25 -26 0 -9 0 -9 22 -7 21 -6 -24 -19 -24
-19 -15 0 -15 0 -34 -35 -34 -35 -26 0 -27 0 -11 -11 -10 -10 -32 -4 -31 -4
-22 -16 -22 -15 -28 0 -27 0 -6 -10 -6 -10 -23 0 -24 0 -13 -16 -13 -15 -25 6
-26 7 -7 11 -8 12 0 31 0 30 -12 12 -12 12 -33 0 -33 0 0 13 0 12 32 40 32 40
60 55 60 55 50 48 50 47 15 0 14 0 44 45 43 45 11 0 11 0 46 41 47 41 23 11
22 10 0 9 0 9 25 25 25 25 36 67 36 67 36 60 37 60 6 5 6 5 18 35 18 35 20 38
19 37 9 0 9 0 0 -45 0 -45 15 0 16 0 27 17 27 18 8 12 8 13 24 0 25 0 0 12 0
11 17 19 17 18 10 -3 11 -4 0 -69z m1295 40 l0 -24 -15 0 -15 0 0 23 0 24 6 6
7 6 8 -5 9 -5 0 -25z m4420 13 l28 -24 -10 -16 -9 -17 -15 0 -15 0 6 21 7 22
-26 -5 -25 -5 3 6 3 6 6 18 6 17 7 0 6 0 28 -23z m-94 -19 l7 -11 -17 -13 -17
-12 31 -7 31 -7 -4 -11 -4 -12 -17 -3 -18 -4 -23 22 -23 22 -21 -7 -21 -6 0
-14 0 -14 -20 -11 -20 -10 -20 12 -20 12 -11 -11 -12 -12 -18 12 -18 11 -8 -7
-7 -8 11 -19 12 -18 -17 -7 -16 -6 -12 15 -11 16 -56 0 -55 0 -11 -30 -10 -30
-19 0 -20 0 -6 16 -6 15 -22 -3 -22 -3 -6 -25 -6 -25 -64 -5 -65 -6 -7 11 -7
10 -21 -13 -21 -13 -43 6 -43 7 -6 -16 -6 -16 -35 0 -35 0 -5 9 -6 8 20 18 19
17 30 -7 31 -7 0 9 0 8 40 18 40 17 37 0 36 0 18 16 18 16 70 2 70 2 13 11 13
10 52 13 52 12 17 -10 18 -10 23 15 23 15 55 2 55 2 12 12 12 12 32 0 32 0 12
15 12 15 9 0 8 0 7 -12z m-5528 -36 l4 -12 -16 0 -16 0 0 16 0 16 12 -4 12 -4
4 -12z m-3 -72 l-7 -12 -10 10 -10 10 7 12 7 12 10 -10 10 -10 -7 -12z m970
10 l6 -10 20 11 20 10 6 -19 5 -20 21 -6 21 -5 17 15 17 16 12 -22 12 -22 -11
-11 -11 -11 -20 -1 -20 0 1 -10 0 -10 18 3 18 3 13 -16 14 -17 -15 -9 -14 -9
-17 0 -17 0 -6 -10 -6 -10 -15 0 -14 0 0 38 0 37 -6 23 -6 22 -19 0 -18 0 -6
-10 -6 -10 -13 0 -14 0 -22 18 -22 18 17 17 16 17 19 0 19 0 6 -10z m-211 -31
l-5 -9 -14 0 -14 0 -7 11 -7 11 14 9 13 8 13 -11 13 -10 -6 -9z m-66 4 l-3
-16 -10 -4 -10 -3 -14 9 -14 9 7 11 7 11 20 0 20 0 -3 -17z m542 -43 l0 -30
-15 0 -15 0 0 30 0 30 15 0 15 0 0 -30z m4145 21 l5 -10 -10 -6 -11 -7 -15 6
-15 6 6 10 6 10 14 0 14 0 6 -9z m-4200 -22 l7 -21 -13 -9 -14 -8 -13 13 -13
12 7 17 6 17 13 0 14 0 6 -21z m-422 -14 l2 -10 -17 -3 -18 -3 0 16 0 16 16
-3 15 -3 2 -10z m4558 0 l0 -10 -21 -3 -20 -3 0 9 0 9 7 7 7 7 14 -3 13 -3 0
-10z m-686 -25 l6 -10 -15 -6 -16 -6 -16 6 -15 6 6 10 6 10 19 0 19 0 6 -10z
m-1605 -40 l0 -10 -20 0 -20 0 0 10 0 10 20 0 20 0 0 -10z m944 -30 l50 -17 4
-12 4 -12 -89 5 -88 4 -28 11 -28 11 -65 0 -64 0 0 14 0 15 18 4 17 4 110 -5
110 -5 49 -17z m463 5 l35 -15 60 0 60 0 51 -15 52 -15 155 -3 155 -4 27 19
28 19 11 -6 11 -7 -11 -11 -11 -11 0 -42 0 -42 13 -5 12 -4 -9 -9 -9 -9 -4 13
-5 12 -28 0 -28 0 -13 16 -14 17 -135 -7 -135 -8 -65 -3 -65 -3 -95 -7 -95 -7
-22 -14 -22 -14 -38 0 -38 -1 -25 -14 -25 -14 -45 -1 -45 0 -29 -15 -28 -15
-77 0 -76 0 -29 -15 -28 -15 -23 0 -24 0 -28 -12 -28 -12 -55 -13 -55 -14 -31
-5 -30 -6 -12 26 -12 26 3 1 2 0 65 6 65 5 34 14 33 14 27 0 26 0 39 21 38 20
16 -6 15 -5 21 13 21 14 72 6 72 6 20 10 20 11 40 0 41 0 0 16 0 16 -117 -2
-118 -2 -32 1 -33 0 0 10 0 10 12 7 13 8 245 1 245 0 5 10 5 10 -42 3 -41 3
-12 15 -12 14 -34 0 -33 0 -5 9 -5 8 6 7 6 6 59 0 59 0 36 -15z m883 0 l0 -15
-15 0 -15 0 0 15 0 15 15 0 15 0 0 -15z m-4300 -20 l25 -14 22 -1 22 0 6 -10
7 -11 -12 -14 -12 -15 -24 0 -23 0 -6 20 -6 20 -14 0 -14 0 -15 -15 -15 -15
-10 0 -11 0 0 28 0 29 7 6 6 7 21 0 21 -1 25 -14z m1986 3 l7 -11 -19 -13 -19
-13 -13 -11 -12 -11 -33 3 -32 3 0 10 0 10 33 3 32 3 0 14 0 14 18 4 17 5 7 1
7 1 7 -12z m-1768 -60 l-3 -33 -28 -3 -27 -3 -7 17 -6 17 24 18 24 19 13 0 13
0 -3 -32z m90 10 l-3 -23 -10 0 -10 0 -3 23 -3 22 16 0 16 0 -3 -22z m1352 7
l0 -15 -30 0 -30 0 0 15 0 15 30 0 30 0 0 -15z m-2579 -17 l1 -13 -2 -30 -1
-30 -13 -10 -12 -10 -7 -19 -8 -19 -12 12 -12 12 20 15 20 15 -11 16 -11 17
14 28 14 28 10 0 9 0 1 -12z m2945 -10 l8 -12 -12 -4 -12 -4 -16 -15 -16 -16
-47 -1 -47 -1 -29 -28 -30 -27 -27 0 -27 0 -15 -15 -15 -15 -18 0 -19 0 -20
-14 -20 -14 -47 -7 -47 -7 0 18 0 19 99 48 99 47 30 0 30 0 12 15 12 15 40 0
39 0 5 15 6 15 38 0 39 0 7 -12z m2098 3 l6 -9 -13 -11 -14 -11 -24 -2 -24 -3
-3 23 -3 22 35 0 35 0 5 -9z m-4016 -39 l3 -22 -19 0 -19 0 3 -52 3 -53 -5
-17 -5 -18 -21 0 -21 0 6 40 5 40 -8 5 -9 6 -11 -22 -12 -21 -15 15 -15 15 7
21 6 21 24 0 24 0 27 35 27 36 11 -4 11 -4 3 -21z m-780 -6 l22 -24 0 -15 0
-15 -37 -4 -38 -5 -12 5 -13 4 0 17 0 17 -11 11 -11 11 6 11 7 11 32 0 32 0
23 -24z m2053 1 l-11 -11 -6 7 -6 6 7 10 6 11 11 -6 10 -6 -11 -11z m-71 -46
l-11 -21 -30 0 -31 0 4 13 5 12 24 3 24 4 9 9 10 9 4 -4 4 -4 -12 -21z m171
-6 l0 -10 -16 -3 -16 -4 -15 6 -15 6 6 11 7 10 24 -3 25 -3 0 -10z m1979 0 l0
-15 -39 0 -39 0 -12 -15 -12 -15 -24 0 -24 0 0 15 0 15 33 14 32 14 43 1 42 1
0 -15z m1140 -61 l0 -14 -15 0 -15 0 0 13 0 14 6 6 7 6 8 -5 9 -5 0 -15z
m-3273 -23 l5 -20 14 -5 15 -6 -17 -25 -16 -25 -11 0 -10 0 -11 14 -11 15 -26
-6 -27 -5 6 -21 5 -22 8 -11 8 -10 -56 -37 -56 -37 -23 0 -24 0 0 10 0 10 25
10 25 10 0 19 0 20 -32 3 -31 3 -4 11 -4 11 39 27 38 26 33 -6 33 -7 27 30 27
30 15 6 14 5 8 1 9 1 5 -19z m1940 -6 l3 -11 -13 -18 -14 -19 -44 1 -44 0 -22
-14 -22 -14 -36 0 -35 0 0 14 0 14 40 16 40 16 28 0 27 0 25 14 25 14 19 -1
19 -2 4 -10z m-3073 -62 l-6 -58 -5 -7 -4 -8 -8 0 -8 0 -6 52 -6 52 10 13 11
13 15 0 14 0 -7 -57z m900 39 l5 -9 -29 -21 -29 -22 -14 0 -15 0 -12 -15 -12
-15 -23 0 -23 0 -6 -15 -5 -15 -20 0 -20 0 -6 10 -6 10 23 10 23 10 20 12 20
13 5 6 5 6 40 21 40 21 17 1 17 0 5 -8z m2614 -8 l32 -15 0 -14 0 -13 -13 -5
-13 -5 -27 5 -26 5 -12 14 -11 14 6 15 5 15 14 0 14 0 31 -16z m-4089 -40
l-10 -13 -15 6 -14 5 0 13 0 13 13 5 12 4 13 -10 12 -10 -11 -13z m101 14 l0
-23 -6 -22 -6 -23 -12 0 -12 0 -18 13 -17 13 18 32 18 32 18 0 17 0 0 -22z
m3897 -7 l12 -16 1 -12 0 -13 -24 0 -24 0 -36 15 -36 15 0 14 0 14 13 5 12 4
35 -5 35 -5 12 -16z m-623 10 l6 -9 -15 -12 -15 -12 6 -9 5 -9 22 0 22 0 24
-19 24 -18 -6 -17 -7 -17 -37 7 -38 7 -20 13 -19 14 -17 0 -17 0 -31 18 -31
17 0 13 0 12 28 0 28 0 20 15 19 14 22 1 22 0 5 -9z m380 -6 l6 -16 33 6 33 7
12 -15 12 -14 -14 -13 -15 -12 -31 7 -30 7 0 14 0 15 -9 -5 -9 -6 -27 10 -26
10 6 10 6 10 24 0 23 0 6 -15z m-3336 -17 l12 -12 0 -32 0 -32 -13 -11 -13
-11 -12 12 -12 12 0 36 0 37 7 6 6 7 7 0 6 0 12 -12z m-478 -13 l0 -15 -15 0
-15 0 0 15 0 15 15 0 15 0 0 -15z m4640 0 l25 -14 22 -1 22 0 6 -10 7 -11 -12
-13 -11 -14 -27 8 -27 9 -40 8 -40 8 -3 23 -3 22 28 0 28 -1 25 -14z m-4730
-28 l0 -14 -7 -6 -6 -7 -13 11 -14 11 6 9 5 9 15 0 14 0 0 -13z m843 -24 l4
-38 -10 -13 -10 -13 -13 13 -14 13 7 38 6 37 12 0 13 0 5 -37z m3507 22 l0
-15 -14 0 -15 0 -5 9 -5 8 6 7 6 6 14 0 13 0 0 -15z m2400 6 l0 -8 -56 -37
-56 -36 -15 0 -14 0 -19 -10 -18 -10 -10 -28 -10 -29 -41 -21 -42 -22 -8 0 -9
0 -6 25 -6 25 -24 6 -24 6 -28 -4 -29 -3 2 -10 3 -10 38 -3 38 -3 13 -21 13
-20 -10 -10 -10 -10 -52 0 -52 1 -40 -30 -41 -29 -89 0 -88 0 0 -10 0 -11 15
-5 15 -6 0 -14 0 -14 -25 -6 -26 -6 -27 -3 -27 -2 -18 -8 -18 -8 -12 16 -12
15 -32 4 -31 4 10 -25 9 -25 10 -13 11 -12 -7 -11 -6 -10 -20 0 -19 0 0 29 0
29 -37 17 -36 18 -12 -17 -12 -16 -12 0 -11 0 0 24 0 25 10 6 10 6 0 9 0 8
-25 6 -25 6 0 25 0 24 -9 5 -9 6 -12 -15 -12 -15 -15 0 -14 0 -37 -19 -37 -19
-52 -26 -53 -26 -19 0 -19 0 -12 -15 -12 -15 -62 0 -61 0 -15 -10 -15 -9 20
-15 20 -15 -19 -7 -19 -7 -12 16 -12 17 -24 -1 -24 0 -18 -8 -18 -7 18 -16 18
-17 55 -4 55 -4 32 -16 32 -17 45 0 45 0 15 15 15 15 16 0 17 0 -4 -25 -5 -24
11 -4 11 -4 18 9 18 9 56 -32 56 -32 -22 -17 -22 -16 0 -125 0 -124 -11 -50
-10 -50 -12 -34 -11 -35 -30 -17 -30 -18 -31 0 -32 -1 -6 16 -6 16 0 30 0 31
-32 -8 -33 -8 -50 2 -50 1 -27 11 -26 11 -26 -17 -26 -17 0 -8 0 -8 19 -5 20
-5 32 7 31 6 39 -3 39 -4 0 -20 0 -20 -22 -24 -23 -24 -32 0 -32 0 -9 16 -9
16 -23 -4 -24 -3 -6 -24 -5 -24 -20 -7 -20 -7 -7 4 -8 4 0 39 0 39 20 11 20
11 0 8 0 9 -21 5 -21 6 4 23 3 23 43 3 43 3 -4 12 -4 12 -39 5 -39 5 -7 50 -8
50 20 16 20 17 -16 6 -16 6 -23 0 -23 0 -12 -15 -12 -15 -24 0 -24 0 0 15 0
15 20 0 19 0 11 19 10 20 0 15 0 16 -30 -6 -30 -6 0 35 0 36 33 4 32 4 -46 1
-47 2 -16 25 -16 25 -45 -7 -45 -6 0 11 0 11 23 24 22 25 20 5 20 5 -27 1 -26
1 -16 6 -16 6 0 13 0 13 -27 8 -28 8 -30 0 -30 1 -3 23 -3 22 39 0 40 0 12 15
12 15 18 0 17 0 29 -30 29 -29 27 -1 27 0 6 -9 5 -10 -22 -15 -21 -15 14 -5
14 -5 20 -3 20 -3 13 -28 13 -27 25 0 24 0 0 -15 0 -16 39 -37 38 -37 36 -25
36 -25 1 -12 0 -13 -19 0 -20 0 -6 -9 -5 -10 10 -6 11 -7 -2 -44 -3 -43 19
-21 18 -20 14 0 13 0 0 20 0 21 22 29 22 30 31 0 31 0 20 15 19 14 46 1 47 0
12 15 12 15 34 0 34 0 0 15 0 15 -30 0 -31 0 -5 -15 -6 -15 -58 0 -59 0 -15
-16 -16 -15 -37 3 -38 3 -3 41 -3 41 -35 28 -34 27 0 20 0 19 -39 37 -39 37
-3 20 -4 20 -21 3 -22 3 -22 24 -23 24 19 6 19 6 42 22 43 22 -6 17 -5 18 16
6 16 7 12 -16 12 -15 50 8 50 9 51 13 52 13 18 16 19 16 31 12 31 12 25 -6 26
-7 35 31 35 31 18 0 19 0 13 9 14 8 -3 14 -3 14 7 22 8 21 24 6 25 6 0 10 0
10 21 0 21 0 -5 13 -4 12 -24 1 -24 1 -33 2 -33 1 3 23 3 22 20 -3 20 -4 50
-6 50 -7 3 -24 4 -24 -16 -9 -16 -9 0 -18 0 -18 -30 -29 -29 -29 -1 -18 0 -18
15 -5 14 -6 6 -19 6 -19 20 -10 19 -11 10 6 10 6 -22 30 -22 29 10 9 9 9 45 5
45 6 60 13 60 13 22 13 22 12 36 0 36 0 33 14 33 14 17 -10 18 -10 27 20 26
19 22 7 22 7 70 1 71 0 11 14 11 14 32 0 32 0 12 12 12 12 20 -12 20 -12 20 0
20 0 0 10 0 10 20 20 20 20 25 0 25 0 0 -9z m-6381 -46 l3 -19 -23 -43 -24
-43 -11 0 -12 0 -7 31 -7 30 24 35 23 34 15 -2 15 -3 4 -20z m120 4 l-13 -8
-8 5 -8 5 5 9 6 9 15 -6 16 -6 -13 -8z m826 6 l0 -10 -23 -3 -23 -4 -6 -14 -5
-14 -13 0 -13 0 -6 -15 -5 -15 -26 0 -25 0 0 -15 0 -15 -15 0 -15 0 0 10 0 10
20 20 20 20 20 0 21 0 5 15 6 15 13 0 13 0 6 16 6 15 22 -3 23 -3 0 -10z m250
-5 l0 -15 -24 3 -25 2 -4 5 -4 4 7 11 7 11 21 -3 22 -3 0 -15z m2679 11 l6 -9
-10 -26 -10 -26 -13 0 -14 0 -11 25 -12 26 0 9 0 10 29 0 30 0 5 -9z m173 -2
l11 -11 20 11 21 11 15 0 16 0 0 -13 0 -14 -23 -21 -23 -22 -36 10 -36 10 -6
16 -6 16 6 9 5 9 13 0 12 0 11 -11z m316 -26 l7 -4 0 -19 0 -18 15 -6 15 -5 0
-15 0 -14 -36 -7 -36 -6 5 -6 5 -5 73 -4 73 -5 18 -16 18 -16 0 -13 0 -13 -16
-9 -16 -9 20 -6 21 -5 12 14 11 14 19 0 19 0 0 -19 0 -20 -17 -16 -16 -17 -24
5 -23 4 -11 -13 -11 -14 -13 0 -12 0 -11 25 -12 26 12 19 12 20 -11 11 -12 12
-73 5 -73 5 -10 7 -10 8 -57 6 -58 7 -6 10 -6 10 10 12 10 12 39 -3 38 -2 33
-6 32 -6 0 20 0 20 -45 11 -45 11 0 13 0 14 7 7 7 7 60 -7 61 -7 8 -4z m-3252
-3 l19 -11 0 -19 0 -20 -11 0 -11 0 -18 22 -18 23 5 7 4 8 5 0 5 0 20 -10z
m4503 -9 l6 -9 -14 -11 -14 -12 -7 11 -6 10 6 10 6 10 9 0 9 0 5 -9z m-4386
-7 l22 -6 0 -13 0 -13 -40 -4 -40 -4 0 17 0 16 7 6 6 7 11 0 11 0 23 -6z
m-1328 -39 l0 -24 -11 -7 -11 -6 -11 11 -10 10 11 26 12 26 10 -6 10 -6 0 -24z
m485 16 l6 -18 -10 -24 -9 -24 -21 -22 -22 -23 -19 0 -20 0 0 20 0 20 9 0 10
0 7 23 7 22 16 22 16 22 12 1 12 0 6 -19z m565 3 l0 -15 -22 3 -21 3 -5 13 -4
12 26 0 26 0 0 -16z m84 5 l25 -12 5 -13 5 -14 -14 0 -15 0 0 10 0 10 -30 0
-30 0 0 8 0 9 7 6 6 7 8 0 8 0 25 -11z m474 -8 l22 -19 0 -10 0 -11 -20 -6
-20 -6 0 -25 0 -24 -14 0 -14 0 -6 15 -5 15 -17 0 -17 0 -19 17 -18 16 0 9 0
10 23 19 22 18 30 0 30 0 23 -18z m2292 -6 l0 -25 -15 0 -15 0 0 25 0 25 15 0
15 0 0 -25z m738 8 l4 -13 -31 0 -31 0 0 8 0 9 7 7 7 7 20 -3 19 -3 5 -12z
m-2907 -9 l18 -17 -10 -18 -9 -18 -25 11 -25 11 0 24 0 23 17 0 16 0 18 -16z
m-1881 -8 l0 -14 20 -5 20 -5 0 -16 0 -17 -17 -6 -17 -7 -3 10 -3 9 -9 13 -8
14 -21 -13 -21 -13 -5 5 -5 5 5 21 6 22 17 4 16 5 13 1 12 1 0 -14z m3554 8
l16 -6 0 -13 0 -13 -15 -6 -15 -5 -15 5 -15 6 0 13 0 13 13 5 12 5 2 1 1 1 16
-6z m168 -31 l-3 -21 11 -7 11 -7 24 16 24 16 48 0 47 0 34 -37 33 -37 6 -24
6 -23 -11 -24 -11 -23 6 -6 6 -6 16 0 16 -1 23 -35 22 -35 0 -10 0 -9 -49 0
-50 0 -7 -12 -7 -11 -13 17 -12 18 5 33 5 34 -26 7 -26 6 0 22 0 21 -20 13
-20 12 0 20 0 20 -9 0 -10 0 -6 -10 -6 -10 -39 0 -38 0 -6 -15 -5 -15 -31 0
-30 0 0 15 0 15 30 0 30 0 0 15 0 15 -39 0 -39 0 -16 25 -17 25 16 6 16 6 35
-5 36 -6 5 20 6 20 16 -3 16 -3 -3 -22z m568 12 l0 -15 -19 0 -20 0 -5 9 -5 8
6 7 6 6 19 0 18 0 0 -15z m915 -5 l0 -15 -35 0 -35 0 -3 18 -4 18 39 -3 38 -3
0 -15z m702 -6 l-6 -6 -10 7 -11 6 6 11 6 10 11 -11 11 -11 -7 -6z m-4767 -13
l0 -19 -21 -5 -21 -6 -14 6 -14 5 0 9 0 10 23 9 22 9 13 0 12 1 0 -19z m149 2
l5 -3 -10 -9 -9 -9 -35 -6 -36 -6 -19 14 -20 15 25 9 25 10 35 -6 35 -5 4 -4z
m3579 11 l22 -6 0 -13 0 -14 -21 -6 -21 -7 -34 6 -33 7 -6 9 -6 10 6 10 6 10
32 0 32 0 23 -6z m97 -15 l7 -10 -5 -6 -5 -5 -21 7 -21 6 5 10 6 9 14 0 14 0
6 -11z m-4249 -14 l6 -15 -6 -17 -7 -17 -15 15 -15 15 7 17 6 17 9 0 10 0 5
-15z m844 -15 l0 -10 -15 0 -15 0 0 10 0 10 15 0 15 0 0 -10z m2770 -10 l11
-20 -17 -25 -16 -25 -33 0 -33 0 -13 16 -13 15 -24 -6 -25 -6 -28 6 -29 7 0
19 0 20 42 -3 42 -2 4 12 4 12 58 0 59 0 11 -20z m-4232 -23 l3 -17 -16 -6
-16 -7 -11 11 -11 11 7 16 6 16 17 -3 18 -3 3 -18z m982 -2 l0 -15 -15 0 -15
0 0 15 0 15 15 0 15 0 0 -15z m4308 -2 l4 -13 -26 0 -26 0 0 16 0 15 22 -3 21
-3 5 -12z m-5120 -20 l3 -23 -10 0 -11 0 0 -43 0 -43 -13 -19 -14 -18 -11 7
-12 7 0 24 0 23 -12 5 -13 4 13 22 12 21 0 18 0 18 12 12 13 13 20 -3 20 -3 3
-22z m4199 12 l36 -15 -16 -18 -15 -17 -4 -20 -3 -20 48 -2 49 -2 5 -5 5 -5
-5 -16 -6 -15 -56 6 -55 7 -6 -17 -6 -16 -14 0 -14 0 0 15 0 16 16 6 16 6 -14
8 -13 9 -28 0 -29 0 4 13 5 12 34 5 34 5 -1 15 -1 15 -7 23 -7 22 6 0 6 0 36
-15z m691 -12 l3 -23 -30 0 -31 0 0 18 0 19 7 7 7 7 21 -3 20 -3 3 -22z
m-5149 3 l12 -15 -20 -10 -20 -11 -5 0 -6 0 0 18 0 19 7 6 6 7 7 0 8 0 11 -14z
m4647 -22 l7 -26 -14 -8 -13 -9 -23 25 -23 25 0 10 0 9 30 0 30 0 6 -26z m352
4 l-3 -23 -15 0 -15 0 -3 23 -3 22 21 0 21 0 -3 -22z m-2987 -10 l18 -23 1
-17 0 -18 -11 0 -11 0 -19 23 -18 22 -1 18 0 17 11 0 11 0 19 -22z m-1867 -34
l6 -16 0 -15 0 -16 17 -12 16 -12 -7 -11 -7 -12 -15 0 -14 0 0 14 0 15 -20 6
-20 6 0 35 0 34 19 0 19 0 6 -16z m332 -32 l-7 -21 -22 -7 -21 -7 -13 -13 -14
-13 -14 5 -15 6 0 13 0 13 6 16 6 16 13 0 13 0 23 19 24 20 14 -14 13 -13 -6
-20z m87 12 l-5 -14 -13 0 -13 0 -5 14 -5 14 11 11 11 11 12 -11 13 -10 -6
-15z m95 13 l3 -17 -20 0 -20 0 -6 10 -6 10 6 11 7 10 16 -3 17 -3 3 -18z
m217 -38 l-6 -9 -20 0 -19 0 0 13 0 14 6 6 7 6 19 -10 19 -10 -6 -10z m2834 9
l8 -21 49 -1 49 -1 3 -17 3 -18 -41 0 -41 0 7 -11 7 -11 33 5 33 6 11 -13 10
-13 -15 -13 -16 -13 16 -17 16 -18 -13 -9 -13 -8 -35 0 -35 0 0 -10 0 -10 30
-1 30 -1 28 -2 27 -1 0 -10 0 -10 -21 -21 -20 -20 -222 0 -221 -1 -11 -14 -10
-15 -25 -1 -25 -2 -39 2 -38 2 5 22 6 21 -10 19 -10 19 11 15 12 14 -15 6 -16
6 -23 -4 -23 -3 -3 -18 -4 -18 -22 -24 -23 -25 -12 0 -11 0 0 15 0 15 10 0 10
0 0 9 0 8 -50 7 -49 7 -6 9 -6 9 23 6 23 5 35 2 35 3 0 10 0 10 -45 5 -45 5
-3 26 -3 26 22 6 22 6 151 -6 151 -6 14 17 13 16 34 0 33 0 11 20 11 20 28 0
29 0 11 -13 11 -14 -4 -51 -5 -51 19 -24 19 -24 -6 -7 -6 -6 -47 0 -48 0 -12
15 -12 15 -50 0 -50 0 -5 21 -6 20 -14 -5 -15 -6 -8 0 -9 0 -11 -20 -11 -20
11 -19 10 -20 -22 -15 -22 -16 53 0 53 0 -12 15 -12 14 7 11 6 10 55 0 55 0 5
-15 6 -15 97 0 96 1 30 24 30 25 -22 6 -23 6 0 24 0 23 -35 7 -35 6 -6 9 -6
10 24 19 23 19 22 1 22 0 5 9 6 9 -16 6 -16 6 -39 0 -39 0 0 14 0 15 48 4 47
3 8 2 8 2 8 -22z m-449 -3 l0 -15 -19 0 -20 0 -5 9 -5 8 6 7 6 6 19 0 18 0 0
-15z m1700 0 l0 -15 -25 0 -25 0 0 15 0 15 25 0 25 0 0 -15z m610 1 l0 -15 -7
-4 -8 -5 -23 9 -23 9 6 10 6 10 25 0 24 0 0 -14z m-3424 -25 l-7 -11 -15 0
-14 0 0 8 0 8 12 12 12 12 9 -9 9 -9 -6 -11z m2704 -2 l0 -19 -15 0 -15 0 0
18 0 19 6 6 7 6 8 -5 9 -5 0 -20z m-176 -5 l6 -15 -22 3 -21 3 -5 13 -4 12 20
0 20 0 6 -16z m97 1 l0 -10 -21 -3 -20 -3 0 9 0 9 7 7 7 7 14 -3 13 -3 0 -10z
m1279 1 l0 -14 -22 -5 -22 -6 -4 4 -4 4 5 16 6 15 21 0 20 0 0 -14z m-4752 -8
l12 -12 0 -28 0 -28 -19 0 -20 0 -7 23 -6 22 -16 18 -15 17 29 0 30 0 12 -12z
m-1241 -25 l-17 -17 -12 12 -11 11 24 10 24 9 4 -4 5 -4 -17 -17z m1163 8 l0
-9 -45 -40 -45 -40 0 -11 0 -11 -35 0 -35 0 0 11 0 10 30 10 30 11 0 19 0 19
20 20 20 20 30 0 30 0 0 -9z m-927 -40 l5 -19 -7 -9 -6 -9 -17 -7 -18 -6 0
-18 0 -17 -12 12 -12 12 17 18 17 19 0 21 0 22 14 0 14 0 5 -19z m-194 -41
l11 0 0 -15 0 -15 -15 0 -15 0 0 14 0 14 -16 6 -15 6 7 11 7 12 12 -16 12 -17
12 0z m5549 2 l3 -22 -14 -15 -15 -15 -36 13 -35 12 1 10 1 10 26 17 26 17 20
-2 20 -2 3 -23z m440 16 l-5 -13 -16 -3 -17 -3 0 15 0 16 21 0 21 0 -4 -12z
m-6248 -33 l0 -25 -15 0 -15 0 0 -40 0 -40 -16 0 -17 0 5 50 5 49 13 16 12 15
14 0 14 0 0 -25z m130 15 l14 -9 -17 -35 -17 -36 -9 0 -9 0 -6 16 -6 16 0 17
0 17 12 12 12 12 6 0 5 0 15 -10z m83 -56 l-5 -14 -13 0 -13 0 -5 14 -5 14 11
11 11 11 12 -11 13 -10 -6 -15z m1917 -21 l0 -12 -11 -7 -11 -6 -20 20 -21 20
7 17 6 16 25 -18 24 -18 1 -12z m-230 2 l12 -15 19 0 19 0 0 15 0 15 25 0 25
0 0 -15 0 -16 -22 -9 -23 -9 30 -2 30 -3 25 -1 25 -1 3 -16 3 -16 -26 -6 -26
-7 -52 7 -52 7 -33 34 -33 34 6 9 6 10 13 0 14 0 12 -15z m2392 -23 l12 -12
-7 -6 -7 -7 -127 2 -128 2 -9 9 -9 9 14 5 14 5 35 3 35 3 83 0 82 -1 12 -12z
m-4232 -22 l0 -30 -15 0 -15 0 0 23 0 24 7 6 6 7 9 0 8 0 0 -30z m5774 21 l6
-9 35 -6 35 -7 0 -14 0 -14 -27 -3 -27 -3 -6 -25 -6 -25 -22 -3 -22 -3 -22
-30 -22 -29 -13 0 -13 0 0 15 0 16 15 5 15 6 0 23 0 24 26 3 27 3 15 23 14 22
-19 0 -20 0 -27 -25 -27 -25 -10 0 -9 0 0 18 0 17 32 27 33 27 17 1 17 0 5 -9z
m-5624 -32 l0 -19 -15 0 -15 0 0 18 0 19 6 6 7 6 8 -5 9 -5 0 -20z m1381 -4
l-1 -10 -12 0 -11 0 -5 13 -4 14 16 -4 17 -3 0 -10z m-1652 -57 l1 -27 -24
-25 -23 -26 -7 0 -6 0 0 23 0 22 22 46 23 46 7 -16 7 -16 0 -27z m4741 34 l0
-9 -6 -6 -7 -6 -9 5 -8 5 5 10 6 9 10 0 9 0 0 -8z m1378 -4 l-5 -13 -21 -3
-22 -3 0 9 0 9 7 6 6 7 20 0 19 0 -4 -12z m-6328 -33 l0 -15 -14 0 -14 0 -6
-15 -5 -15 -11 0 -10 0 0 15 0 15 14 0 14 0 6 15 5 15 11 0 10 0 0 -15z m5970
-5 l0 -20 -15 0 -15 0 0 20 0 20 15 0 15 0 0 -20z m-3862 -59 l22 -30 -11 -6
-10 -7 -20 18 -19 17 0 19 0 18 8 0 8 0 22 -29z m-98 9 l0 -10 -21 -21 -21
-21 -14 6 -14 5 0 19 0 19 7 6 6 7 29 0 28 0 0 -10z m4140 3 l0 -7 -22 -23
-21 -23 -24 0 -23 0 0 15 0 15 14 0 14 0 12 15 12 15 19 0 19 0 0 -7z m-6152
-120 l3 -23 -16 0 -16 0 3 -20 3 -21 10 -2 10 -2 3 23 4 23 15 -3 16 -3 4 -12
4 -12 -20 -20 -21 -21 0 -31 0 -31 -22 -23 -22 -23 -18 11 -18 11 -12 -12 -12
-12 -23 0 -23 0 -1 -22 -1 -23 2 -24 2 -23 -14 4 -13 5 -2 33 -1 33 16 23 17
23 28 1 27 0 0 33 0 34 -6 6 -7 6 -21 -11 -21 -11 -11 -15 -11 -15 -8 13 -8
13 17 9 16 9 0 19 0 19 23 16 22 16 9 -31 9 -30 13 0 13 0 3 -37 3 -38 10 0
10 0 3 34 4 34 -16 9 -16 9 0 29 0 30 10 0 10 0 0 19 0 20 -17 5 -18 5 35 -2
35 -2 3 -22z m2682 -39 l10 -25 0 -8 0 -8 -37 3 -38 3 -9 0 -10 1 29 30 29 30
8 0 8 0 10 -26z m-167 1 l2 -10 -35 -3 -35 -3 -23 -11 -23 -12 -33 12 -32 12
-61 0 -61 0 -12 -15 -12 -15 -24 0 -24 0 0 10 0 10 18 19 17 20 168 -2 167 -2
3 -10z m2 -65 l-6 -10 -35 0 -34 0 0 10 0 10 41 0 40 0 -6 -10z m-1913 -92 l3
-23 31 -15 31 -15 33 -33 32 -32 -12 -15 -12 -15 -17 0 -16 0 -38 31 -37 30 0
14 0 13 -15 6 -15 5 0 36 0 35 14 0 15 0 3 -22z m-812 -61 l-1 -12 -24 -30
-24 -29 -7 19 -8 19 13 4 12 4 10 25 9 24 10 -6 10 -6 0 -12z m1100 13 l0 -10
-21 0 -20 0 6 10 6 10 15 0 14 0 0 -10z m38 -32 l-5 -13 -16 -3 -17 -3 0 15 0
16 21 0 21 0 -4 -12z m4980 -6 l4 -12 -16 0 -16 0 0 16 0 16 12 -4 12 -4 4
-12z m-328 -27 l0 -15 -25 0 -25 0 0 15 0 15 25 0 25 0 0 -15z m-125 -37 l27
-21 -32 -16 -33 -16 -9 -17 -8 -18 -9 -17 -8 -18 -17 -3 -17 -4 -26 -25 -25
-26 -10 17 -10 17 24 24 23 24 23 23 22 24 0 22 0 22 -15 0 -15 0 0 15 0 15
44 0 43 0 28 -22z m208 7 l-3 -10 -32 0 -31 0 -5 13 -4 13 38 -3 39 -3 -2 -10z
m-5963 -10 l13 -16 -11 -11 -10 -10 -11 6 -11 7 0 20 0 19 9 0 9 0 12 -15z
m5880 -20 l0 -15 -30 0 -30 0 0 8 0 9 7 6 6 7 24 0 23 0 0 -15z m142 0 l0 -9
-11 -4 -11 -4 0 17 0 17 11 -4 11 -3 0 -10z m-52 -30 l0 -15 -29 0 -30 0 -5 9
-5 8 6 7 6 6 29 0 28 0 0 -15z m-6046 -32 l36 -18 0 -12 0 -11 -10 -4 -11 -3
-6 -123 -6 -122 17 -19 18 -19 1 -49 2 -48 -77 -3 -78 -3 0 -9 0 -9 11 -7 11
-6 39 0 39 1 0 -15 0 -14 -74 0 -74 0 -6 15 -5 15 -34 0 -35 0 -12 15 -12 15
-38 0 -38 0 -12 15 -12 15 -15 0 -14 0 -44 20 -44 20 -15 -6 -14 -6 -12 22
-11 21 -19 -6 -19 -6 -11 21 -11 20 -22 0 -23 0 -27 28 -27 28 0 8 0 9 18 13
17 13 26 1 25 0 20 15 19 14 36 1 35 0 20 15 19 14 37 1 37 0 15 15 15 15 49
0 50 0 11 13 11 13 -12 12 -12 12 -40 0 -39 0 5 6 6 5 42 4 43 4 10 10 11 11
39 0 39 0 31 14 32 14 15 5 15 5 7 1 7 1 35 -17z m108 -19 l-3 -29 -4 -13 -5
-13 -10 6 -10 6 0 33 0 33 7 7 7 6 10 -3 11 -4 -3 -29z m84 21 l6 -14 -15 -21
-15 -21 10 -37 10 -37 1 -24 2 -24 -12 -4 -13 -5 0 40 0 40 -14 5 -14 6 -4 48
-5 48 4 8 4 7 25 0 25 0 5 -15z m873 -11 l3 -19 16 -17 15 -18 -26 0 -27 0 0
9 0 9 -20 5 -20 5 0 10 0 11 16 16 16 16 12 -4 11 -4 4 -19z m4801 17 l0 -10
-10 -6 -11 -7 -17 7 -16 6 14 9 15 10 13 0 12 0 0 -9z m-5058 -38 l18 -16 0
-23 0 -24 45 -42 45 -42 -6 -19 -6 -18 15 -22 15 -22 31 -32 31 -33 10 0 9 0
37 -40 37 -40 29 0 28 0 0 14 0 14 -12 4 -12 4 8 12 7 12 17 0 17 -1 23 -19
24 -19 -7 -11 -6 -10 -25 0 -24 0 0 -15 0 -15 26 0 27 0 33 -21 34 -21 0 -9 0
-9 14 0 14 0 6 -15 5 -15 15 0 15 0 33 -30 33 -31 14 3 14 3 5 13 4 12 -26 0
-26 0 0 15 0 15 -20 0 -20 0 0 9 0 9 16 12 15 13 6 -21 5 -22 13 0 14 0 13
-13 13 -13 18 -7 17 -6 0 -11 0 -10 -15 0 -15 0 0 -14 0 -15 10 -6 10 -6 6 15
6 16 24 0 24 0 0 -9 0 -9 -15 -12 -15 -12 -44 -4 -44 -3 -12 14 -12 15 -15 0
-14 0 -5 15 -6 15 -14 0 -15 0 -29 30 -29 30 -11 0 -10 0 0 10 0 9 -30 16 -29
15 -6 0 -6 0 11 -21 11 -20 17 -6 17 -6 27 -29 27 -28 11 0 11 0 5 -15 6 -15
24 0 23 0 -5 -15 -6 -15 -18 0 -18 0 -6 -15 -5 -15 -19 0 -20 0 -11 14 -12 15
10 20 11 20 0 10 0 11 -16 0 -16 0 -114 114 -114 114 0 11 0 11 -15 0 -14 0
-9 -16 -9 -16 -62 63 -63 62 -9 21 -9 21 -24 42 -24 43 -16 15 -16 16 0 11 0
10 23 24 22 24 4 0 4 0 19 -17z m-1242 -33 l0 -10 26 0 26 0 -5 -12 -4 -13
-19 3 -19 4 -20 19 -19 19 17 0 17 0 0 -10z m-95 -31 l-6 -8 -14 5 -15 6 5 9
6 8 14 -5 15 -6 -5 -9z m-77 -26 l-18 -4 -17 4 -18 5 35 0 35 0 -17 -5z m742
-97 l0 -85 10 -6 10 -6 16 15 15 16 20 0 19 0 0 -55 0 -54 -16 -9 -17 -9 7
-26 6 -26 23 -3 22 -3 0 -20 0 -20 -21 -3 -22 -3 -23 38 -23 37 -18 18 -18 18
0 10 0 10 -25 10 -25 10 0 19 0 19 15 12 15 12 0 84 0 84 15 0 15 0 0 -84z
m-880 41 l0 -13 -30 -17 -30 -18 0 -25 0 -24 -8 0 -8 0 -12 12 -12 12 0 22 0
22 18 6 17 6 25 15 25 15 8 0 7 0 0 -13z m1481 -22 l24 5 10 -7 10 -8 25 -37
25 -38 8 0 7 0 0 -15 0 -15 -11 0 -10 0 3 -22 3 -22 32 -8 33 -8 35 -21 35
-21 0 -9 0 -9 19 0 19 0 6 16 6 17 40 -42 40 -42 0 -15 0 -14 32 -29 31 -28
-6 -16 -6 -17 -31 0 -31 0 5 18 6 18 -25 24 -24 23 -7 -18 -7 -17 14 -10 14
-10 -19 6 -19 6 -14 -11 -14 -12 -12 12 -12 12 18 10 17 10 0 13 0 13 -25 13
-25 14 -12 -12 -12 -12 -7 0 -7 0 -6 25 -6 25 -17 0 -16 0 -36 37 -36 37 -10
17 -10 18 -53 77 -53 76 6 17 6 16 14 -18 13 -18 23 6z m4782 -10 l2 -10 -32
-3 -33 -3 0 9 0 9 7 7 7 7 23 -3 24 -3 2 -10z m-6230 -96 l-3 -7 -19 -5 -20
-5 -17 12 -17 13 18 20 17 20 22 -21 22 -21 -3 -6z m63 -24 l6 -15 24 0 25 0
5 -15 6 -15 24 0 25 0 5 -15 6 -15 28 0 27 0 23 -20 23 -20 17 5 17 5 13 -15
12 -15 43 0 43 0 12 -15 12 -15 27 0 26 -1 25 -14 25 -14 63 -1 64 0 28 30 28
30 36 0 35 0 33 -45 33 -44 21 -1 22 0 15 -24 16 -24 -4 -4 -5 -4 -90 3 -91 3
-22 15 -21 15 -38 0 -37 0 -5 9 -6 9 -56 7 -55 7 -34 14 -34 14 -29 0 -28 0
-20 15 -19 14 -21 1 -22 0 -6 15 -5 15 -31 0 -30 0 0 10 0 10 -40 6 -40 7 0 6
0 7 -75 39 -75 39 0 8 0 8 20 0 21 0 5 -15z m5211 -45 l101 0 17 -6 17 -7 -14
-8 -13 -9 -121 0 -122 0 -6 -16 -6 -16 -33 6 -32 6 -35 1 -35 2 -18 -2 -18 -1
6 -10 6 -9 -21 -13 -20 -13 0 -12 0 -13 -14 0 -15 0 -6 10 -7 11 11 13 12 14
-46 6 -45 7 -11 -6 -10 -7 -34 24 -35 23 0 13 0 12 158 0 157 1 50 13 50 14
16 -14 16 -14 100 0z m498 21 l5 -10 -10 -6 -11 -7 -15 6 -15 6 6 10 6 10 14
0 14 0 6 -9z m-127 -69 l4 -14 -28 4 -27 3 -5 13 -4 14 28 -4 27 -3 5 -13z
m-986 -43 l19 -10 -6 -10 -6 -9 -45 0 -45 0 -15 15 -15 15 -20 0 -19 0 0 13 0
14 5 5 6 5 61 -14 62 -14 18 -10z m-1641 -20 l19 -19 0 -10 0 -10 -19 0 -20 0
-28 11 -28 10 -7 12 -7 12 16 17 16 17 19 -10 20 -11 19 -19z m1759 -1 l20
-13 32 13 32 12 4 -4 4 -4 -7 -21 -6 -21 -68 0 -68 0 -6 6 -6 7 10 18 10 19
14 0 15 0 20 -12z m-3639 -33 l31 -35 14 0 14 0 0 -15 0 -15 -20 0 -21 0 -5
15 -6 15 -13 0 -12 0 -18 20 -17 19 5 16 6 15 6 0 6 0 30 -35z m2949 15 l0
-11 -14 -5 -14 -5 -5 -21 -6 -20 -23 7 -23 7 -4 4 -3 3 7 10 6 11 25 0 24 0 0
15 0 15 15 0 15 0 0 -10z m444 3 l8 -8 39 -10 40 -10 0 -10 -1 -10 -43 2 -42
2 -42 7 -43 6 0 12 0 13 7 6 6 7 32 0 32 0 7 -7z m-3476 -70 l4 -13 -26 0 -25
0 -5 9 -5 8 6 7 7 7 20 -3 19 -3 5 -12z m362 3 l0 -14 -25 -16 -25 -16 0 10 0
10 17 20 17 20 8 0 8 0 0 -14z m1163 -29 l5 -12 46 -23 46 -23 0 -10 0 -9 18
0 19 0 6 7 7 6 -12 14 -11 14 11 11 12 12 17 -16 18 -15 18 -6 17 -6 0 -11 0
-10 18 0 19 0 21 -19 22 -18 0 -12 0 -11 -14 0 -14 0 -6 15 -5 15 -24 0 -25 0
-12 15 -12 15 -13 0 -12 0 -29 -30 -29 -29 -26 -1 -27 0 -28 15 -28 14 -16
-14 -17 -15 -16 0 -17 0 0 15 0 15 19 0 19 0 12 15 12 15 20 0 19 0 5 -15 6
-15 29 0 29 0 0 15 0 15 -29 0 -29 0 -6 15 -5 15 -29 0 -30 0 -12 14 -11 15
-21 3 -21 3 -5 13 -4 12 50 0 50 0 5 -13z m-1491 -9 l-12 -12 -12 12 -12 12
24 0 24 0 -12 -12z m1348 -20 l0 -8 -20 0 -20 0 0 8 0 8 12 12 12 12 8 -13 8
-12 0 -7z m-807 -14 l19 -25 -6 -6 -6 -6 -25 23 -25 23 0 9 0 8 13 0 12 -1 18
-25z m123 11 l15 -15 24 0 24 0 6 -10 6 -9 -26 -7 -25 -6 -25 6 -25 6 0 25 0
25 6 0 5 0 15 -15z m166 0 l0 -9 -11 -4 -11 -4 0 17 0 17 11 -4 11 -3 0 -10z
m-606 -30 l19 -14 33 -1 34 0 -4 -12 -4 -12 -29 -8 -30 -8 -35 24 -35 24 -57
-5 -58 -5 0 10 0 11 18 4 17 5 56 1 55 1 20 -15z m2049 6 l5 -10 -9 -5 -9 -6
-17 6 -17 7 14 8 13 9 7 0 7 0 6 -9z m-1105 -27 l0 -15 -16 -6 -15 -6 -12 12
-11 11 19 14 20 14 7 -4 8 -5 0 -15z m-160 -3 l0 -10 -9 -5 -9 -6 -17 6 -17 7
14 8 13 9 13 0 12 0 0 -9z m1464 3 l16 -6 -6 -9 -5 -9 -49 0 -49 0 -5 9 -5 8
6 7 6 6 38 0 37 0 16 -6z"/>
<path d="M2045 4329 l-7 -10 6 -6 5 -5 16 5 15 6 0 11 0 10 -14 0 -15 0 -6
-11z"/>
<path d="M1860 4100 l-25 -29 -9 0 -9 -1 -44 -36 -44 -37 10 -10 10 -10 27 18
28 18 24 28 24 29 14 0 14 0 0 14 0 14 16 6 15 6 -6 10 -6 10 -7 -1 -7 0 -25
-29z"/>
<path d="M1640 3994 l0 -16 12 4 12 4 4 12 4 12 -16 0 -16 0 0 -16z"/>
<path d="M1615 3969 l-7 -10 6 -6 6 -7 11 11 11 11 -10 6 -11 6 -6 -11z"/>
<path d="M1659 3768 l-15 -13 -17 -27 -17 -27 0 -11 0 -10 15 0 15 0 0 10 0
10 32 29 31 28 -7 11 -7 12 -8 0 -7 0 -15 -12z"/>
<path d="M1596 3645 l6 -25 -16 0 -15 0 -11 -21 -12 -21 7 -6 6 -6 23 27 23
27 11 0 11 0 6 11 7 10 -18 14 -19 14 -8 1 -7 0 6 -25z"/>
<path d="M1611 3401 l-13 -8 12 -8 11 -7 6 5 5 6 -3 10 -4 10 -14 -8z"/>
<path d="M1628 3263 l-18 -4 0 -15 0 -14 31 0 30 0 -3 17 -3 16 -10 2 -10 3
-17 -5z"/>
<path d="M2046 3131 l-6 -9 16 -6 17 -6 20 6 20 6 -14 9 -14 9 -17 0 -17 0 -5
-9z"/>
<path d="M1915 3100 l-6 -10 47 0 47 0 -4 4 -4 3 -37 7 -36 7 -7 -11z"/>
<path d="M2047 3059 l11 -11 19 11 18 10 -29 1 -30 0 11 -11z"/>
<path d="M2340 2915 l0 -17 11 4 11 4 0 9 0 10 -11 3 -11 4 0 -17z"/>
<path d="M2305 3640 l-6 -10 15 -6 16 -6 16 6 15 6 -6 10 -6 10 -19 0 -19 0
-6 -10z"/>
<path d="M2356 3581 l-20 -8 23 -6 23 -6 15 6 15 6 -14 8 -13 9 -5 -1 -5 0
-19 -8z"/>
<path d="M1368 3379 l-18 -10 0 -14 0 -15 9 0 9 0 12 15 12 14 -4 10 -3 10
-17 -10z"/>
<path d="M1371 3298 l3 -23 -8 -22 -7 -23 -20 0 -20 0 -3 -12 -4 -13 -6 -28
-7 -28 -16 9 -16 10 -36 -15 -36 -15 -16 -14 -16 -14 -11 0 -12 0 -38 -40 -37
-40 -39 -50 -39 -50 -9 0 -8 0 0 -15 0 -16 15 -5 15 -6 19 23 19 24 18 -40 18
-40 2 -3 2 -3 41 12 41 12 2 16 1 16 1 29 1 29 12 4 12 4 20 -20 21 -21 9 0 9
0 31 18 31 17 0 12 0 12 -17 9 -16 10 6 16 6 16 20 0 20 0 6 -10 6 -10 15 0
14 0 0 90 0 91 15 5 14 6 0 54 -1 54 -15 0 -14 0 2 -22z m-29 -164 l6 -5 -5
-20 -5 -19 -18 0 -17 0 5 25 4 25 12 0 13 0 5 -6z"/>
<path d="M1484 3135 l-19 -13 5 -5 5 -5 35 7 35 7 -21 12 -21 11 -19 -14z"/>
<path d="M1042 2688 l-12 -12 0 -23 0 -23 15 0 15 0 20 20 20 20 0 9 0 9 -16
6 -16 6 -7 0 -7 0 -12 -12z"/>
<path d="M860 2565 l-12 -15 -19 0 -18 0 -5 -9 -6 -9 -43 -21 -43 -21 -21 0
-22 0 -15 -15 -15 -15 -19 0 -20 0 -11 -13 -11 -13 12 -12 12 -12 18 0 18 0
12 20 12 19 22 -5 22 -6 45 21 46 21 7 0 7 0 33 25 33 25 19 0 20 0 5 14 5 14
-11 11 -11 11 -17 0 -17 0 -12 -15z"/>
<path d="M6442 3278 l5 -13 27 -3 28 -4 -4 14 -5 13 -27 3 -28 4 4 -14z"/>
<path d="M3837 2863 l-7 -6 0 -9 0 -8 15 0 15 0 0 15 0 15 -8 0 -9 0 -6 -7z"/>
<path d="M3697 2803 l-7 -6 0 -9 0 -8 25 0 25 0 0 15 0 15 -18 0 -19 0 -6 -7z"/>
<path d="M8465 2650 l-6 -10 15 -6 14 -5 29 3 28 3 0 10 0 10 -37 3 -36 3 -7
-11z"/>
<path d="M8227 2593 l-7 -6 0 -9 0 -8 40 0 40 0 0 15 0 15 -33 0 -34 0 -6 -7z"/>
<path d="M8083 2563 l-13 -5 0 -9 0 -10 62 3 61 3 5 13 4 12 -54 -1 -53 -1
-12 -5z"/>
<path d="M7957 2534 l-6 -7 5 -8 5 -9 33 0 32 0 20 15 19 14 -51 1 -51 0 -6
-6z"/>
<path d="M7880 2500 l-15 -10 33 0 33 0 -6 10 -6 10 -12 0 -12 0 -15 -10z"/>
<path d="M7407 2234 l-7 -7 0 -9 0 -9 25 3 26 3 2 10 2 10 -20 3 -21 3 -7 -7z"/>
<path d="M7235 2201 l-5 -10 10 -6 10 -6 48 7 47 8 -30 7 -30 7 -22 1 -22 1
-6 -9z"/>
<path d="M7081 2046 l4 -3 33 -6 32 -6 0 9 0 10 -37 0 -36 0 4 -4z"/>
<path d="M7125 1930 l-6 -10 15 -6 15 -6 11 7 10 6 -5 10 -6 9 -14 0 -14 0 -6
-10z"/>
<path d="M7461 1811 l-15 -10 26 -6 26 -7 21 4 22 3 2 10 2 10 -35 3 -35 2
-14 -9z"/>
<path d="M5622 2383 l-12 -5 6 -9 5 -9 20 0 19 0 0 15 0 15 -12 -1 -13 -1 -13
-5z"/>
<path d="M1105 1330 l-6 -10 -34 0 -34 0 -15 -15 -15 -15 -26 0 -26 0 -5 -15
-6 -15 -17 0 -17 0 -28 -29 -28 -29 4 -17 3 -18 15 -8 15 -7 40 -17 40 -16 17
-9 18 -10 28 0 28 0 20 -15 19 -14 53 -1 52 0 0 14 0 14 -25 6 -25 6 -27 -6
-26 -7 -12 17 -13 17 -38 6 -39 6 -13 14 -14 14 -18 -6 -18 -6 -7 21 -7 21 24
19 23 19 21 1 20 0 20 15 19 14 24 1 24 0 33 21 34 21 0 14 0 14 -24 0 -25 0
-6 -10z"/>
<path d="M1100 1145 l0 -15 20 0 20 0 0 15 0 15 -20 0 -20 0 0 -15z"/>
<path d="M2592 878 l5 -13 21 -3 22 -3 0 15 0 16 -26 0 -26 0 4 -12z"/>
<path d="M1492 1148 l3 -43 10 0 10 0 3 43 3 42 -16 0 -16 0 3 -42z"/>
<path d="M3630 3005 l-12 -15 -18 0 -18 0 -12 -15 -12 -15 -20 0 -20 0 4 -12
5 -13 18 -4 18 -3 9 16 9 16 24 0 24 0 6 11 7 10 25 10 24 9 -6 10 -6 10 -18
0 -19 0 -12 -15z"/>
<path d="M3455 2920 l-6 -10 21 0 21 0 -6 10 -6 10 -9 0 -9 0 -6 -10z"/>
<path d="M3377 2886 l-6 -14 -22 -4 -22 -3 -5 -12 -4 -13 32 0 31 0 29 22 29
21 -5 9 -5 8 -24 0 -23 0 -5 -14z"/>
<path d="M4371 2836 l-11 -13 7 -6 6 -7 14 0 13 0 0 14 0 15 -9 5 -9 6 -11
-14z"/>
<path d="M3356 2532 l-6 -11 11 -6 10 -7 6 6 7 6 -11 11 -11 11 -6 -10z"/>
<path d="M3717 2533 l-7 -6 0 -9 0 -8 15 0 15 0 0 15 0 15 -8 0 -9 0 -6 -7z"/>
<path d="M3490 2520 l15 -10 8 0 7 0 0 10 0 10 -22 0 -23 0 15 -10z"/>
<path d="M3866 2483 l-6 -6 0 -29 0 -28 15 0 15 0 0 10 0 9 26 14 27 14 -9 5
-9 5 -26 6 -26 7 -7 -7z"/>
<path d="M4580 2476 l0 -14 -27 -18 -28 -18 -35 -6 -35 -5 2 -10 3 -10 115 -3
115 -3 0 11 0 10 -25 10 -25 10 0 19 0 20 -19 11 -20 10 -10 0 -11 0 0 -14z"/>
<path d="M4102 2367 l-22 -23 7 -7 6 -7 15 0 14 0 18 22 18 23 -5 7 -4 8 -13
0 -13 0 -21 -23z"/>
<path d="M4367 2384 l-6 -7 5 -8 5 -9 15 0 14 0 0 15 0 15 -13 0 -14 0 -6 -6z"/>
<path d="M4880 2363 l-24 -5 -20 -14 -20 -14 -66 -1 -65 0 -20 -9 -20 -8 35
-6 35 -6 50 -2 50 -3 3 -43 3 -42 29 -15 29 -15 30 0 30 0 5 8 5 8 -34 29 -35
28 25 25 24 24 28 0 28 0 23 4 22 4 0 16 0 17 -40 -7 -39 -6 -11 20 -11 20
-12 -1 -12 -2 -25 -4z"/>
<path d="M4461 2321 l-13 -8 46 -7 46 -7 11 7 11 7 -13 8 -14 9 -30 0 -30 0
-14 -9z"/>
<path d="M2608 2294 l-7 -7 22 -23 22 -24 26 0 27 0 12 -15 12 -15 19 0 18 0
16 31 16 31 -5 14 -5 14 -20 0 -20 0 -7 -11 -7 -12 17 -9 16 -9 -5 -10 -6 -9
-17 0 -18 0 -18 32 -19 31 -12 -16 -12 -17 -8 0 -8 0 -11 16 -12 15 -6 -7z"/>
<path d="M3558 2283 l22 -4 18 4 17 5 -40 -1 -40 0 23 -4z"/>
<path d="M6468 2283 l22 -4 18 4 17 5 -40 -1 -40 0 23 -4z"/>
<path d="M2516 2233 l-6 -6 0 -24 0 -24 -15 -5 -15 -6 0 -27 -1 -26 -14 -19
-15 -20 0 -21 0 -21 32 -44 33 -44 33 -33 33 -33 19 0 19 0 6 -11 7 -10 29 6
29 7 0 -11 0 -11 19 0 19 0 12 -15 12 -15 19 0 19 0 13 -27 12 -26 -13 -5 -12
-4 0 -14 0 -14 28 0 28 0 20 -15 19 -14 42 -1 42 0 15 -15 15 -15 40 0 41 0 0
-13 0 -14 -18 -16 -19 -17 -37 0 -37 0 -5 15 -6 15 -28 0 -28 0 -12 15 -12 15
-49 0 -49 0 0 15 0 15 -29 0 -29 0 -6 15 -5 15 -20 0 -19 0 -6 15 -5 15 -16 0
-15 0 0 -11 0 -11 23 -19 22 -18 21 -1 22 0 6 -15 5 -15 26 0 25 0 0 -15 0
-15 50 0 51 0 5 -15 6 -15 22 0 22 0 20 -15 19 -14 48 -1 48 0 5 -15 6 -15 33
0 33 0 13 16 13 16 76 -4 76 -4 23 -23 23 -23 -5 -4 -4 -4 -31 16 -32 15 -55
0 -55 0 -10 -6 -10 -6 5 -10 6 -9 33 0 34 0 12 -15 12 -15 49 0 49 0 0 -19 0
-19 -20 -5 -20 -5 0 -11 0 -11 24 15 23 16 27 -11 27 -10 58 0 59 0 12 15 12
15 24 -6 24 -6 45 6 45 7 0 58 0 59 -22 6 -23 5 13 13 13 13 13 -17 13 -18 17
0 16 0 0 14 0 14 -25 16 -24 16 -23 0 -23 -1 -16 -12 -15 -12 -7 -17 -6 -17
-42 -3 -42 -3 -4 -12 -4 -12 38 -3 38 -3 -3 -20 -4 -19 -21 -23 -22 -23 -47 0
-48 0 0 24 0 25 10 6 10 6 0 15 0 14 -23 0 -24 0 -23 25 -23 24 28 11 28 10
46 -1 46 0 37 3 38 3 2 8 3 9 -33 14 -33 13 -5 -14 -6 -15 -18 0 -19 0 -5 9
-6 9 30 30 30 30 0 6 0 6 -50 0 -50 0 0 -10 0 -10 -15 0 -15 0 0 15 0 15 20
12 20 13 0 12 0 13 -20 0 -21 0 -5 -15 -6 -15 -13 0 -14 0 -6 -21 -7 -20 16
-18 16 -17 -11 -11 -11 -11 -55 5 -55 6 -6 -10 -7 -10 -34 -16 -33 -17 -17 10
-16 9 -20 30 -20 31 -42 0 -41 0 -16 6 -16 6 0 14 0 15 -27 -3 -28 -3 2 25 3
25 -26 19 -27 19 -18 -11 -18 -12 -6 10 -6 10 -20 0 -20 0 -5 15 -6 15 -14 0
-13 0 -11 20 -11 20 -24 0 -23 0 -4 8 -3 7 -33 18 -34 17 -9 0 -9 0 0 -15 0
-15 -15 0 -15 0 0 15 0 15 15 0 15 0 0 15 0 15 -14 0 -14 0 -6 -16 -6 -15 -11
7 -12 7 18 13 19 14 -7 6 -7 7 -22 11 -23 12 -3 22 -3 22 10 0 10 0 27 -25 27
-25 24 -6 23 -6 0 -14 0 -14 14 0 14 0 12 -15 12 -15 24 0 24 0 0 10 0 11 -17
5 -18 5 -15 10 -15 9 -13 6 -13 6 -34 31 -35 31 0 28 0 28 -10 0 -11 0 -5 -15
-6 -15 -14 0 -14 0 0 18 0 18 12 12 12 12 18 0 18 0 0 -14 0 -14 15 -6 15 -5
0 -21 0 -20 10 -1 10 -1 11 -2 11 -1 12 -17 13 -18 15 0 16 0 12 -15 12 -15
26 0 25 0 18 -16 18 -16 35 6 35 7 16 15 15 16 -5 8 -5 8 -50 0 -50 0 -32 31
-32 31 -18 0 -19 0 -5 15 -6 15 -14 0 -14 0 0 -14 0 -15 -10 -6 -10 -6 -7 16
-6 17 12 8 13 7 -13 21 -14 22 20 14 20 15 -19 7 -19 7 -21 -26 -22 -27 -22
16 -22 15 0 19 0 19 -9 5 -8 5 -7 -6z m824 -608 l0 -15 -29 0 -30 0 -5 9 -5 8
6 7 6 6 29 0 28 0 0 -15z"/>
<path d="M2875 2230 l-6 -10 15 -6 15 -6 12 7 11 8 -13 8 -14 9 -7 0 -7 0 -6
-10z"/>
<path d="M3332 2231 l-14 -8 17 -7 17 -6 14 0 14 0 0 15 0 15 -17 0 -18 0 -13
-9z"/>
<path d="M4266 2215 l-18 -14 7 -10 6 -11 27 0 27 0 14 9 15 9 -13 16 -13 16
-17 0 -16 -1 -19 -14z"/>
<path d="M2456 2213 l-6 -6 0 -14 0 -13 15 0 15 0 0 14 0 15 -9 5 -8 5 -7 -6z"/>
<path d="M2780 2195 l0 -15 15 0 15 0 0 15 0 15 -15 0 -15 0 0 -15z"/>
<path d="M2930 2201 l0 -9 16 -13 15 -13 -6 -23 -5 -23 20 -20 20 -20 14 0 15
0 5 9 6 8 26 -5 26 -5 -4 29 -3 29 -23 3 -23 4 -9 22 -8 23 -17 7 -17 6 -24 0
-24 0 0 -9z"/>
<path d="M3045 2201 l-5 -10 35 -17 35 -16 30 -41 29 -40 4 -11 4 -11 31 18
30 17 31 0 32 0 5 -15 6 -15 28 0 29 0 6 10 6 10 -31 6 -31 7 3 31 3 30 25 1
25 0 2 10 2 10 -43 -3 -43 -3 -13 16 -12 15 -15 0 -14 0 6 -22 6 -23 -9 14
-10 14 -60 -5 -60 -6 -5 19 -5 19 -25 0 -26 0 -6 -9z m155 -66 l0 -15 -15 0
-15 0 0 15 0 15 15 0 15 0 0 -15z"/>
<path d="M4410 2200 l-45 -7 31 -1 32 -2 31 -6 31 -6 0 16 0 16 -17 -2 -18 -1
-45 -7z"/>
<path d="M4967 2204 l-6 -7 5 -8 5 -9 39 0 39 0 5 9 6 9 -16 6 -16 6 -27 0
-28 0 -6 -6z"/>
<path d="M2333 2149 l6 -34 7 -34 7 -33 -21 11 -21 11 -10 0 -11 0 0 -10 0
-10 20 -17 20 -17 0 -19 0 -18 14 -5 14 -5 5 -20 5 -19 11 0 11 0 0 20 0 20
-14 0 -14 0 -6 23 -6 22 0 8 0 7 18 0 18 0 12 -12 12 -12 0 31 0 32 -10 25
-10 26 -14 0 -15 0 -3 27 -3 26 -14 5 -13 4 5 -33z"/>
<path d="M2822 2168 l5 -13 21 -3 22 -3 0 15 0 16 -26 0 -26 0 4 -12z"/>
<path d="M2277 2154 l-7 -7 0 -19 0 -18 10 0 11 0 6 16 6 15 -10 10 -9 9 -7
-6z"/>
<path d="M2720 2135 l0 -15 15 0 15 0 0 15 0 15 -15 0 -15 0 0 -15z"/>
<path d="M2882 2138 l5 -13 22 -3 23 -4 -4 14 -5 13 -22 3 -23 4 4 -14z"/>
<path d="M5095 2140 l-6 -10 25 -10 26 -10 0 -9 0 -9 -45 -22 -45 -22 0 -9 0
-9 14 0 15 0 7 -12 7 -11 -18 -14 -19 -13 -25 0 -26 1 18 13 17 13 0 12 0 11
-40 0 -41 0 3 -27 3 -26 -33 -9 -33 -9 6 -9 6 -10 18 0 17 0 12 -12 12 -12 0
-27 0 -28 -20 -14 -21 -15 16 -6 17 -6 43 0 43 0 31 -6 31 -6 0 -12 0 -11 28
-12 27 -11 119 -5 118 -5 11 -11 10 -10 -7 -25 -6 -26 -25 0 -24 0 -6 -10 -6
-10 11 -20 11 -20 15 0 14 0 10 25 10 25 80 0 80 0 -2 43 -3 42 93 3 93 3 21
-16 22 -15 36 0 35 0 10 8 11 7 39 49 40 49 -25 -7 -25 -8 -25 -5 -25 -6 -8
-13 -8 -14 -154 0 -155 0 0 15 0 14 65 3 65 3 0 10 0 10 -87 0 -88 0 2 -23 3
-22 -23 -11 -23 -10 -24 10 -25 11 -17 12 -17 12 -19 -17 -19 -17 -63 0 -64 0
-43 21 -44 21 18 13 18 13 -18 37 -18 37 -17 -8 -17 -7 -42 -5 -43 -4 0 16 0
16 30 0 31 0 27 20 28 21 69 -4 70 -4 3 -16 3 -17 -13 -1 -13 -1 -10 -3 -10
-2 -15 -2 -15 -1 15 -10 15 -10 93 0 92 0 0 -15 0 -15 -22 -1 -23 -2 -63 2
-63 2 -20 -6 -19 -6 5 -10 6 -9 94 0 94 0 6 -10 6 -10 9 5 10 6 19 -11 20 -10
6 10 6 10 -15 6 -16 6 0 23 0 24 11 7 11 7 203 -2 203 -2 17 17 17 17 50 -2
51 -1 17 15 17 16 39 1 39 1 18 9 17 9 0 7 0 7 -57 0 -58 0 -3 15 -3 15 51 15
51 16 0 9 -1 10 -57 3 -57 3 -42 -16 -42 -16 -59 15 -58 15 -75 -4 -75 -3 -21
13 -21 13 -14 -9 -14 -9 -87 0 -87 0 -6 -10 -6 -9 28 -15 28 -14 -15 -6 -15
-5 -55 -5 -55 -5 -57 -8 -58 -9 -17 10 -17 9 -30 6 -30 7 -3 9 -3 10 19 12 20
12 54 -11 54 -11 18 7 18 7 -23 24 -23 25 -19 0 -19 0 -15 15 -15 15 -44 0
-44 0 -6 -10z m481 -91 l7 -11 41 5 41 6 43 -10 43 -9 34 16 34 16 11 -7 11
-7 -26 -25 -25 -26 0 -13 0 -13 11 -7 11 -6 -9 -9 -10 -10 -45 20 -46 19 -6
11 -7 11 -24 0 -23 0 -16 -6 -16 -6 10 -18 9 -17 -6 -7 -6 -6 -39 0 -38 0 0
15 0 15 -38 0 -39 0 -18 -20 -18 -20 -24 6 -25 7 -25 23 -26 24 4 4 4 4 85 2
85 2 33 -7 32 -7 0 20 0 20 -21 5 -21 6 7 10 6 11 14 0 14 0 7 -11z m392 -30
l22 1 0 -19 0 -19 -31 -11 -31 -11 -19 11 -19 10 0 5 0 5 11 20 11 21 16 -8
17 -7 23 2z m-870 -148 l14 -8 -17 -7 -17 -6 -23 0 -24 0 -5 9 -5 8 6 7 6 6
26 0 26 0 13 -9z"/>
<path d="M2767 2114 l-6 -7 5 -8 5 -9 25 0 26 0 -4 13 -5 12 -19 3 -20 3 -7
-7z"/>
<path d="M4755 2075 l-40 -43 -30 -7 -30 -7 23 -10 22 -11 -2 -26 -3 -25 43
-9 42 -8 0 -9 0 -8 -16 -6 -15 -6 3 -22 3 -23 53 -2 52 -2 0 8 0 8 -24 11 -24
11 5 19 5 19 -16 6 -16 6 0 16 0 15 20 0 19 0 8 14 8 15 44 3 44 3 5 14 5 14
-51 -6 -50 -6 -11 13 -11 13 7 6 6 7 19 0 18 0 18 9 17 9 28 11 28 11 -6 10
-6 10 -77 -1 -77 -1 -40 -43z m33 -29 l4 -18 -14 4 -13 5 -3 17 -4 18 14 -4
13 -5 3 -17z"/>
<path d="M4515 2090 l-6 -10 6 -10 6 -10 14 0 13 0 5 14 6 14 -6 6 -6 6 -13 0
-13 0 -6 -10z"/>
<path d="M2830 2081 l0 -10 10 -6 10 -6 33 7 32 7 -20 8 -20 8 -22 0 -23 1 0
-9z"/>
<path d="M5361 2081 l-13 -8 16 -6 15 -6 6 9 5 9 -8 5 -8 5 -13 -8z"/>
<path d="M6172 2081 l-14 -8 18 -7 17 -6 18 5 19 6 0 10 0 9 -22 0 -23 0 -13
-9z"/>
<path d="M6256 2081 l-6 -9 24 -6 24 -6 16 6 16 6 -6 9 -5 9 -29 0 -29 0 -5
-9z"/>
<path d="M2941 2051 l-15 -10 26 -6 27 -7 10 7 11 6 0 10 0 9 -22 0 -23 0 -14
-9z"/>
<path d="M3238 2042 l-28 -17 0 -11 0 -12 26 -6 26 -7 23 15 23 15 -5 21 -5
20 -17 -1 -16 -1 -27 -16z"/>
<path d="M4582 2044 l3 -15 10 -2 10 -2 3 18 3 17 -16 0 -16 0 3 -16z"/>
<path d="M3977 2024 l-6 -7 5 -8 5 -9 20 0 19 0 0 9 0 9 -16 6 -16 6 -2 0 -3
0 -6 -6z"/>
<path d="M2927 1960 l-38 -40 13 -5 13 -4 18 -3 18 -3 2 -10 2 -10 -33 -3 -33
-3 4 -12 4 -12 23 -3 23 -4 21 11 21 12 29 2 29 2 4 -12 4 -11 -20 -7 -21 -6
0 -8 0 -8 78 -2 79 -2 13 16 12 15 14 0 14 0 0 15 0 14 -55 -1 -55 -2 -10 10
-10 10 16 22 15 22 39 0 39 0 6 10 6 10 -13 2 -13 1 -89 2 -88 1 -10 17 -9 17
-12 0 -12 0 -38 -40z"/>
<path d="M6290 1961 l0 -41 20 -20 20 -20 11 0 10 0 -3 -17 -3 -16 -12 -4 -13
-5 -33 37 -34 37 -37 0 -37 0 -6 14 -5 14 -13 0 -12 0 -18 -20 -18 -20 6 -6 6
-6 33 -7 33 -7 3 -22 3 -22 -26 10 -26 10 -25 -6 -25 -7 10 -10 10 -10 38 -14
38 -13 21 0 20 0 12 12 12 12 12 -12 12 -12 25 0 26 0 42 18 43 17 0 16 0 17
15 12 16 13 44 1 45 1 0 10 0 10 -38 1 -37 0 -32 17 -32 17 -15 0 -15 0 -13
28 -13 27 -23 3 -22 3 0 -40z"/>
<path d="M3411 1961 l-13 -8 8 -6 9 -5 37 1 37 1 8 -8 8 -7 -22 -17 -21 -17 7
-48 8 -47 4 -5 5 -4 22 6 22 5 0 19 0 19 25 10 25 10 10 24 9 24 11 7 12 8
-13 8 -14 9 -40 0 -41 0 -9 9 -10 9 -35 6 -35 6 -14 -9z"/>
<path d="M2740 1925 l0 -15 30 0 31 0 5 -15 6 -15 29 0 29 0 0 15 0 15 -29 0
-29 0 -6 15 -5 15 -31 0 -30 0 0 -15z"/>
<path d="M3298 1905 l-38 -35 0 -7 0 -6 18 -13 17 -13 -18 -18 -18 -18 -56 -5
-56 -5 -5 -12 -4 -13 31 0 30 0 6 -10 7 -11 14 12 14 12 19 -17 20 -18 18 4
18 3 3 22 3 22 15 11 14 12 0 16 0 15 15 17 14 16 3 34 3 35 -25 3 -25 2 -37
-35z"/>
<path d="M620 1915 l-14 -17 10 -15 9 -15 9 -1 9 -2 11 17 11 18 -16 15 -16
16 -13 -16z"/>
<path d="M1947 1923 l-7 -6 0 -29 0 -29 -10 -18 -9 -18 16 -22 16 -23 8 13 9
14 0 63 0 62 -8 0 -9 0 -6 -7z"/>
<path d="M5900 1887 l0 -24 7 -6 6 -7 16 14 16 15 69 3 69 3 5 13 4 12 -96 0
-96 0 0 -23z"/>
<path d="M1857 1893 l-5 -8 -3 -137 -4 -136 7 -7 6 -7 21 7 21 6 0 15 0 14
-10 0 -10 0 0 15 0 15 25 0 26 0 5 -15 6 -15 14 0 14 0 0 13 0 12 -6 23 -6 22
-21 0 -21 0 12 12 12 12 0 12 0 12 -30 7 -30 7 0 64 0 64 -9 0 -10 0 -4 -7z"/>
<path d="M4683 1880 l25 -20 16 0 16 0 0 10 0 9 -19 11 -20 10 -22 0 -22 0 26
-20z"/>
<path d="M6967 1823 l-27 -14 5 -10 6 -9 12 0 12 1 18 24 18 25 -8 -1 -8 -1
-28 -15z"/>
<path d="M6437 1813 l-7 -6 0 -24 0 -23 -10 0 -10 0 0 -13 0 -14 39 -13 40
-13 14 6 14 5 13 -8 14 -9 9 6 8 5 -16 18 -16 18 10 7 11 6 6 -14 5 -15 37 2
37 2 19 9 18 8 10 -16 9 -17 7 0 7 0 23 34 23 33 -7 17 -7 18 -41 -6 -41 -6
-30 -5 -30 -5 -41 -6 -40 -6 -13 16 -13 16 -23 0 -22 0 -6 -7z"/>
<path d="M3000 1787 l0 -27 32 0 31 0 19 -17 18 -17 12 12 11 11 -19 7 -19 7
-8 14 -8 13 -22 0 -23 0 -12 12 -12 12 0 -27z"/>
<path d="M4337 1784 l-6 -7 5 -8 5 -9 58 0 57 0 20 15 19 14 -76 1 -76 0 -6
-6z"/>
<path d="M4947 1783 l-19 -5 18 -19 17 -19 -17 -5 -16 -5 -17 -6 -17 -5 14 -9
15 -10 68 0 67 0 0 15 0 15 -27 6 -26 7 17 13 18 13 -7 10 -6 11 -32 -1 -32
-1 -18 -5z"/>
<path d="M5972 1757 l3 -22 39 -3 39 -3 10 10 9 9 22 -8 21 -8 19 -6 18 -6
-12 -15 -12 -15 -21 0 -21 0 19 -14 19 -14 16 6 15 5 22 19 21 20 5 18 5 18
-37 6 -36 5 -24 -6 -24 -6 -11 14 -11 14 -48 2 -48 3 3 -23z"/>
<path d="M4072 1753 l3 -18 20 0 20 0 3 18 3 17 -26 0 -26 0 3 -17z"/>
<path d="M4695 1748 l-5 -13 -59 3 -60 4 -18 -21 -17 -21 -108 0 -107 0 -6
-10 -6 -9 23 -6 23 -6 35 3 35 3 0 -15 0 -15 -45 -6 -45 -6 -29 8 -28 8 -43
-6 -43 -5 -21 21 -21 21 -32 0 -33 1 -19 14 -20 15 -27 0 -27 0 -11 14 -12 14
-32 -7 -32 -8 -63 5 -63 4 -62 -12 -62 -13 -12 -10 -13 -9 5 -9 5 -8 50 1 50
0 8 13 7 13 65 2 65 2 13 -1 12 -1 0 -15 0 -15 -59 0 -59 0 -17 -6 -17 -7 14
-8 13 -9 62 0 62 0 13 -27 13 -28 48 -3 47 -3 0 10 0 10 -10 6 -10 6 0 20 0
20 15 5 15 6 33 -14 32 -15 57 -13 58 -13 -6 -53 -7 -53 28 -11 29 -11 27 11
28 12 16 18 17 18 -21 21 -21 21 0 15 0 15 13 1 12 1 70 -2 70 -2 3 -9 4 -9
15 -15 14 -15 -13 -5 -13 -4 -25 -3 -25 -3 3 -10 3 -10 35 3 36 3 4 -18 5 -18
144 0 145 0 2 10 3 10 -65 3 -65 2 -13 5 -13 5 6 10 6 10 142 0 142 -1 19 -14
20 -15 35 1 36 0 20 9 20 8 -40 7 -40 7 -15 4 -15 5 17 10 18 10 87 -3 88 -3
0 -25 0 -24 -24 -6 -25 -6 -4 -12 -4 -12 76 0 75 0 6 -10 6 -10 8 0 8 0 11 25
12 26 0 6 0 7 -13 -18 -13 -17 -27 12 -27 12 0 11 0 11 9 14 9 14 38 6 37 6 5
13 4 12 -41 0 -40 0 -6 10 -6 9 13 20 13 21 -20 15 -20 15 -95 -2 -95 -2 -20
-13 -19 -13 -33 0 -33 0 0 -15 0 -15 44 0 44 0 12 15 12 15 94 0 94 0 0 -14 0
-14 -35 1 -34 1 -19 -17 -19 -17 -104 0 -104 -1 -19 -14 -20 -15 -52 0 -53 0
-8 13 -7 12 -2 13 -2 12 -24 20 -23 19 -18 1 -18 0 -6 16 -6 17 17 12 16 12
-6 17 -6 16 -9 0 -10 0 -4 -12z m-47 -48 l12 0 0 -24 0 -24 -15 -12 -14 -12
14 -29 15 -28 0 -11 0 -10 -26 6 -27 7 -41 1 -41 1 0 50 0 50 20 4 20 3 14 20
13 20 22 -6 21 -6 13 0z m-43 -170 l-7 -12 -10 10 -10 10 7 12 7 12 10 -10 10
-10 -7 -12z"/>
<path d="M4577 1663 l-7 -6 0 -19 0 -18 20 0 20 0 0 25 0 25 -13 0 -14 0 -6
-7z"/>
<path d="M6320 1751 l-25 -8 32 -7 33 -7 10 6 10 6 -5 10 -6 9 -12 -1 -12 -1
-25 -7z"/>
<path d="M4155 1719 l-7 -10 3 -3 4 -3 41 -7 42 -6 11 14 12 14 -10 7 -11 6
-18 -10 -18 -10 -15 10 -14 9 -7 0 -7 0 -6 -11z"/>
<path d="M6669 1696 l-26 -11 10 -22 10 -23 19 -6 19 -6 25 6 25 7 11 24 11
25 -4 4 -4 3 -35 5 -35 5 -26 -11z"/>
<path d="M5599 1689 l-13 -8 30 -7 29 -6 13 -16 12 -16 29 17 29 17 164 0 163
0 13 9 14 8 -27 7 -28 7 -208 -2 -208 -2 -12 -8z"/>
<path d="M6560 1680 l0 -21 18 3 17 3 0 15 0 15 -17 3 -18 3 0 -21z"/>
<path d="M6167 1640 l-48 -30 -10 0 -11 0 4 -12 5 -13 53 -5 53 -5 5 -12 4
-13 -54 0 -53 0 -13 -9 -14 -8 17 -7 17 -6 63 0 63 0 15 6 15 5 -5 19 -5 18
21 11 21 12 17 26 17 25 -19 14 -19 14 -46 0 -46 0 -47 -30z"/>
<path d="M6428 1657 l-38 -10 5 -24 5 -23 5 -25 5 -25 35 0 35 0 0 10 0 10 25
6 25 6 0 14 0 14 -10 0 -10 0 0 20 0 20 13 1 12 0 -20 9 -20 9 -15 -1 -15 -1
-37 -10z"/>
<path d="M7880 1628 l-35 -22 -3 -8 -4 -8 -18 0 -18 0 -12 -15 -12 -15 -19 0
-18 0 -15 -15 -15 -15 -18 0 -18 0 -29 -15 -28 -15 -17 0 -16 0 -27 -14 -27
-14 -31 -7 -31 -7 3 -16 3 -17 23 -3 23 -4 22 15 22 14 43 8 42 7 6 9 5 9 23
0 22 0 20 15 19 14 21 1 22 0 11 14 12 14 24 6 25 6 0 10 0 10 16 0 15 0 35
26 34 27 -11 13 -11 14 -12 0 -11 0 -35 -22z"/>
<path d="M6026 1622 l-5 -8 8 -13 8 -13 21 4 20 3 -23 18 -24 17 -5 -8z"/>
<path d="M5408 1599 l-18 -19 0 -15 0 -15 17 0 17 0 43 -21 43 -21 0 -14 0
-14 14 0 13 0 24 18 24 17 22 12 21 12 30 -11 29 -11 18 6 17 7 -6 15 -5 15
27 1 27 1 21 -1 20 -2 28 11 29 11 18 -6 19 -6 0 -17 0 -18 -27 -12 -28 -12
-28 -16 -28 -16 12 -14 11 -14 -6 -16 -6 -17 -38 6 -37 6 -14 -8 -14 -9 19 -4
19 -5 124 -2 125 -2 8 -5 8 -5 0 -10 0 -9 -34 0 -35 0 -6 -20 -6 -20 6 -19 6
-19 25 -17 25 -16 9 6 9 6 19 -12 19 -12 31 23 31 23 -5 9 -5 8 -23 0 -22 0
-11 -11 -11 -11 -29 14 -28 13 2 10 3 10 37 3 38 3 13 16 12 17 0 13 0 13 -24
0 -24 0 -5 14 -6 15 -51 3 -50 3 0 10 -1 10 45 5 45 6 7 6 6 7 -23 5 -24 5
-19 3 -19 3 -5 13 -4 12 43 0 42 0 22 -25 23 -24 -14 -12 -14 -11 6 -9 5 -9
10 0 9 0 20 20 21 21 -30 37 -29 37 -7 23 -7 23 -16 -7 -17 -7 -23 0 -23 1
-18 16 -18 17 -224 -1 -224 -1 -15 4 -15 5 -17 -19z m187 -29 l6 -9 -25 -7
-24 -6 -18 4 -17 3 -5 13 -4 12 41 0 40 0 6 -10z"/>
<path d="M6666 1589 l-28 -30 17 -13 18 -13 -12 -21 -12 -22 -13 0 -14 0 -5
21 -6 21 -10 -7 -11 -6 0 -15 0 -14 15 0 15 0 0 -10 0 -10 -20 -20 -19 -19
-81 -10 -80 -10 -14 5 -14 6 -21 -12 -21 -11 0 -29 0 -29 16 -9 17 -9 -13 -8
-13 -8 -119 -2 -118 -2 -7 -7 -6 -6 14 -1 14 -2 90 -1 90 -1 3 -18 3 -17 -23
-10 -23 -10 58 3 58 4 5 -9 5 -8 19 0 19 0 6 21 7 20 15 -5 15 -6 14 0 14 0 0
-10 0 -10 -32 -14 -33 -13 43 -12 42 -12 0 -10 0 -10 35 3 35 3 1 10 0 10 -23
6 -23 5 3 35 3 34 21 16 21 17 -23 12 -23 12 15 9 16 9 56 3 56 3 -2 10 -3 9
-17 -2 -18 -3 0 11 0 10 22 29 21 29 -13 16 -13 15 17 18 16 19 0 17 0 17 13
4 12 3 39 7 40 7 -15 9 -14 9 -21 0 -21 0 -18 20 -18 20 -6 0 -6 -1 -29 -30z
m-42 -194 l-16 -25 -29 0 -29 0 0 -14 0 -14 -34 -6 -33 -6 5 -26 5 -26 -24 4
-24 3 -3 23 -4 24 17 12 17 12 -2 15 -2 14 1 13 1 12 24 0 24 0 12 -15 12 -15
27 20 26 19 23 1 22 0 -16 -25z"/>
<path d="M2830 1565 l0 -15 18 0 17 -1 19 -14 20 -15 33 0 34 0 5 -15 6 -15
23 0 23 0 12 -15 12 -15 29 0 29 0 0 14 0 14 -15 6 -15 5 0 26 0 25 -9 0 -9 0
-12 -15 -12 -15 -25 0 -24 0 -15 15 -15 15 -30 0 -30 0 -5 15 -6 15 -29 0 -29
0 0 -15z"/>
<path d="M4133 1565 l-6 -16 19 -14 19 -14 18 -1 17 0 0 24 0 24 -16 6 -16 6
-14 0 -15 0 -6 -15z"/>
<path d="M6950 1545 l-12 -15 16 0 16 0 0 15 0 15 -4 0 -4 0 -12 -15z"/>
<path d="M3750 1535 l0 -15 9 0 9 0 16 -6 16 -6 0 21 0 21 -25 0 -25 0 0 -15z"/>
<path d="M3928 1542 l-18 -3 0 -9 0 -9 44 1 44 0 13 9 14 9 -15 1 -15 2 -25 1
-25 2 -17 -4z"/>
<path d="M4065 1540 l-6 -10 15 -6 15 -6 11 7 10 6 -5 10 -6 9 -14 0 -14 0 -6
-10z"/>
<path d="M6455 1523 l-30 -15 -12 -15 -12 -15 6 -14 5 -14 10 0 10 0 35 17 35
16 19 -11 19 -12 20 0 20 0 0 15 0 15 -16 0 -15 0 -32 24 -32 24 -30 -15z"/>
<path d="M4877 1513 l-7 -6 0 -8 0 -7 23 -6 22 -6 -17 -14 -18 -13 0 -10 0
-10 54 -1 55 0 11 13 11 14 34 -6 34 -5 25 6 26 6 0 15 0 15 -79 0 -79 0 -12
15 -12 15 -33 0 -32 0 -6 -7z"/>
<path d="M3771 1493 l-31 -13 0 -10 0 -10 -15 0 -15 0 0 -9 0 -10 -23 -25 -23
-25 -41 6 -40 5 -22 -11 -21 -12 0 -7 0 -7 53 1 52 1 15 6 15 5 42 6 42 6 6
-10 6 -10 27 0 27 1 24 20 24 20 -9 9 -9 9 -49 3 -49 3 -4 11 -4 12 24 6 24 6
104 -5 104 -5 3 -14 3 -14 -23 -16 -22 -16 -23 0 -22 0 -6 -11 -7 -10 -26 -10
-25 -10 11 -11 12 -12 42 11 42 11 20 -10 21 -11 13 -14 13 -13 33 0 33 0 23
25 23 24 -25 10 -25 9 -7 18 -6 17 17 19 17 18 10 -10 10 -10 118 0 119 0 29
22 30 22 0 8 0 8 -16 0 -15 0 -15 -15 -14 -14 -102 0 -102 1 -26 12 -25 13
-93 1 -94 2 -10 6 -11 7 -52 1 -53 1 -31 -12z"/>
<path d="M7941 1486 l-12 -14 -24 -6 -25 -6 0 -10 0 -10 -19 0 -20 0 -14 -15
-15 -14 -26 -7 -26 -6 0 -9 0 -9 -25 0 -26 0 -5 -15 -6 -15 -24 0 -25 0 -5
-15 -6 -15 -12 0 -11 0 -47 -22 -48 -23 0 -18 0 -18 -10 -19 -10 -18 16 -13
16 -13 17 19 16 20 36 13 35 12 30 0 30 0 22 20 22 21 0 14 0 14 -17 10 -18
10 22 1 22 0 43 22 43 22 3 8 4 8 16 0 17 1 39 22 39 23 14 20 14 21 -14 12
-14 11 -12 -14z m-256 -196 l-6 -9 -15 6 -16 6 13 8 13 8 8 -5 8 -5 -5 -9z"/>
<path d="M2240 1470 l0 -21 10 -12 9 -12 30 -35 30 -35 6 17 7 17 -31 30 -31
30 0 21 0 20 -15 0 -15 0 0 -20z"/>
<path d="M5350 1481 l0 -9 15 -6 16 -6 62 7 62 7 -50 7 -50 7 -27 1 -28 1 0
-9z"/>
<path d="M5695 1481 l-30 -7 37 -6 37 -7 22 6 23 6 -20 8 -19 8 -10 -1 -10 0
-30 -7z"/>
<path d="M3127 1454 l-6 -7 5 -8 5 -9 35 0 34 0 0 15 0 15 -33 0 -34 0 -6 -6z"/>
<path d="M4715 1438 l-25 -19 10 -18 9 -18 -6 -7 -6 -6 -48 0 -48 0 -5 -9 -6
-9 31 -6 32 -6 118 0 118 0 6 -9 5 -10 -12 -7 -12 -7 -150 2 -151 2 -23 22
-22 22 16 23 15 22 19 0 19 0 11 19 10 20 -11 7 -11 6 -11 -11 -11 -11 -38 0
-39 0 -49 -37 -49 -37 5 -8 5 -8 18 0 19 0 11 -14 12 -14 35 -6 35 -7 -6 -10
-6 -9 -44 0 -44 0 -6 -9 -5 -10 18 -6 19 -5 99 15 98 16 20 -5 21 -4 65 7 65
7 39 -19 38 -19 41 4 42 3 3 -17 3 -17 -41 -3 -40 -3 -3 -10 -2 -10 38 -3 38
-3 13 11 13 10 24 -19 24 -20 -15 -5 -15 -5 -49 -3 -49 -3 -5 -12 -4 -13 106
0 106 0 0 19 0 19 46 -1 47 -2 4 11 4 11 -42 6 -42 6 -17 -21 -17 -21 -17 6
-17 7 3 22 3 23 35 -3 35 -3 29 30 30 31 -22 0 -21 0 -6 -10 -6 -10 -24 0 -24
0 -13 28 -14 27 -33 -3 -33 -2 4 16 3 17 38 13 37 13 23 -24 22 -24 65 9 65 9
8 -8 9 -9 -4 -18 -4 -19 -13 3 -13 3 -21 -7 -20 -6 16 -10 17 -9 42 12 43 12
18 15 17 15 26 -11 25 -12 18 0 19 0 14 22 15 22 32 -14 32 -13 -10 -10 -11
-11 0 -13 0 -13 23 0 22 0 11 8 11 7 7 23 7 22 20 10 19 11 0 15 0 15 15 5 15
6 0 20 0 19 -72 -7 -73 -7 -40 -12 -40 -13 -27 -6 -27 -6 -32 35 -32 35 -46 0
-46 0 -13 -9 -14 -8 17 -7 17 -6 23 0 24 0 6 -10 6 -9 -32 -16 -31 -17 -11 11
-11 11 -17 0 -17 0 -12 15 -12 15 -55 0 -55 0 -45 -31 -46 -30 -13 5 -14 5 0
20 0 20 -47 3 -48 3 -3 31 -3 31 -54 1 -54 0 -26 -20z m834 -67 l14 -9 -7 -11
-7 -11 -23 0 -23 0 -6 7 -7 6 11 14 11 13 12 0 11 0 14 -9z m-564 -71 l6 -10
-15 -6 -16 -6 -16 6 -15 6 6 10 6 10 19 0 19 0 6 -10z"/>
<path d="M8305 1450 l-6 -10 -29 0 -28 0 -6 -15 -5 -15 -34 0 -35 0 -11 -14
-12 -14 -24 -6 -25 -6 0 -10 0 -10 -24 0 -24 0 -12 -15 -12 -15 -22 0 -22 0
-19 -14 -20 -13 -27 -7 -28 -6 0 -10 0 -10 -28 0 -28 0 -20 -15 -19 -14 -25
-1 -26 0 -19 -14 -20 -13 -45 -6 -45 -6 -42 -21 -43 -20 0 -9 0 -9 25 -6 25
-6 36 15 36 15 27 0 27 0 20 15 19 14 28 1 27 0 0 -10 0 -10 -15 0 -15 0 0
-15 0 -15 24 0 25 0 6 10 6 10 34 0 34 0 15 15 15 15 21 0 22 0 31 13 32 14
51 16 52 17 15 0 16 0 21 22 20 22 0 13 0 13 -20 0 -21 0 -24 -16 -25 -16 -27
7 -28 8 33 10 32 10 0 8 0 9 23 0 23 0 20 15 19 14 22 1 22 0 14 14 14 14 29
4 29 3 3 21 3 21 -15 12 -14 12 -7 -11z m-335 -210 l0 -10 -31 0 -31 0 -5 -20
-5 -20 -39 0 -38 0 -6 10 -6 10 28 0 28 0 35 19 35 20 18 0 17 1 0 -10z"/>
<path d="M6263 1443 l27 -4 28 4 27 4 -55 0 -55 0 28 -4z"/>
<path d="M3222 1418 l4 -11 45 -13 44 -14 13 5 12 4 0 11 0 10 -20 0 -20 0 0
10 0 10 -41 0 -41 0 4 -12z"/>
<path d="M6183 1404 l-13 -6 0 -29 0 -29 31 0 32 0 34 21 34 22 -9 9 -10 10
-44 4 -43 3 -12 -5z"/>
<path d="M3368 1387 l-28 -11 0 -18 0 -18 -39 0 -40 0 -6 -10 -6 -9 30 -16 30
-15 28 11 28 10 18 20 18 19 22 0 23 0 12 -12 11 -11 -19 -25 -20 -25 0 -13 0
-14 24 0 23 0 27 21 27 21 -10 12 -9 11 -4 25 -3 25 -30 3 -30 4 -8 14 -8 14
-17 -1 -17 -1 -27 -11z"/>
<path d="M4162 1393 l-12 -5 6 -9 5 -9 30 0 30 0 -3 -60 -2 -60 12 -12 11 -11
27 12 26 12 -6 23 -6 23 23 20 22 21 19 4 20 3 -2 10 -1 10 -28 3 -28 4 -18
16 -18 16 -20 -12 -19 -12 -20 10 -19 10 -8 -1 -8 -1 -13 -5z"/>
<path d="M3106 1346 l-6 -24 -35 -12 -35 -12 0 -9 0 -9 -14 0 -15 0 -6 -10 -6
-10 18 -7 18 -7 13 -13 13 -13 34 0 33 0 5 -14 6 -15 175 0 176 0 5 9 5 8 -17
7 -18 6 -75 -1 -75 -2 -16 7 -16 6 -67 -9 -66 -9 -5 5 -5 5 0 14 0 15 33 -3
32 -2 38 2 39 1 -4 13 -5 12 -27 5 -27 5 -14 25 -14 25 -5 18 -5 17 -30 0 -29
0 -6 -24z m12 -83 l4 -13 -41 0 -41 0 0 16 0 15 37 -3 36 -3 5 -12z"/>
<path d="M3661 1319 l-24 -20 12 -12 11 -11 20 12 20 12 6 0 6 0 -7 -32 -7
-33 -21 -17 -22 -18 -18 0 -18 0 11 -20 11 -20 20 0 20 0 15 15 15 15 15 0 14
0 0 -15 0 -16 -15 -5 -16 -6 6 -19 7 -20 -31 -10 -31 -11 0 -6 0 -7 8 -11 7
-11 50 -7 50 -8 22 -14 22 -14 56 0 57 0 -4 13 -5 12 -44 5 -44 5 0 39 0 39
-12 4 -13 5 0 14 0 14 18 0 17 0 14 9 15 9 -35 10 -34 9 2 21 3 21 -21 6 -20
7 3 16 3 17 45 1 45 0 25 3 25 3 -53 14 -53 15 -30 -15 -29 -14 0 18 0 18 -22
6 -23 6 -10 0 -10 -1 -24 -20z"/>
<path d="M5833 1323 l17 -4 18 4 17 5 -35 0 -35 0 18 -5z"/>
<path d="M8444 1305 l-6 -15 -28 0 -28 0 -6 -15 -5 -15 -19 0 -20 0 -12 -15
-12 -15 -18 0 -18 0 -12 -15 -12 -15 -14 0 -14 0 -52 -28 -53 -29 -27 -7 -28
-6 0 -10 0 -10 -24 0 -25 0 -15 -15 -15 -15 -31 -6 -30 -7 -6 -8 -5 -9 -21 0
-20 0 -26 -13 -27 -14 -33 -16 -34 -17 -17 0 -17 0 -20 -15 -19 -14 -26 -1
-25 0 -22 -25 -22 -25 0 -9 0 -9 20 -5 20 -5 14 14 15 14 20 0 20 0 15 15 15
15 18 0 19 0 20 15 19 14 23 1 23 0 5 15 6 15 24 0 24 0 37 20 38 20 11 0 12
0 6 16 6 16 17 -6 17 -7 16 21 15 20 34 -18 33 -18 -3 -9 -4 -10 -29 0 -28 -1
-14 -18 -13 -19 -16 7 -16 6 -22 -11 -21 -12 17 -12 17 -12 25 5 25 4 0 14 0
13 41 -2 41 -1 9 17 10 17 24 0 24 0 6 10 6 10 29 0 29 0 15 16 16 15 37 -3
38 -3 -47 -23 -47 -22 -10 0 -11 0 0 -10 0 -9 -37 -6 -38 -6 -30 -13 -30 -13
-35 -13 -35 -13 -42 -4 -42 -5 -12 -14 -11 -14 -35 0 -34 0 -5 -15 -6 -15 -45
0 -44 0 -15 -15 -15 -15 -24 0 -24 0 -6 -10 -6 -10 -23 0 -22 0 -20 -15 -19
-14 -26 -1 -26 0 -36 -35 -37 -36 0 -14 0 -15 15 0 15 0 0 10 0 10 30 0 31 0
5 15 6 15 37 0 37 0 19 14 20 13 48 7 47 7 0 10 0 9 44 0 45 0 15 15 15 15 28
0 29 0 20 15 19 14 28 1 27 0 17 19 16 20 27 -6 27 -5 16 16 16 16 18 0 18 0
29 15 28 15 20 0 20 0 46 41 47 41 23 9 22 9 0 17 0 18 -8 10 -7 10 -32 11
-32 12 -48 -5 -48 -6 -15 -12 -15 -13 -46 -6 -46 -7 -16 7 -17 6 6 9 5 9 10
-5 9 -6 32 15 33 14 23 7 22 6 0 10 0 9 24 0 24 0 12 15 12 15 25 0 24 0 5 15
6 15 19 0 18 0 27 25 26 24 -6 16 -5 15 -16 0 -16 0 -5 -15z"/>
<path d="M3595 1301 l-5 -10 10 -6 10 -6 10 6 10 6 -5 10 -6 9 -9 0 -9 0 -6
-9z"/>
<path d="M4100 1302 l0 -8 10 -10 11 -11 -16 -29 -15 -29 -42 0 -43 0 2 -23 3
-23 -13 -4 -12 -3 -37 -7 -38 -6 0 -10 0 -10 11 6 10 7 25 -6 24 -6 0 -15 0
-14 -21 -6 -21 -7 5 -4 5 -5 41 -4 41 -4 30 -23 30 -22 -14 -8 -15 -8 -57 2
-57 3 -3 -10 -4 -10 85 -17 86 -16 30 11 30 12 10 -18 10 -17 28 0 28 0 6 -6
5 -6 86 -2 86 -3 0 8 0 7 -6 16 -6 16 -16 0 -15 0 -17 15 -16 14 -57 2 -57 2
-18 -16 -19 -17 -10 0 -11 0 -6 15 -5 15 -19 0 -19 0 -16 18 -17 18 -6 32 -6
31 -19 17 -19 17 23 23 22 24 32 0 32 0 6 9 6 10 -21 11 -20 11 0 9 0 10 11 0
12 0 13 18 13 17 1 13 0 12 -40 0 -40 0 0 -8z"/>
<path d="M4015 1271 l-6 -11 15 -6 15 -6 16 4 16 3 0 10 0 10 -25 3 -24 3 -7
-10z"/>
<path d="M4315 1270 l-6 -10 14 -6 15 -5 34 3 33 3 0 10 0 10 -42 3 -41 3 -7
-11z"/>
<path d="M4679 1247 l-25 -14 -55 -8 -54 -7 -33 1 -33 1 -24 -16 -25 -16 0
-13 0 -12 21 -19 20 -18 19 12 20 12 18 0 18 0 17 20 17 20 17 1 18 2 50 -2
50 -3 11 -14 11 -14 52 0 51 0 0 15 0 16 -15 29 -16 30 -32 0 -32 0 -20 5 -20
5 -26 -13z"/>
<path d="M2532 1238 l5 -13 16 -3 17 -3 0 15 0 16 -21 0 -21 0 4 -12z"/>
<path d="M3831 1241 l-15 -10 26 -6 26 -7 21 4 22 3 2 10 2 10 -35 3 -35 2
-14 -9z"/>
<path d="M5427 1243 l-7 -6 0 -9 0 -8 25 0 25 0 0 15 0 15 -18 0 -19 0 -6 -7z"/>
<path d="M2955 1210 l-6 -10 25 -12 26 -11 0 -9 0 -8 18 0 17 0 29 -15 28 -15
13 0 13 0 12 -15 12 -15 21 0 21 0 26 -25 26 -24 24 -3 25 -3 3 23 4 24 21 -7
22 -6 28 -5 29 -4 19 10 19 11 0 13 0 14 -22 0 -23 0 -30 8 -30 7 -11 15 -11
14 -44 -6 -44 -6 -17 -1 -18 0 -5 -10 -6 -9 -19 0 -20 0 -6 24 -6 24 -21 6
-22 6 -27 0 -27 0 -15 15 -15 15 -15 0 -15 0 -6 -10z"/>
<path d="M5301 1211 l-15 -10 27 -6 27 -7 35 6 36 7 -6 10 -6 9 -42 0 -42 0
-14 -9z"/>
<path d="M4224 1180 l-10 -10 -24 -5 -24 -5 -8 -15 -9 -15 -19 0 -19 0 -6 -10
-6 -10 15 -5 16 -5 16 -5 17 -5 -17 -18 -16 -19 0 -6 0 -7 38 0 39 0 6 7 7 6
-17 12 -16 12 7 11 7 12 53 0 52 0 20 -15 19 -14 18 -1 17 0 0 18 0 17 -8 11
-7 11 -22 7 -23 7 0 25 0 24 -43 0 -43 0 -10 -10z"/>
<path d="M6810 1153 l-24 -17 -39 -2 -38 -2 -12 -10 -12 -9 -47 -7 -48 -7 -5
-10 -6 -9 -32 0 -32 0 -26 -14 -26 -13 -49 -8 -49 -7 -15 -13 -15 -13 -34 -4
-34 -3 -4 -11 -4 -11 31 -7 31 -6 32 14 32 13 47 7 48 7 5 10 6 9 38 0 37 0
20 15 19 14 35 1 35 0 29 15 28 15 22 0 21 0 29 15 28 15 23 0 23 0 16 6 16 6
0 19 0 19 -38 0 -38 0 -24 -17z"/>
<path d="M7928 1136 l-17 -24 6 -6 6 -6 29 0 29 0 -3 27 -3 28 -15 2 -15 3
-17 -24z"/>
<path d="M4636 1134 l-6 -16 0 -4 0 -4 18 0 19 0 18 -20 19 -21 45 3 46 3 0
15 0 15 -47 3 -48 3 0 20 0 19 -29 0 -29 0 -6 -16z"/>
<path d="M3867 1124 l-6 -7 5 -8 5 -8 14 6 15 5 0 9 0 9 -13 0 -14 0 -6 -6z"/>
<path d="M7551 1101 l-14 -9 6 -16 6 -16 75 0 74 0 16 6 16 6 0 19 0 19 -82 0
-83 0 -14 -9z"/>
<path d="M4457 1093 l-7 -6 0 -8 0 -7 20 -5 20 -5 0 -16 0 -16 16 0 15 0 47
11 47 12 4 3 4 3 -24 20 -24 20 -56 1 -56 0 -6 -7z"/>
<path d="M4952 1064 l3 -15 8 0 7 1 20 0 20 0 0 15 0 15 -31 0 -30 0 3 -16z"/>
<path d="M6955 1066 l-20 -15 -28 -1 -28 0 -46 -21 -46 -21 -31 6 -31 6 -30
-16 -30 -16 -49 -3 -49 -3 -12 -16 -12 -16 -67 0 -67 0 -5 -15 -6 -15 -63 0
-63 0 -6 -15 -5 -15 -61 0 -61 0 -5 -15 -6 -15 -69 0 -70 0 -5 -15 -6 -16 -14
11 -13 11 -20 -10 -20 -11 -33 0 -34 0 -11 -11 -11 -11 -43 -3 -44 -4 -63 -6
-63 -7 3 -21 3 -22 47 -3 47 -3 30 15 30 16 38 0 38 1 19 14 20 15 37 0 37 0
35 15 36 15 50 0 49 0 6 15 5 15 59 0 60 0 12 15 12 15 58 0 58 0 6 15 5 15
70 0 69 0 4 12 4 12 56 1 56 1 16 13 15 12 62 4 62 4 11 11 10 10 41 0 41 0
20 14 20 14 35 4 34 3 0 20 0 20 -30 3 -30 3 -20 -15z"/>
<path d="M2777 1064 l-6 -7 22 -23 22 -24 13 0 12 0 0 -15 0 -15 24 0 24 0 6
-15 5 -15 21 0 20 0 0 -15 0 -15 20 0 20 0 0 15 0 15 -20 0 -20 0 0 10 0 10
-25 10 -25 10 0 10 0 10 -25 0 -25 0 0 15 0 15 -14 0 -14 0 -6 15 -5 15 -9 0
-9 0 -6 -6z"/>
<path d="M1790 1032 l0 -8 30 -24 29 -25 1 -12 0 -13 14 0 15 0 5 8 5 9 -24
21 -25 22 -10 0 -10 0 0 15 0 15 -15 0 -15 0 0 -8z"/>
<path d="M3805 970 l-20 -8 27 -7 27 -7 18 11 18 10 -12 1 -11 0 -14 4 -13 5
-20 -9z"/>
<path d="M7060 941 l-15 -8 -54 -6 -53 -6 -12 -9 -11 -10 -59 -7 -60 -7 -25
-10 -26 -10 -66 -4 -66 -4 -29 -15 -29 -15 -63 0 -63 0 -20 -11 -20 -10 -71
-5 -72 -5 -13 -11 -13 -11 -86 -3 -86 -3 -17 -16 -18 -15 -117 0 -117 0 -5
-15 -6 -15 -79 0 -80 0 -5 14 -5 14 -32 14 -32 13 -91 0 -91 0 -14 -12 -15
-12 -117 -2 -117 -3 -11 -7 -12 -7 19 -5 19 -6 118 2 118 2 9 15 9 15 73 -4
73 -3 10 -6 10 -6 -25 -7 -25 -7 -36 -1 -37 -1 -35 -15 -35 -14 -147 -2 -147
-2 -8 13 -8 13 -121 3 -120 3 -6 -9 -5 -9 17 -4 18 -5 74 0 74 -1 11 -11 10
-10 38 0 37 0 11 -21 12 -21 56 5 57 5 95 16 95 15 30 6 30 6 165 8 165 9 40
11 40 11 91 0 92 0 12 15 12 15 89 0 89 0 0 -15 0 -15 -59 0 -59 0 -16 -6 -16
-6 6 -9 5 -9 68 0 69 0 12 15 12 14 64 3 64 3 3 10 2 10 -72 3 -73 3 0 15 0
14 68 -1 67 -1 23 -14 23 -15 56 3 56 3 5 13 4 12 -30 0 -30 0 -31 6 -31 7 0
7 0 7 57 -1 56 -1 5 -12 4 -13 54 0 55 0 5 15 6 15 53 0 54 0 6 10 6 10 36 0
35 0 26 14 27 14 56 16 56 16 41 0 40 0 16 6 16 6 0 10 0 10 -22 19 -23 18 -5
0 -5 0 -15 -8z"/>
<path d="M8191 900 l-54 -30 -14 0 -15 0 -26 -13 -27 -14 -33 -16 -34 -17 -22
0 -22 0 -20 -15 -19 -14 -22 -1 -22 0 -15 -15 -15 -15 -33 0 -34 0 -20 -14
-20 -14 -24 -4 -25 -3 0 -20 0 -20 38 -3 37 -3 6 15 6 16 39 0 40 0 5 15 6 15
32 0 32 0 20 15 19 14 21 1 20 0 20 15 19 14 28 1 28 0 5 15 6 15 33 0 33 0
12 15 12 15 28 0 27 0 17 19 18 20 -4 18 -3 18 -15 2 -15 2 -54 -29z"/>
<path d="M5460 881 l0 -10 19 -6 19 -6 81 2 81 2 0 12 0 11 -100 2 -100 3 0
-10z"/>
<path d="M7154 825 l-19 -14 -27 -1 -27 0 -6 10 -6 10 -29 0 -29 0 -6 -10 -6
-10 -34 0 -34 0 -43 -14 -43 -14 -45 -7 -45 -7 -14 -11 -14 -12 -34 -2 -35 -2
-18 -16 -18 -16 -38 2 -39 2 -35 -10 -35 -11 -49 -7 -49 -7 -16 -8 -16 -8 -80
-11 -80 -10 -75 -11 -75 -11 -33 -10 -34 -11 -79 -4 -79 -3 -17 -9 -18 -10
-95 -7 -95 -7 -70 -14 -70 -14 -50 1 -50 1 -25 7 -25 7 34 7 34 7 62 0 63 0
28 14 27 15 75 0 75 0 10 10 11 11 -7 6 -7 7 -96 -1 -95 -1 -12 -9 -12 -9
-120 -6 -120 -6 -100 -17 -100 -16 -15 -13 -15 -13 -20 14 -20 15 -45 -7 -45
-7 -19 -9 -18 -10 -91 1 -90 0 -19 -10 -19 -10 -272 -5 -271 -4 -66 -12 -65
-11 -25 1 -25 1 -54 -15 -53 -15 -27 9 -26 9 -191 2 -192 2 -7 -10 -6 -11 28
-11 28 -11 58 5 57 5 9 -16 9 -16 183 -3 184 -3 18 0 17 0 0 -14 0 -14 -12 -5
-13 -4 -200 4 -200 4 -145 9 -145 9 -150 1 -150 2 -20 11 -20 11 -120 7 -120
8 -37 6 -38 7 0 -14 0 -14 23 -19 22 -20 117 -6 117 -6 14 -11 13 -11 169 -4
170 -4 240 -11 240 -12 195 5 195 4 155 2 155 2 8 4 8 5 57 5 57 5 15 -2 15
-1 77 1 77 1 16 -25 17 -26 84 0 83 0 6 10 6 10 144 0 145 0 47 -11 48 -12 15
-5 15 -5 -50 -9 -50 -8 -20 -10 -20 -9 -68 -3 -68 -4 -7 -11 -7 -10 -79 -6
-79 -6 -10 -10 -11 -11 -36 0 -36 0 -20 -15 -19 -14 -16 -1 -16 0 -16 -18 -17
-19 0 -15 0 -15 23 -21 23 -22 41 0 41 0 11 13 11 13 -12 12 -12 12 -35 0 -36
1 35 19 35 19 46 1 45 0 20 15 19 14 53 1 53 0 36 15 35 15 52 0 51 0 29 15
28 15 37 0 36 0 23 24 22 24 0 6 0 7 -27 24 -28 24 -27 1 -28 0 0 15 0 15
-204 0 -205 0 -6 10 -6 10 -122 0 -122 0 -30 16 -29 15 -186 -1 -185 -1 -72 0
-73 1 0 9 0 9 106 7 106 7 121 5 122 4 290 10 290 9 25 12 25 13 222 0 222 0
12 13 13 12 92 0 93 0 17 17 17 18 111 0 111 1 22 12 22 12 53 1 53 0 50 10
50 10 65 10 65 10 25 0 25 0 35 0 34 0 13 11 14 11 61 2 62 3 10 14 11 15 49
1 48 0 11 11 10 10 -29 12 -29 13 23 4 23 4 34 -16 33 -16 29 0 29 0 19 14 20
13 64 6 63 5 11 11 11 11 42 0 42 0 12 14 11 15 22 3 22 3 3 23 3 22 -58 0
-59 0 -20 -15z m-3095 -461 l4 -4 -42 0 -42 0 6 10 6 9 32 -6 32 -6 4 -3z"/>
<path d="M5056 815 l-20 -15 -39 0 -39 0 -31 -14 -32 -14 -78 -5 -78 -4 -12
-12 -11 -11 -96 0 -96 0 -22 -15 -22 -16 -757 1 -756 0 -16 15 -17 14 -202 2
-203 2 -6 -7 -7 -6 10 -10 9 -9 193 -2 193 -2 26 -14 26 -13 555 0 555 1 11
-11 10 -10 -21 -22 -22 -21 -19 23 -18 23 -335 -11 -334 -10 -295 9 -295 8
-65 10 -65 10 -75 -5 -74 -4 -10 -10 -10 -10 -58 0 -58 0 0 -15 0 -16 167 1
168 0 310 -11 310 -11 275 3 275 3 138 -1 137 -1 0 8 0 9 113 1 112 0 252 2
251 2 16 -13 15 -12 74 -6 74 -6 8 12 7 12 -4 4 -3 4 -60 2 -60 3 -10 7 -10 7
-70 6 -70 6 -47 4 -47 5 -21 11 -21 11 -44 -7 -45 -6 -16 6 -16 6 12 16 13 15
98 -2 98 -1 16 16 16 16 63 0 63 0 43 15 43 15 54 0 55 0 26 14 27 14 20 7 19
6 -14 9 -15 10 -35 0 -35 -1 -19 -14z m-868 -157 l-5 -13 -23 0 -23 0 -4 13
-5 12 32 0 32 0 -4 -12z m182 3 l0 -9 -62 -4 -63 -4 -12 4 -13 4 0 9 0 9 75 0
75 0 0 -9z"/>
<path d="M2215 761 l-6 -10 23 -6 23 -6 120 3 120 3 -2 10 -3 10 -134 3 -134
3 -7 -10z"/>
<path d="M7853 679 l-11 -11 5 -14 5 -14 47 -1 46 -1 -39 -9 -39 -9 -14 -12
-14 -12 -123 2 -122 1 -28 -14 -28 -15 -37 0 -38 0 -29 -30 -29 -29 -16 -1
-15 0 -20 -15 -19 -14 -95 -1 -95 -1 -25 -14 -25 -14 -66 -1 -67 0 -11 -14
-12 -15 23 -14 23 -15 109 8 109 9 10 10 11 11 80 0 81 0 29 15 28 15 53 0 53
0 12 15 12 15 57 0 57 0 19 14 20 13 60 6 60 6 3 11 4 10 13 0 13 0 12 15 12
15 25 0 24 0 29 22 30 22 0 17 0 18 -22 15 -22 16 -51 0 -51 0 -11 -11z"/>
<path d="M5894 665 l-6 -15 -72 0 -71 0 -15 -10 -14 -9 18 -7 18 -7 75 7 76 6
11 9 12 10 69 3 68 3 5 13 4 12 -86 0 -87 0 -5 -15z"/>
<path d="M6890 645 l-12 -15 -40 0 -39 0 -5 -15 -6 -15 -44 0 -43 0 -43 -14
-43 -14 -58 -4 -59 -5 -6 -10 -7 -10 -73 -5 -73 -5 -12 -12 -11 -11 -55 0 -56
0 -29 -15 -28 -15 -62 -1 -61 -1 -30 -13 -30 -13 -67 -6 -68 -5 -18 -10 -18
-10 -108 -5 -109 -6 -13 -11 -13 -11 -112 -4 -112 -3 -5 -6 -6 -5 11 -11 12
-12 109 -1 109 -1 16 13 16 14 107 3 108 3 10 14 11 14 76 0 77 0 13 11 14 11
78 4 78 5 12 12 11 11 70 0 71 0 29 15 28 15 43 0 42 0 49 15 49 15 38 0 38 0
36 15 35 15 45 0 44 0 5 15 6 15 52 0 52 0 20 14 20 14 24 4 25 3 0 20 0 20
-51 3 -51 3 -13 -16z"/>
<path d="M8934 615 l-6 -14 7 -11 6 -10 30 0 29 0 0 25 0 25 -30 0 -31 0 -5
-15z"/>
<path d="M4807 584 l-6 -7 5 -8 5 -9 30 0 29 0 0 15 0 15 -28 0 -29 0 -6 -6z"/>
<path d="M3165 550 l-7 -12 10 -10 11 -11 16 7 17 6 -4 13 -5 12 -15 3 -16 3
-7 -11z"/>
<path d="M8875 550 l-6 -10 6 -10 6 -10 10 0 9 0 0 14 0 15 -9 6 -10 5 -6 -10z"/>
<path d="M3230 531 l-15 -10 11 -11 11 -11 44 3 44 3 0 15 0 15 -40 3 -40 2
-15 -9z"/>
<path d="M3377 533 l-7 -6 11 -14 11 -13 24 0 23 0 7 11 7 11 -14 9 -14 9 -21
0 -21 0 -6 -7z"/>
<path d="M8875 461 l-6 -11 15 -6 15 -6 16 4 16 3 0 10 0 10 -25 3 -24 3 -7
-10z"/>
<path d="M6465 400 l-5 -9 7 -4 8 -5 73 -1 72 -1 0 15 0 15 -75 -1 -75 -1 -5
-8z"/>
<path d="M6202 374 l-22 -15 -130 -2 -130 -1 0 -11 0 -11 -57 -16 -58 -17 -83
-5 -83 -5 -22 -16 -21 -15 -28 0 -28 0 0 -14 0 -14 28 -18 27 -19 118 1 118 1
12 12 11 11 76 0 75 0 23 6 22 6 0 14 0 14 -74 0 -74 0 -16 6 -16 6 0 8 0 9
103 5 102 5 82 8 82 9 13 11 13 11 63 8 63 7 -4 11 -4 11 -39 7 -39 7 -40 0
-41 1 -22 -16z m-428 -120 l16 -6 -6 -9 -5 -9 -47 0 -47 0 -22 6 -23 6 6 9 5
9 54 0 53 0 16 -6z m53 -21 l-6 -5 -11 7 -12 8 13 8 14 8 4 -10 3 -10 -5 -6z"/>
<path d="M6450 306 l0 -36 -7 -1 -8 -1 -67 -3 -67 -2 -13 -11 -14 -11 -69 -3
-70 -3 0 -20 0 -20 142 -3 143 -3 -12 -19 -13 -20 -35 0 -36 0 -19 -14 -20
-13 -54 -6 -54 -6 -11 -11 -10 -10 -80 -1 -81 -1 -60 -9 -60 -9 -175 -10 -175
-10 -17 -10 -18 -10 -29 0 -30 0 -6 10 -6 10 -38 0 -39 0 -13 -16 -13 -16 -68
4 -68 5 -12 -15 -13 -15 385 7 385 8 60 9 60 10 112 7 111 7 19 15 18 15 22
13 23 12 30 0 30 0 0 10 0 11 18 6 17 6 18 15 17 15 0 19 0 19 -15 5 -15 6 0
7 0 8 25 11 26 12 32 0 32 1 19 25 18 26 -14 14 -14 14 -62 6 -62 7 0 -37z"/>
<path d="M5438 172 l-48 -3 0 -13 0 -14 14 -11 13 -11 46 6 47 7 10 12 11 13
-8 5 -8 4 -15 4 -15 4 -47 -3z"/>
</g>
</svg>
