<?xml version="1.0" encoding="iso-8859-1"?>
<!-- Generator: Adobe Illustrator 19.0.0, SVG Export Plug-In . SVG Version: 6.00 Build 0)  -->
<svg version="1.1" id="Capa_1" xmlns="http://www.w3.org/2000/svg" xmlns:xlink="http://www.w3.org/1999/xlink" x="0px" y="0px"
	 viewBox="0 0 511.997 511.997" style="enable-background:new 0 0 511.997 511.997;" xml:space="preserve">
<g>
	<g>
		<path d="M411.123,150.309L262.293,2.603c-3.494-3.467-9.162-3.476-12.647,0.009L100.851,150.336
			c-80.474,80.528-80.474,211.555,0,292.074l9.018,9.036c39.029,39.047,90.92,60.551,146.136,60.551
			c55.206,0,107.107-21.504,146.127-60.56l9.018-9.018C491.624,361.891,491.624,230.864,411.123,150.309z M379.388,410.667
			l-9.018,9.027c-30.549,30.567-71.168,47.391-114.365,47.391c-43.206,0-83.815-16.824-114.365-47.391l-9.018-9.018
			c-3.503-3.512-3.503-9.198,0-12.71c3.512-3.494,9.198-3.503,12.701,0.009l9.018,9.018c27.154,27.172,63.254,42.128,101.663,42.128
			c38.4,0,74.509-14.956,101.654-42.119l9.009-9.027c3.512-3.521,9.198-3.512,12.71-0.009
			C382.891,401.469,382.891,407.154,379.388,410.667z"/>
	</g>
</g>
<g>
</g>
<g>
</g>
<g>
</g>
<g>
</g>
<g>
</g>
<g>
</g>
<g>
</g>
<g>
</g>
<g>
</g>
<g>
</g>
<g>
</g>
<g>
</g>
<g>
</g>
<g>
</g>
<g>
</g>
</svg>
