<?xml version="1.0" encoding="iso-8859-1"?>
<!-- Generator: Adobe Illustrator 19.0.0, SVG Export Plug-In . SVG Version: 6.00 Build 0)  -->
<svg version="1.1" id="Capa_1" xmlns="http://www.w3.org/2000/svg" xmlns:xlink="http://www.w3.org/1999/xlink" x="0px" y="0px"
	 viewBox="0 0 512 512" style="enable-background:new 0 0 512 512;" xml:space="preserve">
<circle style="fill:#CE7937;" cx="256" cy="256" r="256"/>
<path style="fill:#A94F1F;" d="M511.973,258.102L410.687,156.935c-9.255-9.857-24.705-11.666-36.043-3.651l-3.637,2.571
	l-88.61-88.694c-6.22-6.701-15.091-10.912-24.898-10.912h-2.997c-18.699,0-33.999,15.299-33.999,33.998v40.24
	c-27.421,5.906-48.375,18.833-63.885,36.413l-19.261-13.617c-12.391-8.76-29.696-5.789-38.456,6.602l0,0
	c-7.702,10.895-6.333,25.588,2.533,34.931l26.562,26.369c-5.755,19.892-8.345,41.591-8.345,63.73
	c0,18.466,3.107,35.652,8.769,51.207l-22.916,16.201c-12.391,8.76-15.362,26.065-6.602,38.456l0,0
	c0.685,0.969,1.423,1.88,2.207,2.732L216.843,509.02C229.608,510.981,242.685,512,256,512
	C396.682,512,510.842,398.517,511.973,258.102z"/>
<path style="fill:#4BCE5C;" d="M291.497,145.25h-70.994V90.249c0-18.699,15.299-33.999,33.999-33.999h2.997
	c18.699,0,33.999,15.299,33.999,33.999v55.001H291.497z"/>
<path style="fill:#07A171;" d="M291.5,90.25v55H256v-89h1.5C276.2,56.25,291.5,71.55,291.5,90.25z"/>
<path style="fill:#4BCE5C;" d="M176.045,180.635l-31.854,45.059l-38.689-27.351c-12.391-8.76-15.362-26.065-6.602-38.456l0,0
	c8.76-12.391,26.065-15.362,38.456-6.602L176.045,180.635z"/>
<g>
	<path style="fill:#07A171;" d="M335.955,180.635l31.854,45.059l38.689-27.351c12.391-8.76,15.362-26.065,6.602-38.456l0,0
		c-8.76-12.391-26.065-15.362-38.456-6.602L335.955,180.635z"/>
	<path style="fill:#07A171;" d="M335.955,370.032l31.854-45.059l38.689,27.351c12.391,8.76,15.362,26.065,6.602,38.456l0,0
		c-8.76,12.391-26.065,15.362-38.456,6.602L335.955,370.032z"/>
</g>
<path style="fill:#4BCE5C;" d="M176.045,370.032l-31.854-45.059l-38.689,27.351c-12.391,8.76-15.362,26.065-6.602,38.456l0,0
	c8.76,12.391,26.065,15.362,38.456,6.602L176.045,370.032z"/>
<path style="fill:#B5F5A7;" d="M392.35,284.917c0,81.968-61.046,138.833-136.35,138.833s-136.35-56.865-136.35-138.833
	s35.35-158,136.35-158S392.35,202.948,392.35,284.917z"/>
<path style="fill:#6ADCA5;" d="M392.35,284.92c0,81.96-61.05,138.83-136.35,138.83V126.92C357,126.92,392.35,202.95,392.35,284.92z"
	/>
<path style="fill:#4BCE5C;" d="M365.708,283.044c0,65.952-49.118,111.706-109.708,111.706s-109.708-45.754-109.708-111.706
	S174.735,155.917,256,155.917S365.708,217.092,365.708,283.044z"/>
<path style="fill:#07A171;" d="M365.71,283.04c0,65.96-49.12,111.71-109.71,111.71V155.92
	C337.27,155.92,365.71,217.09,365.71,283.04z"/>
<polygon style="fill:none;stroke:#00A653;stroke-width:12;stroke-miterlimit:10;" points="223.139,332.25 190.278,275.333 
	223.139,218.417 288.861,218.417 321.722,275.333 288.861,332.25 "/>
<path style="fill:#07A171;" d="M325.603,281.333h40.093c-0.03-4.024-0.168-8.028-0.417-12h-39.676l-29.396-50.916l25.172-43.599
	c-3.288-2.385-6.783-4.573-10.493-6.549l-25.489,44.148h-58.794l-25.489-44.148c-3.709,1.976-7.205,4.165-10.493,6.549
	l25.172,43.599l-29.396,50.916h-39.676c-0.25,3.972-0.387,7.976-0.417,12h40.093l29.396,50.917l-24.414,42.286
	c3.352,2.392,6.846,4.592,10.471,6.586l24.752-42.872h58.794l24.752,42.872c3.625-1.994,7.119-4.194,10.471-6.586l-24.414-42.286
	L325.603,281.333z M226.186,326.25l-29.397-50.917l29.397-50.916h59.628l29.397,50.916l-29.397,50.917H226.186z"/>
<path style="fill:#00693C;" d="M365.7,281.33c-0.03-4.02-0.17-8.02-0.42-12H325.6l-29.39-50.91l25.17-43.6
	c-3.29-2.39-6.78-4.58-10.49-6.55l-25.49,44.15H256v12h29.81l29.4,50.91l-29.4,50.92H256v12h29.4l24.75,42.87
	c3.62-1.99,7.12-4.19,10.47-6.58l-24.41-42.29l29.39-50.92L365.7,281.33L365.7,281.33z"/>
<circle style="fill:#56545B;" cx="235.87" cy="88.18" r="6.266"/>
<circle style="fill:#29292B;" cx="276.13" cy="88.18" r="6.266"/>
<g>
</g>
<g>
</g>
<g>
</g>
<g>
</g>
<g>
</g>
<g>
</g>
<g>
</g>
<g>
</g>
<g>
</g>
<g>
</g>
<g>
</g>
<g>
</g>
<g>
</g>
<g>
</g>
<g>
</g>
</svg>
