<svg height="397pt" viewBox="-7 0 397 397.9264" width="397pt" xmlns="http://www.w3.org/2000/svg"><path d="m314.488281 216.113281c0 69.75-56.542969 126.292969-126.292969 126.292969s-126.292968-56.542969-126.292968-126.292969 56.542968-126.292969 126.292968-126.292969 126.292969 56.542969 126.292969 126.292969zm0 0" fill="#edebdc"/><g fill="#4c241d"><path d="m362.277344 43.105469c-11.886719 0-21.554688-9.664063-21.554688-21.550781 0-11.886719 9.667969-21.554688 21.554688-21.554688 11.886718 0 21.550781 9.667969 21.550781 21.554688 0 11.886718-9.667969 21.550781-21.550781 21.550781zm0-29.453125c-4.355469 0-7.902344 3.546875-7.902344 7.902344 0 4.351562 3.546875 7.898437 7.902344 7.898437 4.351562 0 7.898437-3.546875 7.898437-7.898437 0-4.355469-3.546875-7.902344-7.898437-7.902344zm0 0"/><path d="m116.515625 336.652344c-11.886719 0-21.554687-9.664063-21.554687-21.550782 0-11.886718 9.667968-21.554687 21.554687-21.554687s21.558594 9.667969 21.558594 21.554687c0 11.886719-9.671875 21.550782-21.558594 21.550782zm0-29.453125c-4.355469 0-7.902344 3.546875-7.902344 7.902343 0 4.351563 3.546875 7.898438 7.902344 7.898438 4.359375 0 7.90625-3.546875 7.90625-7.898438 0-4.355468-3.550781-7.902343-7.90625-7.902343zm0 0"/><path d="m38.328125 130.78125c0 5.832031-4.726563 10.558594-10.558594 10.558594s-10.558593-4.726563-10.558593-10.558594 4.726562-10.558594 10.558593-10.558594 10.558594 4.726563 10.558594 10.558594zm0 0"/><path d="m316.074219 364.714844c-1.746094 0-3.492188-.667969-4.824219-2.003906-2.667969-2.664063-2.667969-6.984376 0-9.652344l24.132812-24.132813c2.664063-2.664062 6.988282-2.664062 9.652344 0 2.667969 2.664063 2.667969 6.988281 0 9.652344l-24.132812 24.132813c-1.332032 1.335937-3.078125 2.003906-4.828125 2.003906zm0 0"/><path d="m340.210938 364.714844c-1.746094 0-3.496094-.667969-4.828126-2.003906l-24.132812-24.132813c-2.667969-2.664063-2.667969-6.988281 0-9.652344 2.664062-2.664062 6.984375-2.664062 9.652344 0l24.132812 24.132813c2.667969 2.667968 2.667969 6.988281 0 9.652344-1.332031 1.335937-3.078125 2.003906-4.824218 2.003906zm0 0"/></g><path d="m258.078125 35.445312-1.015625-.191406c-11.417969-2.160156-23.21875.308594-32.816406 6.851563l-.339844.234375c-7.242188 4.9375-17.027344 3.710937-22.828125-2.859375l-13.585937-15.402344c-8.664063-9.820313-21.558594-14.78125-34.5625-13.226563-21.070313 2.523438-55.003907 10.726563-92.183594 36.085938l71.019531-2.265625c10.960937-.351563 21.488281 4.289063 28.632813 12.609375l20.9375 24.394531c4.132812 4.820313 3.164062 12.160157-2.082032 15.738281l-18.171875 12.394532s18.65625 46.425781 59.230469 31.449218l-2.960938-22.34375c-1.09375-8.242187 2.550782-16.398437 9.421876-21.082031 7.050781-4.808593 15.957031-6.019531 24.035156-3.265625l36.082031 12.308594c9.960937 3.394531 18.75 9.566406 25.332031 17.78125l45.1875 56.414062s-5.160156-56.246093-42.160156-102.753906c-7.5625-9.507812-19.363281-14.671875-31.472656-13.707031l-24.941406 1.988281c-6.328126.5-11.757813-4.460937-11.824219-10.808594-.082031-7.9375 3.804687-15.390624 10.363281-19.867187zm0 0" fill="#fff"/><path d="m357.410156 187.902344c-2.027344 0-4-.90625-5.328125-2.5625l-45.191406-56.414063c-5.78125-7.214843-13.453125-12.605469-22.207031-15.59375l-36.082032-12.304687c-6.007812-2.054688-12.738281-1.132813-17.984374 2.445312-4.769532 3.253906-7.261719 8.828125-6.503907 14.542969l2.960938 22.351563c.421875 3.160156-1.40625 6.195312-4.398438 7.300781-36.988281 13.644531-60.621093-17.121094-67.929687-35.308594-1.195313-2.972656-.160156-6.378906 2.488281-8.1875l18.171875-12.390625c1.226562-.839844 1.554688-2.03125 1.632812-2.664062.089844-.632813.082032-1.867188-.886718-2.992188l-20.941406-24.394531c-5.824219-6.785157-14.371094-10.429688-23.230469-10.238281l-71.019531 2.269531c-3.019532.238281-5.765626-1.8125-6.707032-4.703125-.9375-2.886719.136719-6.046875 2.644532-7.757813 37.960937-25.894531 72.734374-34.535156 95.222656-37.226562 15.1875-1.808594 30.324218 3.980469 40.488281 15.484375l13.585937 15.40625c3.5 3.972656 9.460938 4.734375 13.859376 1.734375 11.515624-7.847657 25-10.671875 38.277343-8.152344l1.027344.195313c2.707031.519531 4.839844 2.609374 5.398437 5.304687.566407 2.699219-.546874 5.472656-2.820312 7.03125l-.699219.480469c-4.691406 3.199218-7.460937 8.496094-7.398437 14.167968.011718 1.550782.84375 2.546876 1.339844 2.992188.492187.453125 1.625 1.222656 3.117187 1.074219l24.941406-1.988281c14.417969-1.164063 28.339844 4.941406 37.351563 16.261718 37.839844 47.558594 43.402344 104.003906 43.621094 106.378906.273437 3.007813-1.453126 5.832032-4.246094 6.960938-.828125.332031-1.695313.496094-2.554688.496094zm-115.300781-101.597656c3.671875 0 7.359375.59375 10.898437 1.800781l36.089844 12.308593c11.210938 3.824219 21.046875 10.734376 28.445313 19.980469l27.753906 34.640625c-5.339844-19.875-15.714844-47.734375-35.386719-72.460937-6.179687-7.769531-15.734375-11.972657-25.585937-11.152344l-24.945313 1.984375c-4.886718.347656-9.785156-1.292969-13.414062-4.605469-3.621094-3.3125-5.726563-8.027343-5.78125-12.933593-.050782-5.007813 1.113281-9.851563 3.308594-14.167969-5.453126.808593-10.707032 2.847656-15.398438 6.046875-10.402344 7.109375-24.074219 5.378906-32.132812-3.746094l-13.585938-15.40625c-7.1875-8.144531-17.902344-12.21875-28.632812-10.957031-16.5625 1.976562-40.316407 7.445312-67.144532 21.652343l44.957032-1.433593c13.160156-.539063 25.496093 5.054687 34.027343 14.988281l20.941407 24.390625c3.234374 3.773437 4.710937 8.753906 4.058593 13.675781-.644531 4.917969-3.375 9.347656-7.464843 12.152344l-13.328126 9.078125c5.253907 9.675781 19.21875 29.742187 43 24.269531l-2.199218-16.601562c-1.441406-10.851563 3.285156-21.433594 12.335937-27.613282 5.691407-3.882812 12.417969-5.890624 19.183594-5.890624zm0 0" fill="#4c241d"/><path d="m46.964844 183.058594 16.003906-16.003906h21.902344c10.34375 0 19.070312-7.703126 20.355468-17.96875l3.003907-24.050782c1.917969-15.339844 11.1875-28.75 24.902343-35.882812 22.21875-11.554688 60.765626-26.121094 113.878907-26.121094l-70.75 45.019531c-10.921875 6.949219-18.101563 18.472657-19.53125 31.335938l-4.191407 37.710937c-.824218 7.445313 5.003907 13.960938 12.496094 13.960938h25.964844s12.679688 57.671875-36.839844 70.054687l-11.972656-23.757812c-4.417969-8.761719-13.390625-14.289063-23.203125-14.289063-10.074219 0-19.5625 4.742188-25.605469 12.800782l-26.996094 35.992187c-7.453124 9.941406-11.917968 21.796875-12.871093 34.1875l-6.546875 85.054687s-32.589844-58.664062-27.171875-128.925781c1.082031-14.050781 9.28125-26.597656 21.515625-33.589843l25.636718-14.652344c6.503907-3.714844 8.5-12.164063 4.34375-18.398438l-2.34375-3.515625c-3.734374-5.601562-10.019531-8.964843-16.75-8.964843h-5.230468zm0 0" fill="#c1dbdc"/><path d="m46.964844 397.925781c-2.441406 0-4.746094-1.3125-5.964844-3.511719-1.375-2.46875-33.523438-61.273437-28.011719-132.769531 1.246094-16.199219 10.566407-30.773437 24.933594-38.984375l25.636719-14.65625c1.488281-.84375 2.519531-2.234375 2.914062-3.890625.390625-1.660156.085938-3.363281-.863281-4.789062l-2.347656-3.523438c-2.464844-3.703125-6.605469-5.914062-11.066407-5.914062h-5.230468c-2.757813 0-5.25-1.660157-6.304688-4.214844-1.054687-2.554687-.472656-5.488281 1.480469-7.441406l16.003906-16.003907c1.277344-1.28125 3.015625-2 4.824219-2h21.902344c6.886718 0 12.730468-5.15625 13.582031-11.988281l3.007813-24.050781c2.195312-17.582031 12.859374-32.941406 28.527343-41.089844 23.589844-12.269531 63.042969-26.890625 117.023438-26.890625 3.03125 0 5.707031 2.003907 6.550781 4.917969.847656 2.914062-.324219 6.035156-2.886719 7.667969l-70.746093 45.019531c-9.21875 5.867188-15.203126 15.460938-16.410157 26.328125l-4.195312 37.710937c-.179688 1.648438.328125 3.234376 1.433593 4.46875 1.101563 1.234376 2.628907 1.914063 4.28125 1.914063h25.960938c3.207031 0 5.980469 2.226563 6.664062 5.359375 4.878907 22.1875 2.421876 67.082031-41.847656 78.140625-3.113281.773437-6.320312-.699219-7.753906-3.546875l-11.96875-23.753906c-3.273438-6.5-9.832031-10.539063-17.109375-10.539063-7.882813 0-15.417969 3.765625-20.148437 10.070313l-26.992188 35.988281c-6.6875 8.921875-10.675781 19.507813-11.527344 30.617187l-6.542968 85.054688c-.230469 3-2.40625 5.5-5.351563 6.140625-.484375.109375-.972656.160156-1.457031.160156zm14.75-219.964843c5.199218 1.957031 9.734375 5.503906 12.910156 10.273437l2.347656 3.523437c3.019532 4.535157 4.039063 10.1875 2.785156 15.496094-1.253906 5.304688-4.6875 9.90625-9.429687 12.605469l-25.632813 14.652344c-10.429687 5.960937-17.195312 16.5-18.097656 28.1875-3.136718 40.695312 7.042969 77.722656 15.644532 100.753906l4.457031-57.933594c1.054687-13.699219 5.972656-26.757812 14.21875-37.753906l26.996093-35.992187c7.292969-9.726563 18.910157-15.535157 31.066407-15.535157 12.464843 0 23.691406 6.914063 29.300781 18.046875l9.390625 18.632813c29.421875-10.652344 28.976563-42.265625 27.492187-55.03125h-20.132812c-5.511719 0-10.777344-2.355469-14.453125-6.460938s-5.4375-9.597656-4.828125-15.078125l4.195312-37.714844c1.667969-15 9.917969-28.246093 22.648438-36.339843l49.167969-31.285157c-38.378907 3.539063-67.070313 14.632813-85.476563 24.207032-11.683594 6.074218-19.640625 17.539062-21.277344 30.664062l-3.007812 24.054688c-1.707031 13.652344-13.371094 23.945312-27.128906 23.945312h-19.074219zm0 0" fill="#4c241d"/><path d="m321.316406 233.179688c-.625 0-1.214844.128906-1.824218.183593-4.179688-12-15.472657-20.664062-28.894532-20.664062-13.992187 0-25.660156 9.410156-29.375 22.199219-2.507812-1.09375-5.261718-1.71875-8.171875-1.71875-11.3125 0-20.480469 9.171874-20.480469 20.480468s9.167969 20.480469 20.480469 20.480469h68.265625c11.308594 0 20.480469-9.171875 20.480469-20.480469s-9.171875-20.480468-20.480469-20.480468zm0 0" fill="#fff"/><path d="m321.316406 280.96875h-68.265625c-15.058593 0-27.308593-12.25-27.308593-27.308594s12.25-27.308594 27.308593-27.308594c1.378907 0 2.746094.109376 4.097657.316407 6.273437-12.515625 19.214843-20.792969 33.449218-20.792969 14.191406 0 27.039063 8.105469 33.367188 20.605469 13.820312 1.339843 24.660156 13.011719 24.660156 27.179687 0 15.058594-12.25 27.308594-27.308594 27.308594zm-68.265625-40.960938c-7.527343 0-13.652343 6.125-13.652343 13.652344s6.125 13.652344 13.652343 13.652344h68.265625c7.527344 0 13.652344-6.125 13.652344-13.652344 0-7.5-6.078125-13.605468-13.570312-13.652344-.1875.027344-1.164063.144532-1.242188.152344-3.125.246094-6.078125-1.566406-7.113281-4.546875-3.355469-9.621093-12.375-16.085937-22.445313-16.085937-10.648437 0-19.820312 6.9375-22.820312 17.273437-.546875 1.886719-1.882813 3.445313-3.65625 4.28125-1.773438.832031-3.824219.867188-5.625.078125-1.753906-.769531-3.585938-1.152344-5.445313-1.152344zm0 0" fill="#4c241d"/><path d="m96.035156 28.378906c-.625 0-1.210937.132813-1.824218.183594-4.179688-12-15.472657-20.664062-28.894532-20.664062-13.988281 0-25.660156 9.410156-29.375 22.199218-2.503906-1.09375-5.261718-1.71875-8.171875-1.71875-11.308593 0-20.480469 9.171875-20.480469 20.480469 0 11.3125 9.171876 20.480469 20.480469 20.480469h68.265625c11.3125 0 20.480469-9.167969 20.480469-20.480469 0-11.308594-9.167969-20.480469-20.480469-20.480469zm0 0" fill="#fff"/><path d="m96.035156 76.167969h-68.265625c-15.054687 0-27.304687-12.25-27.304687-27.308594s12.25-27.304687 27.304687-27.304687c1.382813 0 2.746094.105468 4.101563.3125 6.273437-12.511719 19.210937-20.792969 33.445312-20.792969 14.191406 0 27.046875 8.105469 33.375 20.605469 13.816406 1.339843 24.652344 13.019531 24.652344 27.179687 0 15.058594-12.25 27.308594-27.308594 27.308594zm-68.265625-40.960938c-7.53125 0-13.652343 6.125-13.652343 13.652344s6.121093 13.652344 13.652343 13.652344h68.265625c7.53125 0 13.65625-6.125 13.65625-13.652344 0-7.5-6.082031-13.605469-13.570312-13.652344-.191406.027344-1.15625.148438-1.242188.152344-3.109375.28125-6.074218-1.574219-7.113281-4.546875-3.351563-9.617188-12.371094-16.085938-22.449219-16.085938-10.648437 0-19.816406 6.941407-22.816406 17.273438-.546875 1.886719-1.878906 3.449219-3.65625 4.28125-1.785156.839844-3.835938.867188-5.632812.078125-1.746094-.765625-3.578126-1.152344-5.441407-1.152344zm0 0" fill="#4c241d"/></svg>