<svg id="Capa_1" enable-background="new 0 0 512 512" height="512" viewBox="0 0 512 512" width="512" xmlns="http://www.w3.org/2000/svg"><g><g><path clip-rule="evenodd" d="m121.234 512h270.162c2.975 0 6.271-2.57 5.396-5.402l-19.454-64.04c-.875-2.833-2.421-5.373-5.396-5.373h-231.255c-2.946 0-4.521 2.541-5.396 5.373l-19.454 64.04c-.874 2.832 2.422 5.402 5.397 5.402z" fill="#bcea73" fill-rule="evenodd"/></g><g><path clip-rule="evenodd" d="m337.964 442.557 19.483 64.04c.846 2.833-2.392 5.373-5.337 5.402h39.286c2.975 0 6.271-2.57 5.396-5.402l-19.454-64.04c-.875-2.833-2.421-5.373-5.396-5.373h-39.345c2.947 0 4.522 2.541 5.367 5.373z" fill="#99d53b" fill-rule="evenodd"/></g><g><path clip-rule="evenodd" d="m235.389 458.356c-48.357-55.075-122.846-127.204-147.025-194.457-48.094-133.833 23.858-263.899 167.645-263.899 143.758 0 215.739 130.066 167.616 263.899-24.149 67.252-98.639 139.382-147.025 194.457-18.987 21.639-22.195 21.639-41.211 0z" fill="#fd4755" fill-rule="evenodd"/></g><g><path clip-rule="evenodd" d="m256.009 303.994c68.598 0 124.538-56.01 124.538-124.693 0-68.712-55.94-124.722-124.538-124.722s-124.567 56.01-124.567 124.722c0 68.683 55.969 124.693 124.567 124.693z" fill="#f8f6f6" fill-rule="evenodd"/></g><g><path clip-rule="evenodd" d="m199.515 182.221 11.52 16.85.846 21.58.379 13.491c.379 4.556 4.083 6.921 8.341 6.045l13.65-3.358 21.758-5.344 21.758 5.344 13.65 3.358c4.258.876 7.962-1.489 8.341-6.045l.379-13.491.846-21.58 12.425-18.164 7.671-11.33c2.217-3.592 1.079-7.709-3.325-9.491l-13.241-4.643-21.087-7.417-14-16.82-8.808-10.542c-1.283-1.431-2.917-2.278-4.608-2.453-1.692.175-3.325 1.022-4.608 2.453l-8.808 10.542-14 16.82-21.116 7.417-13.212 4.643c-4.404 1.781-5.542 5.899-3.325 9.491z" fill="#fb8627" fill-rule="evenodd"/></g><g><path clip-rule="evenodd" d="m261.171 121.305c5.279 15.565 8.196 32.619 8.196 50.52 0 21.639-4.258 42.051-11.812 60.039l20.212 4.964 13.65 3.358c4.258.876 7.962-1.489 8.341-6.045l.379-13.491.846-21.58 12.425-18.164 7.671-11.33c2.217-3.592 1.079-7.709-3.325-9.491l-13.241-4.643-21.087-7.417-14-16.82z" fill="#f2671f" fill-rule="evenodd"/></g><g><path clip-rule="evenodd" d="m313.407 180.907-12.425 18.164-.846 21.58-.379 13.491c-.379 4.556-4.083 6.921-8.341 6.045l-13.65-3.358-20.212-4.964c-11.375 27.187-30.245 48.855-53.257 60.916 15.75 7.213 33.278 11.214 51.711 11.214 68.773 0 124.538-55.834 124.538-124.693 0-68.888-55.765-124.722-124.538-124.722-12.92 0-25.403 1.986-37.128 5.636 18.783 14.397 33.686 35.743 42.29 61.091l8.254 9.9 14 16.82 21.087 7.417 13.241 4.643c4.404 1.781 5.542 5.899 3.325 9.491z" fill="#e2e2e2" fill-rule="evenodd"/></g><g><path clip-rule="evenodd" d="m336.215 274.704c-23.216 54.929-77.318 112.457-121.388 160.757.525.584 1.05 1.139 1.546 1.723 6.65 7.301 13.037 14.367 19.016 21.172 19.016 21.639 22.224 21.639 41.211 0 6.008-6.804 12.395-13.871 19.016-21.172 47.044-51.688 106.834-114.355 128.008-173.285 48.065-133.716-23.712-263.695-167.236-263.899h-.379-.379c-16.187.029-31.441 1.694-45.732 4.818 48.357 8.498 86.214 33.32 111.063 68.041 35.757 21.902 59.586 61.383 59.586 106.442-.001 38.284-17.208 72.538-44.332 95.403z" fill="#f92c3d" fill-rule="evenodd"/></g></g></svg>