<?xml version="1.0" encoding="iso-8859-1"?>
<!-- Generator: Adobe Illustrator 19.0.0, SVG Export Plug-In . SVG Version: 6.00 Build 0)  -->
<svg version="1.1" id="Capa_1" xmlns="http://www.w3.org/2000/svg" xmlns:xlink="http://www.w3.org/1999/xlink" x="0px" y="0px"
	 viewBox="0 0 512 512" style="enable-background:new 0 0 512 512;" xml:space="preserve">
<path style="fill:#FE7D32;" d="M329.737,171.934V67.901c0-4.65,3.77-8.419,8.419-8.419h12.987c4.65,0,8.419-3.77,8.419-8.419V8.419
	c0-4.65-3.77-8.419-8.419-8.419H160.857c-4.65,0-8.419,3.77-8.419,8.419v42.644c0,4.65,3.77,8.419,8.419,8.419h12.987
	c4.65,0,8.419,3.77,8.419,8.419v104.033c-64.413,27.557-110.284,90.112-113.693,163.761c-0.222,4.801,3.612,8.82,8.418,8.82h358.022
	c4.806,0,8.64-4.019,8.418-8.82C440.021,262.047,394.149,199.491,329.737,171.934z"/>
<path style="fill:#E8621F;" d="M443.427,335.698c0.227,4.803-3.616,8.822-8.418,8.822H409.02
	c-4.835-74.728-50.765-138.253-115.419-168.209c-3.286-1.522-5.393-4.806-5.393-8.427V63.155c0-4.946,4.01-8.956,8.956-8.956h13.82
	c4.952,0,8.966-4.014,8.966-8.966V0.001h31.194c4.65,0,8.418,3.769,8.418,8.418v42.64c0,4.65-3.769,8.418-8.418,8.418H338.16
	c-4.659,0-8.418,3.771-8.418,8.418v104.038C394.145,199.493,440.019,262.049,443.427,335.698z"/>
<path style="fill:#E4E8EB;" d="M302.289,344.515h-92.578l40.801,163.2c1.428,5.714,9.548,5.714,10.977,0L302.289,344.515z"/>
<path style="fill:#D6D6D6;" d="M302.286,344.519l-40.802,163.195c-1.425,5.713-9.544,5.713-10.97,0l-5.878-23.51l34.924-139.685
	L302.286,344.519L302.286,344.519z"/>
<g>
</g>
<g>
</g>
<g>
</g>
<g>
</g>
<g>
</g>
<g>
</g>
<g>
</g>
<g>
</g>
<g>
</g>
<g>
</g>
<g>
</g>
<g>
</g>
<g>
</g>
<g>
</g>
<g>
</g>
</svg>
