<svg id="svg" version="1.1" xmlns="http://www.w3.org/2000/svg" xmlns:xlink="http://www.w3.org/1999/xlink" width="400" height="695.0819672131148" viewBox="0, 0, 400,695.0819672131148"><g id="svgg"><path id="path0" d="M0.000 26.400 L 0.000 52.800 1.700 52.801 C 2.635 52.802,4.480 52.368,5.800 51.836 C 7.120 51.305,9.228 50.476,10.484 49.995 C 11.741 49.514,12.967 48.880,13.211 48.587 C 13.659 48.047,18.848 45.051,24.499 42.069 C 28.930 39.732,42.771 34.781,47.600 33.807 C 48.370 33.651,50.530 33.108,52.400 32.600 C 54.270 32.091,57.960 31.273,60.600 30.782 C 63.240 30.291,68.055 29.006,71.299 27.927 C 78.191 25.635,82.248 24.709,89.400 23.798 C 95.567 23.012,99.704 22.038,104.600 20.217 C 110.110 18.168,114.843 17.389,130.400 15.970 C 132.930 15.740,136.800 15.286,139.000 14.963 C 141.200 14.640,145.808 14.031,149.239 13.610 C 152.671 13.190,155.911 12.747,156.439 12.627 C 159.487 11.932,168.280 11.509,188.400 11.087 C 220.324 10.418,225.177 10.519,243.000 12.222 C 257.732 13.631,260.867 14.013,263.661 14.745 C 265.278 15.168,269.300 15.723,272.600 15.979 C 275.900 16.234,281.930 16.792,286.000 17.218 C 290.070 17.643,296.100 18.272,299.400 18.614 C 306.168 19.316,310.166 20.267,313.567 21.983 C 316.499 23.463,321.712 24.935,329.176 26.390 C 332.379 27.015,336.350 27.922,338.000 28.406 C 339.650 28.889,342.440 29.609,344.200 30.005 C 351.548 31.658,358.052 33.754,361.399 35.548 C 362.273 36.017,363.239 36.400,363.545 36.400 C 363.852 36.400,365.745 37.101,367.751 37.958 C 369.758 38.815,372.210 39.732,373.200 39.996 C 376.336 40.831,386.881 46.770,388.332 48.518 C 388.607 48.849,389.859 49.533,391.116 50.037 C 392.372 50.541,394.230 51.459,395.244 52.077 C 396.373 52.764,397.654 53.200,398.544 53.200 L 400.000 53.200 400.000 26.600 L 400.000 0.000 200.000 0.000 L 0.000 0.000 0.000 26.400 M0.000 251.000 L 0.000 422.400 1.562 422.400 C 2.768 422.400,3.515 422.074,4.834 420.971 C 5.775 420.186,7.264 419.175,8.145 418.726 C 10.569 417.490,11.027 416.639,12.196 411.207 C 14.260 401.617,16.666 395.526,20.830 389.356 C 21.985 387.644,23.423 384.973,24.024 383.421 C 24.626 381.870,26.122 378.530,27.348 376.000 C 29.674 371.204,30.646 368.255,33.239 358.137 C 34.093 354.802,34.988 351.562,35.227 350.937 C 35.467 350.311,36.080 348.000,36.589 345.800 C 37.099 343.600,38.705 337.120,40.158 331.400 C 41.611 325.680,43.047 319.290,43.349 317.200 C 45.346 303.359,46.255 298.152,47.820 291.600 C 51.798 274.950,54.470 258.504,55.617 243.600 C 56.204 235.988,56.245 213.374,55.679 210.000 C 55.439 208.570,54.868 201.910,54.411 195.200 C 52.603 168.680,51.383 161.080,47.218 150.400 C 46.317 148.090,45.023 144.400,44.342 142.200 C 43.661 140.000,42.311 136.079,41.341 133.487 C 40.372 130.895,38.873 126.124,38.009 122.884 C 36.254 116.296,35.552 114.390,34.584 113.586 C 34.219 113.284,33.124 111.816,32.150 110.324 C 30.904 108.414,29.745 107.205,28.233 106.238 C 27.052 105.483,25.572 104.202,24.943 103.393 C 24.314 102.583,23.113 101.084,22.273 100.060 C 21.433 99.037,19.503 96.105,17.984 93.544 C 14.256 87.261,5.209 79.609,1.500 79.603 L 0.000 79.600 0.000 251.000 M395.698 84.700 C 395.054 85.745,392.222 88.940,389.406 91.800 C 386.589 94.660,383.618 97.900,382.803 99.000 C 380.737 101.788,376.042 105.904,373.281 107.348 C 371.130 108.473,370.553 109.427,369.382 113.800 C 367.235 121.820,366.697 123.424,365.225 126.186 C 364.347 127.835,363.194 131.035,362.440 133.915 C 361.155 138.828,358.652 146.215,358.009 146.989 C 357.317 147.823,354.075 160.930,353.406 165.600 C 352.387 172.705,351.160 180.699,351.012 181.200 C 350.914 181.530,350.562 184.230,350.231 187.200 C 347.049 215.687,347.651 249.462,351.814 276.000 C 353.396 286.084,354.642 296.107,355.592 306.400 C 355.979 310.592,356.501 313.002,359.885 326.200 C 361.625 332.987,363.222 337.651,365.064 341.323 C 367.589 346.358,370.000 356.437,370.000 361.959 C 370.000 363.031,370.573 364.637,371.821 367.062 C 372.823 369.008,374.355 372.614,375.226 375.075 C 376.097 377.536,377.422 380.866,378.170 382.475 C 379.735 385.842,383.200 394.546,383.200 395.110 C 383.200 395.319,383.758 396.190,384.441 397.045 C 386.225 399.281,387.737 402.449,389.098 406.800 C 391.630 414.895,395.344 420.380,398.300 420.393 L 400.000 420.400 400.000 251.600 L 400.000 82.800 398.434 82.800 C 396.997 82.800,396.772 82.956,395.698 84.700 M0.000 571.200 L 0.000 694.800 98.400 694.800 L 196.800 694.800 196.799 690.500 C 196.799 688.135,196.529 684.670,196.200 682.800 C 195.871 680.930,195.334 676.160,195.007 672.200 C 193.994 659.942,193.568 656.009,192.581 649.800 C 192.057 646.500,191.246 641.280,190.780 638.200 C 190.314 635.120,189.587 631.340,189.163 629.800 C 188.220 626.365,187.743 620.035,187.178 603.400 C 186.938 596.360,186.475 587.360,186.148 583.400 C 185.821 579.440,185.393 573.590,185.197 570.400 C 185.001 567.210,184.660 561.900,184.441 558.600 C 184.221 555.300,183.930 548.820,183.795 544.200 C 183.539 535.466,182.849 527.820,181.790 522.000 C 181.449 520.130,180.997 514.730,180.785 510.000 C 180.159 496.062,179.396 492.339,175.644 484.915 C 170.087 473.922,164.142 471.429,134.800 467.790 C 128.530 467.012,122.230 466.189,120.800 465.961 C 115.382 465.098,108.520 464.883,104.281 465.443 C 99.397 466.089,94.678 466.142,90.027 465.603 C 88.142 465.385,82.820 464.768,78.200 464.234 C 73.580 463.699,66.020 463.149,61.400 463.012 C 45.311 462.534,30.607 460.186,19.907 456.386 C 15.691 454.889,14.295 454.185,9.055 450.919 C 4.971 448.374,3.235 447.600,1.613 447.600 L 0.000 447.600 0.000 571.200 M394.842 450.832 C 390.330 454.967,371.227 460.914,359.600 461.805 C 357.730 461.948,354.490 462.405,352.400 462.820 C 345.789 464.133,338.503 464.801,328.400 465.022 C 323.010 465.139,316.710 465.498,314.400 465.820 C 303.817 467.293,297.668 467.623,285.600 467.366 C 272.092 467.079,265.811 467.604,260.971 469.426 C 258.557 470.334,257.335 470.495,250.617 470.792 C 242.862 471.135,234.465 472.748,231.657 474.435 C 230.314 475.241,226.173 481.535,225.889 483.200 C 225.375 486.220,222.774 502.019,222.168 505.800 C 221.815 508.000,221.095 511.635,220.568 513.878 C 218.790 521.438,217.995 528.853,217.188 545.400 C 216.176 566.151,215.678 574.352,215.222 577.800 C 215.018 579.340,214.743 583.480,214.612 587.000 C 214.480 590.520,214.108 595.920,213.783 599.000 C 213.459 602.080,213.032 610.305,212.834 617.278 C 212.636 624.251,212.358 630.145,212.216 630.375 C 212.074 630.605,211.787 637.499,211.578 645.696 C 211.184 661.186,210.269 679.217,209.614 684.400 C 209.406 686.050,209.227 689.065,209.218 691.100 L 209.200 694.800 304.600 694.800 L 400.000 694.800 400.000 572.000 L 400.000 449.200 398.300 449.211 C 396.880 449.220,396.310 449.487,394.842 450.832 " stroke="none" fill="#fcfcf8" fill-rule="evenodd"></path><path id="path1" d="M166.800 27.660 C 155.447 27.997,148.891 28.636,140.600 30.216 C 137.960 30.719,133.730 31.253,131.200 31.402 C 124.849 31.777,115.275 33.001,111.200 33.959 C 109.330 34.398,106.090 34.943,104.000 35.171 C 101.910 35.398,98.850 35.947,97.200 36.392 C 84.371 39.848,78.991 41.020,71.507 41.990 C 68.148 42.425,63.060 43.414,60.200 44.186 C 44.946 48.308,42.092 49.129,40.929 49.732 C 39.314 50.569,31.713 53.803,30.428 54.200 C 28.540 54.782,27.292 55.832,24.888 58.857 C 23.552 60.538,22.285 61.978,22.072 62.057 C 21.300 62.343,21.310 68.781,22.083 69.026 C 23.017 69.323,25.387 72.080,27.775 75.649 C 28.861 77.272,30.350 79.356,31.085 80.279 C 33.447 83.251,35.160 87.434,35.645 91.415 C 36.063 94.838,36.160 95.082,37.793 96.831 C 38.733 97.838,39.963 99.391,40.526 100.282 C 41.088 101.174,42.183 102.295,42.957 102.773 C 46.818 105.160,49.822 110.621,51.772 118.800 C 53.508 126.086,55.878 133.905,56.704 135.074 C 62.818 143.727,67.138 159.040,68.419 176.600 C 69.148 186.595,68.708 259.066,67.898 262.400 C 67.550 263.830,67.068 267.003,66.827 269.451 C 66.225 275.546,64.557 284.683,63.375 288.357 C 62.837 290.031,61.668 295.090,60.779 299.600 C 58.831 309.472,57.905 313.025,56.614 315.571 C 55.822 317.135,55.485 318.908,54.815 325.048 C 53.740 334.901,52.764 338.997,50.015 345.200 C 49.382 346.630,47.835 351.040,46.579 355.000 C 45.323 358.960,43.888 363.123,43.391 364.252 C 42.893 365.381,41.916 369.251,41.219 372.852 C 39.574 381.347,38.608 384.811,36.992 388.000 C 36.268 389.430,35.555 391.008,35.409 391.506 C 34.884 393.289,31.156 400.910,30.188 402.181 C 29.644 402.893,29.200 403.710,29.200 403.997 C 29.200 404.780,26.406 412.773,25.508 414.559 C 24.864 415.839,24.666 417.409,24.397 423.359 C 24.216 427.341,23.857 431.806,23.597 433.279 L 23.125 435.958 25.920 439.305 C 28.575 442.484,28.893 442.724,32.258 444.117 C 43.267 448.674,44.416 448.837,61.716 448.295 C 74.183 447.904,76.100 447.928,80.116 448.534 C 84.926 449.259,95.680 450.221,105.400 450.797 C 116.600 451.461,124.581 452.479,133.588 454.394 C 138.719 455.485,142.948 456.045,150.200 456.595 C 183.411 459.115,187.223 462.042,193.713 490.000 C 198.720 511.566,199.121 514.102,199.557 526.914 C 199.743 532.367,199.978 536.911,200.079 537.012 C 200.180 537.113,200.486 534.902,200.758 532.098 C 201.653 522.889,201.798 522.368,204.378 519.028 L 206.675 516.057 206.932 511.528 C 207.073 509.038,207.718 503.760,208.365 499.800 C 209.011 495.840,209.830 490.260,210.183 487.400 C 211.663 475.427,213.422 471.308,219.708 465.094 C 227.065 457.822,228.972 457.025,242.000 455.780 C 252.462 454.781,257.706 453.769,262.200 451.886 C 269.747 448.722,275.840 448.647,288.400 451.563 C 291.834 452.360,298.538 452.103,302.142 451.035 C 306.698 449.687,310.927 449.446,330.800 449.403 C 349.764 449.362,351.178 449.238,360.600 446.789 C 363.020 446.159,366.170 445.436,367.600 445.180 C 373.441 444.136,375.411 442.999,377.998 439.178 L 380.316 435.755 379.364 432.188 C 378.360 428.431,377.600 422.407,377.600 418.217 C 377.600 416.196,377.412 415.459,376.614 414.359 C 375.214 412.430,372.022 406.183,371.167 403.703 C 370.770 402.549,370.011 401.019,369.481 400.303 C 366.167 395.824,363.143 387.571,360.209 375.000 C 358.170 366.263,357.508 364.080,354.811 357.200 C 353.474 353.790,352.017 349.784,351.572 348.298 C 351.128 346.811,349.974 344.083,349.007 342.235 C 348.040 340.386,346.770 337.282,346.185 335.337 C 345.600 333.392,344.601 330.180,343.967 328.200 C 341.941 321.882,340.670 314.215,339.400 300.653 C 338.206 287.910,337.624 282.916,337.204 281.810 C 334.585 274.922,333.027 252.727,333.497 229.000 C 333.604 223.581,333.488 217.745,333.214 214.800 C 332.011 201.863,332.386 187.200,334.209 175.935 C 334.755 172.561,335.486 168.022,335.834 165.850 C 336.182 163.677,336.914 160.527,337.462 158.850 C 338.010 157.172,338.803 154.124,339.225 152.075 C 340.215 147.268,341.006 144.577,342.466 141.053 C 343.116 139.484,344.256 136.490,344.999 134.400 C 345.743 132.310,346.991 128.817,347.773 126.638 C 349.523 121.760,350.485 118.128,351.809 111.400 C 353.718 101.704,359.864 93.748,368.501 89.794 C 370.275 88.982,370.819 88.488,371.428 87.138 C 372.141 85.557,380.575 76.548,382.098 75.740 C 382.552 75.500,382.940 74.539,383.208 72.985 C 383.436 71.673,383.708 70.203,383.814 69.718 C 384.378 67.131,372.966 57.272,367.000 55.193 C 365.020 54.503,360.700 52.619,357.400 51.006 C 338.292 41.669,339.469 42.082,326.000 39.981 C 319.745 39.006,314.996 37.875,312.651 36.804 C 310.651 35.890,306.085 35.046,298.600 34.206 C 295.520 33.860,290.480 33.222,287.400 32.786 C 258.400 28.688,252.947 28.326,209.400 27.601 C 183.829 27.175,183.103 27.176,166.800 27.660 M212.000 32.954 L 225.800 33.090 229.375 34.345 C 232.817 35.553,233.192 35.600,239.442 35.600 C 246.535 35.600,247.200 35.708,247.200 36.863 C 247.200 40.838,253.663 42.824,260.665 41.000 C 264.698 39.950,271.257 40.186,274.694 41.506 L 277.574 42.613 276.604 44.241 C 274.947 47.019,272.818 48.200,270.513 47.620 C 267.319 46.816,258.755 45.996,257.965 46.419 C 256.255 47.334,255.600 48.980,255.600 52.362 L 255.600 55.600 254.000 57.200 L 252.400 58.800 242.700 58.809 L 233.000 58.818 229.600 62.109 L 226.200 65.400 223.000 62.309 C 219.152 58.592,220.058 58.579,216.060 62.405 L 212.720 65.600 193.359 65.600 L 173.998 65.600 172.621 64.076 C 171.068 62.357,167.422 60.407,165.725 60.387 C 165.106 60.380,163.610 60.026,162.400 59.600 C 160.575 58.958,159.078 58.824,153.619 58.813 L 147.038 58.800 145.719 57.522 C 144.994 56.818,144.400 56.120,144.400 55.969 C 144.400 55.402,148.084 54.800,151.558 54.800 C 156.964 54.800,158.055 53.997,158.640 49.582 C 159.035 46.603,159.935 45.815,163.634 45.214 C 167.165 44.640,171.686 43.143,171.909 42.474 C 171.996 42.212,171.054 41.008,169.816 39.798 L 167.564 37.600 162.582 37.600 C 157.971 37.600,157.600 37.544,157.600 36.847 C 157.600 35.836,160.189 35.200,164.304 35.200 C 166.224 35.200,168.615 34.883,170.427 34.389 C 172.918 33.709,175.086 33.541,183.800 33.349 C 189.520 33.224,194.740 32.979,195.400 32.806 C 196.060 32.633,196.960 32.565,197.400 32.655 C 197.840 32.744,204.410 32.879,212.000 32.954 M149.742 35.432 C 151.094 35.780,152.560 36.397,153.000 36.804 C 153.440 37.211,154.520 37.602,155.400 37.672 L 157.000 37.800 157.117 40.423 C 157.212 42.573,157.098 43.168,156.485 43.723 C 155.354 44.746,148.132 45.437,143.916 44.926 C 136.844 44.069,133.881 45.141,132.745 48.967 C 131.416 53.442,130.036 54.158,123.232 53.898 C 117.022 53.661,115.281 53.109,114.257 51.052 C 113.008 48.540,114.744 47.594,125.400 44.978 C 127.823 44.383,130.171 43.561,130.626 43.149 C 131.080 42.737,131.683 42.400,131.967 42.400 C 133.183 42.400,139.273 39.149,140.947 37.606 C 142.099 36.545,143.477 35.730,144.686 35.398 C 147.192 34.709,146.923 34.707,149.742 35.432 M79.276 56.109 C 80.528 56.710,82.835 57.471,84.403 57.801 C 85.970 58.130,87.589 58.580,88.000 58.800 C 88.414 59.021,91.762 59.200,95.495 59.200 L 102.243 59.200 103.622 60.629 L 105.000 62.058 101.700 65.170 L 98.400 68.283 98.400 71.689 L 98.400 75.095 96.547 76.947 L 94.695 78.800 91.438 78.800 L 88.181 78.800 85.000 82.000 L 81.819 85.200 78.385 85.200 C 74.991 85.200,72.400 86.432,72.400 88.046 C 72.400 88.240,71.749 89.118,70.953 89.999 L 69.507 91.600 65.600 91.600 L 61.693 91.600 60.275 89.900 C 56.840 85.780,54.378 83.160,51.131 80.168 C 47.556 76.874,47.363 73.989,50.530 71.208 C 52.061 69.863,53.378 67.110,53.785 64.400 C 53.934 63.410,54.448 61.835,54.927 60.900 L 55.799 59.200 59.018 59.200 L 62.238 59.200 63.819 57.554 C 66.869 54.379,74.233 53.690,79.276 56.109 M348.321 60.570 C 349.794 60.884,352.617 61.248,354.592 61.380 C 360.499 61.773,361.308 62.138,364.270 65.742 C 365.035 66.673,365.429 66.800,367.555 66.800 C 369.016 66.800,370.842 67.126,372.178 67.626 L 374.385 68.452 374.135 71.526 C 373.736 76.413,372.493 78.033,368.728 78.572 C 366.475 78.895,365.011 79.960,364.420 81.706 C 364.092 82.677,363.510 83.221,362.091 83.883 C 361.051 84.369,359.046 85.492,357.634 86.379 C 351.691 90.115,345.663 90.716,340.368 88.100 C 338.043 86.952,337.353 86.800,334.442 86.800 C 331.591 86.800,330.975 86.671,329.873 85.846 C 328.236 84.619,325.926 83.481,323.377 82.648 C 318.353 81.006,316.800 77.742,316.800 68.826 C 316.800 61.514,316.827 61.449,320.200 60.641 C 323.633 59.819,344.547 59.767,348.321 60.570 M128.771 97.754 C 129.447 97.354,130.000 96.926,130.000 96.802 C 130.000 96.678,131.000 95.552,132.222 94.301 L 134.444 92.025 137.590 95.112 C 139.321 96.811,141.471 98.806,142.368 99.546 C 144.335 101.169,144.388 101.762,142.722 103.481 L 141.443 104.800 127.975 104.800 C 114.946 104.800,114.474 104.773,113.451 103.969 C 110.916 101.974,111.288 100.592,115.002 98.216 C 116.211 97.443,117.200 96.650,117.200 96.454 C 117.200 96.259,118.138 95.185,119.285 94.068 L 121.370 92.037 124.456 95.258 L 127.542 98.480 128.771 97.754 M267.766 94.288 C 268.995 95.547,270.000 96.678,270.000 96.802 C 270.000 96.926,270.553 97.354,271.229 97.754 L 272.458 98.480 275.562 95.240 L 278.665 92.000 292.074 92.000 L 305.483 92.000 306.565 93.003 C 310.608 96.750,310.360 107.838,306.172 110.582 C 304.742 111.519,304.133 111.187,301.068 107.803 L 298.349 104.800 275.188 104.800 L 252.027 104.800 250.613 103.387 C 248.881 101.654,248.880 101.597,250.547 99.828 L 251.894 98.400 255.606 98.400 L 259.317 98.400 262.359 95.230 C 264.031 93.486,265.430 92.046,265.466 92.030 C 265.502 92.013,266.537 93.030,267.766 94.288 M70.640 99.760 C 71.983 101.103,72.000 101.165,72.000 104.677 L 72.000 108.233 73.740 109.941 L 75.480 111.649 76.706 110.617 C 77.381 110.050,78.404 108.780,78.982 107.795 C 81.351 103.753,88.349 103.586,93.122 107.458 C 96.070 109.849,92.698 117.617,87.765 119.799 C 84.930 121.052,84.672 121.677,84.471 127.773 C 84.241 134.764,84.951 140.479,86.611 145.000 C 87.338 146.980,88.197 149.410,88.520 150.400 C 88.844 151.390,89.343 152.772,89.631 153.472 C 90.203 154.862,90.321 154.496,87.819 159.070 C 86.540 161.406,86.108 162.872,84.597 170.000 C 83.836 173.589,82.441 176.628,81.600 176.531 C 80.185 176.368,75.498 175.231,75.260 174.994 C 75.117 174.851,74.962 169.632,74.916 163.397 C 74.822 150.790,74.553 148.810,72.258 143.843 C 71.521 142.247,70.692 139.694,70.418 138.170 C 70.143 136.647,69.553 133.960,69.106 132.200 C 68.659 130.440,68.175 126.997,68.032 124.549 C 67.744 119.650,66.931 117.887,64.295 116.446 C 62.040 115.214,61.648 114.627,60.752 111.144 L 59.863 107.689 60.947 105.473 C 61.802 103.725,62.278 103.202,63.201 103.000 C 63.845 102.858,64.783 102.280,65.286 101.715 C 68.750 97.822,68.715 97.835,70.640 99.760 M332.900 107.857 L 334.400 108.105 334.400 111.388 C 334.400 114.518,334.352 114.693,333.381 115.136 C 330.487 116.454,329.600 115.567,329.600 111.353 C 329.600 107.494,329.749 107.336,332.900 107.857 M318.395 118.924 C 318.388 119.549,320.091 125.354,322.113 131.599 C 323.585 136.142,323.922 136.799,325.815 138.799 L 327.897 141.000 327.166 144.000 C 326.759 145.666,326.426 148.526,326.417 150.430 C 326.402 153.542,326.309 153.946,325.420 154.781 L 324.441 155.701 324.235 154.751 C 324.122 154.228,323.837 152.469,323.602 150.841 C 323.022 146.823,322.521 146.345,318.090 145.567 C 312.573 144.599,312.309 144.136,312.303 135.430 C 312.299 128.059,312.819 124.558,314.300 122.000 C 316.039 118.997,318.413 117.214,318.395 118.924 M95.986 170.245 C 96.001 180.360,96.298 183.191,97.607 185.703 C 99.517 189.367,97.993 196.400,95.290 196.400 C 94.403 196.400,93.634 186.280,93.613 174.326 C 93.604 169.318,93.411 166.398,92.952 164.326 C 91.987 159.967,91.999 159.881,93.600 159.350 C 95.851 158.605,95.970 159.145,95.986 170.245 M103.513 204.713 C 108.768 209.968,108.587 223.142,103.191 228.200 C 101.988 229.329,101.884 229.356,101.456 228.662 C 101.205 228.256,100.098 226.546,98.996 224.862 C 97.894 223.178,96.546 220.490,96.002 218.889 C 95.317 216.878,94.565 215.543,93.570 214.571 L 92.130 213.164 93.565 211.581 C 94.354 210.711,95.810 209.084,96.800 207.967 C 101.639 202.507,101.415 202.615,103.513 204.713 M103.566 244.028 C 105.144 245.605,106.254 249.299,106.794 254.766 C 107.437 261.279,107.259 261.394,95.800 261.827 C 88.222 262.114,87.043 262.368,84.900 264.175 L 83.600 265.271 83.600 272.055 C 83.600 279.802,83.453 280.317,80.465 283.022 L 78.637 284.677 79.178 286.439 C 80.324 290.169,80.371 291.273,79.516 294.400 C 78.790 297.057,78.742 297.829,79.095 301.147 C 79.665 306.505,78.223 312.351,76.091 313.322 C 74.843 313.891,74.141 312.876,72.572 308.234 L 71.344 304.600 72.243 301.000 C 72.738 299.020,73.353 295.600,73.610 293.400 C 73.867 291.200,74.164 289.259,74.270 289.087 C 74.376 288.916,74.633 285.766,74.841 282.087 C 75.103 277.444,75.369 275.351,75.709 275.239 C 78.714 274.254,80.619 269.612,80.507 263.551 C 80.382 256.801,81.052 254.632,83.679 253.280 C 84.673 252.769,86.180 251.639,87.029 250.770 L 88.573 249.189 91.877 252.477 L 95.182 255.764 98.291 249.288 C 101.652 242.286,101.739 242.200,103.566 244.028 M95.918 284.200 C 96.001 289.326,95.882 291.915,95.504 293.186 L 94.973 294.972 94.286 293.526 C 93.305 291.458,93.274 278.591,94.246 276.712 C 95.394 274.492,95.788 276.257,95.918 284.200 M95.967 309.100 C 96.414 310.585,96.882 312.474,97.008 313.298 C 97.364 315.638,98.608 316.758,101.339 317.196 C 104.598 317.718,105.004 317.886,105.574 318.951 C 105.850 319.466,106.881 320.397,107.866 321.020 C 111.686 323.435,111.600 323.132,111.599 334.131 C 111.597 345.089,111.465 345.636,108.466 347.166 C 105.033 348.918,104.802 349.557,104.787 357.331 C 104.774 364.631,104.763 364.675,102.646 366.309 C 101.663 367.068,100.994 367.200,98.132 367.200 C 92.194 367.200,91.600 368.109,91.600 377.206 C 91.600 384.585,91.555 384.727,88.577 386.632 C 84.949 388.953,84.205 392.936,86.158 399.587 C 86.554 400.937,86.800 403.269,86.800 405.676 C 86.800 410.021,87.691 412.685,89.461 413.632 C 92.118 415.054,91.980 415.801,88.397 419.403 L 85.111 422.706 87.557 424.009 C 89.796 425.203,93.200 428.293,93.200 429.132 C 93.200 429.612,88.868 430.719,85.000 431.227 C 83.240 431.458,79.550 432.170,76.800 432.809 C 69.646 434.472,64.495 435.265,59.000 435.550 C 53.757 435.823,53.545 435.970,55.041 438.300 C 55.563 439.114,55.934 439.200,58.928 439.200 L 62.238 439.200 63.747 440.746 C 65.733 442.779,65.658 442.800,56.363 442.800 C 49.077 442.800,48.766 442.767,48.096 441.933 C 45.100 438.199,44.330 437.615,40.427 436.117 C 39.574 435.789,39.818 435.655,42.427 435.022 C 48.556 433.533,51.706 431.056,50.033 429.039 C 49.484 428.378,41.934 424.627,39.872 423.991 C 37.098 423.135,37.820 421.161,41.129 420.557 C 41.940 420.408,43.263 419.695,44.076 418.966 C 44.888 418.240,46.103 417.360,46.776 417.012 L 48.000 416.379 48.000 412.577 C 48.000 407.212,47.047 405.290,44.000 404.509 L 42.600 404.151 42.487 399.675 C 42.425 397.214,42.532 395.200,42.725 395.200 C 43.305 395.200,44.320 396.529,44.601 397.656 C 44.914 398.912,46.578 400.590,48.068 401.152 C 49.974 401.872,52.400 397.551,52.400 393.434 C 52.400 390.897,52.702 389.373,54.040 385.168 L 55.681 380.013 59.193 376.807 L 62.705 373.600 65.922 373.600 C 69.595 373.600,70.804 372.925,72.485 369.934 C 73.007 369.005,74.111 367.900,75.089 367.327 C 76.022 366.780,77.239 365.794,77.793 365.135 L 78.800 363.939 78.800 350.797 L 78.800 337.655 80.867 335.728 C 82.003 334.667,83.443 333.286,84.067 332.658 L 85.200 331.515 85.200 324.780 L 85.200 318.044 87.700 316.722 C 90.326 315.333,90.838 314.648,92.214 310.684 C 92.771 309.077,94.520 306.400,95.012 306.400 C 95.090 306.400,95.520 307.615,95.967 309.100 M332.069 343.462 C 333.204 344.490,333.096 347.299,331.927 347.128 C 330.946 346.984,330.251 345.185,330.602 343.700 C 330.856 342.626,331.101 342.586,332.069 343.462 M338.751 349.574 C 339.218 350.660,339.604 351.785,339.609 352.074 C 339.629 353.265,341.209 355.976,342.672 357.329 C 344.459 358.983,346.237 363.606,345.820 365.516 C 344.736 370.485,345.747 374.975,348.632 377.999 C 350.155 379.596,351.034 380.954,351.590 382.570 C 352.407 384.945,354.564 389.007,355.225 389.415 C 355.431 389.543,355.600 390.932,355.600 392.503 C 355.600 396.961,356.316 401.587,358.232 409.504 C 359.557 414.976,360.000 417.599,360.000 419.966 L 360.000 423.125 361.793 424.312 C 363.111 425.185,364.464 425.634,366.893 426.003 C 370.517 426.555,371.600 426.957,371.600 427.750 C 371.600 428.037,372.095 428.497,372.700 428.773 L 373.800 429.275 372.558 429.937 C 371.875 430.302,371.389 430.809,371.479 431.063 C 372.376 433.607,346.667 435.541,338.800 433.522 C 325.084 430.001,324.638 429.922,321.257 430.440 C 317.049 431.084,316.278 430.844,315.433 428.630 C 314.331 425.745,312.455 425.445,307.061 427.289 C 304.953 428.010,304.480 428.039,302.261 427.585 C 299.272 426.973,294.766 426.473,289.344 426.152 C 284.814 425.884,284.400 425.583,284.400 422.555 C 284.400 419.943,284.850 419.600,288.274 419.600 C 290.788 419.600,291.712 419.408,293.560 418.500 C 295.724 417.437,296.058 417.395,303.406 417.259 C 313.616 417.070,315.976 417.835,316.642 421.545 C 317.063 423.894,317.351 424.123,321.017 425.015 L 324.509 425.864 326.254 424.168 L 328.000 422.471 328.000 399.661 L 328.000 376.851 330.983 374.150 C 332.624 372.664,334.199 370.897,334.483 370.224 C 335.349 368.175,335.094 360.101,334.016 355.400 C 333.512 353.200,333.014 350.545,332.911 349.500 L 332.723 347.600 335.312 347.600 L 337.901 347.600 338.751 349.574 M136.340 414.635 C 139.379 417.674,139.717 417.775,147.600 418.000 L 154.600 418.200 155.070 419.800 C 155.328 420.680,155.740 422.281,155.984 423.358 C 157.093 428.247,158.810 429.036,167.057 428.446 C 175.590 427.836,177.402 426.968,178.692 422.874 C 179.553 420.143,180.949 418.622,183.228 417.935 C 185.652 417.203,197.151 417.320,201.400 418.119 C 206.450 419.069,206.661 419.202,207.198 421.788 C 207.848 424.920,208.501 425.261,214.691 425.698 C 219.760 426.056,225.690 427.663,226.777 428.972 C 227.767 430.165,224.284 432.937,219.400 434.843 C 216.941 435.802,216.584 436.073,216.465 437.067 C 216.275 438.655,215.702 439.200,214.225 439.200 C 213.155 439.200,212.838 439.431,212.267 440.627 C 211.441 442.360,211.656 442.802,213.324 442.795 C 215.627 442.785,216.399 442.398,216.406 441.253 C 216.419 439.039,216.196 439.077,228.056 439.296 C 238.603 439.491,239.123 439.538,242.400 440.592 C 246.915 442.045,246.800 441.908,246.800 445.822 C 246.800 449.554,246.686 449.687,243.400 449.811 C 241.099 449.898,230.461 451.588,229.452 452.027 C 228.983 452.231,228.330 452.557,228.000 452.751 C 227.670 452.944,226.680 453.408,225.800 453.780 C 224.920 454.152,223.030 455.149,221.600 455.994 C 220.074 456.895,217.761 457.818,216.000 458.227 C 211.924 459.173,210.952 459.732,209.949 461.708 C 209.477 462.639,208.550 464.190,207.888 465.155 L 206.686 466.910 203.453 466.660 L 200.220 466.411 198.125 464.306 L 196.030 462.200 195.589 458.530 C 195.080 454.291,195.487 452.960,197.719 451.564 C 199.090 450.707,199.778 450.729,204.107 451.774 L 206.415 452.331 207.007 451.186 C 208.089 449.094,207.422 445.381,206.033 445.762 C 197.257 448.174,195.213 447.012,195.193 439.600 C 195.174 432.763,194.881 432.468,186.471 430.813 C 181.275 429.790,163.427 429.626,158.400 430.554 C 153.438 431.471,140.186 431.753,136.985 431.011 C 132.793 430.039,130.080 431.228,129.338 434.365 C 128.999 435.797,128.040 436.800,127.011 436.800 C 125.557 436.800,121.971 438.011,121.755 438.574 C 121.602 438.972,121.181 439.019,120.075 438.762 C 119.264 438.573,117.700 438.413,116.600 438.406 C 112.793 438.380,109.514 436.329,110.751 434.747 C 111.914 433.261,113.653 429.610,113.397 429.195 C 113.269 428.988,112.004 428.170,110.586 427.377 C 107.140 425.450,105.080 425.880,104.219 428.704 C 103.613 430.691,98.989 431.033,97.088 429.232 C 96.767 428.927,99.213 426.216,101.503 424.336 C 102.397 423.603,102.805 422.919,102.818 422.136 C 102.851 419.932,104.175 417.143,106.200 415.011 L 108.200 412.904 121.353 412.852 L 134.505 412.800 136.340 414.635 M119.289 428.936 L 117.978 429.412 119.747 431.148 L 121.516 432.884 123.231 431.169 L 124.947 429.453 123.573 428.957 C 121.859 428.337,120.953 428.333,119.289 428.936 M310.935 431.991 C 313.509 432.520,314.393 433.665,314.406 436.487 C 314.410 437.209,314.659 438.846,314.960 440.125 C 315.413 442.050,315.415 442.415,314.974 442.245 C 314.681 442.133,313.897 442.312,313.233 442.643 C 310.156 444.178,293.400 444.641,290.273 443.277 C 288.039 442.303,286.439 436.533,287.697 433.990 C 288.718 431.925,291.025 430.751,293.111 431.234 C 295.601 431.810,299.250 431.672,302.197 430.892 C 304.853 430.188,305.085 430.185,306.797 430.831 C 307.789 431.205,309.651 431.727,310.935 431.991 M201.184 476.800 C 200.982 477.790,200.712 479.455,200.584 480.500 C 200.189 483.723,199.600 482.606,199.600 478.633 C 199.600 473.975,199.811 473.227,200.830 474.267 C 201.435 474.883,201.491 475.286,201.184 476.800 " stroke="none" fill="#e3e406" fill-rule="evenodd"></path><path id="path2" d="M206.800 10.788 C 204.270 10.957,196.350 11.121,189.200 11.153 C 175.307 11.215,162.703 11.720,158.179 12.396 C 156.651 12.625,152.610 13.163,149.200 13.593 C 145.790 14.023,141.200 14.640,139.000 14.963 C 136.800 15.286,132.930 15.740,130.400 15.970 C 114.843 17.389,110.110 18.168,104.600 20.217 C 99.704 22.038,95.567 23.012,89.400 23.798 C 82.248 24.709,78.191 25.635,71.299 27.927 C 68.055 29.006,63.240 30.291,60.600 30.782 C 57.960 31.273,54.270 32.091,52.400 32.600 C 50.530 33.108,48.370 33.651,47.600 33.807 C 42.771 34.781,28.930 39.732,24.499 42.069 C 18.848 45.051,13.659 48.047,13.211 48.587 C 12.967 48.880,11.741 49.514,10.484 49.995 C 9.228 50.476,7.120 51.305,5.800 51.836 C 4.480 52.368,2.635 52.802,1.700 52.801 L 0.000 52.800 0.000 66.200 L 0.000 79.600 1.500 79.603 C 5.209 79.609,14.256 87.261,17.984 93.544 C 19.503 96.105,21.433 99.037,22.273 100.060 C 23.113 101.084,24.314 102.583,24.943 103.393 C 25.572 104.202,27.052 105.483,28.233 106.238 C 29.745 107.205,30.904 108.414,32.150 110.324 C 33.124 111.816,34.219 113.284,34.584 113.586 C 35.552 114.390,36.254 116.296,38.009 122.884 C 38.873 126.124,40.372 130.895,41.341 133.487 C 42.311 136.079,43.661 140.000,44.342 142.200 C 45.023 144.400,46.317 148.090,47.218 150.400 C 51.383 161.080,52.603 168.680,54.411 195.200 C 54.868 201.910,55.439 208.570,55.679 210.000 C 56.245 213.374,56.204 235.988,55.617 243.600 C 54.470 258.504,51.798 274.950,47.820 291.600 C 46.255 298.152,45.346 303.359,43.349 317.200 C 43.047 319.290,41.611 325.680,40.158 331.400 C 38.705 337.120,37.099 343.600,36.589 345.800 C 36.080 348.000,35.467 350.311,35.227 350.937 C 34.988 351.562,34.093 354.802,33.239 358.137 C 30.646 368.255,29.674 371.204,27.348 376.000 C 26.122 378.530,24.626 381.870,24.024 383.421 C 23.423 384.973,21.985 387.644,20.830 389.356 C 16.666 395.526,14.260 401.617,12.196 411.207 C 11.027 416.639,10.569 417.490,8.145 418.726 C 7.264 419.175,5.775 420.186,4.834 420.971 C 3.515 422.074,2.768 422.400,1.562 422.400 L 0.000 422.400 0.000 435.000 L 0.000 447.600 1.613 447.600 C 3.235 447.600,4.971 448.374,9.055 450.919 C 14.295 454.185,15.691 454.889,19.907 456.386 C 30.607 460.186,45.311 462.534,61.400 463.012 C 66.020 463.149,73.580 463.699,78.200 464.234 C 82.820 464.768,88.142 465.385,90.027 465.603 C 94.678 466.142,99.397 466.089,104.281 465.443 C 108.520 464.883,115.382 465.098,120.800 465.961 C 122.230 466.189,128.530 467.012,134.800 467.790 C 164.142 471.429,170.087 473.922,175.644 484.915 C 179.396 492.339,180.159 496.062,180.785 510.000 C 180.997 514.730,181.449 520.130,181.790 522.000 C 182.849 527.820,183.539 535.466,183.795 544.200 C 183.930 548.820,184.221 555.300,184.441 558.600 C 184.660 561.900,185.001 567.210,185.197 570.400 C 185.393 573.590,185.821 579.440,186.148 583.400 C 186.475 587.360,186.938 596.360,187.178 603.400 C 187.743 620.035,188.220 626.365,189.163 629.800 C 189.587 631.340,190.314 635.120,190.780 638.200 C 191.246 641.280,192.057 646.500,192.581 649.800 C 193.568 656.009,193.994 659.942,195.007 672.200 C 195.334 676.160,195.871 680.930,196.200 682.800 C 196.529 684.670,196.799 688.135,196.799 690.500 L 196.800 694.800 203.000 694.800 L 209.200 694.800 209.218 691.100 C 209.227 689.065,209.406 686.050,209.614 684.400 C 210.269 679.217,211.184 661.186,211.578 645.696 C 211.787 637.499,212.074 630.605,212.216 630.375 C 212.358 630.145,212.636 624.251,212.834 617.278 C 213.032 610.305,213.459 602.080,213.783 599.000 C 214.108 595.920,214.480 590.520,214.612 587.000 C 214.743 583.480,215.018 579.340,215.222 577.800 C 215.678 574.352,216.176 566.151,217.188 545.400 C 217.995 528.853,218.790 521.438,220.568 513.878 C 221.095 511.635,221.815 508.000,222.168 505.800 C 222.774 502.019,225.375 486.220,225.889 483.200 C 226.173 481.535,230.314 475.241,231.657 474.435 C 234.465 472.748,242.862 471.135,250.617 470.792 C 257.335 470.495,258.557 470.334,260.971 469.426 C 265.811 467.604,272.092 467.079,285.600 467.366 C 297.668 467.623,303.817 467.293,314.400 465.820 C 316.710 465.498,323.010 465.139,328.400 465.022 C 338.503 464.801,345.789 464.133,352.400 462.820 C 354.490 462.405,357.730 461.948,359.600 461.805 C 371.227 460.914,390.330 454.967,394.842 450.832 C 396.310 449.487,396.880 449.220,398.300 449.211 L 400.000 449.200 400.000 434.800 L 400.000 420.400 398.300 420.393 C 395.344 420.380,391.630 414.895,389.098 406.800 C 387.737 402.449,386.225 399.281,384.441 397.045 C 383.758 396.190,383.200 395.319,383.200 395.110 C 383.200 394.546,379.735 385.842,378.170 382.475 C 377.422 380.866,376.097 377.536,375.226 375.075 C 374.355 372.614,372.823 369.008,371.821 367.062 C 370.573 364.637,370.000 363.031,370.000 361.959 C 370.000 356.437,367.589 346.358,365.064 341.323 C 363.222 337.651,361.625 332.987,359.885 326.200 C 356.501 313.002,355.979 310.592,355.592 306.400 C 354.642 296.107,353.396 286.084,351.814 276.000 C 347.651 249.462,347.049 215.687,350.231 187.200 C 350.562 184.230,350.914 181.530,351.012 181.200 C 351.160 180.699,352.387 172.705,353.406 165.600 C 354.075 160.930,357.317 147.823,358.009 146.989 C 358.652 146.215,361.155 138.828,362.440 133.915 C 363.194 131.035,364.347 127.835,365.225 126.186 C 366.697 123.424,367.235 121.820,369.382 113.800 C 370.553 109.427,371.130 108.473,373.281 107.348 C 376.042 105.904,380.737 101.788,382.803 99.000 C 383.618 97.900,386.589 94.660,389.406 91.800 C 392.222 88.940,395.054 85.745,395.698 84.700 C 396.772 82.956,396.997 82.800,398.434 82.800 L 400.000 82.800 400.000 75.800 L 400.000 68.800 398.421 68.800 C 396.480 68.800,395.518 69.641,393.387 73.200 C 392.531 74.630,391.098 76.610,390.203 77.600 C 389.308 78.590,388.045 80.101,387.397 80.957 C 386.749 81.813,384.696 83.652,382.836 85.044 C 378.816 88.051,375.947 91.235,372.598 96.407 C 371.143 98.654,369.281 100.927,368.057 101.953 C 366.915 102.909,365.497 104.525,364.905 105.545 C 364.313 106.565,363.259 108.210,362.562 109.200 C 359.965 112.886,357.765 118.712,354.205 131.329 C 352.294 138.101,350.482 143.610,349.841 144.600 C 348.746 146.292,344.994 159.601,344.598 163.200 C 344.465 164.410,344.102 166.785,343.791 168.478 C 341.403 181.469,340.004 198.176,340.012 213.600 C 340.022 232.010,340.732 257.477,341.367 262.200 C 341.693 264.620,342.073 267.860,342.213 269.400 C 342.352 270.940,342.889 274.990,343.404 278.400 C 344.931 288.489,346.336 299.081,346.802 304.000 C 347.420 310.530,347.764 312.547,348.914 316.400 C 349.472 318.270,350.841 323.534,351.957 328.098 C 354.106 336.886,356.086 342.631,360.885 354.005 C 363.833 360.992,364.019 361.639,367.257 376.200 C 367.733 378.338,368.927 381.668,370.197 384.400 C 371.374 386.930,372.873 390.350,373.528 392.000 C 374.183 393.650,376.696 399.050,379.113 404.000 C 381.529 408.950,383.888 414.043,384.354 415.318 C 385.465 418.353,386.537 420.425,387.731 421.847 C 389.583 424.049,392.118 429.330,393.425 433.706 L 394.113 436.012 392.800 438.906 C 390.685 443.568,385.920 446.539,375.000 450.008 C 372.140 450.916,368.090 452.276,366.000 453.029 C 357.541 456.080,347.412 456.994,317.600 457.397 C 310.295 457.496,304.244 457.755,303.200 458.014 C 302.181 458.266,294.895 458.600,286.400 458.783 C 276.622 458.994,269.938 459.321,267.200 459.723 C 264.890 460.062,262.138 460.449,261.084 460.583 C 260.030 460.717,258.319 460.988,257.283 461.184 C 256.247 461.381,252.789 461.742,249.599 461.986 C 228.093 463.634,223.049 466.477,220.547 478.358 C 220.010 480.911,219.236 483.900,218.829 485.000 C 217.060 489.776,215.668 499.051,213.756 518.800 C 213.610 520.317,213.002 522.563,212.298 524.191 C 210.713 527.857,210.510 529.598,210.014 543.800 C 209.783 550.400,209.408 560.480,209.180 566.200 C 208.953 571.920,208.604 580.740,208.405 585.800 C 208.205 590.860,207.929 601.390,207.790 609.200 C 207.579 621.060,207.085 629.409,206.222 635.689 C 206.140 636.289,205.619 638.179,205.064 639.889 C 204.510 641.600,203.940 643.630,203.798 644.400 C 203.522 645.895,201.011 653.294,200.422 654.346 C 199.907 655.266,199.703 653.639,198.997 643.000 C 198.661 637.940,198.300 632.720,198.195 631.400 C 197.836 626.905,197.228 616.614,196.990 611.000 C 196.859 607.920,196.495 601.440,196.182 596.600 C 195.868 591.760,195.514 586.090,195.395 584.000 C 195.276 581.910,195.007 577.950,194.798 575.200 C 193.936 563.877,193.198 551.592,192.779 541.600 C 192.328 530.832,191.973 527.223,190.243 515.800 C 189.709 512.280,189.070 507.330,188.821 504.800 C 185.495 470.964,180.234 465.121,150.800 462.574 C 146.849 462.232,141.747 461.503,133.200 460.059 C 121.957 458.159,115.027 457.595,100.800 457.423 C 93.650 457.336,83.390 456.985,78.000 456.642 C 72.610 456.299,65.320 456.009,61.800 455.999 C 55.396 455.979,46.919 454.987,39.621 453.403 C 23.824 449.974,15.518 445.753,11.851 439.290 L 10.029 436.079 10.805 433.277 C 11.232 431.736,11.965 429.514,12.433 428.338 C 12.900 427.162,13.505 425.480,13.776 424.600 C 14.047 423.720,15.114 421.650,16.148 420.000 C 17.251 418.238,18.448 415.596,19.047 413.600 C 19.609 411.730,21.305 407.590,22.817 404.400 C 24.329 401.210,26.219 396.890,27.018 394.800 C 27.816 392.710,29.692 388.570,31.188 385.600 C 32.683 382.630,34.278 379.120,34.732 377.800 C 37.118 370.865,39.283 363.328,39.976 359.543 C 41.036 353.755,41.750 351.124,43.625 346.089 C 45.486 341.095,48.338 330.276,49.608 323.400 C 50.095 320.760,51.024 317.160,51.672 315.400 C 52.499 313.154,53.084 310.351,53.634 306.000 C 54.622 298.186,55.437 293.657,56.405 290.600 C 58.382 284.354,59.685 277.724,60.609 269.200 C 60.931 266.230,61.544 262.698,61.970 261.351 C 63.697 255.900,64.837 215.710,63.453 209.057 C 63.046 207.096,62.797 203.937,62.791 200.657 C 62.786 197.766,62.605 193.150,62.389 190.400 C 62.173 187.650,61.729 181.890,61.402 177.600 C 60.292 163.040,59.621 159.210,57.261 153.992 C 56.811 152.997,55.791 149.757,54.994 146.792 C 53.345 140.662,51.375 134.951,49.199 130.000 C 48.377 128.130,46.851 123.901,45.807 120.601 C 43.261 112.555,41.065 108.229,38.369 105.953 C 32.795 101.246,29.523 97.035,26.739 90.986 C 23.518 83.988,21.166 80.953,17.716 79.347 C 10.049 75.778,6.786 71.171,7.852 65.423 L 8.490 61.985 11.545 58.957 C 14.175 56.350,15.240 55.624,19.200 53.745 C 21.730 52.544,24.994 50.842,26.452 49.964 C 33.417 45.768,51.513 39.798,63.344 37.794 C 66.833 37.203,71.963 36.107,74.744 35.359 C 86.654 32.155,97.355 29.601,102.200 28.805 C 105.060 28.336,109.211 27.524,111.425 27.002 C 116.574 25.787,122.689 24.939,131.772 24.180 C 135.747 23.847,143.320 22.939,148.600 22.161 C 170.956 18.867,225.244 18.186,242.600 20.982 C 243.260 21.088,247.220 21.362,251.400 21.590 C 257.058 21.899,259.971 22.253,262.800 22.974 C 265.519 23.668,269.161 24.130,275.600 24.601 C 292.815 25.858,308.767 28.145,314.800 30.223 C 320.038 32.026,325.085 33.330,332.558 34.811 C 340.701 36.424,358.278 42.150,364.879 45.339 C 367.453 46.583,369.793 47.602,370.079 47.605 C 370.366 47.607,371.680 48.234,373.000 48.998 C 377.312 51.493,379.766 52.700,383.210 54.020 C 387.871 55.806,393.142 60.802,395.233 65.415 L 396.586 68.400 398.293 68.400 L 400.000 68.400 400.000 60.800 L 400.000 53.200 398.544 53.200 C 397.654 53.200,396.373 52.764,395.244 52.077 C 394.230 51.459,392.372 50.541,391.116 50.037 C 389.859 49.533,388.607 48.849,388.332 48.518 C 386.881 46.770,376.336 40.831,373.200 39.996 C 372.210 39.732,369.758 38.815,367.751 37.958 C 365.745 37.101,363.852 36.400,363.545 36.400 C 363.239 36.400,362.273 36.017,361.399 35.548 C 358.052 33.754,351.548 31.658,344.200 30.005 C 342.440 29.609,339.650 28.889,338.000 28.406 C 336.350 27.922,332.379 27.015,329.176 26.390 C 321.712 24.935,316.499 23.463,313.567 21.983 C 310.166 20.267,306.168 19.316,299.400 18.614 C 296.100 18.272,290.070 17.643,286.000 17.218 C 281.930 16.792,275.900 16.234,272.600 15.979 C 269.300 15.723,265.278 15.168,263.661 14.745 C 260.865 14.012,257.642 13.619,243.000 12.224 C 227.618 10.759,214.842 10.252,206.800 10.788 " stroke="none" fill="#eded7a" fill-rule="evenodd"></path><path id="path3" d="M195.400 32.806 C 194.740 32.979,189.520 33.224,183.800 33.349 C 175.086 33.541,172.918 33.709,170.427 34.389 C 168.615 34.883,166.224 35.200,164.304 35.200 C 160.189 35.200,157.600 35.836,157.600 36.847 C 157.600 37.544,157.971 37.600,162.582 37.600 L 167.564 37.600 169.816 39.798 C 171.054 41.008,171.996 42.212,171.909 42.474 C 171.686 43.143,167.165 44.640,163.634 45.214 C 159.935 45.815,159.035 46.603,158.640 49.582 C 158.055 53.997,156.964 54.800,151.558 54.800 C 148.084 54.800,144.400 55.402,144.400 55.969 C 144.400 56.120,144.994 56.818,145.719 57.522 L 147.038 58.800 153.619 58.813 C 159.078 58.824,160.575 58.958,162.400 59.600 C 163.610 60.026,165.106 60.380,165.725 60.387 C 167.422 60.407,171.068 62.357,172.621 64.076 L 173.998 65.600 193.359 65.600 L 212.720 65.600 216.060 62.405 C 220.058 58.579,219.152 58.592,223.000 62.309 L 226.200 65.400 229.600 62.109 L 233.000 58.818 242.700 58.809 L 252.400 58.800 254.000 57.200 L 255.600 55.600 255.600 52.362 C 255.600 48.980,256.255 47.334,257.965 46.419 C 258.755 45.996,267.319 46.816,270.513 47.620 C 272.818 48.200,274.947 47.019,276.604 44.241 L 277.574 42.613 274.694 41.506 C 271.257 40.186,264.698 39.950,260.665 41.000 C 253.663 42.824,247.200 40.838,247.200 36.863 C 247.200 35.708,246.535 35.600,239.442 35.600 C 233.192 35.600,232.817 35.553,229.375 34.345 L 225.800 33.090 212.000 32.954 C 204.410 32.879,197.840 32.744,197.400 32.655 C 196.960 32.565,196.060 32.633,195.400 32.806 M144.686 35.398 C 143.477 35.730,142.099 36.545,140.947 37.606 C 139.273 39.149,133.183 42.400,131.967 42.400 C 131.683 42.400,131.080 42.737,130.626 43.149 C 130.171 43.561,127.823 44.383,125.400 44.978 C 114.744 47.594,113.008 48.540,114.257 51.052 C 115.281 53.109,117.022 53.661,123.232 53.898 C 130.036 54.158,131.416 53.442,132.745 48.967 C 133.881 45.141,136.844 44.069,143.916 44.926 C 148.132 45.437,155.354 44.746,156.485 43.723 C 157.098 43.168,157.212 42.573,157.117 40.423 L 157.000 37.800 155.400 37.672 C 154.520 37.602,153.440 37.211,153.000 36.804 C 152.306 36.162,147.912 34.734,146.942 34.836 C 146.754 34.855,145.739 35.108,144.686 35.398 M66.600 55.348 C 65.940 55.656,64.688 56.649,63.819 57.554 L 62.238 59.200 59.018 59.200 L 55.799 59.200 54.927 60.900 C 54.448 61.835,53.934 63.410,53.785 64.400 C 53.378 67.110,52.061 69.863,50.530 71.208 C 47.363 73.989,47.556 76.874,51.131 80.168 C 54.378 83.160,56.840 85.780,60.275 89.900 L 61.693 91.600 65.600 91.600 L 69.507 91.600 70.953 89.999 C 71.749 89.118,72.400 88.240,72.400 88.046 C 72.400 86.432,74.991 85.200,78.385 85.200 L 81.819 85.200 85.000 82.000 L 88.181 78.800 91.438 78.800 L 94.695 78.800 96.547 76.947 L 98.400 75.095 98.400 71.689 L 98.400 68.283 101.700 65.170 L 105.000 62.058 103.622 60.629 L 102.243 59.200 95.495 59.200 C 91.762 59.200,88.414 59.021,88.000 58.800 C 87.589 58.580,85.970 58.130,84.403 57.801 C 82.835 57.471,80.528 56.710,79.276 56.109 C 76.515 54.785,68.802 54.322,66.600 55.348 M320.200 60.641 C 316.827 61.449,316.800 61.514,316.800 68.826 C 316.800 77.742,318.353 81.006,323.377 82.648 C 325.926 83.481,328.236 84.619,329.873 85.846 C 330.975 86.671,331.591 86.800,334.442 86.800 C 337.353 86.800,338.043 86.952,340.368 88.100 C 345.663 90.716,351.691 90.115,357.634 86.379 C 359.046 85.492,361.051 84.369,362.091 83.883 C 363.510 83.221,364.092 82.677,364.420 81.706 C 365.011 79.960,366.475 78.895,368.728 78.572 C 372.493 78.033,373.736 76.413,374.135 71.526 L 374.385 68.452 372.178 67.626 C 370.842 67.126,369.016 66.800,367.555 66.800 C 365.429 66.800,365.035 66.673,364.270 65.742 C 361.308 62.138,360.499 61.773,354.592 61.380 C 352.617 61.248,349.794 60.884,348.321 60.570 C 344.547 59.767,323.633 59.819,320.200 60.641 M119.285 94.068 C 118.138 95.185,117.200 96.259,117.200 96.454 C 117.200 96.650,116.211 97.443,115.002 98.216 C 111.288 100.592,110.916 101.974,113.451 103.969 C 114.474 104.773,114.946 104.800,127.975 104.800 L 141.443 104.800 142.722 103.481 C 144.388 101.762,144.335 101.169,142.368 99.546 C 141.471 98.806,139.321 96.811,137.590 95.112 L 134.444 92.025 132.222 94.301 C 131.000 95.552,130.000 96.678,130.000 96.802 C 130.000 96.926,129.447 97.354,128.771 97.754 L 127.542 98.480 124.456 95.258 L 121.370 92.037 119.285 94.068 M262.359 95.230 L 259.317 98.400 255.606 98.400 L 251.894 98.400 250.547 99.828 C 248.880 101.597,248.881 101.654,250.613 103.387 L 252.027 104.800 275.188 104.800 L 298.349 104.800 301.068 107.803 C 304.133 111.187,304.742 111.519,306.172 110.582 C 310.360 107.838,310.608 96.750,306.565 93.003 L 305.483 92.000 292.074 92.000 L 278.665 92.000 275.562 95.240 L 272.458 98.480 271.229 97.754 C 270.553 97.354,270.000 96.926,270.000 96.802 C 270.000 96.590,265.607 91.966,265.466 92.030 C 265.430 92.046,264.031 93.486,262.359 95.230 M67.269 99.544 C 66.681 100.173,65.788 101.150,65.286 101.715 C 64.783 102.280,63.845 102.858,63.201 103.000 C 62.278 103.202,61.802 103.725,60.947 105.473 L 59.863 107.689 60.752 111.144 C 61.648 114.627,62.040 115.214,64.295 116.446 C 66.931 117.887,67.744 119.650,68.032 124.549 C 68.175 126.997,68.659 130.440,69.106 132.200 C 69.553 133.960,70.143 136.647,70.418 138.170 C 70.692 139.694,71.521 142.247,72.258 143.843 C 74.553 148.810,74.822 150.790,74.916 163.397 C 74.962 169.632,75.117 174.851,75.260 174.994 C 75.498 175.231,80.185 176.368,81.600 176.531 C 82.441 176.628,83.836 173.589,84.597 170.000 C 86.108 162.872,86.540 161.406,87.819 159.070 C 90.321 154.496,90.203 154.862,89.631 153.472 C 89.343 152.772,88.844 151.390,88.520 150.400 C 88.197 149.410,87.338 146.980,86.611 145.000 C 84.951 140.479,84.241 134.764,84.471 127.773 C 84.672 121.677,84.930 121.052,87.765 119.799 C 92.698 117.617,96.070 109.849,93.122 107.458 C 88.349 103.586,81.351 103.753,78.982 107.795 C 78.404 108.780,77.381 110.050,76.706 110.617 L 75.480 111.649 73.740 109.941 L 72.000 108.233 72.000 104.677 C 72.000 99.548,69.650 96.997,67.269 99.544 M330.100 107.865 C 329.427 108.137,329.409 114.449,330.080 115.120 C 332.115 117.155,334.400 115.182,334.400 111.388 L 334.400 108.105 332.900 107.857 C 331.207 107.577,330.811 107.578,330.100 107.865 M316.512 119.102 C 313.267 122.150,312.297 125.911,312.303 135.430 C 312.309 144.136,312.573 144.599,318.090 145.567 C 322.521 146.345,323.022 146.823,323.602 150.841 C 323.837 152.469,324.122 154.228,324.235 154.751 L 324.441 155.701 325.420 154.781 C 326.309 153.946,326.402 153.542,326.417 150.430 C 326.426 148.526,326.759 145.666,327.166 144.000 L 327.897 141.000 325.815 138.799 C 323.922 136.799,323.585 136.142,322.113 131.599 C 320.091 125.354,318.388 119.549,318.395 118.924 C 318.405 117.960,317.651 118.031,316.512 119.102 M93.600 159.350 C 91.999 159.881,91.987 159.967,92.952 164.326 C 93.411 166.398,93.604 169.318,93.613 174.326 C 93.634 186.280,94.403 196.400,95.290 196.400 C 97.993 196.400,99.517 189.367,97.607 185.703 C 96.298 183.191,96.001 180.360,95.986 170.245 C 95.970 159.145,95.851 158.605,93.600 159.350 M99.913 204.568 C 99.191 205.320,97.790 206.850,96.800 207.967 C 95.810 209.084,94.354 210.711,93.565 211.581 L 92.130 213.164 93.570 214.571 C 94.565 215.543,95.317 216.878,96.002 218.889 C 96.546 220.490,97.894 223.178,98.996 224.862 C 100.098 226.546,101.205 228.256,101.456 228.662 C 101.884 229.356,101.988 229.329,103.191 228.200 C 108.587 223.142,108.768 209.968,103.513 204.713 C 101.665 202.865,101.552 202.861,99.913 204.568 M98.291 249.288 L 95.182 255.764 91.877 252.477 L 88.573 249.189 87.029 250.770 C 86.180 251.639,84.673 252.769,83.679 253.280 C 81.052 254.632,80.382 256.801,80.507 263.551 C 80.619 269.612,78.714 274.254,75.709 275.239 C 75.369 275.351,75.103 277.444,74.841 282.087 C 74.633 285.766,74.376 288.916,74.270 289.087 C 74.164 289.259,73.867 291.200,73.610 293.400 C 73.353 295.600,72.738 299.020,72.243 301.000 L 71.344 304.600 72.572 308.234 C 74.141 312.876,74.843 313.891,76.091 313.322 C 78.223 312.351,79.665 306.505,79.095 301.147 C 78.742 297.829,78.790 297.057,79.516 294.400 C 80.371 291.273,80.324 290.169,79.178 286.439 L 78.637 284.677 80.465 283.022 C 83.453 280.317,83.600 279.802,83.600 272.055 L 83.600 265.271 84.900 264.175 C 87.043 262.368,88.222 262.114,95.800 261.827 C 107.259 261.394,107.437 261.279,106.794 254.766 C 106.114 247.880,104.013 242.779,101.869 242.806 C 101.611 242.809,100.001 245.726,98.291 249.288 M94.246 276.712 C 93.274 278.591,93.305 291.458,94.286 293.526 L 94.973 294.972 95.504 293.186 C 96.169 290.948,96.043 277.411,95.346 276.231 C 94.920 275.511,94.851 275.541,94.246 276.712 M93.875 307.584 C 93.327 308.236,92.579 309.631,92.214 310.684 C 90.838 314.648,90.326 315.333,87.700 316.722 L 85.200 318.044 85.200 324.780 L 85.200 331.515 84.067 332.658 C 83.443 333.286,82.003 334.667,80.867 335.728 L 78.800 337.655 78.800 350.797 L 78.800 363.939 77.793 365.135 C 77.239 365.794,76.022 366.780,75.089 367.327 C 74.111 367.900,73.007 369.005,72.485 369.934 C 70.804 372.925,69.595 373.600,65.922 373.600 L 62.705 373.600 59.193 376.807 L 55.681 380.013 54.040 385.168 C 52.702 389.373,52.400 390.897,52.400 393.434 C 52.400 397.551,49.974 401.872,48.068 401.152 C 46.578 400.590,44.914 398.912,44.601 397.656 C 44.320 396.529,43.305 395.200,42.725 395.200 C 42.532 395.200,42.425 397.214,42.487 399.675 L 42.600 404.151 44.000 404.509 C 47.047 405.290,48.000 407.212,48.000 412.577 L 48.000 416.379 46.776 417.012 C 46.103 417.360,44.888 418.240,44.076 418.966 C 43.263 419.695,41.940 420.408,41.129 420.557 C 37.820 421.161,37.098 423.135,39.872 423.991 C 41.934 424.627,49.484 428.378,50.033 429.039 C 51.706 431.056,48.556 433.533,42.427 435.022 C 39.818 435.655,39.574 435.789,40.427 436.117 C 44.330 437.615,45.100 438.199,48.096 441.933 C 48.766 442.767,49.077 442.800,56.363 442.800 C 65.658 442.800,65.733 442.779,63.747 440.746 L 62.238 439.200 58.928 439.200 C 55.934 439.200,55.563 439.114,55.041 438.300 C 53.545 435.970,53.757 435.823,59.000 435.550 C 64.495 435.265,69.646 434.472,76.800 432.809 C 79.550 432.170,83.240 431.458,85.000 431.227 C 88.868 430.719,93.200 429.612,93.200 429.132 C 93.200 428.293,89.796 425.203,87.557 424.009 L 85.111 422.706 88.397 419.403 C 91.980 415.801,92.118 415.054,89.461 413.632 C 87.691 412.685,86.800 410.021,86.800 405.676 C 86.800 403.269,86.554 400.937,86.158 399.587 C 84.205 392.936,84.949 388.953,88.577 386.632 C 91.555 384.727,91.600 384.585,91.600 377.206 C 91.600 368.109,92.194 367.200,98.132 367.200 C 100.994 367.200,101.663 367.068,102.646 366.309 C 104.763 364.675,104.774 364.631,104.787 357.331 C 104.802 349.557,105.033 348.918,108.466 347.166 C 111.465 345.636,111.597 345.089,111.599 334.131 C 111.600 323.132,111.686 323.435,107.866 321.020 C 106.881 320.397,105.850 319.466,105.574 318.951 C 105.004 317.886,104.598 317.718,101.339 317.196 C 98.608 316.758,97.364 315.638,97.008 313.298 C 96.757 311.652,95.238 306.400,95.012 306.400 C 94.935 306.400,94.423 306.933,93.875 307.584 M330.602 343.700 C 330.251 345.185,330.946 346.984,331.927 347.128 C 332.697 347.241,332.800 347.072,332.800 345.690 C 332.800 343.446,331.039 341.852,330.602 343.700 M332.911 349.500 C 333.014 350.545,333.512 353.200,334.016 355.400 C 335.094 360.101,335.349 368.175,334.483 370.224 C 334.199 370.897,332.624 372.664,330.983 374.150 L 328.000 376.851 328.000 399.661 L 328.000 422.471 326.254 424.168 L 324.509 425.864 321.017 425.015 C 317.351 424.123,317.063 423.894,316.642 421.545 C 315.976 417.835,313.616 417.070,303.406 417.259 C 296.058 417.395,295.724 417.437,293.560 418.500 C 291.712 419.408,290.788 419.600,288.274 419.600 C 284.850 419.600,284.400 419.943,284.400 422.555 C 284.400 425.583,284.814 425.884,289.344 426.152 C 294.766 426.473,299.272 426.973,302.261 427.585 C 304.480 428.039,304.953 428.010,307.061 427.289 C 312.455 425.445,314.331 425.745,315.433 428.630 C 316.278 430.844,317.049 431.084,321.257 430.440 C 324.638 429.922,325.084 430.001,338.800 433.522 C 346.667 435.541,372.376 433.607,371.479 431.063 C 371.389 430.809,371.875 430.302,372.558 429.937 L 373.800 429.275 372.700 428.773 C 372.095 428.497,371.600 428.037,371.600 427.750 C 371.600 426.957,370.517 426.555,366.893 426.003 C 364.464 425.634,363.111 425.185,361.793 424.312 L 360.000 423.125 360.000 419.966 C 360.000 417.599,359.557 414.976,358.232 409.504 C 356.316 401.587,355.600 396.961,355.600 392.503 C 355.600 390.932,355.431 389.543,355.225 389.415 C 354.564 389.007,352.407 384.945,351.590 382.570 C 351.034 380.954,350.155 379.596,348.632 377.999 C 345.747 374.975,344.736 370.485,345.820 365.516 C 346.237 363.606,344.459 358.983,342.672 357.329 C 341.209 355.976,339.629 353.265,339.609 352.074 C 339.604 351.785,339.218 350.660,338.751 349.574 L 337.901 347.600 335.312 347.600 L 332.723 347.600 332.911 349.500 M106.200 415.011 C 104.175 417.143,102.851 419.932,102.818 422.136 C 102.805 422.919,102.397 423.603,101.503 424.336 C 99.213 426.216,96.767 428.927,97.088 429.232 C 98.989 431.033,103.613 430.691,104.219 428.704 C 105.080 425.880,107.140 425.450,110.586 427.377 C 112.004 428.170,113.269 428.988,113.397 429.195 C 113.653 429.610,111.914 433.261,110.751 434.747 C 109.514 436.329,112.793 438.380,116.600 438.406 C 117.700 438.413,119.264 438.573,120.075 438.762 C 121.181 439.019,121.602 438.972,121.755 438.574 C 121.971 438.011,125.557 436.800,127.011 436.800 C 128.040 436.800,128.999 435.797,129.338 434.365 C 130.080 431.228,132.793 430.039,136.985 431.011 C 140.186 431.753,153.438 431.471,158.400 430.554 C 163.427 429.626,181.275 429.790,186.471 430.813 C 194.881 432.468,195.174 432.763,195.193 439.600 C 195.213 447.012,197.257 448.174,206.033 445.762 C 207.422 445.381,208.089 449.094,207.007 451.186 L 206.415 452.331 204.107 451.774 C 199.778 450.729,199.090 450.707,197.719 451.564 C 195.487 452.960,195.080 454.291,195.589 458.530 L 196.030 462.200 198.125 464.306 L 200.220 466.411 203.453 466.660 L 206.686 466.910 207.888 465.155 C 208.550 464.190,209.477 462.639,209.949 461.708 C 210.952 459.732,211.924 459.173,216.000 458.227 C 217.761 457.818,220.074 456.895,221.600 455.994 C 223.030 455.149,224.920 454.152,225.800 453.780 C 226.680 453.408,227.670 452.944,228.000 452.751 C 228.330 452.557,228.983 452.231,229.452 452.027 C 230.461 451.588,241.099 449.898,243.400 449.811 C 246.686 449.687,246.800 449.554,246.800 445.822 C 246.800 441.908,246.915 442.045,242.400 440.592 C 239.123 439.538,238.603 439.491,228.056 439.296 C 216.196 439.077,216.419 439.039,216.406 441.253 C 216.399 442.398,215.627 442.785,213.324 442.795 C 211.656 442.802,211.441 442.360,212.267 440.627 C 212.838 439.431,213.155 439.200,214.225 439.200 C 215.702 439.200,216.275 438.655,216.465 437.067 C 216.584 436.073,216.941 435.802,219.400 434.843 C 224.284 432.937,227.767 430.165,226.777 428.972 C 225.690 427.663,219.760 426.056,214.691 425.698 C 208.501 425.261,207.848 424.920,207.198 421.788 C 206.661 419.202,206.450 419.069,201.400 418.119 C 197.151 417.320,185.652 417.203,183.228 417.935 C 180.949 418.622,179.553 420.143,178.692 422.874 C 177.402 426.968,175.590 427.836,167.057 428.446 C 158.810 429.036,157.093 428.247,155.984 423.358 C 155.740 422.281,155.328 420.680,155.070 419.800 L 154.600 418.200 147.600 418.000 C 139.717 417.775,139.379 417.674,136.340 414.635 L 134.505 412.800 121.353 412.852 L 108.200 412.904 106.200 415.011 M123.573 428.957 L 124.947 429.453 123.231 431.169 L 121.516 432.884 119.747 431.148 L 117.978 429.412 119.289 428.936 C 120.953 428.333,121.859 428.337,123.573 428.957 M302.197 430.892 C 299.250 431.672,295.601 431.810,293.111 431.234 C 291.025 430.751,288.718 431.925,287.697 433.990 C 286.439 436.533,288.039 442.303,290.273 443.277 C 293.400 444.641,310.156 444.178,313.233 442.643 C 313.897 442.312,314.681 442.133,314.974 442.245 C 315.415 442.415,315.413 442.050,314.960 440.125 C 314.659 438.846,314.410 437.209,314.406 436.487 C 314.393 433.665,313.509 432.520,310.935 431.991 C 309.651 431.727,307.789 431.205,306.797 430.831 C 305.085 430.185,304.853 430.188,302.197 430.892 M199.856 474.199 C 199.453 475.249,199.557 482.400,199.975 482.400 C 200.182 482.400,200.456 481.545,200.584 480.500 C 200.712 479.455,200.982 477.790,201.184 476.800 C 201.588 474.813,200.464 472.613,199.856 474.199 " stroke="none" fill="#ece405" fill-rule="evenodd"></path><path id="path4" d="M180.000 19.626 C 164.837 20.107,159.700 20.522,148.600 22.159 C 143.320 22.938,135.747 23.847,131.772 24.180 C 122.689 24.939,116.574 25.787,111.425 27.002 C 109.211 27.524,105.060 28.336,102.200 28.805 C 97.355 29.601,86.654 32.155,74.744 35.359 C 71.963 36.107,66.833 37.203,63.344 37.794 C 51.513 39.798,33.417 45.768,26.452 49.964 C 24.994 50.842,21.730 52.544,19.200 53.745 C 15.240 55.624,14.175 56.350,11.545 58.957 L 8.490 61.985 7.852 65.423 C 6.786 71.171,10.049 75.778,17.716 79.347 C 21.166 80.953,23.518 83.988,26.739 90.986 C 29.523 97.035,32.795 101.246,38.369 105.953 C 41.065 108.229,43.261 112.555,45.807 120.601 C 46.851 123.901,48.377 128.130,49.199 130.000 C 51.375 134.951,53.345 140.662,54.994 146.792 C 55.791 149.757,56.811 152.997,57.261 153.992 C 59.621 159.210,60.292 163.040,61.402 177.600 C 61.729 181.890,62.173 187.650,62.389 190.400 C 62.605 193.150,62.786 197.766,62.791 200.657 C 62.797 203.937,63.046 207.096,63.453 209.057 C 64.837 215.710,63.697 255.900,61.970 261.351 C 61.544 262.698,60.931 266.230,60.609 269.200 C 59.685 277.724,58.382 284.354,56.405 290.600 C 55.437 293.657,54.622 298.186,53.634 306.000 C 53.084 310.351,52.499 313.154,51.672 315.400 C 51.024 317.160,50.095 320.760,49.608 323.400 C 48.338 330.276,45.486 341.095,43.625 346.089 C 41.750 351.124,41.036 353.755,39.976 359.543 C 39.283 363.328,37.118 370.865,34.732 377.800 C 34.278 379.120,32.683 382.630,31.188 385.600 C 29.692 388.570,27.816 392.710,27.018 394.800 C 26.219 396.890,24.329 401.210,22.817 404.400 C 21.305 407.590,19.609 411.730,19.047 413.600 C 18.448 415.596,17.251 418.238,16.148 420.000 C 15.114 421.650,14.047 423.720,13.776 424.600 C 13.505 425.480,12.900 427.162,12.433 428.338 C 11.965 429.514,11.232 431.736,10.805 433.277 L 10.029 436.079 11.851 439.290 C 15.518 445.753,23.824 449.974,39.621 453.403 C 46.919 454.987,55.396 455.979,61.800 455.999 C 65.320 456.009,72.610 456.299,78.000 456.642 C 83.390 456.985,93.650 457.336,100.800 457.423 C 115.027 457.595,121.957 458.159,133.200 460.059 C 141.747 461.503,146.849 462.232,150.800 462.574 C 180.234 465.121,185.495 470.964,188.821 504.800 C 189.070 507.330,189.709 512.280,190.243 515.800 C 191.973 527.223,192.328 530.832,192.779 541.600 C 193.198 551.592,193.936 563.877,194.798 575.200 C 195.007 577.950,195.276 581.910,195.395 584.000 C 195.514 586.090,195.868 591.760,196.182 596.600 C 196.495 601.440,196.859 607.920,196.990 611.000 C 197.228 616.614,197.836 626.905,198.195 631.400 C 198.300 632.720,198.661 637.940,198.997 643.000 C 199.703 653.639,199.907 655.266,200.422 654.346 C 201.011 653.294,203.522 645.895,203.798 644.400 C 203.940 643.630,204.510 641.600,205.064 639.889 C 205.619 638.179,206.140 636.289,206.222 635.689 C 207.085 629.409,207.579 621.060,207.790 609.200 C 207.929 601.390,208.205 590.860,208.405 585.800 C 208.604 580.740,208.953 571.920,209.180 566.200 C 209.408 560.480,209.783 550.400,210.014 543.800 C 210.510 529.598,210.713 527.857,212.298 524.191 C 213.002 522.563,213.610 520.317,213.756 518.800 C 215.668 499.051,217.060 489.776,218.829 485.000 C 219.236 483.900,220.010 480.911,220.547 478.358 C 223.049 466.477,228.093 463.634,249.599 461.986 C 252.789 461.742,256.247 461.381,257.283 461.184 C 258.319 460.988,260.030 460.717,261.084 460.583 C 262.138 460.449,264.890 460.062,267.200 459.723 C 269.938 459.321,276.622 458.994,286.400 458.783 C 294.895 458.600,302.181 458.266,303.200 458.014 C 304.244 457.755,310.295 457.496,317.600 457.397 C 347.412 456.994,357.541 456.080,366.000 453.029 C 368.090 452.276,372.140 450.916,375.000 450.008 C 385.920 446.539,390.685 443.568,392.800 438.906 L 394.113 436.012 393.425 433.706 C 392.118 429.330,389.583 424.049,387.731 421.847 C 386.537 420.425,385.465 418.353,384.354 415.318 C 383.888 414.043,381.529 408.950,379.113 404.000 C 376.696 399.050,374.183 393.650,373.528 392.000 C 372.873 390.350,371.374 386.930,370.197 384.400 C 368.927 381.668,367.733 378.338,367.257 376.200 C 364.019 361.639,363.833 360.992,360.885 354.005 C 356.086 342.631,354.106 336.886,351.957 328.098 C 350.841 323.534,349.472 318.270,348.914 316.400 C 347.764 312.547,347.420 310.530,346.802 304.000 C 346.336 299.081,344.931 288.489,343.404 278.400 C 342.889 274.990,342.352 270.940,342.213 269.400 C 342.073 267.860,341.693 264.620,341.367 262.200 C 340.732 257.477,340.022 232.010,340.012 213.600 C 340.004 198.176,341.403 181.469,343.791 168.478 C 344.102 166.785,344.465 164.410,344.598 163.200 C 344.994 159.601,348.746 146.292,349.841 144.600 C 350.482 143.610,352.294 138.101,354.205 131.329 C 357.765 118.712,359.965 112.886,362.562 109.200 C 363.259 108.210,364.313 106.565,364.905 105.545 C 365.497 104.525,366.915 102.909,368.057 101.953 C 369.281 100.927,371.143 98.654,372.598 96.407 C 375.947 91.235,378.816 88.051,382.836 85.044 C 384.696 83.652,386.749 81.813,387.397 80.957 C 388.045 80.101,389.308 78.590,390.203 77.600 C 391.098 76.610,392.536 74.630,393.398 73.200 C 395.588 69.567,396.134 69.074,398.306 68.771 L 400.200 68.507 398.393 68.453 L 396.586 68.400 395.233 65.415 C 393.142 60.802,387.871 55.806,383.210 54.020 C 379.766 52.700,377.312 51.493,373.000 48.998 C 371.680 48.234,370.366 47.607,370.079 47.605 C 369.793 47.602,367.453 46.583,364.879 45.339 C 358.278 42.150,340.701 36.424,332.558 34.811 C 325.085 33.330,320.038 32.026,314.800 30.223 C 308.767 28.145,292.815 25.858,275.600 24.601 C 269.161 24.130,265.519 23.668,262.800 22.974 C 259.971 22.253,257.058 21.899,251.400 21.590 C 247.220 21.362,243.260 21.088,242.600 20.982 C 234.229 19.633,201.850 18.932,180.000 19.626 M209.400 27.601 C 252.947 28.326,258.400 28.688,287.400 32.786 C 290.480 33.222,295.520 33.860,298.600 34.206 C 306.085 35.046,310.651 35.890,312.651 36.804 C 314.996 37.875,319.745 39.006,326.000 39.981 C 339.469 42.082,338.292 41.669,357.400 51.006 C 360.700 52.619,365.020 54.503,367.000 55.193 C 372.966 57.272,384.378 67.131,383.814 69.718 C 383.708 70.203,383.436 71.673,383.208 72.985 C 382.940 74.539,382.552 75.500,382.098 75.740 C 380.575 76.548,372.141 85.557,371.428 87.138 C 370.819 88.488,370.275 88.982,368.501 89.794 C 359.864 93.748,353.718 101.704,351.809 111.400 C 350.485 118.128,349.523 121.760,347.773 126.638 C 346.991 128.817,345.743 132.310,344.999 134.400 C 344.256 136.490,343.116 139.484,342.466 141.053 C 341.006 144.577,340.215 147.268,339.225 152.075 C 338.803 154.124,338.010 157.172,337.462 158.850 C 336.914 160.527,336.182 163.677,335.834 165.850 C 335.486 168.022,334.755 172.561,334.209 175.935 C 332.386 187.200,332.011 201.863,333.214 214.800 C 333.488 217.745,333.604 223.581,333.497 229.000 C 333.027 252.727,334.585 274.922,337.204 281.810 C 337.624 282.916,338.206 287.910,339.400 300.653 C 340.670 314.215,341.941 321.882,343.967 328.200 C 344.601 330.180,345.600 333.392,346.185 335.337 C 346.770 337.282,348.040 340.386,349.007 342.235 C 349.974 344.083,351.128 346.811,351.572 348.298 C 352.017 349.784,353.474 353.790,354.811 357.200 C 357.508 364.080,358.170 366.263,360.209 375.000 C 363.143 387.571,366.167 395.824,369.481 400.303 C 370.011 401.019,370.770 402.549,371.167 403.703 C 372.022 406.183,375.214 412.430,376.614 414.359 C 377.412 415.459,377.600 416.196,377.600 418.217 C 377.600 422.407,378.360 428.431,379.364 432.188 L 380.316 435.755 377.998 439.178 C 375.411 442.999,373.441 444.136,367.600 445.180 C 366.170 445.436,363.020 446.159,360.600 446.789 C 351.178 449.238,349.764 449.362,330.800 449.403 C 310.927 449.446,306.698 449.687,302.142 451.035 C 298.538 452.103,291.834 452.360,288.400 451.563 C 275.840 448.647,269.747 448.722,262.200 451.886 C 257.706 453.769,252.462 454.781,242.000 455.780 C 228.972 457.025,227.065 457.822,219.708 465.094 C 213.422 471.308,211.663 475.427,210.183 487.400 C 209.830 490.260,209.011 495.840,208.365 499.800 C 207.718 503.760,207.073 509.038,206.932 511.528 L 206.675 516.057 204.378 519.028 C 201.798 522.368,201.653 522.889,200.758 532.098 C 200.486 534.902,200.180 537.113,200.079 537.012 C 199.978 536.911,199.743 532.367,199.557 526.914 C 199.121 514.102,198.720 511.566,193.713 490.000 C 187.223 462.042,183.411 459.115,150.200 456.595 C 142.948 456.045,138.719 455.485,133.588 454.394 C 124.581 452.479,116.600 451.461,105.400 450.797 C 95.680 450.221,84.926 449.259,80.116 448.534 C 76.100 447.928,74.183 447.904,61.716 448.295 C 44.416 448.837,43.267 448.674,32.258 444.117 C 28.893 442.724,28.575 442.484,25.920 439.305 L 23.125 435.958 23.597 433.279 C 23.857 431.806,24.216 427.341,24.397 423.359 C 24.666 417.409,24.864 415.839,25.508 414.559 C 26.406 412.773,29.200 404.780,29.200 403.997 C 29.200 403.710,29.644 402.893,30.188 402.181 C 31.156 400.910,34.884 393.289,35.409 391.506 C 35.555 391.008,36.268 389.430,36.992 388.000 C 38.608 384.811,39.574 381.347,41.219 372.852 C 41.916 369.251,42.893 365.381,43.391 364.252 C 43.888 363.123,45.323 358.960,46.579 355.000 C 47.835 351.040,49.382 346.630,50.015 345.200 C 52.764 338.997,53.740 334.901,54.815 325.048 C 55.485 318.908,55.822 317.135,56.614 315.571 C 57.905 313.025,58.831 309.472,60.779 299.600 C 61.668 295.090,62.837 290.031,63.375 288.357 C 64.557 284.683,66.225 275.546,66.827 269.451 C 67.068 267.003,67.550 263.830,67.898 262.400 C 68.708 259.066,69.148 186.595,68.419 176.600 C 67.138 159.040,62.818 143.727,56.704 135.074 C 55.878 133.905,53.508 126.086,51.772 118.800 C 49.822 110.621,46.818 105.160,42.957 102.773 C 42.183 102.295,41.088 101.174,40.526 100.282 C 39.963 99.391,38.733 97.838,37.793 96.831 C 36.160 95.082,36.063 94.838,35.645 91.415 C 35.160 87.434,33.447 83.251,31.085 80.279 C 30.350 79.356,28.861 77.272,27.775 75.649 C 25.387 72.080,23.017 69.323,22.083 69.026 C 21.310 68.781,21.300 62.343,22.072 62.057 C 22.285 61.978,23.552 60.538,24.888 58.857 C 27.292 55.832,28.540 54.782,30.428 54.200 C 31.713 53.803,39.314 50.569,40.929 49.732 C 42.092 49.129,44.946 48.308,60.200 44.186 C 63.060 43.414,68.148 42.425,71.507 41.990 C 78.991 41.020,84.371 39.848,97.200 36.392 C 98.850 35.947,101.910 35.398,104.000 35.171 C 106.090 34.943,109.330 34.398,111.200 33.959 C 115.275 33.001,124.849 31.777,131.200 31.402 C 133.730 31.253,137.960 30.719,140.600 30.216 C 148.891 28.636,155.447 27.997,166.800 27.660 C 183.103 27.176,183.829 27.175,209.400 27.601 " stroke="none" fill="#e3e347" fill-rule="evenodd"></path></g></svg>