<?xml version="1.0" encoding="utf-8"?>

<!DOCTYPE svg PUBLIC "-//W3C//DTD SVG 1.1//EN" "http://www.w3.org/Graphics/SVG/1.1/DTD/svg11.dtd">
<svg version="1.1" id="Layer_1" xmlns="http://www.w3.org/2000/svg" xmlns:xlink="http://www.w3.org/1999/xlink" x="0px" y="0px"
	 viewBox="0 0 2270.961 1672.302" enable-background="new 0 0 2270.961 1672.302" xml:space="preserve">
<g>
	<path d="M1823.681,37.467c52.425-7.275,113.408,10.86,117.782,11.74c15.633,5.271,81.36,33.584,87.392,37.899
		c1.964,1.302,3.854,2.751,6.007,3.78c3.192,0.441,6.437-0.074,9.672-0.2c-2.562,0.315-5.104,0.557-7.624,0.819
		c64.476,5.84,28.982,1.612,62.147,2.31c30.257-2.975,119.928,0.424,122.813,24.951c-10.554,2.73-20.614,7.046-31.031,10.207
		c-57.438,14.42-121.699,24.489-150.231,39.012c-16.236,7.505-17.03,7.542-18.451,9.336c-0.599,3.287-0.672,6.658-1.386,9.934
		c-1.554-0.977-3.035-1.932-4.515-2.909c-0.935-0.095-1.848-0.168-2.72-0.242c-2.814,2.804-4.621,6.385-4.557,10.428
		c-6.605,0.116-12.129,4.18-17.254,7.865c-0.23,7.775-3.3,4.518-7.193,21.465c-1.491-0.788-2.835-1.722-4.064-2.804
		c-0.788,0.021-1.523,0.052-2.226,0.095c-3.654,3.119-7.498,6.028-11.184,9.115c-0.735,0.094-2.205,0.305-2.94,0.41
		c-2.415,3.686-3.959,7.844-6.185,11.635c-0.63-0.987-1.25-1.964-1.869-2.919c-5.526,5.836-5.709,4.41-6.92,12.581
		c-0.693-1.512-1.712-3.087-3.57-3.077c-3.549,3.885-5.713,8.8-9.252,12.675c-4.892,5.271-13.873,8.203-21.822,28.931
		c-2.31,0.41-4.61,0.767-6.92,1.05c-0.924,4.757-1.26,9.588-1.134,14.429c-1.817-1.134-3.476-2.352-5.23-3.497
		c-3.217,17.475-6.743,11.723-5.093,29.414c0.419,2.189,6.899,75.263,6.899,75.263c1.943,10.543,1.008,21.328,0.399,31.934
		c0.462,6.469,1.502,12.98,0.956,19.459c-1.239-4.39,0.609-10.312-0.914-15.185c-1.211,12.007,3.209,58.429-33.667,230.293
		c0.756,1.649,1.638,3.234,2.552,4.841c0.136,0.809,0.315,1.638,0.515,2.478c-1.449-0.084-2.867-0.157-4.264-0.221
		C1849,736.539,1833.257,805.15,1741.13,911.847c-2.777,3.013-60.753,65.992-64.562,69.592
		c-203.7,151.462-197.234,102.518-247.82,159.609c-23.519,32.05-15.186,16.758-31.021,67.586c-7.343,17.12-4.732,7.823-8.002,29.424
		c-0.077,1-3.827,22.21-1.46,31.199c13.197,46.749,71.23,248.247,100.487,287.389c3.654-1.082,6.668-3.465,9.588-5.818
		c0.641-0.074,1.922-0.221,2.562-0.294c9.772-10.367,7.388-4.077,16.203-9.283c2.111,0.798,4.19,1.796,6.458,2.195
		c2.363-0.441,4.179-2.247,6.175-3.497c3.15-0.042,6.395-0.494,9.514,0.283c0.767,1.082,1.46,2.247,2.069,3.487
		c-0.767,0.336-2.31,1.029-3.077,1.376c-1.271,0.084-2.52,0.189-3.749,0.315c-6.878,6.091-12.024,13.925-19.553,19.312
		c-21.338,9.079-14.913,10.311-15.847,20.036c5.933,5.293,13.2,9,18.503,14.996c0.389,3.266-1.071,8.223,2.835,9.787
		c3.192,0.882,6.017,2.573,8.149,5.156c5.009-0.294,9.945,0.609,14.922,0.998c2.919-0.682,23.906-4.957,31.514-5.482
		c6.248-3.518,12.833-6.469,18.881-10.354c4.936-0.315,9.892,0.168,14.849-0.084c-4.684-0.347-9.399-0.158-14.051-0.725
		c24.158-1.263,3.672,2.778,30.58-7.655c8.671,3.153,11.214,12.446,12.476,15.216c-3.308-1.155-6.469-2.72-9.325-4.736
		c-3.287,0.073-6.511,0.567-9.703,1.208c-2.877,2.814-5.429,6.878-10.018,6.542c0.389,0.85,1.166,2.552,1.554,3.402
		c-1.355,5.125-0.178,11.173-4.673,15.006c-5.492,1.523-11.236,1.47-16.865,1.134c-3.324-4.625-7.139,0.326-23.082,4.053
		c-22.503,2.776,2.415,2.769-38.897,2.058c-3.213-0.987-6.616-0.515-9.84-1.082c-3.865-1.712-7.424-4.033-11.11-6.049
		c-2.499,0.231-4.967,0.641-7.403,1.092c-1.302-0.536-2.615-0.945-3.938-1.229c-4.558-3.423-6.185-9.042-9.031-13.715
		c-4.641-7.865-2.603-9.462-19.343-18.461c-7.698-3.634-15.994-5.87-23.554-9.756c-5.162,0.854-47.148,14.005-48.148,14.324
		c-5.659,2.011-41.74,4.718-49.787,6.857c-0.469,3.317-1.435,3.831-2.352,7.12c-5.574,5.919-8.512,6.002-12.108,7.277
		c-9.405,0.415-22.76-1.709-28.039-9.472c-2.541-3.203-3.329-7.298-4.085-11.184c-4.264-0.945-8.517-2.258-12.896-2.405
		c-2.73,1.586-6.542,1.922-8.275,4.799c-0.609-0.389-1.817-1.145-2.415-1.533c-0.115,1.218-0.22,2.457-0.315,3.707
		c-0.977,0.84-1.911,1.733-2.835,2.636c-0.073,3.213-1.418,6.301-4.043,8.275c-2.247,0.399-4.537,0.304-6.784,0.441
		c-0.273-7.319-0.283-15.332,3.865-21.633c6.028-3.739,12.266-7.393,18.902-9.945c8.874-0.189,17.737,1.439,26.652,0.998
		c1.082-1.418,2.174-2.814,3.266-4.222c0.588-0.052,1.775-0.157,2.363-0.22c0.326-0.431,0.998-1.313,1.334-1.754
		c1.292-0.021,2.615-0.021,3.948,0c0.325,0.441,0.956,1.313,1.281,1.743c0.704,0.073,2.111,0.21,2.814,0.284
		c0.945,1.061,1.89,2.111,2.856,3.213c5.629,0.336,11.184-1.071,16.477-2.856c7.792-0.084,15.227-2.646,22.924-3.612
		c11.751-1.596,22.441-7.025,33.499-10.984c34.815-14.108,19.215-5.908,35.169-17.884c3.139-11.376,4.468-3.625-34.917-128.935
		c-10.574-32.316-55.712-137.259-64.131-154.537c-3.304-6.417-9.743-39.993-8.727-63.176c0.767-4.957,2.069-9.84,2.016-14.891
		c7.162-14.943,15.983-29.152,21.286-44.925c0.357-0.336,0.735-0.662,1.134-0.956c2.867-8.811,7.309-17.002,10.47-25.707
		c-59.45-1.559-37.257,0.021-69.645-4.536c-1.014-0.133-47.971-6.36-50.973-8.034c-34.989-17.865-10.936-8.947-48.495-6.301
		c-9.587-1.521-23.528-9.438-42.016-9.693c-6.983-0.179-13.967,0.462-20.95,0.158c-2.111-4.096-3.644-9.094-8.033-11.341
		c-4.354-2.375-13.527-10.515-41.858-16.361c-8.013,15.594-16.991,30.706-24.972,46.3c-50.142,271.034-29.994,315.098-32.071,330.57
		c-0.872,5.356-2.489,10.795-1.701,16.266c2.604,3.287,6.133,5.734,8.8,9.01c2.352,2.867,4.694,5.755,7.34,8.38
		c8.056,7.926,18.124,25.964,21.675,29.561c9.042,8.674,19.743,15.279,29.414,23.197c5.723,5.072,13.736,5.65,20.278,9.168
		c4.389,4.348,8.37,9.693,9.23,15.994c-1.386,0.178-2.762,0.378-4.127,0.599c-0.126,0.693-0.231,1.407-0.326,2.153
		c2.877,2.562,6.175,4.925,8.065,8.37c0.546,2.846,0.452,5.765,0.452,8.674c0.252-1.25,0.515-2.489,0.809-3.686
		c0.074,2.762,0.157,5.555,0.2,8.349c-1.418-0.063-2.835-0.031-4.201-0.231c-3.408-3.881-4.949-11.273-30.065-16.456
		c-2.573,7.162-5.986,14.303-12.297,18.923c-5.194-0.151-17.424-1.968-21.076-6.206c-5.272-6.332-13.158-9.861-17.821-16.781
		c-4.537-6.679-11.656-10.774-17.065-16.571c-6.028-9.451-11.058-19.553-17.138-28.963c-6.227,1.47-11.047-3.581-13.662-8.579
		c-0.116-3.959-0.966-7.855-0.977-11.793c0.777-2.079,0.882-4.295,0.882-6.458c-2.72-4.558-12.528-21.181-14.922-24.825
		c-20.672,11.718-11.578,9.07-76.029,8.811c-2.657,3.392-4.642,7.309-7.582,10.48c-3.066,2.793-6.794,4.694-10.008,7.298
		c-7.928-2.468-15.678-5.503-23.691-7.718c-16.329-14.567-9.219-4.662-12.728-23.786c-4.757-2.132-10.06-2.331-15.174-2.321
		c-1.549,0.008-21.804,8.591-39.075,30.748c-1.785-0.746-3.465-1.68-5.093-2.667c3.734-12.159,16.126-28.524,19.448-30.874
		c18.483-12.214,21.743-17.212,56.234-16.098c7.036,0.431,13.893-1.502,20.887-1.932c3.287,2.52,6.815,4.736,10.207,7.141
		c10.33,0.541,50.764,0.461,57.348-2.184c24.263-14.159,18.551,6.305,32.827-54.827c0.319-1.421,9.973-64.011,9.451-74.675
		c0.273,2.153,0.557,4.327,0.861,6.511c0.641-17.306,5.66-34.329,4.305-51.74c0.294,2.195,0.599,4.421,0.945,6.637
		c-0.189-9.567,1.922-19.018,1.218-28.585c0.368,2.846,0.746,5.692,1.134,8.548c-0.623-23.822,9.581-93.874,9.546-149.255
		c-0.588-10.638,2.888-20.908,3.245-31.462c-6.483,2.128-19.873,8.911-29.141,12.454c-4.841,0.851-9.808,0.199-14.702,0.347
		c-8.653-0.504-16.865,2.699-25.256,4.232c-19.249,0.296-12.372-2.207-61.842,0.62c-34.003,2.402-29.871,7.908-73.572,5.009
		c-16.218-0.847-107.474,10.039-113.235,8.842c-16.729,1.375-20.842,0.575-75.189,12.024
		c-377.018,182.25-202.585,110.099-415.589,210.026c-2.331,1.071-4.988,1.922-6.175,4.421c-5.681-0.494-11.058-3.066-16.823-2.667
		c-5.051,0.199-10.102,0.42-15.153,0.41c-4.747,4.652-9.262,9.525-13.599,14.576c-4.18-0.073-8.391,0.347-12.539-0.178
		c-3.402-1.733-6.227-4.369-9.378-6.479c-5.536-4.33-5.063-3.269-5.629-12.045c-5.749,0.387-7.838,1.804-11.509,1.134
		c-3.623-2.436-6.899-5.629-8.674-9.682c-2.237-0.483-4.495-0.872-6.763-1.145c-4.064-2.961-8.16-5.87-12.245-8.8
		c-1.88-3.161-4.117-6.112-5.818-9.367c0.179-2.1,2.058-3.444,3.161-5.072c-0.032-1.712-0.063-3.402-0.084-5.072
		c-2.541-0.599-5.135-0.872-7.739-1.008c-4.936-3.749-10.113-7.183-15.279-10.606c-5.408-3.308-7.666-9.588-11.919-14.04
		c0.311-23.353-2.009-9.053,7.634-33.342c3.688-8.812-3.632-1.937,54.932-42.698c6.408-4.78,132.537-63.862,141.305-67.985
		c3.812-1.605,105.622-44.568,109.833-46.363c11.159-6.46,25.474-20.496,45.177-28.122c-10.48-4.32-36.035-3.797-53.021-18.482
		c-0.312-15.848-1.623-12.361,7.813-34.098c8.317-4.148,17.474-5.954,26.327-8.59c106.078-29.642,162.185-43.584,277.864-92.674
		c8.294-6.497,4.037-10.412,20.152-21.213c-0.063-0.42-0.21-1.25-0.284-1.659c-1.407-1.922-2.772-3.854-4.18-5.755
		c0.021-3.518,0.178-7.025,0.378-10.522c44.793-38.724-8.553-0.202,136.979-86.216c3.056-2.027,6.689-2.688,10.281-2.993
		c-0.662-0.126-1.313-0.252-1.943-0.357c21.9-5.301,188.034-108.845,207.411-115.262c-0.41-0.084-0.809-0.158-1.187-0.21
		c194.125-103.68,200.282-149.763,446.704-242.401c1.008-0.378,52.893-19.877,60.592-23.05c0.021-0.084,0.063-0.252,0.084-0.336
		c-1.817-0.116-3.255-0.819-4.327-2.132c3.665-0.452,7.33-1.082,10.984-1.754c0.178-0.347,0.546-1.04,0.724-1.386
		c-1.218-0.515-2.415-1.019-3.602-1.523c0.031-0.599,0.073-1.785,0.094-2.373c2.699-2.951,5.702-5.65,8.16-8.832
		c-0.116-1.218-0.767-2.373-0.525-3.591c4.621-5.083,9.861-9.598,14.492-14.67c1.355-1.785-1.701-2.478-2.436-3.602
		c5.051-5.198,10.239-10.26,15.374-15.384c-0.305-1.491-0.546-2.972-0.935-4.421c19.098-30.385,19.589-27.631,19.931-31.399
		c-3.57,1.848-7.13,3.728-10.564,5.797c5.041-5.818,10.785-10.995,16.624-16.014c0.063-0.63,0.179-1.89,0.231-2.52
		c-0.567-0.725-1.082-1.439-1.617-2.153c6.92-4.011,14.334-7.088,21.286-11.058c0.546-1.817,1.061-3.644,1.628-5.461
		c-3.486,0.945-6.899,2.195-10.501,2.594c2.814-3.518,5.797-6.92,8.265-10.711c-2.111,0.01-4.159,0.053-6.217,0.074
		c-0.431,0.378-1.313,1.134-1.743,1.502c2.153-3.686,5.429-6.5,8.096-9.808c-1.418-0.462-2.814-0.924-4.19-1.365
		c1.67-4.883,4.495-9.367,5.251-14.534c-2.237-0.399-4.463-0.777-6.668-1.124c3.623-3.717,7.477-7.193,10.816-11.173
		c-3.213-0.2-6.406-0.294-9.598-0.462c0.949-2.24,16.336-14.861,17.338-15.626c0.084-0.504,0.263-1.533,0.357-2.037
		c-2.415-0.021-4.841-0.042-7.225-0.095c1.376-6.406,8.737-8.233,12.234-13.221c10.312-14.702,20.236-29.698,30.611-44.368
		c35.064-46.401,24.332-31.216,41.26-45.702c17.531-12.584,8.366-10.792,53.767-33.048
		C1800.391,37.566,1817.564,38.901,1823.681,37.467 M1048.486,1519.903c0.021,0.998,0.053,2.006,0.105,3.035
		c3.329,4.043,6.752,8.411,11.888,10.218c0.662,3.003,4.106,1.313,6.154,1.386c-6.322-2.352-12.024-6.28-16.14-11.646
		c-0.011-0.808-0.032-2.415-0.042-3.213C1049.956,1519.735,1048.969,1519.851,1048.486,1519.903 M1064.7,1535.088
		c1.817,1.344,4.095,1.691,6.29,2.058c5.167,2.426,10.606,4.222,16.266,5.135l0.021,1.029c1.239-0.105,2.499-0.2,3.78-0.273
		C1082.846,1539.005,1074.193,1533.88,1064.7,1535.088z"/>
</g>
</svg>
