<svg id="svg" version="1.1" xmlns="http://www.w3.org/2000/svg" xmlns:xlink="http://www.w3.org/1999/xlink" width="400" height="386.2068965517241" viewBox="0, 0, 400,386.2068965517241"><g id="svgg"><path id="path0" d="M0.000 193.237 L 0.000 386.473 200.000 386.473 L 400.000 386.473 400.000 193.237 L 400.000 0.000 200.000 0.000 L 0.000 0.000 0.000 193.237 M294.571 17.719 L 302.185 17.971 303.545 19.457 C 304.360 20.347,305.000 21.510,305.139 22.356 C 305.268 23.133,305.557 24.254,305.784 24.848 C 306.063 25.582,306.096 28.488,305.887 33.930 C 305.591 41.638,305.601 97.959,305.905 126.461 C 305.986 134.054,305.906 140.356,305.727 140.467 C 305.548 140.577,305.288 141.322,305.148 142.121 C 304.811 144.060,303.380 147.633,302.942 147.633 C 302.750 147.633,301.422 148.825,299.992 150.283 C 293.265 157.139,280.418 158.885,272.802 153.979 C 271.674 153.252,270.596 152.657,270.408 152.657 C 269.203 152.657,259.708 142.730,258.773 140.493 C 258.446 139.711,257.652 138.290,257.007 137.335 C 255.725 135.435,253.919 131.701,253.109 129.275 C 252.825 128.425,252.479 127.556,252.340 127.343 C 252.202 127.130,251.775 125.304,251.391 123.285 C 250.545 118.830,250.103 117.719,248.427 115.845 C 246.538 113.734,246.549 113.726,243.743 119.163 C 242.054 122.437,242.471 131.576,244.629 138.551 C 245.024 139.826,245.561 141.826,245.824 142.995 C 246.111 144.277,246.793 145.734,247.542 146.667 C 248.375 147.704,249.005 149.134,249.458 151.014 C 249.828 152.556,250.243 153.817,250.380 153.818 C 250.755 153.821,252.779 155.852,254.289 157.741 C 255.777 159.602,260.250 164.032,262.928 166.297 C 263.881 167.103,265.643 168.107,266.843 168.529 C 268.043 168.951,270.190 169.883,271.614 170.601 C 277.027 173.329,292.097 173.357,297.778 170.650 C 300.445 169.379,304.262 167.729,304.536 167.729 C 304.698 167.729,305.495 167.121,306.307 166.377 C 307.119 165.633,308.004 165.024,308.274 165.024 C 308.907 165.024,311.677 162.180,312.980 160.193 C 313.537 159.343,314.387 158.265,314.868 157.799 C 315.350 157.332,316.097 156.027,316.529 154.900 C 316.960 153.773,317.665 152.203,318.095 151.413 C 320.038 147.840,319.973 150.110,320.013 84.129 C 320.055 14.387,319.719 21.105,323.287 18.647 L 325.141 17.369 337.740 17.477 C 349.841 17.580,350.407 17.618,352.077 18.439 C 353.034 18.908,355.121 19.479,356.715 19.706 C 359.873 20.156,364.501 21.745,365.236 22.632 C 365.491 22.938,365.895 23.188,366.134 23.188 C 366.374 23.188,367.325 23.879,368.248 24.722 C 369.171 25.566,370.520 26.470,371.245 26.733 C 371.974 26.996,372.991 27.827,373.519 28.589 C 374.045 29.347,374.990 30.272,375.620 30.644 C 376.249 31.016,376.874 31.665,377.007 32.085 C 377.141 32.506,377.431 32.850,377.652 32.850 C 378.547 32.850,382.384 37.438,383.633 40.000 C 384.358 41.488,385.448 43.555,386.054 44.593 C 386.749 45.782,387.333 47.568,387.631 49.416 C 387.891 51.030,388.563 53.223,389.124 54.291 L 390.145 56.232 390.257 197.101 C 390.376 345.653,390.383 344.986,388.614 348.725 C 388.074 349.866,387.633 351.066,387.633 351.392 C 387.633 352.406,385.794 356.930,384.766 358.443 C 384.229 359.236,383.677 360.477,383.542 361.201 C 383.257 362.717,380.388 365.943,378.454 366.921 C 377.763 367.270,377.198 367.783,377.198 368.061 C 377.198 368.798,373.556 372.277,371.045 373.939 C 370.178 374.513,369.469 375.138,369.469 375.328 C 369.469 375.518,367.947 376.367,366.087 377.214 C 364.227 378.062,362.271 378.996,361.739 379.291 C 361.208 379.586,359.034 380.035,356.908 380.288 C 354.783 380.541,352.376 380.917,351.560 381.123 C 350.616 381.361,298.210 381.495,207.405 381.489 L 64.734 381.481 60.311 380.495 C 57.663 379.905,55.568 379.218,55.093 378.783 C 54.657 378.384,53.262 377.588,51.995 377.015 C 50.727 376.442,49.112 375.466,48.406 374.847 C 47.700 374.227,46.910 373.720,46.649 373.720 C 45.643 373.720,37.971 366.430,35.830 363.439 C 32.008 358.101,31.050 356.283,29.943 352.271 C 29.591 350.995,28.978 349.343,28.581 348.599 C 26.783 345.227,26.874 352.480,26.742 201.159 C 26.608 46.374,26.492 54.918,28.796 50.048 C 29.500 48.560,30.370 46.300,30.728 45.024 C 31.143 43.548,31.843 42.213,32.652 41.353 C 33.352 40.609,34.209 39.435,34.557 38.744 C 34.904 38.053,35.331 37.488,35.505 37.488 C 35.678 37.488,36.152 36.850,36.557 36.069 C 37.742 33.790,43.962 27.531,45.566 27.004 C 46.331 26.753,47.565 25.963,48.309 25.250 C 50.810 22.851,55.802 20.160,58.658 19.671 C 60.087 19.426,61.761 18.968,62.378 18.654 C 62.995 18.340,64.299 17.948,65.277 17.783 C 67.421 17.420,283.742 17.359,294.571 17.719 M218.357 205.972 C 216.763 206.130,215.024 206.375,214.493 206.516 C 212.990 206.915,201.854 207.921,194.651 208.309 C 188.415 208.645,188.104 208.700,187.244 209.628 C 186.172 210.784,185.636 210.934,180.870 211.408 C 175.717 211.921,174.653 212.167,173.333 213.152 C 172.674 213.643,170.886 214.274,169.190 214.614 C 167.033 215.046,165.801 215.536,164.745 216.382 C 163.761 217.172,162.277 217.797,160.193 218.301 C 158.493 218.713,156.614 219.308,156.018 219.625 C 155.421 219.942,153.074 220.688,150.800 221.284 C 148.527 221.880,146.145 222.757,145.507 223.233 C 144.869 223.710,142.976 224.547,141.299 225.094 C 138.406 226.039,136.203 227.144,135.159 228.175 C 134.899 228.432,134.121 228.974,133.430 229.380 C 132.739 229.786,132.174 230.244,132.174 230.397 C 132.174 230.551,131.059 231.225,129.696 231.896 C 128.333 232.567,126.870 233.440,126.446 233.835 C 126.022 234.230,124.833 234.967,123.804 235.474 C 121.560 236.577,118.478 238.417,115.478 240.444 C 114.266 241.263,113.093 241.932,112.870 241.932 C 112.648 241.932,111.808 242.526,111.005 243.253 C 106.810 247.042,99.855 249.179,97.005 247.554 C 96.473 247.251,95.467 246.738,94.767 246.413 C 94.068 246.089,92.764 245.238,91.869 244.522 C 90.974 243.807,89.653 242.987,88.934 242.702 C 88.215 242.416,86.820 241.545,85.834 240.766 C 84.848 239.986,83.656 239.142,83.184 238.890 C 82.713 238.638,82.076 237.946,81.769 237.352 C 81.391 236.621,80.694 236.118,79.607 235.792 C 78.580 235.485,77.787 234.937,77.404 234.269 C 77.075 233.695,76.089 232.676,75.214 232.003 C 74.339 231.331,72.406 229.626,70.918 228.215 C 69.430 226.803,67.517 225.206,66.667 224.666 C 65.816 224.126,64.913 223.423,64.660 223.103 C 64.407 222.784,63.015 222.111,61.568 221.609 C 60.093 221.097,58.563 220.267,58.086 219.720 C 57.386 218.918,56.888 218.744,55.284 218.744 L 53.333 218.744 53.252 222.126 C 53.119 227.646,53.311 229.677,54.064 230.725 C 54.783 231.724,55.126 232.671,56.281 236.855 C 56.760 238.588,57.266 239.540,57.994 240.078 C 58.563 240.499,59.410 241.608,59.877 242.543 C 60.344 243.477,61.035 244.462,61.413 244.730 C 61.791 244.998,62.288 245.573,62.518 246.007 C 63.013 246.940,66.594 250.861,69.252 253.379 C 69.823 253.920,70.402 254.869,70.537 255.486 C 70.673 256.104,70.933 256.702,71.115 256.814 C 71.936 257.322,70.122 264.019,68.028 268.213 C 67.232 269.807,66.356 272.068,66.082 273.237 C 65.808 274.406,65.194 275.884,64.718 276.522 C 63.359 278.343,60.290 287.263,60.291 289.386 C 60.294 291.674,62.788 301.856,63.447 302.262 C 63.960 302.580,64.928 302.000,64.928 301.376 C 64.928 301.174,65.667 300.249,66.570 299.318 C 67.473 298.388,69.169 296.569,70.338 295.276 C 71.507 293.983,72.934 292.669,73.509 292.356 C 74.097 292.035,74.890 291.026,75.323 290.048 C 75.746 289.091,76.237 288.309,76.415 288.309 C 76.593 288.309,76.935 287.788,77.176 287.151 C 77.418 286.510,78.178 285.691,78.879 285.316 C 80.303 284.553,81.376 283.555,82.512 281.935 C 82.937 281.329,84.083 280.037,85.058 279.064 C 86.034 278.091,86.990 277.021,87.184 276.687 C 87.378 276.352,89.188 274.770,91.208 273.171 C 93.227 271.572,95.127 269.965,95.431 269.599 C 97.503 267.101,104.670 267.255,107.668 269.861 C 108.192 270.317,109.585 271.082,110.764 271.561 C 111.942 272.041,113.509 272.962,114.245 273.608 C 114.980 274.254,115.889 274.783,116.265 274.783 C 116.640 274.783,117.112 274.936,117.314 275.122 C 117.516 275.309,118.377 275.682,119.227 275.951 C 120.077 276.220,120.860 276.568,120.966 276.724 C 121.072 276.880,122.550 277.747,124.250 278.650 C 125.950 279.554,127.554 280.599,127.816 280.972 C 128.077 281.345,128.725 281.760,129.255 281.893 C 129.785 282.026,131.050 282.654,132.066 283.289 C 133.082 283.924,134.522 284.713,135.266 285.041 C 137.673 286.104,138.397 286.522,139.254 287.344 C 139.726 287.796,141.307 288.433,142.849 288.793 C 144.362 289.146,146.626 290.036,147.880 290.770 C 149.134 291.505,151.287 292.397,152.665 292.751 C 156.526 293.744,159.972 294.907,160.213 295.298 C 160.334 295.493,160.813 295.653,161.279 295.654 C 162.926 295.659,165.061 296.481,166.342 297.606 C 167.277 298.427,168.037 298.744,169.067 298.744 C 171.501 298.744,179.076 300.231,181.729 301.230 C 183.517 301.903,185.425 302.253,188.262 302.428 C 190.467 302.564,192.792 302.826,193.430 303.011 C 194.068 303.195,196.297 303.530,198.383 303.755 C 200.470 303.980,203.220 304.515,204.494 304.944 C 207.800 306.058,249.845 305.961,252.754 304.833 C 255.408 303.804,263.138 302.691,269.309 302.450 C 274.378 302.252,274.942 302.157,275.920 301.334 C 276.963 300.456,277.533 300.318,285.217 299.083 C 287.852 298.660,291.706 297.617,292.371 297.147 C 292.586 296.995,294.134 296.511,295.811 296.072 C 297.488 295.633,299.921 294.765,301.218 294.143 C 302.514 293.521,304.618 292.807,305.894 292.558 C 307.169 292.308,308.647 291.819,309.179 291.473 C 311.026 290.267,313.638 289.216,316.034 288.712 C 317.361 288.433,318.643 287.968,318.884 287.678 C 319.125 287.387,319.474 287.150,319.660 287.150 C 319.846 287.150,321.102 286.628,322.452 285.990 C 323.802 285.353,325.106 284.831,325.351 284.831 C 325.597 284.831,325.797 284.664,325.797 284.459 C 325.797 284.255,326.536 283.890,327.440 283.649 C 328.512 283.362,329.633 282.636,330.671 281.557 C 331.545 280.649,333.501 279.253,335.019 278.456 C 336.536 277.658,337.778 276.872,337.778 276.709 C 337.778 276.546,338.250 276.294,338.827 276.149 C 340.780 275.659,343.240 274.356,344.554 273.117 C 345.273 272.439,346.216 271.580,346.650 271.208 C 347.084 270.836,347.440 270.107,347.440 269.588 C 347.440 269.069,347.614 268.537,347.826 268.406 C 348.960 267.705,347.328 266.934,343.808 266.508 C 342.767 266.382,340.680 265.693,339.170 264.975 C 337.660 264.258,335.473 263.362,334.308 262.983 C 333.144 262.605,331.957 262.061,331.671 261.774 C 331.384 261.488,330.407 260.742,329.498 260.117 C 326.237 257.873,325.394 254.091,327.755 252.300 C 328.407 251.805,329.668 250.766,330.558 249.990 C 331.569 249.109,333.047 248.328,334.494 247.910 C 335.769 247.542,337.427 246.757,338.179 246.165 C 338.931 245.573,340.562 244.746,341.803 244.327 C 345.751 242.994,347.801 240.074,346.087 238.224 C 345.556 237.651,345.121 237.032,345.121 236.848 C 345.121 236.665,344.268 235.990,343.226 235.349 C 342.184 234.707,341.236 233.936,341.120 233.634 C 341.004 233.332,339.910 232.627,338.688 232.068 C 337.466 231.509,335.983 230.645,335.392 230.148 C 334.801 229.651,333.813 229.133,333.195 228.997 C 332.577 228.862,331.382 228.161,330.539 227.439 C 329.662 226.688,328.197 225.927,327.112 225.657 C 325.249 225.195,324.630 224.897,321.932 223.160 C 321.188 222.682,319.536 222.085,318.261 221.834 C 315.395 221.271,312.149 220.208,310.262 219.214 C 309.477 218.801,307.777 218.342,306.485 218.196 C 304.652 217.989,303.845 217.676,302.814 216.771 C 302.036 216.087,300.889 215.527,300.022 215.408 C 297.111 215.006,292.359 214.020,291.981 213.738 C 291.289 213.224,287.612 212.174,286.497 212.172 C 285.900 212.171,284.802 212.010,284.058 211.816 C 283.314 211.621,281.438 211.257,279.889 211.007 C 278.038 210.709,276.712 210.254,276.024 209.682 C 275.035 208.861,274.517 208.797,266.860 208.557 C 259.083 208.313,255.135 207.979,249.662 207.105 C 248.280 206.884,246.262 206.561,245.178 206.388 C 242.398 205.943,221.847 205.624,218.357 205.972 M287.839 230.800 C 292.306 232.222,294.017 234.143,297.157 241.266 C 298.437 244.169,298.354 252.220,297.017 254.903 C 296.011 256.921,291.427 262.032,289.956 262.774 C 284.593 265.481,275.844 265.273,273.000 262.369 C 268.477 257.753,266.122 252.453,267.010 248.889 C 267.248 247.932,267.613 245.474,267.820 243.427 C 268.275 238.938,268.498 238.301,270.402 236.057 C 271.217 235.096,272.441 233.620,273.121 232.777 C 274.321 231.290,276.410 230.361,279.807 229.803 C 281.495 229.526,285.328 230.002,287.839 230.800 " stroke="none" fill="#fbf6f6" fill-rule="evenodd"></path><path id="path1" d="M275.169 23.237 C 273.950 23.436,232.725 23.568,178.551 23.546 C 126.580 23.526,82.580 23.611,80.773 23.736 C 78.966 23.860,75.836 24.140,73.816 24.356 C 71.797 24.573,67.867 24.829,65.083 24.925 C 62.299 25.021,59.690 25.219,59.286 25.365 C 58.445 25.669,56.452 27.475,56.436 27.949 C 56.424 28.286,52.625 32.133,51.014 33.440 C 50.483 33.870,49.441 35.000,48.699 35.952 C 47.956 36.903,46.217 38.877,44.834 40.338 C 43.451 41.799,41.509 43.854,40.519 44.905 C 39.529 45.955,38.508 47.325,38.250 47.949 C 37.992 48.572,37.642 49.082,37.472 49.082 C 37.302 49.082,36.862 49.995,36.493 51.111 C 36.125 52.227,35.341 54.097,34.751 55.266 C 32.757 59.215,32.811 57.506,32.943 112.464 C 33.050 156.642,33.149 164.287,33.635 165.648 C 34.268 167.422,34.080 179.100,33.287 187.246 C 32.782 192.442,32.990 206.740,33.588 207.857 C 34.195 208.991,34.218 222.746,33.620 227.391 C 33.088 231.531,33.283 245.212,33.996 253.720 C 34.210 256.271,34.624 261.237,34.916 264.757 C 35.513 271.964,35.294 274.782,33.946 277.218 L 33.048 278.841 32.942 303.382 C 32.849 324.801,32.914 328.193,33.446 330.048 C 34.119 332.391,34.632 334.644,35.163 337.585 C 35.355 338.647,35.595 339.886,35.696 340.337 C 35.796 340.789,35.982 341.809,36.109 342.605 C 36.235 343.401,36.435 344.208,36.554 344.399 C 36.672 344.591,36.848 345.222,36.945 345.803 C 37.042 346.385,37.281 347.295,37.476 347.826 C 37.671 348.357,38.028 349.796,38.268 351.023 C 38.544 352.431,39.160 353.856,39.936 354.888 C 40.613 355.786,41.481 357.012,41.865 357.610 C 42.249 358.209,42.856 359.001,43.214 359.371 C 43.572 359.740,44.326 360.611,44.889 361.305 C 45.919 362.575,47.190 363.442,50.048 364.823 C 51.887 365.712,56.160 370.058,56.970 371.863 C 58.098 374.377,60.666 375.844,63.015 375.318 C 63.535 375.201,66.744 375.115,70.145 375.126 C 143.366 375.358,338.022 375.173,340.162 374.870 C 341.676 374.655,344.150 374.211,345.660 373.882 C 347.170 373.554,349.623 373.059,351.111 372.783 C 352.599 372.507,354.898 371.822,356.220 371.261 C 357.542 370.701,358.890 370.242,359.215 370.242 C 359.541 370.242,359.807 370.068,359.807 369.855 C 359.807 369.643,360.041 369.469,360.327 369.469 C 361.623 369.469,366.443 366.406,369.596 363.580 C 370.483 362.785,371.398 362.133,371.631 362.130 C 372.233 362.124,375.266 358.983,375.266 358.366 C 375.266 358.082,375.527 357.750,375.845 357.628 C 376.164 357.505,376.425 357.067,376.425 356.654 C 376.425 356.242,376.679 355.413,376.989 354.812 C 377.300 354.212,377.478 353.646,377.386 353.553 C 376.875 353.042,377.130 349.384,377.718 348.797 C 378.070 348.445,378.357 347.915,378.357 347.620 C 378.357 347.324,379.036 346.423,379.864 345.618 C 383.106 342.470,385.524 335.873,385.161 331.171 C 384.598 323.875,384.473 309.386,384.918 302.898 C 385.279 297.640,385.284 295.113,384.942 292.077 C 384.358 286.905,384.246 276.236,384.731 272.077 C 385.386 266.467,385.199 252.510,384.382 245.990 C 383.623 239.938,383.697 237.515,384.975 226.667 C 385.261 224.238,385.263 222.547,384.981 221.063 C 384.708 219.627,384.578 192.992,384.579 139.038 C 384.581 50.036,384.827 58.963,382.249 54.532 C 381.829 53.810,381.305 52.766,381.086 52.213 C 380.867 51.660,380.537 50.947,380.352 50.628 C 380.168 50.309,379.687 49.363,379.284 48.524 C 378.881 47.686,378.029 46.353,377.391 45.561 C 376.754 44.769,375.971 43.781,375.652 43.366 C 373.967 41.172,370.866 37.874,370.485 37.871 C 370.245 37.869,369.380 36.830,368.563 35.563 C 367.746 34.295,366.463 32.775,365.712 32.184 C 364.960 31.594,363.519 30.368,362.509 29.459 C 361.308 28.379,359.820 27.524,358.210 26.989 C 356.856 26.540,355.575 26.039,355.362 25.877 C 354.651 25.335,351.838 24.739,348.949 24.518 C 347.375 24.397,345.252 24.136,344.232 23.937 C 338.333 22.785,331.523 23.765,329.135 26.108 C 325.576 29.601,325.255 30.924,326.226 38.068 C 326.897 43.003,326.849 45.003,325.975 48.514 C 325.299 51.227,325.297 51.575,325.919 56.325 C 326.844 63.388,326.889 105.353,325.977 110.014 C 325.425 112.833,325.160 119.476,325.573 120.143 C 325.673 120.306,325.945 122.688,326.176 125.437 C 326.407 128.186,326.763 130.957,326.966 131.594 C 328.192 135.437,327.228 146.655,325.438 149.372 C 324.837 150.284,323.823 153.959,322.933 158.454 C 321.633 165.011,319.446 168.517,315.681 170.076 C 315.081 170.325,314.589 170.651,314.589 170.800 C 314.589 171.295,310.190 173.104,307.455 173.734 C 305.976 174.075,304.585 174.471,304.364 174.613 C 303.743 175.014,301.318 175.833,300.735 175.840 C 300.448 175.843,299.665 176.091,298.996 176.392 C 298.326 176.692,297.082 177.151,296.232 177.411 C 295.382 177.672,293.507 178.474,292.066 179.194 C 284.438 183.008,279.118 183.173,275.495 179.710 C 274.494 178.754,273.134 177.452,272.472 176.819 C 271.495 175.883,270.904 175.654,269.339 175.603 C 266.944 175.524,264.674 175.113,264.123 174.658 C 263.893 174.468,262.154 173.691,260.258 172.930 C 257.282 171.736,255.457 170.742,253.193 169.082 C 252.903 168.870,251.226 167.304,249.466 165.604 C 247.707 163.903,245.841 162.146,245.320 161.698 C 244.485 160.980,244.343 160.457,244.114 157.254 C 243.875 153.898,243.770 153.029,243.313 150.628 C 243.125 149.645,241.686 145.136,241.185 143.961 C 241.003 143.536,240.552 142.319,240.181 141.256 C 239.811 140.193,239.307 139.063,239.061 138.744 C 238.656 138.219,238.201 137.298,237.246 135.072 C 236.468 133.258,235.662 128.688,235.676 126.170 C 235.699 122.224,238.501 112.077,239.568 112.077 C 239.736 112.077,240.711 111.425,241.734 110.628 C 243.916 108.929,249.890 108.428,251.457 109.812 C 251.851 110.160,252.732 110.564,253.413 110.709 C 255.100 111.067,257.000 114.729,257.014 117.646 C 257.019 118.728,257.203 120.309,257.422 121.159 C 257.642 122.010,257.993 123.401,258.202 124.251 C 258.537 125.614,260.968 130.109,261.651 130.628 C 261.791 130.734,262.629 132.039,263.514 133.527 C 265.276 136.492,265.310 136.545,267.254 139.295 C 267.994 140.342,268.599 141.415,268.599 141.678 C 268.599 141.942,268.729 142.216,268.889 142.287 C 269.048 142.357,269.519 143.084,269.936 143.902 C 270.775 145.548,273.280 147.467,275.942 148.502 C 282.481 151.044,296.735 144.838,296.803 139.420 C 296.808 139.048,296.949 138.744,297.118 138.744 C 297.835 138.744,298.359 134.871,298.388 129.366 C 298.405 126.128,298.592 122.000,298.803 120.193 C 299.015 118.386,299.340 103.430,299.526 86.957 C 299.712 70.483,299.976 55.527,300.111 53.720 C 300.311 51.067,300.203 49.828,299.551 47.279 C 298.916 44.796,298.744 42.941,298.746 38.583 C 298.749 29.915,296.568 26.853,289.560 25.686 C 288.766 25.554,286.464 24.951,284.444 24.347 C 280.024 23.023,277.981 22.778,275.169 23.237 M253.720 199.893 C 255.420 200.234,258.812 201.167,261.256 201.966 L 265.700 203.418 275.362 203.641 C 283.384 203.827,285.225 203.975,286.207 204.513 C 286.858 204.870,289.031 205.625,291.038 206.191 C 293.044 206.757,295.816 207.749,297.198 208.396 C 300.826 210.093,300.953 210.139,304.348 210.971 C 309.207 212.162,314.050 213.982,317.295 215.838 C 319.317 216.994,320.919 217.573,323.222 217.981 C 324.532 218.213,326.126 218.632,326.763 218.913 C 327.401 219.194,328.656 219.645,329.553 219.915 C 330.449 220.185,331.612 220.858,332.137 221.410 C 333.978 223.348,335.571 224.232,337.581 224.430 C 339.257 224.594,339.770 224.765,342.415 226.038 C 347.147 228.314,350.202 230.964,350.755 233.271 C 350.903 233.890,351.214 234.636,351.446 234.929 C 351.678 235.222,352.334 236.515,352.904 237.804 L 353.941 240.146 353.177 242.102 C 352.757 243.178,351.990 244.456,351.472 244.943 C 350.955 245.430,350.531 246.062,350.531 246.347 C 350.531 246.633,349.792 247.490,348.889 248.252 C 347.986 249.014,346.629 250.251,345.875 251.002 C 345.120 251.753,344.294 252.367,344.039 252.367 C 343.784 252.367,343.575 252.522,343.575 252.712 C 343.575 252.901,343.178 253.156,342.693 253.278 C 341.384 253.606,340.003 257.672,341.010 258.235 C 341.383 258.444,342.244 259.084,342.922 259.657 C 344.829 261.269,347.229 262.802,347.847 262.803 C 348.154 262.804,348.942 263.132,349.597 263.531 C 350.253 263.931,351.321 264.375,351.971 264.518 C 353.348 264.820,356.715 266.867,356.715 267.401 C 356.715 267.602,356.280 268.283,355.749 268.915 C 354.976 269.833,354.783 270.486,354.783 272.173 C 354.783 274.371,354.228 275.318,352.120 276.715 C 351.639 277.034,350.397 277.903,349.361 278.647 C 348.324 279.391,346.772 280.477,345.912 281.059 C 344.954 281.708,344.348 282.419,344.348 282.895 C 344.348 283.322,344.174 283.671,343.961 283.671 C 343.749 283.671,343.575 283.926,343.575 284.238 C 343.575 284.549,343.187 285.011,342.713 285.265 C 342.239 285.518,341.631 285.947,341.360 286.217 C 341.090 286.487,339.945 286.977,338.816 287.306 C 337.686 287.634,335.506 288.593,333.970 289.437 C 332.435 290.281,330.837 291.080,330.420 291.212 C 330.003 291.345,329.662 291.596,329.662 291.770 C 329.662 291.945,329.010 292.200,328.213 292.337 C 326.278 292.669,323.039 293.382,322.319 293.633 C 322.000 293.745,321.424 293.897,321.039 293.972 C 320.352 294.106,318.670 294.825,314.739 296.665 C 313.653 297.174,312.271 298.046,311.670 298.604 C 310.605 299.591,306.641 301.836,305.964 301.836 C 305.778 301.836,305.143 302.180,304.552 302.601 C 302.404 304.131,294.385 305.578,285.990 305.950 C 281.452 306.152,276.910 307.279,275.942 308.444 C 275.609 308.845,274.166 309.522,272.413 310.099 C 268.045 311.537,206.240 311.777,199.388 310.383 C 193.011 309.085,186.214 307.972,181.256 307.414 C 178.174 307.068,175.512 306.698,175.342 306.593 C 175.171 306.488,173.953 306.320,172.636 306.220 C 169.606 305.991,166.687 305.156,161.353 302.993 C 160.928 302.821,159.275 302.393,157.681 302.044 C 156.087 301.694,154.435 301.256,154.010 301.070 C 153.585 300.884,152.335 300.448,151.232 300.101 C 149.461 299.545,143.751 296.557,140.483 294.478 C 136.975 292.245,132.483 290.236,128.798 289.250 C 127.018 288.774,122.657 286.640,122.126 285.985 C 122.019 285.854,120.541 285.078,118.841 284.261 C 117.140 283.443,115.662 282.666,115.556 282.534 C 115.449 282.401,114.406 281.609,113.237 280.773 C 112.068 279.937,110.642 278.822,110.068 278.294 C 106.682 275.179,98.202 275.953,95.266 279.645 C 94.628 280.447,93.911 281.298,93.673 281.537 C 93.435 281.775,92.938 282.570,92.568 283.304 C 91.641 285.142,89.582 287.244,86.340 289.660 C 84.832 290.785,82.919 292.549,82.089 293.582 C 81.259 294.614,80.487 295.546,80.374 295.652 C 80.260 295.758,79.499 296.769,78.681 297.898 C 74.414 303.788,71.599 306.344,69.336 306.378 C 67.840 306.400,67.406 306.614,66.076 307.985 C 64.460 309.650,63.876 309.796,61.259 309.189 C 59.664 308.819,58.034 307.312,56.125 304.441 C 54.809 302.462,53.576 293.273,54.117 289.469 C 54.313 288.087,54.736 285.002,55.057 282.613 C 55.377 280.225,55.787 277.964,55.967 277.589 C 56.548 276.380,57.634 274.273,59.305 271.111 C 63.379 263.406,63.438 255.975,59.446 253.616 C 58.847 253.263,58.357 252.858,58.357 252.717 C 58.357 252.576,57.792 252.227,57.101 251.942 C 54.288 250.779,51.710 246.873,49.729 240.773 C 49.216 239.193,47.138 231.071,47.010 230.145 C 46.981 229.932,46.783 229.635,46.571 229.483 C 45.841 228.962,46.090 220.908,46.860 220.138 C 47.232 219.766,47.536 219.332,47.536 219.173 C 47.536 219.014,48.145 218.201,48.889 217.365 C 49.632 216.529,50.241 215.483,50.241 215.040 C 50.241 214.597,50.937 213.481,51.787 212.560 C 52.638 211.639,53.333 210.736,53.333 210.554 C 53.333 210.371,53.855 210.491,54.493 210.821 C 55.130 211.151,55.652 211.578,55.652 211.770 C 55.652 211.962,56.633 212.404,57.832 212.753 C 60.371 213.491,61.521 214.154,63.379 215.951 C 64.482 217.019,64.935 217.216,65.856 217.032 C 67.124 216.778,69.099 217.360,71.111 218.579 C 71.855 219.029,73.154 219.625,73.998 219.902 C 75.762 220.481,82.705 227.256,82.705 228.398 C 82.705 229.407,88.852 234.361,91.892 235.802 C 96.502 237.988,96.510 237.991,99.130 238.429 C 102.461 238.987,103.646 239.195,104.691 239.404 C 105.708 239.609,107.530 238.525,108.792 236.966 C 110.748 234.550,112.875 232.762,114.992 231.753 C 116.258 231.150,117.643 230.464,118.068 230.231 C 118.493 229.997,119.449 229.494,120.193 229.113 C 121.849 228.264,122.415 227.798,123.754 226.174 C 126.247 223.149,129.804 221.132,134.493 220.083 C 136.087 219.726,137.913 219.211,138.551 218.939 C 139.188 218.666,140.145 218.318,140.676 218.164 C 141.208 218.011,142.164 217.654,142.802 217.372 C 143.440 217.091,144.614 216.597,145.411 216.276 C 146.208 215.954,146.860 215.533,146.860 215.339 C 146.860 213.886,150.644 211.322,154.087 210.441 C 155.320 210.126,157.546 209.538,159.034 209.134 C 160.522 208.730,162.957 208.301,164.444 208.182 C 165.932 208.062,167.845 207.875,168.696 207.765 C 169.546 207.656,172.415 207.365,175.072 207.120 C 177.729 206.875,180.077 206.545,180.290 206.387 C 180.502 206.228,181.225 205.995,181.895 205.869 C 182.565 205.742,184.234 205.109,185.604 204.462 C 186.974 203.814,188.375 203.285,188.719 203.285 C 189.062 203.285,190.255 202.926,191.369 202.487 C 198.370 199.727,205.259 199.209,234.396 199.250 C 247.686 199.269,251.188 199.385,253.720 199.893 M278.674 237.585 C 277.097 238.389,276.262 239.916,275.185 243.971 L 274.387 246.976 275.214 250.348 C 276.193 254.339,276.935 255.242,279.551 255.627 C 283.155 256.159,286.423 253.760,288.734 248.889 C 291.373 243.326,283.895 234.925,278.674 237.585 " stroke="none" fill="#fa7e7e" fill-rule="evenodd"></path><path id="path2" d="M324.194 21.049 L 322.705 22.194 322.674 79.020 C 322.644 134.718,322.563 144.712,322.117 147.826 C 321.614 151.339,318.480 157.891,316.108 160.389 C 315.804 160.709,315.081 161.666,314.500 162.515 C 313.453 164.045,311.130 165.935,306.667 168.886 C 305.391 169.729,304.095 170.640,303.785 170.910 C 302.979 171.614,301.112 172.366,300.149 172.375 C 299.695 172.379,297.585 173.009,295.459 173.776 C 291.638 175.153,291.511 175.171,284.251 175.345 L 276.908 175.521 273.816 174.304 C 270.472 172.989,267.590 171.649,266.667 170.982 C 266.348 170.751,265.478 170.326,264.734 170.037 C 263.990 169.749,263.295 169.416,263.188 169.297 C 262.855 168.926,259.509 166.050,257.768 164.638 C 256.851 163.894,255.564 162.683,254.910 161.947 C 254.255 161.211,252.813 159.685,251.706 158.555 C 250.549 157.375,249.164 155.397,248.454 153.907 C 247.773 152.481,246.664 150.442,245.989 149.377 C 239.866 139.710,238.594 115.449,244.007 111.588 C 247.222 109.295,250.682 110.643,251.711 114.589 C 252.044 115.865,252.776 118.386,253.339 120.193 C 253.902 122.000,254.620 124.696,254.936 126.184 C 255.257 127.697,256.087 129.867,256.819 131.109 C 257.539 132.329,258.246 133.982,258.390 134.780 C 258.722 136.619,259.162 137.459,260.558 138.924 C 261.173 139.569,262.038 140.923,262.480 141.932 C 262.922 142.942,263.393 143.768,263.526 143.769 C 263.659 143.769,264.260 144.192,264.861 144.709 C 266.248 145.902,268.854 148.038,269.842 148.792 C 270.260 149.111,271.136 149.841,271.790 150.414 C 275.895 154.017,286.462 156.352,289.236 154.269 C 289.470 154.093,290.531 153.631,291.594 153.241 C 294.335 152.236,295.104 151.691,298.268 148.518 C 299.814 146.968,301.231 145.700,301.419 145.700 C 301.606 145.700,302.168 145.048,302.667 144.251 L 303.575 142.802 303.680 82.648 L 303.785 22.494 302.776 21.295 L 301.767 20.097 184.332 20.097 C 115.290 20.097,66.530 20.241,66.009 20.446 C 65.520 20.638,63.643 21.103,61.836 21.480 C 58.399 22.195,53.405 24.435,51.014 26.331 C 50.271 26.921,48.856 27.759,47.872 28.193 C 46.888 28.626,45.796 29.418,45.446 29.952 C 45.096 30.486,43.585 32.131,42.089 33.607 C 40.592 35.083,38.669 37.386,37.814 38.725 C 36.960 40.064,36.059 41.333,35.812 41.546 C 34.197 42.935,30.531 50.627,30.531 52.626 C 30.531 52.826,30.141 53.806,29.664 54.804 L 28.796 56.618 28.672 198.193 L 28.547 339.768 29.503 342.541 C 30.028 344.066,30.678 346.444,30.947 347.826 C 31.216 349.208,31.780 350.947,32.201 351.691 C 32.622 352.435,33.454 354.019,34.051 355.211 C 38.912 364.921,48.052 373.201,57.867 376.787 C 59.518 377.390,61.913 378.295,63.188 378.797 L 65.507 379.710 208.696 379.710 C 326.821 379.710,352.290 379.620,354.203 379.193 C 355.478 378.909,356.870 378.609,357.295 378.527 C 357.720 378.445,358.564 377.946,359.170 377.419 C 359.829 376.846,360.995 376.358,362.068 376.205 C 364.550 375.852,366.062 375.083,369.037 372.659 C 370.444 371.513,372.177 370.109,372.889 369.539 C 374.593 368.175,374.961 367.802,375.652 366.739 C 375.971 366.248,377.188 364.778,378.357 363.472 C 381.827 359.595,383.034 357.793,383.535 355.737 C 383.689 355.106,384.225 353.962,384.726 353.196 C 386.091 351.109,387.877 344.822,388.776 338.937 C 389.267 335.726,389.115 63.475,388.620 59.517 C 388.474 58.348,387.944 56.522,387.442 55.459 C 386.940 54.396,386.424 52.570,386.294 51.401 C 385.952 48.324,385.366 46.768,383.903 45.051 C 383.191 44.216,382.609 43.362,382.609 43.153 C 382.609 42.321,379.980 38.753,377.461 36.165 C 375.996 34.661,373.923 32.432,372.853 31.213 C 370.962 29.058,368.732 27.461,366.763 26.854 C 366.232 26.690,365.252 26.140,364.586 25.633 C 363.046 24.461,358.063 22.651,352.850 21.371 C 348.663 20.343,347.399 20.262,331.537 20.000 L 325.683 19.903 324.194 21.049 M287.729 21.986 L 302.029 22.222 302.141 80.193 C 302.271 147.598,302.576 141.926,298.706 143.922 C 298.252 144.156,297.451 145.118,296.927 146.059 C 294.731 149.999,293.693 150.873,290.435 151.527 C 289.585 151.698,287.936 152.109,286.772 152.441 C 284.689 153.036,284.167 153.018,279.807 152.205 C 275.918 151.481,275.092 150.988,270.338 146.560 C 269.700 145.966,268.554 145.008,267.789 144.430 C 267.025 143.853,265.460 142.002,264.311 140.317 C 263.162 138.632,261.843 137.076,261.379 136.860 C 260.750 136.566,260.474 135.995,260.288 134.610 C 259.962 132.172,258.639 128.822,257.592 127.784 C 256.724 126.924,256.139 124.921,255.459 120.492 C 255.240 119.063,254.646 117.113,254.139 116.159 C 253.631 115.205,253.099 113.592,252.956 112.575 C 252.562 109.780,251.535 109.179,247.150 109.179 C 242.516 109.179,241.574 109.800,240.413 113.623 C 239.961 115.111,239.425 116.329,239.221 116.329 C 236.964 116.329,236.983 134.101,239.244 137.005 C 239.409 137.217,239.662 138.087,239.805 138.937 C 240.109 140.741,240.684 142.864,241.167 143.961 C 241.354 144.386,241.774 145.558,242.100 146.565 C 242.426 147.573,242.861 148.703,243.067 149.078 C 243.273 149.452,243.722 150.395,244.066 151.172 C 244.429 151.991,245.129 152.767,245.730 153.016 C 246.537 153.350,246.936 153.969,247.518 155.791 C 248.068 157.514,248.658 158.471,249.738 159.395 C 250.546 160.088,251.208 160.951,251.208 161.315 C 251.208 162.252,254.918 165.693,256.850 166.547 C 257.743 166.942,258.583 167.587,258.715 167.981 C 259.138 169.235,265.734 173.504,267.277 173.522 C 267.506 173.524,268.489 174.053,269.461 174.697 C 274.775 178.217,296.182 178.206,298.360 174.682 C 298.482 174.485,299.811 174.064,301.313 173.749 C 304.218 173.137,308.126 170.940,310.725 168.456 C 311.469 167.745,312.696 166.879,313.452 166.532 C 314.980 165.831,317.366 163.255,318.471 161.110 C 318.869 160.340,319.445 159.613,319.752 159.495 C 320.059 159.377,320.866 157.834,321.546 156.066 C 322.226 154.297,323.156 152.068,323.613 151.111 L 324.444 149.372 324.638 86.106 C 324.789 36.496,324.934 22.737,325.310 22.361 C 325.668 22.003,328.643 21.876,337.098 21.859 L 348.406 21.836 350.876 23.088 C 352.487 23.905,354.638 24.565,357.060 24.986 C 359.940 25.487,360.946 25.830,361.546 26.515 C 362.244 27.312,364.377 28.157,367.235 28.769 C 367.814 28.893,368.493 29.380,368.746 29.852 C 368.998 30.323,370.534 32.017,372.160 33.615 C 373.786 35.214,375.233 36.832,375.377 37.212 C 375.521 37.592,376.155 38.199,376.786 38.561 C 377.956 39.232,378.258 39.681,381.088 44.937 C 381.977 46.590,383.083 48.242,383.545 48.609 C 386.587 51.024,386.503 46.815,386.499 197.488 C 386.495 303.614,386.592 329.846,386.990 331.393 C 387.417 333.048,387.391 333.773,386.809 336.568 C 386.436 338.357,385.942 341.711,385.711 344.023 C 385.253 348.603,384.894 349.707,383.285 351.471 C 382.700 352.112,382.222 352.852,382.222 353.116 C 382.222 354.213,380.925 357.363,380.103 358.261 C 379.617 358.792,378.944 359.772,378.608 360.438 C 378.273 361.104,377.599 361.749,377.111 361.871 C 376.623 361.994,375.889 362.666,375.480 363.366 C 374.282 365.416,371.295 368.707,370.439 368.922 C 370.004 369.031,369.044 369.739,368.305 370.495 C 367.566 371.251,366.308 372.130,365.510 372.450 C 364.711 372.769,364.058 373.186,364.058 373.375 C 364.058 373.565,363.227 373.720,362.212 373.720 C 360.942 373.720,359.647 374.078,358.058 374.867 C 356.788 375.498,355.564 376.020,355.339 376.027 C 355.113 376.033,354.552 376.389,354.092 376.817 C 353.633 377.246,352.791 377.773,352.222 377.989 C 351.527 378.254,304.600 378.378,209.120 378.367 L 67.053 378.351 65.983 377.565 C 64.533 376.498,61.901 375.403,59.015 374.663 C 57.697 374.326,56.184 373.762,55.652 373.410 C 54.294 372.512,51.290 371.041,50.785 371.027 C 50.552 371.020,50.030 370.648,49.625 370.200 C 49.220 369.753,48.240 369.055,47.448 368.651 C 46.655 368.246,45.757 367.432,45.452 366.842 C 45.146 366.252,44.448 365.530,43.900 365.236 C 43.352 364.943,42.616 364.254,42.265 363.704 C 41.914 363.155,41.063 362.231,40.374 361.651 C 39.685 361.070,39.003 360.125,38.859 359.549 C 38.714 358.973,38.280 358.056,37.894 357.511 C 37.507 356.967,36.535 355.304,35.733 353.816 C 34.931 352.329,33.956 350.676,33.567 350.145 C 31.276 347.017,31.056 329.888,31.229 167.729 C 31.358 46.374,31.249 51.851,33.577 49.302 C 33.979 48.862,34.436 48.068,34.594 47.536 C 35.050 46.000,36.588 43.552,37.862 42.331 C 38.506 41.713,39.034 41.020,39.034 40.791 C 39.034 40.561,39.791 39.583,40.716 38.617 C 41.642 37.651,42.468 36.698,42.552 36.498 C 42.636 36.299,43.444 35.655,44.348 35.067 C 45.251 34.479,45.990 33.776,45.990 33.504 C 45.990 33.232,46.860 32.346,47.923 31.535 C 48.986 30.725,49.855 29.920,49.855 29.748 C 49.855 29.575,50.384 29.317,51.031 29.175 C 51.677 29.033,52.955 28.269,53.870 27.477 C 55.659 25.928,56.629 25.483,59.835 24.739 C 60.966 24.477,62.705 23.803,63.700 23.242 C 64.824 22.608,66.384 22.135,67.826 21.991 C 70.888 21.686,269.312 21.681,287.729 21.986 M211.014 202.919 C 201.147 203.197,196.843 203.765,194.880 205.051 C 194.061 205.588,192.622 205.814,188.599 206.037 C 182.959 206.348,179.703 207.054,178.406 208.247 C 177.819 208.786,176.756 209.077,174.686 209.266 C 173.092 209.411,171.266 209.685,170.628 209.875 C 163.531 211.986,161.473 212.537,159.900 212.749 C 158.888 212.884,156.714 213.668,155.069 214.490 C 153.423 215.312,151.208 216.196,150.145 216.454 C 147.914 216.997,146.221 217.770,145.121 218.749 C 144.696 219.127,143.339 219.750,142.105 220.133 C 140.872 220.517,139.209 221.389,138.411 222.073 C 137.396 222.941,136.291 223.439,134.738 223.726 C 132.107 224.212,131.916 224.312,130.514 225.927 C 129.920 226.611,128.991 227.282,128.450 227.418 C 126.876 227.813,120.454 231.565,119.682 232.540 C 119.295 233.029,118.703 233.430,118.368 233.430 C 117.416 233.430,113.589 235.483,113.203 236.200 C 113.013 236.555,112.358 236.955,111.748 237.089 C 111.139 237.223,110.137 237.866,109.523 238.517 C 108.909 239.169,107.710 240.008,106.860 240.381 C 106.010 240.755,104.629 241.711,103.792 242.505 C 101.780 244.415,99.671 244.328,96.908 242.219 C 95.907 241.455,94.693 240.707,94.211 240.556 C 93.275 240.264,90.259 237.917,88.248 235.915 C 87.576 235.247,86.486 234.592,85.826 234.460 C 85.159 234.326,83.880 233.486,82.948 232.569 C 80.450 230.109,78.882 228.764,76.522 227.056 C 75.353 226.209,73.856 224.993,73.195 224.353 C 70.226 221.473,68.772 220.343,67.496 219.922 C 66.741 219.673,66.030 219.172,65.914 218.809 C 65.319 216.932,60.952 213.660,57.832 212.753 C 56.633 212.404,55.652 211.962,55.652 211.770 C 55.652 211.578,55.166 211.169,54.572 210.862 C 52.318 209.697,51.029 213.373,49.380 225.667 C 48.753 230.338,49.987 235.083,52.554 237.874 C 53.140 238.512,53.913 239.823,54.271 240.787 C 54.628 241.751,55.511 243.285,56.231 244.196 C 56.952 245.106,57.832 246.612,58.187 247.541 C 58.656 248.771,59.135 249.336,59.947 249.619 C 60.575 249.838,61.063 250.290,61.063 250.652 C 61.063 251.786,62.643 254.061,64.536 255.652 C 66.812 257.567,67.276 259.746,65.893 262.029 C 65.442 262.773,64.840 263.990,64.554 264.734 C 64.269 265.478,63.833 266.261,63.586 266.473 C 62.870 267.089,61.128 270.971,60.841 272.591 C 60.697 273.405,60.318 274.171,60.000 274.293 C 58.410 274.904,57.501 278.553,57.232 285.411 C 57.032 290.496,56.824 292.260,56.313 293.218 C 55.457 294.820,55.480 295.549,56.468 298.191 C 57.001 299.614,57.308 301.408,57.351 303.355 C 57.446 307.575,59.419 309.511,63.672 309.556 C 64.560 309.565,67.627 306.774,67.640 305.944 C 67.643 305.704,68.097 305.079,68.648 304.556 C 69.200 304.033,69.764 303.299,69.902 302.925 C 70.217 302.072,72.738 299.184,76.618 295.228 C 78.266 293.548,79.614 292.001,79.614 291.790 C 79.614 291.579,80.339 290.881,81.225 290.239 C 82.111 289.597,83.128 288.595,83.483 288.014 C 84.217 286.816,86.969 284.058,87.432 284.058 C 88.063 284.058,89.959 281.859,91.005 279.915 C 91.825 278.391,92.408 277.793,93.388 277.470 C 94.102 277.234,94.686 276.901,94.686 276.730 C 94.686 276.559,95.033 276.328,95.457 276.217 C 95.881 276.106,96.346 275.695,96.491 275.302 C 98.040 271.104,102.920 271.310,108.944 275.828 C 109.878 276.528,110.957 277.101,111.342 277.101 C 112.297 277.101,114.134 277.941,114.518 278.554 C 114.918 279.191,117.711 280.966,118.313 280.966 C 118.563 280.966,119.306 281.376,119.964 281.877 C 120.621 282.377,122.203 283.275,123.478 283.872 C 124.754 284.468,126.218 285.281,126.733 285.678 C 127.248 286.075,128.428 286.735,129.356 287.146 C 130.284 287.556,131.556 288.405,132.183 289.032 C 132.916 289.765,133.912 290.269,134.971 290.445 C 136.629 290.720,138.000 291.270,138.357 291.806 C 138.643 292.233,142.262 294.106,142.802 294.106 C 143.057 294.106,144.119 294.562,145.160 295.119 C 147.464 296.353,150.486 297.365,153.754 297.997 C 155.101 298.258,156.290 298.698,156.397 298.975 C 156.654 299.646,158.588 300.255,161.807 300.677 C 165.429 301.151,168.969 302.011,170.504 302.788 C 172.621 303.861,178.853 304.856,185.298 305.151 C 191.122 305.417,191.380 305.463,191.699 306.302 C 192.346 308.004,202.011 308.462,233.623 308.288 C 259.679 308.145,262.451 307.953,265.631 306.077 C 266.673 305.462,268.134 305.254,273.646 304.938 C 281.229 304.502,284.735 303.884,286.338 302.699 C 287.196 302.064,288.254 301.835,291.252 301.634 C 295.108 301.375,299.134 300.313,300.373 299.229 C 301.186 298.518,304.948 297.599,307.081 297.591 C 308.826 297.584,312.141 296.597,313.051 295.812 C 313.871 295.107,321.026 291.504,322.688 290.960 C 325.580 290.014,331.679 286.613,332.086 285.720 C 332.349 285.142,333.055 284.671,334.073 284.395 C 339.023 283.050,341.098 281.868,343.316 279.128 C 343.704 278.648,344.977 277.803,346.144 277.251 C 347.386 276.664,348.441 275.863,348.688 275.322 C 348.919 274.813,349.820 273.980,350.690 273.471 C 352.388 272.475,356.715 268.159,356.715 267.460 C 356.715 266.874,353.416 264.835,351.945 264.512 C 351.280 264.366,350.353 263.996,349.885 263.689 C 349.090 263.168,348.324 262.921,342.807 261.412 C 341.640 261.093,340.336 260.504,339.908 260.103 C 338.932 259.189,337.713 258.732,335.312 258.379 C 331.953 257.885,331.527 257.532,331.823 255.487 C 332.128 253.382,332.245 253.140,332.958 253.140 C 333.710 253.140,336.300 251.674,337.005 250.850 C 337.324 250.477,338.193 249.951,338.937 249.682 C 341.306 248.825,342.801 247.956,343.003 247.319 C 343.217 246.643,346.247 245.797,348.454 245.797 C 354.598 245.797,355.372 237.056,349.499 234.003 C 348.279 233.369,346.595 232.372,345.756 231.787 C 344.918 231.203,344.028 230.725,343.780 230.725 C 343.531 230.725,342.644 230.140,341.809 229.426 C 340.973 228.711,339.339 227.629,338.176 227.022 C 337.013 226.414,335.444 225.299,334.688 224.544 C 333.933 223.788,332.554 222.942,331.624 222.663 C 330.693 222.384,329.306 221.750,328.541 221.254 C 327.776 220.757,326.367 220.131,325.411 219.862 C 324.454 219.592,322.772 218.806,321.672 218.115 C 320.573 217.424,318.768 216.590,317.661 216.262 C 316.555 215.933,315.450 215.499,315.207 215.297 C 314.573 214.771,309.025 213.333,307.630 213.333 C 304.448 213.333,301.449 212.421,301.449 211.452 C 301.449 209.893,300.523 209.567,296.591 209.744 C 291.105 209.991,285.763 209.285,284.393 208.132 C 283.739 207.581,282.567 207.107,281.544 206.980 C 277.432 206.467,276.233 206.355,270.937 205.984 C 266.207 205.652,265.225 205.474,264.525 204.816 C 262.442 202.859,240.649 202.086,211.014 202.919 M251.213 204.473 C 253.235 204.682,256.539 205.212,258.556 205.650 C 260.572 206.088,263.961 206.601,266.087 206.792 C 268.213 206.982,271.691 207.288,273.816 207.473 C 277.859 207.824,281.728 208.735,283.164 209.674 C 283.629 209.978,286.181 210.495,288.837 210.822 C 291.492 211.150,294.329 211.699,295.142 212.042 C 295.954 212.386,297.923 212.994,299.517 213.394 C 301.111 213.794,303.285 214.532,304.348 215.035 C 305.411 215.538,307.155 216.044,308.224 216.159 C 310.382 216.392,316.005 218.196,316.908 218.946 C 317.227 219.210,318.531 219.715,319.807 220.067 C 322.182 220.724,325.151 222.014,326.184 222.838 C 326.502 223.093,327.622 223.589,328.671 223.941 C 329.720 224.293,331.372 225.155,332.342 225.856 C 333.313 226.558,334.678 227.324,335.376 227.560 C 336.523 227.947,338.621 229.219,343.521 232.496 C 344.448 233.116,345.927 234.101,346.806 234.685 C 347.686 235.269,348.720 235.964,349.104 236.231 C 350.735 237.361,351.370 239.870,350.496 241.729 C 349.652 243.524,349.116 243.846,345.414 244.777 C 344.194 245.084,342.629 245.701,341.936 246.148 C 341.243 246.595,339.111 247.738,337.198 248.688 C 335.285 249.638,332.763 251.072,331.594 251.874 L 329.469 253.333 329.469 255.444 C 329.469 257.876,330.273 258.676,333.915 259.867 C 334.998 260.222,336.789 260.934,337.894 261.449 C 340.485 262.659,344.671 264.122,347.721 264.885 C 349.045 265.216,350.823 265.926,351.673 266.462 L 353.218 267.438 351.778 269.546 C 350.986 270.705,349.990 271.819,349.565 272.020 C 349.140 272.221,347.860 273.191,346.720 274.174 C 345.580 275.158,343.841 276.329,342.855 276.778 C 341.869 277.226,340.223 278.348,339.196 279.270 C 338.125 280.232,336.368 281.298,335.078 281.768 C 333.687 282.275,332.185 283.214,331.141 284.229 C 330.044 285.294,328.711 286.111,327.335 286.558 C 326.170 286.937,324.870 287.557,324.444 287.936 C 324.019 288.315,322.106 289.228,320.193 289.965 C 318.280 290.703,315.411 291.946,313.816 292.728 C 312.222 293.510,308.744 294.752,306.087 295.487 C 298.583 297.565,297.120 298.022,295.459 298.809 C 294.609 299.211,292.696 299.721,291.208 299.941 C 285.409 300.798,282.083 301.561,277.681 303.043 C 277.043 303.258,273.975 303.593,270.862 303.788 C 265.289 304.138,263.717 304.430,258.357 306.116 C 255.061 307.153,211.938 307.738,203.787 306.856 C 201.492 306.608,198.483 306.278,197.101 306.123 C 195.720 305.968,193.981 305.484,193.237 305.046 C 192.159 304.412,190.707 304.162,186.087 303.816 C 181.454 303.469,179.417 303.118,175.945 302.068 C 173.555 301.344,170.512 300.634,169.182 300.490 C 167.852 300.345,165.981 299.830,165.024 299.347 C 164.068 298.863,162.589 298.344,161.739 298.194 C 158.444 297.611,148.570 294.226,144.734 292.364 C 143.246 291.641,141.519 290.928,140.895 290.779 C 140.272 290.631,139.142 290.088,138.384 289.573 C 137.625 289.059,135.900 288.126,134.549 287.501 C 133.198 286.876,131.198 285.770,130.104 285.045 C 129.011 284.319,127.681 283.559,127.150 283.357 C 126.618 283.154,124.720 282.098,122.931 281.011 C 121.143 279.924,119.447 279.034,119.163 279.034 C 118.879 279.034,118.647 278.875,118.647 278.681 C 118.647 278.342,113.366 275.556,112.723 275.556 C 112.551 275.556,111.683 275.064,110.794 274.463 C 102.626 268.940,100.012 268.611,95.889 272.583 C 94.483 273.937,92.596 275.509,91.694 276.076 C 90.792 276.643,89.633 277.774,89.119 278.589 C 88.605 279.404,87.198 280.924,85.993 281.968 C 84.788 283.011,83.570 284.300,83.286 284.831 C 83.002 285.362,81.611 287.014,80.195 288.502 C 78.779 289.990,76.460 292.423,75.042 293.907 C 72.105 296.983,68.406 301.377,68.406 301.791 C 68.406 301.944,67.328 303.160,66.011 304.493 L 63.616 306.918 61.938 306.448 C 61.014 306.189,60.100 305.682,59.906 305.319 C 59.188 303.977,58.650 295.908,58.843 289.354 C 59.051 282.236,59.251 281.314,61.741 275.942 C 62.382 274.560,63.227 272.647,63.619 271.691 C 64.012 270.734,65.336 267.958,66.562 265.520 C 69.457 259.768,69.590 256.577,67.004 254.883 C 66.512 254.560,65.380 253.297,64.488 252.076 C 63.597 250.854,62.212 249.132,61.410 248.247 C 60.608 247.363,59.519 245.798,58.990 244.769 C 58.462 243.740,57.515 242.345,56.886 241.668 C 56.257 240.991,55.458 239.600,55.110 238.576 C 54.762 237.552,53.829 235.671,53.036 234.396 L 51.594 232.077 51.612 225.507 C 51.629 219.309,52.543 214.106,53.615 214.106 C 55.685 214.106,60.355 216.441,61.868 218.232 C 62.382 218.841,63.843 219.925,65.115 220.642 C 67.629 222.058,69.687 223.598,71.851 225.683 C 72.613 226.418,74.019 227.617,74.976 228.347 C 76.868 229.793,77.173 230.047,79.304 231.956 C 80.090 232.660,81.220 233.614,81.816 234.076 C 82.411 234.537,83.420 235.331,84.058 235.841 C 84.696 236.350,86.130 237.350,87.246 238.062 C 88.362 238.774,89.275 239.466,89.275 239.598 C 89.275 239.731,90.449 240.526,91.884 241.365 C 93.319 242.203,95.310 243.439,96.310 244.111 C 99.473 246.239,103.267 245.997,106.413 243.469 C 108.281 241.967,112.345 239.108,113.354 238.586 C 114.031 238.236,115.456 237.393,116.520 236.713 C 119.170 235.018,123.709 232.338,126.538 230.796 C 129.197 229.347,131.612 227.798,132.754 226.808 C 133.179 226.439,135.005 225.509,136.812 224.740 C 138.618 223.972,141.234 222.768,142.625 222.066 C 144.015 221.364,145.841 220.571,146.683 220.303 C 147.524 220.036,148.560 219.607,148.986 219.351 C 149.411 219.094,151.411 218.314,153.430 217.617 C 155.449 216.920,157.846 216.012,158.757 215.599 C 159.667 215.186,161.406 214.665,162.621 214.442 C 163.837 214.218,165.005 213.897,165.217 213.729 C 165.430 213.560,166.213 213.294,166.957 213.137 C 167.700 212.979,169.005 212.535,169.855 212.149 C 171.732 211.297,173.794 210.774,176.618 210.433 C 179.141 210.129,181.527 209.463,184.108 208.340 C 185.418 207.771,187.427 207.405,190.679 207.144 C 196.402 206.684,203.073 205.741,206.184 204.951 C 210.632 203.821,241.723 203.491,251.213 204.473 M280.580 231.903 C 277.190 232.513,274.277 234.461,272.376 237.389 C 271.681 238.462,270.810 239.802,270.442 240.368 C 268.335 243.613,268.759 255.845,270.980 255.845 C 271.158 255.845,271.304 256.038,271.304 256.273 C 271.304 256.980,274.338 260.566,275.746 261.523 C 280.138 264.507,292.947 260.416,292.947 256.030 C 292.947 255.716,293.078 255.459,293.239 255.459 C 293.400 255.459,293.731 254.981,293.975 254.396 C 295.425 250.924,296.144 243.208,295.099 242.340 C 294.765 242.064,294.493 241.689,294.493 241.508 C 294.493 240.513,292.069 236.116,291.138 235.420 C 290.539 234.972,289.787 234.361,289.469 234.061 C 287.698 232.394,283.505 231.376,280.580 231.903 M285.899 234.589 C 286.779 235.014,287.679 235.362,287.899 235.362 C 288.119 235.362,288.729 236.043,289.254 236.875 C 289.780 237.707,290.528 238.620,290.918 238.904 C 291.686 239.464,293.442 243.376,293.142 243.861 C 293.041 244.025,292.786 246.120,292.576 248.518 C 292.241 252.331,292.059 253.065,291.121 254.370 C 290.531 255.192,289.812 256.313,289.524 256.862 C 289.236 257.411,288.477 258.146,287.838 258.496 C 287.198 258.845,286.078 259.522,285.349 260.000 C 283.779 261.030,277.101 261.333,277.101 260.374 C 277.101 260.102,276.320 259.188,275.365 258.345 C 274.411 257.502,273.628 256.676,273.626 256.510 C 273.625 256.344,272.922 254.971,272.066 253.459 C 269.718 249.316,269.400 243.442,271.463 242.337 C 271.959 242.072,272.768 241.133,273.260 240.251 C 274.500 238.028,277.172 235.590,279.047 234.971 C 279.911 234.686,280.707 234.310,280.815 234.135 C 281.185 233.537,284.297 233.815,285.899 234.589 " stroke="none" fill="#e7a9aa" fill-rule="evenodd"></path><path id="path3" d="M65.277 17.783 C 64.299 17.948,62.995 18.340,62.378 18.654 C 61.761 18.968,60.087 19.426,58.658 19.671 C 55.802 20.160,50.810 22.851,48.309 25.250 C 47.565 25.963,46.331 26.753,45.566 27.004 C 43.962 27.531,37.742 33.790,36.557 36.069 C 36.152 36.850,35.678 37.488,35.505 37.488 C 35.331 37.488,34.904 38.053,34.557 38.744 C 34.209 39.435,33.352 40.609,32.652 41.353 C 31.843 42.213,31.143 43.548,30.728 45.024 C 30.370 46.300,29.500 48.560,28.796 50.048 C 26.492 54.918,26.608 46.374,26.742 201.159 C 26.874 352.480,26.783 345.227,28.581 348.599 C 28.978 349.343,29.591 350.995,29.943 352.271 C 31.050 356.283,32.008 358.101,35.830 363.439 C 37.971 366.430,45.643 373.720,46.649 373.720 C 46.910 373.720,47.700 374.227,48.406 374.847 C 49.112 375.466,50.727 376.442,51.995 377.015 C 53.262 377.588,54.657 378.384,55.093 378.783 C 55.568 379.218,57.663 379.905,60.311 380.495 L 64.734 381.481 207.405 381.489 C 298.210 381.495,350.616 381.361,351.560 381.123 C 352.376 380.917,354.783 380.541,356.908 380.288 C 359.034 380.035,361.208 379.586,361.739 379.291 C 362.271 378.996,364.227 378.062,366.087 377.214 C 367.947 376.367,369.469 375.518,369.469 375.328 C 369.469 375.138,370.178 374.513,371.045 373.939 C 373.556 372.277,377.198 368.798,377.198 368.061 C 377.198 367.783,377.763 367.270,378.454 366.921 C 380.388 365.943,383.257 362.717,383.542 361.201 C 383.677 360.477,384.229 359.236,384.766 358.443 C 385.794 356.930,387.633 352.406,387.633 351.392 C 387.633 351.066,388.074 349.866,388.614 348.725 C 390.383 344.986,390.376 345.653,390.257 197.101 L 390.145 56.232 389.124 54.291 C 388.563 53.223,387.891 51.030,387.631 49.416 C 387.333 47.568,386.749 45.782,386.054 44.593 C 385.448 43.555,384.358 41.488,383.633 40.000 C 382.384 37.438,378.547 32.850,377.652 32.850 C 377.431 32.850,377.141 32.506,377.007 32.085 C 376.874 31.665,376.249 31.016,375.620 30.644 C 374.990 30.272,374.045 29.347,373.519 28.589 C 372.991 27.827,371.974 26.996,371.245 26.733 C 370.520 26.470,369.171 25.566,368.248 24.722 C 367.325 23.879,366.374 23.188,366.134 23.188 C 365.895 23.188,365.491 22.938,365.236 22.632 C 364.501 21.745,359.873 20.156,356.715 19.706 C 355.121 19.479,353.034 18.908,352.077 18.439 C 350.407 17.618,349.841 17.580,337.740 17.477 L 325.141 17.369 323.287 18.647 C 319.719 21.105,320.055 14.387,320.013 84.129 C 319.973 150.110,320.038 147.840,318.095 151.413 C 317.665 152.203,316.960 153.773,316.529 154.900 C 316.097 156.027,315.350 157.332,314.868 157.799 C 314.387 158.265,313.537 159.343,312.980 160.193 C 311.677 162.180,308.907 165.024,308.274 165.024 C 308.004 165.024,307.119 165.633,306.307 166.377 C 305.495 167.121,304.698 167.729,304.536 167.729 C 304.262 167.729,300.445 169.379,297.778 170.650 C 292.097 173.357,277.027 173.329,271.614 170.601 C 270.190 169.883,268.043 168.951,266.843 168.529 C 265.643 168.107,263.881 167.103,262.928 166.297 C 260.250 164.032,255.777 159.602,254.289 157.741 C 252.779 155.852,250.755 153.821,250.380 153.818 C 250.243 153.817,249.828 152.556,249.458 151.014 C 249.005 149.134,248.375 147.704,247.542 146.667 C 246.793 145.734,246.111 144.277,245.824 142.995 C 245.561 141.826,245.024 139.826,244.629 138.551 C 242.471 131.576,242.054 122.437,243.743 119.163 C 246.549 113.726,246.538 113.734,248.427 115.845 C 250.103 117.719,250.545 118.830,251.391 123.285 C 251.775 125.304,252.202 127.130,252.340 127.343 C 252.479 127.556,252.825 128.425,253.109 129.275 C 253.919 131.701,255.725 135.435,257.007 137.335 C 257.652 138.290,258.446 139.711,258.773 140.493 C 259.708 142.730,269.203 152.657,270.408 152.657 C 270.596 152.657,271.674 153.252,272.802 153.979 C 280.418 158.885,293.265 157.139,299.992 150.283 C 301.422 148.825,302.750 147.633,302.942 147.633 C 303.380 147.633,304.811 144.060,305.148 142.121 C 305.288 141.322,305.548 140.577,305.727 140.467 C 305.906 140.356,305.986 134.054,305.905 126.461 C 305.601 97.959,305.591 41.638,305.887 33.930 C 306.096 28.488,306.063 25.582,305.784 24.848 C 305.557 24.254,305.268 23.133,305.139 22.356 C 305.000 21.510,304.360 20.347,303.545 19.457 L 302.185 17.971 294.571 17.719 C 283.742 17.359,67.421 17.420,65.277 17.783 M343.092 20.236 C 350.868 20.425,361.131 23.003,364.586 25.633 C 365.252 26.140,366.232 26.690,366.763 26.854 C 368.732 27.461,370.962 29.058,372.853 31.213 C 373.923 32.432,375.996 34.661,377.461 36.165 C 379.980 38.753,382.609 42.321,382.609 43.153 C 382.609 43.362,383.191 44.216,383.903 45.051 C 385.366 46.768,385.952 48.324,386.294 51.401 C 386.424 52.570,386.940 54.396,387.442 55.459 C 387.944 56.522,388.474 58.348,388.620 59.517 C 389.115 63.475,389.267 335.726,388.776 338.937 C 387.877 344.822,386.091 351.109,384.726 353.196 C 384.225 353.962,383.689 355.106,383.535 355.737 C 383.034 357.793,381.827 359.595,378.357 363.472 C 377.188 364.778,375.971 366.248,375.652 366.739 C 374.961 367.802,374.593 368.175,372.889 369.539 C 372.177 370.109,370.444 371.513,369.037 372.659 C 366.062 375.083,364.550 375.852,362.068 376.205 C 360.995 376.358,359.829 376.846,359.170 377.419 C 358.564 377.946,357.720 378.445,357.295 378.527 C 356.870 378.609,355.478 378.909,354.203 379.193 C 352.290 379.620,326.821 379.710,208.696 379.710 L 65.507 379.710 63.188 378.797 C 61.913 378.295,59.518 377.390,57.867 376.787 C 48.052 373.201,38.912 364.921,34.051 355.211 C 33.454 354.019,32.622 352.435,32.201 351.691 C 31.780 350.947,31.216 349.208,30.947 347.826 C 30.678 346.444,30.028 344.066,29.503 342.541 L 28.547 339.768 28.672 198.193 L 28.796 56.618 29.664 54.804 C 30.141 53.806,30.531 52.826,30.531 52.626 C 30.531 50.627,34.197 42.935,35.812 41.546 C 36.059 41.333,36.960 40.064,37.814 38.725 C 38.669 37.386,40.592 35.083,42.089 33.607 C 43.585 32.131,45.096 30.486,45.446 29.952 C 45.796 29.418,46.888 28.626,47.872 28.193 C 48.856 27.759,50.271 26.921,51.014 26.331 C 53.405 24.435,58.399 22.195,61.836 21.480 C 63.643 21.103,65.520 20.638,66.009 20.446 C 66.530 20.241,115.290 20.097,184.332 20.097 L 301.767 20.097 302.776 21.295 L 303.785 22.494 303.680 82.648 L 303.575 142.802 302.667 144.251 C 302.168 145.048,301.606 145.700,301.419 145.700 C 301.231 145.700,299.814 146.968,298.268 148.518 C 295.104 151.691,294.335 152.236,291.594 153.241 C 290.531 153.631,289.470 154.093,289.236 154.269 C 286.462 156.352,275.895 154.017,271.790 150.414 C 271.136 149.841,270.260 149.111,269.842 148.792 C 268.854 148.038,266.248 145.902,264.861 144.709 C 264.260 144.192,263.659 143.769,263.526 143.769 C 263.393 143.768,262.922 142.942,262.480 141.932 C 262.038 140.923,261.173 139.569,260.558 138.924 C 259.162 137.459,258.722 136.619,258.390 134.780 C 258.246 133.982,257.539 132.329,256.819 131.109 C 256.087 129.867,255.257 127.697,254.936 126.184 C 254.620 124.696,253.902 122.000,253.339 120.193 C 252.776 118.386,252.044 115.865,251.711 114.589 C 250.682 110.643,247.222 109.295,244.007 111.588 C 238.594 115.449,239.866 139.710,245.989 149.377 C 246.664 150.442,247.773 152.481,248.454 153.907 C 249.164 155.397,250.549 157.375,251.706 158.555 C 252.813 159.685,254.255 161.211,254.910 161.947 C 255.564 162.683,256.851 163.894,257.768 164.638 C 259.509 166.050,262.855 168.926,263.188 169.297 C 263.295 169.416,263.990 169.749,264.734 170.037 C 265.478 170.326,266.348 170.751,266.667 170.982 C 267.590 171.649,270.472 172.989,273.816 174.304 L 276.908 175.521 284.251 175.345 C 291.511 175.171,291.638 175.153,295.459 173.776 C 297.585 173.009,299.695 172.379,300.149 172.375 C 301.112 172.366,302.979 171.614,303.785 170.910 C 304.095 170.640,305.391 169.729,306.667 168.886 C 311.130 165.935,313.453 164.045,314.500 162.515 C 315.081 161.666,315.804 160.709,316.108 160.389 C 318.480 157.891,321.614 151.339,322.117 147.826 C 322.563 144.712,322.644 134.718,322.674 79.020 L 322.705 22.194 324.194 21.049 L 325.683 19.903 331.537 20.000 C 334.757 20.053,339.957 20.159,343.092 20.236 M214.493 204.091 C 211.198 204.240,207.459 204.627,206.184 204.951 C 203.073 205.741,196.402 206.684,190.679 207.144 C 187.427 207.405,185.418 207.771,184.108 208.340 C 181.527 209.463,179.141 210.129,176.618 210.433 C 173.794 210.774,171.732 211.297,169.855 212.149 C 169.005 212.535,167.700 212.979,166.957 213.137 C 166.213 213.294,165.430 213.560,165.217 213.729 C 165.005 213.897,163.837 214.218,162.621 214.442 C 161.406 214.665,159.667 215.186,158.757 215.599 C 157.846 216.012,155.449 216.920,153.430 217.617 C 151.411 218.314,149.411 219.094,148.986 219.351 C 148.560 219.607,147.524 220.036,146.683 220.303 C 145.841 220.571,144.015 221.364,142.625 222.066 C 141.234 222.768,138.618 223.972,136.812 224.740 C 135.005 225.509,133.179 226.439,132.754 226.808 C 131.612 227.798,129.197 229.347,126.538 230.796 C 123.709 232.338,119.170 235.018,116.520 236.713 C 115.456 237.393,114.031 238.236,113.354 238.586 C 112.345 239.108,108.281 241.967,106.413 243.469 C 103.267 245.997,99.473 246.239,96.310 244.111 C 95.310 243.439,93.319 242.203,91.884 241.365 C 90.449 240.526,89.275 239.731,89.275 239.598 C 89.275 239.466,88.362 238.774,87.246 238.062 C 86.130 237.350,84.696 236.350,84.058 235.841 C 83.420 235.331,82.411 234.537,81.816 234.076 C 81.220 233.614,80.090 232.660,79.304 231.956 C 77.173 230.047,76.868 229.793,74.976 228.347 C 74.019 227.617,72.613 226.418,71.851 225.683 C 69.687 223.598,67.629 222.058,65.115 220.642 C 63.843 219.925,62.382 218.841,61.868 218.232 C 60.355 216.441,55.685 214.106,53.615 214.106 C 52.543 214.106,51.629 219.309,51.612 225.507 L 51.594 232.077 53.036 234.396 C 53.829 235.671,54.762 237.552,55.110 238.576 C 55.458 239.600,56.257 240.991,56.886 241.668 C 57.515 242.345,58.462 243.740,58.990 244.769 C 59.519 245.798,60.608 247.363,61.410 248.247 C 62.212 249.132,63.597 250.854,64.488 252.076 C 65.380 253.297,66.512 254.560,67.004 254.883 C 69.590 256.577,69.457 259.768,66.562 265.520 C 65.336 267.958,64.012 270.734,63.619 271.691 C 63.227 272.647,62.382 274.560,61.741 275.942 C 59.251 281.314,59.051 282.236,58.843 289.354 C 58.650 295.908,59.188 303.977,59.906 305.319 C 60.100 305.682,61.014 306.189,61.938 306.448 L 63.616 306.918 66.011 304.493 C 67.328 303.160,68.406 301.944,68.406 301.791 C 68.406 301.377,72.105 296.983,75.042 293.907 C 76.460 292.423,78.779 289.990,80.195 288.502 C 81.611 287.014,83.002 285.362,83.286 284.831 C 83.570 284.300,84.788 283.011,85.993 281.968 C 87.198 280.924,88.605 279.404,89.119 278.589 C 89.633 277.774,90.792 276.643,91.694 276.076 C 92.596 275.509,94.483 273.937,95.889 272.583 C 100.012 268.611,102.626 268.940,110.794 274.463 C 111.683 275.064,112.551 275.556,112.723 275.556 C 113.366 275.556,118.647 278.342,118.647 278.681 C 118.647 278.875,118.879 279.034,119.163 279.034 C 119.447 279.034,121.143 279.924,122.931 281.011 C 124.720 282.098,126.618 283.154,127.150 283.357 C 127.681 283.559,129.011 284.319,130.104 285.045 C 131.198 285.770,133.198 286.876,134.549 287.501 C 135.900 288.126,137.625 289.059,138.384 289.573 C 139.142 290.088,140.272 290.631,140.895 290.779 C 141.519 290.928,143.246 291.641,144.734 292.364 C 148.570 294.226,158.444 297.611,161.739 298.194 C 162.589 298.344,164.068 298.863,165.024 299.347 C 165.981 299.830,167.852 300.345,169.182 300.490 C 170.512 300.634,173.555 301.344,175.945 302.068 C 179.417 303.118,181.454 303.469,186.087 303.816 C 190.707 304.162,192.159 304.412,193.237 305.046 C 193.981 305.484,195.720 305.968,197.101 306.123 C 198.483 306.278,201.492 306.608,203.787 306.856 C 211.938 307.738,255.061 307.153,258.357 306.116 C 263.717 304.430,265.289 304.138,270.862 303.788 C 273.975 303.593,277.043 303.258,277.681 303.043 C 282.083 301.561,285.409 300.798,291.208 299.941 C 292.696 299.721,294.609 299.211,295.459 298.809 C 297.120 298.022,298.583 297.565,306.087 295.487 C 308.744 294.752,312.222 293.510,313.816 292.728 C 315.411 291.946,318.280 290.703,320.193 289.965 C 322.106 289.228,324.019 288.315,324.444 287.936 C 324.870 287.557,326.170 286.937,327.335 286.558 C 328.711 286.111,330.044 285.294,331.141 284.229 C 332.185 283.214,333.687 282.275,335.078 281.768 C 336.368 281.298,338.125 280.232,339.196 279.270 C 340.223 278.348,341.869 277.226,342.855 276.778 C 343.841 276.329,345.580 275.158,346.720 274.174 C 347.860 273.191,349.140 272.221,349.565 272.020 C 349.990 271.819,350.986 270.705,351.778 269.546 L 353.218 267.438 351.673 266.462 C 350.823 265.926,349.045 265.216,347.721 264.885 C 344.671 264.122,340.485 262.659,337.894 261.449 C 336.789 260.934,334.998 260.222,333.915 259.867 C 330.273 258.676,329.469 257.876,329.469 255.444 L 329.469 253.333 331.594 251.874 C 332.763 251.072,335.285 249.638,337.198 248.688 C 339.111 247.738,341.243 246.595,341.936 246.148 C 342.629 245.701,344.194 245.084,345.414 244.777 C 349.116 243.846,349.652 243.524,350.496 241.729 C 351.370 239.870,350.735 237.361,349.104 236.231 C 348.720 235.964,347.686 235.269,346.806 234.685 C 345.927 234.101,344.448 233.116,343.521 232.496 C 338.621 229.219,336.523 227.947,335.376 227.560 C 334.678 227.324,333.313 226.558,332.342 225.856 C 331.372 225.155,329.720 224.293,328.671 223.941 C 327.622 223.589,326.502 223.093,326.184 222.838 C 325.151 222.014,322.182 220.724,319.807 220.067 C 318.531 219.715,317.227 219.210,316.908 218.946 C 316.005 218.196,310.382 216.392,308.224 216.159 C 307.155 216.044,305.411 215.538,304.348 215.035 C 303.285 214.532,301.111 213.794,299.517 213.394 C 297.923 212.994,295.954 212.386,295.142 212.042 C 294.329 211.699,291.492 211.150,288.837 210.822 C 286.181 210.495,283.629 209.978,283.164 209.674 C 281.728 208.735,277.859 207.824,273.816 207.473 C 271.691 207.288,268.213 206.982,266.087 206.792 C 263.961 206.601,260.572 206.088,258.556 205.650 C 251.516 204.121,230.382 203.374,214.493 204.091 M245.178 206.388 C 246.262 206.561,248.280 206.884,249.662 207.105 C 255.135 207.979,259.083 208.313,266.860 208.557 C 274.517 208.797,275.035 208.861,276.024 209.682 C 276.712 210.254,278.038 210.709,279.889 211.007 C 281.438 211.257,283.314 211.621,284.058 211.816 C 284.802 212.010,285.900 212.171,286.497 212.172 C 287.612 212.174,291.289 213.224,291.981 213.738 C 292.359 214.020,297.111 215.006,300.022 215.408 C 300.889 215.527,302.036 216.087,302.814 216.771 C 303.845 217.676,304.652 217.989,306.485 218.196 C 307.777 218.342,309.477 218.801,310.262 219.214 C 312.149 220.208,315.395 221.271,318.261 221.834 C 319.536 222.085,321.188 222.682,321.932 223.160 C 324.630 224.897,325.249 225.195,327.112 225.657 C 328.197 225.927,329.662 226.688,330.539 227.439 C 331.382 228.161,332.577 228.862,333.195 228.997 C 333.813 229.133,334.801 229.651,335.392 230.148 C 335.983 230.645,337.466 231.509,338.688 232.068 C 339.910 232.627,341.004 233.332,341.120 233.634 C 341.236 233.936,342.184 234.707,343.226 235.349 C 344.268 235.990,345.121 236.665,345.121 236.848 C 345.121 237.032,345.556 237.651,346.087 238.224 C 347.801 240.074,345.751 242.994,341.803 244.327 C 340.562 244.746,338.931 245.573,338.179 246.165 C 337.427 246.757,335.769 247.542,334.494 247.910 C 333.047 248.328,331.569 249.109,330.558 249.990 C 329.668 250.766,328.407 251.805,327.755 252.300 C 325.394 254.091,326.237 257.873,329.498 260.117 C 330.407 260.742,331.384 261.488,331.671 261.774 C 331.957 262.061,333.144 262.605,334.308 262.983 C 335.473 263.362,337.660 264.258,339.170 264.975 C 340.680 265.693,342.767 266.382,343.808 266.508 C 347.328 266.934,348.960 267.705,347.826 268.406 C 347.614 268.537,347.440 269.069,347.440 269.588 C 347.440 270.107,347.084 270.836,346.650 271.208 C 346.216 271.580,345.273 272.439,344.554 273.117 C 343.240 274.356,340.780 275.659,338.827 276.149 C 338.250 276.294,337.778 276.546,337.778 276.709 C 337.778 276.872,336.536 277.658,335.019 278.456 C 333.501 279.253,331.545 280.649,330.671 281.557 C 329.633 282.636,328.512 283.362,327.440 283.649 C 326.536 283.890,325.797 284.255,325.797 284.459 C 325.797 284.664,325.597 284.831,325.351 284.831 C 325.106 284.831,323.802 285.353,322.452 285.990 C 321.102 286.628,319.846 287.150,319.660 287.150 C 319.474 287.150,319.125 287.387,318.884 287.678 C 318.643 287.968,317.361 288.433,316.034 288.712 C 313.638 289.216,311.026 290.267,309.179 291.473 C 308.647 291.819,307.169 292.308,305.894 292.558 C 304.618 292.807,302.514 293.521,301.218 294.143 C 299.921 294.765,297.488 295.633,295.811 296.072 C 294.134 296.511,292.586 296.995,292.371 297.147 C 291.706 297.617,287.852 298.660,285.217 299.083 C 277.533 300.318,276.963 300.456,275.920 301.334 C 274.942 302.157,274.378 302.252,269.309 302.450 C 263.138 302.691,255.408 303.804,252.754 304.833 C 249.845 305.961,207.800 306.058,204.494 304.944 C 203.220 304.515,200.470 303.980,198.383 303.755 C 196.297 303.530,194.068 303.195,193.430 303.011 C 192.792 302.826,190.467 302.564,188.262 302.428 C 185.425 302.253,183.517 301.903,181.729 301.230 C 179.076 300.231,171.501 298.744,169.067 298.744 C 168.037 298.744,167.277 298.427,166.342 297.606 C 165.061 296.481,162.926 295.659,161.279 295.654 C 160.813 295.653,160.334 295.493,160.213 295.298 C 159.972 294.907,156.526 293.744,152.665 292.751 C 151.287 292.397,149.134 291.505,147.880 290.770 C 146.626 290.036,144.362 289.146,142.849 288.793 C 141.307 288.433,139.726 287.796,139.254 287.344 C 138.397 286.522,137.673 286.104,135.266 285.041 C 134.522 284.713,133.082 283.924,132.066 283.289 C 131.050 282.654,129.785 282.026,129.255 281.893 C 128.725 281.760,128.077 281.345,127.816 280.972 C 127.554 280.599,125.950 279.554,124.250 278.650 C 122.550 277.747,121.072 276.880,120.966 276.724 C 120.860 276.568,120.077 276.220,119.227 275.951 C 118.377 275.682,117.516 275.309,117.314 275.122 C 117.112 274.936,116.640 274.783,116.265 274.783 C 115.889 274.783,114.980 274.254,114.245 273.608 C 113.509 272.962,111.942 272.041,110.764 271.561 C 109.585 271.082,108.192 270.317,107.668 269.861 C 104.670 267.255,97.503 267.101,95.431 269.599 C 95.127 269.965,93.227 271.572,91.208 273.171 C 89.188 274.770,87.378 276.352,87.184 276.687 C 86.990 277.021,86.034 278.091,85.058 279.064 C 84.083 280.037,82.937 281.329,82.512 281.935 C 81.376 283.555,80.303 284.553,78.879 285.316 C 78.178 285.691,77.418 286.510,77.176 287.151 C 76.935 287.788,76.593 288.309,76.415 288.309 C 76.237 288.309,75.746 289.091,75.323 290.048 C 74.890 291.026,74.097 292.035,73.509 292.356 C 72.934 292.669,71.507 293.983,70.338 295.276 C 69.169 296.569,67.473 298.388,66.570 299.318 C 65.667 300.249,64.928 301.174,64.928 301.376 C 64.928 302.000,63.960 302.580,63.447 302.262 C 62.788 301.856,60.294 291.674,60.291 289.386 C 60.290 287.263,63.359 278.343,64.718 276.522 C 65.194 275.884,65.808 274.406,66.082 273.237 C 66.356 272.068,67.232 269.807,68.028 268.213 C 70.122 264.019,71.936 257.322,71.115 256.814 C 70.933 256.702,70.673 256.104,70.537 255.486 C 70.402 254.869,69.823 253.920,69.252 253.379 C 66.594 250.861,63.013 246.940,62.518 246.007 C 62.288 245.573,61.791 244.998,61.413 244.730 C 61.035 244.462,60.344 243.477,59.877 242.543 C 59.410 241.608,58.563 240.499,57.994 240.078 C 57.266 239.540,56.760 238.588,56.281 236.855 C 55.126 232.671,54.783 231.724,54.064 230.725 C 53.311 229.677,53.119 227.646,53.252 222.126 L 53.333 218.744 55.284 218.744 C 56.888 218.744,57.386 218.918,58.086 219.720 C 58.563 220.267,60.093 221.097,61.568 221.609 C 63.015 222.111,64.407 222.784,64.660 223.103 C 64.913 223.423,65.816 224.126,66.667 224.666 C 67.517 225.206,69.430 226.803,70.918 228.215 C 72.406 229.626,74.339 231.331,75.214 232.003 C 76.089 232.676,77.075 233.695,77.404 234.269 C 77.787 234.937,78.580 235.485,79.607 235.792 C 80.694 236.118,81.391 236.621,81.769 237.352 C 82.076 237.946,82.713 238.638,83.184 238.890 C 83.656 239.142,84.848 239.986,85.834 240.766 C 86.820 241.545,88.215 242.416,88.934 242.702 C 89.653 242.987,90.974 243.807,91.869 244.522 C 92.764 245.238,94.068 246.089,94.767 246.413 C 95.467 246.738,96.473 247.251,97.005 247.554 C 99.855 249.179,106.810 247.042,111.005 243.253 C 111.808 242.526,112.648 241.932,112.870 241.932 C 113.093 241.932,114.266 241.263,115.478 240.444 C 118.478 238.417,121.560 236.577,123.804 235.474 C 124.833 234.967,126.022 234.230,126.446 233.835 C 126.870 233.440,128.333 232.567,129.696 231.896 C 131.059 231.225,132.174 230.551,132.174 230.397 C 132.174 230.244,132.739 229.786,133.430 229.380 C 134.121 228.974,134.899 228.432,135.159 228.175 C 136.203 227.144,138.406 226.039,141.299 225.094 C 142.976 224.547,144.869 223.710,145.507 223.233 C 146.145 222.757,148.527 221.880,150.800 221.284 C 153.074 220.688,155.421 219.942,156.018 219.625 C 156.614 219.308,158.493 218.713,160.193 218.301 C 162.277 217.797,163.761 217.172,164.745 216.382 C 165.801 215.536,167.033 215.046,169.190 214.614 C 170.886 214.274,172.674 213.643,173.333 213.152 C 174.653 212.167,175.717 211.921,180.870 211.408 C 185.636 210.934,186.172 210.784,187.244 209.628 C 188.104 208.700,188.415 208.645,194.651 208.309 C 201.854 207.921,212.990 206.915,214.493 206.516 C 217.690 205.669,240.094 205.575,245.178 206.388 M279.807 229.803 C 276.410 230.361,274.321 231.290,273.121 232.777 C 272.441 233.620,271.217 235.096,270.402 236.057 C 268.498 238.301,268.275 238.938,267.820 243.427 C 267.613 245.474,267.248 247.932,267.010 248.889 C 266.361 251.491,267.950 256.464,270.350 259.349 C 274.131 263.892,275.105 264.402,280.450 264.633 C 290.885 265.084,297.971 258.377,297.971 248.050 C 297.971 242.736,297.963 242.704,295.128 236.956 C 292.743 232.119,285.706 228.834,279.807 229.803 M287.150 232.720 C 288.106 233.157,289.150 233.761,289.469 234.061 C 289.787 234.361,290.539 234.972,291.138 235.420 C 292.069 236.116,294.493 240.513,294.493 241.508 C 294.493 241.689,294.765 242.064,295.099 242.340 C 296.144 243.208,295.425 250.924,293.975 254.396 C 293.731 254.981,293.400 255.459,293.239 255.459 C 293.078 255.459,292.947 255.716,292.947 256.030 C 292.947 260.416,280.138 264.507,275.746 261.523 C 274.338 260.566,271.304 256.980,271.304 256.273 C 271.304 256.038,271.158 255.845,270.980 255.845 C 268.759 255.845,268.335 243.613,270.442 240.368 C 270.810 239.802,271.681 238.462,272.376 237.389 C 275.636 232.367,281.989 230.359,287.150 232.720 " stroke="none" fill="#facdc4" fill-rule="evenodd"></path><path id="path4" d="M67.826 21.991 C 66.353 22.138,64.820 22.610,63.623 23.285 C 62.586 23.870,61.489 24.348,61.185 24.348 C 60.874 24.348,60.748 24.538,60.898 24.781 C 61.181 25.238,67.163 25.029,74.010 24.323 C 75.923 24.125,79.053 23.860,80.966 23.733 C 82.879 23.607,127.749 23.453,180.676 23.391 C 233.604 23.329,277.778 23.259,278.841 23.234 C 279.996 23.208,282.249 23.644,284.444 24.318 C 286.464 24.939,288.766 25.554,289.560 25.686 C 296.568 26.853,298.749 29.915,298.746 38.583 C 298.744 42.941,298.916 44.796,299.551 47.279 C 300.203 49.828,300.311 51.067,300.111 53.720 C 299.976 55.527,299.712 70.483,299.526 86.957 C 299.340 103.430,299.015 118.386,298.803 120.193 C 298.592 122.000,298.405 126.128,298.388 129.366 C 298.359 134.871,297.835 138.744,297.118 138.744 C 296.949 138.744,296.808 139.048,296.803 139.420 C 296.735 144.838,282.481 151.044,275.942 148.502 C 273.280 147.467,270.775 145.548,269.936 143.902 C 269.519 143.084,269.048 142.357,268.889 142.287 C 268.729 142.216,268.599 141.942,268.599 141.678 C 268.599 141.415,267.994 140.342,267.254 139.295 C 265.310 136.545,265.276 136.492,263.514 133.527 C 262.629 132.039,261.791 130.734,261.651 130.628 C 260.968 130.109,258.537 125.614,258.202 124.251 C 257.993 123.401,257.642 122.010,257.422 121.159 C 257.203 120.309,257.019 118.728,257.014 117.646 C 257.005 115.701,255.076 110.918,254.301 110.918 C 254.122 110.918,253.677 110.803,253.312 110.663 C 252.364 110.299,252.853 113.561,254.123 116.070 C 254.642 117.096,255.245 119.096,255.463 120.514 C 256.138 124.920,256.726 126.925,257.592 127.784 C 258.639 128.822,259.962 132.172,260.288 134.610 C 260.474 135.995,260.750 136.566,261.379 136.860 C 261.843 137.076,263.162 138.632,264.311 140.317 C 265.460 142.002,267.025 143.853,267.789 144.430 C 268.554 145.008,269.700 145.966,270.338 146.560 C 275.092 150.988,275.918 151.481,279.807 152.205 C 284.167 153.018,284.689 153.036,286.772 152.441 C 287.936 152.109,289.585 151.698,290.435 151.527 C 293.693 150.873,294.731 149.999,296.927 146.059 C 297.451 145.118,298.252 144.156,298.706 143.922 C 302.576 141.926,302.271 147.598,302.141 80.193 L 302.029 22.222 287.729 21.986 C 269.312 21.681,70.888 21.686,67.826 21.991 M328.697 21.909 C 326.997 21.995,325.432 22.239,325.219 22.453 C 324.964 22.707,324.765 44.556,324.638 86.106 L 324.444 149.372 323.613 151.111 C 323.156 152.068,322.226 154.297,321.546 156.066 C 320.866 157.834,320.059 159.377,319.752 159.495 C 319.445 159.613,318.869 160.340,318.471 161.110 C 317.366 163.255,314.980 165.831,313.452 166.532 C 312.696 166.879,311.469 167.745,310.725 168.456 C 308.126 170.940,304.218 173.137,301.313 173.749 C 299.811 174.064,298.482 174.485,298.360 174.682 C 297.283 176.425,293.645 177.133,285.604 177.168 C 278.143 177.201,276.544 177.105,273.237 176.428 C 271.167 176.004,276.586 181.234,278.940 181.932 C 281.782 182.776,287.136 181.659,292.066 179.194 C 293.507 178.474,295.382 177.672,296.232 177.411 C 297.082 177.151,298.326 176.692,298.996 176.392 C 299.665 176.091,300.448 175.843,300.735 175.840 C 301.318 175.833,303.743 175.014,304.364 174.613 C 304.585 174.471,305.976 174.075,307.455 173.734 C 310.190 173.104,314.589 171.295,314.589 170.800 C 314.589 170.651,315.081 170.325,315.681 170.076 C 319.446 168.517,321.633 165.011,322.933 158.454 C 323.823 153.959,324.837 150.284,325.438 149.372 C 327.228 146.655,328.192 135.437,326.966 131.594 C 326.763 130.957,326.407 128.186,326.176 125.437 C 325.945 122.688,325.673 120.306,325.573 120.143 C 325.160 119.476,325.425 112.833,325.977 110.014 C 326.889 105.353,326.844 63.388,325.919 56.325 C 325.297 51.575,325.299 51.227,325.975 48.514 C 326.849 45.003,326.897 43.003,326.226 38.068 C 325.255 30.924,325.576 29.601,329.135 26.108 C 331.523 23.765,338.333 22.785,344.232 23.937 C 345.252 24.136,347.375 24.397,348.949 24.518 C 351.838 24.739,354.651 25.335,355.362 25.877 C 355.575 26.039,356.856 26.540,358.210 26.989 C 359.820 27.524,361.308 28.379,362.509 29.459 C 363.519 30.368,364.960 31.594,365.712 32.184 C 366.463 32.775,367.746 34.295,368.563 35.563 C 369.380 36.830,370.245 37.869,370.485 37.871 C 370.866 37.874,373.967 41.172,375.652 43.366 C 375.971 43.781,376.754 44.769,377.391 45.561 C 378.029 46.353,378.881 47.686,379.284 48.524 C 379.687 49.363,380.168 50.309,380.352 50.628 C 380.537 50.947,380.867 51.660,381.086 52.213 C 381.305 52.766,381.829 53.810,382.249 54.532 C 384.827 58.963,384.581 50.036,384.579 139.038 C 384.578 192.992,384.708 219.627,384.981 221.063 C 385.263 222.547,385.261 224.238,384.975 226.667 C 383.697 237.515,383.623 239.938,384.382 245.990 C 385.199 252.510,385.386 266.467,384.731 272.077 C 384.246 276.236,384.358 286.905,384.942 292.077 C 385.284 295.113,385.279 297.640,384.918 302.898 C 384.473 309.386,384.598 323.875,385.161 331.171 C 385.524 335.873,383.106 342.470,379.864 345.618 C 379.036 346.423,378.357 347.324,378.357 347.620 C 378.357 347.915,378.070 348.445,377.718 348.797 C 377.130 349.384,376.875 353.042,377.386 353.553 C 377.478 353.646,377.300 354.212,376.989 354.812 C 376.679 355.413,376.425 356.242,376.425 356.654 C 376.425 357.067,376.164 357.505,375.845 357.628 C 375.527 357.750,375.266 358.082,375.266 358.366 C 375.266 358.983,372.233 362.124,371.631 362.130 C 371.398 362.133,370.483 362.785,369.596 363.580 C 366.443 366.406,361.623 369.469,360.327 369.469 C 360.041 369.469,359.807 369.643,359.807 369.855 C 359.807 370.068,359.541 370.242,359.215 370.242 C 358.890 370.242,357.542 370.701,356.220 371.261 C 354.898 371.822,352.599 372.507,351.111 372.783 C 349.623 373.059,347.170 373.554,345.660 373.882 C 344.150 374.211,341.676 374.655,340.162 374.870 C 337.824 375.202,259.907 375.280,70.145 375.141 C 66.744 375.138,63.582 375.201,63.119 375.281 C 62.250 375.431,62.271 376.039,63.145 376.039 C 63.415 376.039,64.419 376.558,65.377 377.192 L 67.118 378.345 209.153 378.364 C 304.617 378.377,351.526 378.254,352.222 377.989 C 352.791 377.773,353.633 377.246,354.092 376.817 C 354.552 376.389,355.113 376.033,355.339 376.027 C 355.564 376.020,356.788 375.498,358.058 374.867 C 359.647 374.078,360.942 373.720,362.212 373.720 C 363.227 373.720,364.058 373.565,364.058 373.375 C 364.058 373.186,364.711 372.769,365.510 372.450 C 366.308 372.130,367.566 371.251,368.305 370.495 C 369.044 369.739,370.004 369.031,370.439 368.922 C 371.295 368.707,374.282 365.416,375.480 363.366 C 375.889 362.666,376.623 361.994,377.111 361.871 C 377.599 361.749,378.273 361.104,378.608 360.438 C 378.944 359.772,379.617 358.792,380.103 358.261 C 380.925 357.363,382.222 354.213,382.222 353.116 C 382.222 352.852,382.700 352.112,383.285 351.471 C 384.894 349.707,385.253 348.603,385.711 344.023 C 385.942 341.711,386.436 338.357,386.809 336.568 C 387.391 333.773,387.417 333.048,386.990 331.393 C 386.592 329.846,386.495 303.614,386.499 197.488 C 386.503 46.815,386.587 51.024,383.545 48.609 C 383.083 48.242,381.977 46.590,381.088 44.937 C 378.258 39.681,377.956 39.232,376.786 38.561 C 376.155 38.199,375.521 37.592,375.377 37.212 C 375.233 36.832,373.786 35.214,372.160 33.615 C 370.534 32.017,368.998 30.323,368.746 29.852 C 368.493 29.380,367.814 28.893,367.235 28.769 C 364.377 28.157,362.244 27.312,361.546 26.515 C 360.946 25.830,359.940 25.487,357.060 24.986 C 354.681 24.573,352.458 23.896,350.876 23.104 L 348.406 21.867 340.097 21.810 C 335.527 21.779,330.397 21.823,328.697 21.909 M58.357 25.094 C 56.603 25.445,55.398 26.100,53.667 27.648 C 52.893 28.340,51.719 29.024,51.058 29.169 C 50.396 29.315,49.855 29.575,49.855 29.748 C 49.855 29.920,48.986 30.725,47.923 31.535 C 46.860 32.346,45.990 33.232,45.990 33.504 C 45.990 33.776,45.251 34.479,44.348 35.067 C 43.444 35.655,42.636 36.299,42.552 36.498 C 42.468 36.698,41.642 37.651,40.716 38.617 C 39.791 39.583,39.034 40.561,39.034 40.791 C 39.034 41.020,38.506 41.713,37.862 42.331 C 36.588 43.552,35.050 46.000,34.594 47.536 C 34.436 48.068,33.979 48.862,33.577 49.302 C 31.249 51.851,31.358 46.374,31.229 167.729 C 31.056 329.888,31.276 347.017,33.567 350.145 C 33.956 350.676,34.931 352.329,35.733 353.816 C 36.535 355.304,37.507 356.967,37.894 357.511 C 38.280 358.056,38.714 358.973,38.859 359.549 C 39.003 360.125,39.685 361.070,40.374 361.651 C 41.063 362.231,41.914 363.155,42.265 363.704 C 42.616 364.254,43.352 364.943,43.900 365.236 C 44.448 365.530,45.146 366.252,45.452 366.842 C 45.757 367.432,46.655 368.246,47.448 368.651 C 48.240 369.055,49.220 369.753,49.625 370.200 C 50.030 370.648,50.552 371.017,50.785 371.021 C 51.017 371.025,52.164 371.542,53.333 372.171 C 58.197 374.789,59.106 374.987,57.629 373.108 C 57.179 372.537,56.812 371.844,56.812 371.569 C 56.812 370.721,51.686 365.605,50.048 364.819 C 47.208 363.454,45.921 362.578,44.889 361.305 C 44.326 360.611,43.572 359.740,43.214 359.371 C 42.856 359.001,42.249 358.209,41.865 357.610 C 41.481 357.012,40.613 355.786,39.936 354.888 C 39.160 353.856,38.544 352.431,38.268 351.023 C 38.028 349.796,37.671 348.357,37.476 347.826 C 37.281 347.295,37.042 346.385,36.945 345.803 C 36.848 345.222,36.672 344.591,36.554 344.399 C 36.435 344.208,36.235 343.401,36.109 342.605 C 35.982 341.809,35.796 340.789,35.696 340.337 C 35.595 339.886,35.355 338.647,35.163 337.585 C 34.632 334.644,34.119 332.391,33.446 330.048 C 32.914 328.193,32.849 324.801,32.942 303.382 L 33.048 278.841 33.946 277.218 C 35.294 274.782,35.513 271.964,34.916 264.757 C 34.624 261.237,34.210 256.271,33.996 253.720 C 33.283 245.212,33.088 231.531,33.620 227.391 C 34.218 222.746,34.195 208.991,33.588 207.857 C 32.990 206.740,32.782 192.442,33.287 187.246 C 34.080 179.100,34.268 167.422,33.635 165.648 C 33.149 164.287,33.050 156.642,32.943 112.464 C 32.811 57.506,32.757 59.215,34.751 55.266 C 35.341 54.097,36.125 52.227,36.493 51.111 C 36.862 49.995,37.302 49.082,37.472 49.082 C 37.642 49.082,37.992 48.572,38.250 47.949 C 38.508 47.325,39.529 45.955,40.519 44.905 C 41.509 43.854,43.451 41.799,44.834 40.338 C 46.217 38.877,47.956 36.903,48.699 35.952 C 49.441 35.000,50.483 33.870,51.014 33.440 C 52.635 32.125,56.425 28.285,56.432 27.949 C 56.442 27.452,58.365 25.747,59.476 25.249 C 60.612 24.739,60.326 24.700,58.357 25.094 M240.064 111.832 C 236.326 113.906,234.515 128.908,237.258 135.072 C 239.269 139.591,240.122 140.889,239.800 138.937 C 239.659 138.087,239.409 137.217,239.244 137.005 C 236.998 134.119,236.961 116.329,239.201 116.329 C 239.499 116.329,239.817 115.517,240.984 111.787 C 241.165 111.208,241.191 111.207,240.064 111.832 M243.286 150.821 C 243.613 151.751,243.858 153.652,244.114 157.254 C 244.343 160.457,244.485 160.980,245.320 161.698 C 245.841 162.146,247.707 163.903,249.466 165.604 C 251.226 167.304,252.903 168.870,253.193 169.082 C 255.457 170.742,257.282 171.736,260.258 172.930 C 262.154 173.691,263.893 174.468,264.123 174.658 C 265.030 175.407,270.240 175.949,270.024 175.273 C 269.897 174.872,269.161 174.468,264.778 172.388 C 261.825 170.986,259.048 168.968,258.715 167.981 C 258.583 167.587,257.743 166.942,256.850 166.547 C 254.918 165.693,251.208 162.252,251.208 161.315 C 251.208 160.951,250.546 160.088,249.738 159.395 C 248.658 158.471,248.068 157.514,247.518 155.791 C 246.932 153.958,246.539 153.351,245.717 153.010 C 245.139 152.771,244.443 152.072,244.171 151.457 C 243.694 150.378,242.940 149.837,243.286 150.821 M211.014 199.482 C 200.718 199.849,196.377 200.512,191.369 202.487 C 190.255 202.926,189.062 203.285,188.719 203.285 C 188.375 203.285,186.974 203.814,185.604 204.462 C 184.234 205.109,182.565 205.742,181.895 205.869 C 181.225 205.995,180.502 206.228,180.290 206.387 C 180.077 206.545,177.729 206.875,175.072 207.120 C 172.415 207.365,169.546 207.656,168.696 207.765 C 167.845 207.875,165.932 208.062,164.444 208.182 C 162.957 208.301,160.522 208.730,159.034 209.134 C 157.546 209.538,155.320 210.126,154.087 210.441 C 150.644 211.322,146.860 213.886,146.860 215.339 C 146.860 215.533,146.208 215.954,145.411 216.276 C 144.614 216.597,143.440 217.091,142.802 217.372 C 142.164 217.654,141.208 218.011,140.676 218.164 C 140.145 218.318,139.188 218.666,138.551 218.939 C 137.913 219.211,136.087 219.726,134.493 220.083 C 129.804 221.132,126.247 223.149,123.754 226.174 C 122.415 227.798,121.849 228.264,120.193 229.113 C 119.449 229.494,118.493 229.997,118.068 230.231 C 117.643 230.464,116.258 231.150,114.992 231.753 C 112.875 232.762,110.748 234.550,108.792 236.966 C 107.530 238.525,105.708 239.609,104.691 239.404 C 103.646 239.195,102.461 238.987,99.130 238.429 C 96.510 237.991,96.502 237.988,91.892 235.802 C 88.852 234.361,82.705 229.407,82.705 228.398 C 82.705 227.256,75.762 220.481,73.998 219.902 C 73.154 219.625,71.855 219.029,71.111 218.579 C 69.127 217.377,67.050 216.749,65.959 217.023 C 64.615 217.360,65.698 219.321,67.574 219.945 C 68.779 220.345,70.259 221.506,73.195 224.353 C 73.856 224.993,75.353 226.209,76.522 227.056 C 78.882 228.764,80.450 230.109,82.948 232.569 C 83.880 233.486,85.159 234.326,85.826 234.460 C 86.486 234.592,87.576 235.247,88.248 235.915 C 90.259 237.917,93.275 240.264,94.211 240.556 C 94.693 240.707,95.907 241.455,96.908 242.219 C 99.671 244.328,101.780 244.415,103.792 242.505 C 104.629 241.711,106.010 240.755,106.860 240.381 C 107.710 240.008,108.909 239.169,109.523 238.517 C 110.137 237.866,111.139 237.223,111.748 237.089 C 112.358 236.955,113.013 236.555,113.203 236.200 C 113.589 235.483,117.416 233.430,118.368 233.430 C 118.703 233.430,119.295 233.029,119.682 232.540 C 120.454 231.565,126.876 227.813,128.450 227.418 C 128.991 227.282,129.920 226.611,130.514 225.927 C 131.916 224.312,132.107 224.212,134.738 223.726 C 136.291 223.439,137.396 222.941,138.411 222.073 C 139.209 221.389,140.872 220.517,142.105 220.133 C 143.339 219.750,144.696 219.127,145.121 218.749 C 146.221 217.770,147.914 216.997,150.145 216.454 C 151.208 216.196,153.423 215.312,155.069 214.490 C 156.714 213.668,158.888 212.884,159.900 212.749 C 161.473 212.537,163.531 211.986,170.628 209.875 C 171.266 209.685,173.092 209.411,174.686 209.266 C 176.756 209.077,177.819 208.786,178.406 208.247 C 179.703 207.054,182.959 206.348,188.599 206.037 C 192.631 205.814,194.060 205.589,194.885 205.048 C 197.905 203.070,215.653 202.278,244.058 202.855 C 261.395 203.207,262.974 203.358,264.525 204.816 C 265.225 205.474,266.207 205.652,270.937 205.984 C 274.009 206.199,277.304 206.469,278.261 206.584 C 279.217 206.698,280.738 206.883,281.641 206.994 C 282.572 207.109,283.761 207.600,284.390 208.130 C 285.273 208.872,286.229 209.145,289.074 209.468 C 291.849 209.782,299.781 209.905,299.398 209.628 C 298.091 208.682,294.763 207.300,291.514 206.353 C 289.223 205.686,286.825 204.853,286.186 204.502 C 285.230 203.978,283.315 203.825,275.362 203.641 L 265.700 203.418 261.256 201.966 C 252.788 199.199,238.622 198.498,211.014 199.482 M301.449 211.305 C 301.449 212.430,304.203 213.333,307.630 213.333 C 309.210 213.333,314.500 214.773,315.503 215.476 C 316.450 216.139,317.062 216.213,316.695 215.620 C 316.098 214.654,307.976 211.703,302.512 210.467 C 301.549 210.249,301.449 210.328,301.449 211.305 M50.866 213.513 C 50.522 214.037,50.241 214.776,50.241 215.155 C 50.241 215.535,49.632 216.529,48.889 217.365 C 48.145 218.201,47.536 219.014,47.536 219.173 C 47.536 219.332,47.232 219.766,46.860 220.138 C 46.090 220.908,45.841 228.962,46.571 229.483 C 46.783 229.635,46.981 229.932,47.010 230.145 C 47.138 231.071,49.216 239.193,49.729 240.773 C 51.710 246.873,54.288 250.779,57.101 251.942 C 57.792 252.227,58.357 252.576,58.357 252.717 C 58.357 252.858,58.847 253.263,59.446 253.616 C 63.438 255.975,63.379 263.406,59.305 271.111 C 57.634 274.273,56.548 276.380,55.967 277.589 C 55.787 277.964,55.377 280.225,55.057 282.613 C 54.736 285.002,54.313 288.087,54.117 289.469 C 53.389 294.593,55.590 306.085,57.300 306.087 C 57.785 306.088,57.150 300.012,56.477 298.215 C 55.480 295.549,55.456 294.822,56.313 293.218 C 56.824 292.260,57.032 290.496,57.232 285.411 C 57.501 278.553,58.410 274.904,60.000 274.293 C 60.318 274.171,60.697 273.405,60.841 272.591 C 61.128 270.971,62.870 267.089,63.586 266.473 C 63.833 266.261,64.269 265.478,64.554 264.734 C 64.840 263.990,65.442 262.773,65.893 262.029 C 67.276 259.746,66.812 257.567,64.536 255.652 C 62.643 254.061,61.063 251.786,61.063 250.652 C 61.063 250.290,60.575 249.838,59.947 249.619 C 59.135 249.336,58.656 248.771,58.187 247.541 C 57.832 246.612,56.952 245.106,56.231 244.196 C 55.511 243.285,54.628 241.751,54.271 240.787 C 53.913 239.823,53.140 238.512,52.554 237.874 C 49.987 235.083,48.753 230.338,49.380 225.667 C 50.191 219.624,51.099 214.555,51.609 213.237 C 51.987 212.259,51.591 212.406,50.866 213.513 M321.159 217.698 C 321.159 218.077,323.689 219.360,325.411 219.853 C 326.367 220.127,327.776 220.757,328.541 221.254 C 329.306 221.750,330.693 222.384,331.624 222.663 C 332.554 222.942,333.933 223.788,334.688 224.544 C 335.444 225.299,337.013 226.414,338.176 227.022 C 339.339 227.629,340.973 228.711,341.809 229.426 C 342.644 230.140,343.517 230.725,343.748 230.725 C 343.979 230.725,344.837 231.179,345.654 231.734 C 346.472 232.290,348.058 233.227,349.179 233.817 L 351.218 234.889 350.833 233.495 C 350.111 230.878,347.299 228.387,342.415 226.038 C 339.770 224.765,339.257 224.594,337.581 224.430 C 335.571 224.232,333.978 223.348,332.137 221.410 C 331.612 220.858,330.449 220.188,329.553 219.922 C 328.656 219.655,327.488 219.216,326.957 218.946 C 326.425 218.676,325.142 218.332,324.105 218.182 C 323.068 218.032,321.981 217.817,321.690 217.705 C 321.398 217.593,321.159 217.590,321.159 217.698 M280.815 234.135 C 280.707 234.310,279.911 234.686,279.047 234.971 C 277.172 235.590,274.500 238.028,273.260 240.251 C 272.768 241.133,271.959 242.072,271.463 242.337 C 269.400 243.442,269.718 249.316,272.066 253.459 C 272.922 254.971,273.625 256.344,273.626 256.510 C 273.628 256.676,274.411 257.502,275.365 258.345 C 276.320 259.188,277.101 260.102,277.101 260.374 C 277.101 261.333,283.779 261.030,285.349 260.000 C 286.078 259.522,287.198 258.845,287.838 258.496 C 288.477 258.146,289.236 257.411,289.524 256.862 C 289.812 256.313,290.531 255.192,291.121 254.370 C 292.059 253.065,292.241 252.331,292.576 248.518 C 292.786 246.120,293.041 244.025,293.142 243.861 C 293.442 243.376,291.686 239.464,290.918 238.904 C 290.528 238.620,289.780 237.707,289.254 236.875 C 288.729 236.043,288.119 235.362,287.899 235.362 C 287.679 235.362,286.779 235.014,285.899 234.589 C 284.297 233.815,281.185 233.537,280.815 234.135 M283.953 238.111 C 288.963 240.551,290.619 245.932,287.809 250.636 C 285.618 254.305,282.669 256.087,279.551 255.627 C 276.935 255.242,276.193 254.339,275.214 250.348 L 274.387 246.976 275.185 243.971 C 277.010 237.102,279.064 235.729,283.953 238.111 M348.986 245.666 C 345.797 245.976,343.203 246.687,343.007 247.305 C 342.801 247.955,341.320 248.820,338.937 249.682 C 338.193 249.951,337.324 250.477,337.005 250.850 C 336.300 251.674,333.710 253.140,332.958 253.140 C 332.245 253.140,332.128 253.382,331.823 255.487 C 331.527 257.532,331.953 257.885,335.312 258.379 C 337.713 258.732,338.932 259.189,339.908 260.103 C 340.336 260.504,341.640 261.085,342.807 261.394 C 343.973 261.704,345.275 262.072,345.700 262.213 C 346.379 262.438,346.365 262.383,345.588 261.766 C 345.101 261.379,343.995 260.496,343.131 259.803 C 342.267 259.110,341.284 258.388,340.946 258.199 C 340.001 257.670,341.450 253.590,342.693 253.278 C 343.178 253.156,343.575 252.901,343.575 252.712 C 343.575 252.522,343.784 252.367,344.039 252.367 C 344.294 252.367,345.120 251.753,345.875 251.002 C 346.629 250.251,347.966 249.031,348.845 248.291 C 350.217 247.136,351.365 245.284,350.592 245.472 C 350.452 245.506,349.729 245.594,348.986 245.666 M353.406 271.339 C 352.781 271.995,351.559 272.952,350.690 273.465 C 349.820 273.978,348.919 274.813,348.688 275.322 C 348.441 275.863,347.386 276.664,346.144 277.251 C 344.977 277.803,343.704 278.648,343.316 279.128 C 341.098 281.868,339.023 283.050,334.073 284.395 C 333.055 284.671,332.349 285.142,332.086 285.720 C 331.679 286.613,325.580 290.014,322.688 290.960 C 321.026 291.504,313.871 295.107,313.051 295.812 C 312.141 296.597,308.826 297.584,307.081 297.591 C 304.948 297.599,301.186 298.518,300.373 299.229 C 299.134 300.313,295.108 301.375,291.252 301.634 C 288.254 301.835,287.196 302.064,286.338 302.699 C 284.735 303.884,281.229 304.502,273.646 304.938 C 268.134 305.254,266.673 305.462,265.631 306.077 C 262.451 307.953,259.679 308.145,233.623 308.288 C 202.011 308.462,192.346 308.004,191.699 306.302 C 191.380 305.463,191.122 305.417,185.298 305.151 C 178.853 304.856,172.621 303.861,170.504 302.788 C 168.969 302.011,165.429 301.151,161.807 300.677 C 158.588 300.255,156.654 299.646,156.397 298.975 C 156.290 298.698,155.101 298.258,153.754 297.997 C 150.486 297.365,147.464 296.353,145.160 295.119 C 144.119 294.562,143.057 294.106,142.802 294.106 C 142.262 294.106,138.643 292.233,138.357 291.806 C 138.000 291.270,136.629 290.720,134.971 290.445 C 133.912 290.269,132.916 289.765,132.183 289.032 C 131.556 288.405,130.284 287.556,129.356 287.146 C 128.428 286.735,127.248 286.075,126.733 285.678 C 126.218 285.281,124.754 284.468,123.478 283.872 C 122.203 283.275,120.621 282.377,119.964 281.877 C 119.306 281.376,118.563 280.966,118.313 280.966 C 117.711 280.966,114.918 279.191,114.518 278.554 C 114.134 277.941,112.297 277.101,111.342 277.101 C 110.957 277.101,109.878 276.528,108.944 275.828 C 102.920 271.310,98.040 271.104,96.491 275.302 C 96.346 275.695,95.881 276.106,95.457 276.217 C 95.033 276.328,94.686 276.559,94.686 276.730 C 94.686 276.901,94.102 277.234,93.388 277.470 C 92.408 277.793,91.825 278.391,91.005 279.915 C 89.959 281.859,88.063 284.058,87.432 284.058 C 86.969 284.058,84.217 286.816,83.483 288.014 C 83.128 288.595,82.111 289.597,81.225 290.239 C 80.339 290.881,79.614 291.579,79.614 291.790 C 79.614 292.001,78.266 293.548,76.618 295.228 C 72.738 299.184,70.217 302.072,69.902 302.925 C 69.764 303.299,69.200 304.033,68.648 304.556 C 67.185 305.945,67.362 306.408,69.348 306.378 C 71.597 306.344,74.423 303.776,78.681 297.898 C 79.499 296.769,80.260 295.758,80.374 295.652 C 80.487 295.546,81.259 294.614,82.089 293.582 C 82.919 292.549,84.832 290.785,86.340 289.660 C 89.582 287.244,91.641 285.142,92.568 283.304 C 92.938 282.570,93.435 281.775,93.673 281.537 C 93.911 281.298,94.628 280.447,95.266 279.645 C 98.202 275.953,106.682 275.179,110.068 278.294 C 110.642 278.822,112.068 279.937,113.237 280.773 C 114.406 281.609,115.449 282.401,115.556 282.534 C 115.662 282.666,117.140 283.443,118.841 284.261 C 120.541 285.078,122.019 285.854,122.126 285.985 C 122.657 286.640,127.018 288.774,128.798 289.250 C 132.483 290.236,136.975 292.245,140.483 294.478 C 143.751 296.557,149.461 299.545,151.232 300.101 C 152.335 300.448,153.585 300.884,154.010 301.070 C 154.435 301.256,156.087 301.694,157.681 302.044 C 159.275 302.393,160.928 302.821,161.353 302.993 C 166.687 305.156,169.606 305.991,172.636 306.220 C 173.953 306.320,175.171 306.488,175.342 306.593 C 175.512 306.698,178.174 307.068,181.256 307.414 C 186.214 307.972,193.011 309.085,199.388 310.383 C 206.240 311.777,268.045 311.537,272.413 310.099 C 274.166 309.522,275.609 308.845,275.942 308.444 C 276.910 307.279,281.452 306.152,285.990 305.950 C 294.385 305.578,302.404 304.131,304.552 302.601 C 305.143 302.180,305.778 301.836,305.964 301.836 C 306.641 301.836,310.605 299.591,311.670 298.604 C 312.271 298.046,313.653 297.174,314.739 296.665 C 318.670 294.825,320.352 294.106,321.039 293.972 C 321.424 293.897,322.000 293.745,322.319 293.633 C 323.039 293.382,326.278 292.669,328.213 292.337 C 329.010 292.200,329.662 291.945,329.662 291.770 C 329.662 291.596,330.003 291.345,330.420 291.212 C 330.837 291.080,332.435 290.281,333.970 289.437 C 335.506 288.593,337.686 287.634,338.816 287.306 C 339.945 286.977,341.090 286.487,341.360 286.217 C 341.631 285.947,342.239 285.518,342.713 285.265 C 343.187 285.011,343.575 284.549,343.575 284.238 C 343.575 283.926,343.749 283.671,343.961 283.671 C 344.174 283.671,344.348 283.322,344.348 282.895 C 344.348 282.419,344.954 281.708,345.912 281.059 C 346.772 280.477,348.324 279.391,349.361 278.647 C 350.397 277.903,351.639 277.034,352.120 276.715 C 354.216 275.326,354.783 274.367,354.783 272.214 C 354.783 269.781,354.848 269.822,353.406 271.339 " stroke="none" fill="#da8d8f" fill-rule="evenodd"></path></g></svg>