<?xml version="1.0" encoding="iso-8859-1"?>
<!-- Generator: Adobe Illustrator 19.0.0, SVG Export Plug-In . SVG Version: 6.00 Build 0)  -->
<svg version="1.1" id="Capa_1" xmlns="http://www.w3.org/2000/svg" xmlns:xlink="http://www.w3.org/1999/xlink" x="0px" y="0px"
	 viewBox="0 0 259.226 259.226" style="enable-background:new 0 0 259.226 259.226;" xml:space="preserve">
<g>
	<path style="fill:#D13239;" d="M200.536,97.576h-19.598c-1.2,0-2.173-0.973-2.173-2.173c0-1.201,0.973-2.174,2.173-2.174h19.598
		c29.964,0,54.342-24.378,54.342-54.342c0-1.2,0.973-2.173,2.173-2.173c1.201,0,2.174,0.973,2.174,2.173
		C259.226,71.247,232.897,97.576,200.536,97.576z"/>
	<path style="fill:#FF5959;" d="M63.033,69.568C28.221,69.568,0,97.789,0,132.602l0,0h131.139c34.813,0,63.034-28.221,63.034-63.034
		l0,0H63.033z"/>
	<path style="fill:#FF8189;" d="M69.993,69.568L69.993,69.568c0,34.497,27.713,62.517,62.089,63.022
		c34.377-0.505,62.09-28.525,62.09-63.022l0,0H69.993z"/>
	<path style="fill:#FF5959;" d="M131.139,175.942H0v0.001c0,34.813,28.221,63.033,63.033,63.033h131.139l0,0
		C194.172,204.163,165.951,175.942,131.139,175.942z"/>
	<path style="fill:#D13239;" d="M131.139,175.942H76.153v0.001c0,34.813,28.221,63.033,63.034,63.033h54.985l0,0
		C194.172,204.163,165.951,175.942,131.139,175.942z"/>
	<g>
		<circle style="fill:#FFFFFF;" cx="147.556" cy="88.601" r="9.661"/>
		<circle style="fill:#00ADBB;" cx="147.556" cy="88.601" r="4.83"/>
	</g>
	<rect y="132.602" style="fill:#FF8189;" width="76.153" height="14.447"/>
	<rect y="147.048" style="fill:#FF5959;" width="76.153" height="14.447"/>
	<rect y="161.495" style="fill:#FF8189;" width="76.153" height="14.447"/>
	<path style="fill:#D13239;" d="M101.524,147.048H76.153v-7.223h25.371c1.995,0,3.612,1.617,3.612,3.611l0,0
		C105.136,145.432,103.519,147.048,101.524,147.048z"/>
	<path style="fill:#D13239;" d="M101.524,156.474H76.153v-7.224h25.371c1.995,0,3.612,1.617,3.612,3.612l0,0
		C105.136,154.857,103.519,156.474,101.524,156.474z"/>
	<path style="fill:#D13239;" d="M101.524,165.899H76.153v-7.224h25.371c1.995,0,3.612,1.617,3.612,3.612l0,0
		C105.136,164.282,103.519,165.899,101.524,165.899z"/>
	<path style="fill:#D13239;" d="M193.241,81.113h-19.598c-1.201,0-2.174-0.973-2.174-2.174c0-1.2,0.973-2.173,2.174-2.173h19.598
		c29.964,0,54.342-24.378,54.342-54.342c0-1.201,0.973-2.174,2.173-2.174c1.201,0,2.174,0.973,2.174,2.174
		C251.93,54.785,225.602,81.113,193.241,81.113z"/>
	<path style="fill:#D13239;" d="M193.761,137.629c-1.201,0-2.174-0.973-2.174-2.174c0-11.633-9.464-21.097-21.098-21.097h-8.07
		c-1.201,0-2.174-0.974-2.174-2.174c0-1.201,0.973-2.174,2.174-2.174h8.07c14.03,0,25.445,11.415,25.445,25.445
		C195.934,136.656,194.961,137.629,193.761,137.629z"/>
	<path style="fill:#D13239;" d="M209.431,132.092c-1.201,0-2.174-0.973-2.174-2.174c0-11.633-9.464-21.098-21.098-21.098h-8.07
		c-1.2,0-2.173-0.973-2.173-2.174c0-1.2,0.973-2.173,2.173-2.173h8.07c14.03,0,25.445,11.415,25.445,25.445
		C211.604,131.119,210.632,132.092,209.431,132.092z"/>
	<path style="fill:#FF8189;" d="M162.066,184.043h-54.879v5.072h62.514C167.289,187.247,164.738,185.55,162.066,184.043z
		 M182.471,202.387h-68.237v5.072h71.504C184.728,205.714,183.638,204.021,182.471,202.387z M191.487,220.732h-65.945v5.071h67.247
		C192.425,224.086,191.989,222.395,191.487,220.732z"/>
</g>
<g>
</g>
<g>
</g>
<g>
</g>
<g>
</g>
<g>
</g>
<g>
</g>
<g>
</g>
<g>
</g>
<g>
</g>
<g>
</g>
<g>
</g>
<g>
</g>
<g>
</g>
<g>
</g>
<g>
</g>
</svg>
