<?xml version="1.0" encoding="iso-8859-1"?>
<!-- Generator: Adobe Illustrator 19.0.0, SVG Export Plug-In . SVG Version: 6.00 Build 0)  -->
<svg version="1.1" id="Layer_1" xmlns="http://www.w3.org/2000/svg" xmlns:xlink="http://www.w3.org/1999/xlink" x="0px" y="0px"
	 viewBox="0 0 488.124 488.124" style="enable-background:new 0 0 488.124 488.124;" xml:space="preserve">
<g id="XMLID_817_">
	<g id="XMLID_816_">
		<path style="fill:#E94E1B;" d="M299.26,409.655h-70.969l25.412-32.264l-25.412-30.819h70.969c17.42,0,31.542,14.122,31.542,31.542
			l0,0C330.801,395.533,316.68,409.655,299.26,409.655z"/>
	</g>
	<g id="XMLID_120_">
		<polygon style="fill:#F39200;" points="393.884,370.228 417.541,299.26 472.738,299.26 425.426,354.457 		"/>
	</g>
	<g id="XMLID_815_">
		<polygon style="fill:#E94E1B;" points="409.655,275.603 480.624,236.176 472.738,299.26 417.541,299.26 		"/>
	</g>
	<g id="XMLID_813_">
		<polygon style="fill:#E94E1B;" points="456.968,173.094 417.541,125.781 370.228,244.063 393.884,259.833 		"/>
	</g>
	<g id="XMLID_814_">
		<polygon style="fill:#F39200;" points="409.655,275.603 480.624,236.176 456.968,173.094 393.884,259.833 		"/>
	</g>
	<g id="XMLID_811_">
		<polygon style="fill:#F39200;" points="417.541,125.781 370.228,244.063 346.572,236.176 346.854,110.01 		"/>
	</g>
	<g id="XMLID_809_">
		<rect x="259.833" y="110.01" style="fill:#F39200;" width="39.427" height="126.166"/>
	</g>
	<g id="XMLID_812_">
		<rect x="299.26" y="110.01" style="fill:#E94E1B;" width="47.312" height="126.166"/>
	</g>
	<g id="XMLID_924_">
		<path style="fill:#F39200;" d="M259.833,236.176H141.552c0,0-63.862-14.742-86.739-31.542C21.192,179.947,7.5,110.01,7.5,110.01
			h252.333V236.176z"/>
	</g>
	<g id="XMLID_799_">
		<polyline style="fill:#E94E1B;" points="7.5,110.01 259.833,110.01 259.833,236.176 		"/>
	</g>
	<path style="fill:#1D1D1B;" d="M488.124,243.78c0-77.896-63.373-141.27-141.27-141.27h-71.25v15h71.25
		c69.625,0,126.27,56.645,126.27,126.27c0,46.549-25.323,87.291-62.912,109.188c9.317-12.903,14.829-28.727,14.829-45.823
		c0-43.268-35.201-78.468-78.469-78.468h-70.968v15h70.968c34.997,0,63.469,28.472,63.469,63.468
		c0,31.053-22.423,56.951-51.924,62.397c-3.712,0.33-7.467,0.508-11.263,0.508v0.556c-0.095,0-0.188,0.007-0.282,0.007v15
		c4.607,0,9.115-0.422,13.506-1.187C431.796,377.736,488.124,317.217,488.124,243.78z"/>
	<g id="XMLID_89_">
		<rect x="125.781" y="260.218" style="fill:#1D1D1B;" width="126.166" height="15"/>
	</g>
	<g id="XMLID_86_">
		<path style="fill:#1D1D1B;" d="M299.26,417.155h-85.969l29.282-39.042l-29.282-39.042h85.969
			c21.527,0,39.041,17.514,39.041,39.042C338.301,399.641,320.788,417.155,299.26,417.155z M243.291,402.155h55.969
			c13.256,0,24.041-10.785,24.041-24.042c0-13.256-10.785-24.042-24.041-24.042h-55.969l18.032,24.042L243.291,402.155z"/>
	</g>
	<path style="fill:#1D1D1B;" d="M141.552,283.874c-17.604,0-31.927-14.322-31.927-31.927c0-4.799,1.071-9.351,2.976-13.439
		c16.251,3.417,33.874,5.168,52.607,5.168h102.124V102.51H209.27l-8.271-16.542h11.521v-15h-47.312v15h19.021l8.271,16.542h-17.136
		l-25.927-17.285V70.968h-47.312v15h21.386l24.813,16.542H0v7.5c0,35.855,11.714,66.166,34.07,88.783
		c-6.702,8.247-10.414,18.54-10.414,29.498c0,25.876,21.051,46.927,46.927,46.927h15.771v-15H70.583
		c-17.604,0-31.927-14.322-31.927-31.927c0-7.203,2.361-13.982,6.635-19.495c1.311,1.03,2.638,2.048,4.004,3.036
		c13.764,9.962,30.117,17.671,48.572,23.011c-2.084,5.304-3.242,11.07-3.242,17.104c0,25.876,21.051,46.927,46.927,46.927h197.135
		v-15H141.552z M58.089,199.68c-26.723-19.339-41.133-46.957-42.903-82.17H200l8.271,16.542h-3.635v15h31.542v-15h-11.136
		l-8.271-16.542h35.562v111.167h-87.124c-14.587,0-28.414-1.115-41.344-3.293c5.067-3.385,11.15-5.363,17.688-5.363v-15
		c-14.269,0-27.062,6.41-35.676,16.492C87.506,216.634,71.399,209.313,58.089,199.68z"/>
	<g id="XMLID_126_">
		<rect x="291.76" y="125.781" style="fill:#1D1D1B;" width="15" height="94.624"/>
	</g>
	<g id="XMLID_177_">
		<rect x="339.072" y="125.781" style="fill:#1D1D1B;" width="15" height="94.624"/>
	</g>
	<g id="XMLID_178_">
		
			<rect x="386.386" y="138.766" transform="matrix(-0.9398 -0.3417 0.3417 -0.9398 700.8788 493.29)" style="fill:#1D1D1B;" width="15.001" height="92.295"/>
	</g>
	<g id="XMLID_179_">
		
			<rect x="417.926" y="173.093" transform="matrix(-0.8 -0.6 0.6 -0.8 638.2549 637.7925)" style="fill:#1D1D1B;" width="15" height="78.854"/>
	</g>
	<g id="XMLID_180_">
		
			<rect x="437.657" y="232.905" transform="matrix(-0.5145 -0.8575 0.8575 -0.5145 454.761 769.2701)" style="fill:#1D1D1B;" width="15" height="45.979"/>
	</g>
	<g id="XMLID_181_">
		<rect x="433.311" y="291.759" style="fill:#1D1D1B;" width="15.771" height="15"/>
	</g>
</g>
<g>
</g>
<g>
</g>
<g>
</g>
<g>
</g>
<g>
</g>
<g>
</g>
<g>
</g>
<g>
</g>
<g>
</g>
<g>
</g>
<g>
</g>
<g>
</g>
<g>
</g>
<g>
</g>
<g>
</g>
</svg>
