<svg id="Capa_1" enable-background="new 0 0 512 512" height="512" viewBox="0 0 512 512" width="512" xmlns="http://www.w3.org/2000/svg"><g><path d="m293.406 297.23v173.749l-37.405 41.021-37.406-41.021v-173.749l30.555-35.624 6.851 5.512z" fill="#f6f9f9"/><path d="m256.001 267.118v244.882l-37.406-41.021v-173.749l30.555-35.624z" fill="#dddaec"/><path d="m335.488 225.994h-158.976l12.97-134.973 2.308-24.004 64.211-33.501 64.21 33.501 2.308 24.004z" fill="#9bd069"/><path d="m255.997 33.516-21.036 33.502-4.997 158.976h-53.455l15.277-158.976z" fill="#6ec17d"/><path d="m322.519 91.021h-133.037l2.308-24.004 64.211-33.501 64.21 33.501z" fill="#6ec17d"/><path d="m361.447 67.018h-210.894c-18.505 0-33.506-15.001-33.506-33.506 0-18.505 15.001-33.506 33.506-33.506h210.894c18.505 0 33.506 15.001 33.506 33.506 0 18.504-15.001 33.506-33.506 33.506z" fill="#9bd069"/><path d="m243.758 67.012h-93.21c-18.502 0-33.501-14.999-33.501-33.501 0-9.261 3.75-17.636 9.818-23.694 6.057-6.067 14.432-9.817 23.683-9.817h93.21c-9.251 0-17.626 3.75-23.684 9.817-6.068 6.058-9.818 14.433-9.818 23.694.001 18.503 15 33.501 33.502 33.501z" fill="#6ec17d"/><path d="m293.406 297.23v28.216h-74.811v-28.216l30.555-35.624 6.851 5.512z" fill="#dddaec"/><path d="m406.729 297.233c0-83.245-67.484-150.729-150.729-150.729s-150.729 67.484-150.729 150.729z" fill="#9bd069"/><path d="m255.995 146.508c-32.358 0-58.586 67.486-58.586 150.724h-92.138c0-83.237 67.486-150.724 150.724-150.724z" fill="#6ec17d"/></g></svg>