<svg id="Capa_1" enable-background="new 0 0 512 512" height="512" viewBox="0 0 512 512" width="512" xmlns="http://www.w3.org/2000/svg"><g><g id="_x3C_Group_x3E__17_"><path d="m411.468 484.23-316.085-4.549v-76.114-31.881-231.372-31.903-76.092h329.617v76.158 31.881 231.459 31.794 51.889z" fill="#5a86cc"/><g fill="#4377c4"><path d="m405.15 283.33c-6.45 35.06-24.99 66.82-52.21 89.44l-.32.27c-.95.78-1.91 1.56-2.87 2.32l-.48.37c-.92.71-1.88 1.44-2.85 2.17l-.4.3c-1.05.77-2.06 1.5-3.09 2.21l-.32.22c-1.07.75-2.14 1.48-3.23 2.19l-.23.16c-2.45 1.6-4.91 3.12-7.31 4.51-.47.27-.92.51-1.37.76l-.1.06c-22.71 12.8-48.37 19.56-74.21 19.56-54.11 0-104.51-29.12-131.53-75.99-19.94-34.57-25.45-74.95-15.52-113.7 9.91-38.69 34.07-71.39 68.05-92.08.96-.59 1.97-1.19 3-1.79 1.42-.82 2.91-1.64 4.42-2.45.38-.21.77-.4 1.15-.6l.72-.37c.81-.42 1.63-.85 2.45-1.25.11-.06.22-.11.33-.17v.01c20.69-10.17 43.73-15.54 66.61-15.54 54.11 0 104.51 29.11 131.54 75.98 17.99 31.21 24.3 67.93 17.77 103.41z"/><path d="m107 27.77h-20v10.73 18 427.73h20z"/><path d="m435 100.78v30.85c0 1.34-.54 2.62-1.49 3.56l-8.46 8.31h-338.06l-5.394-10.883c-.01-.009-.019-.019-.029-.028-1.214-1.208-1.598-3.024-1.19-4.687l2.75-21.217c0-1.3.51-2.55 1.42-3.49l2.453-14.665h338l8.57 8.76c.92.93 1.43 2.19 1.43 3.49z"/><path d="m435 380.8v30.89c0 1.35-.55 2.65-1.53 3.59l-8.47 8.19h-338l-1.83-13.01c-.96-.95-1.51-2.24-1.51-3.59l-1.043-23.7c0-1.3.51-2.56 1.42-3.49l2.953-11.18h338.01v.12l8.56 8.67c.92.94 1.44 2.2 1.44 3.51z"/></g><path d="m107 88.53v54.97h-20.01l-8.49-8.31c-.96-.94-1.5-2.22-1.5-3.57v-30.78c0-1.3.51-2.55 1.42-3.49l8.58-8.82z" fill="#3b68b0"/><path d="m107 368.5v54.97h-20l-8.49-8.26c-.96-.95-1.51-2.24-1.51-3.59v-30.86c0-1.3.51-2.56 1.42-3.49l8.57-8.77z" fill="#3b68b0"/><path d="m426.277 34.66-340.341.51c-8.56 0-14.298-3.057-14.298-11.617l.766.383c0-8.56 2.536-16.436 11.096-16.436h345c8.56 0 15.5 6.94 15.5 15.5 0 8.56-9.163 11.66-17.723 11.66z" fill="#5a86cc"/><path d="m87 455.5h338v24.18h-338z" fill="#4377c4"/><path d="m87 455.5h20v24.18h-20z" fill="#3b68b0"/><path d="m423.468 499.34-336.468 1.022c-8.56 0-15.106-2.796-15.106-11.357 0-8.56 3.046-15.505 11.606-15.505h345c8.56 0 15.5 6.94 15.5 15.5 0 8.56-11.971 10.34-20.532 10.34z" fill="#5a86cc"/><path d="m443.99 23.49c-.12 4.09-1.84 7.78-4.53 10.47-2.8 2.8-6.68 4.54-10.96 4.54h-345c-8.56 0-15.5-6.94-15.5-15.5 0-4.28 1.74-8.16 4.54-10.96 2.69-2.69 6.38-4.41 10.47-4.53-.01.16-.01.33-.01.49 0 8.56 6.94 15.5 15.5 15.5h345c.16 0 .33 0 .49-.01z" fill="#4377c4"/><path d="m443.99 489.49c-.12 4.09-1.84 7.78-4.53 10.47-2.8 2.8-6.68 4.54-10.96 4.54h-345c-8.56 0-15.5-6.94-15.5-15.5 0-4.28 1.74-8.16 4.54-10.96 2.69-2.69 6.38-4.41 10.47-4.53-.01.16-.01.33-.01.49 0 8.56 6.94 15.5 15.5 15.5h345c.16 0 .33 0 .49-.01z" fill="#4377c4"/><path d="m356.38 368.5c-7.56 6.76-15.92 12.85-25.04 18.12-22.91 13.25-48.91 20.25-75.18 20.25-37.48 0-73.17-14.07-100.44-38.37z" fill="#3b68b0"/><path d="m356.51 143.5h-201.11c7.62-6.84 16.05-13 25.26-18.32 22.91-13.24 48.91-20.24 75.18-20.24 37.58 0 73.37 14.14 100.67 38.56z" fill="#3b68b0"/><path d="m257.947 378.574c-47.696 0-81.566-16.218-105.387-57.532-36.885-63.973-27.267-144.216 36.608-181.145 20.326-11.75 43.38-17.962 66.672-17.962 47.695 0 92.121 25.665 115.942 66.978 36.886 63.973 14.928 146.061-48.948 182.99-20.326 11.751-41.596 6.671-64.887 6.671z" fill="#f5de46"/><path d="m346.88 354.15c-7.18 6.67-15.22 12.64-24.05 17.75-20.32 11.75-43.38 17.97-66.67 17.97-47.69 0-92.12-25.67-115.94-66.98-36.89-63.98-14.93-146.06 48.95-182.99 2.61-1.51 5.26-2.93 7.95-4.25-44.78 41.54-56.69 110.11-24.9 165.24 23.82 41.31 68.25 66.98 115.94 66.98 20.3 0 40.43-4.73 58.72-13.72z" fill="#f3d332"/><path d="m307.117 168.155-17.151 29.703-7.823 8.705c-.534.924-1.708 1.284-2.648.777-7.183-3.869-15.135-5.106-23.541-5.106-8.139.001-12.84-.649-20.039 3.167-.938.497-2.104.136-2.635-.784l-23.174-34.723c-.557-.964-.225-2.21.749-2.749 4.856-2.691 4.951-6.925 10.134-8.796 11.178-4.035 22.991-6.129 34.886-6.129h.32c17.828.058 35.064 4.74 50.181 13.19.969.542 1.297 1.784.741 2.745z" fill="#4377c4"/><path d="m289.97 197.86-7.64 13.22c-.53.92-1.7 1.28-2.64.78-7.19-3.87-15.31-6-23.71-6-8.14 0-16.19 2.01-23.39 5.82-.94.5-2.11.14-2.64-.78l-24.8-42.95c-.55-.97-.22-2.21.75-2.75 4.86-2.69 9.9-4.98 15.09-6.85l16.996 30.419c.439.786 1.347 1.169 2.223.959 5.157-1.235 10.459-1.868 15.761-1.868 3.962 0 7.904.35 11.796 1.041 3.365.597 6.629 1.67 9.724 3.119z" fill="#3b68b0"/><path d="m306.013 340.106-16.233-36.726c-.534-.924-.258-2.121.651-2.682 4.959-3.061 1.344-9.096 5.001-13.74 1.463-1.858 2.803-3.831 4.004-5.911 4.069-7.049 6.355-15.023 6.65-23.165.038-1.061.935-1.89 1.997-1.89h34.408l9.233 5.756c1.113 0 2.026.91 2.007 2.023-.308 17.521-2.152 26.533-10.858 41.611-8.964 15.411-19.235 26.587-34.111 35.454-.954.569-2.194.232-2.749-.73z" fill="#4377c4"/><path d="m359.68 258.02c-.3 17.52-5.04 34.68-13.74 49.76l-.16.28c-8.97 15.41-21.64 28-36.51 36.86-.96.57-2.2.23-2.75-.73l-24.78-42.92c-.54-.93-.26-2.12.65-2.69 4.96-3.06 9.39-6.98 13.03-11.63l16.576 30.591c.63 1.163 2.189 1.399 3.149.49 5.889-5.578 10.972-11.973 15.045-18.971l.16-.28c1.48-2.56 2.82-5.2 4.02-7.91 3.11-7 5.1-14.43 6.22-22.01l1.9-12.87h15.19c1.11 0 2.02.91 2 2.03z" fill="#3b68b0"/><path d="m230.357 301.112-17.287 29.938-8.186 4.584c-.556.963-1.799 1.299-2.753.727-14.757-8.852-21.942-15.327-30.834-30.638-.07-.12-1.632.12-1.702 0-8.978-15.573-11.878-26.146-12.255-42.963-.025-1.116.889-2.031 2.006-2.031l9.704-4.369h35.017c1.058 0 1.948.823 1.995 1.88.34 7.741 2.497 15.501 6.623 22.67 4.193 7.264 10.091 13.237 17.022 17.52.908.561 1.183 1.758.65 2.682z" fill="#4377c4"/><path d="m213.07 331.05-7.49 12.98c-.56.96-1.8 1.3-2.76.73-14.75-8.85-27.32-21.36-36.22-36.67-.06-.12-.14-.23-.21-.35-8.97-15.57-13.45-32.53-13.83-49.35-.02-1.12.89-2.03 2.01-2.03h14.48c1.42 14.17 5.79 28.27 13.34 41.38.07.12.15.23.21.35 7.72 13.28 18.2 24.45 30.47 32.96z" fill="#3b68b0"/><g><path d="m256.136 279.17c-9.808 0-12.534-5.121-17.434-13.617-7.581-13.15-9.586-25.908 3.546-33.5 4.181-2.417 8.928-3.694 13.729-3.694 9.808 0 18.944 5.278 23.844 13.774 7.581 13.15 3.065 30.024-10.066 37.616-4.182 2.417-8.818-.579-13.619-.579z" fill="#4377c4"/></g><g><path d="m269.03 270.44c-9.81 0-18.95-5.27-23.85-13.77-4.7-8.15-4.75-17.72-.98-25.64-.66.31-1.31.65-1.95 1.02-13.13 7.6-17.65 24.47-10.07 37.62 4.9 8.5 14.04 13.77 23.85 13.77 4.8 0 9.54-1.27 13.72-3.69 5.01-2.89 8.76-7.13 11.07-11.99-3.68 1.76-7.71 2.68-11.79 2.68z" fill="#3b68b0"/></g></g><g><path d="m432.5 466.355v-39.673l6.251-6.127c2.383-2.336 3.749-5.59 3.749-8.926v-30.833c0-3.309-1.28-6.428-3.605-8.783l-6.395-6.476v-218.882l6.347-6.36c2.355-2.36 3.653-5.496 3.653-8.831v-30.894c0-3.305-1.345-6.537-3.689-8.867l-6.311-6.27v-39.788c10.781-1.899 19-11.327 19-22.645 0-12.682-10.317-23-23-23h-345c-12.683 0-23 10.318-23 23 0 11.317 8.219 20.745 19 22.645v39.747l-6.355 6.383c-2.351 2.358-3.645 5.491-3.645 8.821v30.852c0 3.343 1.303 6.485 3.666 8.843l6.334 6.328v218.818l-6.446 6.61c-2.292 2.348-3.554 5.448-3.554 8.729v30.85c0 3.349 1.375 6.61 3.771 8.948l6.229 6.076v39.705c-10.781 1.899-19 11.327-19 22.645 0 12.682 10.317 23 23 23h345c12.683 0 23-10.318 23-23 0-11.317-8.219-20.745-19-22.645zm-338-.355v-35.032h99.437c4.143 0 7.5-3.358 7.5-7.5s-3.357-7.5-7.5-7.5h-103.906l-5.531-5.396v-28.778l5.651-5.794h91.953c21.962 13.492 47.544 21.01 74.029 21.007 24.385.178 52.402-7.376 74.146-21.007h91.471l5.75 5.824v28.756l-5.498 5.389h-193.002c-4.143 0-7.5 3.358-7.5 7.5s3.357 7.5 7.5 7.5h188.5v35.031zm255.86-105c11.297-10.147 20.985-22.176 28.655-35.79 18.479-32.797 23.068-70.83 12.921-107.09-7.524-26.885-22.405-49.781-41.86-67.12h67.424v210zm-215.85-71.162c-8.205-29.32-5.52-60.579 7.562-88.017 1.783-3.739.197-8.215-3.542-9.998-3.738-1.783-8.216-.197-9.997 3.542-14.644 30.713-17.65 65.7-8.468 98.514 7.524 26.888 22.41 49.781 41.865 67.12h-67.43v-209.999h67.222c-4.663 4.184-9.076 8.678-13.182 13.498-2.686 3.153-2.307 7.887.847 10.573 3.154 2.687 7.887 2.307 10.573-.846 16.287-19.122 37.75-32.81 62.068-39.585 66.994-18.662 136.734 20.598 155.462 87.523 19.681 68.664-23.435 137.916-87.519 155.198-66.992 18.662-136.734-20.598-155.461-87.523zm287.376-193.806 5.614 5.578v28.82l-5.558 5.57h-92.057c-32.341-19.866-72.534-26.776-111.883-15.81-12.879 3.588-25.03 8.93-36.204 15.81h-91.704l-5.594-5.588v-28.782l5.574-5.598zm-346.386-73.032c0-4.411 3.589-8 8-8h345c4.411 0 8 3.589 8 8s-3.589 8-8 8h-48.181c-4.143 0-7.5 3.358-7.5 7.5s3.357 7.5 7.5 7.5h37.181v35.032h-323v-35.032h251.096c4.143 0 7.5-3.358 7.5-7.5s-3.357-7.5-7.5-7.5h-262.096c-4.411 0-8-3.589-8-8zm353 474h-345c-4.411 0-8-3.589-8-8s3.589-8 8-8h345c4.411 0 8 3.589 8 8s-3.589 8-8 8z"/><path d="m224.439 216.35c1.955 3.388 6.186 4.703 9.72 3.021 5.444-3.216 13.897-6.049 21.815-6.011 7.556 0 15.014 2.038 21.566 5.894 1.163.685 2.478 1.036 3.804 1.036.64 0 1.282-.082 1.911-.248 1.934-.51 3.584-1.771 4.584-3.502l26.78-46.38c2.063-3.574.853-8.143-2.71-10.225-16.916-9.891-36.174-15.152-55.715-15.215-18.267-.148-39.06 5.169-55.673 14.906-2.909 1.611-4.883 5.82-2.873 10.324zm31.436-56.63c13.146-.086 29.155 3.372 41.881 9.65l-19.373 33.551c-7.079-2.999-14.703-4.561-22.408-4.561-7.575 0-15.08 1.512-22.054 4.412l-19.395-33.59c12.923-6.208 27.078-9.462 41.349-9.462z"/><path d="m298.485 256.281c-.158 15.007-8.291 28.977-21.226 36.457-.036.021-.073.042-.109.064-1.596.942-2.793 2.447-3.348 4.231-.621 1.998-.379 4.164.667 5.976l26.79 46.4c.995 1.724 2.635 2.981 4.558 3.495.637.171 1.288.255 1.938.255 1.308 0 2.604-.342 3.756-1.008 10.236-5.922 19.389-13.366 27.203-22.125 2.758-3.091 2.487-7.832-.604-10.589-3.092-2.758-7.832-2.487-10.59.604-5.093 5.709-10.848 10.773-17.169 15.116l-19.39-33.583c11.914-9.168 19.846-22.789 21.96-37.715h38.706c-.822 9.817-3.135 19.411-6.904 28.613-1.57 3.833.265 8.213 4.098 9.783s8.214-.265 9.783-4.098c5.46-13.331 8.273-27.379 8.36-41.753.012-1.997-.772-3.917-2.181-5.333-1.408-1.417-3.322-2.213-5.319-2.213h-53.479c-4.111.002-7.456 3.312-7.5 7.423z"/><path d="m235.043 292.875c-6.603-3.742-12.088-9.177-15.858-15.706-3.665-6.37-5.626-13.581-5.67-20.854-.025-4.125-3.376-7.455-7.5-7.455h-53.479c-1.993 0-3.903.793-5.311 2.204s-2.195 3.324-2.189 5.317c.055 19.281 5.194 38.335 14.887 55.147 9.165 16.04 24.104 31.244 40.911 40.756 1.177.675 2.459.996 3.726.996 2.592 0 5.113-1.346 6.502-3.751l26.779-46.38c1-1.731 1.267-3.791.741-5.72-.525-1.928-1.8-3.568-3.539-4.554zm-33.087 42.426c-11.139-7.458-22.135-19.199-29.064-31.307-7.103-12.32-11.379-26.061-12.537-40.134h38.699c1.012 7.28 3.429 14.359 7.136 20.8 3.848 6.665 9.005 12.48 15.129 17.107z"/><path d="m279.82 242.132c-7.167-12.466-23.99-17.807-37.572-10.08-13.132 7.592-17.647 24.466-10.066 37.616 7.167 12.466 23.99 17.807 37.572 10.08 13.132-7.592 17.647-24.466 10.066-37.616zm-17.573 24.631c-4.699 2.997-13.448 1.75-17.07-4.586-3.455-5.992-1.4-13.681 4.578-17.138 4.699-2.997 13.448-1.75 17.07 4.586 3.455 5.992 1.401 13.681-4.578 17.138z"/></g></g></svg>