<?xml version="1.0"?>
<svg xmlns:rdf="http://www.w3.org/1999/02/22-rdf-syntax-ns#" xmlns="http://www.w3.org/2000/svg" xmlns:cc="http://web.resource.org/cc/" xmlns:dc="http://purl.org/dc/elements/1.1/" xmlns:svg="http://www.w3.org/2000/svg" id="svg2" viewBox="0 0 240.13 243.05" version="1.0">
  <path id="path2165" d="m98.432 236.53c-0.891-1.67-1.342-1.77-3.059-0.72-1.74 1.07-2.263 0.92-3.828-1.14-1.358-1.79-2.012-2.07-2.608-1.1-1.456 2.35-3.436-1.72-2.471-5.09 0.639-2.22 0.511-2.93-0.53-2.93-2.135 0-2.505-1.41-1.086-4.15 0.715-1.38 1.099-3.88 0.852-5.56-0.246-1.68 0.046-3.35 0.649-3.73 0.602-0.37 1.096-1.73 1.096-3.01s1.35-3.78 3-5.55c1.65-1.76 3-3.48 3-3.8 0-0.33 1.462-2.14 3.25-4.03l3.25-3.43-4.362 0.66c-3.789 0.58-12.403 4.38-22.638 9.99-4.469 2.45-18.371 8.61-19.433 8.61-0.509 0-1.648-0.72-2.532-1.6-1.477-1.48-2.016-1.44-6.629 0.55-5.955 2.56-11.237 2.12-19.727-1.63-2.981-1.32-7.02-2.73-8.976-3.14-1.956-0.4-3.756-1.33-3.999-2.06-0.36-1.08 1.88-1.22 11.926-0.72 24.717 1.22 23.487 1.4 24.271-3.51 0.366-2.28 0.447-4.37 0.18-4.64-0.267-0.26-3.447 1.15-7.067 3.14-7.537 4.14-13.101 4.65-22.853 2.11-3.167-0.82-7.412-1.5-9.4324-1.5h-3.6734l2.1676-2.16c2.0076-2.01 3.2242-2.18 16.472-2.3 14.837-0.13 15.433-0.23 22.706-3.85 3.232-1.61 4.737-3.12 5.666-5.69 6.227-17.23 7.273-19.53 9.705-21.35 2.533-1.89 2.889-1.9 10.425-0.34 18.948 3.94 22.147 3.25 26.367-5.66 2.039-4.32 2.399-6.42 2.189-13.04-0.14-4.35-0.714-8.46-1.275-9.13-0.695-0.84-0.695-2.09-0.001-3.92 0.676-1.76 0.706-5.48 0.099-10.87-0.603-5.36-0.544-12.31 0.172-20.13 0.845-9.217 0.815-12.034-0.108-12.343-1.335-0.445-6.312-9.708-5.599-10.421 0.248-0.248-0.672-1.506-2.045-2.796s-2.496-3.078-2.496-3.975c0-0.896-1.575-3.156-3.5-5.021-1.925-1.866-3.5-4.182-3.5-5.147s-0.603-2.114-1.34-2.554c-1.675-1-8.653-11.904-8.683-13.569-0.012-0.677-0.902-2.355-1.977-3.73-1.076-1.375-1.966-3.683-1.978-5.128s-0.697-3.188-1.522-3.872c-1.767-1.467-2.011-5-0.345-5 0.691 0 0.49-0.735-0.5-1.829-2.728-3.014-2.11-5.171 1.479-5.171h3.135l-2.635-2.073c-1.449-1.14-2.634-2.94-2.634-4 0-2.179 0.771-2.345 4.435-0.952 3.122 1.187 3.256 0.389 0.438-2.6101-1.233-1.3129-1.871-2.9297-1.518-3.8495 0.552-1.4393 0.911-1.4319 3.877 0.0801 1.797 0.9162 5.968 3.9805 9.268 6.8095 3.3 2.83 7.8 6.311 10 7.736 5.056 3.276 23.223 21.425 25.123 25.097 0.79 1.519 1.81 2.762 2.27 2.762s1.98 1.687 3.36 3.75c1.39 2.062 5.08 6.675 8.2 10.25 6.08 6.96 6.46 7.551 12.2 19l3.76 7.5 0.13 16.996c0.15 19.33 0.86 25.82 3.61 33.17 1.92 5.15 5.31 10.33 6.75 10.33 0.42 0 1.38-1.16 2.14-2.58 2.44-4.56 9.16-7.67 16.64-7.7 6.39-0.02 6.67 0.09 10.45 4.06 4.75 4.99 7.5 5.88 20.84 6.74 19.16 1.24 26.77 2.26 27.68 3.73 0.45 0.74-4.49 0.91-16.25 0.56-15.98-0.47-16.52-0.42-9.9 0.8 3.85 0.71 8.12 1.54 9.5 1.85 2.99 0.66 14.19 2.53 15.25 2.54 0.41 0 0.75 0.64 0.75 1.41 0 1.51-4.62 1.35-12.5-0.42-5.99-1.34-24.47-3.4-28.77-3.2-5.84 0.27-9.21 2.51-10.56 7.01-0.64 2.17-1.17 4.68-1.17 5.59 0 2.62-4.59 9.18-8.2 11.73-1.82 1.28-4.19 3.14-5.28 4.14-3.49 3.2-11.78 6.45-21.02 8.23-12.53 2.41-18.15 5.36-27.95 14.64-9.39 8.89-12.57 13.61-15.24 22.67-1.95 6.64-3.66 8.3-5.328 5.18zm16.028-33.8c-0.56-0.19-0.74-0.81-0.39-1.37 0.39-0.64 0.94-0.52 1.47 0.34 0.68 1.1 1.17 1.02 2.62-0.45 1.72-1.73 1.71-1.78-0.21-1.17-1.7 0.54-1.63 0.3 0.5-1.61 1.8-1.62 1.99-2.06 0.66-1.58-1 0.36-2.42 0.66-3.16 0.66-1.66 0-11.5 7.71-11.5 9.01 0 0.53 1.62 0.05 3.61-1.07 4.77-2.68 5.7-1.64 1.01 1.12-1.99 1.18-3.62 2.85-3.62 3.71 0 0.87-0.77 2.51-1.72 3.65-0.94 1.15 1.32-0.84 5.02-4.41 3.71-3.57 6.28-6.65 5.71-6.83zm-0.11 6.57c3.08-2.88 5.82-5.79 6.1-6.45 0.27-0.67 2.05-2.36 3.94-3.76 2.03-1.5 2.81-2.54 1.88-2.54-1.68 0-16.35 13.25-17.93 16.21-1.64 3.05 0.18 2.01 6.01-3.46zm-68.903-1.38c2.409-1.38 2.337-1.42-2-1.07-2.475 0.2-6.244-0.23-8.376-0.96-2.132-0.74-6.182-1.32-9-1.29l-5.124 0.05 5 2.04c9.527 3.9 14.318 4.2 19.5 1.23zm11 0.13c0-0.27-0.225-0.5-0.5-0.5s-0.5 0.23-0.5 0.5c0 0.28 0.225 0.5 0.5 0.5s0.5-0.22 0.5-0.5zm45.123-1.25c1.25-1.58 1.21-1.62-0.37-0.37-1.669 1.3-2.199 2.12-1.376 2.12 0.206 0 0.996-0.78 1.746-1.75zm-42.123 0.25c0-0.27-0.225-0.5-0.5-0.5s-0.5 0.23-0.5 0.5c0 0.28 0.225 0.5 0.5 0.5s0.5-0.22 0.5-0.5zm-5.523-2.64c0.537-0.5-0.475-0.4-2.25 0.21-1.775 0.62-3.227 1.34-3.227 1.6 0 0.69 4.338-0.74 5.477-1.81zm2.189 1.48c-0.366-0.37-0.966-0.37-1.333 0-0.367 0.36-0.067 0.66 0.667 0.66 0.733 0 1.033-0.3 0.666-0.66zm6.334 0.16c0-0.27-0.225-0.5-0.5-0.5s-0.5 0.23-0.5 0.5c0 0.28 0.225 0.5 0.5 0.5s0.5-0.22 0.5-0.5zm-4-1c0-0.27-0.225-0.5-0.5-0.5s-0.5 0.23-0.5 0.5c0 0.28 0.225 0.5 0.5 0.5s0.5-0.22 0.5-0.5zm6 0c0-0.27-0.225-0.5-0.5-0.5s-0.5 0.23-0.5 0.5c0 0.28 0.225 0.5 0.5 0.5s0.5-0.22 0.5-0.5zm-8-2c0-0.27-0.225-0.5-0.5-0.5s-0.5 0.23-0.5 0.5c0 0.28 0.225 0.5 0.5 0.5s0.5-0.22 0.5-0.5zm7 0c0-0.27-0.225-0.5-0.5-0.5s-0.5 0.23-0.5 0.5c0 0.28 0.225 0.5 0.5 0.5s0.5-0.22 0.5-0.5zm40.003-1.65c0-0.51-0.9-0.44-2 0.15-2.564 1.37-2.564 1.96 0 1.29 1.1-0.28 2-0.93 2-1.44zm-45.821-1.46c5.068-1.54 14.932-5.97 10.818-4.86-1.375 0.37-5.2 1.37-8.5 2.21-8.271 2.11-10.5 3.04-10.5 4.35 0 0.68 0.701 0.85 1.75 0.42 0.962-0.38 3.857-1.34 6.432-2.12zm2.484 1.95c-0.366-0.37-0.966-0.37-1.333 0-0.367 0.36-0.067 0.66 0.667 0.66 0.733 0 1.033-0.3 0.666-0.66zm6 0c-0.366-0.37-0.966-0.37-1.333 0-0.367 0.36-0.067 0.66 0.667 0.66 0.733 0 1.033-0.3 0.666-0.66zm41.337-0.95c0-0.28-0.45-0.23-1 0.11s-1 0.85-1 1.12c0 0.28 0.45 0.22 1-0.12s1-0.84 1-1.11zm-45.003 0.11c0-0.27-0.225-0.5-0.5-0.5s-0.5 0.23-0.5 0.5c0 0.28 0.225 0.5 0.5 0.5s0.5-0.22 0.5-0.5zm6 0c0-0.27-0.225-0.5-0.5-0.5s-0.5 0.23-0.5 0.5c0 0.28 0.225 0.5 0.5 0.5s0.5-0.22 0.5-0.5zm-3-1c0-0.27-0.225-0.5-0.5-0.5s-0.5 0.23-0.5 0.5c0 0.28 0.225 0.5 0.5 0.5s0.5-0.22 0.5-0.5zm5 0c0-0.27-0.225-0.5-0.5-0.5s-0.5 0.23-0.5 0.5c0 0.28 0.225 0.5 0.5 0.5s0.5-0.22 0.5-0.5zm-36.5-1.5c1.649-0.71 1.401-0.87-1.418-0.93-1.88-0.03-6.232-0.56-9.67-1.16-8.491-1.47-11.316-0.7-4.912 1.35 5.464 1.75 12.854 2.1 16 0.74zm33.5 0.5c0-0.27-0.225-0.5-0.5-0.5s-0.5 0.23-0.5 0.5c0 0.28 0.225 0.5 0.5 0.5s0.5-0.22 0.5-0.5zm7-0.5c0.825-0.53 1.05-0.97 0.5-0.97s-1.675 0.44-2.5 0.97c-0.825 0.54-1.05 0.97-0.5 0.97s1.675-0.43 2.5-0.97zm30.823-0.02c0.26 0.78 0.81 0.74 1.85-0.12 0.91-0.75 1.74-0.86 2.15-0.27 0.41 0.57 2.09 0.2 4.18-0.91 3.31-1.77 1.82-1.83-2.5-0.1-1.78 0.71-1.85 0.61-0.63-0.89 1.8-2.21 0.34-2.17-2.21 0.06-1.91 1.67-1.97 1.67-1.34-0.06 0.55-1.51 0.29-1.71-1.58-1.15-1.23 0.37-3.14 1.55-4.24 2.62-1.994 1.94-1.99 1.95 0.98 0.84 2.16-0.82 3.08-0.82 3.34-0.02zm-35.823-0.48c0-0.27-0.225-0.5-0.5-0.5s-0.5 0.23-0.5 0.5c0 0.28 0.225 0.5 0.5 0.5s0.5-0.22 0.5-0.5zm-11.566-1.94c6.191-1.61 11.358-4.19 6.066-3.02-1.65 0.36-4.125 0.85-5.5 1.08-6.202 1.05-8 1.61-8 2.46 0 1.24 0.948 1.17 7.434-0.52zm23.566-1.06c0-0.27-0.225-0.5-0.5-0.5s-0.5 0.23-0.5 0.5c0 0.28 0.225 0.5 0.5 0.5s0.5-0.22 0.5-0.5zm49.633-1c-0.39-1.03 0.11-1.54 1.65-1.64 1.22-0.07 4.24-0.28 6.72-0.46 2.47-0.17 5.85-0.37 7.5-0.44 2.52-0.1 2.68-0.24 1-0.89-1.94-0.75-1.93-0.79 0.24-1.48 1.23-0.39 2.65-0.46 3.16-0.14 1.11 0.68 6.62-1.26 5.82-2.06-0.3-0.3-1.6 0.01-2.89 0.7-2.1 1.12-2.2 1.08-1-0.38 0.73-0.89 2.53-1.62 4-1.64 4.81-0.05 7.03-0.48 6.53-1.28-0.26-0.43 0.41-0.79 1.5-0.79s4.5-2.31 7.59-5.13c5.51-5.03 6.63-7.05 2.77-4.99-2.39 1.29-5.97-0.85-4.75-2.83 0.56-0.9 0.97-0.94 1.47-0.14 1.03 1.67 7.06 0.19 7.06-1.73 0-1.23-0.27-1.31-1.2-0.38-1.8 1.8-2.68 1.45-2.09-0.81 0.41-1.55 0.15-1.87-1.09-1.39-1.75 0.67-2.27-1.08-0.62-2.1 1.66-1.02 1.12-2.48-0.67-1.8-1.11 0.43-1.42 0.26-0.95-0.52 0.47-0.75 0.18-0.95-0.83-0.56-1.83 0.7-1.95-0.01-0.48-2.75 0.81-1.51 1.39-1.73 2.38-0.9 0.98 0.81 2.64 0.57 6.37-0.9 3.1-1.22 5.17-1.59 5.38-0.95 0.41 1.23 5.8 0.09 5.8-1.22 0-0.5-0.9-0.9-2-0.9-2.25 0-2.4-0.39-1.08-2.85 0.7-1.32 0.17-2.56-2.25-5.23-1.75-1.92-2.84-3.05-2.42-2.5 1 1.32 0.95 4.34-0.09 4.98-0.46 0.29-1.84-0.18-3.06-1.04-2.16-1.51-2.18-1.62-0.42-3.57 1.8-2 1.77-2.01-2.65-1.51-2.45 0.28-4.63 1.01-4.83 1.62s-1.03 1.1-1.85 1.1c-0.81 0-1.17-0.48-0.81-1.07 0.37-0.59-0.3-0.48-1.47 0.25-1.91 1.18-1.95 1.36-0.37 1.69 1.74 0.37 5.3 3.8 5.3 5.12 0 1.25-1.18 1.88-2.54 1.36-0.73-0.28-1.11-1.1-0.83-1.83 0.28-0.72 0.02-1.61-0.57-1.97-0.58-0.37-1.06 0.04-1.06 0.89 0 0.86-0.49 1.56-1.07 1.56-0.59 0-0.35 0.73 0.54 1.62 2.24 2.24 1.27 2.78-2.66 1.49-1.82-0.6-4.8-1.26-6.62-1.47-1.81-0.21-4.32-1.34-5.56-2.51s-2.91-2.16-3.7-2.21c-0.99-0.05-1.05-0.23-0.2-0.57 0.94-0.38 0.87-1.35-0.33-4.17-2.9-6.85-4.97-23.55-4.73-38.18 0.16-9.923 0.08-10.34-1.35-7.626-1.46 2.777-2.03 11.676-0.86 13.566 0.31 0.51 0.11 1.21-0.45 1.55-0.56 0.35-1.01-0.07-1.01-0.93 0-0.94-0.89-1.56-2.25-1.57-1.24-0.01-2.93-0.45-3.75-0.99-1.14-0.73-0.72-0.97 1.75-0.98 2.21-0.01 3.25-0.49 3.25-1.52 0-0.82-0.4-1.5-0.88-1.5s-2.28-0.28-4-0.62c-2.92-0.59-3.12-0.44-3.11 2.25 0.01 1.58 0.43 3.53 0.94 4.34 0.6 0.93 0.54 1.94-0.16 2.78-0.79 0.95-0.77 2.01 0.06 3.82 0.63 1.38 1.42 5.76 1.76 9.72 0.67 7.81 3.1 12.81 7.12 14.64 2.65 1.21 3.09 3.46 0.52 2.66-0.97-0.3-2.4-0.13-3.19 0.36-1.12 0.7-0.61 1.3 2.25 2.66 5.01 2.4 4.64 3.35-0.86 2.18-5.62-1.2-9.7-0.01-4.7 1.37 3.19 0.89 4.44 2.73 2 2.96-0.69 0.06-1.7 0.22-2.25 0.35-0.55 0.12-2.03 0.3-3.29 0.38-1.34 0.09-2.65 1.08-3.18 2.4-0.7 1.73-0.92 1.84-0.97 0.5-0.07-1.83-2.6-2.25-6.8-1.12-1.83 0.49-2.13 1.09-1.64 3.24 0.58 2.47 0.52 2.52-0.84 0.75-0.8-1.04-2.07-1.69-2.81-1.44-1 0.33-0.76 1.04 0.92 2.72 1.25 1.25 2.06 2.48 1.8 2.75-0.27 0.26-1.63-0.67-3.03-2.08-2.66-2.65-4.18-2.09-2.98 1.09 0.61 1.62 0.49 1.68-0.99 0.48-0.92-0.75-1.38-1.83-1.03-2.4 0.39-0.63 0.16-0.74-0.58-0.29-0.67 0.42-0.98 1.39-0.68 2.15 0.6 1.57 0.41 1.65-1.76 0.82-0.83-0.32-1.28-1.19-1-1.93 0.36-0.94-0.09-1.18-1.54-0.8-1.67 0.43-1.86 0.89-1.04 2.42 0.69 1.31 0.68 1.89-0.06 1.89-0.59 0-1.33-0.67-1.64-1.5-0.82-2.14-1.66-1.92-7.796 2-3.009 1.93-5.916 3.5-6.46 3.5-1.724 0-2.42 2.19-0.985 3.1 0.966 0.61 0.481 0.88-1.622 0.91-1.65 0.02-5.25 1.35-8 2.94-2.75 1.6-7.813 4.34-11.25 6.08-3.438 1.75-6.25 3.35-6.25 3.55 0 0.63 4.514-1.3 10.281-4.37 11.494-6.14 21.161-8.27 31.322-6.93 3.8 0.51 8.42 0.9 10.29 0.88 2.37-0.02 3.07 0.28 2.33 1.02-0.63 0.63-2.79 0.79-5.39 0.39-13.215-2-27.469 0.19-36.328 5.59-3.567 2.18-1.84 2.43 2.945 0.43 1.863-0.78 3.675-1.13 4.027-0.78 0.352 0.36-0.849 1.18-2.669 1.84s-2.576 1.24-1.68 1.28c0.895 0.04 3.306-0.63 5.358-1.49 2.051-0.85 3.975-1.31 4.275-1.01 0.805 0.81-6.298 3.57-9.17 3.57-1.36 0-2.734 0.42-3.052 0.94-0.653 1.06 7.626 2.56 9.648 1.75 0.722-0.29-0.225-0.56-2.104-0.61-4.573-0.1-3.831-0.59 4.431-2.88 3.842-1.06 7.886-2.25 8.986-2.65 2-0.71 2-0.71 0 0.98-1.962 1.65-1.953 1.67 0.5 0.95 1.375-0.4 3.779-1.38 5.343-2.18 1.56-0.79 3.09-1.19 3.4-0.89 0.31 0.31-0.92 1.18-2.718 1.94-1.803 0.76-2.884 1.61-2.402 1.9 1.078 0.64 6.19 0.26 9.17-0.68 1.33-0.42 2.21-0.28 2.21 0.37 0 0.58-0.79 1.07-1.75 1.08-0.97 0.01-2.43 0.44-3.25 0.97-1.74 1.1 5.48 0.46 10.75-0.95 1.94-0.52 3.25-0.51 3.25 0.04 0 0.51-0.79 0.96-1.75 1-1.1 0.05-1.28 0.27-0.47 0.6 0.71 0.28 3.13-0.22 5.38-1.12s4.32-1.41 4.6-1.13c0.49 0.49-0.77 1.08-8.76 4.11-2.67 1.01-2.98 1.34-1.31 1.39 1.2 0.04 2.41 0.43 2.68 0.86 0.27 0.44 2 0.9 3.85 1.02 4.31 0.29 7.9 0.99 8.58 1.66 1 1.01 1.41 0.53 0.83-0.97zm-5.63-1.89c0-0.22 0.67-0.65 1.5-0.97 0.82-0.31 1.5-0.14 1.5 0.39 0 0.54-0.68 0.97-1.5 0.97-0.83 0-1.5-0.17-1.5-0.39zm-5.64-1.39c0.34-0.54 2.29-1.3 4.34-1.69 2.05-0.38 4.98-1.35 6.51-2.14s2.79-1.03 2.79-0.52c0 1.05-5.87 3.54-10.88 4.62-2.16 0.46-3.15 0.37-2.76-0.27zm17.66 0.47c0.77-0.83 9.98-4.69 9.98-4.18 0 0.24-1.24 1.07-2.75 1.84-3.16 1.61-8.01 3.18-7.23 2.34zm-6.69-1.35c0.37-0.37 0.97-0.37 1.33 0 0.37 0.36 0.07 0.66-0.66 0.66-0.74 0-1.04-0.3-0.67-0.66zm5.67-0.9c0-0.21 1.35-1.08 3-1.94 1.65-0.85 3-1.18 3-0.74s-1.35 1.31-3 1.94c-1.65 0.62-3 0.96-3 0.74zm-36-4.35c0.82-0.46 2.62-1.14 4-1.51l2.5-0.66-2.5 1.51c-1.38 0.82-3.18 1.5-4 1.51-1.337 0-1.337-0.09 0-0.85zm57-2.09c0-0.73 0.3-1.03 0.66-0.66 0.37 0.36 0.37 0.96 0 1.33-0.36 0.37-0.66 0.07-0.66-0.67zm-35.32-1.48c-1.55-0.81-3.13-1.43-3.5-1.37-0.38 0.05-1.36 0.01-2.18-0.1-1.06-0.13-0.92-0.42 0.48-0.96 2.37-0.93 5.72-0.23 4.95 1.03-0.3 0.48 1.3 0.88 3.57 0.88 2.49 0 3.87 0.4 3.5 1-0.88 1.42-3.54 1.23-6.82-0.48zm41.32 0.59c0-0.49 0.74-1.18 1.64-1.52 1.37-0.53 1.43-0.38 0.38 0.89-1.44 1.74-2.02 1.92-2.02 0.63zm-1-3.11c0-0.73 0.3-1.03 0.66-0.66 0.37 0.36 0.37 0.96 0 1.33-0.36 0.37-0.66 0.07-0.66-0.67zm7 0.47c0-0.77 2.66-3.47 3.43-3.47 1.36 0 0.4 2.02-1.43 3-1.1 0.59-2 0.8-2 0.47zm-11.5-1.47c0.34-0.55 1.06-1 1.61-1s0.73 0.45 0.39 1-1.07 1-1.62 1-0.72-0.45-0.38-1zm7.5-2.03c0-0.53 0.67-0.97 1.5-0.97 1.92 0 1.92 0.63 0 1.37-0.83 0.31-1.5 0.13-1.5-0.4zm-4.67-2.63c0.37-0.37 0.97-0.37 1.33 0 0.37 0.36 0.07 0.66-0.66 0.66-0.74 0-1.04-0.3-0.67-0.66zm-5.83-2.34c0.34-0.55 1.06-1 1.61-1s0.73 0.45 0.39 1-1.07 1-1.62 1-0.72-0.45-0.38-1zm5.5-2c0-0.55 0.45-1 1-1s1 0.45 1 1-0.45 1-1 1-1-0.45-1-1zm7 0.56c0-0.24 0.45-0.72 1-1.06s1-0.14 1 0.44c0 0.59-0.45 1.06-1 1.06s-1-0.19-1-0.44zm-1.39-2.97c0.48-1.26 0.36-1.69-0.35-1.25-0.59 0.37-2.13 0.26-3.42-0.24-2.14-0.83-2.06-0.9 0.94-0.85 3.68 0.07 5.03 1.34 3.27 3.09-0.89 0.89-1 0.71-0.44-0.75zm-11.28-0.25c0.37-0.37 0.97-0.37 1.33 0 0.37 0.36 0.07 0.66-0.66 0.66-0.74 0-1.04-0.3-0.67-0.66zm15.67-1.22c0-0.55 0.45-1.28 1-1.62s1-0.16 1 0.39-0.45 1.27-1 1.61-1 0.17-1-0.38zm-49-2.62c0-0.27 0.22-0.5 0.5-0.5 0.27 0 0.5 0.23 0.5 0.5 0 0.28-0.23 0.5-0.5 0.5-0.28 0-0.5-0.22-0.5-0.5zm29 0c0-0.27 0.22-0.5 0.5-0.5 0.27 0 0.5 0.23 0.5 0.5 0 0.28-0.23 0.5-0.5 0.5-0.28 0-0.5-0.22-0.5-0.5zm8-0.5c-0.83-0.53-1.05-0.97-0.5-0.97s1.67 0.44 2.5 0.97c0.82 0.54 1.05 0.97 0.5 0.97s-1.68-0.43-2.5-0.97zm6 0.5c0-0.27 0.22-0.5 0.5-0.5 0.27 0 0.5 0.23 0.5 0.5 0 0.28-0.23 0.5-0.5 0.5-0.28 0-0.5-0.22-0.5-0.5zm3.5-1.5c-0.34-0.55-0.14-1 0.44-1s1.06 0.45 1.06 1c0 1.28-0.71 1.28-1.5 0zm-44.84-1.66c-0.36-0.37-0.66-1.13-0.66-1.7 0-0.63 0.46-0.57 1.18 0.15 0.65 0.65 0.95 1.41 0.67 1.7-0.29 0.28-0.82 0.21-1.19-0.15zm36.34-1.34c0-0.73 0.3-1.03 0.66-0.66 0.37 0.36 0.37 0.96 0 1.33-0.36 0.37-0.66 0.07-0.66-0.67zm6 0.06c0-0.51 0.45-1.22 1-1.56s1 0.09 1 0.94c0 0.86-0.45 1.56-1 1.56s-1-0.42-1-0.94zm3-0.06c0-0.73 0.3-1.03 0.66-0.66 0.37 0.36 0.37 0.96 0 1.33-0.36 0.37-0.66 0.07-0.66-0.67zm-36.5-1c-0.34-0.55-0.14-1 0.44-1s1.06 0.45 1.06 1c0 1.28-0.71 1.28-1.5 0zm3.83-0.66c0.37-0.37 0.97-0.37 1.33 0 0.37 0.36 0.07 0.66-0.66 0.66-0.74 0-1.04-0.3-0.67-0.66zm22.17-1.34c0.8-1.29 2.5-1.29 2.5 0 0 0.55-0.7 1-1.56 1s-1.28-0.45-0.94-1zm-13.25-2.69c0.96-0.25 2.53-0.25 3.5 0 0.96 0.26 0.17 0.46-1.75 0.46-1.93 0-2.72-0.2-1.75-0.46zm37.25-1.31c-0.34-0.55-0.14-1 0.44-1s1.06 0.45 1.06 1c0 1.28-0.71 1.28-1.5 0zm-34.5-1c-0.8-0.49-1.22-1.11-0.95-1.39 0.28-0.27 1.15-0.1 1.95 0.39 0.79 0.49 1.21 1.12 0.94 1.39-0.28 0.28-1.15 0.1-1.94-0.39zm31.33 0.34c0.37-0.37 0.97-0.37 1.33 0 0.37 0.36 0.07 0.66-0.66 0.66-0.74 0-1.04-0.3-0.67-0.66zm6.17-0.34c0.8-1.29 2.5-1.29 2.5 0 0 0.55-0.7 1-1.56 1s-1.28-0.45-0.94-1zm-8.5-2.5c0-0.27 0.22-0.5 0.5-0.5 0.27 0 0.5 0.23 0.5 0.5 0 0.28-0.23 0.5-0.5 0.5-0.28 0-0.5-0.22-0.5-0.5zm-1.5-2.5c-1.91-0.82-1.9-0.86 0.25-0.93 1.23-0.03 2.25 0.38 2.25 0.93s-0.12 0.97-0.25 0.93c-0.14-0.04-1.15-0.45-2.25-0.93zm-37.17-22.66c0.37-0.37 0.97-0.37 1.33 0 0.37 0.36 0.07 0.66-0.66 0.66-0.74 0-1.04-0.3-0.67-0.66zm-1.33-3.34c0-1.29 1.7-1.29 2.5 0 0.34 0.55-0.09 1-0.94 1-0.86 0-1.56-0.45-1.56-1zm-0.73-5.6c0.33-0.33 1.19-0.37 1.91-0.08 0.8 0.32 0.56 0.56-0.6 0.6-1.05 0.05-1.64-0.19-1.31-0.52zm-63.273 81.1c0-0.27-0.225-0.5-0.5-0.5s-0.5 0.23-0.5 0.5c0 0.28 0.225 0.5 0.5 0.5s0.5-0.22 0.5-0.5zm-19-1c0-0.27-0.225-0.5-0.5-0.5s-0.5 0.23-0.5 0.5c0 0.28 0.225 0.5 0.5 0.5s0.5-0.22 0.5-0.5zm21 0c0-0.27-0.225-0.5-0.5-0.5s-0.5 0.23-0.5 0.5c0 0.28 0.225 0.5 0.5 0.5s0.5-0.22 0.5-0.5zm-15.75-1.16c-0.688-0.28-1.813-0.28-2.5 0-0.688 0.28-0.125 0.51 1.25 0.51s1.937-0.23 1.25-0.51zm10.937-0.02c-0.722-0.29-1.584-0.25-1.917 0.08-0.332 0.33 0.259 0.57 1.313 0.52 1.165-0.04 1.402-0.28 0.604-0.6zm15.894-0.32c0.505 0 0.919-0.63 0.919-1.41s0.562-1.65 1.25-1.92c0.72-0.29 0.786-0.54 0.155-0.59-0.602-0.04-2.402 1.1-4 2.54-1.887 1.71-2.263 2.41-1.074 2 1.008-0.34 2.245-0.62 2.75-0.62zm-24.081-0.5c0-0.27-0.225-0.5-0.5-0.5s-0.5 0.23-0.5 0.5c0 0.28 0.225 0.5 0.5 0.5s0.5-0.22 0.5-0.5zm43.663-0.16c-0.36-0.37-0.96-0.37-1.33 0-0.37 0.36-0.07 0.66 0.67 0.66 0.73 0 1.03-0.3 0.66-0.66zm-35.25-2.48c-0.646-1.04-8.461-1.12-10.06-0.09-0.631 0.4 1.494 0.78 4.722 0.84s5.63-0.27 5.338-0.75zm43.25 0.48c-0.36-0.37-0.96-0.37-1.33 0-0.37 0.36-0.07 0.66 0.67 0.66 0.73 0 1.03-0.3 0.66-0.66zm-55.997-1c-0.366-0.37-0.966-0.37-1.333 0-0.367 0.36-0.067 0.66 0.667 0.66 0.733 0 1.033-0.3 0.666-0.66zm33.334-1.84c0-0.27-0.225-0.5-0.5-0.5s-0.5 0.23-0.5 0.5c0 0.28 0.225 0.5 0.5 0.5s0.5-0.22 0.5-0.5zm-32.75-2.16c-0.688-0.28-1.813-0.28-2.5 0-0.688 0.28-0.125 0.51 1.25 0.51s1.937-0.23 1.25-0.51zm3.396-3.02c-1.013-1.02-4.65-1.12-5.248-0.15-0.284 0.46 0.935 0.83 2.709 0.83s2.917-0.31 2.539-0.68zm2.354 0.18c0-0.27-0.225-0.5-0.5-0.5s-0.5 0.23-0.5 0.5c0 0.28 0.225 0.5 0.5 0.5s0.5-0.22 0.5-0.5zm1-3.5c1.907-0.61 1.196-0.8-3-0.83-3.933-0.02-4.93 0.22-3.5 0.83 2.414 1.04 3.261 1.04 6.5 0zm5.187-0.68c-0.722-0.29-1.584-0.25-1.917 0.08-0.332 0.33 0.259 0.57 1.313 0.52 1.165-0.04 1.402-0.28 0.604-0.6zm5-2c-0.722-0.29-1.584-0.25-1.917 0.08-0.332 0.33 0.259 0.57 1.313 0.52 1.165-0.04 1.402-0.28 0.604-0.6zm-8.437-1.03c-1.513-0.23-3.988-0.23-5.5 0-1.513 0.23-0.275 0.41 2.75 0.41s4.262-0.18 2.75-0.41zm4.25 0.21c0-0.27-0.225-0.5-0.5-0.5s-0.5 0.23-0.5 0.5c0 0.28 0.225 0.5 0.5 0.5s0.5-0.22 0.5-0.5zm8.45-1.37c-0.523-0.49-4.456-1.39-8.741-2-9.572-1.38-11.41-1.42-10.159-0.2 0.522 0.51 4.517 1.19 8.877 1.51s8.147 0.81 8.417 1.07c0.269 0.27 0.954 0.49 1.522 0.49 0.648 0 0.679-0.32 0.084-0.87zm1.774-4.25c-2.123-0.61-3.883-0.59-5 0.06-1.313 0.76-0.532 0.99 3.276 0.94 4.818-0.05 4.88-0.09 1.724-1zm-12.224-0.38c0-0.27-0.225-0.5-0.5-0.5s-0.5 0.23-0.5 0.5c0 0.28 0.225 0.5 0.5 0.5s0.5-0.22 0.5-0.5zm4.187-0.18c-0.722-0.29-1.584-0.25-1.917 0.08-0.332 0.33 0.259 0.57 1.313 0.52 1.165-0.04 1.402-0.28 0.604-0.6zm-9-1c-0.722-0.29-1.584-0.25-1.917 0.08-0.332 0.33 0.259 0.57 1.313 0.52 1.165-0.04 1.402-0.28 0.604-0.6zm9.313-1.88c-7.203-1.62-9.5-1.74-9.5-0.51 0 1.32 2.636 1.84 9.5 1.86l6 0.01-6-1.36zm108.86-3.42c1.45-2.18 2.64-4.16 2.64-4.38s-1.69 0.18-3.75 0.89c-2.98 1.02-3.76 1.81-3.8 3.81-0.02 1.39 0.31 2.31 0.75 2.04s0.8-0.02 0.8 0.56c0 1.77 0.62 1.24 3.36-2.92zm-65.43-7.25c2.06-2.3 2.52-3.36 1.55-3.58-1.86-0.42-6.36 2.02-4.72 2.57 1.62 0.54 0.57 2.24-1.39 2.24-1.02 0-1.32-0.6-0.91-1.88 0.37-1.18 0.03-2.1-0.92-2.46-2.02-0.78-1-3.13 1.93-4.46 1.69-0.77 2.22-1.66 1.85-3.07-0.34-1.31 0.18-2.42 1.53-3.27 1.61-1 1.8-1.57 0.88-2.68-0.92-1.1-0.75-1.76 0.8-3.04 1.73-1.44 1.95-2.83 1.85-11.64-0.33-29.623-0.06-28.394-6.21-27.725-7.05 0.768-9.11 1.767-8.49 4.126 0.47 1.809 1.18 1.969 7.17 1.619l6.65-0.39-7.19 1.07-7.18 1.07-0.64 3.79c-0.37 2.19-0.17 4.69 0.49 5.91 0.62 1.16 0.83 3.06 0.46 4.22-0.57 1.78-0.37 1.99 1.19 1.35 2.77-1.14 8.76-2.48 9.18-2.06 0.2 0.2-2.2 1.17-5.34 2.16-6.16 1.95-7.62 3.64-5.21 6.05 1.28 1.29 2.12 1.34 5.14 0.34 1.99-0.65 4.17-0.99 4.86-0.76 0.68 0.24-0.22 0.76-2 1.16s-3.5 1.14-3.81 1.65-1.44 0.92-2.51 0.92c-1.16 0-1.97 0.71-2.02 1.75-0.04 0.97-0.26 2.77-0.49 4-0.28 1.52 0.07 2.25 1.07 2.25 0.82 0 1.49 0.12 1.49 0.25-0.01 0.14-0.66 2.38-1.45 4.98-1.6 5.28-0.6 7.04 2.45 4.28 1.02-0.92 2.68-1.47 3.68-1.21 1.63 0.42 1.62 0.49-0.17 0.6-2.69 0.18-6.4 4.25-7.56 8.29-1.72 6-1.56 6.16 5.06 5.47 5.11-0.53 6.43-1.11 8.93-3.89zm-8.43-17.77c1.1-0.47 2.67-0.86 3.5-0.86 0.94 0 0.76 0.32-0.5 0.86-1.1 0.48-2.68 0.86-3.5 0.86-0.95 0-0.76-0.31 0.5-0.86zm-1-27.45c1.65-0.74 3.36-1.13 3.81-0.85 1.24 0.76 0.47 1.15-3.34 1.7l-3.47 0.5 3-1.35zm6.5-1.55c1.94-1.25 3-1.25 3 0 0 0.55-1.02 1-2.25 0.99-1.82-0.01-1.97-0.2-0.75-0.99zm52 38.5c0-0.27-0.23-0.5-0.5-0.5-0.28 0-0.5 0.23-0.5 0.5 0 0.28 0.22 0.5 0.5 0.5 0.27 0 0.5-0.22 0.5-0.5zm-44-26c0-0.27-0.23-0.5-0.5-0.5-0.28 0-0.5 0.23-0.5 0.5 0 0.28 0.22 0.5 0.5 0.5 0.27 0 0.5-0.22 0.5-0.5zm-18-6.06c0-0.24-0.45-0.44-1-0.44s-1 0.48-1 1.06c0 0.59 0.45 0.78 1 0.44s1-0.81 1-1.06zm36-11.46c0-1.11-4.18-2.976-6.65-2.976-2.32 0-1.02 2.356 1.72 3.126 3.66 1.02 4.93 0.98 4.93-0.15zm1-3.855c0-1.439-5.83-3.408-7.74-2.616-1.5 0.625-1.32 0.933 1.24 2.069 3.48 1.553 6.5 1.806 6.5 0.547zm-2.62-5.861c-3.59-2.268-2.74-2.562 2.12-0.734 1.1 0.414 0.2-0.648-2-2.359-5.26-4.09-6.63-4.071-5.83 0.083 0.76 3.992 0.7 3.931 4.63 5.283 4.86 1.677 5.44 0.477 1.08-2.273zm-26.07 1.27c3.2-0.541 3.76-0.996 3.5-2.837-0.27-1.883-0.94-2.193-4.77-2.193-4.24 0-4.49 0.164-5.13 3.279-0.56 2.728-0.4 3.205 0.96 2.837 0.89-0.243 3.34-0.732 5.44-1.086zm33.03-2.074c-0.32-0.848-0.8-1.328-1.07-1.066-0.26 0.262-0.18 0.956 0.19 1.543 0.98 1.595 1.56 1.286 0.88-0.477zm-7.27-5.879c-1.97-2.039-3.91-3.194-4.79-2.857-1.03 0.396-0.17 1.4 2.87 3.358 5.67 3.645 5.89 3.589 1.92-0.501zm5.05-0.755c-0.51-1.35-2.31-4.631-4-7.291-2.34-3.684-3.22-4.448-3.7-3.204-0.41 1.087 0.42 2.508 2.48 4.242 1.7 1.435 3.1 3.249 3.1 4.033 0 1.51 2.2 5.526 2.74 4.991 0.17-0.174-0.11-1.421-0.62-2.771zm-30.54 0.928c0.41-0.413-1.24-0.744-3.67-0.735-2.51 0.009-3.88 0.353-3.18 0.797 1.54 0.977 5.85 0.938 6.85-0.062zm25.04-5.586c-1.69-1.687-2.62-2.116-2.62-1.206 0 1.976 4.36 6.464 4.85 4.993 0.21-0.642-0.79-2.346-2.23-3.787zm-28.37 3.138c2.17-0.543 2.32-3.302 0.18-3.302-0.87 0-2.28 0.707-3.15 1.572-1.03 1.027-2.47 1.363-4.18 0.969-1.933-0.447-2.217-0.346-1.1 0.394 1.51 1.009 5.05 1.166 8.25 0.367zm10.75-2.802c0-0.275-0.23-0.5-0.5-0.5-0.28 0-0.5 0.225-0.5 0.5s0.22 0.5 0.5 0.5c0.27 0 0.5-0.225 0.5-0.5zm-11-2.309c0-0.445-0.63-1.67-1.4-2.723-1.17-1.601-1.79-1.729-3.75-0.782-1.3 0.623-3.17 1.395-4.167 1.716s-1.533 1.037-1.191 1.59c0.737 1.192 10.508 1.376 10.508 0.199zm-1.58-7.737c0.86-3.419 0.03-4.454-3.54-4.454-1.9 0-2.76 0.397-2.33 1.082 0.44 0.722-0.78 1.024-3.694 0.907-6.44-0.258-6.531-0.2-3.838 2.45 1.955 1.925 3.564 2.452 7.622 2.5 4.7 0.055 5.2-0.159 5.78-2.485zm-0.42-7.473c0-0.87-0.54-2.121-1.2-2.781-0.94-0.934-0.94-1.2 0-1.2 1.6 0 1.55-2.978-0.05-3.079-0.77-0.049-0.67-0.3 0.25-0.648 2.24-0.85 8.99-7.594 9-8.986 0-0.666-4.17-5.568-9.25-10.892-8.688-9.088-13.574-13.048-18.23-14.774-1.821-0.675-1.801-0.546 0.25 1.637 1.225 1.304 2.227 2.82 2.227 3.369 0 1.203 4.442 5.352 8.281 7.734 1.531 0.95 2.532 2.137 2.219 2.639-0.31 0.501 0.683 1.719 2.213 2.705 2.95 1.899 6.36 5.548 5.76 6.156-0.4 0.402-9.121-6.352-11.473-8.887-3.185-3.431-9.563-7.662-10.865-7.208-1.571 0.549 3.909 5.787 7.615 7.278 1.237 0.498 2.25 1.344 2.25 1.879 0 1.465-5.493-0.706-7.558-2.987-0.964-1.065-2.652-1.936-3.752-1.936-1.953 0-1.956 0.048-0.147 2.048 1.02 1.126 4.577 3.687 7.905 5.691 5.582 3.36 15.495 9.889 16.465 10.85 0.23 0.226-0.07 0.411-0.67 0.411s-4.16-2.068-7.915-4.596c-3.756-2.527-8.907-5.655-11.448-6.951-2.541-1.295-5.822-3.784-7.291-5.53-3.834-4.555-4.411-2.829-0.629 1.878 1.747 2.174 5.595 5.125 8.601 6.597 2.991 1.465 5.439 2.91 5.439 3.212 0 0.908-6.313-0.769-8.643-2.296-1.391-0.911-2.397-1.059-2.797-0.411-0.685 1.107 2.838 3.15 8.69 5.04 2.062 0.667 3.75 1.636 3.75 2.154 0 1.112-3.972 0.523-6.847-1.015-2.494-1.335-4.153-1.388-4.153-0.134 0 0.521 2.691 1.703 5.981 2.626 3.289 0.923 5.729 2.085 5.422 2.583-0.658 1.063-6.534 0.1-11.153-1.828-4.492-1.874-4.065-0.869 0.983 2.318 2.759 1.742 5.718 2.703 8.499 2.762 2.381 0.051 4.109 0.533 3.911 1.091-0.196 0.55-2.896 0.883-6 0.74-3.104-0.142-5.643-0.023-5.643 0.265s1.458 1.411 3.24 2.494c4.22 2.567 16.763 2.553 16.763-0.018zm-7.003-3.95c0-0.533 0.673-0.71 1.503-0.393 1.92 0.737 1.92 1.362 0 1.362-0.83 0-1.503-0.436-1.503-0.969zm0.5-5.031c-0.34-0.55-0.168-1 0.383-1 0.55 0 1.28 0.45 1.62 1s0.16 1-0.39 1-1.27-0.45-1.613-1zm-2.5-1.5c0-0.275 0.225-0.5 0.5-0.5s0.5 0.225 0.5 0.5-0.225 0.5-0.5 0.5-0.5-0.225-0.5-0.5zm-15.5-4.998c-1.1-0.789-2.544-1.9-3.208-2.468-1.878-1.608-2.689-1.217-1.2 0.577 0.736 0.887 2.254 1.983 3.373 2.437 2.994 1.214 3.279 1.063 1.035-0.546zm-1.834-7.169c-0.366-0.367-0.966-0.367-1.333 0s-0.067 0.667 0.667 0.667c0.733 0 1.033-0.3 0.666-0.667zm5.334-13.678c0-0.19-1.013-1.203-2.25-2.25l-2.25-1.905 1.905 2.25c1.79 2.114 2.595 2.705 2.595 1.905z"/>
  <metadata>
    <rdf:RDF>
      <cc:Work>
        <dc:format>image/svg+xml</dc:format>
        <dc:type rdf:resource="http://purl.org/dc/dcmitype/StillImage"/>
        <cc:license rdf:resource="http://creativecommons.org/licenses/publicdomain/"/>
        <dc:publisher>
          <cc:Agent rdf:about="http://openclipart.org/">
            <dc:title>Openclipart</dc:title>
          </cc:Agent>
        </dc:publisher>
        <dc:title>Willet 2</dc:title>
        <dc:date>2006-12-20T16:14:46</dc:date>
        <dc:description>animal, beak, bird, clip art, clipart, coloring book, feather, fly, tail, willet, wing, </dc:description>
        <dc:source>http://openclipart.org/detail/2190/willet-2-by-molumen</dc:source>
        <dc:creator>
          <cc:Agent>
            <dc:title>molumen</dc:title>
          </cc:Agent>
        </dc:creator>
        <dc:subject>
          <rdf:Bag>
            <rdf:li>animal</rdf:li>
            <rdf:li>beak</rdf:li>
            <rdf:li>bird</rdf:li>
            <rdf:li>clip art</rdf:li>
            <rdf:li>clipart</rdf:li>
            <rdf:li>coloring book</rdf:li>
            <rdf:li>feather</rdf:li>
            <rdf:li>fly</rdf:li>
            <rdf:li>tail</rdf:li>
            <rdf:li>willet</rdf:li>
            <rdf:li>wing</rdf:li>
          </rdf:Bag>
        </dc:subject>
      </cc:Work>
      <cc:License rdf:about="http://creativecommons.org/licenses/publicdomain/">
        <cc:permits rdf:resource="http://creativecommons.org/ns#Reproduction"/>
        <cc:permits rdf:resource="http://creativecommons.org/ns#Distribution"/>
        <cc:permits rdf:resource="http://creativecommons.org/ns#DerivativeWorks"/>
      </cc:License>
    </rdf:RDF>
  </metadata>
</svg>
