<svg height="512" viewBox="0 0 128 128" width="512" xmlns="http://www.w3.org/2000/svg"><g><path d="m55.333 83.5h6v33.333h-6z" fill="#e58f8b"/><path d="m65.333 121.5h-19.166a6 6 0 0 1 6-6h8.979a4.187 4.187 0 0 1 4.187 4.188z" fill="#fcb49c"/><path d="m70 83.5h6v33.333h-6z" fill="#e58f8b"/><path d="m80 121.5h-19.167a6 6 0 0 1 6-6h8.98a4.188 4.188 0 0 1 4.187 4.188z" fill="#fcb49c"/><path d="m22.125 23.359c-9.425 2.407-13.525 5.449-14.965 6.799a2.117 2.117 0 0 0 -.66 1.551 2.151 2.151 0 0 0 2.15 2.15h13.475z" fill="#e58f8b"/><path d="m29.891 6.5a10.641 10.641 0 0 0 -10.641 10.641v43.609c0 15.5 13.942 32.5 49.25 33.75s53-29.25 53-29.25c-14.182-7.415-43.018-15.793-63.59-18.826a16.876 16.876 0 0 1 -14.321-14.517 145.66 145.66 0 0 0 -3.389-17.416 10.641 10.641 0 0 0 -10.309-7.991z" fill="#fcb49c"/><path d="m30.231 75.917a1.749 1.749 0 0 1 -1.36-.648 24.98 24.98 0 0 1 -3.423-5.541 1.75 1.75 0 1 1 3.2-1.426 21.545 21.545 0 0 0 2.946 4.763 1.751 1.751 0 0 1 -1.359 2.852z" fill="#e58f8b"/><circle cx="28.469" cy="19.453" fill="#eaeaf0" r="3"/><path d="m107.72 59.33a36.144 36.144 0 0 1 -6.86 6.07c-.89.65-1.88 1.31-2.97 1.97a55.3 55.3 0 0 1 -7.17 3.7c-1.14.48-2.33.95-3.59 1.39a62.045 62.045 0 0 1 -8.88 2.38c-20.68 3.95-45.5-9.09-39-27.09s42.5-14 68.47 11.58z" fill="#e58f8b"/><g fill="#eaeaf0"><path d="m100.86 65.4c-.89.65-1.88 1.31-2.97 1.97-2.43-2.03-16.03-13.03-30.75-17.31a1.753 1.753 0 1 1 .97-3.37c16.93 4.93 31.84 17.84 32.47 18.39a1.4 1.4 0 0 1 .28.32z"/><path d="m90.72 71.07c-1.14.48-2.33.95-3.59 1.39-5.42-3.94-15.2-10.26-25.48-13.25a1.75 1.75 0 0 1 .98-3.36c10.85 3.16 20.95 9.61 27.51 14.46a1.64 1.64 0 0 1 .58.76z"/></g></g></svg>