<?xml version="1.0" encoding="iso-8859-1"?>
<!-- Generator: Adobe Illustrator 19.0.0, SVG Export Plug-In . SVG Version: 6.00 Build 0)  -->
<svg version="1.1" id="Layer_1" xmlns="http://www.w3.org/2000/svg" xmlns:xlink="http://www.w3.org/1999/xlink" x="0px" y="0px"
	 viewBox="0 0 512.612 512.612" style="enable-background:new 0 0 512.612 512.612;" xml:space="preserve">
<g transform="translate(1 1)">
	<path style="fill:#FFDD09;" d="M357.935,391.946c0,0,85.333-54.613,85.333-187.733S357.935,7.946,357.935,7.946
		s-85.333,63.147-85.333,196.267S357.935,391.946,357.935,391.946"/>
	<path style="fill:#FCC309;" d="M294.788,94.986c13.653,14.507,36.693,23.893,63.147,23.893s49.493-9.387,63.147-23.893
		c-24.747-58.88-63.147-87.04-63.147-87.04S319.535,36.106,294.788,94.986"/>
	<g>
		<path style="fill:#FFDD09;" d="M84.868,101.812c-0.853,0-1.707,0-3.413-0.853l-68.267-25.6c-4.267-1.707-5.973-5.973-4.267-11.093
			c1.707-4.267,6.827-6.827,11.093-5.12l68.267,25.6c4.267,1.707,6.827,6.827,5.12,11.093
			C91.695,100.106,88.281,101.812,84.868,101.812z"/>
		<path style="fill:#FFDD09;" d="M84.868,144.479c-0.853,0-1.707,0-3.413-0.853l-68.267-25.6c-4.267-1.707-6.827-6.827-5.12-11.093
			s6.827-6.827,11.093-5.12l68.267,25.6c4.267,1.707,6.827,6.827,5.12,11.093C91.695,142.772,88.281,144.479,84.868,144.479z"/>
		<path style="fill:#FFDD09;" d="M84.868,187.146c-0.853,0-1.707,0-3.413-0.853l-68.267-25.6c-4.267-1.707-6.827-6.827-5.12-11.093
			s6.827-6.827,11.093-5.12l68.267,25.6c4.267,1.707,6.827,6.827,5.12,11.093C91.695,185.439,88.281,187.146,84.868,187.146z"/>
		<path style="fill:#FFDD09;" d="M50.735,255.412c-5.12,0-8.533-3.413-8.533-8.533V7.946c0-5.12,3.413-8.533,8.533-8.533
			s8.533,3.413,8.533,8.533v238.933C59.268,251.999,55.855,255.412,50.735,255.412z"/>
		<path style="fill:#FFDD09;" d="M144.601,511.412c-56.32,0-102.4-46.08-102.4-102.4v-68.267c0-5.12,3.413-8.533,8.533-8.533
			s8.533,3.413,8.533,8.533v68.267c0,46.933,38.4,85.333,85.333,85.333s85.333-38.4,85.333-85.333v-32.427l-45.227,39.253
			c-3.413,3.413-9.387,2.56-11.947-0.853c-3.413-3.413-2.56-8.533,0.853-11.947l59.733-51.2c2.56-2.56,5.973-2.56,9.387-0.853
			c3.413,1.707,5.12,4.267,5.12,7.68v51.2C247.001,465.332,200.921,511.412,144.601,511.412z"/>
		<path style="fill:#FFDD09;" d="M76.335,293.812c0,25.6-15.36,46.933-34.133,46.933S8.068,319.412,8.068,293.812
			c0-25.6,15.36-46.933,34.133-46.933S76.335,268.212,76.335,293.812"/>
	</g>
	<path style="fill:#FFFFFF;" d="M33.668,293.812c0-19.627,8.533-36.693,21.333-43.52c-4.267-2.56-8.533-3.413-12.8-3.413
		c-18.773,0-34.133,21.333-34.133,46.933c0,25.6,15.36,46.933,34.133,46.933c4.267,0,8.533-0.853,12.8-3.413
		C42.201,330.506,33.668,313.439,33.668,293.812"/>
	<path style="fill:#FD9808;" d="M357.935,7.946c0,0-5.12,3.413-12.8,11.093c23.893,23.893,72.533,84.48,72.533,185.173
		s-48.64,156.16-72.533,177.493c7.68,6.827,12.8,10.24,12.8,10.24s85.333-54.613,85.333-187.733S357.935,7.946,357.935,7.946"/>
	<g>
		<path style="fill:#FFDD09;" d="M272.601,204.212c0-2.56,0-5.12,0-7.68v-0.853l-59.733,119.467l74.24-21.333
			C278.575,269.066,272.601,239.199,272.601,204.212"/>
		<path style="fill:#FFDD09;" d="M443.268,204.212c0-2.56,0-5.12,0-7.68v-0.853l59.733,119.467l-74.24-21.333
			C437.295,269.066,443.268,239.199,443.268,204.212"/>
		<path style="fill:#FFDD09;" d="M450.095,462.772l-40.96-122.027h-3.413c-23.04,34.987-47.787,51.2-47.787,51.2
			s-24.747-16.213-47.787-51.2h-3.413l-40.96,122.027c-1.707,4.267-1.707,8.533-0.853,13.653
			c3.413,15.36,17.067,26.453,33.28,26.453c18.773,0,34.133-15.36,34.133-34.133v-17.067c0-14.507,11.093-25.6,25.6-25.6
			s25.6,11.093,25.6,25.6v17.067c0,18.773,15.36,34.133,34.133,34.133c16.213,0,29.867-11.093,33.28-26.453
			C451.801,472.159,451.801,467.892,450.095,462.772"/>
	</g>
	<path style="fill:#FD9808;" d="M450.095,462.772l-40.96-122.027h-3.413c-5.12,7.68-10.24,14.507-14.507,20.48l34.133,102.4
		c1.707,4.267,1.707,8.533,0.853,13.653c-2.56,11.093-10.24,19.627-20.48,23.893c4.267,1.707,8.533,2.56,12.8,2.56
		c16.213,0,29.867-11.093,33.28-26.453C452.655,472.159,451.801,467.892,450.095,462.772"/>
	<path d="M76.335,101.812c-0.853,0-1.707,0-3.413-0.853l-68.267-25.6c-4.267-1.707-6.827-6.827-5.12-11.093s6.827-6.827,11.093-5.12
		l68.267,25.6c4.267,1.707,6.827,6.827,5.12,11.093C83.161,100.106,79.748,101.812,76.335,101.812z"/>
	<path d="M76.335,144.479c-0.853,0-1.707,0-3.413-0.853l-68.267-25.6c-4.267-1.707-6.827-6.827-5.12-11.093s6.827-6.827,11.093-5.12
		l68.267,25.6c4.267,1.707,6.827,6.827,5.12,11.093C83.161,142.772,79.748,144.479,76.335,144.479z"/>
	<path d="M76.335,187.146c-0.853,0-1.707,0-3.413-0.853l-68.267-25.6c-4.267-1.707-6.827-6.827-5.12-11.093s6.827-6.827,11.093-5.12
		l68.267,25.6c4.267,1.707,6.827,6.827,5.12,11.093C83.161,185.439,79.748,187.146,76.335,187.146z"/>
	<path d="M42.201,349.279c-23.893,0-42.667-24.747-42.667-55.467s18.773-55.467,42.667-55.467s42.667,24.747,42.667,55.467
		C84.868,324.532,66.095,349.279,42.201,349.279z M42.201,255.412c-13.653,0-25.6,17.92-25.6,38.4s11.947,38.4,25.6,38.4
		s25.6-17.92,25.6-38.4C67.801,273.332,55.855,255.412,42.201,255.412z"/>
	<path d="M42.201,255.412c-5.12,0-8.533-3.413-8.533-8.533V7.946c0-5.12,3.413-8.533,8.533-8.533s8.533,3.413,8.533,8.533v238.933
		C50.735,251.999,47.321,255.412,42.201,255.412z"/>
	<path d="M136.068,511.412c-56.32,0-102.4-46.08-102.4-102.4v-68.267c0-5.12,3.413-8.533,8.533-8.533s8.533,3.413,8.533,8.533
		v68.267c0,46.933,38.4,85.333,85.333,85.333s85.333-38.4,85.333-85.333v-32.427l-45.227,39.253
		c-3.413,3.413-9.387,2.56-11.947-0.853c-3.413-3.413-2.56-8.533,0.853-11.947l74.24-63.147v69.12
		C238.468,465.332,192.388,511.412,136.068,511.412z"/>
	<path d="M366.468,67.679c0,5.12-3.413,8.533-8.533,8.533s-8.533-3.413-8.533-8.533c0-5.12,3.413-8.533,8.533-8.533
		S366.468,62.559,366.468,67.679"/>
	<path d="M357.935,400.479c-1.707,0-3.413-0.853-4.267-1.707c-4.267-1.707-89.6-58.027-89.6-194.56
		c0-135.68,85.333-200.533,88.747-203.093c3.413-2.56,6.827-2.56,10.24,0c3.413,2.56,88.747,67.413,88.747,203.093
		c0,136.533-85.333,192.853-89.6,194.56C361.348,399.626,359.641,400.479,357.935,400.479z M357.935,19.039
		c-17.92,16.213-76.8,76.8-76.8,185.173c0,109.227,59.733,163.84,76.8,177.493c17.067-13.653,76.8-68.267,76.8-177.493
		C434.735,95.839,375.855,35.252,357.935,19.039z"/>
	<path d="M210.308,324.532c-2.56,0-5.12-0.853-6.827-3.413c-2.56-2.56-2.56-5.973-0.853-9.387l59.733-119.467
		c1.707-3.413,5.12-5.12,8.533-5.12s5.973,2.56,7.68,5.973c0,0.853,0.853,2.56,0.853,3.413v1.707c0,1.707,0,4.267,0,5.973
		c0,30.72,5.12,59.733,14.507,86.187c0.853,2.56,0.853,4.267-0.853,6.827c-0.853,1.707-2.56,3.413-5.12,4.267l-75.093,23.04
		C212.015,324.532,211.161,324.532,210.308,324.532z M262.361,230.666l-35.84,71.68l46.933-13.653
		C268.335,269.919,264.068,251.146,262.361,230.666z"/>
	<path d="M502.148,324.532c-0.853,0-1.707,0-2.56,0l-74.24-22.187c-2.56-0.853-4.267-2.56-5.12-4.267
		c-0.853-1.707,0.853-4.267,0.853-6.827c9.387-26.453,12.8-55.467,12.8-86.187c0-1.707,0-4.267,0-5.973v-1.707
		c0-0.853,0-1.707,0.853-3.413c0.853-3.413,4.267-5.973,7.68-5.973c3.413,0,6.827,1.707,8.533,4.267l59.733,119.467
		c1.707,3.413,0.853,6.827-0.853,9.387C507.268,323.679,504.708,324.532,502.148,324.532z M439.001,287.839l46.933,13.653
		l-35.84-71.68C448.388,251.146,444.121,269.919,439.001,287.839z"/>
	<path d="M417.668,511.412c-23.893,0-42.667-18.773-42.667-42.667v-17.067c0-9.387-7.68-17.067-17.067-17.067
		s-17.067,7.68-17.067,17.067v17.067c0,23.893-18.773,42.667-42.667,42.667c-19.627,0-36.693-13.653-41.813-33.28
		c-1.707-5.12-0.853-11.093,0.853-17.92l40.96-122.88c0.853-3.413,4.267-5.973,7.68-5.973h3.413c2.56,0,5.973,1.707,6.827,4.267
		c15.36,24.747,32.427,39.253,40.107,45.227c7.68-5.973,26.453-18.773,41.813-43.52c1.707-2.56,2.56-5.973,5.12-5.973h5.973
		c3.413,0,6.827,2.56,7.68,5.973l40.96,122.88l0,0c1.707,5.973,2.56,11.947,0.853,17.92
		C454.361,497.759,437.295,511.412,417.668,511.412z M357.935,417.546c18.773,0,34.133,15.36,34.133,34.133v17.067
		c0,14.507,11.093,25.6,25.6,25.6c11.947,0,22.187-8.533,24.747-19.627c0.853-2.56,0-5.12-0.853-8.533l-36.693-109.227
		c-21.333,29.013-41.813,42.667-42.667,42.667c-2.56,1.707-5.973,1.707-9.387,0c-0.853-0.853-21.333-13.653-42.667-42.667
		l-36.693,110.08c-0.853,3.413-0.853,5.973-0.853,8.533c3.413,10.24,13.653,18.773,25.6,18.773c14.507,0,25.6-11.093,25.6-25.6
		v-17.067C323.801,432.906,339.161,417.546,357.935,417.546z"/>
	<path d="M357.935,127.412c-27.307,0-53.76-10.24-69.973-26.453c-2.56-2.56-2.56-5.973-1.707-9.387
		c25.6-59.733,64.853-88.747,66.56-90.453c3.413-2.56,6.827-2.56,10.24,0c1.707,0.853,40.107,29.867,66.56,90.453
		c1.707,3.413,0.853,6.827-1.707,9.387C411.695,117.172,385.241,127.412,357.935,127.412z M305.028,92.426
		c12.8,11.093,32.427,17.92,52.907,17.92s40.107-6.827,52.907-17.92c-18.773-40.107-42.667-64-52.907-73.387
		C347.695,28.426,322.948,52.319,305.028,92.426z"/>
	<path d="M332.335,187.146c-14.507,0-25.6-11.093-25.6-25.6c0-5.12,3.413-8.533,8.533-8.533c5.12,0,8.533,3.413,8.533,8.533
		c0,5.12,3.413,8.533,8.533,8.533s8.533-3.413,8.533-8.533c0-5.12,3.413-8.533,8.533-8.533c5.12,0,8.533,3.413,8.533,8.533
		C357.935,176.052,346.841,187.146,332.335,187.146z"/>
	<path d="M340.868,306.612c-14.507,0-25.6-11.093-25.6-25.6c0-5.12,3.413-8.533,8.533-8.533s8.533,3.413,8.533,8.533
		s3.413,8.533,8.533,8.533c5.12,0,8.533-3.413,8.533-8.533s3.413-8.533,8.533-8.533s8.533,3.413,8.533,8.533
		C366.468,295.519,355.375,306.612,340.868,306.612z"/>
	<path d="M383.535,246.879c-14.507,0-25.6-11.093-25.6-25.6c0-5.12,3.413-8.533,8.533-8.533c5.12,0,8.533,3.413,8.533,8.533
		c0,5.12,3.413,8.533,8.533,8.533s8.533-3.413,8.533-8.533c0-5.12,3.413-8.533,8.533-8.533c5.12,0,8.533,3.413,8.533,8.533
		C409.135,235.786,398.041,246.879,383.535,246.879z"/>
</g>
<g>
</g>
<g>
</g>
<g>
</g>
<g>
</g>
<g>
</g>
<g>
</g>
<g>
</g>
<g>
</g>
<g>
</g>
<g>
</g>
<g>
</g>
<g>
</g>
<g>
</g>
<g>
</g>
<g>
</g>
</svg>
