<?xml version="1.0" standalone="no"?>
<!DOCTYPE svg PUBLIC "-//W3C//DTD SVG 20010904//EN"
 "http://www.w3.org/TR/2001/REC-SVG-20010904/DTD/svg10.dtd">
<svg version="1.0" xmlns="http://www.w3.org/2000/svg"
 width="116.000000pt" height="112.000000pt" viewBox="0 0 116.000000 112.000000"
 preserveAspectRatio="xMidYMid meet">
<metadata>
Created by potrace 1.10, written by Peter Selinger 2001-2011
</metadata>
<g transform="translate(0.000000,112.000000) scale(0.100000,-0.100000)"
fill="#ff6347" stroke="none">
<path d="M521 1062 c-333 -2 -355 -3 -381 -22 -59 -42 -60 -49 -60 -494 0
-440 1 -446 55 -496 l27 -25 448 0 448 0 22 25 c52 59 51 50 48 503 l-3 423
-25 31 c-30 38 -60 51 -120 55 l-45 3 0 -190 c-1 -206 -5 -224 -55 -250 -51
-26 -98 -16 -146 30 -23 22 -34 55 -34 99 0 59 22 62 39 6 13 -43 56 -90 82
-90 9 0 26 8 38 18 21 16 22 23 19 197 l-3 180 -354 -3z m338 -27 c7 -7 8
-256 1 -303 -9 -67 -76 -49 -101 27 -13 40 -24 51 -55 51 -19 0 -21 -5 -18
-57 5 -99 8 -114 22 -108 7 2 15 -2 18 -10 3 -8 26 -22 50 -31 38 -14 50 -15
89 -4 27 8 51 22 61 38 9 14 19 20 23 14 3 -5 6 80 6 189 0 155 3 198 13 194
6 -2 12 0 12 5 0 17 64 -2 86 -24 44 -45 44 -48 43 -480 0 -410 -1 -415 -22
-447 -12 -18 -35 -36 -52 -41 -34 -10 -802 -11 -852 -2 -21 4 -41 18 -56 38
-21 29 -22 42 -24 231 -2 131 1 195 7 185 8 -13 10 -12 10 3 0 9 -4 17 -8 17
-5 0 -7 102 -4 228 6 320 -25 298 422 295 177 -1 325 -5 329 -8z"/>
<path d="M771 764 c0 -11 3 -14 6 -6 3 7 2 16 -1 19 -3 4 -6 -2 -5 -13z"/>
<path d="M783 573 c9 -2 23 -2 30 0 6 3 -1 5 -18 5 -16 0 -22 -2 -12 -5z"/>
<path d="M554 538 c-3 -5 -20 -6 -37 -3 -21 4 -27 3 -19 -3 10 -7 2 -11 -26
-15 -38 -7 -120 -46 -154 -75 -20 -17 -62 -7 -54 13 3 10 0 12 -11 8 -12 -5
-14 -3 -8 7 5 8 4 11 -2 7 -6 -4 -25 8 -44 25 -19 19 -34 27 -37 20 -2 -7 2
-18 10 -25 26 -25 111 -87 120 -87 5 0 28 12 51 28 64 42 108 60 199 78 146
30 299 8 442 -62 27 -14 51 -23 53 -20 3 2 -19 20 -49 40 -34 23 -64 36 -86
36 -20 0 -31 4 -27 10 4 7 -3 9 -22 5 -21 -5 -24 -4 -13 4 9 6 10 11 3 11 -6
0 -20 3 -30 6 -15 5 -15 4 -3 -5 12 -9 11 -11 -7 -11 -13 0 -23 4 -23 9 0 11
-219 11 -226 -1z"/>
<path d="M136 498 c-9 -41 -2 -72 25 -106 16 -21 16 -26 3 -57 -18 -44 -18
-85 1 -112 15 -21 15 -21 65 28 28 27 50 54 50 59 0 14 4 13 67 -21 65 -35
159 -65 218 -70 109 -8 225 -1 305 18 46 11 140 61 159 84 22 27 17 49 -9 49
-27 0 -34 17 -13 29 25 14 0 14 -32 -1 -34 -15 -32 -25 8 -34 17 -4 35 -9 40
-10 4 -1 10 -2 15 -3 10 -2 -42 -37 -99 -66 -99 -52 -299 -70 -428 -39 -36 8
-102 34 -145 56 l-79 40 -48 -52 c-27 -28 -49 -56 -49 -61 0 -5 -4 -9 -10 -9
-16 0 -11 89 6 120 16 26 16 29 -7 59 -14 20 -26 52 -29 84 l-6 52 -8 -37z"/>
<path d="M780 479 c0 -5 5 -7 10 -4 6 3 10 8 10 11 0 2 -4 4 -10 4 -5 0 -10
-5 -10 -11z"/>
<path d="M1010 476 c0 -2 7 -7 16 -10 8 -3 12 -2 9 4 -6 10 -25 14 -25 6z"/>
<path d="M792 438 c-28 -28 -3 -84 34 -76 28 5 40 33 26 62 -12 28 -40 34 -60
14z m40 -20 c8 -20 -2 -38 -19 -38 -12 0 -13 3 -3 15 6 8 9 19 5 25 -3 5 -2
10 3 10 6 0 12 -6 14 -12z"/>
<path d="M642 400 c0 -14 2 -19 5 -12 2 6 2 18 0 25 -3 6 -5 1 -5 -13z"/>
<path d="M568 203 c7 -3 16 -2 19 1 4 3 -2 6 -13 5 -11 0 -14 -3 -6 -6z"/>
<path d="M728 193 c7 -3 16 -2 19 1 4 3 -2 6 -13 5 -11 0 -14 -3 -6 -6z"/>
<path d="M158 68 c6 -6 18 -8 28 -6 14 3 12 5 -9 10 -19 3 -25 2 -19 -4z"/>
</g>
</svg>
