<?xml version="1.0" encoding="utf-8"?>

<!DOCTYPE svg PUBLIC "-//W3C//DTD SVG 1.1//EN" "http://www.w3.org/Graphics/SVG/1.1/DTD/svg11.dtd">
<svg version="1.1" id="Layer_1" xmlns="http://www.w3.org/2000/svg" xmlns:xlink="http://www.w3.org/1999/xlink" x="0px" y="0px"
	 viewBox="0 0 1232.916 1679.182" enable-background="new 0 0 1232.916 1679.182" xml:space="preserve">
<path d="M480.89,40.177c4.728-0.107,9.464-0.107,14.2-0.041c0.23,0.361,0.69,1.075,0.928,1.436c5.011,0.564,26.67,0.076,27.67,0.123
	c0.788-0.517,1.592-1.034,2.405-1.551c0.238,0.369,0.714,1.1,0.952,1.469c2.627-0.271,5.319-1.978,7.855-0.386
	c3.891,0.599,7.839,0.542,11.779,0.599c0.123,0.402,0.361,1.198,0.484,1.601c2.192-0.402,5.68,1.1,6.632-1.666
	c2.857-0.041,5.992-0.468,8.455,1.346c1.633,0.115,3.251,0.197,4.9,0.279l-0.862-2.118c0.854,0.64,1.683,1.322,2.471,2.06
	c4.721,0.485,17.833-1.617,21.506,1.601c5.114,0.205,10.244,0.057,15.366,0.099c0.033,0.41,0.115,1.239,0.148,1.658
	c8.277-0.056,9.121-0.506,10.441,1.543c1.748,0.066,3.513,0.082,5.286,0.098c0.074,0.451,0.23,1.354,0.304,1.814
	c1.034-0.213,2.085-0.427,3.144-0.64c1.469,0.213,2.939,0.419,4.424,0.64c0.583,2.142,3.283,1.781,3.841-0.205
	c-0.14,0.386-0.427,1.149-0.566,1.535c1.699,0.057,3.406,0.107,5.122,0.156c0.492,0.509,0.985,1.018,1.494,1.527
	c1.986,0.353,4.884-0.632,6.041,1.576c0.969,0.074,1.945,0.148,2.939,0.222c0.451,2.052,2.627,1.445,4.17,1.699
	c0.558,0.501,1.116,1.001,1.691,1.502c1.338,0,2.692,0.008,4.055,0.008c0.033,0.41,0.115,1.231,0.148,1.642c1.855,0,3.718,0,5.59,0
	c0.041,0.394,0.115,1.19,0.148,1.584c2.389,0.057,4.785,0.181,7.182,0.378c-0.345,0.328-1.034,0.969-1.387,1.297
	c1.346,0.025,2.725,0.057,4.096,0.09c1.198,1.026,2.413,2.027,3.579,3.103c0.903,0.066,1.814,0.14,2.742,0.213
	c0.673,2.717,4.556,0.353,5.196,3.111c0.616,0.025,1.839,0.074,2.454,0.098c0.714,1.042,1.436,2.085,2.175,3.127
	c1.921,0.041,3.965,0.107,5.352,1.666c1.666,0.082,3.349,0.107,5.04,0.156c2.691,3.646,3.266,2.714,4.974,4.802
	c1.56,0.057,3.127,0.074,4.712,0.09c0.057,0.41,0.181,1.223,0.246,1.633c1.724-0.008,3.464-0.008,5.212-0.016
	c0.033,0.419,0.115,1.239,0.148,1.65c1.051,0,2.11,0,3.185,0c-0.139,0.328-0.41,0.977-0.55,1.305c1.133,0.304,2.2,0.772,2.742,1.913
	c0.468,0.025,1.412,0.066,1.888,0.09c-0.131,0.361-0.402,1.075-0.534,1.436c1.978,0.148,3.997,0.509,5.647,1.707
	c1.617,0.082,3.234,0.123,4.876,0.172c1.182,2.323,2.635,4.506,4.424,6.419c2.233,0.099,4.474,0.279,6.714,0.46
	c0.115,0.312,0.345,0.944,0.46,1.256c3.382,0.287,7.42-0.829,10.26,1.56c5.196,0.246,10.425-0.181,15.604,0.55
	c0.205,0.304,0.599,0.928,0.796,1.231c14.528-0.051,130.923,0.318,131.703,0.402c0.394,0.296,1.174,0.903,1.56,1.198
	c9.22-0.003,87.733-0.387,91.072,0.887c0.427-0.189,1.28-0.566,1.707-0.747c4.712,2.504,10.039-0.23,14.833,1.757
	c0.099,0.353,0.312,1.051,0.419,1.404c20.456,0.052,20.542-0.564,24.986,1.519c5.705,0.263,11.418-0.008,17.139,0.107
	c2.586,0,4.753,1.921,7.396,1.666c4.4,0.296,9.276-1.059,13.224,1.535c4.9,0.222,9.817-0.041,14.726,0.099
	c2.815,0.041,5.335,1.617,8.159,1.633c2.742,0.115,5.491-0.14,8.25-0.008c2.323-0.074,4.178,1.83,6.534,1.642
	c3.045,0.213,6.624-0.796,9.078,1.584c13.21,0.606,10.245-0.861,13.363,1.601c3.776,0.476,8.151-0.977,11.377,1.642
	c4.81,0.763,10.367-1.379,14.619,1.633c1.371,0.082,2.766,0.164,4.17,0.238c0.131,0.378,0.394,1.133,0.525,1.51
	c2.561-0.033,5.147-0.016,7.716,0.246c2.331,2.586,6.46,0.427,8.964,2.922c1.486,0.082,2.988,0.14,4.506,0.222
	c1.289,2.43,4.67,0.878,6.255,3.078c1.001,0.041,2.027,0.09,3.07,0.123c0.033,0.353,0.099,1.051,0.131,1.404
	c2.914-0.164,4.851,1.978,6.714,3.891c-1.339,10.042-7.065,3.987-12.994,7.215c-0.296,2.06-1.363,3.8-2.816,5.237
	c-1.576,0.427-3.119,0.911-4.646,1.428c-0.722,0.624-1.428,1.248-2.109,1.888c-1,0.11-10.143,1.834-10.991,3.398
	c-2.241,0.164-4.465,0.337-6.69,0.607c-0.599,0.361-1.182,0.714-1.74,1.075c-3.571-0.492-6.296,1.929-9.366,3.177
	c-3.907,0.698-8.389-0.854-11.639,2.118c1.042,0.115,3.136,0.337,4.178,0.451c-3.333,0.731-6.953,0.328-9.99,2.052
	c-2.701,1.1-5.73,0.419-8.553,0.501c-0.353,0.312-1.059,0.919-1.412,1.231c-1.363-0.049-2.676-0.082-3.998-0.123
	c-0.32,0.296-0.96,0.878-1.272,1.174c-2.142-0.353-4.851-1.478-6.329,0.739c-1.166,0.131-2.323,0.238-3.448,0.353
	c-0.378,0.328-1.141,0.985-1.519,1.313c-3.677-0.369-7.355-0.041-10.991,0.435c0.435,0.263,1.313,0.796,1.748,1.059
	c-4.63-0.131-9.234,0.443-13.839,0.575c-3.554,2.019-7.872,1.239-11.771,1.461c-0.238,0.369-0.714,1.108-0.944,1.478
	c-2.2,0.098-4.391,0.156-6.567,0.222c-0.205,0.378-0.616,1.133-0.821,1.519c-4.227-0.665-8.438-0.131-12.657,0.164
	c-0.033,0.386-0.107,1.157-0.148,1.543c-1.067,0-2.118,0-3.16,0c-0.353,0.287-1.075,0.862-1.428,1.149
	c-1.004-0.068-20.595,0.131-22.639,1.363c1.116,0.386,2.397,0.772,3.579,1.116c-2.774-0.443-5.582-0.427-8.364-0.353
	c-0.509,0.55-1.001,1.108-1.486,1.658c-3.948-0.016-7.888,0-11.828-0.025c-0.107,0.394-0.32,1.182-0.435,1.576
	c-2.257,0.049-4.506,0.074-6.747,0.09c-0.394,0.263-1.174,0.796-1.568,1.059c-3.464-0.033-6.788,0.928-10.072,1.896
	c-4.777,0.731-9.628,0.074-14.43,0.41c-2.75,1.527-5.918,1.576-8.964,1.757c-1.297,0.583-2.659,1.01-4.03,1.281
	c-0.32,0.591-0.624,1.182-0.903,1.773c-0.689-0.722-1.354-1.436-2.027-2.134c-2.471,0.386-4.966,0.542-7.453,0.558
	c-0.435,0.534-0.862,1.075-1.272,1.617c-4.876-1.51-9.866,0.271-14.816,0.041c-0.041,0.394-0.115,1.19-0.156,1.592
	c-3.513-0.008-7.026-0.049-10.54,0.057c-0.854,1.092-2.413,2.142-3.571,0.648c-7.305,1.281-14.972,1.108-21.933,3.932
	c-4.17,0.722-8.455-0.033-12.657,0.435c0.755,0.312,2.257,0.928,3.013,1.239c-2.569-0.279-5.155-0.345-7.716-0.484
	c0.164,0.468,0.484,1.412,0.648,1.88c-3.694-0.041-7.256-1.297-10.958-1.116c-3.448,2.495-7.831,1.338-11.763,1.617
	c-39.536,4.525-15.935,2.552-48.446,2.413c-4.457-0.131-8.808,1.075-13.256,1.01c0.419,0.845,0.862,1.691,1.33,2.528
	c-3.152-1.445-6.419,0.509-9.628,0.706c-0.145,3.04-4.256,0.802-9.169,4.703c-1.042,0.057-2.077,0.115-3.086,0.172
	c-0.008,0.353-0.008,1.067-0.008,1.42c-1.65,0.074-3.292,0.148-4.925,0.222c0,0.361,0,1.084,0,1.445
	c-2.742,0.115-5.483,0.164-8.208,0.14c-0.435,0.55-0.845,1.108-1.248,1.658c-0.706,0-2.118-0.016-2.824-0.016
	c-1.026,1.092-2.06,2.167-3.07,3.275c-1.904,0-3.8,0.008-5.697,0.016c-0.033,0.41-0.115,1.231-0.148,1.642c-1.97,0-3.932,0-5.877,0
	c-0.025,0.402-0.082,1.215-0.107,1.625c-0.977,0-1.945,0.008-2.898,0.016c-0.041,0.41-0.115,1.239-0.148,1.65
	c-1.387-0.008-2.758-0.025-4.121-0.025c-0.402,0.328-1.215,1.001-1.617,1.33c-3.8,0.213-7.609,0.402-11.41,0.435
	c-0.016,0.386-0.049,1.157-0.074,1.543c-0.64-0.008-1.929-0.016-2.569-0.025c-0.484,0.476-0.96,0.944-1.428,1.42
	c-3.612-0.591-6.772,1.223-9.949,2.602c1.248,0.156,2.512,0.32,3.792,0.493c-4.983-0.525-9.284,2.692-14.258,2.233
	c-6.119,3.624-14.324,3.801-15.464,7.855c-1.724,0.107-3.439,0.213-5.155,0.312c0.066,0.304,0.189,0.895,0.254,1.19
	c-1.141-2.774-3.086,0.156-4.088,1.395c-1.018,0.181-2.036,0.353-3.029,0.542c-1.855,3.562-5.565,6.033-9.423,6.911
	c-0.033,0.46-0.09,1.387-0.115,1.855c-6.316,4.015-8.01,6.598-10.031,8.873c-3.513,1.281-5.951,4.211-9.005,6.197
	c-3.144,2.331-7.437,3.193-9.374,6.911c-2.668,1.913-5.811,3.456-7.527,6.386c-2.421,4.728-7.461,7.281-9.891,11.984
	c-0.714,0.099-1.412,0.197-2.093,0.304c-0.903,0.977-1.806,1.945-2.701,2.914c-0.419,0.099-1.248,0.296-1.666,0.394
	c-1.174,3.653-3.727,7.035-7.412,8.389c-3.029,2.553-3.866,6.772-6.813,9.464c-0.616,0.033-1.847,0.107-2.463,0.14
	c-0.566,1.543-1.108,3.103-1.617,4.671c-1.231,0.074-2.446,0.156-3.661,0.246c-2.233,4.441-6.78,6.994-9.719,10.917
	c-1.954,1.363-2.479,3.792-3.85,5.606c-0.919,1.297-2.183,2.454-2.446,4.096c-3.727,2.586-4.564,7.658-6.123,11.68
	c-5.483,11.731-1.57,13.629-3.612,21.76c-0.87,2.898-0.263,6.567-2.586,8.824c-0.082,2.118-0.09,4.244-0.049,6.37
	c0.501-0.665,1.018-1.322,1.535-1.978c0.312,5.13-0.435,10.351,0.46,15.44c1.092,2.898,1.478,5.959,1.281,9.046
	c0.353,0.304,1.059,0.895,1.412,1.19c-0.353-0.016-1.059-0.049-1.412-0.074c0.599,2.413,1.551,4.72,2.282,7.092
	c0.091,0.599,0.924,20.514,1.346,23.156c4.883,41.105-0.369,65.113-0.369,130.472c0.115,2.553-1.231,4.851-1.527,7.346
	c0.739,4.063,1.445,8.225,0.665,12.354c-1.568,7.281-0.361,14.759-0.886,22.122c-0.196,1.007-3.438,14.452-3.431,15.85
	c-1.905,2.664-2.793,15.471-3.866,17.804c-0.731,1.543-0.755,3.259-0.878,4.933c-0.107,2.413-1.33,4.572-1.921,6.879
	c-1.19,4.022-1.248,8.274-2.618,12.255c-0.796,2.085-0.074,4.26,0.542,6.288c-0.657,0.008-1.97,0.025-2.627,0.033
	c0.041,2.208,0.296,4.416,0.969,6.542c-0.624,0.008-1.872,0.016-2.495,0.016c0.008,2.183,0.14,4.383-0.066,6.575
	c-0.271,1.954-1.617,3.636-1.535,5.672c-0.197,2.701,0.542,5.754-1.445,7.987c-0.134,1-4.097,22.424-8.504,29.739
	c0.665,1.363,1.338,2.742,2.003,4.121c-1.19,0.025-2.372,0.057-3.546,0.09c-0.049,0.886-0.09,1.781-0.123,2.692
	c-2.216,1.445-1.33,4.367-1.675,6.591c-2.224,1.494-2.906,4.186-3.464,6.649c-1.426,2.642-9.492,23.124-9.686,26.398
	c-0.928,1.436-1.921,2.848-3.029,4.178c-0.066,0.772-0.115,1.56-0.156,2.356c-0.337,0.361-0.993,1.092-1.322,1.453
	c-1.699,3.636-1.929,8.085-4.892,11.024c-0.64,3.103-2.2,5.877-3.899,8.512c0.033,0.468,0.107,1.395,0.14,1.855
	c-2.865,2.479-4.227,6.238-5.048,9.842c-1.757,1.174-1.387,3.472-1.773,5.286c-0.394,0.082-1.174,0.246-1.568,0.328
	c-1.001,1.945-1.954,3.956-2.241,6.164c-0.714,0.862-1.478,1.675-2.298,2.438c0.09,0.739,0.189,1.486,0.296,2.249
	c-2.857,0.993-3.924,4.047-4.876,6.624c-0.985,2.733-2.955,4.966-3.915,7.708c-0.616,1.724-1.338,3.48-2.815,4.662
	c-5.157,13.064-9.58,13.476-10.302,20.464c-2.723,2.417-3.766,2.677-4.08,6.961c-0.484,0-1.461,0.008-1.954,0.016
	c-0.837,2.109-1.773,4.194-3.004,6.123c-2.692,1.97-2.569,5.771-4.26,8.471c-0.435,0.082-1.297,0.254-1.724,0.345
	c-1.461,2.438-2.536,5.081-3.267,7.839c-0.845,0.082-1.683,0.172-2.512,0.279c-0.566,0.755-1.125,1.543-1.674,2.323
	c-0.189,2.75-2.093,4.646-4.227,6.132c-4.765,15.516-12.062,11.178-17.771,33.703c-3.044,5.86,0.719,13.729-3.316,25.446
	c-1.658,4.474-1.067,9.349-2.266,13.938c-1.535,4.744-2.643,9.653-2.298,14.685c-3.858,1.847-0.919,7.47-4.876,9.267
	c-0.074,2.996-0.23,6.025-1.395,8.832c-0.402,0.14-1.19,0.402-1.584,0.534c-0.517,0.714-1.034,1.436-1.543,2.167
	c-0.419,1.715-0.164,3.94-1.986,4.925c-0.041,1.453-0.057,2.914-0.066,4.383c-0.648-0.123-1.945-0.369-2.594-0.492
	c-0.657,0.813-1.297,1.658-1.945,2.487c-0.237,6.229-3.395,13.6-5.147,16.318c-0.016,0.911-0.025,1.83-0.025,2.766
	c-1.789-0.139-3.776,0.493-5.434-0.222c-3.945-8.705-0.45-9.302-2.75-15.391c0.575-0.23,1.732-0.698,2.307-0.936
	c-0.369-1.486-2.052-2.011-3.053-2.947c0.706-0.648,1.412-1.289,2.134-1.921c-0.082-0.583-0.238-1.748-0.32-2.339
	c0.254-0.287,0.747-0.878,0.993-1.174c-0.769-4.973,2.841-3.686-1.034-10.252c0.066-1.067,0.148-2.109,0.238-3.144
	c-1.067,0.074-2.118,0.156-3.168,0.246c-0.731-3.883-0.919-7.823-1.272-11.738c-2.372,1.787-1.775,2.193-12.132,15.407
	c-0.501,0.033-1.502,0.107-2.003,0.139c-0.033,0.952-0.066,1.913-0.099,2.898c-1.018,0.846-2.142,1.56-3.119,2.463
	c0.148,0.222,0.435,0.665,0.575,0.887c-0.378,0.123-1.141,0.369-1.519,0.484c-0.468,3.801-1.724,7.412-2.742,11.089
	c-0.657,0.731-1.313,1.469-1.954,2.224c-0.665,3.07-2.192,5.943-2.036,9.177c-0.993,0.755-1.97,1.543-2.947,2.339
	c-0.23,1.404-0.386,2.914-1.74,3.727c0.304,0.558,0.607,1.141,0.928,1.732c-1.748,3.398-4.309,6.591-4.523,10.564
	c-0.304,0.033-0.903,0.115-1.207,0.148c-0.057,4.178-3.858,7.215-3.53,11.459c-0.033,3.185-0.895,6.271-1.847,9.292
	c-4.204,3.061-1.203,7.716-7.535,22.204c-0.468,3.218-1.683,6.247-2.339,9.431c-0.345,0.041-1.026,0.123-1.371,0.164
	c-0.107,2.602,0.501,5.491-1.034,7.823c-2.027,3.037-2.151,6.895-4.309,9.875c-0.419,0.164-1.256,0.484-1.675,0.648
	c-1.082,6.591-0.849,3.445-1.281,7.757c-0.394,0.033-1.174,0.115-1.568,0.156c-0.394,5.705,1.059,11.869-1.592,17.188
	c1.929,2.348,3.513,4.95,5.459,7.297c0.928,0,1.855,0.016,2.799,0.057c0.731,1.092,1.478,2.192,2.216,3.308
	c1.182-0.025,2.372-0.041,3.562-0.041c0.755,1.084,1.519,2.167,2.29,3.267c2.701,0.09,5.779-0.501,8.003,1.453
	c0.468,0.074,1.395,0.222,1.855,0.296c0.279,0.361,0.829,1.083,1.108,1.445c4.203-0.32,7.831,2.471,12.066,1.814
	c0.287,0.353,0.854,1.059,1.133,1.412c0.936,0.189,1.888,0.419,2.848,0.648c4.054-1.013,1.519,1.074,9.53,1.264
	c0.698,1.034,1.42,2.085,2.126,3.152c0.583,0.008,1.748,0.033,2.331,0.049c0.041,0.402,0.123,1.215,0.156,1.617
	c1.026,0.008,2.052,0.041,3.086,0.09c1.273,2.546,6.777,1.573,9.817,4.744c2.61,0.107,5.22,0.123,7.839,0.164
	c1.289,1.617,2.627,3.193,3.924,4.827c1.297,0,2.602,0.016,3.915,0.049c0.041,0.411,0.115,1.223,0.148,1.634c0.55,0,1.658,0,2.208,0
	c0.213,0.46,0.64,1.371,0.854,1.83c2.331-0.164,4.646-0.575,6.903-1.207c3.521-0.952,7.199-0.353,10.786-0.796
	c0.246-0.353,0.739-1.075,0.985-1.437c6.895-0.033,13.798-0.123,20.693,0.057c2.856,2.947,7.445,0.977,11.089,1.633
	c1.01,1.354,2.192,2.586,3.579,3.595c2.027,1.929,3.029,4.613,4.818,6.747c-0.148,0.263-0.443,0.804-0.591,1.067
	c0.435,0,1.313,0,1.748,0c0.025,0.41,0.09,1.231,0.123,1.642c0.591,0,1.781,0.008,2.372,0.008c0.164,0.419,0.493,1.24,0.657,1.65
	c0.64-0.008,1.929-0.016,2.577-0.025c0.033,0.411,0.115,1.24,0.148,1.65c1.223-0.016,2.454-0.016,3.686,0
	c0.607,1.092,1.231,2.2,1.855,3.308c1.149-0.033,2.315-0.049,3.48-0.049c0.238,0.394,0.714,1.174,0.96,1.56
	c1.051,0.033,2.11,0.074,3.185,0.131c0.238,0.394,0.731,1.166,0.977,1.56c0.845,0.016,1.699,0.057,2.561,0.115
	c1.116,2.93,4.941,1.445,7.076,0.517c0.525,0.049,1.568,0.156,2.093,0.205c0.246,2.766,2.922,3.981,4.794,5.59
	c2.06,0.23,4.35,0.107,6.033,1.551c7.713,1.66,5.882,1.852,7.773,6.673c2.29,1.19,4.482,2.577,6.731,3.858
	c1.387,1.519,2.906,3.078,5.122,3.152c0.337,0.813,0.689,1.65,1.059,2.504c1.346,0.911,2.167,2.323,2.898,3.768
	c0.501,0.016,1.502,0.041,2.011,0.049c0.049,0.944,0.115,1.896,0.189,2.865c2.848,1.338,2.914,5.056,4.613,7.429
	c0.115,0.829,0.246,1.674,0.386,2.545c0.287,0.222,0.862,0.673,1.149,0.903c-0.435,1.872-0.607,3.784-0.69,5.721
	c0.722,0.197,2.167,0.591,2.898,0.788c-0.862,0.927-1.699,1.896-2.545,2.848c-0.369,1.379-0.731,2.783-1.125,4.178
	c0.87,1.248,1.666,2.618,2.865,3.636c1.872,0.427,3.825,0.246,5.746,0.328c3.938,4.576,3.697,2.557,7.79,4.088
	c0.78,2.512,0.862,5.327,2.881,7.297c0.32,0.033,0.96,0.107,1.281,0.148c0.96,1.395,1.855,2.971,3.546,3.645
	c-0.049,0.181-0.14,0.55-0.181,0.73c1.551,0.525,2.11,2.052,2.783,3.398c1.1,0.312,2.077,0.845,2.651,1.921
	c2.274,0.049,4.556,0.049,6.838,0.057c0.813,1.067,1.65,2.151,2.479,3.242c1.223,0.016,2.462,0.066,3.702,0.131
	c0.739,2.175,1.502,4.359,2.29,6.542c1.125,0.14,2.274,0.304,3.423,0.476c0.296,0.254,0.887,0.755,1.182,1.001
	c1.56,0.107,3.127,0.254,4.703,0.419c-0.098,0.837-0.181,1.691-0.254,2.561c2.093,1.198,4.268,2.282,6.534,3.16
	c5.094,11.012,1.315,6.291,4.991,13.642c1.141-0.016,2.282-0.008,3.448,0.025c0.591,1.404,1.108,3.004,2.61,3.743
	c0.115,0.419,0.361,1.248,0.476,1.666c4.055,0.263,8.471,0.772,12.066-1.592c1.198,0.575,2.405,1.141,3.636,1.732
	c1.01,1.412,2.069,2.824,3.136,4.227c0.558,0.025,1.666,0.066,2.224,0.082c0.443,1.215,0.993,2.421,1.264,3.726
	c-0.238,2.339-1.297,4.556-1.223,6.953c0.172,2.298,1.445,4.309,1.888,6.558c0.049,4.088-3.292,7.864-1.707,12.009
	c0.78,2.249,0.246,4.597-0.295,6.838c1.01-0.025,2.027-0.025,3.062-0.016c-0.172,1.617,0.14,3.177,1.264,4.424
	c1.576,0.304,3.275,0.583,4.441,1.831c-1.256,0.148-2.504,0.304-3.743,0.46c-0.016,0.911-0.025,1.839-0.025,2.791
	c-1.412,0.517-3.16,0.813-3.924,2.29c-0.464,2.906,0.317,3,8.389,3.973c-0.131,2.865-2.463,4.441-4.679,5.779
	c0.369,1.543,1.207,2.922,2.216,4.17c-0.263,0.254-0.788,0.763-1.051,1.018c0.903,2.29,1.387,4.941-0.854,6.632
	c-0.074,0.895-0.131,1.814-0.172,2.758c0.673,0.008,2.027,0.016,2.709,0.025c0.583,3.078,1.322,6.14,2.29,9.136
	c-0.197,0.337-0.591,1.01-0.796,1.346c0.049,2.241-0.041,4.588-1.412,6.493c-0.057,0.55-0.164,1.65-0.213,2.2
	c-3.669,2.43-8.151,2.257-12.354,2.175c-0.271-0.386-0.813-1.149-1.083-1.527c-1.929-0.181-3.841-0.361-5.746-0.566
	c-0.583-0.64-1.157-1.272-1.724-1.872c-1.01,0.099-2.011,0.23-3.004,0.394c-2.356,1.601-5.106,2.651-7.092,4.769
	c-0.731,0.337-1.453,0.698-2.167,1.075c-1.469-0.714-2.971-1.354-4.474-1.929c-0.123-1.207-0.23-2.38-0.32-3.538
	c-0.46-0.189-1.379-0.566-1.847-0.755c-0.517,0.082-1.026,0.213-1.527,0.328l1.445-2.914c-1.264,0.476-2.471,1.051-3.628,1.715
	c0.107-0.575,0.328-1.715,0.443-2.29c-1.748-0.115-3.497-0.205-5.237-0.254c-0.074,0.493-0.238,1.469-0.32,1.962
	c-1.519,1.486-2.651,3.292-3.111,5.393c-0.591,4.55-7.083,0.407-6.485,12.452c-0.722,1.19-1.453,2.389-2.192,3.587
	c-1.075,0.386-2.085,0.911-2.709,1.929c-0.969,0.033-1.921,0.066-2.857,0.131c-2.824,2.471-3.62,6.263-4.843,9.645
	c-1.322,3.759-0.156,7.724,0.952,11.385c-1.215,1.765-2.627,3.382-4.112,4.933c-0.829,0.369-1.642,0.763-2.454,1.182
	c0.008,0.591,0.025,1.765,0.033,2.348c-0.624,0.008-1.871,0.016-2.487,0.025c-0.468,1.354-0.927,2.725-1.395,4.104
	c0.476,0,1.428-0.008,1.904-0.016c0.378,0.369,1.149,1.1,1.527,1.469c-7.32,0.324-7.632,1.418-11.295,5.869
	c-2.602-0.131-5.294-0.033-7.289,1.872c-0.55-0.632-1.083-1.248-1.609-1.847c1.461-2.093,2.75-4.301,3.776-6.632
	c-1.494-0.033-2.98,0-4.457,0.049c-0.509,1.469-1.034,2.947-1.527,4.449c-0.345,0.164-1.034,0.492-1.379,0.665
	c-0.279,2.151-0.64,4.309-1.264,6.411c-0.484,0.025-1.445,0.074-1.921,0.099c-2.082,3.722-7.336,20.843-11.91,28.352
	c0.181,0.222,0.55,0.665,0.73,0.878c-0.353,0.09-1.059,0.271-1.412,0.353c-2.099,11.421-4.034,8.55-5.196,13.002
	c-9.612,29.599-11.385,20.275-13.24,32.776c-0.32,0.033-0.96,0.099-1.281,0.131c-0.008,2.003-0.747,3.858-2.093,5.352
	c-2.019,2.175-1.97,5.434-3.866,7.691c-1.108,1.239-1.633,2.815-2.003,4.424c-0.692,7.541-1.81,6.671-4.827,12.526
	c-1.757,3.16-1.494,7.544-4.49,9.875c0.098,2.553-0.304,5.204-2.668,6.673c0.468,1.716,1.051,3.406,1.379,5.196
	c-0.558,1.428-1.428,2.733-2.29,4.014H110.422c0.993-4.654,5.097-8.028,5.418-12.854c1.125-1.395,2.323-2.725,3.595-3.973
	c1.059-2.044,2.167-4.055,3.218-6.082c0.435-0.025,1.313-0.074,1.757-0.099c3.711-9.185,10.943-15.637,9.875-22.474
	c1.806-0.484,2.364-2.274,3.111-3.735c0.419-0.016,1.248-0.057,1.666-0.074c1.338-2.577,3.054-4.941,5.065-7.026
	c0.361-1.871,0.689-3.981,2.602-4.884c1.387-4.014,2.479-8.331,5.368-11.574c1.264-1.633,2.093-3.571,3.587-5.015
	c0.09-0.763,0.181-1.502,0.279-2.224c0.993-0.837,2.036-1.592,2.971-2.471c0.534-2.536,1.576-4.917,2.134-7.429
	c1.724-1.779,3.759-3.077,7.166-9.415c4.614-7.326-4.635-25.118-4.309-37.988c-0.663-0.851-5.592-24.996-5.573-27.703
	c0.026-1.547-1.708-13.188-6.32-25.848c-1.781-5.639-2.003-13.018-7.609-16.367c-1.371-1.527-1.945-3.489-2.52-5.385
	c0.304-0.64,0.616-1.256,0.928-1.855c-2.371-1.028-2.419-3.34-3.661-8.307c-1.74-4.736-3.636-9.481-4.482-14.48
	c-0.312-2.971-2.627-5.237-2.939-8.192c-3.239-20.738-10.334-31.545-12.313-41.255c-3.275-4.161-3.727-9.842-6.608-14.274
	c-0.241-1-5.007-16.672-8.061-20.439c-1.051-2.495-1.075-5.303-2.249-7.749c-1.584-3.333-3.538-6.501-4.531-10.08
	c-1.231-1.387-1.149-3.292-1.387-4.982c-1.732-1.166-1.847-3.39-2.602-5.147c-1.042-3.365-3.538-6.115-4.129-9.637
	c-1.757-9.128-5.516-17.935-10.884-25.528c-2.991-12.112-12.236-24.601-28.491-64.797c-9.521-30.852-9.932-32.948-9.932-32.948
	c-0.845-3.694-0.731-7.576-2.052-11.155c-1.018-2.545-0.64-5.327-1.059-7.954c-14.688-46.963-5-152.839-2.421-164.184l-0.402-0.23
	c0.32-1.584,0.566-3.185,0.583-4.785c-0.22-8.39,4.415-25.455,2.569-29.46c0.205-1.798,0.575-3.579,0.96-5.327
	c3.378-5.704,14.875-70.519,18.387-76.609c0.109-3.84,7.068-26.872,7.864-30.248c5.84-8.537,13.726-42.168,16.794-45.277
	c0.337-1.732,0.205-3.751,1.748-4.95c0.61-11.273,14.466-41.121,14.931-54.421c0.377-7.157,10.05-42.065,10.671-52.55
	c0.136-1.002,8.454-55.782,10.178-61.169c1.161-5.209,11.455-35.659,11.27-39.786c0.509-0.049,1.527-0.14,2.036-0.181
	c0.057-0.845,0.131-1.683,0.197-2.512c-0.542-1.223-1.059-2.438-1.568-3.661c1.034-0.082,2.077-0.164,3.127-0.23
	c4.695-15.28,8.45-21.637,9.505-28.926c5.188-5.647,7.921-13.051,9.834-20.365c-0.016-1.166,1.141-1.461,1.945-1.954
	c0.895-1.724,1.773-3.521,1.847-5.5c1.765-3.193,3.669-6.37,4.4-9.99c3.202-3.468,3.917-7.603,4.761-9.916
	c2.692-2.167,3.603-5.729,5.459-8.537c0.328-0.057,0.985-0.156,1.313-0.213c1.264-4.621,4.835-8.143,6.6-12.575
	c1.543-1.371,2.512-3.193,3.234-5.097c0.895-0.788,1.781-1.576,2.692-2.339c0.115-0.837,0.238-1.658,0.369-2.479
	c3.605-1.3,3.967-5.234,10.408-10.72c0.09-0.189,0.271-0.566,0.353-0.755c1.592-1.551,3.193-3.136,5.237-4.088
	c0.796-0.952,1.601-1.904,2.389-2.865c0.492-0.016,1.494-0.049,1.986-0.066c0.041-0.402,0.115-1.215,0.148-1.617
	c0.493-0.008,1.469-0.025,1.962-0.033c0.87-1.051,1.617-2.192,2.504-3.226c0.484-0.016,1.469-0.033,1.954-0.041
	c0.041-0.41,0.107-1.231,0.14-1.642c0.55,0.008,1.633,0.025,2.175,0.041c2.835-3.866,1.03-4.663,13.256-16.967
	c0.107-0.796,0.213-1.576,0.328-2.356c1.33-0.78,2.512-1.773,3.628-2.84c-0.419-1.576-0.796-3.16-1.198-4.728
	c0.172-0.255,0.525-0.763,0.698-1.018c-0.32-0.025-0.969-0.074-1.297-0.107c-0.599-0.977-1.198-1.945-1.822-2.906
	c-0.353-4.597-3.095-8.684-2.807-13.363c-0.378-0.041-1.133-0.115-1.51-0.156c0.041-2.955-0.057-5.918-0.517-8.84
	c-0.665-4.4-0.164-8.857-0.328-13.281c0.016-2.643-1.945-4.736-2.298-7.297c-0.484-3.842,0.328-7.831-1.042-11.541
	c-0.509-0.025-1.535-0.066-2.044-0.09c0.253-7.125-1.81-2.591-0.156-13.117c-2.339,0.025-4.679,0.066-7.018,0.074
	c0.279-1.502,0.607-2.996,1.092-4.449c2.307-1.847,3.751-4.49,5.45-6.862c0.361-0.074,1.092-0.222,1.453-0.296
	c0.796-1.313,1.691-2.569,2.799-3.636c1.223-3.144,0.714-6.591,1.469-9.834c1.157-3.456-2.824-5.442-3.784-8.43
	c0.772-0.476,1.551-0.936,2.339-1.395c0.066-0.772,0.131-1.535,0.213-2.298c0.772-0.772,1.51-1.584,2.208-2.421
	c-0.033-1.633,0.845-2.848,2.348-3.448c2.98-2.504,0.862-6.247,1.617-9.464c1.73-16.019,0.657-9.333,0.107-16.999
	c-0.402-0.361-1.207-1.084-1.601-1.445c0.378-2.126,0.813-4.236,1.133-6.37c-1.527,0.369-3.045,0.755-4.572,1.116
	c0.263-4.055,4.383-5.869,5.861-9.358c-0.345-1.428-0.993-2.947-0.279-4.375c1.166-2.98,1.428-6.181,2.224-9.259
	c0.673-3.259,4.104-5.163,4.252-8.611c2.208-1.371,2.438-3.94,1.847-6.255c1.232-12.35,4.094-13.487,1.937-19.224
	c0.796-0.878,1.609-1.757,2.397-2.643c1.264-0.098,2.52-0.222,3.792-0.328c-0.09-0.296-0.263-0.87-0.345-1.166
	c3.366-1.323,0.997-4.797,2.594-9.883c0.722-2.06,0.878-4.695,3.004-5.877c-0.369-3.3,0.583-6.485,1.133-9.702
	c1.765-1.141,3.251-2.66,4.35-4.465c0.427-0.025,1.28-0.074,1.707-0.098c0.345-0.763,0.698-1.519,1.051-2.274
	c-0.542-1.223-1.141-2.43-1.535-3.702c0.903-0.739,1.855-1.428,2.807-2.118c0.419-0.049,1.256-0.131,1.683-0.181
	c3.839-3.206,4.348-3.762,6.698-5.286c-0.213-0.296-0.64-0.895-0.854-1.19c1.313,0,2.627,0,3.948,0
	c-0.082-0.312-0.23-0.928-0.304-1.239c1.281-1.141,2.528-2.331,3.702-3.579c0.427-0.033,1.272-0.107,1.691-0.14
	c0.476-1.084,0.969-2.159,1.461-3.234c0.517,0,1.551-0.016,2.069-0.025c-0.164-0.337-0.484-1.018-0.648-1.354
	c1.141-2.709,3.431-4.58,5.294-6.755c0.813-0.057,1.633-0.123,2.463-0.181c0.476-1.937,2.479-1.51,3.989-1.716
	c-0.082-0.254-0.263-0.755-0.353-1.001c4.161-1.994,7.922-13.868,12.148-15.686c0.049-0.296,0.148-0.878,0.197-1.166
	c0.378-0.025,1.116-0.066,1.494-0.082c0.057-0.271,0.164-0.804,0.222-1.075c1.33-0.911,2.036-2.372,2.717-3.792
	c0.928-0.008,1.863-0.016,2.799-0.016c0.041-0.41,0.123-1.231,0.164-1.642c1.034,0,2.077,0,3.119,0
	c0.033-0.402,0.107-1.215,0.14-1.617c0.903-0.033,1.806-0.066,2.717-0.098c1.223-1.281,2.512-2.495,3.841-3.669
	c-0.197-0.181-0.591-0.55-0.788-0.731c1.494-1.1,2.906-2.323,4.211-3.645c0.657-0.033,1.97-0.09,2.627-0.123
	c-0.066-0.287-0.197-0.878-0.263-1.166c0.361-0.435,1.092-1.305,1.461-1.732c1.133-0.378,2.2-0.903,2.955-1.863
	c0.583-0.049,1.74-0.131,2.323-0.172c0.025-0.386,0.074-1.157,0.098-1.543c0.804-0.049,1.609-0.09,2.43-0.14
	c1.88-2.438,5.401-3.185,6.616-6.164c2.372-2.126,5.155-3.924,6.673-6.829c0.509-0.025,1.543-0.066,2.052-0.09
	c0.041-0.394,0.115-1.198,0.148-1.601c0.558,0,1.658-0.008,2.208-0.008c-0.025-0.41-0.074-1.231-0.09-1.642c1.97,0,3.948,0,5.926,0
	c-0.09-0.304-0.271-0.911-0.369-1.215c2.07-0.7,7.241-5.816,15.382-7.24c0.099-0.312,0.287-0.952,0.386-1.272
	c1.207-0.057,2.421-0.107,3.645-0.156c0.057-0.402,0.172-1.198,0.23-1.601c1.116-0.025,2.233-0.041,3.357-0.066
	c0.23-0.599,0.673-1.814,0.895-2.413c-1.034-0.575-2.06-1.133-3.07-1.716c2.881,0.64,5.803,1.149,8.775,0.944
	c0.607-0.566,1.231-1.133,1.863-1.699c0.698,0.016,2.093,0.033,2.791,0.041c0.09-0.378,0.279-1.125,0.378-1.502
	c0.657-0.066,1.97-0.181,2.627-0.238c1.404-0.944,2.774-1.954,4.006-3.136c1.732-0.057,3.464-0.082,5.212-0.09
	c0.074-0.41,0.222-1.231,0.296-1.642c2.93,0.016,5.853,0.016,8.783,0.033c0.131-0.378,0.378-1.125,0.501-1.502
	c3.382,0.107,6.731-1.059,10.104-0.443c1.059,0.337,1.724-0.837,2.569-1.264c1.33-0.049,2.676-0.09,4.022-0.115
	c0.066-0.41,0.197-1.223,0.263-1.625c2.372,0.008,4.744,0.008,7.125,0.016c0.074-0.443,0.213-1.322,0.287-1.765
	c13.932,0.726,1.74,1.278,20.217-0.016c0.238-0.32,0.714-0.952,0.952-1.272c3.587-0.928,7.346-0.353,10.991-0.131
	c0.739,0.607,1.51,1.207,2.257,1.83c0.525-3.193,4.186-1.576,6.386-1.954C480.504,41.343,480.759,40.563,480.89,40.177
	 M270.838,1191.883c-1.379,2.06,1.305,6.829-2.315,6.92c-0.041,0.952-0.082,1.929-0.115,2.914c-0.345,0-1.018-0.008-1.354-0.008
	c-0.476,1.724-2.98,1.97-2.832,3.965c-1.163,6.704,1.231,11.687-1.568,24.568c-0.131,3.406-0.016,6.821-0.46,10.219
	c1.576,0.55,1.748,2.036,0.025,2.545c-1.543,5.147-1.445,10.507-1.732,15.842c0.599,0,1.806,0.008,2.405,0.016
	c1.108-2.487,3.702-3.628,5.45-5.532c0.804-3.029,1.33-6.14,2.504-9.062c0.501-0.14,1.502-0.402,2.003-0.542
	c0.098-1.576,0.181-3.16,0.263-4.712c0.517-0.049,1.543-0.148,2.052-0.197c1.958-2.925,5.472-16.409,6.255-20.307
	c-0.263-0.501-0.78-1.502-1.042-2.003c3.965,0.246,0.706-4.613,3.103-6.304c-0.066-5.138,1.256-10.564-0.796-15.464
	c-0.763-0.895-1.502-1.781-2.249-2.66c-1.256-0.123-2.274-0.772-3.152-1.592C275.14,1190.447,272.004,1189.412,270.838,1191.883
	 M296.686,1244.277c-1.01,3.702-2.504,7.248-3.513,10.966c0.222,0.845,0.443,1.715,0.657,2.61c-0.788,0.41-1.568,0.845-2.339,1.297
	c-0.254,3.71-2.594,7.084-5.409,9.382c-2.84,2.413-6.411,0-9.628,0.427c-5.076-0.648-5.286,20.106,0.181,21.26
	c0.016,1.24,0.025,2.512,0.025,3.792c4.162,3.015,2.232,3.13,10.088,2.307c1.198-2.471,1.822-5.147,2.093-7.855
	c1.387-1.781,1.56-4.006,1.666-6.164c3.127-0.501,1.978-4.301,2.898-6.435c1.51-3.595,1.469-7.683,3.456-11.089
	c1.248-1.962,0.903-4.326,0.731-6.501c0.279,0.476,0.837,1.436,1.108,1.912c2.284-2.747,1.713-7.782,4.071-15.9
	c-1.125,0.033-2.233,0.082-3.349,0.148c-0.057-0.443-0.172-1.33-0.23-1.765C298.254,1243.046,296.777,1242.956,296.686,1244.277
	 M255.251,1265.791c-0.123,0.542-0.369,1.617-0.492,2.159c-0.402-0.033-1.198-0.099-1.601-0.123
	c0.074-0.558,0.222-1.658,0.295-2.216c-0.607,0.164-1.822,0.493-2.43,0.657c-0.46,3.004-1.19,5.926-2.98,8.463
	c-1.138,4.598-2.133,14.974-7.158,27.063c0.164,0.41,0.492,1.223,0.657,1.625c-2.049,1.987-5.215,7.667-5.82,16.515
	c-1.083,0.967-4.324,15.513-4.564,22.86c-1.625,3.144-1.633,6.698-1.732,10.162c-1.412,1.74-1.198,4.137-1.404,6.263
	c0.814,46.314-1.067,18.249-2.019,38.99c0.378,1.28,0.41,2.627,0.279,3.981c-1.13,2.554-4.398,15.126-2.06,18.691
	c-0.632,1.19-1.01,2.807-2.684,2.791c0.033,0.911,0.074,1.839,0.115,2.799c1.125-0.222,2.241-0.443,3.365-0.632
	c4.188-2.758,3.458-1.415,3.07-5.261c-0.115-1.371,1.592-1.01,2.405-1.379c2.38-4.638,4.08-9.595,6.641-14.143
	c0.903-1.51,0.328-3.349,0.632-4.974c3.267-5.787,7.552-11.057,9.522-17.492c3.408-4.961,8.542-19.463,9.07-20.463
	c1.453-3.152,4.432-5.475,5.032-9.029c0.443-3.152,2.848-5.401,3.948-8.282c-0.714-0.181-1.428-0.345-2.142-0.484
	c0.616-0.049,1.839-0.14,2.446-0.189c-0.025-0.378-0.074-1.133-0.098-1.51c2.224-0.361,2.036-3.423,3.431-4.892
	c-0.624-5.097,2.512-9.735,5.697-13.429c2.068-4.908,5.544-16.677,5.647-16.885c-1.141-0.386-2.298-0.706-3.464-0.911
	c-1.092-0.722-1.847-1.773-2.446-2.897c-0.583,0.057-1.748,0.172-2.323,0.23c0.074-0.492,0.222-1.494,0.296-1.995
	c-0.345-0.049-1.042-0.148-1.387-0.197c0.131-2.463-2.635-0.952-3.997-1.231c0.016-0.164,0.049-0.501,0.066-0.665
	c0.624-0.016,1.863-0.057,2.479-0.074c-4.15-5.741-2.265,0.27-9.415-12.748c-1.141-1.896-0.443-4.268-1.51-6.173
	c-0.41-5.04,0.607-10.228-1.363-15.046C256.753,1265.734,255.751,1265.775,255.251,1265.791z"/>
</svg>
