<?xml version="1.0" encoding="iso-8859-1"?>
<!-- Generator: Adobe Illustrator 19.0.0, SVG Export Plug-In . SVG Version: 6.00 Build 0)  -->
<svg version="1.1" id="Layer_1" xmlns="http://www.w3.org/2000/svg" xmlns:xlink="http://www.w3.org/1999/xlink" x="0px" y="0px"
	 viewBox="0 0 512 512" style="enable-background:new 0 0 512 512;" xml:space="preserve">
<circle style="fill:#983262;" cx="256" cy="256" r="256"/>
<path style="fill:#662E57;" d="M512,256c0-14.226-1.179-28.174-3.41-41.769l-51.44-51.912l-22.128,13.253l-49.007-49.004
	L281.943,510.698C411.145,497.695,512,388.627,512,256z"/>
<path style="fill:#FFD863;" d="M393.912,153.248l58.334,6.777c9.568,1.112,9.568,15.003,0,16.113l-58.334,6.777L393.912,153.248
	L393.912,153.248z"/>
<path style="fill:#00BAFF;" d="M181.396,302.818C83.911,241.816,56.441,282.002,10.383,328.34C41.598,434.495,139.74,512,256,512
	c115.705,0,213.463-76.767,245.165-182.141C430.933,354.202,303.332,379.12,181.396,302.818z"/>
<path style="fill:#008CC3;" d="M501.165,329.859c-55.941,19.39-148.282,39.143-245.165,7.82V512
	C371.705,512,469.463,435.233,501.165,329.859z"/>
<path style="fill:#FFFFFF;" d="M85.333,326.535c0,55.301,44.83,100.13,100.131,100.13h112.628c55.301,0,100.13-44.83,100.13-100.13
	V156.444c0-23.288-18.658-42.218-41.841-42.658c-23.917-0.455-43.492,19.697-43.492,43.618v70.151L85.333,326.535z"/>
<path style="fill:#E0E0E0;" d="M356.381,113.785c-23.917-0.453-43.492,19.699-43.492,43.62v70.151L256,252.301v174.366h42.091
	c55.301,0,100.13-44.83,100.13-100.13V156.444C398.222,133.156,379.564,114.224,356.381,113.785z"/>
<circle style="fill:#175D76;" cx="355.556" cy="156.444" r="8.62"/>
<path style="fill:#E0E0E0;" d="M86.43,341.333h178.047c26.738,0,48.412-21.675,48.412-48.412v-65.365L85.333,326.537
	C85.333,331.564,85.714,336.503,86.43,341.333z"/>
<path style="fill:#C0C0C0;" d="M256,252.301v89.033h8.476c26.738,0,48.412-21.675,48.412-48.412v-65.365L256,252.301z"/>
<path style="fill:#008CC3;" d="M15.21,343.099C50.848,441.604,145.199,512,256,512c100.054,0,186.689-57.408,228.797-141.072
	c-33.608-38.71-62.448-64.257-150.907-22.447C205.884,408.979,81.084,372.221,15.21,343.099z"/>
<path style="fill:#0074A3;" d="M484.797,370.928c-33.608-38.71-62.448-64.257-150.907-22.447
	c-26.259,12.41-52.381,20.723-77.89,25.853V512C356.054,512,442.689,454.592,484.797,370.928z"/>
<g>
</g>
<g>
</g>
<g>
</g>
<g>
</g>
<g>
</g>
<g>
</g>
<g>
</g>
<g>
</g>
<g>
</g>
<g>
</g>
<g>
</g>
<g>
</g>
<g>
</g>
<g>
</g>
<g>
</g>
</svg>
