<svg height="512" viewBox="0 0 512 512" width="512" xmlns="http://www.w3.org/2000/svg"><g id="Blue"><rect fill="#90b6f9" height="464" rx="96" width="464" x="24" y="24"/><path d="m442.888 69.112a71.78 71.78 0 0 1 21.112 50.888v272a72.081 72.081 0 0 1 -72 72h-272a71.78 71.78 0 0 1 -50.888-21.112l-16.994 16.994a95.7 95.7 0 0 0 67.882 28.118h272a96 96 0 0 0 96-96v-272a95.7 95.7 0 0 0 -28.118-67.882z" fill="#6498f6"/><path d="m48 392v-272a72.081 72.081 0 0 1 72-72h272a71.78 71.78 0 0 1 50.888 21.112l16.994-16.994a95.7 95.7 0 0 0 -67.882-28.118h-272a96 96 0 0 0 -96 96v272a95.7 95.7 0 0 0 28.118 67.882l16.994-16.994a71.78 71.78 0 0 1 -21.112-50.888z" fill="#bbd1fb"/><g fill="#0444b7"><path d="m392 16h-272a104.118 104.118 0 0 0 -104 104v272a104.118 104.118 0 0 0 104 104h272a104.118 104.118 0 0 0 104-104v-272a104.118 104.118 0 0 0 -104-104zm88 376a88.1 88.1 0 0 1 -88 88h-272a88.1 88.1 0 0 1 -88-88v-272a88.1 88.1 0 0 1 88-88h272a88.1 88.1 0 0 1 88 88z"/><path d="m349.657 213.657 64-64a8 8 0 0 0 0-11.314l-64-64-11.314 11.314 50.344 50.343h-220.687a72 72 0 0 0 0 144h176a56 56 0 0 1 0 112h-208v16h208a72 72 0 0 0 0-144h-176a56 56 0 0 1 0-112h220.687l-50.344 50.343z"/></g></g></svg>