<svg height="512" viewBox="0 0 512 512" width="512" xmlns="http://www.w3.org/2000/svg"><g id="Flat"><rect fill="#43a047" height="464" rx="96" width="464" x="24" y="24"/><path d="m459.882 52.118-11.34 11.34a79.751 79.751 0 0 1 23.458 56.542v272a80.091 80.091 0 0 1 -80 80h-272a79.751 79.751 0 0 1 -56.542-23.458l-11.34 11.34a95.7 95.7 0 0 0 67.882 28.118h272a96 96 0 0 0 96-96v-272a95.7 95.7 0 0 0 -28.118-67.882z" fill="#388e3c"/><path d="m40 392v-272a80.091 80.091 0 0 1 80-80h272a79.751 79.751 0 0 1 56.542 23.458l11.34-11.34a95.7 95.7 0 0 0 -67.882-28.118h-272a96 96 0 0 0 -96 96v272a95.7 95.7 0 0 0 28.118 67.882l11.34-11.34a79.751 79.751 0 0 1 -23.458-56.542z" fill="#66bb6a"/><path d="m349.657 213.657 64-64a8 8 0 0 0 0-11.314l-64-64-11.314 11.314 50.344 50.343h-220.687a72 72 0 0 0 0 144h176a56 56 0 0 1 0 112h-208v16h208a72 72 0 0 0 0-144h-176a56 56 0 0 1 0-112h220.687l-50.344 50.343z" fill="#f1f1f1"/></g></svg>