<svg height="512" viewBox="0 0 512 512" width="512" xmlns="http://www.w3.org/2000/svg"><g id="Blue"><path d="m376 264h-240a64 64 0 0 1 0-128h273.941l-24 24a22.627 22.627 0 0 0 0 32 22.628 22.628 0 0 0 32 0l63.03-63.03a24 24 0 0 0 0-33.941l-63.03-63.029a22.627 22.627 0 0 0 -32 0 22.627 22.627 0 0 0 0 32l24 24h-273.941a112 112 0 0 0 0 224h240a64 64 0 0 1 0 128h-272a24 24 0 0 0 0 48h272a112 112 0 0 0 0-224z" fill="#6498f6"/><path d="m376 496h-272a32.092 32.092 0 0 1 0-64.183h272a56.161 56.161 0 0 0 0-112.317h-240c-66.168 0-120-53.986-120-120.344s53.832-120.349 120-120.349h254.628l-10.344-10.372a30.672 30.672 0 1 1 43.316-43.435l63.029 63.21a32.2 32.2 0 0 1 0 45.386l-63.029 63.204a30.672 30.672 0 0 1 -43.314-43.439l10.343-10.372h-254.629a56.161 56.161 0 0 0 0 112.321h240c66.168 0 120 53.986 120 120.344s-53.832 120.346-120 120.346zm-272-48.138a16.046 16.046 0 0 0 0 32.092h272c57.346 0 104-46.788 104-104.3s-46.654-104.3-104-104.3h-240a72.207 72.207 0 0 1 0-144.413h273.941a8.027 8.027 0 0 1 5.658 13.7l-24 24.069a14.648 14.648 0 0 0 20.686 20.745l63.028-63.21a16.074 16.074 0 0 0 0-22.692l-63.029-63.21a14.648 14.648 0 0 0 -20.684 20.745l24 24.069a8.026 8.026 0 0 1 -5.658 13.7h-273.942c-57.346 0-104 46.788-104 104.3s46.654 104.3 104 104.3h240a72.206 72.206 0 0 1 0 144.412z" fill="#0444b7"/></g></svg>