<svg xmlns="http://www.w3.org/2000/svg" height="512pt" version="1.1" viewBox="0 0 512 512" width="512pt">
<g id="surface1">
<path d="M 512 256 C 512 397.386719 397.386719 512 256 512 C 114.613281 512 0 397.386719 0 256 C 0 114.613281 114.613281 0 256 0 C 397.386719 0 512 114.613281 512 256 Z M 512 256 " style=" stroke:none;fill-rule:nonzero;fill:rgb(70.980392%,88.627451%,21.568627%);fill-opacity:1;" />
<path d="M 512 256 C 512 282.050781 508.109375 307.191406 500.871094 330.871094 C 495.839844 347.339844 489.199219 363.101562 481.121094 377.980469 C 472.871094 393.179688 463.121094 407.441406 452.070312 420.589844 C 451.488281 421.28125 450.910156 421.96875 450.320312 422.648438 C 403.378906 477.351562 333.730469 512 256 512 C 178.269531 512 108.621094 477.351562 61.691406 422.648438 C 61.101562 421.960938 60.511719 421.269531 59.941406 420.578125 C 48.878906 407.441406 39.128906 393.179688 30.890625 377.980469 C 27.601562 371.949219 24.558594 365.769531 21.769531 359.449219 C 7.769531 327.820312 0 292.820312 0 256 C 0 209.78125 12.25 166.429688 33.679688 129 C 77.800781 206.070312 160.839844 258 256 258 C 351.160156 258 434.210938 206.070312 478.320312 129 C 499.75 166.429688 512 209.78125 512 256 Z M 512 256 " style=" stroke:none;fill-rule:nonzero;fill:rgb(58.431373%,83.921569%,0%);fill-opacity:1;" />
<path d="M 270.277344 330.007812 L 281.179688 330.007812 L 281.179688 389.222656 L 270.277344 389.222656 Z M 270.277344 330.007812 " style=" stroke:none;fill-rule:nonzero;fill:rgb(100%,91.372549%,33.333333%);fill-opacity:1;" />
<path d="M 231.105469 330.007812 L 242.007812 330.007812 L 242.007812 389.222656 L 231.105469 389.222656 Z M 231.105469 330.007812 " style=" stroke:none;fill-rule:nonzero;fill:rgb(100%,91.372549%,33.333333%);fill-opacity:1;" />
<path d="M 260.847656 330.007812 C 260.847656 343.652344 249.789062 354.714844 236.140625 354.714844 C 222.496094 354.714844 211.433594 343.652344 211.433594 330.007812 C 211.433594 316.359375 222.496094 305.300781 236.140625 305.300781 C 249.789062 305.300781 260.847656 316.359375 260.847656 330.007812 Z M 260.847656 330.007812 " style=" stroke:none;fill-rule:nonzero;fill:rgb(100%,100%,100%);fill-opacity:1;" />
<path d="M 300.4375 325.644531 C 300.4375 339.292969 289.375 350.351562 275.730469 350.351562 C 262.082031 350.351562 251.023438 339.292969 251.023438 325.644531 C 251.023438 312 262.082031 300.9375 275.730469 300.9375 C 289.375 300.9375 300.4375 312 300.4375 325.644531 Z M 300.4375 325.644531 " style=" stroke:none;fill-rule:nonzero;fill:rgb(100%,100%,100%);fill-opacity:1;" />
<path d="M 459.136719 311.859375 L 327.492188 335.535156 C 293.300781 341.683594 258.640625 344.769531 223.902344 344.769531 L 207.101562 344.769531 C 206.324219 344.769531 205.546875 344.765625 204.769531 344.75 C 130.351562 343.222656 80.371094 267.589844 106.761719 197.996094 L 119.109375 165.441406 L 133.234375 128.191406 C 135.828125 121.347656 140.40625 115.664062 146.164062 111.691406 C 151.917969 107.714844 158.859375 105.453125 166.175781 105.453125 C 166.777344 105.453125 167.375 105.46875 167.972656 105.5 C 189.160156 106.554688 204.792969 126.136719 200.789062 147.246094 L 191.429688 196.582031 L 412.105469 291.609375 Z M 459.136719 311.859375 " style=" stroke:none;fill-rule:nonzero;fill:rgb(81.568627%,96.470588%,100%);fill-opacity:1;" />
<path d="M 412.105469 291.605469 L 367.214844 299.679688 C 333.03125 305.828125 298.359375 308.921875 263.625 308.921875 L 246.832031 308.921875 C 246.046875 308.921875 245.269531 308.914062 244.496094 308.894531 C 170.078125 307.375 120.089844 231.742188 146.484375 162.148438 L 158.835938 129.59375 L 167.972656 105.496094 C 189.160156 106.550781 204.792969 126.136719 200.789062 147.246094 L 191.429688 196.578125 Z M 412.105469 291.605469 " style=" stroke:none;fill-rule:nonzero;fill:rgb(100%,100%,100%);fill-opacity:1;" />
<path d="M 435.078125 301.59375 L 279.445312 301.59375 C 233.898438 301.59375 194.828125 274.46875 177.253906 235.664062 C 166.714844 212.398438 186.953125 186.761719 212.050781 191.488281 C 212.199219 191.515625 212.347656 191.546875 212.496094 191.574219 C 248.867188 198.46875 283.878906 211.6875 315.902344 230.726562 L 371.4375 263.746094 Z M 435.078125 301.59375 " style=" stroke:none;fill-rule:nonzero;fill:rgb(19.607843%,23.137255%,35.294118%);fill-opacity:1;" />
<path d="M 371.4375 263.746094 L 317.300781 263.746094 C 269.339844 263.746094 228.570312 233.683594 212.496094 191.574219 C 248.867188 198.46875 283.878906 211.6875 315.902344 230.726562 Z M 371.4375 263.746094 " style=" stroke:none;fill-rule:nonzero;fill:rgb(12.54902%,15.294118%,22.745098%);fill-opacity:1;" />
<path d="M 151.589844 127.25 C 151.589844 130.082031 149.292969 132.378906 146.460938 132.378906 C 143.625 132.378906 141.328125 130.082031 141.328125 127.25 C 141.328125 124.417969 143.625 122.121094 146.460938 122.121094 C 149.292969 122.121094 151.589844 124.417969 151.589844 127.25 Z M 151.589844 127.25 " style=" stroke:none;fill-rule:nonzero;fill:rgb(19.607843%,23.137255%,35.294118%);fill-opacity:1;" />
<path d="M 170.878906 127.25 C 170.878906 130.082031 168.582031 132.378906 165.75 132.378906 C 162.917969 132.378906 160.621094 130.082031 160.621094 127.25 C 160.621094 124.417969 162.917969 122.121094 165.75 122.121094 C 168.582031 122.121094 170.878906 124.417969 170.878906 127.25 Z M 170.878906 127.25 " style=" stroke:none;fill-rule:nonzero;fill:rgb(19.607843%,23.137255%,35.294118%);fill-opacity:1;" />
<path d="M 173.359375 151.578125 C 173.359375 153.429688 171.851562 154.929688 170 154.929688 L 147.691406 154.929688 C 128.691406 154.929688 109.859375 158.398438 92.109375 165.160156 L 82.640625 168.761719 C 93.578125 148.160156 115.011719 135.269531 138.339844 135.269531 L 157.050781 135.269531 C 161.550781 135.269531 165.628906 137.089844 168.578125 140.050781 C 170 141.46875 171.171875 143.160156 171.988281 145.03125 C 172.871094 147.03125 173.359375 149.25 173.359375 151.578125 Z M 173.359375 151.578125 " style=" stroke:none;fill-rule:nonzero;fill:rgb(100%,91.372549%,33.333333%);fill-opacity:1;" />
<path d="M 173.359375 151.578125 C 173.359375 153.429688 171.851562 154.929688 170 154.929688 L 147.691406 154.929688 C 128.691406 154.929688 109.859375 158.398438 92.109375 165.160156 L 82.640625 168.761719 C 82.640625 168.761719 111.960938 136.960938 171.988281 145.03125 C 172.871094 147.03125 173.359375 149.25 173.359375 151.578125 Z M 173.359375 151.578125 " style=" stroke:none;fill-rule:nonzero;fill:rgb(100%,62.352941%,0%);fill-opacity:1;" />
<path d="M 481.261719 377.699219 C 474.101562 390.921875 465.828125 403.441406 456.539062 415.128906 C 448.101562 425.761719 438.820312 435.699219 428.820312 444.851562 C 383.28125 486.550781 322.609375 512 256 512 C 189.390625 512 128.71875 486.550781 83.179688 444.851562 C 73.179688 435.699219 63.898438 425.761719 55.460938 415.128906 C 46.171875 403.441406 37.898438 390.921875 30.738281 377.699219 Z M 481.261719 377.699219 " style=" stroke:none;fill-rule:nonzero;fill:rgb(92.156863%,46.666667%,13.333333%);fill-opacity:1;" />
<path d="M 428.820312 444.851562 C 383.28125 486.550781 322.609375 512 256 512 C 189.390625 512 128.71875 486.550781 83.179688 444.851562 Z M 428.820312 444.851562 " style=" stroke:none;fill-rule:nonzero;fill:rgb(65.098039%,22.352941%,7.843137%);fill-opacity:1;" />
<path d="M 353.199219 141.277344 C 353.84375 140.589844 354.15625 140.253906 354.800781 139.566406 C 354.023438 128.238281 344.589844 119.289062 333.0625 119.289062 C 330.648438 119.289062 328.328125 119.683594 326.160156 120.410156 C 325.476562 120.640625 324.714844 120.375 324.335938 119.761719 C 319.355469 111.703125 310.445312 106.332031 300.277344 106.332031 C 286.960938 106.332031 275.800781 115.542969 272.804688 127.941406 C 272.625 128.691406 271.914062 129.175781 271.148438 129.128906 C 270.847656 129.113281 270.546875 129.105469 270.242188 129.105469 C 263.550781 129.105469 257.828125 133.238281 255.484375 139.089844 C 255.0625 140.136719 255.847656 141.277344 256.972656 141.277344 Z M 353.199219 141.277344 " style=" stroke:none;fill-rule:nonzero;fill:rgb(100%,100%,100%);fill-opacity:1;" />
<path d="M 331.890625 141.277344 C 332.558594 140.492188 332.800781 140.207031 333.46875 139.421875 C 332.621094 133.324219 327.386719 128.632812 321.058594 128.632812 C 319.839844 128.632812 318.664062 128.808594 317.550781 129.132812 C 316.882812 129.328125 316.167969 129.082031 315.785156 128.503906 C 312.878906 124.09375 307.882812 121.183594 302.207031 121.183594 C 294.726562 121.183594 288.429688 126.238281 286.539062 133.117188 C 286.34375 133.824219 285.6875 134.277344 284.949219 134.277344 C 284.945312 134.277344 284.941406 134.277344 284.9375 134.277344 C 281.527344 134.277344 278.550781 136.148438 276.980469 138.917969 C 276.386719 139.96875 277.179688 141.277344 278.386719 141.277344 Z M 331.890625 141.277344 " style=" stroke:none;fill-rule:nonzero;fill:rgb(81.568627%,96.470588%,100%);fill-opacity:1;" />
<path d="M 87.59375 264.871094 C 88.128906 264.296875 88.394531 264.015625 88.929688 263.441406 C 88.28125 253.972656 80.394531 246.496094 70.761719 246.496094 C 68.746094 246.496094 66.808594 246.824219 64.996094 247.433594 C 64.425781 247.621094 63.789062 247.402344 63.472656 246.890625 C 59.308594 240.15625 51.863281 235.667969 43.363281 235.667969 C 32.234375 235.667969 22.90625 243.367188 20.402344 253.730469 C 20.253906 254.355469 19.660156 254.757812 19.019531 254.722656 C 18.769531 254.707031 18.515625 254.699219 18.261719 254.699219 C 12.671875 254.699219 7.886719 258.152344 5.925781 263.046875 C 5.574219 263.917969 6.230469 264.871094 7.171875 264.871094 Z M 87.59375 264.871094 " style=" stroke:none;fill-rule:nonzero;fill:rgb(100%,100%,100%);fill-opacity:1;" />
<path d="M 69.78125 264.871094 C 70.34375 264.214844 70.542969 263.976562 71.105469 263.320312 C 70.394531 258.226562 66.023438 254.304688 60.730469 254.304688 C 59.714844 254.304688 58.730469 254.449219 57.800781 254.722656 C 57.242188 254.886719 56.644531 254.679688 56.324219 254.195312 C 53.894531 250.511719 49.722656 248.078125 44.976562 248.078125 C 38.726562 248.078125 33.460938 252.304688 31.878906 258.050781 C 31.71875 258.644531 31.167969 259.023438 30.554688 259.019531 C 30.550781 259.019531 30.546875 259.019531 30.542969 259.019531 C 27.691406 259.019531 25.203125 260.585938 23.894531 262.898438 C 23.394531 263.777344 24.058594 264.871094 25.066406 264.871094 Z M 69.78125 264.871094 " style=" stroke:none;fill-rule:nonzero;fill:rgb(81.568627%,96.470588%,100%);fill-opacity:1;" />
<path d="M 499.078125 242.203125 C 499.722656 241.519531 500.039062 241.183594 500.679688 240.496094 C 499.902344 229.164062 490.46875 220.21875 478.941406 220.21875 C 476.527344 220.21875 474.210938 220.613281 472.042969 221.339844 C 471.359375 221.566406 470.597656 221.304688 470.21875 220.691406 C 465.238281 212.632812 456.328125 207.261719 446.160156 207.261719 C 432.839844 207.261719 421.679688 216.472656 418.6875 228.871094 C 418.503906 229.617188 417.796875 230.101562 417.027344 230.058594 C 416.730469 230.039062 416.429688 230.03125 416.125 230.03125 C 409.433594 230.03125 403.710938 234.164062 401.363281 240.019531 C 400.945312 241.0625 401.726562 242.203125 402.851562 242.203125 Z M 499.078125 242.203125 " style=" stroke:none;fill-rule:nonzero;fill:rgb(100%,100%,100%);fill-opacity:1;" />
<path d="M 477.769531 242.203125 C 478.441406 241.417969 478.679688 241.136719 479.351562 240.351562 C 478.503906 234.253906 473.269531 229.5625 466.941406 229.5625 C 465.722656 229.5625 464.542969 229.738281 463.429688 230.0625 C 462.765625 230.257812 462.046875 230.011719 461.664062 229.429688 C 458.757812 225.023438 453.765625 222.109375 448.089844 222.109375 C 440.609375 222.109375 434.3125 227.164062 432.417969 234.046875 C 432.222656 234.753906 431.566406 235.207031 430.832031 235.203125 C 430.828125 235.203125 430.824219 235.203125 430.820312 235.203125 C 427.40625 235.203125 424.433594 237.074219 422.863281 239.847656 C 422.265625 240.898438 423.058594 242.203125 424.269531 242.203125 Z M 477.769531 242.203125 " style=" stroke:none;fill-rule:nonzero;fill:rgb(81.568627%,96.470588%,100%);fill-opacity:1;" />
<path d="M 119.859375 77.273438 C 119.191406 76.558594 118.863281 76.210938 118.195312 75.5 C 119.003906 63.742188 128.796875 54.453125 140.761719 54.453125 C 143.265625 54.453125 145.671875 54.863281 147.921875 55.617188 C 148.632812 55.851562 149.421875 55.578125 149.816406 54.945312 C 154.984375 46.578125 164.234375 41.003906 174.785156 41.003906 C 188.609375 41.003906 200.195312 50.566406 203.300781 63.4375 C 203.488281 64.214844 204.226562 64.714844 205.023438 64.667969 C 205.332031 64.648438 205.644531 64.640625 205.960938 64.640625 C 212.90625 64.640625 218.84375 68.933594 221.28125 75.007812 C 221.714844 76.089844 220.90625 77.273438 219.734375 77.273438 Z M 119.859375 77.273438 " style=" stroke:none;fill-rule:nonzero;fill:rgb(100%,100%,100%);fill-opacity:1;" />
<path d="M 141.976562 77.273438 C 141.28125 76.457031 141.03125 76.164062 140.335938 75.347656 C 141.214844 69.019531 146.648438 64.148438 153.21875 64.148438 C 154.480469 64.148438 155.703125 64.332031 156.859375 64.671875 C 157.550781 64.871094 158.296875 64.617188 158.691406 64.015625 C 161.707031 59.4375 166.890625 56.417969 172.78125 56.417969 C 180.546875 56.417969 187.082031 61.664062 189.046875 68.804688 C 189.25 69.539062 189.933594 70.007812 190.695312 70.007812 C 190.699219 70.007812 190.703125 70.007812 190.710938 70.007812 C 194.25 70.007812 197.339844 71.949219 198.96875 74.824219 C 199.585938 75.917969 198.765625 77.273438 197.507812 77.273438 Z M 141.976562 77.273438 " style=" stroke:none;fill-rule:nonzero;fill:rgb(81.568627%,96.470588%,100%);fill-opacity:1;" />
</g>
</svg>