<svg id="Layer_1" enable-background="new 0 0 511.693 511.693" height="512" viewBox="0 0 511.693 511.693" width="512" xmlns="http://www.w3.org/2000/svg"><g><g><path d="m195.361 433.056h30v63.638h-30z" fill="#ffb655"/></g><g><path d="m258.999 419.261h30v77.433h-30z" fill="#ffb655"/></g><g><path d="m258.999 419.261h30v77.433h-30z" fill="#ff7c48"/></g><g><path d="m414.591 81.447h44.276v30h-44.276z" fill="#ffb655"/></g><g><path d="m414.591 81.447h44.276v30h-44.276z" fill="#ff7c48"/></g><path d="m333.144 0h-18.872c-38.11 0-72.717 22.511-88.167 57.348l-44.859 101.155v289.574h29.53c99.483 0 180.418-80.936 180.418-180.419v-92.864l10.147-10.148c18.217-18.217 28.249-42.437 28.249-68.198.001-53.182-43.265-96.448-96.446-96.448z" fill="#ffda44"/><path d="m391.195 267.658v-92.864l10.147-10.148c18.217-18.217 28.249-42.437 28.249-68.198 0-53.182-43.266-96.448-96.447-96.448h-18.872c-27.992 0-54.083 12.156-72.092 32.409v412.927c84.565-14.905 149.015-88.904 149.015-177.678z" fill="#ffb655"/><g><path d="m325.963 64.327h30.001v30h-30.001z" fill="#60382c"/></g><path d="m189.246 146.68h-2.756l-133.662 301.397h136.418c58.913 0 106.841-47.929 106.841-106.842v-87.715c0-58.912-47.928-106.84-106.841-106.84z" fill="#fff68e"/><g><path d="m52.826 481.693h406.041v30h-406.041z" fill="#c1674c"/></g><g><path d="m325.963 64.327h30.001v30h-30.001z" fill="#3c1b13"/></g><path d="m242.18 481.693h216.687v30h-216.687z" fill="#8c4a50"/><path d="m242.18 160.74v273.276c32.179-18.431 53.907-53.115 53.907-92.781v-87.715c0-39.665-21.728-74.349-53.907-92.78z" fill="#ffda44"/></g></svg>