<svg id="Capa_1" enable-background="new 0 0 511.842 511.842" height="512" viewBox="0 0 511.842 511.842" width="512" xmlns="http://www.w3.org/2000/svg"><g><g><path d="m421.842 345.921c-8.291 0-15-6.709-15-15v-210c0-8.291 6.709-15 15-15s15 6.709 15 15v210c0 8.291-6.709 15-15 15z" fill="#ffe14d"/></g><g><path d="m329.842 210.921c0 1.199 0 2.399-.3 3.6l-29.7 238.2c-1.199 7.5-7.5 13.2-15 13.2h-180c-7.5 0-13.801-5.7-15-13.2l-13.5-106.8-3.6-30-9-72.601s-3.9-31.8-3.6-32.399l134.85-30z" fill="#9df"/></g><path d="m436.842 330.921v-210c0-8.291-6.709-15-15-15v240c8.291 0 15-6.709 15-15z" fill="#fb3"/><path d="m194.842 180.954v284.967h90c7.5 0 13.801-5.7 15-13.2l29.7-238.2c.3-1.201.3-2.401.3-3.6l-134.85-30z" fill="#66b3ff"/><path d="m329.842 210.921c0 1.2 0 2.4-.3 3.6-12.217 42.611-56.241 91.911-134.7 115.58-31.69 9.55-70.66 15.69-118.5 15.82h-1.5c-15 0-60.3 0-72.3-31.5-15-39 40.5-94.5 58.8-111.3-.9 2.7-1.2 5.1-1.2 7.8-.3.6 3.6 32.4 3.6 32.4-20.4 22.5-37.8 48.6-33.3 60.6 1.2 2.7 7.2 11.7 42.3 12h2.1c50.14 0 89.38-7.03 120-17.51 74.82-25.61 98.22-71.82 103.71-86.43.14-.38.27-.73.39-1.06.9-2.1 1.2-3.6 1.2-3.6 2.1-8.1 10.2-12.9 18.3-10.8 6.9 1.5 11.4 7.5 11.4 14.4z" fill="#f0f7ff"/><path d="m329.842 210.921c0 1.2 0 2.4-.3 3.6-12.217 42.611-56.241 91.911-134.7 115.58v-31.69c74.82-25.61 98.22-71.82 103.71-86.43.14-.38.27-.73.39-1.06.9-2.1 1.2-3.6 1.2-3.6 2.1-8.1 10.2-12.9 18.3-10.8 6.9 1.5 11.4 7.5 11.4 14.4z" fill="#dfe7f4"/><path d="m260.843 145.521c-12.9-24.3-38.101-39.6-66-39.6s-53.101 15.3-66 39.6c-38.699 11.4-63.3 32.1-67.5 57.599-.899 2.699-1.199 5.099-1.199 7.8h269.7c-.002-28.499-25.501-52.499-69.001-65.399z" fill="#ffe14d"/><path d="m329.842 210.921c0-28.5-25.499-52.5-69-65.4-12.9-24.3-38.101-39.6-66-39.6v105z" fill="#fb3"/><g><g><path d="m496.842 465.921h-150c-8.291 0-15-6.709-15-15v-45c0-49.629 40.371-90 90-90s90 40.371 90 90v45c0 8.291-6.709 15-15 15z" fill="#ff9580"/></g></g><path d="m496.842 465.921c8.291 0 15-6.709 15-15v-45c0-49.629-40.371-90-90-90v150z" fill="#f66"/><g id="Bucket_2_"><g><g><path d="m421.842 135.921c-33.076 0-60-26.909-60-60v-15c0-8.291 6.709-15 15-15h90c8.291 0 15 6.709 15 15v15c0 33.091-26.924 60-60 60zm-30-60c0 16.538 13.447 30 30 30s30-13.462 30-30z" fill="#ff9580"/></g></g></g><path d="m481.842 75.921v-15c0-8.291-6.709-15-15-15h-45v30h30c0 16.538-13.447 30-30 30v30c33.076 0 60-26.909 60-60z" fill="#f66"/></g></svg>