<?xml version="1.0" standalone="no"?>
<!DOCTYPE svg PUBLIC "-//W3C//DTD SVG 20010904//EN"
 "http://www.w3.org/TR/2001/REC-SVG-20010904/DTD/svg10.dtd">
<svg version="1.0" xmlns="http://www.w3.org/2000/svg"
 width="900.000000pt" height="567.000000pt" viewBox="0 0 900.000000 567.000000"
 preserveAspectRatio="xMidYMid meet">
<metadata>
Created by potrace 1.12, written by Peter Selinger 2001-2015
</metadata>
<g transform="translate(0.000000,567.000000) scale(0.100000,-0.100000)"
fill="#000000" stroke="none">
<path d="M1868 5614 l-16 -16 -38 -1 -39 0 -36 -29 -37 -28 -21 0 -20 0 -38
-17 -38 -18 -52 -55 -53 -55 -14 -15 -14 -15 -25 -17 -25 -18 -31 -61 -31 -62
0 -36 -1 -36 -14 -40 -15 -40 0 -66 0 -66 -37 -36 -36 -37 -17 0 -18 0 -12
-15 -12 -15 -27 0 -26 -1 -19 -14 -20 -15 -18 0 -18 0 -23 -12 -22 -11 -15 -9
-15 -8 -25 -10 -25 -11 -30 -13 -30 -14 -55 -25 -55 -25 -80 -38 -79 -37 -14
-13 -13 -14 -19 0 -18 0 -4 -8 -3 -8 -65 -33 -65 -34 -27 -21 -27 -21 -38 -29
-38 -30 -35 -42 -35 -43 -33 -38 -33 -38 3 -25 3 -25 26 -3 27 -3 48 45 48 46
12 0 12 0 12 15 12 15 19 0 18 0 13 13 13 14 28 7 27 6 65 40 65 40 25 0 25 0
37 20 38 20 12 0 13 0 18 9 17 9 43 21 43 21 22 0 22 1 19 14 20 15 17 0 17 0
12 15 12 15 32 0 31 1 25 14 25 14 30 1 30 1 19 14 20 15 35 0 36 1 25 14 25
14 27 1 27 0 44 -30 44 -29 84 -83 84 -83 1 -33 1 -34 10 -7 11 -6 7 -42 7
-43 9 0 9 0 0 -23 0 -23 -11 -11 -10 -10 -5 -185 -4 -186 15 -12 15 -12 0 -73
0 -73 15 -6 15 -5 0 -51 0 -51 15 -5 15 -6 0 -24 0 -25 15 -5 15 -6 0 -33 0
-33 15 -6 15 -5 0 -24 0 -25 15 -12 15 -12 0 -18 0 -18 15 -12 15 -12 0 -13 0
-13 15 -12 15 -12 0 -19 0 -19 10 0 10 0 20 -20 20 -20 0 -15 0 -16 30 -29 30
-29 0 -11 0 -10 15 0 15 0 0 -24 0 -24 15 -6 15 -5 0 -16 0 -15 15 0 15 0 0
-15 0 -15 14 0 14 0 6 -17 5 -18 13 -19 13 -20 28 -27 27 -28 0 -11 0 -10 10
0 10 0 20 -20 20 -20 0 -10 0 -10 15 0 15 0 0 -15 0 -15 13 0 12 -1 25 -29 24
-30 23 0 24 0 5 -15 6 -15 19 0 20 0 5 -15 6 -15 28 0 29 0 6 -20 6 -20 23 6
23 5 6 -15 6 -16 26 0 25 0 0 -14 0 -14 25 -6 25 -6 0 -10 0 -10 20 0 21 0 5
-15 6 -15 23 0 23 0 12 -15 12 -15 33 0 33 0 6 -15 5 -15 25 0 24 0 6 -15 5
-15 24 0 25 0 12 -15 12 -15 64 0 64 0 0 -15 0 -15 60 0 61 0 5 -15 6 -15 68
0 68 0 12 -15 12 -15 83 0 83 0 5 -13 5 -13 67 -2 67 -3 22 14 21 14 86 5 87
6 11 -8 12 -7 16 -29 17 -29 -2 -238 -2 -237 -10 -20 -10 -19 -10 -93 -9 -93
-13 -77 -13 -76 -7 -8 -8 -7 0 -26 1 -26 14 -40 14 -40 -8 -8 -9 -9 -7 21 -6
21 -14 0 -14 0 -3 -52 -3 -53 -24 -1 -24 -1 -14 -19 -13 -18 -46 -2 -46 -2
-11 -11 -11 -11 -32 0 -32 0 -17 6 -17 7 -9 24 -9 24 -10 -6 -10 -6 0 -30 0
-29 -14 0 -14 0 -12 -15 -12 -15 -14 0 -14 0 -20 20 -20 20 0 24 0 25 -10 6
-11 7 9 11 9 12 6 112 6 111 -13 11 -13 11 -13 -14 -12 -15 6 -10 6 -9 -13
-14 -14 -13 -16 -35 -16 -35 -15 -45 -16 -45 0 -7 0 -8 15 0 15 0 0 21 0 20
18 -3 17 -4 -3 -19 -3 -20 0 -24 1 -25 20 -21 20 -21 0 -12 0 -12 -20 0 -20 0
0 13 -1 12 -29 29 -30 29 0 14 0 14 -15 5 -15 6 0 33 0 34 -10 6 -11 7 -14
-12 -14 -11 6 -37 5 -37 23 -21 24 -22 13 -5 13 -5 -22 -17 -23 -16 0 -22 -1
-22 -14 19 -15 19 6 22 5 22 -15 6 -16 6 0 16 0 15 -11 0 -12 0 6 83 5 82 -6
50 -7 50 -16 3 -17 3 -16 -32 -16 -32 0 -14 0 -14 -15 -5 -15 -6 0 -18 0 -19
-13 -13 -13 -13 -7 -15 -7 -15 -15 -21 -15 -20 14 -20 15 -19 11 33 12 32 6 0
7 0 10 -8 10 -7 22 -32 23 -32 0 -16 0 -15 -12 0 -12 0 -22 -27 -22 -28 -124
0 -123 0 -13 -9 -14 -8 -11 11 -11 11 -67 0 -67 0 -28 -15 -29 -15 -47 0 -46
0 -4 -12 -4 -12 -65 -7 -64 -7 -75 -16 -75 -16 -40 -9 -40 -8 -17 -8 -18 -7 0
-19 0 -19 15 0 15 0 0 11 0 10 22 -3 21 -3 5 -12 4 -13 -12 0 -11 0 -34 -26
-34 -25 5 -13 5 -12 -20 -18 -20 -18 -10 7 -11 6 0 26 0 26 17 20 18 19 -18
13 -17 12 0 10 0 11 -15 12 -15 12 0 37 1 36 29 29 30 29 5 18 6 18 19 6 20 6
35 43 35 43 0 7 0 8 35 34 35 34 0 8 0 8 65 70 64 69 1 -17 0 -17 13 -13 14
-13 12 -23 12 -22 14 0 15 0 0 15 0 15 20 17 20 18 -6 48 -7 49 13 8 13 8 -6
16 -6 16 -19 0 -20 0 -12 15 -12 15 -39 0 -38 0 -17 -37 -18 -38 -76 -81 -77
-82 -17 -36 -17 -36 -7 0 -7 0 -40 -56 -40 -56 -22 -9 -23 -9 0 -19 0 -20 -13
-8 -14 -8 -6 -18 -7 -18 -10 6 -10 6 0 29 0 28 -15 6 -15 5 0 22 0 22 -15 17
-16 17 -1 35 -1 35 8 12 7 13 9 -13 9 -14 0 -32 0 -33 15 0 15 0 0 64 0 64 15
35 15 36 0 28 0 29 17 23 16 24 3 59 2 60 13 31 13 32 14 14 14 14 -7 21 -7
21 -5 27 -5 28 11 0 11 0 0 -20 0 -20 15 0 15 0 1 20 2 20 1 10 1 11 14 8 13
9 19 53 19 53 0 24 0 23 15 15 15 15 0 33 0 34 15 12 15 12 0 43 0 43 -15 6
-15 5 0 25 0 25 -38 41 -39 40 -31 0 -32 0 0 -168 0 -168 -15 -20 -14 -19 -1
-46 0 -45 -15 -20 -14 -19 -1 -33 0 -33 -15 -15 -15 -15 0 -43 0 -42 -9 -9 -8
-10 -13 -35 -13 -35 -6 -48 -6 -48 -10 3 -10 3 0 101 0 101 -12 14 -11 14 -6
105 -5 105 -7 25 -7 25 -6 117 -6 116 -7 7 -7 7 -16 -5 -15 -6 0 -116 0 -116
-9 5 -9 6 5 39 5 40 -22 36 -22 36 -17 -3 -16 -3 -3 -21 -3 -22 15 -15 16 -16
0 -34 0 -35 15 -12 15 -12 0 -29 0 -28 13 -13 14 -13 5 -69 6 -68 11 -11 11
-11 0 -56 0 -55 -6 -38 -7 -37 -18 0 -19 0 0 10 0 10 -15 0 -15 0 0 -15 0 -15
9 0 9 0 7 -17 7 -18 14 -53 14 -53 -1 -60 -2 -60 11 -11 11 -11 -16 -12 -17
-12 13 -31 13 -31 -7 -10 -6 -11 -10 0 -9 0 0 44 0 44 -15 12 -14 12 -6 46 -7
47 -14 32 -14 31 0 20 0 19 -19 24 -18 24 4 12 4 12 -20 11 -21 11 6 23 6 24
-11 6 -11 7 0 34 0 34 -13 8 -14 8 -6 18 -6 17 -16 0 -16 0 -6 -16 -6 -17 16
-12 17 -12 0 -19 0 -20 15 -21 15 -21 -15 -12 -15 -12 0 -15 0 -14 15 -5 15
-6 0 -18 0 -18 15 -12 15 -12 0 -14 0 -14 20 -37 20 -38 0 -20 1 -20 14 -19
15 -20 0 -32 0 -32 15 -12 15 -13 -5 -16 -5 -16 10 -35 10 -34 11 -7 12 -7 -8
-11 -7 -12 -15 13 -15 12 -32 51 -33 50 -14 15 -15 15 -23 45 -24 45 -12 23
-13 23 -26 29 -26 30 0 12 0 13 -36 40 -35 40 -23 30 -23 29 -14 -27 -14 -26
-20 29 -20 30 -22 0 -23 0 0 -25 0 -25 15 0 15 0 0 -13 0 -13 30 -24 29 -25 1
-8 0 -9 40 -38 40 -39 18 -3 17 -4 -3 -35 -3 -35 25 -27 26 -28 0 -18 0 -19
15 -12 15 -12 0 -14 0 -14 9 0 9 0 7 -30 7 -30 10 -6 10 -7 9 14 8 14 -6 25
-6 25 -14 8 -13 8 0 14 0 15 10 0 11 0 6 -17 7 -18 12 -10 13 -10 3 -35 3 -34
25 -6 25 -6 3 -24 4 -25 12 -15 13 -15 6 -17 6 -18 22 0 21 0 29 -17 28 -17 7
7 6 6 -6 25 -6 25 -23 3 -22 3 -3 22 -3 22 21 11 20 11 11 -6 10 -7 -6 -29 -7
-29 21 0 21 0 0 -25 0 -26 -15 -5 -15 -6 0 -18 0 -19 -12 -7 -12 -8 -62 -3
-62 -3 -12 15 -12 15 -28 0 -28 0 -12 15 -12 15 -15 0 -15 0 -84 85 -84 85 0
10 0 10 -14 0 -15 0 -6 -10 -7 -11 7 -41 7 -41 44 -46 44 -46 15 -16 15 -16 0
-7 0 -8 23 -19 22 -18 27 -1 27 0 15 -15 15 -15 10 0 11 0 0 14 0 15 -11 7
-12 7 17 9 16 9 26 -20 26 -21 37 6 37 6 13 -16 14 -16 -9 -32 -9 -31 -13 -5
-12 -4 0 31 0 30 -9 5 -9 6 -40 -47 -40 -46 -70 2 -69 2 -6 -15 -6 -16 -49 0
-50 0 -11 -14 -11 -13 -57 -2 -56 -1 -17 -15 -17 -15 -18 0 -18 0 -17 15 -18
16 -27 -33 -27 -32 -13 17 -12 17 -11 0 -10 0 -6 -15 -5 -15 -11 0 -10 0 0 24
0 24 -16 13 -16 13 3 45 2 46 -2 13 -1 12 -13 0 -13 0 -11 -11 -11 -11 12 -30
11 -30 -18 -12 -17 -13 0 -22 0 -22 13 -5 14 -5 0 -44 0 -45 -12 0 -13 0 -12
15 -12 15 -13 0 -13 0 -12 -15 -12 -15 -20 0 -19 0 -5 -15 -6 -15 -14 0 -14 0
0 10 0 10 -14 0 -14 0 -5 -12 -5 -13 -12 12 -12 11 10 31 11 30 -22 -12 -22
-12 -8 -12 -8 -13 -11 0 -11 0 -20 -17 -19 -18 -13 18 -12 17 -17 0 -16 0 -18
-10 -17 -9 -50 -11 -50 -11 -46 -8 -46 -7 -14 -12 -14 -12 -31 -25 -32 -25 -6
-36 -7 -36 11 -13 12 -14 29 6 29 5 16 -13 16 -13 166 -1 167 -2 87 -8 87 -7
25 6 26 6 0 15 0 15 25 10 25 10 0 10 0 10 20 0 20 0 0 -15 0 -15 -13 0 -14 0
-23 -25 -23 -25 4 -1 4 -2 208 -2 207 -1 0 5 0 4 -17 19 -16 18 18 20 18 20
25 0 24 0 34 -16 34 -16 0 -14 0 -14 -21 0 -22 0 -13 18 -13 17 -10 -10 -11
-11 16 -23 16 -23 27 6 26 5 64 12 64 12 30 -11 29 -11 64 6 65 6 23 -12 23
-13 34 4 34 3 5 40 6 40 17 37 17 37 10 6 10 6 0 53 0 53 7 6 6 7 19 -17 18
-16 0 19 0 20 -11 11 -10 10 3 43 3 43 12 5 13 4 6 -19 6 -18 11 -23 11 -23
-2 -30 -2 -29 15 0 15 0 0 58 0 58 10 10 9 9 6 60 7 60 4 14 5 14 10 -10 10
-10 1 -134 0 -133 -26 -21 -26 -21 0 -56 0 -56 15 -6 15 -5 0 -10 0 -9 -25
-30 -25 -30 0 -11 0 -11 17 0 17 0 22 21 23 22 -9 18 -10 18 10 6 10 6 10 -6
10 -6 0 -15 0 -14 28 0 29 0 11 -25 12 -25 15 0 15 0 20 20 21 21 -6 9 -5 9
-31 -1 -31 -1 -9 14 -9 14 0 47 0 47 20 11 20 11 10 -6 10 -6 0 -35 0 -34 -15
0 -15 0 0 -14 0 -15 11 -6 10 -7 6 21 5 21 8 0 8 0 35 -35 35 -35 63 4 63 5
18 -15 17 -16 23 1 23 1 30 0 30 0 70 1 69 1 41 13 40 13 61 1 62 1 11 -13 10
-13 161 -3 162 -2 24 16 25 16 22 -3 22 -3 -2 -23 -3 -22 13 0 13 0 10 9 9 9
55 5 55 4 31 13 30 13 58 -18 58 -18 8 13 8 13 54 4 53 3 74 0 74 0 13 -18 13
-17 6 18 7 17 9 0 9 0 10 -26 10 -25 10 6 10 6 0 12 0 12 27 29 26 29 -12 19
-12 20 12 14 11 14 -14 0 -15 0 -20 23 -21 22 -6 21 -6 21 15 13 15 12 0 54 0
54 -10 0 -11 0 -5 -15 -6 -15 -14 0 -14 0 0 25 0 25 23 35 22 35 17 0 18 0 4
-22 5 -23 3 -20 3 -20 10 2 10 3 3 62 3 62 10 13 11 12 -11 71 -11 71 5 9 6
10 -11 19 -10 20 16 41 16 41 20 10 20 11 -7 15 -6 16 22 24 22 23 31 0 31 0
12 8 12 8 1 34 1 35 -7 48 -7 48 13 187 12 187 8 10 8 10 7 60 7 60 10 12 9
11 0 121 1 120 14 12 14 11 0 18 0 18 6 16 6 16 19 0 19 0 0 -14 0 -15 -10 -6
-10 -6 0 -9 0 -10 25 -6 25 -6 -22 -24 -23 -24 -18 0 -19 0 4 -12 5 -13 21 -3
22 -3 0 -15 0 -15 -13 -5 -13 -4 -2 -52 -2 -52 -9 -6 -10 -5 -7 -53 -7 -52
-13 -11 -14 -11 0 -18 0 -18 -13 -24 -13 -25 1 -223 1 -224 12 -4 12 -4 0 -37
0 -37 12 -12 12 -12 -21 0 -21 0 -5 13 -4 12 -8 -7 -8 -8 11 -12 10 -13 3 -37
3 -37 -5 -6 -6 -5 3 -116 4 -115 -15 -5 -15 -6 0 -12 0 -12 -30 -17 -30 -18 0
-15 0 -14 25 -10 26 -10 6 -16 6 -15 -12 -12 -11 -11 0 -103 0 -103 -19 -17
-20 -18 -16 -14 -17 -14 16 -9 16 -9 0 -14 0 -15 -11 0 -11 0 -18 23 -19 22 5
18 6 18 -21 6 -21 5 -2 47 -2 46 3 30 2 30 -6 23 -6 23 -9 -6 -10 -6 0 -33 0
-32 -10 -10 -11 -11 13 -49 13 -49 13 -8 13 -9 -11 -13 -11 -14 11 -21 11 -21
-6 -30 -7 -29 17 -6 16 -7 13 18 12 17 13 -16 13 -16 24 0 24 0 0 14 0 14 -17
6 -16 7 18 13 18 13 -6 22 -5 21 16 9 17 10 0 33 0 33 15 0 15 0 3 -33 3 -33
25 -9 24 -10 0 -21 0 -21 -14 5 -15 6 -30 -15 -31 -15 0 -9 0 -8 6 -16 6 -16
77 0 76 0 40 15 40 14 63 1 63 0 20 11 20 10 72 5 72 6 37 14 38 14 314 -1
315 -1 11 7 11 7 34 4 34 4 6 -10 6 -10 47 0 47 1 19 14 20 15 38 0 38 0 0 10
0 10 14 0 14 0 5 -19 4 -18 35 -7 35 -6 29 15 29 15 16 0 17 0 11 14 11 14 65
0 65 0 8 -14 8 -14 69 -4 70 -4 30 16 30 15 80 -1 80 -1 54 -11 54 -10 79 0
80 0 51 -14 52 -15 115 -4 115 -4 10 -3 10 -4 150 8 150 8 27 14 27 14 16 0
16 0 24 26 25 27 0 8 0 8 -27 26 -28 25 -14 0 -14 0 -18 16 -17 15 -51 1 -51
0 0 15 0 15 26 -5 26 -5 5 18 5 19 15 5 14 6 -6 20 -6 20 20 0 20 0 6 -10 6
-10 143 0 142 0 59 11 59 11 4 -11 4 -11 24 0 25 0 67 14 67 15 180 7 180 7
100 4 100 3 50 4 49 4 4 11 4 11 14 0 14 0 0 25 0 25 -23 0 -23 0 -10 10 -11
11 -54 6 -54 6 -20 13 -19 14 -52 0 -52 0 -28 15 -29 15 -47 0 -48 0 -42 9
-43 10 -45 11 -45 12 -100 9 -100 9 -23 10 -23 10 -102 0 -102 0 -95 15 -95
15 -71 0 -72 0 -12 15 -12 14 -65 -2 -65 -2 -14 20 -15 20 -16 -11 -17 -11
-28 14 -27 14 6 32 6 32 15 10 14 11 -4 27 -3 28 -10 2 -10 2 -3 -34 -3 -33
-12 -15 -12 -15 -23 -23 -22 -23 5 -14 6 -15 -22 -37 -22 -37 -9 9 -10 10 1
113 2 114 7 67 8 67 -8 20 -7 21 -21 0 -21 0 -7 -19 -7 -18 -19 7 -19 6 41 30
41 30 36 52 35 52 0 8 0 8 31 30 30 29 22 35 22 35 25 25 25 26 19 36 18 36
-6 11 -7 11 -24 0 -23 0 -32 -36 -32 -36 -10 -24 -11 -24 -19 -6 -20 -6 -10
-29 -10 -29 -9 0 -9 0 0 -20 0 -20 -31 -29 -31 -30 -17 -31 -16 -31 -10 3 -10
3 3 39 3 38 14 15 15 14 0 117 1 117 15 -28 15 -28 15 12 14 11 0 42 0 42 10
10 11 11 -10 26 -11 27 -21 0 -21 0 -19 -22 -18 -23 -1 -11 0 -12 -15 -12 -15
-12 0 -77 0 -77 -12 -12 -12 -12 -3 -96 -3 -97 -9 -11 -9 -11 -7 -43 -7 -43
-24 -11 -24 -11 0 -23 0 -23 -9 -5 -9 -6 -6 17 -6 16 13 16 14 16 7 35 6 35 6
25 5 25 -35 42 -36 41 0 14 0 15 -26 24 -26 24 -18 -3 -18 -3 -7 21 -6 20 -10
0 -9 0 0 23 0 24 -23 21 -23 22 -20 0 -20 0 -12 -12 -12 -12 0 -17 0 -17 15
-12 15 -12 0 -17 0 -16 15 -29 15 -28 0 -23 0 -23 14 -11 15 -12 6 -31 7 -30
41 -40 41 -39 18 -41 18 -40 0 -28 0 -27 16 -32 16 -32 -4 -40 -4 -39 18 -6
18 -5 0 -14 0 -14 -19 -11 -20 -10 -6 0 -5 0 -9 23 -9 24 -35 -1 -35 -2 -16
-13 -17 -14 -12 17 -13 18 -34 -4 -35 -3 -3 -22 -3 -23 -15 0 -14 0 0 20 0 20
18 18 17 17 43 13 43 13 18 -6 18 -5 37 15 37 16 -6 9 -6 10 -50 0 -49 0 0 14
0 14 -15 6 -15 5 0 24 0 24 -26 12 -26 12 -14 -12 -13 -11 -33 12 -33 11 -120
-14 -120 -15 -9 9 -10 9 -15 0 -14 0 -18 -16 -17 -16 -26 17 -25 17 -6 19 -6
18 10 20 11 20 0 26 0 26 23 32 22 32 8 3 7 4 0 14 0 14 -35 0 -35 0 -7 3 -7
2 -43 -56 -44 -56 7 -27 6 -26 16 0 16 0 -12 -12 -12 -12 0 -13 0 -13 14 0 14
0 6 -15 5 -15 16 0 15 0 0 -13 0 -12 -20 -38 -20 -37 0 -10 0 -10 14 0 14 0 5
22 6 21 16 -13 15 -13 -26 -24 -27 -25 -17 5 -17 4 -18 -13 -19 -14 -13 0 -13
0 -12 25 -11 25 -12 0 -13 0 -11 -14 -11 -13 -52 -7 -53 -7 -13 -11 -13 -11
-22 11 -22 10 -17 6 -17 5 3 43 2 43 11 25 11 25 7 20 6 19 9 -14 10 -15 0
-42 0 -42 28 -14 27 -13 18 3 17 4 0 25 0 24 14 0 14 0 7 -17 6 -18 12 16 12
15 18 7 18 7 -6 19 -6 19 16 6 15 5 0 16 0 15 15 0 15 0 0 -24 0 -25 -10 -6
-10 -6 0 -8 0 -9 33 -5 32 -5 10 10 10 9 -17 13 -18 13 0 22 0 21 -15 0 -15 0
0 20 0 20 -20 0 -19 0 5 -15 6 -15 -16 -6 -16 -6 0 -18 0 -18 -15 -6 -15 -5 0
-21 0 -20 -15 0 -15 0 0 22 0 21 17 19 16 18 -1 29 -1 30 15 12 14 11 0 17 0
17 30 22 30 23 0 32 0 32 40 75 40 75 41 84 41 84 14 14 14 14 0 17 1 17 14
19 15 20 0 18 0 19 20 39 20 40 10 0 10 0 0 19 0 19 15 12 15 12 0 23 0 23 15
12 15 12 0 29 0 28 11 6 10 7 11 26 11 27 -2 12 -2 11 26 46 25 45 0 44 0 45
15 6 15 5 0 26 0 25 -16 0 -17 0 -23 -26 -24 -25 0 -34 0 -34 -30 -23 -30 -22
0 -17 0 -17 -15 -12 -15 -12 0 -34 0 -33 -21 -41 -21 -40 -9 -6 -9 -5 0 -23 0
-24 -15 -12 -15 -12 0 -23 0 -23 -15 -12 -15 -12 0 -23 0 -23 -15 -12 -15 -12
0 -16 0 -15 -30 -64 -30 -63 0 -12 0 -11 -24 -32 -24 -31 -16 -38 -16 -38 0
-23 0 -23 -15 -12 -15 -12 0 -19 0 -18 -9 -6 -10 -5 -6 10 -6 10 20 56 21 55
0 63 0 64 15 12 15 12 -6 38 -6 38 18 54 17 53 1 46 1 46 14 16 13 17 0 92 0
93 15 17 15 17 1 64 2 65 -24 26 -24 26 -14 -11 -13 -11 0 -28 0 -28 -14 -11
-15 -12 4 -64 3 -64 -14 -12 -14 -12 11 -13 12 -14 13 11 14 11 0 -11 0 -11
-24 -9 -23 -9 -7 -113 -7 -114 -11 -12 -10 -13 -3 -122 -3 -123 -2 -25 -2 -25
-8 26 -8 27 8 173 8 174 7 18 7 17 -11 13 -11 13 -2 180 -3 179 -17 3 -18 3
-9 -24 -10 -25 -11 -7 -11 -7 5 -229 6 -230 10 -43 9 -42 0 -102 0 -102 -8 0
-8 0 -7 32 -6 32 -10 -10 -11 -11 3 -159 3 -159 10 0 10 0 2 15 2 15 6 58 7
59 5 -6 6 -5 3 -77 3 -76 -14 -35 -15 -35 0 -64 0 -64 -19 0 -20 0 -6 10 -6
10 -4 27 -4 28 -10 76 -10 76 6 35 5 35 -10 7 -10 6 -16 -6 -16 -6 0 -20 0
-21 -26 -24 -26 -24 8 -17 8 -17 0 -40 1 -40 -30 -3 -30 -4 -22 -20 -22 -21
-5 14 -5 14 -3 20 -4 20 -19 -3 -20 -3 -55 -10 -55 -10 -9 -10 -10 -9 -15 0
-15 0 12 12 12 12 0 13 0 13 -14 0 -14 0 -7 -17 -6 -18 -13 17 -12 16 -35 4
-34 3 3 27 3 26 -10 7 -11 6 0 24 0 24 -27 3 -28 3 0 127 0 126 -8 9 -9 8 -24
-28 -24 -28 0 -58 0 -59 -14 -11 -13 -11 5 -25 4 -25 -16 0 -17 0 -4 13 -5 12
-4 115 -5 115 -7 61 -6 60 16 47 16 48 0 50 0 50 -15 6 -16 5 -6 -6 -6 -6 -7
-37 -8 -38 -1 43 -1 42 -26 0 -26 0 5 -172 6 -173 2 -91 2 -90 -7 -12 -7 -12
-10 5 -9 6 0 45 0 45 -17 27 -18 27 -15 12 -15 12 -8 1 -7 0 -11 -24 -11 -23
21 -46 21 -46 0 -31 0 -30 12 -19 11 -18 -6 -17 -6 -16 -15 0 -15 0 -33 -33
-33 -33 -20 -41 -20 -41 -36 -16 -36 -16 -39 -1 -39 0 -100 3 -99 3 -8 35 -8
35 -6 161 -6 160 16 38 16 38 0 23 0 23 15 35 15 36 0 33 0 33 16 50 17 50 13
27 14 26 0 26 0 27 16 24 16 24 -7 66 -7 65 -9 6 -9 5 0 25 0 25 -15 5 -15 6
0 18 0 19 -17 16 -16 17 29 23 29 23 67 -5 67 -6 25 17 25 16 94 0 95 0 12 15
12 15 79 0 78 0 8 14 8 13 52 6 52 6 26 17 25 16 0 14 0 13 33 -6 33 -5 13 16
13 16 28 0 28 0 12 15 12 15 19 0 18 0 15 15 15 15 26 0 26 0 6 18 7 17 16 18
17 18 15 -6 15 -6 13 16 12 15 23 0 23 0 12 15 12 14 -7 11 -6 10 25 10 26 10
0 8 0 9 113 12 113 11 11 0 12 0 3 27 3 28 25 12 25 13 55 -6 55 -6 19 15 19
14 -1 32 -1 32 16 6 16 6 29 -16 30 -17 134 0 134 0 0 14 0 13 -101 6 -101 5
-10 10 -11 11 -18 -12 -19 -11 -12 12 -12 12 -86 0 -85 0 -29 15 -28 15 -20 0
-20 0 4 13 5 12 40 3 40 3 13 -16 12 -15 34 0 33 0 7 11 6 11 21 -6 21 -5 44
10 44 10 16 -13 15 -13 185 -2 185 -3 15 13 15 12 201 0 201 0 3 18 3 17 -18
6 -18 6 -21 10 -21 10 -69 3 -69 3 -20 1 -20 2 20 9 20 9 52 0 52 1 6 10 6 10
22 0 22 1 28 25 29 24 -4 11 -4 11 -54 19 -54 19 -38 0 -37 0 -6 10 -6 10 -33
0 -32 0 -20 15 -19 14 -13 1 -13 0 -13 -13 -13 -13 -74 3 -74 2 -65 3 -65 4
-17 -10 -16 -10 -74 12 -73 11 -3 -10 -4 -9 -34 0 -35 0 -27 13 -27 13 -98 3
-99 2 -25 10 -25 9 12 15 12 15 -8 0 -9 0 -38 -14 -39 -13 -39 14 -40 13 -25
-6 -26 -7 -8 13 -8 13 -43 8 -44 8 -50 11 -50 12 -10 9 -9 9 -37 0 -37 0 -12
15 -12 15 -24 0 -24 0 0 -12 1 -13 35 -22 35 -23 29 0 29 0 6 -10 6 -10 22 0
22 0 29 -15 28 -15 29 0 28 0 10 -19 10 -18 -6 -7 -6 -6 -48 0 -48 0 -5 9 -5
8 -123 6 -123 7 -54 15 -55 15 -10 10 -10 10 -21 0 -20 1 -37 34 -38 35 0 10
0 10 38 0 37 0 14 -9 14 -9 -23 -12 -22 -12 10 -10 11 -11 25 7 26 6 0 19 0
19 19 5 19 5 12 -8 11 -7 -15 -16 -16 -16 0 -15 0 -15 34 2 35 3 8 7 8 8 -24
18 -24 18 7 12 7 11 33 0 34 0 12 15 12 15 40 0 39 0 5 15 6 15 13 0 13 0 5
20 5 20 10 0 11 0 16 -16 16 -17 34 -17 33 -17 59 -6 58 -6 33 -17 33 -16 14
6 15 5 0 20 0 20 -19 10 -19 11 -58 1 -59 2 -25 13 -25 13 -27 6 -28 5 0 10 0
11 54 -2 53 -2 24 17 24 16 60 -6 60 -7 13 -14 13 -13 37 0 37 -1 -20 -15 -20
-16 -20 -14 -19 -14 12 -12 12 -12 12 12 12 12 19 0 19 0 30 -25 29 -25 21 13
21 12 4 -12 5 -13 15 0 16 0 12 16 12 17 36 -7 37 -7 0 -9 0 -8 33 -7 32 -7
10 -8 10 -8 24 -4 24 -3 5 -14 5 -14 -48 6 -48 7 -46 0 -46 0 25 20 25 19 -8
7 -7 7 -25 -11 -26 -12 -75 0 -75 0 -5 15 -6 15 -52 0 -51 0 -15 -10 -15 -9
11 -11 12 -12 43 -5 44 -6 13 -10 13 -10 62 -2 62 -2 25 -10 25 -11 65 -7 65
-7 11 -9 12 -10 158 -1 159 -1 20 -12 20 -12 44 -6 43 -5 14 5 14 5 0 13 0 13
-16 6 -16 6 -33 0 -33 0 -28 15 -29 15 -32 0 -32 0 -6 10 -6 10 -38 0 -38 0
-23 20 -23 20 -19 0 -19 0 -15 15 -15 15 -20 0 -20 0 -15 15 -15 15 -18 0 -19
0 -12 15 -12 15 -33 0 -33 0 -12 15 -12 15 -29 0 -28 0 -6 10 -6 10 -43 0 -43
0 -18 20 -18 20 -32 0 -33 0 -12 15 -13 16 -69 -3 -69 -3 -7 10 -7 11 -29 22
-29 22 -23 0 -24 0 0 8 0 7 -31 18 -31 17 -9 0 -10 0 -48 50 -49 50 -10 0 -11
0 -32 30 -33 30 -33 15 -32 16 -8 12 -8 12 -20 13 -20 12 -15 7 -15 7 -30 28
-30 28 -16 0 -17 0 -6 15 -5 15 -16 0 -15 0 0 9 0 9 -30 7 -30 7 0 9 0 9 -24
6 -25 6 -5 14 -5 14 -14 0 -15 0 -12 15 -12 15 -15 0 -14 0 -15 15 -15 15 -20
0 -19 0 0 9 0 9 -30 11 -30 10 0 10 0 11 -26 0 -25 0 -15 15 -15 15 -19 0 -18
0 -6 15 -5 15 -21 0 -21 0 -15 15 -15 15 -18 0 -19 0 -12 15 -12 15 -18 0 -18
0 -6 15 -5 15 -20 0 -19 0 -6 15 -5 15 -24 0 -25 0 -12 15 -12 15 -16 0 -16 0
-43 21 -43 21 -6 9 -5 9 -28 0 -29 0 -12 15 -12 15 -23 0 -23 0 -12 15 -12 15
-23 0 -23 0 -12 15 -12 15 -29 0 -28 0 -6 10 -6 10 -31 0 -31 0 -11 16 -12 16
-48 4 -47 3 -15 16 -15 15 -20 0 -20 0 -24 16 -25 16 -16 -6 -16 -6 -25 20
-26 20 -24 0 -24 0 -54 30 -54 30 -23 0 -23 1 -19 14 -20 15 -23 0 -23 0 0 8
0 8 -57 19 -58 19 -17 -3 -16 -2 -7 11 -6 10 -37 0 -37 0 -14 -9 -15 -10 -29
16 -29 15 -27 27 -28 28 -46 7 -47 7 5 10 6 9 44 0 43 0 6 15 5 15 26 0 26 0
-3 -17 -3 -18 -23 -3 -22 -3 0 -9 0 -9 32 -3 32 -3 6 -25 6 -25 23 -3 24 -4
-7 42 -7 42 -22 19 -22 18 -7 1 -8 0 0 15 0 15 -10 0 -10 0 0 23 0 24 -17 21
-18 20 -16 19 -17 18 -25 20 -26 20 -1 22 0 22 -30 32 -29 33 -7 -7 -7 -7 12
-24 13 -24 -3 -11 -4 -10 -23 17 -23 18 11 28 10 28 -25 24 -26 24 -8 0 -9 0
-12 15 -13 16 -11 -4 -11 -4 0 -21 0 -22 -10 0 -10 -1 -3 21 -3 20 -14 0 -14
0 -6 -10 -6 -10 -25 0 -26 0 4 13 5 12 21 3 22 3 0 15 0 15 -30 6 -30 6 0 8 0
8 -20 6 -19 6 -21 -11 -20 -11 0 -18 0 -18 -52 -9 -53 -9 -48 5 -47 5 -3 10
-2 10 50 7 50 8 10 1 10 2 27 -8 26 -7 7 21 6 21 -6 10 -6 10 -23 0 -22 0 -24
30 -25 29 -21 1 -22 0 -12 -15 -12 -15 -20 0 -19 0 -6 18 -7 17 -10 7 -11 8
-7 0 -7 0 5 -15 6 -14 -7 -11 -6 -10 -24 17 -24 18 -1 13 0 12 -88 0 -88 0
-10 -10 -9 -9 -40 9 -40 10 -10 0 -11 0 -16 -16z m60 -48 l4 -30 -14 12 -14
11 -39 -6 -38 -6 7 11 7 12 14 0 13 0 6 16 6 15 22 -3 23 -3 3 -29z m232 24
l15 -9 -33 -12 -32 -11 -11 -19 -10 -19 -17 0 -17 1 18 13 17 13 0 27 0 26 28
0 27 0 15 -10z m-152 -45 l12 -25 10 0 10 0 0 -15 0 -16 -17 -5 -18 -6 -39
-18 -38 -19 -26 10 -26 10 -25 -6 -25 -6 -12 -17 -13 -17 -13 13 -13 13 23 5
22 6 0 15 0 15 25 -6 24 -6 11 20 11 20 40 0 41 0 -6 24 -6 23 7 7 6 6 12 0
12 0 11 -25z m372 -4 l0 -19 -16 -6 -16 -6 -34 0 -34 0 0 15 0 15 34 0 35 0 6
10 6 10 10 0 9 0 0 -19z m-175 -42 l5 -8 -10 -6 -11 -7 -25 6 -26 7 11 13 12
14 20 -5 19 -5 5 -9z m65 -28 l0 -17 -11 -11 -11 -11 33 -18 34 -18 10 3 10 4
22 2 22 3 13 8 13 8 35 -3 35 -3 8 -8 9 -8 -16 -31 -17 -31 11 0 10 0 22 -25
22 -25 10 0 11 0 13 -27 12 -27 0 -9 0 -10 -17 -13 -18 -13 18 -7 18 -7 14 19
14 19 1 13 0 12 -20 20 -20 20 6 15 6 16 -17 19 -18 20 22 0 23 0 17 -21 17
-21 39 -7 40 -7 27 7 28 7 5 -9 6 -9 -11 -20 -11 -20 -13 0 -14 0 -11 -14 -12
-15 20 -11 21 -11 0 -9 0 -10 -15 0 -16 0 -5 15 -6 15 -14 0 -15 0 -5 -15 -6
-15 -29 0 -29 0 0 -9 0 -9 13 -10 13 -11 23 6 22 6 24 -23 23 -22 31 7 30 6
46 -6 45 -7 0 -14 0 -13 -15 5 -15 6 -25 -6 -25 -6 0 -20 0 -19 -10 -6 -10 -6
-6 15 -6 16 -18 0 -18 0 -6 -16 -6 -17 -72 6 -72 6 -23 26 -24 25 -29 0 -30 0
0 7 0 7 33 27 32 27 -12 21 -13 20 22 15 21 15 -19 7 -19 7 -22 20 -23 20 6
24 6 23 -18 0 -18 0 -29 -27 -28 -28 -14 19 -14 18 12 19 11 18 -7 7 -7 7 -35
-36 -35 -36 0 -16 0 -15 20 0 20 0 0 -13 0 -14 45 -49 45 -49 0 -7 0 -8 -18 0
-18 0 -11 11 -12 12 -30 -13 -31 -12 0 -14 0 -14 35 0 34 0 12 -22 11 -21 -23
-18 -24 -19 -17 -6 -18 -5 0 -15 0 -14 15 0 15 0 0 16 0 17 30 -6 30 -6 27 34
28 35 16 0 16 0 18 -20 18 -20 -18 -20 -17 -19 5 -15 6 -15 38 2 38 2 3 23 3
22 7 0 8 0 32 -29 32 -30 0 -10 0 -10 -30 6 -30 6 0 -12 0 -11 8 1 7 1 13 -1
12 -1 0 -21 0 -21 -17 7 -18 7 -20 6 -20 5 -17 14 -17 15 -11 -7 -12 -7 -30
22 -29 22 -15 -6 -14 -5 0 -13 1 -13 22 -16 22 -16 35 -6 35 -7 27 -25 27 -25
8 0 9 0 25 28 25 27 22 15 22 14 0 18 0 18 15 0 15 0 0 15 0 15 60 0 60 0 0
-13 0 -14 -27 -14 -26 -14 -4 13 -5 12 -24 0 -24 0 0 -14 0 -14 20 -5 20 -5 0
-22 0 -22 20 -5 20 -5 0 -13 0 -13 -25 -16 -25 -17 -6 18 -5 18 -18 35 -18 34
-10 3 -11 4 -6 -17 -6 -17 15 -18 16 -17 -17 -10 -17 -9 7 -12 7 -11 30 0 29
0 0 -16 0 -15 32 3 33 3 4 20 3 20 12 7 11 8 34 0 33 0 39 -39 39 -39 0 -11 0
-11 15 0 15 0 0 19 0 20 11 7 11 6 11 -11 11 -11 -19 -20 -18 -20 19 -2 19 -1
18 1 17 2 0 -12 0 -11 -17 -19 -16 -18 10 0 11 0 35 31 36 31 -12 19 -11 18 7
7 7 8 12 -12 12 -12 -19 -78 -20 -77 -14 -17 -15 -18 -13 0 -13 0 0 20 0 20
-19 0 -19 0 -7 -31 -7 -30 -16 -6 -15 -6 -19 -19 -18 -18 0 -10 0 -10 15 0 15
0 0 15 0 15 20 0 20 0 0 -15 0 -15 -19 0 -19 0 -6 -15 -5 -15 -16 0 -15 0 0
-11 0 -11 16 -33 16 -33 14 -6 15 -6 6 16 6 16 -18 11 -18 10 15 11 16 11 3
20 4 20 24 3 24 4 -7 -17 -6 -17 0 -8 0 -8 -22 -7 -23 -7 19 -5 19 -5 6 9 6 9
33 2 32 2 6 -15 6 -15 14 0 14 0 0 -15 0 -15 19 0 20 0 15 16 16 15 0 9 0 9
-11 6 -10 7 -18 -16 -18 -17 -17 25 -16 25 35 17 36 17 13 -18 13 -18 11 7 12
7 0 25 0 24 9 0 10 0 3 48 3 47 28 -3 29 -3 5 20 5 21 24 0 24 0 0 -10 0 -10
-25 -10 -25 -10 12 -20 13 -20 -12 -31 -12 -30 30 -13 29 -12 -7 -7 -6 -7 -24
0 -24 0 -5 14 -5 14 -25 6 -25 7 -10 -6 -10 -6 26 -31 25 -30 0 -14 0 -14 -19
0 -19 0 -6 15 -5 15 -16 0 -15 0 0 -11 0 -11 19 -5 19 -5 5 -18 5 -19 20 5 19
6 6 -21 5 -21 -8 0 -9 0 -6 10 -6 10 -14 0 -13 0 -6 -16 -6 -16 20 -5 20 -5 0
-14 0 -14 20 0 19 0 8 13 8 14 18 6 17 6 0 19 0 20 15 12 15 12 -6 9 -5 9 -19
-10 -19 -10 -16 0 -15 0 15 24 16 24 25 6 24 6 0 10 0 10 19 0 20 0 6 -11 7
-10 26 3 27 3 3 -27 3 -28 -23 0 -23 -1 19 -11 20 -11 4 11 4 12 24 0 24 0 0
19 0 19 -6 16 -6 16 -27 0 -26 1 18 14 19 14 26 -12 27 -11 4 -3 3 -2 -18 -53
-18 -53 -9 -13 -10 -12 -13 11 -13 11 -11 -7 -10 -6 0 -15 0 -14 15 0 15 0 0
-16 0 -16 28 5 29 6 17 -20 17 -20 11 3 12 4 3 10 3 9 -29 13 -29 13 -6 31 -6
32 25 23 25 24 0 10 0 10 22 -3 21 -3 4 -10 3 -11 -30 -17 -30 -18 0 -23 0
-23 20 -18 21 -19 29 35 29 34 1 7 0 7 -10 6 -11 7 12 14 11 14 -6 16 -6 17
15 17 16 18 -13 9 -13 8 -34 0 -34 0 -4 13 -5 12 47 0 47 0 -5 28 -4 27 4 -12
4 -13 11 0 11 0 23 -25 23 -25 -9 0 -9 0 -15 -31 -16 -32 17 -12 17 -12 -22
-7 -22 -7 0 -12 0 -12 26 -12 25 -12 15 6 14 5 25 -16 25 -16 0 -30 0 -30 19
-19 19 -19 21 -7 21 -6 0 -14 0 -15 -25 -6 -25 -6 6 -9 5 -9 20 0 19 0 0 -6 0
-5 -10 -19 -10 -19 -15 5 -14 6 -6 19 -6 19 -25 0 -24 0 0 14 0 14 -16 6 -15
6 6 11 7 10 17 -15 18 -16 11 0 12 0 0 10 0 10 -10 0 -9 0 -21 22 -21 22 -19
-12 -20 -12 -5 0 -5 0 0 9 0 8 26 27 27 26 -18 0 -19 0 -23 -22 -23 -21 0 -24
0 -23 -12 0 -12 0 12 -12 12 -12 0 -16 0 -17 25 -23 26 -24 6 22 5 22 14 0 14
0 0 -7 0 -8 45 -30 45 -30 -2 -14 -3 -14 -12 -5 -13 -4 0 16 0 16 -15 0 -16 0
-5 -15 -6 -15 -33 0 -33 0 -12 15 -12 15 -19 0 -18 0 -9 16 -9 17 -10 -6 -9
-6 -23 -44 -23 -45 -19 5 -19 5 -6 -16 -6 -16 -14 0 -14 0 0 -15 0 -15 24 0
24 0 14 21 14 22 22 -8 23 -7 -4 -11 -4 -12 -21 -11 -21 -11 10 -10 11 -11 -6
-10 -6 -10 -50 -7 -50 -7 -6 -9 -5 -9 -40 0 -40 0 -5 -15 -6 -15 -10 0 -11 0
-12 17 -12 16 -19 -7 -19 -7 20 -11 20 -12 11 -15 12 -15 26 12 27 12 11 0 12
0 -12 -12 -12 -12 0 -13 0 -13 31 0 31 0 5 20 5 20 7 0 7 0 22 -30 23 -30 36
0 36 0 13 -17 13 -18 1 18 0 17 -20 20 -20 20 -25 0 -25 0 0 24 0 24 13 10 13
11 15 -17 16 -17 37 -32 38 -33 19 0 19 0 0 -9 0 -9 -14 -5 -15 -6 12 -25 12
-25 21 -5 21 -6 25 -23 26 -24 17 -7 18 -7 35 12 35 11 9 -16 9 -16 10 0 11 0
-6 28 -7 27 14 19 14 18 30 -36 30 -37 16 7 17 6 0 9 0 9 -16 0 -16 0 6 25 6
25 -19 0 -20 0 -20 21 -19 21 -7 -21 -6 -21 -14 0 -14 0 2 -27 2 -28 -20 2
-21 2 -77 37 -77 36 6 9 5 9 29 0 29 0 6 -10 6 -10 9 0 9 0 25 27 25 27 12
-27 12 -26 29 20 28 21 28 -7 28 -6 36 16 37 15 6 10 6 10 25 0 24 0 10 -26
10 -26 -6 -9 -5 -9 -14 0 -13 0 -6 15 -5 15 -9 0 -9 0 1 -37 2 -37 12 -4 12
-4 31 31 31 31 37 0 37 0 12 -12 12 -12 23 13 24 13 29 -4 29 -3 0 -15 0 -15
-22 2 -23 3 0 -10 0 -10 48 0 48 0 10 -10 10 -10 36 -18 35 -18 19 7 19 8 21
0 20 1 19 -14 20 -14 -35 -11 -35 -10 40 1 40 1 23 -2 22 -1 0 -15 0 -15 10 0
10 0 0 14 0 14 30 12 30 12 0 10 0 9 -15 5 -15 6 0 24 0 24 -8 0 -9 0 -7 -7
-8 -8 -104 -2 -104 -1 0 14 0 14 40 20 40 20 0 23 0 23 14 20 15 19 6 -17 7
-18 18 0 19 0 6 10 6 10 -25 10 -26 10 0 7 0 8 -27 13 -27 12 -48 0 -48 0 -17
20 -17 20 -13 0 -13 0 0 -15 0 -15 20 0 20 0 0 -10 0 -10 24 -6 25 -6 17 -19
17 -19 -7 -8 -8 -7 -44 -1 -45 -1 -18 -17 -18 -16 -6 7 -7 6 0 17 0 17 -16 31
-15 32 -30 29 -29 29 0 14 0 13 -25 28 -26 27 -11 0 -11 0 7 40 6 40 -10 0
-10 0 0 15 0 15 9 0 9 0 23 -25 24 -25 8 0 7 0 0 20 0 20 -14 0 -14 0 -6 15
-5 15 5 15 6 15 -10 0 -11 0 -6 -10 -6 -10 -23 0 -23 0 -11 25 -12 25 -25 10
-25 10 0 10 0 11 15 5 15 6 0 19 0 19 15 0 15 0 0 -25 0 -25 14 0 14 0 6 16 6
16 -6 9 -5 9 -15 0 -14 0 0 20 0 20 -15 0 -15 0 0 -20 0 -20 -15 0 -15 0 0
-20 0 -20 -30 0 -30 0 0 6 0 7 16 12 16 12 -6 21 -7 22 -25 -6 -24 -6 0 21 0
21 20 0 20 0 20 -12 19 -12 8 7 7 8 -29 24 -30 24 -13 1 -14 0 -29 -30 -30
-30 6 -10 6 -10 18 0 18 0 19 -21 18 -20 -14 -9 -15 -9 13 -13 12 -12 0 -18 0
-18 -14 0 -14 0 -17 26 -16 25 -30 -6 -29 -7 0 15 0 15 15 12 15 12 0 14 0 14
-14 0 -15 0 -21 -30 -21 -30 -10 0 -9 0 0 20 0 20 -15 0 -16 0 -5 -15 -6 -15
-9 0 -9 0 0 45 0 45 10 0 10 0 0 10 0 10 -25 0 -25 0 0 -10 0 -10 -15 0 -15 0
6 24 6 25 -20 12 -20 12 21 18 22 17 -18 19 -17 20 0 14 0 15 20 22 21 22 10
0 10 0 -2 18 -1 17 1 18 1 17 22 0 21 0 -16 -18 -17 -19 7 -6 6 -7 26 0 26 0
15 -10 14 -9 -27 -10 -27 -11 0 -10 0 -10 25 0 24 0 8 14 8 13 22 12 22 11 10
0 11 0 0 -16 0 -15 -35 -15 -35 -14 0 -9 0 -8 -26 -12 -26 -12 -13 17 -12 17
-17 -6 -16 -6 0 -11 0 -10 25 0 25 0 0 -10 0 -11 15 -5 15 -6 31 26 31 26 29
0 29 0 0 -15 0 -15 -28 0 -27 0 -14 -22 -14 -22 22 -17 21 -17 0 -5 0 -5 -22
-6 -23 -5 12 -12 13 -13 18 17 19 17 11 0 11 0 6 11 7 10 -17 13 -17 13 48 46
49 47 18 0 17 0 0 -6 0 -7 -25 -23 -25 -23 0 -26 0 -25 8 0 7 1 29 29 30 30 9
-9 10 -10 -7 -13 -6 -13 -12 -18 -13 -17 35 -30 35 -30 22 -6 23 -6 15 5 14 6
7 -10 6 -10 -18 -20 -17 -19 10 0 11 0 36 15 36 15 0 15 0 14 21 12 21 11 10
-10 10 -10 -42 -41 -42 -40 6 -10 6 -9 21 5 20 6 21 28 21 29 24 -6 23 -6 0
11 0 11 18 0 17 -1 -17 -13 -18 -13 0 -12 0 -11 21 0 22 0 12 17 12 16 11 -7
12 -7 0 -33 0 -32 11 -11 11 -11 -4 -17 -3 -17 -37 25 -36 25 -19 4 -18 4 3
16 3 16 -21 7 -20 6 -11 -7 -11 -7 6 -35 5 -35 13 -9 13 -8 29 0 28 0 -5 -20
-5 -20 11 0 10 0 18 16 18 16 13 -21 13 -21 14 0 14 0 13 18 13 17 11 -11 11
-11 -15 -16 -16 -16 0 -18 0 -19 -12 -12 -12 -12 17 0 17 0 10 25 10 25 20 0
21 0 11 -31 10 -30 23 -9 22 -8 6 -43 6 -43 -5 -8 -5 -8 -32 0 -32 0 -30 16
-30 15 -17 -4 -18 -5 -24 19 -24 19 -20 0 -19 0 -6 47 -5 48 -17 10 -17 10
-29 28 -29 29 0 14 0 14 -9 0 -10 0 -6 20 -6 20 -30 0 -29 0 0 -7 0 -6 17 -19
17 -18 -12 -12 -12 -12 0 -9 0 -9 16 6 16 6 5 -18 4 -19 49 -38 49 -39 -5 -8
-5 -8 -29 0 -28 0 -15 6 -14 5 4 23 5 24 -10 6 -9 5 -19 -14 -19 -14 13 -12
12 -13 0 -22 0 -22 32 -7 31 -7 -22 -17 -22 -17 7 -7 7 -7 20 0 19 0 5 21 6
20 41 -6 41 -7 11 -14 11 -14 47 2 46 2 31 -37 31 -38 20 7 19 6 13 -18 13
-17 18 7 18 6 -19 22 -19 21 34 -6 33 -7 -4 30 -5 30 14 11 13 11 0 14 0 14
20 0 19 0 8 -13 8 -14 18 -6 19 -7 -4 -12 -4 -12 -13 -4 -12 -4 -6 21 -6 22
-11 -4 -11 -4 -3 -21 -3 -22 12 0 12 0 13 -17 14 -18 11 18 10 17 14 0 15 0 0
-15 0 -16 -15 -5 -15 -6 0 -9 0 -10 18 -6 17 -7 12 -15 12 -16 11 12 12 11
-21 21 -21 21 0 10 0 10 11 0 10 0 35 -26 34 -26 16 6 16 6 -41 40 -40 40 -11
0 -11 0 -5 15 -6 15 -14 0 -15 0 -5 15 -6 15 -13 0 -14 0 -6 10 -6 9 17 26 17
26 -17 18 -16 18 0 12 0 12 -22 29 -22 30 7 6 7 7 37 -19 38 -19 3 -7 4 -8 11
0 12 0 14 -9 14 -9 -29 -25 -29 -26 12 -12 12 -12 7 16 6 17 14 0 14 0 0 10 0
10 19 0 20 0 6 -10 6 -10 30 0 29 0 0 -10 0 -10 -15 0 -14 0 -34 -35 -34 -35
-17 0 -16 0 0 -7 0 -7 22 -23 21 -23 19 0 18 0 0 8 0 8 -12 13 -13 12 19 15
20 14 21 -20 21 -20 10 0 10 0 24 -30 25 -29 21 -1 22 0 15 -22 16 -23 10 15
10 15 -16 17 -16 18 13 15 12 15 7 0 6 0 28 -40 28 -40 21 0 21 0 46 -37 46
-38 3 -7 4 -8 17 0 17 0 16 -17 17 -18 15 -12 15 -13 21 0 20 0 0 -19 0 -19
-37 9 -38 8 -14 20 -13 21 -23 0 -22 0 -32 11 -31 11 0 10 0 10 -21 -5 -20 -5
-6 14 -5 14 -36 10 -37 10 -7 0 -8 0 0 -15 0 -15 -10 0 -10 0 0 9 0 10 10 6
10 6 -5 10 -6 9 -31 0 -30 0 6 -24 6 -25 -10 -6 -11 -7 -19 24 -19 23 -1 18 0
17 -14 0 -14 0 -7 -17 -8 -18 -1 -20 -1 -20 -37 -3 -38 -3 0 -10 0 -9 -11 0
-11 0 -28 20 -27 19 -32 -12 -31 -11 -29 11 -29 11 -11 -11 -11 -11 -12 12
-13 13 23 6 23 6 -4 11 -4 11 -16 3 -16 3 -21 -21 -22 -22 -25 7 -25 6 4 -12
4 -13 32 -15 32 -16 0 -18 0 -18 16 15 15 16 13 0 14 0 12 -15 12 -15 15 0 14
0 5 15 6 15 11 -7 11 -7 27 2 27 2 5 -14 6 -15 -38 -19 -37 -20 -18 10 -18 10
-10 -10 -10 -10 31 -18 31 -18 0 -13 0 -12 -9 -6 -10 -5 -6 20 -6 20 -24 0
-24 0 -6 -10 -6 -10 45 -47 46 -46 0 -13 0 -12 15 -6 15 -5 0 -21 0 -20 -26 0
-27 0 -12 16 -12 17 -18 -10 -18 -11 20 -6 21 -7 6 -14 5 -15 26 0 26 0 5 -15
6 -15 14 0 14 0 0 15 0 15 -10 0 -10 0 0 18 1 17 13 -17 13 -18 12 0 11 0 0
-15 0 -15 15 0 15 0 0 15 0 15 -14 0 -14 0 -12 38 -11 37 -8 20 -8 20 -11 25
-11 25 -4 33 -4 32 8 0 8 0 19 -25 20 -25 17 0 17 0 5 -20 5 -20 9 0 9 0 0
-15 0 -15 -15 0 -15 0 0 14 0 14 -20 5 -20 5 0 -8 0 -8 14 -11 14 -12 -5 -19
-5 -20 13 0 14 -1 18 -38 17 -38 0 -9 0 -10 -20 -17 -20 -17 -24 0 -24 0 -7
-27 -7 -28 -12 30 -13 30 -36 13 -37 13 0 10 0 9 -25 10 -25 10 0 10 0 10 -12
0 -12 0 -23 22 -24 22 -6 -22 -5 -22 -14 0 -13 0 -21 28 -21 28 -34 18 -34 19
-16 -7 -17 -6 24 -29 23 -30 6 0 6 -1 39 -36 38 -36 28 -10 28 -10 0 -9 0 -9
23 0 23 0 22 -25 23 -26 -40 5 -40 5 -21 11 -21 11 -19 -6 -20 -6 -31 30 -31
31 -34 0 -34 0 0 10 0 10 -21 21 -20 20 -19 -6 -19 -6 -3 -36 -3 -36 -12 -5
-13 -4 0 21 0 21 12 0 12 0 -11 11 -11 11 15 28 14 29 21 7 21 6 -29 24 -29
23 -7 1 -6 0 -23 -46 -22 -46 -38 6 -37 6 -15 6 -14 5 4 -25 5 -26 -33 0 -34
0 -10 -8 -10 -7 -2 -35 -3 -35 35 -24 35 -24 0 -8 0 -9 -15 0 -16 0 -5 15 -6
15 -23 0 -22 0 -10 22 -10 22 15 29 14 28 -6 6 -6 6 -37 6 -38 7 1 21 0 21
-30 -9 -30 -9 -10 10 -10 10 12 12 12 12 0 11 -1 10 -14 -19 -14 -19 -46 47
-46 46 -9 0 -10 0 0 -19 0 -19 15 -12 15 -12 0 -10 0 -10 23 -19 22 -18 23 -1
22 0 0 -15 0 -15 -16 0 -15 0 -44 20 -44 20 -6 10 -6 10 -17 0 -17 1 -22 18
-23 19 0 8 0 7 -17 19 -16 18 -12 0 -13 0 -5 -20 -5 -20 -21 0 -21 0 0 -11 0
-11 28 5 27 5 28 -5 27 -5 0 -19 0 -18 51 -53 51 -53 12 -15 11 -15 20 -13 20
-12 22 -9 21 -10 7 -10 6 -11 18 0 19 0 12 -14 11 -15 25 -3 25 -3 0 -10 0
-10 -27 -3 -26 -4 -11 11 -11 11 -23 0 -22 0 -9 15 -8 16 -28 -11 -27 -10 -6
0 -5 0 4 25 5 25 -31 1 -31 1 18 5 17 5 -5 9 -6 9 -25 0 -24 0 0 13 0 14 -17
15 -18 16 -30 6 -30 7 -30 24 -30 24 12 12 11 11 20 -11 19 -10 7 6 6 6 0 14
0 13 -45 0 -45 0 0 10 0 10 -17 0 -18 -1 18 -13 17 -13 0 -34 0 -34 49 -50 48
-50 19 -13 19 -12 23 -10 22 -10 0 -10 0 -10 29 0 29 0 6 -15 5 -15 42 0 41 0
-4 -12 -5 -13 -31 -3 -32 -3 -17 10 -18 10 -15 -13 -15 -12 -38 -13 -37 -12
-20 6 -20 6 0 11 0 11 35 -6 35 -6 0 19 0 19 -27 3 -28 3 -3 26 -3 27 -35 6
-34 7 0 19 0 20 -19 0 -19 0 -6 16 -6 16 -25 -6 -25 -6 0 9 0 9 12 4 12 4 -7
16 -6 16 -22 -5 -22 -6 5 26 5 27 -18 0 -18 0 -26 24 -27 25 -11 4 -11 3 8 13
8 13 19 -5 19 -5 0 5 0 4 -12 22 -11 22 -16 13 -16 12 16 10 17 10 0 39 1 39
-56 1 -55 0 -13 17 -12 17 -24 -5 -24 -5 -20 -9 -20 -8 13 17 14 16 -7 11 -6
10 -13 0 -12 0 -47 -45 -47 -45 -15 0 -15 0 -10 -25 -10 -25 -18 0 -18 0 -12
12 -11 11 -16 -13 -15 -12 0 -14 0 -13 -10 -6 -11 -7 -31 31 -32 31 -7 0 -8 0
-6 21 -7 21 13 9 14 9 7 0 7 0 6 -21 7 -21 19 -19 19 -19 9 0 9 0 -11 30 -11
29 7 7 7 8 12 -12 12 -12 22 0 22 0 5 -12 5 -13 1 18 1 17 10 0 10 0 20 20 20
20 -26 0 -25 0 3 23 3 22 23 3 23 4 11 24 11 24 23 0 22 0 6 -15 5 -15 31 0
30 0 0 10 0 10 -24 10 -24 9 -7 10 -6 11 -24 0 -24 0 -6 -10 -6 -10 -27 0 -27
1 19 14 19 15 -18 20 -18 20 -13 0 -12 0 5 -18 4 -18 -26 -12 -26 -12 -12 7
-12 8 -17 -3 -17 -3 -11 20 -11 21 -15 0 -16 0 6 17 7 17 -23 17 -23 18 8 7 8
8 32 -12 32 -11 24 6 23 6 -7 -22 -6 -21 20 0 19 0 17 -7 17 -6 -11 22 -12 21
16 22 15 22 0 18 0 18 -15 0 -15 0 0 -15 0 -15 -14 0 -13 0 -28 27 -27 27 7
-39 6 -40 -11 17 -11 17 -32 -6 -32 -6 -8 -14 -8 -13 -19 0 -19 0 -5 -9 -6 -9
15 -12 15 -12 0 -9 0 -9 -30 0 -30 0 -42 41 -43 41 -20 10 -20 9 -27 15 -28
15 0 10 0 9 -26 0 -25 0 3 -17 3 -18 23 -3 22 -3 0 -10 0 -9 14 0 14 0 17 -27
18 -27 -11 -4 -12 -4 0 -14 0 -14 -19 0 -20 0 -6 -10 -6 -10 16 -7 17 -6 24
-22 24 -22 0 -7 0 -6 -11 0 -12 0 -13 -17 -14 -18 -11 18 -10 17 -23 0 -24 0
-7 18 -6 17 -14 -18 -14 -19 -25 19 -25 18 -1 13 0 12 -15 0 -15 0 0 -15 0
-15 -15 0 -15 0 0 -15 0 -15 15 0 15 0 0 15 0 15 15 0 15 0 0 -12 0 -11 -17
-19 -16 -18 -29 0 -28 0 0 -15 0 -16 14 -34 15 -35 10 0 11 0 0 -19 0 -19 21
-5 21 -6 -6 -45 -7 -44 21 -7 20 -6 0 -19 0 -19 12 -26 11 -25 9 0 8 0 0 -10
0 -10 -15 0 -15 0 0 15 0 15 -20 0 -20 0 0 -24 0 -24 -14 -11 -14 -12 16 -30
17 -29 16 0 17 0 12 -15 12 -15 21 0 20 0 23 25 24 26 11 21 11 21 -13 8 -13
8 7 8 8 7 8 -13 8 -13 24 4 24 3 0 20 0 20 8 13 8 12 35 15 34 14 0 9 0 10 16
6 17 6 14 -12 15 -12 -21 -15 -21 -16 33 -38 34 -37 16 0 17 0 1 43 1 42 10
-27 10 -28 9 0 10 0 4 15 5 15 5 16 5 16 29 -28 30 -28 -6 -27 -5 -27 11 -6
11 -7 21 12 22 11 22 -12 22 -12 18 4 18 3 5 13 4 12 -26 0 -25 0 -6 9 -5 10
10 6 11 7 30 -12 30 -13 12 12 11 11 8 0 8 0 0 -10 0 -10 -15 0 -15 0 0 -19 0
-20 10 -6 10 -6 0 -20 0 -20 -20 6 -20 6 0 -14 0 -14 21 -27 20 -26 45 0 44 0
0 9 0 10 -10 6 -10 6 0 15 0 14 30 0 30 0 0 -15 0 -15 15 0 15 0 0 15 0 15 14
0 14 0 10 -27 10 -28 6 -17 5 -18 16 0 15 0 0 11 0 11 23 19 22 18 23 1 22 0
0 10 0 10 13 0 14 0 13 -25 13 -25 24 0 24 0 5 -14 5 -14 25 -6 24 -6 0 -10 0
-10 -8 0 -7 0 -54 20 -53 19 -13 18 -13 18 -7 -27 -7 -27 35 -42 35 -41 39
-20 38 -21 7 -11 7 -11 78 -6 78 -6 60 8 59 8 17 -15 17 -15 69 -6 70 -6 53
18 52 17 58 -6 57 -7 12 15 13 15 23 -9 23 -9 21 6 21 5 24 -15 23 -16 44 1
44 0 10 8 10 7 47 6 47 6 4 -12 4 -12 169 -2 169 -2 240 -4 240 -5 54 -11 54
-11 57 0 58 0 11 -14 12 -14 35 0 34 0 14 20 14 20 7 -21 6 -21 14 0 14 0 10
-17 9 -18 76 -3 76 -4 0 -18 0 -18 -27 -6 -28 -6 -113 4 -113 4 -12 10 -12 10
-35 2 -35 2 -17 -1 -18 -1 0 -14 0 -14 25 -6 26 -7 10 7 10 6 20 -18 19 -17
45 -1 45 -1 0 -12 0 -13 -19 0 -19 0 -11 -14 -12 -14 -91 3 -91 4 -7 10 -6 11
-87 6 -87 7 0 -11 0 -11 17 -16 17 -17 47 4 47 5 17 -20 16 -19 -3 -3 -3 -4
-180 -5 -180 -4 -35 -11 -35 -11 -60 0 -61 0 -10 -8 -9 -9 -42 -13 -43 -13
-19 17 -19 17 -7 -10 -6 -11 -223 0 -222 0 -12 12 -11 11 -13 -11 -13 -11 -40
-3 -40 -3 0 -20 0 -20 355 -2 355 -2 21 14 20 13 105 6 104 6 30 2 30 3 10 7
10 6 88 1 88 1 -7 -11 -7 -11 -48 5 -47 6 -6 -15 -5 -14 -21 0 -21 0 -6 -16
-6 -17 24 -18 24 -18 -75 6 -75 6 -13 -16 -12 -15 -73 14 -72 14 -13 -5 -13
-5 3 -27 3 -28 -65 3 -65 4 -9 9 -10 9 -12 0 -12 0 -6 -16 -6 -15 10 -20 11
-19 67 -1 67 0 -22 -11 -23 -11 0 -9 0 -8 -72 0 -73 0 -29 -15 -28 -15 -82 0
-82 0 -20 -15 -19 -14 -60 -1 -60 0 -29 -15 -28 -15 -13 0 -13 0 -5 -14 -6
-14 -50 -7 -50 -7 -11 -12 -10 -13 -78 3 -79 2 -14 -9 -14 -9 20 -16 20 -15
27 5 28 5 15 -5 15 -6 0 -17 0 -16 24 -46 25 -46 1 -129 2 -129 -6 -55 -6 -55
-9 -125 -9 -125 -10 -40 -11 -40 -5 -95 -4 -95 -12 -40 -12 -40 -11 -13 -10
-13 -34 -14 -34 -15 -67 -2 -67 -3 -3 49 -3 48 15 52 15 51 11 113 11 113 9
25 10 25 0 34 0 34 9 5 9 6 7 43 7 42 13 45 14 45 13 85 12 85 -1 67 0 67 -15
15 -16 15 -6 43 -7 43 -7 12 -8 13 -25 1 -24 1 -179 -2 -180 -1 -8 15 -9 16
-22 0 -22 0 -15 -10 -15 -10 25 -20 25 -20 -26 0 -27 0 -12 15 -12 15 -94 0
-94 0 0 18 0 18 -86 -4 -87 -5 -9 17 -9 16 -53 0 -54 0 -6 15 -5 15 -40 0 -39
0 -6 15 -5 15 -21 0 -20 0 0 -17 -1 -18 -10 18 -10 17 -24 0 -25 0 0 15 0 15
-30 0 -30 0 0 15 0 15 -29 0 -30 0 -15 15 -15 15 -14 0 -15 0 -6 15 -5 15 -26
0 -25 0 0 15 0 15 -30 0 -30 0 0 15 0 15 -29 0 -29 0 -12 15 -12 15 -19 0 -19
0 0 15 0 15 -29 0 -29 0 -6 15 -5 15 -26 0 -25 0 0 15 0 15 -20 0 -21 0 -5 15
-6 15 -19 0 -19 0 0 15 0 15 -10 0 -9 0 -36 35 -35 36 0 16 0 16 -60 59 -60
58 0 10 0 10 -15 0 -15 0 0 24 0 24 -15 6 -15 5 0 16 0 15 -14 0 -14 0 -6 18
-6 17 -13 22 -14 23 -26 24 -27 25 0 13 0 14 -30 32 -30 33 0 13 0 14 -15 12
-15 12 0 23 0 23 -15 6 -15 5 0 26 0 26 -15 5 -15 6 0 33 0 33 -15 12 -15 12
0 18 0 18 -15 12 -15 12 0 48 0 48 -15 12 -15 12 0 65 0 64 -15 29 -15 29 8 5
9 5 3 53 3 53 -2 76 -1 75 38 17 39 17 19 0 20 0 20 14 19 15 -28 10 -28 11
-9 0 -9 0 -35 21 -36 21 0 8 0 9 -14 14 -14 14 -21 39 -21 39 0 13 0 13 -15 5
-15 6 0 13 0 13 -15 6 -15 5 0 20 0 19 -32 24 -31 23 -57 58 -56 57 -11 0 -11
0 -16 24 -16 25 15 34 14 35 17 6 16 6 9 -6 9 -5 0 -27 0 -27 34 -23 34 -24
-5 -34 -6 -34 13 0 13 0 13 17 12 18 13 -27 12 -28 24 -15 23 -15 0 -13 0 -13
20 -41 19 -41 16 -5 15 -6 0 -23 1 -23 15 20 14 19 25 -26 25 -27 0 -14 0 -14
34 -37 35 -36 10 0 11 0 6 25 6 24 19 6 19 6 9 -6 10 -5 5 9 6 9 -15 12 -15
12 0 20 0 19 -15 5 -15 6 0 14 0 13 18 10 17 10 -12 1 -13 0 0 16 0 17 17 13
18 12 -29 27 -29 26 12 12 11 11 0 13 0 13 -14 0 -14 0 -6 -16 -6 -16 -25 24
-25 23 0 22 0 22 9 6 10 5 15 -22 16 -22 11 11 11 11 -4 18 -3 19 -32 3 -31 3
-6 22 -5 22 9 9 9 9 16 -13 15 -13 20 18 20 18 0 9 0 9 -35 20 -35 21 0 9 0 9
10 0 10 0 19 -19 20 -20 52 4 52 3 20 17 19 17 24 -5 25 -4 8 15 8 15 12 -7
11 -7 0 -35 0 -34 15 0 15 0 0 -11 0 -10 -31 -28 -31 -29 12 -7 12 -8 7 10 6
9 19 7 19 7 13 -11 13 -10 21 11 22 12 14 -19 13 -18 1 17 0 16 -6 16 -6 16
-23 0 -24 0 -6 10 -6 10 17 7 17 6 18 -11 18 -12 16 6 15 6 0 -10 0 -10 -12
-5 -13 -4 9 -9 9 -9 4 13 5 12 19 0 19 0 0 -15 0 -15 13 0 13 0 13 13 14 12 4
-12 5 -13 8 0 8 0 12 29 12 30 14 5 14 5 -26 26 -25 25 -6 0 -6 0 -13 18 -13
17 -1 23 0 22 -10 0 -10 0 -20 -12 -20 -13 -43 23 -43 23 -17 -7 -17 -6 -23
15 -23 15 -25 4 -24 3 -3 28 -3 27 -31 0 -30 0 6 -25 6 -25 -10 -20 -11 -20
-9 0 -10 0 0 45 0 45 11 0 12 0 12 17 12 16 41 -1 41 -2 43 -16 43 -17 16 -14
16 -13 19 0 19 0 15 10 15 10 -13 0 -12 0 -10 25 -10 25 -13 0 -14 0 -7 40 -6
40 -20 0 -20 0 0 10 0 10 19 0 19 0 17 -6 17 -7 9 -24 9 -24 10 6 10 6 0 25 0
24 -10 0 -10 0 -10 26 -10 27 -37 -6 -37 -6 -8 -16 -9 -15 -19 10 -19 10 -6 0
-6 0 3 -21 3 -22 45 -17 45 -18 3 -16 3 -16 -21 0 -21 0 -5 14 -5 13 -32 -1
-32 -1 -11 -14 -12 -15 -31 31 -31 31 -32 8 -33 7 15 5 15 5 28 28 28 28 -7
26 -6 25 -9 0 -10 0 -5 -15 -6 -16 -44 -19 -43 -20 -15 0 -16 0 0 -19 0 -20
38 -31 37 -31 20 4 20 4 18 8 17 7 0 -22 0 -22 -30 6 -30 6 0 -20 0 -19 10 -6
10 -6 0 -8 0 -8 -34 -6 -35 -6 -18 5 -19 5 -19 35 -18 34 -36 22 -36 23 -10 4
-10 4 -17 14 -16 14 -29 -3 -28 -3 2 -22 3 -23 -10 0 -9 0 -25 12 -26 11 -17
-15 -18 -15 -17 -6 -18 -6 0 -11 0 -10 14 0 15 0 6 -11 7 -10 -17 -13 -16 -12
21 -27 22 -28 -6 -14 -5 -15 -10 0 -10 0 -15 22 -16 22 0 28 0 28 -7 0 -6 0
-18 -16 -18 -17 -26 17 -25 16 -1 13 -1 12 -2 10 -2 10 -8 18 -9 18 11 25 12
24 45 22 45 22 7 -8 8 -8 -18 -9 -17 -10 0 -12 0 -12 -9 -14 -9 -15 -16 13
-16 13 0 -20 0 -20 15 -6 15 -5 35 20 35 21 0 18 0 18 13 9 12 10 65 0 65 0
12 -9 13 -10 5 16 5 16 5 15 4 15 10 0 10 0 3 -37 3 -38 26 -3 26 -3 13 15 12
16 19 0 19 0 0 15 0 15 14 0 14 0 16 25 16 24 0 6 0 5 -10 0 -10 0 0 -15 0
-15 -20 0 -20 0 0 11 0 12 -16 12 -17 12 35 21 35 22 11 0 10 0 6 15 5 15 25
0 24 0 6 15 6 15 23 -5 23 -6 18 20 19 21 14 0 13 0 0 -10 0 -11 -17 -6 -18
-7 -12 -12 -13 -13 0 -14 0 -15 25 -5 26 -4 9 18 10 18 53 3 52 3 1 26 1 26 7
12 7 11 10 -5 9 -6 0 -18z m-515 0 l6 -10 -20 -10 -19 -11 5 -21 6 -22 20 -20
20 -20 18 12 19 11 10 0 10 0 -12 -21 -13 -21 33 -28 33 -27 -16 -7 -17 -6 -3
0 -3 0 -5 20 -5 20 -30 -6 -30 -6 -4 23 -3 24 -25 -3 -25 -3 13 13 12 12 0 12
0 12 -20 5 -20 5 0 16 0 16 -20 0 -20 0 0 22 0 21 19 -17 18 -17 24 20 24 20
7 1 7 0 6 -9z m777 -73 l-12 -12 -12 12 -12 12 24 0 24 0 -12 -12z m-928 -28
l26 -10 0 -11 0 -11 -24 6 -24 6 -6 -16 -6 -16 -14 12 -15 11 17 20 16 19 3 0
2 0 25 -10z m1128 -10 l38 0 0 -14 0 -15 -7 -4 -8 -5 -58 12 -57 12 17 17 17
17 10 -10 10 -10 38 0z m-295 -147 l18 -28 12 -8 13 -8 -5 -10 -6 -9 -31 17
-30 18 -9 18 -10 17 6 10 6 10 9 0 10 0 17 -27z m369 -24 l7 -11 47 6 48 6 26
-11 26 -12 0 -19 0 -18 -34 0 -35 0 -6 10 -6 10 -43 0 -42 0 -12 12 -12 12 0
13 0 13 14 0 15 0 7 -11z m-1032 -63 l26 -23 0 -7 0 -6 -22 0 -21 0 -19 17
-18 16 0 14 0 13 14 0 15 0 25 -24z m1186 -48 l-22 -18 -19 0 -18 0 -5 9 -6 9
14 5 14 6 20 -6 20 -5 8 24 7 23 5 -14 5 -15 -23 -18z m-1568 -4 l-5 -37 -9
16 -9 17 11 20 11 20 2 0 3 0 -4 -36z m278 -19 l0 -16 -16 -6 -15 -6 -12 12
-12 12 15 9 15 10 13 0 12 0 0 -15z m1200 -5 l0 -20 -30 0 -30 0 0 10 0 11 23
9 22 9 8 0 7 1 0 -20z m-1080 -11 l0 -11 23 5 22 6 40 -11 40 -10 30 1 30 0
-17 -10 -18 -10 0 -10 0 -11 -32 -34 -32 -34 -24 0 -23 0 -5 -15 -6 -15 -14 0
-14 0 0 10 0 11 15 5 15 6 0 14 0 14 -22 0 -23 0 -15 10 -14 9 17 7 17 6 0 9
0 9 -17 0 -18 0 -24 -19 -23 -18 16 -6 16 -6 0 -20 0 -20 30 -21 30 -21 0 -19
0 -19 -17 -3 -17 -3 -1 -29 0 -29 -12 -4 -13 -5 0 16 0 17 -14 5 -13 5 -14 41
-13 40 -14 6 -15 5 -13 -18 -13 -17 -6 25 -7 26 7 10 6 11 20 0 19 0 0 13 0
12 25 28 26 27 9 0 10 0 0 11 0 12 18 13 17 13 13 1 12 0 0 -11z m-146 -65 l7
-27 -10 -10 -9 -9 -11 6 -11 7 0 23 0 23 7 6 6 7 8 0 7 0 6 -26z m494 -16 l12
-12 0 -18 0 -18 -11 0 -12 0 -13 18 -13 17 -15 -20 -15 -20 -1 13 0 12 12 20
13 20 15 0 16 0 12 -12z m-555 -28 l9 -8 -11 -21 -12 -21 -8 0 -9 0 -12 15
-12 15 -19 0 -18 0 -6 10 -6 10 6 10 6 10 42 -6 42 -7 8 -7z m1478 -39 l32
-33 32 6 31 6 22 -20 22 -21 0 -29 0 -30 -15 0 -15 0 0 25 0 25 -24 6 -25 6
-9 -6 -10 -6 -12 15 -12 15 -12 0 -11 -1 -25 -29 -24 -30 -24 0 -23 0 3 18 3
17 23 3 22 3 0 10 0 9 14 0 15 0 6 10 6 10 -18 7 -18 7 -11 14 -11 15 -12 -7
-12 -8 17 -13 17 -12 -7 -18 -6 -18 -57 7 -57 7 -16 14 -17 15 -11 0 -11 0 -6
10 -6 9 20 20 20 20 28 3 28 3 62 -11 61 -10 33 -33z m-791 29 l0 -21 16 -6
17 -6 18 11 19 12 15 0 15 0 0 -14 0 -15 -12 -7 -11 -7 21 -8 22 -8 0 -13 -1
-13 -24 -18 -25 -18 -9 24 -10 25 -32 16 -32 16 -38 -12 -39 -11 0 -9 0 -8
-10 0 -10 0 0 35 0 35 8 0 8 0 12 -12 11 -11 7 19 7 19 10 13 9 12 19 0 19 0
0 -20z m-840 -26 l0 -16 -12 4 -12 4 -4 12 -4 12 16 0 16 0 0 -16z m120 -45
l0 -11 30 -28 30 -28 0 -25 0 -26 -10 -6 -10 -6 -7 18 -6 18 -30 38 -29 37 6
15 5 15 11 0 10 0 0 -11z m1756 -12 l7 -7 -12 -14 -12 -14 10 -6 10 -6 9 16 9
16 18 -3 18 -4 5 -12 4 -13 -26 0 -26 0 0 -15 0 -15 -15 0 -15 0 0 10 0 9 -30
16 -30 16 0 20 0 20 35 -4 35 -4 6 -6z m-1756 -92 l0 -15 -15 0 -15 0 0 15 0
15 15 0 15 0 0 -15z m1910 0 l0 -15 25 0 25 0 0 15 0 15 4 0 4 0 16 -6 16 -6
0 -9 0 -9 -19 0 -19 0 -6 -15 -5 -15 -25 0 -24 0 -6 15 -5 15 -38 0 -38 0 -22
6 -23 6 6 9 5 9 65 0 64 0 0 -15z m-177 -7 l22 -13 12 -16 12 -17 28 -5 28 -6
30 -7 30 -7 13 -14 13 -13 14 0 13 0 16 6 16 6 -6 25 -7 25 24 -4 24 -3 3 -19
4 -19 -16 -9 -16 -9 0 -14 0 -15 25 0 25 0 0 20 0 20 9 0 9 0 11 -14 11 -14
48 6 47 5 16 13 16 14 31 0 32 0 0 -10 0 -10 -24 0 -25 0 -6 -9 -5 -10 10 -6
10 -6 0 -9 0 -10 -26 -16 -25 -17 -12 12 -11 11 12 0 12 0 0 17 0 17 -12 -12
-12 -12 -29 0 -29 0 -5 -20 -5 -20 -9 0 -9 0 0 -11 0 -10 15 -16 15 -15 -5 -8
-5 -9 -30 10 -29 11 -3 21 -3 22 -22 3 -23 3 0 -15 0 -16 -7 0 -7 0 -43 21
-43 21 0 8 0 8 15 6 15 5 15 -5 15 -6 0 11 0 11 -21 0 -21 0 -5 20 -5 20 -39
0 -40 0 -5 15 -6 15 -25 0 -26 0 -12 -17 -12 -16 -11 7 -12 7 0 14 0 14 13 4
12 4 -28 -3 -27 -4 6 28 7 27 4 8 4 7 10 0 9 0 23 -12z m-1486 -13 l5 -16 -16
-18 -16 -18 0 -14 0 -15 11 -11 11 -11 -10 -18 -10 -19 -7 28 -7 27 -8 0 -8 0
-16 6 -16 6 0 -15 0 -15 14 -28 15 -28 -6 -10 -7 -10 2 -33 3 -33 -9 0 -10 0
-10 40 -10 40 5 22 6 21 -17 9 -16 9 0 14 0 14 13 8 14 8 6 18 7 18 19 -11 20
-10 5 0 6 0 0 30 0 30 15 0 16 0 6 -15z m-132 -25 l0 -23 -12 -4 -11 -4 -7 20
-6 21 6 10 7 11 11 -4 12 -4 0 -23z m-540 -9 l5 -10 -10 -6 -10 -6 -10 6 -10
6 5 10 6 9 9 0 9 0 6 -9z m2225 -60 l0 -9 -16 -6 -16 -6 -9 0 -9 0 0 15 0 15
25 0 25 0 0 -9z m-142 -29 l3 -22 -20 0 -21 0 0 -24 0 -25 -10 -6 -10 -6 0
-13 0 -14 21 -5 21 -6 -7 -10 -6 -11 -45 0 -44 0 0 8 0 7 25 27 25 27 0 26 0
25 15 0 15 0 0 26 0 25 18 -3 17 -3 3 -23z m655 21 l7 -6 -11 -13 -11 -14 -9
6 -9 5 0 15 0 14 13 0 14 0 6 -7z m-605 -57 l4 -18 -6 -24 -6 -24 -25 0 -25 0
0 15 0 16 16 30 15 30 12 -4 12 -4 3 -17z m-1438 -11 l0 -25 -15 0 -15 0 0 25
0 25 15 0 15 0 0 -25z m1260 -29 l0 -14 -15 -12 -16 -13 -9 9 -10 10 16 22 15
22 10 -5 9 -6 0 -13z m1060 4 l0 -10 -15 0 -15 0 0 10 0 10 15 0 15 0 0 -10z
m-667 -24 l6 -14 23 -4 23 -3 3 -17 3 -18 -27 0 -28 0 -33 23 -33 22 0 13 0
12 29 0 29 0 5 -14z m-1595 -25 l13 -8 -6 -26 -7 -25 21 -12 21 -11 0 -9 0
-10 -20 -20 -20 -20 -13 0 -13 0 -15 18 -16 18 -16 34 -17 33 0 24 0 23 38 0
37 0 13 -9z m2424 -8 l3 -8 46 -22 46 -23 16 0 16 0 6 -10 6 -10 -40 0 -41 0
0 -14 0 -13 31 -7 30 -6 -5 -9 -6 -9 -27 -7 -26 -6 -28 20 -28 21 -26 0 -25 0
0 15 0 15 46 -3 47 -2 3 10 4 10 -37 20 -37 20 -4 13 -4 12 15 0 15 0 4 -7z
m208 -93 l0 -10 -30 0 -30 0 0 10 0 10 30 0 30 0 0 -10z m60 -25 l0 -15 -25 0
-25 0 0 9 0 10 18 4 17 5 8 1 7 1 0 -15z m55 -35 l-6 -10 -20 0 -19 0 0 10 0
10 26 0 25 0 -6 -10z m70 -51 l7 -20 -6 -25 -6 -24 -8 0 -7 0 -1 45 -1 45 8 0
8 0 6 -21z m145 -65 l0 -5 -14 -15 -15 -14 -5 0 -6 0 0 20 0 20 20 0 20 0 0
-6z m-772 -59 l44 -45 16 0 17 -1 29 -23 29 -24 -7 -17 -6 -17 -28 7 -27 6 13
-12 12 -13 0 -13 0 -13 -20 0 -20 0 0 10 0 10 -20 0 -20 0 0 -9 0 -9 15 -6 15
-5 0 -11 0 -10 -18 0 -19 0 -19 21 -19 21 18 13 17 12 0 13 0 12 -24 -6 -24
-6 -5 14 -6 15 12 9 12 9 14 5 14 4 -32 32 -32 32 6 20 6 20 7 0 7 0 43 -45z
m684 28 l17 -18 15 -12 15 -13 15 0 14 0 5 13 4 12 9 -8 8 -8 -12 -19 -12 -20
0 -9 0 -10 38 -6 37 -7 18 -5 18 -5 -15 -17 -16 -18 0 -7 0 -7 26 3 27 3 4
-12 4 -12 -25 -7 -26 -6 0 -9 0 -9 -15 0 -15 0 6 24 6 24 -19 6 -18 6 -77 74
-78 74 0 11 0 11 13 0 13 0 16 -17z m-547 -13 l-6 -20 20 0 20 0 6 -19 6 -19
14 -6 15 -5 -6 -16 -6 -15 -19 0 -18 0 -8 13 -8 12 -30 21 -30 20 -17 7 -18 6
0 11 0 11 23 9 22 9 23 0 23 1 -6 -20z m695 10 l0 -10 -14 0 -15 0 -6 10 -6
10 20 0 21 0 0 -10z m-1070 -31 l0 -9 -15 0 -15 0 0 8 0 9 6 6 7 6 8 -5 9 -5
0 -10z m446 -100 l6 -11 -9 -9 -10 -10 -29 11 -28 11 14 9 15 10 17 0 17 0 7
-11z m-519 -51 l23 -21 32 0 33 0 30 -17 30 -17 30 -8 30 -8 19 2 19 3 -7 -26
-6 -26 8 0 8 0 22 16 22 15 0 15 0 15 26 -3 27 -3 17 -31 16 -32 28 -23 27
-24 -24 -23 -24 -23 -19 1 -19 0 -59 1 -59 0 -28 30 -27 29 -21 0 -21 0 0 -9
0 -9 15 -6 15 -5 0 -10 0 -10 -35 -16 -34 -17 -13 5 -13 6 23 6 22 7 0 9 0 9
-22 9 -23 9 -19 21 -19 21 -8 0 -7 0 5 -19 5 -19 19 -5 19 -5 0 -16 0 -16 -17
0 -16 0 -45 46 -44 46 11 11 11 11 20 -12 20 -12 0 16 0 16 32 -4 33 -3 3 18
3 17 -35 0 -36 0 0 14 0 15 -22 7 -23 7 -7 11 -8 11 0 13 0 12 17 0 17 0 23
-22z m1481 1 l-3 -10 -10 0 -9 0 -4 10 -4 11 17 0 17 0 -4 -11z m-1248 -21
l-20 -22 -7 8 -8 8 19 14 20 14 8 0 9 0 -21 -22z m226 1 l7 -12 -17 -9 -16 -9
0 -9 0 -10 15 0 16 0 5 15 6 15 13 0 13 0 12 15 12 15 19 0 19 0 0 -10 0 -9
22 -21 22 -20 -10 -1 -9 -1 -12 -2 -13 -1 3 -10 2 -10 18 2 17 3 0 -11 0 -11
30 -30 30 -30 0 -9 0 -9 -20 0 -20 0 -21 -21 -20 -20 -22 7 -22 7 -52 50 -53
51 0 17 0 17 -21 14 -22 14 12 22 12 22 19 0 19 0 7 -11z m1114 -64 l0 -14
-15 5 -15 6 0 9 0 9 15 0 15 0 0 -15z m-2442 -33 l4 -13 -21 -6 -21 -5 0 -9 0
-9 -20 0 -20 0 0 10 0 10 18 19 17 20 19 -2 19 -2 5 -13z m35 -19 l7 -6 -16
-18 -17 -19 17 -6 16 -6 0 -14 0 -14 -15 0 -15 0 0 -15 0 -15 -20 0 -20 0 0
11 0 11 20 5 20 5 0 13 0 13 -25 6 -25 6 0 10 0 9 28 15 27 15 6 1 6 0 6 -7z
m131 -9 l16 -6 0 -19 0 -19 16 0 16 0 5 -21 6 -20 28 6 29 7 0 -10 0 -10 -15
-12 -15 -12 0 -9 0 -9 14 0 15 0 6 -10 6 -10 -17 -7 -16 -6 -10 16 -9 17 -18
0 -19 0 -6 -15 -5 -15 -11 0 -10 0 -27 30 -26 30 -24 0 -23 0 0 -15 0 -15 10
0 10 0 0 -10 0 -10 -12 0 -13 1 -20 14 -19 15 31 31 30 31 22 -11 21 -12 0 -9
0 -10 14 0 14 0 6 -15 5 -15 11 0 10 0 0 14 0 14 -15 6 -15 5 0 22 0 22 -17
12 -16 12 6 17 6 16 5 0 4 0 16 -6z m566 -35 l0 -19 -15 0 -15 0 0 18 0 19 6
6 7 6 8 -5 9 -5 0 -20z m-630 0 l0 -21 -16 6 -16 6 -4 0 -4 0 0 15 0 15 20 0
20 0 0 -21z m1460 -27 l0 -9 -19 -17 -19 -17 -7 10 -6 11 13 14 13 15 13 1 12
0 0 -8z m-1730 -27 l0 -15 15 0 15 0 0 -19 0 -19 -22 -6 -23 -6 -10 0 -10 1
20 15 20 15 -17 13 -18 13 0 12 0 11 15 0 15 0 0 -15z m-62 -32 l4 -13 -26 0
-26 0 0 16 0 15 22 -3 21 -3 5 -12z m1882 -5 l0 -22 -11 11 -11 11 6 11 7 11
5 0 4 0 0 -22z m70 7 l0 -15 -15 0 -15 0 0 8 0 9 7 6 6 7 9 0 8 0 0 -15z
m-1710 -30 l0 -15 21 0 21 0 -4 -25 -5 -25 3 0 3 0 36 20 36 20 4 0 5 0 0 -15
0 -14 -25 -26 -26 -25 -15 0 -16 0 -38 36 -38 37 10 23 11 24 9 0 8 0 0 -15z
m2455 2 l18 -14 -12 -8 -13 -7 -21 21 -21 21 15 0 15 0 19 -13z m-138 -13 l16
-16 32 6 33 6 5 -15 6 -15 31 6 30 7 0 -15 0 -15 19 -17 20 -18 -12 -19 -11
-19 12 -12 12 -12 0 21 0 21 18 5 17 5 16 6 16 7 6 -20 5 -21 19 0 18 0 10
-22 10 -23 35 -11 34 -11 4 -12 4 -11 -11 0 -12 0 -64 12 -64 12 -4 16 -4 15
-8 -19 -8 -18 13 -8 13 -8 -8 -11 -7 -12 -11 4 -12 4 0 19 0 19 -40 3 -40 3
-18 17 -18 16 -33 -18 -34 -18 -21 7 -21 6 0 10 0 9 -22 0 -23 0 -21 23 -20
22 -27 36 -27 36 15 13 15 13 38 -6 37 -6 -14 8 -14 9 7 11 7 11 20 0 20 0 16
-16z m-2439 -11 l-3 -18 -23 -3 -22 -3 0 14 0 14 7 6 6 7 19 0 19 0 -3 -17z
m-110 -9 l22 -15 0 -15 0 -14 20 0 21 0 24 -16 25 -16 0 -8 0 -8 -20 -5 -20
-5 0 -18 0 -17 17 -19 16 -18 -6 -6 -5 -6 -21 21 -21 21 0 29 0 29 -15 6 -15
5 0 15 0 15 -19 6 -19 6 -6 14 -5 15 -16 0 -15 0 0 10 0 10 18 0 18 0 22 -16z
m177 6 l6 -10 -20 0 -21 0 0 10 0 10 14 0 15 0 6 -10z m265 -5 l0 -15 -10 0
-10 0 0 15 0 15 10 0 10 0 0 -15z m389 -56 l12 -40 -11 -14 -12 -14 29 -25 28
-25 8 -1 8 0 -6 -10 -6 -10 -25 0 -24 0 0 19 0 20 -9 6 -10 5 -6 -10 -6 -10
-20 0 -19 0 0 11 0 11 20 5 21 6 -4 11 -4 11 -18 4 -19 3 -13 -18 -13 -17 -22
24 -23 24 -23 15 -23 15 36 19 35 19 20 -21 19 -20 22 -7 21 -7 10 10 10 10
-21 11 -21 12 0 9 0 10 23 0 24 0 12 -41z m2259 10 l27 -21 -30 4 -30 3 -3 18
-3 17 6 0 7 0 26 -21z m-2183 -19 l18 -20 -6 -6 -5 -6 -26 17 -26 17 6 9 5 9
8 0 8 0 18 -20z m1960 11 l5 -10 -10 -6 -10 -6 -10 6 -10 6 5 10 6 9 9 0 9 0
6 -9z m-2681 -43 l16 -31 0 -10 0 -10 17 -19 16 -18 -7 -8 -8 -7 -24 28 -24
28 0 14 0 14 -17 9 -16 10 6 16 6 16 10 0 10 0 15 -32z m69 2 l5 -20 17 0 16
0 -6 -10 -6 -10 -29 22 -29 21 5 9 5 8 8 0 9 0 5 -20z m-233 -4 l0 -15 -9 -6
-10 -5 -6 10 -6 10 6 10 6 10 10 0 9 0 0 -14z m360 -16 l0 -10 26 -10 26 -10
-5 -13 -4 -12 -17 -3 -17 -4 -6 21 -5 21 -13 0 -13 0 -6 -16 -6 -15 -11 7 -12
7 16 12 17 12 0 12 0 11 15 0 15 0 0 -10z m2615 0 l6 -10 -6 -10 -7 -11 -14
12 -14 11 6 9 5 9 9 0 9 0 6 -10z m-2375 -65 l0 -15 -15 0 -15 0 0 -30 0 -30
-14 0 -15 0 -6 9 -5 10 17 35 18 36 18 0 17 0 0 -15z m2060 -6 l0 -21 -15 12
-15 12 6 9 5 9 10 0 9 0 0 -21z m877 6 l3 -10 -24 -11 -24 -11 -16 9 -16 9 0
15 0 15 37 -3 36 -3 4 -10z m-3097 -2 l-1 -8 -14 -19 -14 -19 -18 7 -18 7 24
20 23 19 9 0 9 0 0 -7z m2047 -24 l6 -31 24 5 24 4 -7 -16 -6 -16 -3 -32 -3
-32 -7 -11 -6 -10 -14 0 -13 0 -5 -12 -4 -13 -7 6 -6 6 14 28 15 28 -8 16 -8
16 -18 37 -17 37 7 10 6 11 15 0 15 0 6 -31z m-1999 -1 l-5 -13 -16 -3 -17 -3
0 15 0 16 21 0 21 0 -4 -12z m182 -2 l0 -15 27 -3 26 -3 4 -11 4 -12 -15 -5
-15 -6 -33 11 -33 11 -9 8 -9 8 6 15 6 16 21 0 20 0 0 -14z m218 -48 l12 -12
0 -8 0 -8 -39 0 -40 0 -6 9 -5 10 17 10 18 10 16 1 15 0 12 -12z m-108 -7 l0
-9 -15 -6 -15 -5 0 8 0 8 7 6 6 7 9 0 8 0 0 -9z m-4 -78 l-5 -5 -26 6 -25 6 0
19 0 18 6 5 5 6 25 -25 25 -25 -5 -5z m698 51 l16 -6 0 -15 0 -15 30 4 31 5 5
-8 5 -8 -21 -21 -20 -20 -15 0 -15 0 0 25 0 24 -20 11 -20 11 0 9 0 10 4 0 4
0 16 -6z m730 -3 l6 -9 -16 -6 -16 -6 -9 6 -9 5 0 10 0 9 19 0 20 0 5 -9z
m-1250 -13 l4 -13 6 -27 6 -27 20 -6 20 -6 0 -10 0 -9 -17 0 -16 0 -29 32 -28
32 0 7 0 7 6 16 6 16 9 0 10 0 3 -12z m845 -25 l37 -38 31 -17 31 -18 15 0 15
0 5 -12 5 -13 1 28 1 27 15 0 16 0 5 -15 6 -15 -6 -25 -6 -25 -80 0 -80 0 0
10 0 10 -29 0 -29 0 -5 14 -6 15 -40 23 -41 23 -5 13 -5 14 6 9 5 9 22 -5 22
-6 20 15 20 15 9 1 8 0 37 -37z m-1751 2 l-11 -25 -9 0 -8 0 0 6 0 5 10 20 11
19 9 0 10 0 -12 -25z m1902 1 l0 -14 -15 -12 -16 -13 -11 11 -11 11 6 15 6 16
21 0 20 0 0 -14z m1942 -8 l-9 -9 -17 7 -18 7 13 7 12 8 14 -5 14 -6 -9 -9z
m-3037 -14 l16 -6 -17 -19 -17 -19 -12 0 -13 0 -5 19 -5 20 6 5 5 6 13 0 12 0
17 -6z m1155 -15 l0 -9 -15 0 -15 0 0 8 0 9 6 6 7 6 8 -5 9 -5 0 -10z m613 -9
l26 0 15 -15 15 -15 34 0 35 0 12 -15 12 -15 36 0 35 0 19 -17 19 -17 42 -1
42 -1 3 -23 4 -24 -17 7 -18 6 -51 -19 -51 -19 -40 -6 -40 -7 -50 22 -49 22
-15 14 -14 15 -19 -24 -18 -23 -13 15 -12 15 -40 19 -40 18 -15 9 -15 9 -27
11 -28 11 0 14 0 14 39 -6 38 -6 7 11 7 11 20 0 19 0 17 20 17 19 16 -14 17
-15 26 0z m-583 -39 l0 -30 10 -6 10 -6 0 -16 0 -16 -15 -11 -16 -11 21 -23
21 -22 34 0 35 0 0 -15 0 -15 -44 0 -44 0 -12 15 -12 15 -35 0 -34 0 -5 15 -6
15 -13 0 -13 0 -4 -11 -4 -12 -37 14 -37 13 0 13 0 13 70 0 70 0 0 9 0 10 20
6 20 6 -6 40 -7 39 17 0 16 0 0 -29z m68 -10 l22 -19 0 -11 0 -11 14 0 14 0 6
15 5 15 18 0 19 0 17 -20 17 -20 0 -10 0 -10 -9 0 -9 0 -6 15 -5 15 -20 0 -20
0 -6 -9 -5 -9 29 -21 29 -21 54 -17 53 -16 22 -20 22 -20 -5 -8 -5 -9 -32 1
-32 0 -45 24 -45 24 -32 15 -32 16 -6 10 -6 10 -27 1 -27 0 23 11 22 11 0 12
0 12 -25 13 -25 13 0 19 0 18 8 0 7 -1 23 -18z m1107 9 l6 -10 19 10 19 10 34
0 35 0 12 -15 12 -15 25 0 25 0 34 -16 34 -16 40 10 41 10 -6 -18 -6 -18 8 -5
8 -4 99 9 98 9 19 -17 19 -18 -12 -8 -13 -8 -22 0 -23 0 0 10 0 10 -12 0 -12
0 12 -12 12 -12 0 -19 0 -19 -22 8 -23 8 -75 -2 -75 -1 -23 -13 -23 -12 -15
16 -16 16 -63 -6 -63 -5 -33 12 -32 11 -13 -11 -14 -11 -37 5 -38 6 -65 11
-65 12 -24 5 -24 4 9 9 10 10 49 11 50 11 45 7 45 7 -2 9 -2 10 -6 18 -7 17
20 0 21 0 6 -10z m-843 -34 l9 -16 19 0 18 0 29 -24 28 -23 40 -13 40 -13 12
-9 13 -10 24 6 24 6 24 -19 24 -20 95 -2 94 -2 90 11 90 10 9 -9 10 -9 40 -1
41 0 40 -8 40 -8 -29 -8 -28 -8 -82 8 -81 7 -100 -3 -100 -3 -85 0 -85 0 -60
13 -60 13 -16 14 -16 14 -36 0 -36 0 -11 20 -11 20 -18 0 -19 0 -6 15 -5 15
-24 0 -25 0 -12 15 -12 15 6 15 6 16 41 -4 42 -4 9 -17z m-707 -46 l13 0 6
-16 6 -16 0 -14 0 -14 -12 0 -13 1 -42 37 -41 38 10 18 10 17 25 -25 26 -26
12 0z m67 38 l-12 -12 -12 12 -12 12 24 0 24 0 -12 -12z m73 -18 l6 -10 -15
-6 -16 -6 -17 6 -17 7 14 9 15 10 12 0 12 0 6 -10z m2216 -6 l13 -16 32 5 33
6 12 -15 11 -14 -3 -1 -4 -2 -135 -3 -135 -4 -23 5 -24 6 12 14 12 15 49 0 48
0 6 10 6 10 38 0 39 0 13 -16z m-2273 -26 l-5 -13 -16 -3 -17 -3 0 15 0 16 21
0 21 0 -4 -12z m2412 -8 l0 -20 -10 0 -10 0 0 20 0 20 10 0 10 0 0 -20z m198
-11 l13 -20 -28 3 -28 3 -3 18 -3 17 18 0 18 0 13 -21z m-2772 -42 l1 -38 -9
-6 -10 -5 -10 10 -11 11 13 15 12 16 -16 6 -15 6 -16 -16 -16 -16 -4 0 -3 0
-16 6 -16 6 6 9 5 9 24 0 23 0 6 16 6 15 22 -3 22 -3 2 -38z m224 18 l23 -25
-7 -7 -8 -8 -11 16 -12 15 -18 7 -18 7 6 10 6 10 8 0 8 0 23 -25z m2247 -37
l133 -3 0 -10 0 -10 -188 1 -187 1 -38 7 -38 7 5 7 4 7 89 -2 88 -3 132 -2z
m-1872 -8 l6 -10 -21 0 -21 0 6 10 6 10 9 0 9 0 6 -10z m1090 0 l6 -10 -20 0
-21 0 0 10 0 10 14 0 15 0 6 -10z m390 -5 l0 -10 -47 -3 -48 -3 0 9 0 9 7 7 7
7 41 -3 40 -3 0 -10z m-159 -852 l-7 -17 -9 13 -8 14 5 14 6 14 10 -10 10 -10
-7 -18z m-3966 -114 l0 -32 16 -12 17 -12 -18 -27 -18 -27 6 -48 6 -49 -15 -6
-14 -5 0 -30 0 -30 -11 -7 -11 -7 5 39 6 39 7 36 6 37 -11 6 -11 7 0 100 0 99
20 -20 20 -20 0 -31z m1955 -114 l27 -34 -16 -23 -16 -22 0 -13 0 -13 15 0 15
0 0 -16 0 -15 -27 3 -28 3 5 40 4 40 0 33 -1 34 -14 9 -14 9 12 0 12 0 26 -35z
m-65 -41 l0 -25 -10 6 -10 6 0 20 0 19 10 0 10 0 0 -26z m-1953 -206 l-4 -23
0 40 -1 40 5 -17 4 -18 -4 -22z m2002 3 l14 -9 -6 -16 -6 -16 -20 0 -20 0 -5
9 -6 9 6 16 6 16 12 0 11 0 14 -9z m-11 -82 l-3 -10 -10 0 -9 0 -4 10 -4 11
17 0 17 0 -4 -11z m-8 -64 l0 -15 -4 0 -4 0 -16 6 -16 6 0 9 0 9 20 0 20 0 0
-15z m-30 -180 l0 -15 -14 0 -15 0 -5 9 -5 8 6 7 6 6 14 0 13 0 0 -15z m-25
-115 l-7 -51 -11 4 -11 3 3 50 3 49 5 8 5 9 10 -10 10 -10 -7 -52z m2765 39
l0 -19 -9 0 -9 0 -6 16 -6 16 6 9 5 9 10 -5 9 -6 0 -20z m-5350 -39 l0 -20
-10 0 -10 0 0 20 0 20 10 0 10 0 0 -20z m2526 -95 l6 -15 10 0 11 0 13 18 13
17 1 -27 0 -27 -9 -5 -9 -6 3 -87 2 -88 7 -17 8 -18 -20 0 -21 0 -6 -10 -6
-10 15 -6 16 -6 0 -29 0 -29 -15 0 -15 0 0 -15 0 -15 13 0 13 0 15 18 15 18 7
18 7 17 10 -6 10 -6 0 -18 0 -19 -16 -12 -15 -13 -10 -19 -10 -18 9 -17 10
-16 -30 -29 -30 -29 -11 4 -12 4 -3 29 -3 29 -5 14 -4 14 -18 -17 -19 -16 -14
0 -14 -1 18 -10 17 -10 0 -19 0 -20 -25 0 -25 0 0 -21 0 -21 -25 5 -26 4 -10
-18 -10 -19 13 -4 13 -5 32 -4 33 -4 6 19 5 18 17 0 16 0 22 21 22 21 11 -21
12 -21 9 0 10 0 0 13 0 13 36 32 36 32 7 0 8 0 31 16 32 15 0 14 0 13 -15 6
-15 5 0 11 0 10 15 0 15 0 0 10 0 10 20 0 21 0 -9 -15 -8 -16 7 -62 8 -62 -6
-20 -6 -20 -22 -22 -22 -23 -18 20 -18 20 -11 0 -11 0 -57 -45 -58 -45 -24 0
-24 0 -12 -15 -12 -15 -15 0 -14 0 -5 -15 -6 -15 -39 0 -40 0 -22 -14 -22 -15
-85 0 -85 0 -104 0 -103 -1 -47 -28 -46 -28 -18 4 -18 4 11 13 11 13 -13 21
-13 21 -11 0 -12 0 -6 -16 -6 -15 -20 6 -21 7 -14 -12 -14 -11 -20 11 -21 11
0 7 0 7 25 28 26 27 11 0 11 0 17 15 18 16 83 4 84 3 0 2 0 2 30 4 30 4 30 1
30 0 23 -28 22 -28 10 15 10 15 0 8 0 9 -20 5 -20 5 0 15 0 15 40 -3 40 -3 12
12 12 12 9 0 8 0 -3 -22 -3 -23 -22 2 -21 2 -12 -14 -12 -15 15 -6 15 -5 38 3
39 3 3 37 3 36 25 17 26 17 -19 14 -18 15 26 -5 25 -5 35 28 34 29 -12 20 -12
20 6 5 5 6 19 -12 18 -11 7 7 7 7 -13 15 -12 15 16 0 16 0 0 10 0 10 41 45 41
45 -6 15 -5 15 -11 0 -10 0 0 25 0 25 15 0 15 0 0 -21 0 -21 13 5 12 4 -1 29
-1 29 -4 15 -4 15 16 -3 16 -2 7 37 6 38 0 28 0 27 -15 0 -15 0 0 15 0 15 10
0 11 0 5 -15z m1231 -10 l-4 -26 25 -19 25 -20 23 0 24 0 0 10 0 10 15 0 15 0
0 -25 0 -25 -29 0 -29 0 -12 -15 -12 -15 -18 0 -18 0 -12 15 -12 15 -37 0 -37
0 -20 -15 -19 -14 -90 -1 -90 0 -13 9 -14 8 17 7 17 6 37 0 37 0 20 15 19 14
27 1 27 0 6 10 6 10 32 14 32 13 19 22 19 21 15 0 14 0 -5 -25z m-197 0 l13
-16 -23 -24 -23 -25 -27 0 -27 0 -7 7 -6 7 32 33 32 33 12 0 12 0 12 -15z
m290 -16 l0 -19 -15 0 -15 0 0 18 0 19 6 6 7 6 8 -5 9 -5 0 -20z m1770 -98 l0
-49 -15 -12 -15 -12 0 -14 0 -14 -20 0 -21 0 7 38 6 37 14 11 14 11 0 27 0 26
15 0 15 0 0 -49z m-5467 -14 l-5 -9 -10 10 -10 10 7 12 8 12 8 -13 8 -13 -6
-9z m4172 22 l7 -10 -17 -18 -16 -19 -2 -58 -2 -59 -45 -5 -45 -6 -12 -7 -13
-8 0 -18 0 -18 -112 -6 -113 -5 -12 10 -13 10 6 9 5 9 23 0 24 0 12 15 12 15
34 0 34 0 20 20 20 20 0 10 0 10 24 0 24 0 46 20 46 19 6 41 7 40 23 0 23 0 6
-11z m1173 -11 l-3 -23 -29 -3 -28 -4 18 26 19 25 13 1 13 0 -3 -22z m-1798
-23 l0 -15 -25 0 -25 0 0 8 0 9 7 6 6 7 19 0 18 0 0 -15z m235 0 l0 -10 -32
-3 -33 -3 0 16 0 16 33 -3 32 -3 0 -10z m177 -2 l18 -16 0 -8 0 -8 -28 -14
-29 -14 -31 28 -32 29 0 10 0 10 42 0 41 0 19 -17z m-562 -28 l0 -16 -15 -5
-15 -6 -15 12 -15 12 6 9 5 9 25 0 24 0 0 -15z m244 8 l7 -7 -22 -17 -22 -16
7 -12 7 -11 20 0 19 0 0 -8 0 -8 -12 -12 -12 -12 -13 0 -13 0 0 20 0 20 -9 0
-9 0 -28 -15 -28 -14 -12 27 -11 27 9 10 9 10 17 -23 18 -23 7 7 7 7 0 17 0
16 12 12 12 12 16 0 17 0 7 -7z m1346 -8 l0 -15 -15 0 -15 0 0 15 0 15 15 0
15 0 0 -15z m-157 -11 l6 -6 -6 -14 -5 -14 -24 0 -24 0 0 14 0 14 13 5 12 5
11 1 11 1 6 -6z m-1592 -27 l-11 -11 -6 7 -6 6 7 10 6 11 11 -6 10 -6 -11 -11z
m-316 -70 l7 -18 19 6 19 6 7 -17 6 -17 -11 -18 -12 -19 0 -10 0 -11 20 11 21
11 9 25 10 25 10 -6 10 -6 0 -19 0 -18 -14 -29 -14 -28 -19 -38 -18 -39 -7 -4
-7 -5 -16 25 -16 24 -2 65 -2 65 -5 -1 -5 -1 -21 7 -21 7 -11 25 -12 25 11 27
10 27 24 -29 24 -30 6 -18z m156 62 l20 -10 -6 -10 -6 -9 -25 0 -24 0 0 13 0
14 7 6 6 7 4 0 4 0 20 -11z m292 -3 l6 -15 -13 -10 -13 -11 -11 13 -12 13 12
12 12 12 7 0 7 0 5 -14z m1657 -11 l0 -15 -24 0 -25 0 -5 9 -5 8 6 7 6 6 24 0
23 0 0 -15z m320 0 l0 -15 -15 0 -15 0 0 15 0 15 15 0 15 0 0 -15z m134 -19
l29 -24 -6 -16 -6 -16 -15 0 -14 0 -6 16 -6 17 -19 -17 -19 -18 -12 23 -12 22
23 18 24 19 5 -1 5 0 29 -23z m-3734 -21 l0 -35 -15 0 -15 0 0 35 0 35 15 0
15 0 0 -35z m2075 10 l0 -10 -25 -3 -25 -4 -8 -14 -8 -14 -39 0 -40 0 0 15 0
15 44 0 44 0 6 16 6 15 22 -3 23 -3 0 -10z m913 3 l12 -12 0 -38 0 -38 10 0
10 0 9 -24 9 -23 21 -6 21 -5 6 9 5 9 29 0 29 0 6 -20 6 -20 20 0 20 0 5 15 6
15 10 0 9 0 15 -15 15 -15 20 0 19 0 0 -25 0 -25 25 -6 25 -6 0 -18 0 -19 -17
-17 -17 -16 -23 28 -23 29 0 18 0 17 -11 0 -10 0 -15 -15 -15 -15 -25 0 -25 0
-19 10 -20 10 -6 -25 -6 -25 -10 0 -9 0 6 -20 7 -21 -12 -14 -12 -15 -14 0
-14 0 0 20 0 21 -15 5 -15 6 0 13 0 13 16 6 16 6 -23 24 -24 23 -38 7 -39 7 4
-23 3 -23 28 -3 28 -3 6 -16 6 -16 -18 -13 -19 -14 -16 0 -16 0 -17 35 -17 35
-15 0 -15 0 0 -14 0 -14 13 -5 12 -4 -12 -22 -13 -21 0 -16 0 -15 -17 3 -18 3
-1 33 -1 32 -7 7 -6 7 -29 -22 -29 -21 -6 6 -6 6 0 29 0 28 -15 0 -15 0 0 8 0
7 -6 23 -6 22 26 0 26 0 0 -25 0 -25 9 0 8 0 25 25 25 25 13 -15 13 -15 23 24
24 24 2 48 2 49 13 13 13 13 0 20 0 19 18 0 18 0 12 -12z m-1640 -29 l-3 -10
-10 0 -9 0 -4 10 -4 11 17 0 17 0 -4 -11z m392 -18 l0 -17 -12 -12 -12 -12 18
-19 18 -20 -7 -10 -6 -11 -12 0 -12 0 -23 24 -22 24 6 16 6 16 9 0 9 0 10 26
10 25 10 -6 10 -6 0 -18z m902 -3 l-3 -26 10 -6 9 -6 -11 -30 -11 -30 -11 0
-11 0 -11 11 -11 11 11 28 11 29 -17 19 -17 19 7 7 7 7 26 -3 25 -3 -3 -27z
m114 -4 l7 -25 -9 -9 -9 -9 -25 19 -25 19 20 15 20 15 7 1 8 0 6 -26z m-4138
-10 l-3 -27 -17 -11 -17 -10 -6 5 -5 6 16 31 15 32 10 0 10 0 -3 -26z m4213
10 l13 -16 -14 -8 -13 -8 -14 5 -13 5 0 19 0 19 14 0 14 0 13 -16z m808 3 l11
-13 -12 -12 -12 -12 -12 0 -13 0 -6 10 -7 11 12 14 12 15 8 0 8 0 11 -13z
m-1149 -12 l0 -15 -15 0 -15 0 0 8 0 9 7 6 6 7 9 0 8 0 0 -15z m-957 -15 l-6
-21 14 -17 14 -17 20 -40 19 -40 20 -22 19 -23 19 0 19 0 5 15 6 15 13 0 14 0
7 -22 7 -23 10 23 10 22 12 0 11 0 12 -12 12 -12 0 27 0 27 19 0 19 0 5 -14 6
-15 38 6 38 6 6 10 7 10 11 -8 12 -7 -12 -14 -12 -14 7 -7 7 -7 33 2 33 3 7
-16 6 -17 -6 -9 -5 -9 -42 0 -42 0 -10 -22 -10 -23 -22 -3 -23 -3 0 11 0 11
28 24 27 23 -7 7 -7 7 -44 -24 -44 -25 -10 16 -11 16 -12 -11 -12 -12 4 -18 3
-19 23 -3 22 -3 0 -10 0 -10 -16 -6 -17 -6 -19 12 -20 12 -13 -11 -13 -11 -8
12 -8 13 12 4 12 4 0 9 0 9 -14 0 -14 0 -4 -12 -4 -11 -42 1 -43 2 -29 22 -30
22 -32 -24 -32 -24 -86 -1 -85 -2 -12 5 -13 4 0 12 1 11 44 45 45 45 0 13 0
12 -14 0 -15 0 -6 10 -7 11 12 15 13 14 13 -11 14 -11 0 -13 0 -12 23 -9 22
-10 23 4 22 3 0 24 0 24 10 6 10 6 0 43 0 43 7 6 6 7 13 0 12 0 -5 -20z m271
4 l6 -17 -11 -14 -12 -14 -14 14 -14 13 7 17 6 17 13 0 13 0 6 -16z m-1924
-19 l0 -15 -15 0 -15 0 0 -16 0 -16 -12 4 -12 4 -3 11 -4 11 16 16 16 16 15 0
14 0 0 -15z m115 -5 l0 -15 -25 0 -25 0 -3 18 -4 18 29 -3 28 -3 0 -15z m3455
-10 l0 -19 -10 -6 -10 -6 -6 15 -6 16 6 16 6 15 10 -6 10 -6 0 -19z m56 -22
l-4 -52 -18 -13 -18 -13 -27 0 -27 0 -11 13 -11 14 7 6 6 7 39 0 38 0 0 45 0
45 15 0 14 0 -3 -52z m-1561 7 l0 -20 -26 -3 -26 -3 -7 16 -6 17 6 9 6 10 26
-3 27 -3 0 -20z m119 4 l10 -9 -6 -6 -6 -6 -41 -5 -41 -6 0 21 0 20 13 6 12 5
25 -5 25 -5 9 -10z m376 -8 l0 -6 -40 -23 -40 -23 0 -9 0 -8 -30 -7 -30 -7
-10 -18 -10 -19 0 -46 0 -47 -12 4 -12 4 -8 30 -8 29 6 28 6 27 -37 15 -36 16
6 9 6 10 39 0 39 0 10 18 10 17 12 -12 13 -13 17 0 16 0 -4 24 -5 25 38 3 39
3 13 -9 12 -8 0 -7z m1149 20 l14 -9 -6 -16 -6 -16 -20 0 -19 0 -5 14 -5 14
11 11 11 11 6 0 5 0 14 -9z m-3951 -13 l-5 -13 -21 -3 -22 -3 0 15 0 16 26 0
26 0 -4 -12z m510 0 l-4 -12 -12 -4 -12 -4 0 16 0 16 16 0 16 0 -4 -12z m2552
-3 l0 -15 -15 0 -15 0 0 15 0 15 15 0 15 0 0 -15z m1168 -7 l-3 -23 -10 0 -10
0 -3 23 -3 22 16 0 16 0 -3 -22z m-3900 -32 l4 -29 -29 7 -28 7 13 -12 12 -13
0 -8 0 -8 -42 -20 -43 -21 -42 -6 -43 -6 -6 16 -6 16 50 49 51 50 13 5 13 6
40 -2 40 -2 3 -29z m2602 9 l0 -15 -25 0 -25 0 0 8 0 9 7 6 6 7 19 0 18 0 0
-15z m1158 -35 l3 -45 0 -27 0 -28 39 0 40 0 0 -43 0 -43 -12 -13 -13 -14 15
5 15 5 21 7 21 7 -1 -40 -1 -40 -9 9 -10 10 -22 0 -23 0 -13 -27 -13 -28 -35
-6 -35 -6 -15 -4 -15 -4 -3 23 -3 22 24 0 25 0 16 6 16 6 -6 9 -5 9 -19 0 -18
0 -5 15 -6 14 -48 -21 -48 -20 -15 -13 -15 -12 -65 1 -65 1 0 20 0 20 22 3 22
3 59 60 60 59 15 -5 15 -6 10 30 11 31 8 0 9 0 17 29 17 30 -1 8 -1 8 1 23 1
23 18 -3 17 -3 3 -45z m-3987 30 l19 -11 0 -20 0 -20 -22 -8 -23 -9 -9 9 -10
9 -20 0 -19 0 16 -18 17 -19 -7 -6 -6 -7 -19 0 -19 0 3 41 3 41 35 13 35 13 3
1 3 1 20 -10z m2425 -12 l7 -11 -18 -14 -19 -13 -18 0 -18 0 0 18 0 19 7 6 6
7 23 0 23 0 7 -12z m-2008 -15 l4 -13 -26 0 -26 0 0 16 0 15 22 -3 21 -3 5
-12z m1522 2 l0 -15 -15 0 -15 0 0 15 0 15 15 0 15 0 0 -15z m960 0 l0 -15
-14 0 -15 0 -5 9 -5 8 6 7 6 6 14 0 13 0 0 -15z m1950 -2 l0 -8 -10 -15 -10
-15 0 7 0 6 -6 16 -6 16 16 0 16 0 0 -7z m-5937 -58 l2 -39 -17 -4 -18 -3 0
44 0 44 7 7 7 6 8 -8 8 -8 3 -39z m932 17 l0 -23 25 -12 25 -13 3 -20 3 -20
-18 -16 -18 -16 -45 -2 -45 -2 -17 1 -18 1 0 11 0 11 23 19 22 18 22 1 22 0 6
10 6 9 -21 21 -20 20 0 8 0 9 7 7 7 7 16 -3 15 -3 0 -23z m2422 2 l-6 -6 -10
7 -11 6 6 11 6 10 11 -11 11 -11 -7 -6z m513 18 l0 -9 -6 -6 -7 -6 -9 5 -8 5
5 10 6 9 10 0 9 0 0 -8z m1350 -6 l0 -14 -15 -6 -15 -5 0 -16 0 -15 -14 0 -14
0 -5 14 -5 14 14 21 15 21 20 0 19 0 0 -14z m-5290 -20 l0 -15 -10 -6 -10 -6
0 -15 0 -14 13 0 14 0 10 -23 11 -23 -15 -29 -15 -28 -19 24 -18 24 -7 -32 -6
-33 -14 0 -14 0 0 38 0 37 -6 22 -6 21 21 7 21 6 0 11 0 11 17 19 16 18 9 0 8
0 0 -14z m3515 -16 l-7 -12 -10 10 -10 10 7 12 7 12 10 -10 10 -10 -7 -12z
m-3103 14 l6 -5 -11 -30 -11 -29 -11 3 -10 4 -3 31 -3 32 19 0 19 0 5 -6z
m3357 -11 l10 -18 20 13 21 12 17 0 18 -1 -18 -13 -18 -14 3 -18 3 -18 -39 -8
-40 -8 -8 12 -8 13 0 26 0 26 7 6 6 7 8 0 8 0 10 -17z m1121 10 l0 -8 -19 -24
-18 -24 -8 12 -7 12 18 20 17 19 9 0 8 0 0 -7z m490 -8 l0 -15 -9 0 -9 0 -14
-5 -13 -5 -14 9 -14 9 7 11 7 11 30 0 29 0 0 -15z m134 0 l-1 -10 -28 -14 -27
-13 -10 10 -11 11 7 16 6 16 32 -3 33 -3 -1 -10z m79 0 l2 -10 -17 -3 -18 -3
0 16 0 16 16 -3 15 -3 2 -10z m-5263 -5 l0 -10 -20 0 -20 0 0 10 0 10 20 0 20
0 0 -10z m580 -24 l0 -14 -7 -4 -8 -3 -34 -37 -35 -38 13 -24 13 -24 -6 -11
-7 -10 -25 11 -24 11 -6 23 -6 22 4 23 3 22 45 25 45 25 3 8 4 9 14 0 14 0 0
-14z m3110 -1 l0 -14 -30 -31 -29 -30 -11 0 -10 0 0 9 0 10 21 35 21 36 19 0
19 0 0 -15z m1935 4 l7 -10 -21 -6 -20 -5 -6 -18 -6 -18 -16 -6 -16 -7 -11 11
-10 10 -73 0 -73 0 0 15 0 15 48 1 47 0 35 13 35 14 37 1 37 1 6 -11z m165 -6
l0 -13 -14 0 -14 0 -6 -16 -6 -15 -27 3 -28 3 -3 27 -3 27 50 -2 51 -2 0 -12z
m-5444 -22 l6 -29 24 -6 24 -6 0 -19 0 -18 -20 -18 -19 -17 -17 6 -16 6 6 34
6 34 -20 5 -20 5 0 26 0 26 20 0 21 0 5 -29z m1975 5 l11 -23 -11 -22 -12 -21
-9 0 -10 0 0 45 0 45 10 0 10 0 11 -24z m3561 3 l21 -12 -29 -12 -29 -12 -19
10 -20 10 19 13 19 14 9 0 8 0 21 -11z m-5691 -25 l10 -27 27 -36 28 -36 18
-40 18 -39 9 17 10 17 13 0 14 0 6 -15 6 -16 -14 -5 -14 -6 -27 -40 -26 -40
-7 7 -7 6 -11 32 -11 32 -10 -35 -9 -35 -27 -3 -27 -3 0 20 0 20 -11 7 -11 6
6 22 5 22 -19 12 -19 12 -10 18 -10 19 13 18 13 18 32 -22 31 -22 0 21 0 21
-16 30 -15 30 6 19 6 20 10 0 9 0 11 -26z m4979 -3 l0 -29 16 -6 15 -6 -3 -22
-3 -23 -19 -3 -18 -4 -11 11 -11 11 20 14 19 15 -17 6 -18 7 0 29 0 29 15 0
15 0 0 -29z m65 19 l6 -10 -16 -6 -16 -6 -5 5 -6 6 7 10 6 11 9 0 9 0 6 -10z
m785 0 l0 -10 -47 0 -48 0 15 10 15 10 33 0 32 0 0 -10z m-6165 -38 l0 -12
-10 -1 -10 0 -3 17 -4 16 14 -4 13 -5 0 -11z m965 5 l0 -13 -11 -11 -11 -11
-7 -32 -6 -31 -10 3 -10 3 0 13 0 13 -18 10 -17 10 0 13 0 12 33 16 32 15 13
2 12 1 0 -13z m2509 -17 l11 0 0 -15 0 -15 -19 0 -19 0 -12 15 -12 15 7 17 6
18 13 -17 13 -18 12 0z m1691 15 l0 -15 -25 0 -25 0 0 15 0 15 25 0 25 0 0
-15z m-1770 -71 l0 -22 -15 -6 -15 -5 0 -25 0 -25 -11 -7 -11 -6 -44 31 -45
31 -4 0 -5 0 0 -19 0 -20 -10 -6 -10 -6 -6 15 -6 15 19 40 18 40 15 2 15 2 16
1 15 1 18 18 19 18 23 -22 24 -22 0 -23z m180 40 l0 -14 -15 0 -15 0 0 13 0
14 6 6 7 6 8 -5 9 -5 0 -15z m293 0 l6 16 16 0 15 0 0 -30 0 -30 10 0 11 0 5
15 6 15 14 0 14 0 0 -14 0 -14 -41 -33 -40 -32 -11 11 -11 11 16 7 17 6 0 13
0 13 -32 5 -33 4 -7 -11 -8 -11 0 -28 0 -28 16 -24 16 -25 18 0 19 0 55 56 56
55 0 10 0 9 13 0 13 0 11 -30 12 -31 -20 6 -19 6 0 -10 0 -11 10 0 10 0 0 -43
0 -44 19 -17 19 -18 56 0 56 -1 0 -12 0 -12 -62 -1 -63 -1 -30 -15 -30 -16
-31 0 -32 0 -11 14 -12 14 -82 0 -81 0 -28 -14 -27 -14 -71 0 -70 0 0 10 0 10
-14 0 -14 0 -5 -19 -5 -19 -154 -7 -155 -7 -42 7 -42 7 6 6 5 6 103 6 102 7
39 24 40 23 68 3 68 3 0 -15 0 -15 18 0 17 0 37 11 38 10 6 24 6 25 9 0 8 0
11 -20 11 -20 18 0 18 0 6 6 6 6 -12 19 -12 19 13 20 12 20 0 24 0 24 15 12
15 12 0 19 0 18 13 8 14 8 7 20 7 20 18 -24 18 -23 6 16z m517 1 l0 -15 -15 0
-15 0 0 15 0 15 15 0 15 0 0 -15z m220 -22 l0 -18 -29 -17 -29 -16 -6 6 -6 5
0 15 0 15 18 13 17 13 18 1 17 0 0 -17z m-2652 -20 l-3 -26 -12 -5 -13 -4 -6
16 -6 16 6 15 5 15 16 0 16 0 -3 -27z m646 21 l16 -6 0 -10 0 -9 -22 3 -21 3
-5 13 -4 12 10 0 10 0 16 -6z m1036 -9 l0 -15 -14 0 -15 0 -5 9 -5 8 6 7 6 6
14 0 13 0 0 -15z m1600 0 l0 -15 -20 0 -20 0 0 15 0 15 20 0 20 0 0 -15z m183
-3 l-11 -7 -4 -30 -3 -30 -19 -3 -18 -4 -9 9 -10 10 6 14 5 15 28 17 27 16 10
1 10 0 -12 -8z m-4543 -32 l30 -29 0 -17 0 -16 -22 -18 -23 -18 -7 5 -8 4 0
30 0 30 -30 10 -30 11 0 12 0 13 7 6 6 7 23 0 23 0 31 -30z m1877 11 l18 -19
23 -4 23 -3 0 -10 0 -10 -21 -3 -22 -4 -12 18 -13 17 -8 -13 -9 -14 12 -4 12
-4 0 -12 0 -12 -37 -17 -37 -16 -5 4 -5 5 19 14 18 13 -6 14 -7 14 -16 22 -16
23 23 9 24 10 12 0 12 1 18 -19z m-1987 -17 l14 -25 -14 -10 -15 -10 -27 5
-28 6 0 -14 0 -14 42 2 42 2 4 12 4 12 19 0 19 0 0 -15 0 -15 -40 -20 -40 -20
-27 6 -28 6 -33 16 -32 17 3 10 4 10 26 5 25 5 22 28 21 27 13 0 13 0 13 -26z
m2280 5 l12 -21 -4 -2 -3 -3 -32 13 -33 14 0 10 0 10 25 0 24 0 11 -21z m500
6 l0 -15 -15 0 -15 0 0 15 0 15 15 0 15 0 0 -15z m637 -5 l5 -19 43 6 42 5 8
-11 7 -12 -12 -14 -12 -15 6 0 6 0 22 13 22 12 19 23 18 22 16 0 15 0 -4 -34
-4 -35 23 -10 23 -10 -7 -17 -6 -17 -66 7 -66 6 -37 0 -38 0 0 15 0 14 -20 11
-20 11 -12 -26 -11 -25 -29 0 -28 0 0 14 0 15 10 6 11 7 -6 21 -5 22 6 -12 6
-13 19 0 19 0 0 23 0 24 7 6 6 7 10 0 9 0 5 -20z m-4350 -11 l11 -11 -10 -24
-11 -24 -32 0 -31 0 -20 -15 -19 -14 -42 -1 -42 0 -11 21 -11 20 -12 -4 -12
-4 -5 -28 -5 -28 -15 -7 -15 -7 -22 -11 -23 -12 -20 0 -20 0 0 15 0 15 13 1
12 1 8 -1 8 -1 24 27 24 28 1 26 0 27 65 7 64 7 11 -7 11 -7 -5 -14 -5 -13 9
-6 9 -5 3 22 3 23 35 6 35 6 16 2 15 1 11 -11z m2542 -3 l12 -15 -11 -21 -11
-21 -10 6 -9 6 0 30 0 29 9 0 9 0 11 -14z m275 5 l6 -9 -6 -16 -6 -16 -19 0
-19 0 0 18 0 19 7 6 6 7 13 0 13 0 5 -9z m-61 -16 l2 -10 -17 -3 -18 -3 0 16
0 16 16 -3 15 -3 2 -10z m1105 4 l-3 -10 -10 0 -9 0 -4 10 -4 11 17 0 17 0 -4
-11z m1612 -51 l0 -18 -20 0 -20 0 -6 24 -6 25 7 11 7 11 19 -17 19 -17 0 -19z
m-2778 0 l-11 -11 -16 13 -15 13 12 14 11 14 16 -15 15 -16 -12 -12z m2676 19
l3 -17 -24 0 -24 0 -6 7 -7 6 12 14 11 14 16 -3 16 -3 3 -18z m-4628 -2 l0
-15 -15 0 -15 0 0 15 0 15 15 0 15 0 0 -15z m2430 -30 l0 -34 -17 -9 -18 -9
-37 -6 -36 -5 -17 19 -18 18 24 11 24 10 40 24 40 23 8 -4 7 -4 0 -34z m570
15 l0 -30 -30 0 -30 0 0 23 0 24 7 6 6 7 24 0 23 0 0 -30z m-1851 -4 l12 -14
-21 -7 -22 -7 -10 10 -10 10 6 11 7 11 13 0 14 0 11 -14z m-1519 -1 l0 -6 -16
-24 -16 -25 -9 0 -9 0 0 23 0 24 7 6 6 7 19 0 18 0 0 -5z m1075 -6 l7 -10 -5
-6 -5 -5 -23 7 -22 7 14 9 14 9 7 0 7 0 6 -11z m672 0 l11 -11 21 13 21 13 12
-12 13 -13 -29 -25 -29 -25 -15 15 -16 16 -16 -15 -17 -15 -17 18 -16 19 6 17
6 16 27 0 27 0 11 -11z m636 4 l7 -6 -11 -13 -11 -14 -19 11 -20 10 6 10 6 9
18 0 18 0 6 -7z m561 -2 l6 -9 -24 -15 -24 -16 -6 6 -6 6 0 19 0 18 24 0 25 0
5 -9z m1656 -6 l0 -15 -15 0 -15 0 0 15 0 15 15 0 15 0 0 -15z m261 2 l-1 -7
-7 -1 -7 0 -4 12 -4 12 12 -4 12 -4 -1 -8z m-576 -10 l18 -14 -7 -11 -7 -12
-19 0 -19 0 -6 10 -7 11 6 14 5 15 9 0 8 0 19 -13z m-3107 -35 l3 -32 -14 0
-15 0 -15 24 -16 23 12 12 12 12 15 -3 15 -3 3 -33z m192 19 l0 -9 -13 -11
-14 -11 -6 7 -7 6 0 14 0 13 20 0 20 0 0 -9z m197 -7 l6 -15 28 6 29 7 6 -17
7 -16 -22 -15 -21 -15 0 -13 0 -14 -15 -12 -15 -12 0 -9 0 -9 25 0 25 0 0 -10
0 -11 -14 -5 -15 -6 -25 19 -25 18 0 15 0 15 14 19 15 20 0 22 0 22 -15 6 -15
5 0 11 0 10 10 0 11 0 6 -16z m1443 -14 l0 -30 -28 0 -28 0 -20 -15 -19 -14
-12 -1 -13 0 0 18 0 18 12 12 12 12 22 0 22 0 12 15 12 15 14 0 14 0 0 -30z
m1770 15 l0 -15 -15 0 -15 0 0 8 0 9 7 6 6 7 9 0 8 0 0 -15z m-3811 -19 l12
-14 -30 -15 -30 -15 -5 6 -6 5 0 12 0 12 23 11 22 11 1 0 2 1 11 -14z m-1739
-11 l0 -15 -15 0 -15 0 0 15 0 15 15 0 15 0 0 -15z m3060 0 l0 -15 15 0 15 0
0 -15 0 -15 -10 0 -11 0 -5 15 -6 15 -13 0 -13 0 -6 -15 -5 -15 -8 0 -8 0 -15
10 -14 9 18 20 19 21 24 0 23 0 0 -15z m2571 -8 l-11 -11 -6 7 -6 6 7 10 6 11
11 -6 10 -6 -11 -11z m223 14 l6 -9 -15 -12 -15 -13 -6 6 -6 6 5 16 6 15 10 0
10 0 5 -9z m-3359 -32 l0 -14 -22 -3 -23 -3 0 14 0 15 13 5 12 5 10 -2 10 -3
0 -14z m45 -4 l0 -15 -10 0 -10 0 0 15 0 15 10 0 10 0 0 -15z m3235 5 l20 -9
-20 0 -20 -1 -22 -6 -23 -6 0 16 0 16 23 -1 22 0 20 -9z m65 -25 l0 -15 -10 0
-10 0 0 15 0 15 10 0 10 0 0 -15z m-5510 -10 l12 -15 14 0 14 0 0 -4 0 -4 -6
-16 -6 -16 -14 0 -14 0 0 20 0 20 -19 0 -20 0 -5 9 -5 8 6 7 6 6 12 0 13 0 12
-15z m830 3 l0 -11 -26 -34 -25 -33 -35 0 -34 0 0 8 0 7 37 37 38 36 23 1 22
1 0 -12z m2388 0 l-5 -13 -21 -3 -22 -3 0 9 0 9 7 6 6 7 20 0 19 0 -4 -12z
m-3702 -22 l5 -14 -25 -27 -25 -27 -20 7 -21 6 0 29 0 29 33 4 32 4 8 1 8 2 5
-14z m1564 -6 l0 -20 -15 0 -15 0 0 20 0 20 15 0 15 0 0 -20z m628 -2 l-5 -13
-26 -3 -27 -3 0 15 0 16 31 0 31 0 -4 -12z m547 2 l6 -10 -6 -19 -6 -19 -19
-5 -20 -5 0 -23 0 -23 -12 12 -12 12 -28 0 -28 0 0 13 0 14 24 22 24 22 16
-22 16 -23 6 32 7 32 13 0 13 0 6 -10z m565 -5 l0 -15 -15 0 -15 0 0 15 0 15
15 0 15 0 0 -15z m-1540 -12 l45 -4 13 -4 13 -5 -18 -25 -18 -24 -17 -1 -18 0
0 10 0 10 -18 0 -18 0 -12 -12 -12 -12 -21 13 -21 13 -11 -11 -11 -11 -23 0
-23 0 0 10 0 10 18 18 17 17 30 11 30 12 15 -6 15 -5 45 -4z m1422 -32 l-2
-24 -18 -13 -17 -13 -24 -1 -24 0 16 18 17 19 0 15 0 15 7 7 7 7 21 -3 20 -3
-3 -24z m59 2 l8 -21 -15 -6 -15 -6 -8 23 -9 22 5 8 5 8 10 -3 11 -4 8 -21z
m-911 -3 l0 -11 -15 -6 -16 -5 -7 6 -6 7 14 9 15 10 8 0 7 0 0 -10z m-2600
-14 l0 -14 -15 -6 -15 -5 0 -16 0 -15 24 6 24 6 7 -11 6 -11 -16 -6 -16 -7
-25 14 -26 13 -10 19 -10 19 6 14 5 14 31 0 30 0 0 -14z m3571 -1 l-1 -10 -12
0 -11 0 -5 13 -4 14 16 -4 17 -3 0 -10z m-3361 -61 l0 -11 -50 -7 -51 -7 -9 6
-10 6 0 14 0 15 60 -2 60 -2 0 -12z m565 7 l5 -10 -10 -6 -11 -7 -15 6 -15 6
6 10 6 10 14 0 14 0 6 -9z"/>
<path d="M1940 5364 l0 -26 28 7 27 6 9 9 8 8 -6 11 -7 11 -30 0 -29 0 0 -26z"/>
<path d="M2190 5359 l-33 -31 -26 6 -26 6 -25 6 -25 6 20 -16 20 -16 -17 -14
-18 -13 0 -12 0 -11 14 0 15 0 7 11 7 11 38 -6 38 -6 6 20 6 20 10 0 9 0 0
-10 0 -10 30 0 30 0 0 24 0 25 -12 7 -12 8 -4 -12 -4 -12 -10 0 -10 0 12 15
13 16 -9 9 -10 10 -34 -31z"/>
<path d="M2372 5378 l5 -13 22 -3 23 -4 -4 14 -5 13 -22 3 -23 4 4 -14z"/>
<path d="M2635 5259 l-7 -10 6 -6 5 -5 16 6 16 6 -6 10 -6 10 -9 0 -9 0 -6
-11z"/>
<path d="M2060 5225 l0 -16 18 3 17 3 -2 10 -2 10 -15 3 -16 3 0 -16z"/>
<path d="M2547 5144 l-6 -6 11 -23 10 -23 39 -18 40 -17 10 10 11 11 -4 18 -3
19 -40 10 -40 10 -11 7 -11 7 -6 -5z"/>
<path d="M2180 5016 l0 -16 21 0 21 0 -4 13 -5 12 -16 3 -17 3 0 -15z"/>
<path d="M2508 4804 l-47 -14 -6 -10 -6 -9 56 -26 56 -25 19 0 20 0 0 -10 0
-10 11 0 12 0 13 18 14 17 10 -15 10 -15 10 -37 11 -37 15 -16 15 -15 10 0 10
0 6 16 6 16 -16 10 -17 9 0 9 0 10 18 0 17 0 30 -20 30 -20 18 0 17 0 0 25 0
25 -30 0 -30 0 0 15 0 15 -30 0 -31 0 11 20 11 20 -15 0 -14 0 -5 -12 -4 -13
-31 18 -30 17 -20 0 -21 0 -7 11 -6 11 -24 -6 -24 -6 0 8 0 8 11 11 11 11 -9
5 -8 5 -47 -14z"/>
<path d="M2000 4725 l0 -46 -15 -5 -15 -6 0 -17 0 -17 -15 -21 -15 -22 10 -6
10 -6 6 15 6 16 13 0 13 0 6 16 6 15 10 -6 11 -7 -6 -19 -6 -19 16 0 16 0 6
-16 6 -16 24 -26 24 -26 -16 -8 -15 -9 -10 6 -10 6 0 15 0 14 -24 0 -25 0 -6
10 -6 10 -15 0 -14 0 0 -30 0 -30 18 0 18 0 22 -16 22 -15 0 -20 0 -19 -14 0
-13 0 4 -25 5 -24 -16 -16 -16 -16 0 -14 0 -14 19 -18 18 -18 -5 -37 -4 -38
-9 0 -9 0 -20 17 -20 17 0 22 0 22 -6 16 -6 16 -22 0 -22 0 -17 -20 -17 -20 0
-25 0 -26 14 -5 14 -5 -5 -18 -5 -18 30 -22 30 -21 16 0 16 0 0 7 0 7 -40 47
-40 48 0 21 0 22 13 -4 12 -5 3 -26 3 -26 30 -13 29 -13 0 -17 0 -18 15 0 15
0 0 16 0 17 18 13 17 13 13 1 12 0 0 -15 0 -15 16 0 17 0 -6 -37 -6 -38 9 -15
9 -14 -12 -8 -12 -7 -16 15 -17 15 -7 -12 -8 -12 17 -9 16 -9 -6 -11 -7 -11
-11 15 -12 16 -24 4 -25 3 1 -32 2 -33 -18 0 -19 0 -6 -21 -7 -21 43 -44 43
-44 21 20 21 20 30 0 30 0 12 12 12 12 11 -11 10 -10 33 15 33 15 9 41 9 41
15 0 15 0 -2 -19 -1 -19 21 -17 21 -18 -13 -16 -14 -17 47 -44 46 -45 -1 -17
-1 -18 -5 13 -5 12 -14 0 -15 0 -5 15 -6 15 -15 0 -14 0 -15 -14 -14 -15 0
-20 0 -21 10 0 10 0 0 -12 1 -13 24 -28 25 -28 18 3 17 4 -2 22 -3 22 20 0 21
0 3 13 4 12 6 19 7 19 11 -11 12 -12 13 0 13 0 0 15 0 15 -15 0 -15 0 0 15 0
15 -11 0 -11 0 -39 43 -38 42 -1 12 0 12 -30 23 -30 22 0 22 0 23 -21 6 -21 7
-20 20 -20 20 6 6 6 6 12 -12 12 -12 21 0 21 0 16 -19 17 -20 3 -28 3 -28 43
3 42 2 0 -25 0 -25 35 -22 35 -23 0 -12 0 -13 -15 0 -15 0 0 -15 0 -15 19 0
19 0 6 -12 6 -13 -6 22 -5 22 11 21 11 21 22 -3 22 -3 3 -22 3 -23 19 0 18 0
6 -16 6 -16 16 13 16 13 13 -17 12 -17 11 0 10 0 6 -15 5 -15 11 0 10 0 0 15
0 15 -10 0 -10 0 0 10 0 10 20 20 20 20 10 0 10 0 0 8 -1 7 -13 18 -14 18 -7
-11 -7 -11 -29 6 -29 7 0 -16 0 -16 -20 0 -20 0 0 11 0 11 20 5 20 5 0 19 0
20 -15 5 -15 6 0 19 0 19 -10 0 -10 0 0 25 0 25 -20 0 -20 0 0 15 0 15 -9 0
-10 0 -6 -9 -5 -10 17 -10 18 -11 -17 -14 -18 -13 0 -12 0 -11 -15 0 -16 0
-32 13 -32 14 -20 37 -20 37 -32 -3 -33 -4 0 8 0 8 13 0 14 0 18 20 18 20 58
-60 58 -60 11 0 10 0 0 15 0 15 -15 0 -15 0 0 14 0 14 15 6 15 5 0 16 0 15 14
0 15 0 6 -20 6 -20 15 0 14 0 -3 43 -2 42 -42 0 -42 0 -28 28 -29 27 -12 0
-12 0 0 -22 0 -23 -9 13 -8 14 -24 -4 -24 -3 0 -25 0 -25 -20 0 -20 0 -5 30
-5 30 -22 3 -21 3 -34 32 -34 32 -7 18 -6 17 -11 0 -10 0 0 -30 0 -30 9 0 10
0 6 -21 7 -21 -40 -39 -41 -39 -7 11 -7 12 17 9 16 9 0 11 0 11 17 12 16 12
-6 17 -7 16 -19 -17 -20 -18 -15 -13 -16 -13 0 10 0 10 10 6 10 6 0 20 0 19
-15 0 -14 0 -9 -16 -9 -17 -8 13 -7 12 11 11 11 11 0 11 0 12 -30 -5 -30 -4 0
21 0 21 18 1 17 1 -12 5 -13 5 0 24 0 24 18 0 17 0 22 -31 21 -31 12 21 11 22
10 -6 9 -6 0 -21 0 -21 -17 -12 -16 -12 6 -17 7 -17 10 6 10 6 0 15 0 15 14
15 14 14 6 12 5 13 17 -22 16 -23 19 0 18 0 6 -10 6 -10 20 0 19 0 0 8 0 8
-30 29 -30 29 0 8 0 8 23 0 24 0 23 -25 23 -25 15 0 14 0 -12 15 -12 14 7 11
6 10 15 0 14 0 0 -15 0 -15 20 0 20 0 0 12 0 12 17 -16 16 -17 19 24 18 23 0
11 0 11 -20 0 -21 0 -5 15 -6 15 -18 0 -17 0 -44 45 -44 45 -11 0 -12 0 -16
-25 -16 -25 25 0 25 0 0 -20 0 -20 -51 2 -51 1 -5 13 -5 14 -14 0 -14 0 0 -14
0 -15 10 -6 10 -6 -16 -25 -16 -24 -9 0 -9 0 0 15 0 16 -30 17 -30 17 0 13 0
12 10 0 10 0 0 11 0 12 -22 18 -21 19 -12 23 -11 22 14 23 14 22 34 0 35 0 5
-14 5 -14 26 -7 26 -6 8 12 8 13 -15 28 -15 28 12 21 11 22 -37 -7 -37 -7 -13
11 -14 12 -25 -19 -25 -18 -1 -28 0 -29 -12 4 -13 5 -3 36 -3 37 -23 25 -23
25 -7 0 -6 0 0 -45z m134 -291 l16 -6 0 -14 0 -14 -20 0 -20 0 0 4 0 4 -6 16
-6 16 10 0 10 0 16 -6z m133 -30 l-6 -6 -10 7 -11 6 6 11 6 10 11 -11 11 -11
-7 -6z m61 -232 l4 -12 -16 0 -16 0 0 16 0 16 12 -4 12 -4 4 -12z m29 -38 l-6
-6 -10 7 -11 6 6 11 6 10 11 -11 11 -11 -7 -6z m-215 -109 l0 -9 -11 -4 -11
-4 0 17 0 17 11 -4 11 -3 0 -10z m98 0 l0 -15 -15 0 -15 0 0 15 0 15 15 0 15
0 0 -15z m360 -39 l0 -13 -27 -12 -26 -12 -11 11 -10 10 17 0 17 0 12 19 12
20 8 -5 8 -5 0 -13z m-550 -28 l0 -9 -20 11 -20 11 0 16 0 16 20 -18 20 -18 0
-9z m610 7 l0 -5 -20 -20 -20 -20 -10 0 -10 0 0 11 0 12 18 13 17 13 13 1 12
0 0 -5z m60 -91 l0 -16 -12 4 -12 4 -4 12 -4 12 16 0 16 0 0 -16z"/>
<path d="M1915 4736 l-18 -13 5 -14 6 -14 26 -14 26 -14 6 6 6 6 -6 36 -7 35
-13 0 -12 0 -19 -14z"/>
<path d="M2396 4725 l-15 -15 -10 0 -11 0 0 -20 0 -20 14 0 14 0 14 -22 15
-22 -20 -33 -19 -33 17 -7 18 -6 12 16 12 17 58 -4 58 -5 10 -10 11 -11 -42 0
-42 0 0 -9 0 -10 23 -3 22 -3 0 -27 1 -27 7 -7 6 -7 26 32 27 31 13 0 14 0 6
10 6 10 -26 10 -26 10 6 10 6 10 40 0 40 0 5 -15 6 -15 19 0 19 0 0 8 -1 7
-17 21 -18 21 -22 7 -21 7 -6 20 -6 19 -25 0 -24 0 3 -22 2 -23 -21 -3 -22 -3
-46 22 -46 21 -13 -5 -14 -5 -17 19 -16 19 0 10 0 10 45 0 45 0 0 14 0 14 -31
6 -31 6 -9 0 -8 0 -15 -15z"/>
<path d="M2937 4733 l-7 -6 0 -14 0 -13 15 0 15 0 0 -15 0 -15 -16 0 -15 0
-16 15 -15 16 -16 -3 -15 -3 -4 -12 -4 -11 23 -4 23 -3 -3 -40 -4 -40 -14 -16
-14 -16 0 -16 0 -17 15 0 15 0 0 -15 0 -15 -10 0 -11 0 -5 15 -6 15 -14 0 -14
0 0 9 0 9 -37 22 -36 21 -14 -13 -13 -14 6 -32 7 -32 12 0 13 0 6 16 6 15 11
-7 12 -7 -18 -13 -18 -14 27 -25 27 -25 18 0 17 0 11 11 11 11 6 -11 7 -11 20
0 19 0 0 7 0 6 -17 19 -16 18 18 20 18 20 24 0 23 0 0 14 0 14 -20 5 -20 5 0
9 0 9 15 20 15 19 10 -15 10 -15 3 -10 4 -10 15 13 16 13 -5 20 -6 21 14 8 13
9 -8 8 -9 8 -4 -12 -5 -13 -23 0 -24 0 -6 9 -5 10 10 6 10 6 0 16 0 16 -22 18
-21 19 -2 0 -2 0 -6 -7z"/>
<path d="M2270 4693 l0 -28 10 -15 9 -14 7 17 6 17 14 0 14 0 0 14 0 14 -17 6
-18 6 -12 6 -13 6 0 -29z"/>
<path d="M2286 4619 l-16 -19 0 -10 0 -10 15 0 15 0 0 11 0 12 16 12 17 12
-15 6 -15 5 -17 -19z"/>
<path d="M2151 4588 l-8 -22 11 -11 11 -10 27 -14 26 -14 27 7 26 7 -4 12 -4
12 -21 -3 -22 -3 -6 15 -6 16 -14 0 -14 0 0 15 0 15 -10 0 -11 0 -8 -22z"/>
<path d="M2675 4514 l8 -19 1 -37 2 -38 11 -11 11 -11 12 7 11 7 -6 18 -6 18
11 7 10 6 0 12 0 12 -37 24 -36 23 8 -18z"/>
<path d="M2750 4445 l0 -15 15 0 15 0 0 15 0 15 -15 0 -15 0 0 -15z"/>
<path d="M3907 4424 l-6 -7 5 -8 5 -9 15 0 14 0 0 15 0 15 -13 0 -14 0 -6 -6z"/>
<path d="M2782 4409 l4 -10 9 0 10 0 3 10 4 11 -17 0 -17 0 4 -11z"/>
<path d="M3463 4402 l-23 -3 0 -10 0 -10 16 -6 15 -6 11 11 10 10 -3 9 -4 8
-22 -3z"/>
<path d="M2877 4394 l-6 -7 11 -21 11 -21 16 -12 16 -12 -22 -1 -23 0 0 10 0
10 -19 0 -20 0 -6 10 -6 10 -10 0 -9 0 0 -18 0 -18 30 -29 30 -29 0 -8 0 -8
-20 0 -21 0 -71 70 -71 70 -19 0 -19 0 -23 -25 -23 -25 -11 0 -11 0 -14 20
-14 20 -11 -13 -11 -13 26 -37 25 -36 29 -6 29 -7 33 8 32 8 15 -3 15 -3 17
-18 17 -18 22 -16 22 -15 -27 -28 -28 -27 -9 17 -10 17 -9 0 -10 0 0 -15 0
-15 10 0 10 0 0 -10 0 -10 -14 0 -14 0 -5 -20 -5 -20 -26 0 -26 0 0 -20 0 -20
14 0 13 0 26 20 25 20 10 0 10 0 13 16 13 16 25 -5 26 -5 25 34 25 33 13 1 12
0 0 -20 0 -20 10 0 11 0 5 14 5 14 -27 27 -28 28 19 13 19 14 11 0 11 0 17 20
17 20 0 18 0 18 -19 16 -19 16 -3 10 -4 9 -21 7 -20 6 -7 -6z"/>
<path d="M3965 4391 l-5 -10 10 -6 10 -6 10 6 10 6 0 10 0 9 -14 0 -15 0 -6
-9z"/>
<path d="M1730 4365 l0 -25 15 0 15 0 0 25 0 25 -15 0 -15 0 0 -25z"/>
<path d="M3070 4354 l0 -16 12 4 12 4 4 12 4 12 -16 0 -16 0 0 -16z"/>
<path d="M2443 4343 l-23 -4 0 -15 0 -14 36 0 35 0 -3 17 -3 16 -10 2 -10 2
-22 -4z"/>
<path d="M3120 4328 l1 -13 13 -17 13 -18 17 0 16 0 0 14 0 15 -22 15 -22 16
-8 0 -8 0 0 -12z"/>
<path d="M3232 4329 l4 -10 9 0 10 0 3 10 4 11 -17 0 -17 0 4 -11z"/>
<path d="M3458 4329 l-18 -10 0 -18 0 -18 -18 -16 -19 -17 -11 0 -12 0 0 -10
0 -11 15 -5 15 -6 0 -14 0 -14 -15 0 -15 0 0 -15 0 -15 -25 0 -25 0 0 14 0 14
-30 7 -30 7 0 8 0 8 -20 5 -20 5 0 11 0 11 15 0 15 0 0 9 0 10 -10 6 -10 6 -6
-15 -6 -16 -14 0 -14 0 -10 -25 -10 -25 -8 0 -9 0 -27 -25 -26 -24 0 -11 0
-10 11 0 12 0 13 18 13 17 11 -12 12 -11 -28 -36 -29 -36 -7 0 -8 0 0 -10 0
-10 -20 -20 -20 -20 -10 0 -10 0 0 14 0 14 -21 5 -20 6 10 19 10 19 -6 21 -5
22 -14 0 -14 0 0 20 0 20 10 0 10 0 0 14 0 14 -21 -5 -21 -6 -5 -14 -6 -14 11
-23 10 -24 -11 -11 -11 -11 12 -20 12 -20 0 -14 0 -14 -25 11 -25 12 0 13 0
12 -15 0 -15 0 0 -20 0 -20 -11 0 -11 0 -5 19 -5 20 -16 6 -15 6 -9 -9 -9 -9
25 -28 26 -28 0 -14 0 -14 14 -15 15 -14 15 0 16 0 0 24 0 25 -10 6 -10 6 0
10 0 9 51 -35 51 -35 8 0 9 0 25 10 26 10 0 9 0 10 35 36 36 35 8 0 9 0 6 16
6 17 18 -17 19 -16 21 0 22 0 0 -11 0 -12 -17 -13 -18 -13 18 -6 17 -7 0 -13
0 -14 45 -22 45 -23 0 -7 0 -7 25 -6 25 -6 0 -10 0 -9 -22 -7 -21 -6 -13 16
-12 17 0 -35 0 -36 9 0 9 0 0 15 0 15 30 0 30 0 0 10 0 10 33 -2 32 -3 0 15 0
15 -30 5 -30 5 0 15 0 14 25 7 25 7 -27 1 -27 1 -10 18 -10 17 -1 -22 0 -22
-11 -7 -12 -7 -9 17 -9 16 -20 0 -20 0 -5 15 -6 15 -19 0 -19 0 0 15 0 15 18
0 17 1 17 24 18 24 -6 15 -6 16 -10 0 -11 0 -13 -17 -13 -18 -18 18 -17 17 11
0 11 0 5 20 5 20 26 0 27 0 5 -15 6 -15 28 0 28 0 5 8 4 7 -4 -14 -4 -14 13
-9 13 -8 11 0 11 0 11 24 11 25 -22 3 -22 3 -3 18 -3 17 25 0 25 0 8 -14 8
-13 30 -6 30 -5 22 -7 22 -7 -12 25 -12 26 -22 10 -22 10 -6 -9 -6 -10 -15 0
-14 0 0 9 0 10 26 28 26 28 -26 3 -26 3 0 19 0 18 15 6 15 5 0 11 0 10 -12 0
-13 -1 -17 -10z m12 -85 l0 -14 -15 0 -15 0 0 13 0 14 6 6 7 6 8 -5 9 -5 0
-15z m-244 -80 l-6 -16 0 -4 0 -4 -15 0 -16 0 11 20 11 20 10 0 11 0 -6 -16z"/>
<path d="M3020 4310 l0 -20 -20 -20 -20 -20 -10 0 -10 0 0 -15 0 -15 15 0 15
0 0 16 0 16 35 -4 35 -4 0 13 0 13 25 -6 25 -6 0 18 0 19 -31 18 -31 17 -14 0
-14 0 0 -20z"/>
<path d="M3967 4311 l22 -21 11 0 11 0 -3 18 -3 17 -30 3 -30 4 22 -21z"/>
<path d="M2360 4295 l0 -15 -15 0 -15 0 0 -15 0 -15 15 0 15 0 0 15 0 15 18 0
18 0 12 -12 12 -12 0 7 0 7 -17 20 -17 20 -13 0 -13 0 0 -15z"/>
<path d="M2510 4265 l0 -15 15 0 15 0 0 -10 0 -10 25 -12 25 -11 20 18 20 18
-6 8 -5 8 -14 -6 -15 -5 -25 16 -24 16 -16 0 -15 0 0 -15z"/>
<path d="M3280 4236 l0 -14 14 -5 14 -6 6 6 6 6 0 14 0 13 -20 0 -20 0 0 -14z"/>
<path d="M3530 4235 l0 -15 15 0 15 0 0 -15 0 -15 30 0 30 0 0 -28 0 -28 -8
-9 -9 -10 19 -17 18 -18 0 10 0 10 29 0 30 0 6 9 5 10 -17 10 -18 10 12 19 12
20 -6 6 -6 6 -28 0 -28 0 -6 20 -6 19 -30 -6 -29 -5 0 16 0 16 -15 0 -15 0 0
-15z"/>
<path d="M3710 4220 l0 -20 10 0 10 0 0 20 0 20 -10 0 -10 0 0 -20z"/>
<path d="M2670 4210 l0 -10 15 0 15 0 0 10 0 10 -15 0 -15 0 0 -10z"/>
<path d="M4310 4180 l0 -20 13 0 14 0 6 6 6 6 -6 14 -5 14 -14 0 -14 0 0 -20z"/>
<path d="M2060 4175 l0 -15 15 0 15 0 0 15 0 15 -15 0 -15 0 0 -15z"/>
<path d="M3035 4166 l-19 -14 41 -41 41 -42 7 11 7 12 -26 27 -27 28 7 16 6
17 -9 0 -9 0 -19 -14z"/>
<path d="M2650 4146 l0 -16 26 0 26 0 -4 13 -5 12 -21 3 -22 3 0 -15z"/>
<path d="M3477 4123 l-7 -6 0 -19 0 -18 8 0 8 0 13 13 12 12 19 -25 20 -25 0
-9 0 -9 -55 6 -55 6 0 -15 0 -14 10 0 10 0 6 -25 6 -25 9 0 9 0 12 20 13 20
22 0 23 0 0 15 0 15 19 0 20 0 6 9 5 9 -26 21 -27 21 -12 0 -13 0 -6 15 -5 15
-19 0 -19 0 -6 -7z"/>
<path d="M4997 4094 l-6 -7 5 -8 5 -9 15 0 14 0 0 15 0 15 -13 0 -14 0 -6 -6z"/>
<path d="M3052 4059 l4 -10 9 0 10 0 3 10 4 11 -17 0 -17 0 4 -11z"/>
<path d="M3378 4053 l-3 -17 -34 0 -34 -1 -5 -14 -5 -14 34 6 34 5 29 11 28
11 -12 15 -12 15 -8 0 -9 0 -3 -17z"/>
<path d="M3647 4063 l-7 -6 0 -9 0 -8 20 0 20 0 0 15 0 15 -13 0 -14 0 -6 -7z"/>
<path d="M3175 4040 l-7 -22 10 -10 10 -10 7 22 7 22 -10 10 -10 10 -7 -22z"/>
<path d="M2664 4039 l-6 -10 5 -5 5 -6 22 4 21 3 -20 12 -20 13 -7 -11z"/>
<path d="M5082 4016 l-23 -24 10 -6 9 -6 26 21 26 20 0 10 0 9 -12 0 -13 0
-23 -24z"/>
<path d="M3560 4001 l0 -8 -35 -24 -35 -24 0 -8 0 -8 16 -6 16 -6 10 16 9 17
19 0 20 0 20 20 20 20 0 10 0 10 -30 0 -30 0 0 -9z"/>
<path d="M3260 3940 l0 -20 15 0 15 0 0 20 0 20 -15 0 -15 0 0 -20z"/>
<path d="M3540 3901 l0 -9 -20 -5 -20 -5 0 -11 0 -11 18 0 19 0 23 25 23 25
-21 0 -22 0 0 -9z"/>
<path d="M3267 3883 l-7 -6 0 -9 0 -8 15 0 15 0 0 15 0 15 -8 0 -9 0 -6 -7z"/>
<path d="M2560 3860 l25 -19 4 4 3 4 -5 16 -6 15 -23 0 -23 0 25 -20z"/>
<path d="M5198 3866 l-18 -13 0 -7 0 -6 13 0 12 0 13 20 12 20 -7 0 -8 -1 -17
-13z"/>
<path d="M3312 3720 l-22 -18 0 -11 0 -11 8 0 7 0 23 24 23 24 -8 5 -8 5 -23
-18z"/>
<path d="M3430 3725 l0 -15 25 0 25 0 0 15 0 15 -25 0 -25 0 0 -15z"/>
<path d="M3515 3700 l-6 -10 15 -6 16 -6 16 6 15 6 -6 10 -6 10 -19 0 -19 0
-6 -10z"/>
<path d="M3592 3698 l4 -12 12 -4 12 -4 0 16 0 16 -16 0 -16 0 4 -12z"/>
<path d="M4320 3665 l-25 -14 -15 -7 -15 -6 -36 -16 -36 -15 -18 -29 -17 -30
-31 6 -31 6 9 -9 10 -9 31 -6 31 -7 13 16 12 15 19 0 18 0 27 35 27 36 12 -5
13 -5 21 23 21 22 0 7 0 7 -7 0 -8 0 -25 -15z"/>
<path d="M3747 3657 l-5 -14 7 -12 8 -12 16 7 17 6 0 5 0 4 -14 15 -15 14 -4
0 -5 0 -5 -13z"/>
<path d="M4165 3641 l-5 -10 8 -5 9 -5 7 6 6 6 0 9 0 8 -9 0 -10 0 -6 -9z"/>
<path d="M4355 3610 l-20 -9 28 0 28 -1 -6 10 -6 10 -2 -1 -2 0 -20 -9z"/>
<path d="M4490 3605 l0 -15 15 0 15 0 0 15 0 15 -15 0 -15 0 0 -15z"/>
<path d="M4293 3579 l-11 -11 5 -14 5 -14 32 0 32 0 12 -12 12 -12 0 -18 0
-18 25 12 25 11 0 18 0 17 13 5 12 5 -17 17 -17 18 -13 -10 -13 -10 -27 -7
-27 -6 -11 20 -11 20 -7 0 -8 0 -11 -11z"/>
<path d="M3647 3554 l-6 -6 11 -24 11 -23 8 5 9 5 0 25 0 24 -13 0 -14 0 -6
-6z"/>
<path d="M3766 3551 l-6 -9 6 -16 6 -16 5 0 4 0 29 15 30 16 0 9 0 10 -34 0
-35 0 -5 -9z"/>
<path d="M4500 3540 l0 -10 8 0 7 0 15 10 15 10 -22 0 -23 0 0 -10z"/>
<path d="M4200 3518 l0 -8 19 0 18 0 27 -21 26 -20 25 3 26 3 2 9 2 10 -32 8
-33 9 0 8 0 9 -40 -1 -40 -2 0 -7z"/>
<path d="M4907 3524 l-6 -7 5 -8 5 -9 15 0 14 0 0 15 0 15 -13 0 -14 0 -6 -6z"/>
<path d="M4560 3510 l0 -9 33 6 32 6 4 3 4 4 -36 0 -37 0 0 -10z"/>
<path d="M3716 3463 l-6 -6 0 -24 0 -23 15 0 15 0 0 24 0 25 -9 5 -8 5 -7 -6z"/>
<path d="M4610 3428 l0 -13 27 -12 27 -13 13 0 13 0 0 19 0 19 -22 6 -23 6
-17 0 -18 0 0 -12z"/>
<path d="M3590 4585 l0 -25 10 0 9 0 11 19 10 20 0 5 0 6 -20 0 -20 0 0 -25z"/>
<path d="M4072 3819 l4 -10 9 0 10 0 3 10 4 11 -17 0 -17 0 4 -11z"/>
<path d="M4280 3930 l0 -10 15 0 15 0 0 10 0 10 -15 0 -15 0 0 -10z"/>
<path d="M5244 3629 l-6 -11 11 -11 11 -11 0 22 0 22 -4 0 -5 0 -7 -11z"/>
<path d="M5230 3545 l0 -15 20 0 20 0 0 15 0 15 -20 0 -20 0 0 -15z"/>
<path d="M5430 3160 l0 -10 24 -6 25 -6 11 7 10 6 -5 10 -6 9 -30 0 -29 0 0
-10z"/>
<path d="M5945 3190 l-6 -10 21 0 21 0 -6 10 -6 10 -9 0 -9 0 -6 -10z"/>
<path d="M4190 723 l0 -8 10 -15 10 -15 0 23 0 22 -10 0 -10 0 0 -7z"/>
<path d="M3816 631 l-6 -9 -35 -6 -34 -7 -6 -9 -6 -9 28 -14 28 -14 13 4 12 5
0 18 0 19 16 9 17 9 -11 7 -11 6 -5 -9z"/>
<path d="M3500 525 l0 -25 9 0 10 0 5 9 6 9 -6 16 -6 16 -9 0 -9 0 0 -25z"/>
<path d="M5720 970 l0 -10 15 0 15 0 0 10 0 10 -15 0 -15 0 0 -10z"/>
<path d="M4883 680 l-33 -20 0 -15 0 -15 9 0 8 0 27 25 26 24 0 11 0 10 -2 0
-3 0 -32 -20z"/>
<path d="M6990 568 l-21 -23 15 -3 15 -3 25 17 26 16 0 9 0 9 -20 0 -19 0 -21
-22z"/>
<path d="M7165 521 l-5 -10 8 -5 9 -5 7 6 6 6 0 9 0 8 -9 0 -10 0 -6 -9z"/>
<path d="M6147 453 l-7 -6 0 -19 0 -18 15 0 15 0 0 25 0 25 -8 0 -9 0 -6 -7z"/>
<path d="M6142 371 l4 -12 7 0 7 1 1 7 1 8 -12 4 -12 4 4 -12z"/>
<path d="M5902 3521 l-14 -8 17 -7 17 -6 33 0 34 0 5 9 6 9 -16 6 -16 6 -26 0
-27 0 -13 -9z"/>
<path d="M6927 2954 l-6 -7 5 -8 5 -9 20 0 19 0 0 -15 0 -15 -135 0 -135 0 0
-15 0 -15 98 -1 97 -1 38 -1 37 0 35 19 35 19 0 12 0 13 -18 0 -18 0 -20 15
-19 14 -16 1 -16 0 -6 -6z"/>
<path d="M1190 1475 l0 -15 15 0 15 0 0 15 0 15 -15 0 -15 0 0 -15z"/>
<path d="M3540 1001 l0 -10 9 -5 9 -6 16 6 16 6 -6 9 -5 9 -20 0 -19 0 0 -9z"/>
<path d="M4400 982 l0 -28 -15 -20 -14 -19 -1 -50 0 -51 -12 -12 -11 -11 -4
-63 -3 -63 -15 -11 -15 -11 0 -42 0 -42 16 -31 16 -31 3 -41 3 -41 1 -9 1 -9
7 7 8 7 2 56 2 55 18 13 18 14 -13 13 -13 13 -5 -23 -6 -22 -14 0 -14 0 0 43
1 42 14 19 15 20 0 42 0 42 14 5 14 6 -2 50 -3 49 19 16 18 16 0 65 0 65 -15
0 -15 0 0 -28z"/>
<path d="M3127 993 l-7 -6 0 -14 0 -13 25 0 25 0 0 8 0 8 -12 12 -12 12 -6 0
-7 0 -6 -7z"/>
<path d="M4414 706 l-6 -17 5 -5 5 -6 17 9 16 10 -15 12 -16 13 -6 -16z"/>
<path d="M4372 334 l3 -47 13 -5 13 -4 -3 48 -3 47 -13 5 -13 4 3 -48z"/>
<path d="M2104 349 l-6 -11 16 -16 16 -16 12 12 11 11 -13 16 -12 15 -9 0 -8
0 -7 -11z"/>
<path d="M2116 278 l-5 -23 -5 -37 -5 -38 28 0 28 0 -3 23 -3 22 -6 38 -6 37
-9 0 -10 0 -4 -22z"/>
<path d="M2056 148 l-5 -23 8 -8 9 -9 11 6 11 7 0 25 0 24 -14 0 -14 0 -6 -22z"/>
<path d="M2430 125 l0 -15 9 0 10 0 5 9 6 9 -15 6 -15 5 0 -14z"/>
</g>
</svg>
