<svg id="Capa_1" enable-background="new 0 0 512 512" height="512" viewBox="0 0 512 512" width="512" xmlns="http://www.w3.org/2000/svg"><g><g><g><g><g><g><g><g><g><g><g><g><g><g><g><g><g><g><g><circle cx="256" cy="256" fill="#adcfff" r="256"/></g></g></g></g></g></g></g></g></g></g></g></g></g></g></g></g></g></g><path d="m375.945 121.178-23.955-23.954-11.518 25.187-61.719 110.836-246.792 35.502 242.578 242.578c132.729-9.501 237.461-120.178 237.461-255.327 0-25.819-3.838-50.738-10.947-74.236l-62.752-62.752z" fill="#8bbbff"/><g><g><path d="m229.102 336.866h15.824v98.686h-15.824z" fill="#ffb555"/></g><g><path d="m277.63 336.866h15.824v98.686h-15.824z" fill="#ff9e22"/></g><path d="m423.094 112.05c-.001 0-.001 0-.002 0h-70.665v25.423h70.667c6.12 0 11.397 3.551 13.924 8.697 3.688-3.613 5.982-8.643 5.982-14.214 0-10.994-8.912-19.906-19.906-19.906z" fill="#ff9e22"/><circle cx="237.014" cy="336.866" fill="#fff" r="17.819"/><circle cx="285.542" cy="336.866" fill="#d6d6d6" r="17.819"/><path d="m367.448 246.492-.003-.013c-.108-.452-.201-.909-.317-1.357l-21.55-92.305c10.022-6.409 16.671-17.627 16.671-30.405 0-19.924-16.151-36.075-36.075-36.075s-36.074 16.15-36.074 36.074v31.526c0 17.974-11.547 33.915-28.626 39.518l-.196.064-20.127 68.641 20.127 74.28c22.838 1.092 35.377-.277 35.377-.277 40.197 0 72.783-32.586 72.783-72.783.001-5.817-.701-11.466-1.99-16.888z" fill="#efefef"/><path d="m261.278 193.519-229.317 75.23s184.275 65.538 229.317 67.691z" fill="#fff"/><g><g><circle cx="328.4" cy="122.411" fill="#fff" r="12.072"/></g><g><circle cx="328.4" cy="122.411" fill="#2d2d2d" r="8.537"/></g></g><path d="m291.139 255.511-28.832 51.827c-28.623 0-51.827-23.204-51.827-51.827s23.204-51.827 51.827-51.827z" fill="#efefef"/><path d="m245.212 304.452-158.186-46.726 158.186-51.155z" fill="#efefef"/><path d="m314.134 255.511c0 28.623-23.204 51.827-51.827 51.827v-103.653c28.624 0 51.827 23.203 51.827 51.826z" fill="#d6d6d6"/></g></g></svg>