<?xml version="1.0" encoding="utf-8"?>
<svg version="1.1" id="Layer_1" xmlns="http://www.w3.org/2000/svg" xmlns:xlink="http://www.w3.org/1999/xlink" x="0px" y="0px"
	 viewBox="-24.6 -24.3 1329.1 1314.6" enable-background="new -24.6 -24.3 1329.1 1314.6" xml:space="preserve">
<g id="_x23_ffffffff">
</g>
<g id="_x23_fefefbff">
</g>
<g>
	<path fill="#7F2D22" d="M304.5,0h26.1c17.9,0.5,35.6,2.6,53.4,4.1c11.1,0.9,22.5,0.5,33.3,3.7c23,6.2,42.4,21.2,59,37.8
		c10.4,10.4,19.8,21.6,29.5,32.6c2.1,2.5,5.6,2.8,7.8,5.2c4.9,5,7.3,11.8,9.4,18.3c-0.1,0.6-0.3,1.8-0.4,2.4
		c-2.5-9.5-6.4-21.7-17.5-23.9c-0.8,8.7,5.1,15.7,7.9,23.5c-2.7,0-5.5,0.1-8.2,0.2c-0.3,2.9-0.4,5.9-1.6,8.7
		c-3.5-2.2-6.8-4.5-10.5-6.5c-0.3,3.6-0.8,7.2-1.7,10.7c-7.1-2-13.9-5.1-21-7.3c-1.4,2-2.8,4-4.1,6c-6,0.1-12,0.1-18.1,0
		c-5.9-0.9-9.3,5.1-14.2,7.2c-5.7-1.5-10.9-4.3-16.6-6c-9.7-0.1-17.3,6.9-25.4,11.1c-3.3,0.3-6.2-1.5-9.1-2.6
		c-4.5-1.8-8.8-4.2-13.5-5.3c0.8,2.3,1.6,4.7,2.5,7c-4.4,0.1-8.8-1-13.2-1.4c-1.2,1.2-2.1,3.6-4.2,3c-9-3.5-17.2-8.9-26.1-12.4
		c0.5,2.8,0.9,5.7,1.3,8.5c-3.5,0.1-7.1,0.1-10.6,0.1c1.1,6,7.9,8.9,8.9,14.9c-1.2,0.5-2.3,1-3.5,1.5c0,0.8,0,2.3,0,3
		c-0.5-0.7-0.9-1.4-1.3-2.2c-4-1-8.1-0.6-12.2-0.2c-5.3,0.7-10.6-1.3-15.9-0.7c-8.5,1-17.7-0.9-25.4,3.8c-2.6,1.4-2.2,4.8-2.4,7.3
		c-0.1,4.4-0.5,8.7-1.1,13c-0.6,8.9,0.8,17.8,3.8,26.2c1.5,4.2,3.1,8.6,6.5,11.6c4.8,4.1,9.4,8.6,15.3,11.2
		c-5.3,1.5-11.1,0.4-16.2,2.6c-9.4,5.5-19.5,9.9-29.3,14.8c0.5,2.2,1.1,4.5,1.8,6.6c-2.8,1.2-5.8,1.7-8.7,2.5
		c-4.5,0.9-3.5,7.4-7.2,9.1c-9.7,0.4-19.4-0.9-29.2,0.1c3.8,5.6,10.8,8,14.2,13.8c-8.7,1.1-17.6,1.6-26.1,3.9
		c1.3,4.5,5.7,8.1,4.5,13.2c-9.3,3.3-18.6,6.9-27.3,11.6c4.2,3.3,9.6,4.4,13.9,7.6c-6.4,4.8-13.1,9.1-19,14.6
		c-5.3,5.4-13,7.1-19.6,10.6c0.1,2.3,0.3,4.6,0.5,6.8c-2.1,0.7-4.3,1.4-6.4,2.1c-0.2,0.6-0.7,2-0.9,2.6c-4.1,0.2-8.3-0.4-12.4,0.2
		c-4.7,3-8.5,7.4-13.5,10c-4.5,0.5-9.1-0.6-13.6-0.1c-5.3,2.7-9.7,7.2-15.3,9.4c-3.7-3.2-7.1-6.8-10.3-10.4
		c-5,0.2-10.1-0.3-14.9,1.1c-0.8,1.6-1.6,3.2-2.4,4.9c2.1-15.8,0.7-31.8-0.6-47.6c-0.5,1.1-1,2.3-1.4,3.5c-1.4-21.9,1.5-44,7.3-65.1
		c6.5-23.2,15.4-45.6,26-67.1l0.3,0.8c2.9-6.3,5.7-12.7,9.4-18.6c-0.3,0.1-0.8,0.4-1.1,0.5c16-31.3,33.6-62.3,57.9-88
		c2.2,0.5,3.5-1.4,4.8-2.8c2.3-2.6,5-5,7.4-7.5c1-0.8,1.2-2,1.2-3.2c17-15.7,36.4-28.7,57.6-38C248.7,6.8,276.6,1.4,304.5,0z"/>
	<path fill="#602C21" d="M152.1,69.6c4.2-4.8,8.8-9.1,13.4-13.5c0,1.2-0.2,2.4-1.2,3.2c-2.5,2.5-5.1,4.9-7.4,7.5
		C155.6,68.1,154.3,70.1,152.1,69.6z"/>
	<path fill="#E63724" d="M505.2,80.1c11.1,2.2,14.9,14.4,17.5,23.9c0.1-0.6,0.3-1.8,0.4-2.4c4.7,13.5,6.2,27.9,7.4,42
		c0.5,5.7,1.5,11.4,0.3,17.1c-5.6-1.9-11.1-4-16.6-5.9c-2.2-0.5-5.1-1.4-6.7,0.8c-3.8,4.3-6.5,9.4-10,13.9c-1.6,2.1-3.4,4-4.6,6.3
		c-2.6,4.4-0.4,10.3-3.7,14.4c-3,3.7-7.7,5.3-12.1,6.5c-6.8-0.4-13.4,1.6-20.1,2.3c-10,0.8-19.8,3.2-29.4,5.8
		c-2.2,0.7-5.1,1.4-5.6,4.2c-0.7,3-1.3,7.4,2.1,9c5.8,1.6,11.9,2.5,18,2.7c7.7,0.4,15.3,2.2,23.1,1.9c9-0.2,18,0.5,27-0.7
		c9.6-0.9,19.3-0.9,28.8-2.9c2.1-0.1,4.3-0.1,6.4,0c0.6,17,0.1,34.1-0.2,51c0.1,1.2,0.9,2.1,1.5,3.1c3.2,4.3,6.8,8.4,9.5,13.1
		c-1.8,0.4-3.6,0.7-5.4,1.1c-3.6-3.2-7.3-6.4-10.1-10.4c-2.2-7.8-1.2-15.9-1.4-23.9c-0.2-6.6,0.4-13.3-0.3-19.9
		c-2.9-1.7-6.2-1.2-9.3-0.7c-1.4,0-3.4,0.9-4-0.9c-0.8-1.4-1.4-2.8-2.1-4.2l-1.2-0.1c-2,0.1-3.9,0.4-5.9,0.8c-1.2,0.4-2.4,1-3,2.2
		c-2.7,4.2-4.2,9-6.8,13.2c-1.9,3.1-5.7,4.3-8.2,6.8c-1.2,2-1.7,4.4-2.6,6.5c-2.2,6.7-7.4,11.9-9.3,18.8
		c-4.2,11.3,2.3,22.9,0.4,34.4c-3-3.2-6.8-8.2-11.8-6l1,0.5c-0.5,1.3-1.1,2.6-1.6,3.9c-0.6,0.1-1.7,0.2-2.3,0.3
		c-1.5-0.7-3-1.9-4.7-1.3c-0.8,3.6-0.1,7.5,1.2,10.9c2,2.9,5.8,4.2,7.4,7.5c1.4,2.7,1.6,5.9,1.9,8.9c-1.1-1.2-1.8-2.9-3.5-3.4
		c-0.3,0-1,0-1.4,0l-0.9,0c-2.1,7.4,1.6,16,8.4,19.6c0.4,0.3,1.4,0.9,1.8,1.1c0.4-1.6,0.8-3.3,1.3-4.9c3.1,2.2,6.4,4.5,7.9,8.2
		c0.7,2.1,2.4,3.2,4.5,3.7c0.1-0.3,0.5-0.8,0.6-1c0.3-4.6-1.3-8.9-2.1-13.4c3.9,1.6,7.8,3.7,10.3,7.2c1.5,2.4,2.4,5.2,4.5,7.2
		l0.5,1.5c-3.2-0.5-6.3-1.4-9.3-2.5c-1.9,3-0.7,6.7-1,10.1c-0.3-2.8-0.8-5.6-1.2-8.4c-0.3,2-0.6,4-0.9,6c-2.8-1.9-5.1-4.8-8.6-5.2
		c-0.3,2.9-0.6,5.7-0.5,8.6c-4.3-2.6-8-6-12.2-8.8c-0.1,3.6,0.1,7.3,0.3,10.9c-5.1-0.8-10.2-1.9-15.2-3c2.1-7.7,0.3-15.7-2.6-22.9
		l-0.8,0.6c-0.4,0.1-1.1,0.3-1.4,0.5c-1,0.2-2,0.6-2.3,1.6c-1.9,5.5-1.9,11.8,1,16.9c-1.3-0.1-2.7-0.2-4-0.4
		c0.1-8.5-0.2-17.5-4.9-24.8l-0.4,1c-1.7,3.9-1.1,8.2-1.2,12.3c0,5-0.1,10,0.2,15c1.4-0.4,2.9-0.8,4.3-1.2c1.5,6,4.5,11.6,6.1,17.6
		c-4.4-0.4-7.9-3.2-12.1-4.3c-0.5,0-1.4,0-1.8,0c-1,7.6-0.3,15.3-0.7,22.9c-4.6-0.4-7.7-5.3-12.4-4.8l-1.3,0l0.6,1.6
		c-0.4-0.6-1.2-1.7-1.5-2.2c0.1,3.5,2.2,6.5,3.8,9.5c-3.8-0.5-7.3-2.8-11.2-1.7c-0.4,4.5,1.3,8.9,2.3,13.2c-2.9-0.5-5.9-0.9-8.9-0.3
		c-0.2,0-0.7,0-1,0.1c0.4,1.6,0.8,3.3,1.2,4.9c-0.5,3.1,0.1,6.3,0.6,9.4c-4.7,4.9-11.1,7.1-17,10.2c0,0.3-0.1,0.9-0.1,1.3l-0.1,0.8
		c-0.1,4.4,2,9.2,5.7,11.7c0.1,0.2,0.3,0.7,0.4,0.9c-0.8,1.7-1,4.2-3,4.8c-3.5,1.4-7.3,2.2-10.6,3.9l0.3,0.9c0.3,1,0.7,1.9,1.1,2.9
		c-0.6,3,1.2,5.6,2.5,8.1c2.8,4.9,5.1,10.1,7.8,15c1.1,2,1.8,4.1,2.3,6.3c-2.8,0.1-5.6,0.3-8.3,1c2.8,0.4,5.7,0.7,8.6,0.6
		c-2.6,0.3-5.2,0.4-7.8,0.4c0.1,0.9,0.3,2.6,0.4,3.5c-0.5-1.1-1-2.2-1.5-3.2c-0.3,6.2,2.3,12.1,2.3,18.3c-2.7-1.9-5-4.6-8.4-5.2
		c-1-0.3-2.1-0.6-3.2-0.7l-1.2-0.2c0.1,4.2,3.1,7.5,5,11.1c-5.9,0.1-10.8-4.1-16.6-4c-0.7,3.6-0.2,7.3,0.3,10.9
		c0.5,4.3,0,8.5-0.8,12.7c-2.1-0.6-4.4-2.1-6.5-0.9c-0.2,0.1-0.5,0.2-0.7,0.3c-0.6,2.8,0.5,7-2.3,8.6c-3.2-1.6-5.5-4.4-8-6.7
		c-0.1,0.2-0.4,0.5-0.5,0.6c-0.3,0.4-1,1.1-1.4,1.5c-0.6,5.9,0.5,11.7,0.3,17.6c-0.2,3.2-3.4,4.6-5.5,6.4c-1,6.3,0.6,12.6-0.4,18.9
		c-6.1-3.2-11-7.9-15.8-12.8c-1.4-1.7-3.5-2.1-5.6-2.1c-1.9,6.7,2.3,13.1,1.4,19.8c-1.6,6.5-7,10.7-11.7,14.9
		c-0.5,0.5-0.9,1-1.4,1.6c-0.3,0.1-0.9,0.4-1.1,0.5c0,13.1,0.7,26.3-1.4,39.3c-4.4-3.6-6.2-9.8-11.6-12.2c-0.3-0.2-1-0.6-1.3-0.8
		c2,5.8,4.1,11.5,6.5,17.1c5.4,13.8,12,27.2,17,41.1c-3.6-0.5-6.5-2.8-9.4-4.7c-4-2.9-7.9-5.8-11.7-8.8c1.3,6.6,3.1,13.3,2.3,20.1
		c-1.4,0-2.7-0.3-4-0.9c-6.9-3.1-14-5.8-20.9-8.7c-0.2,0.7-0.5,2-0.7,2.7c-0.1-0.6-0.4-1.8-0.5-2.4c-1.7,3.5-2.8,7.6-5.8,10.2
		c-1.9,1.5-4.1,0-5.9-1c-6.4-4.5-14.6-4.5-22-4.7c-6.9,0.2-14.1-0.5-20.6,2.3c-3,4-3.1,9.5-6.4,13.3c-1.6-1-3.2-2-4.9-3
		c-3.9-7.2-7.2-14.7-9.8-22.4c-0.1,0.5-0.3,1.5-0.4,2.1c-0.4,0-1.3,0.1-1.7,0.1c-0.1,5.8,0.7,11.7,0.4,17.5c-5-2.4-9.2-6-13.6-9.2
		c-2-1.6-4.6-2-7.1-2.3c-0.9,2.6-1.1,5.4-1.2,8.1c-5.6-5.9-10-12.7-15.8-18.3l-0.4,1c-1.5,3.4-1.3,7.3-2.1,10.9
		c-6-13.3-11.9-26.6-17.9-39.8c-0.3-0.1-0.8-0.4-1.1-0.5c-1.5-0.6-2.9-1.4-3.7-2.9c-5-7.9-10.2-15.7-15.2-23.6
		c-0.7-1.2-1.6-2.2-3.1-2.3c-1.9,1.3-3.8,2.5-5.7,3.8c-1.6-2.2-2.6-4.6-3.7-7c-4.4-8.9-9.2-17.5-13.8-26.3c-0.6-1.1-1.3-2.1-2.1-3
		c-3.9,2.3-3.4,7.8-5.8,11.3c-1.9-0.9-3.8-1.9-5.9-1.8c-0.9,0.6-1.7,1.3-2.6,2c-0.5,0.5-1.5,1.4-2,1.8c-0.7,6,0.9,12,1.2,18
		c2.3,15.7,4.1,31.5,6.4,47.2c0.3,1-0.1,2.6-1.4,2.6c-2.7,0.1-5.2-1.3-7.8-1.8c-0.6,0.3-1.6,0.7-2.2,1c-0.1,0.1-0.4,0.2-0.6,0.3
		c-0.4,0.2-1.1,0.6-1.5,0.8c-0.2,8.5,0.2,16.9-0.1,25.4c-1.1,0-2.2,0-3.4-0.1c-0.2-0.2-0.5-0.5-0.7-0.7c-0.3-1.4-0.3-3-1.5-4
		c-3-3.1-5.8-6.4-8.4-9.8l-0.5,1c-1.5,3-1.2,6.4-1.8,9.6c-0.4,5-1.1,10-1.5,15.1l-0.9,0c-6.5-13-11.7-26.5-17.8-39.7
		C11,665.1,6.8,654,5.9,642.3c-1.3-13.2-2.6-26.5-4-39.7c-0.6-7.7-1.5-15.4-1.9-23.1v-5.1c0-0.5,0.1-1.6,0.2-2.1
		c1-1.3,2.2-2.5,2.1-4.2c2.4-22.9,5.4-45.8,9.4-68.5c0.7-4.4,1.8-9,0.6-13.5c5.4-37.7,18.3-73.8,31.4-109.4c2.6-5.2,4.5-10.7,6.8-16
		c1.4-3.1,2.6-6.3,3.8-9.5c0.8-1.6,1.7-3.2,2.4-4.9c4.9-1.4,9.9-0.9,14.9-1.1c3.3,3.6,6.7,7.2,10.3,10.4c5.7-2.2,10-6.6,15.3-9.4
		c4.5-0.5,9.1,0.6,13.6,0.1c5-2.5,8.8-7,13.5-10c4.1-0.6,8.3,0,12.4-0.2c-0.1,1.7,0.2,3.4-0.3,5.1c-2,1.7-4.5,2.7-6.6,4.4
		c1,3.5,6.7,4.1,5.8,8.5c-2.7,0.8-6.6,0.5-7.7,3.7c-0.1,3,1.5,5.7,2.1,8.6c-4.5,0.6-9.5,0.2-13.3,3.1c-2.5,2.3-6,0.2-8.8,1.3
		c-1.8,1.5-2.7,3.8-4,5.7c-0.8-0.5-1.6-1-2.4-1.5c-0.8-2.6-1.9-5.1-3-7.5c-0.2,0.4-0.6,1.3-0.8,1.7c-2.6,3.6,0,8.1-1.8,11.9
		c-2.6-2.3-2.6-6.1-4.5-8.9c-4.7-7-14.3-9.9-22.2-7c-5.8,1.4-9.8,6-14.1,9.8c-3.7,3.5-3.9,9-5.7,13.4c-2.4,3.5-6.5,5.5-8.5,9.3
		c-4,7.4-4.8,15.9-6.2,24c-2.5,11.2-7.1,21.8-11.3,32.4c-2.6,6-3,12.6-6,18.4c0.4,0.1,1,0.4,1.4,0.5c3.4,1.4,7,2.8,10.7,2
		c2.5-1.6,3.2-4.7,4.5-7.2c1.4-3.4,6-4.2,7-7.9c2.4-6.6,5.9-12.6,9.4-18.6c2.2-3.7,3.9-7.9,7-11c0.2,3.5,0.1,7,0.1,10.4
		c-0.1,5.4,1.7,10.6,1.8,16c0.6,14.3-3,28.2-6.2,41.9c4.4-4.2,7.8-9.6,13.3-12.4c4-2.1,8.2-3.6,12-6c2.4-1.4,4.7-3.5,7.7-3.2
		c0.2,2.4,1.1,5.2-0.6,7.3c-1.9,2.7-4.6,4.7-6.9,7.1c3.9,4.3,3.8,10.2,4.6,15.6c2.1-6.2,2.5-14.1,9-17.6c-1.4,10.1-3.3,20.2-5,30.3
		c-1.3,7.5-3.3,15.3-0.9,22.8c1.4-0.3,2.9-0.6,4.3-1c2,0.2,5.2-1.2,6.3,1.2c2.2,5,2.5,10.5,4.3,15.7c0.3-0.1,1-0.2,1.3-0.2
		c0.8-0.6,1.4-1.4,1.6-2.4c2-6.8,1.7-14,0.9-21c-0.9-8.6-1.5-17.3-3.5-25.8c-0.7-3.2-2.1-6.2-2.7-9.4c0.5-2.7,3.5-3.3,5.4-4.6
		c3.3,0.3,4.4,3.8,4,6.7c-0.6,4.7,0,9.4,0.3,14.1c2-7.8,4.6-15.5,6.1-23.4c2.3-9.6,3.2-19.5,6-29c1-4.1,4.6-6.9,6-10.9
		c1.1-2.4,1.6-5.6,4.1-7.1c1.4-0.9,3-0.1,4.3,0.4c-0.5,3.6-2.3,6.7-4.6,9.5c-5.1,6.2-7,14.3-7.9,22.1c0,0.3-0.1,1-0.1,1.3
		c6.5-1.8,10.6-7.9,16.3-11.1c-2.2,6.4-5.1,12.6-6.4,19.3c-0.2,1.1,0.1,2.1,0.7,3.1c0.2,0.4,0.6,1.1,0.8,1.5c0,0.4-0.1,1.1-0.1,1.5
		c1.9-1.2,3.9-2.5,5.4-4.3c3.2-3.3,1.7-8.2,2.3-12.3c2.3,2.5,4,5.4,6.2,8c2.6,3.1,2.9,7.4,3.9,11.1c0.3-0.5,1-1.4,1.3-1.8
		c0.4,0.7,0.9,1.4,1.4,2.2c1.8-1.9,2.1-4.6,2.7-7c0.8,5.3-0.9,12,3.3,16.1c0.2,0.2,0.5,0.6,0.7,0.8c1-2.9,1.6-6,2.6-8.9
		c1.1-2.9,4.3-4.8,4.5-8c1.2-9.2-0.8-18.9,2.5-27.8c0.7-2.5,3.3-3.2,5.6-3.2c1.8,4.2,0.2,8.7-0.6,12.9c2.2-1.2,4.4-2.2,6.7-3.2
		c1-0.5,2.2-1,2.5-2.2c1.6-3.7,2.8-7.7,4.7-11.3c1-1.8,1.3-3.8,1.5-5.8c3.9-6.9,8.1-14,9.6-21.9c0-5-1.9-9.7-2.4-14.7
		c0.5,0.2,1.6,0.6,2.1,0.8c1,2.6,0.3,7,3.7,7.8c3-0.3,5.9-1.1,8.9-1.4c-0.2,3.7-0.3,7.9-2.9,10.9c-1.1,1.5-2.7,2.6-3.5,4.3
		c-0.6,3.4,0.9,6.6,1.9,9.8c2.5-6.5,5.2-13,8.4-19.2c2.7-4.6,1.1-10.2,1.9-15.2c3.4-0.4,7.6,0.7,8.6,4.4c2.1,8.4-5.4,15.9-3.4,24.2
		l0.1,0.9c3.3-1.3,3.5-5.4,5.1-8.1c2.8-5.5,3.4-12,6.6-17.3c1.9-3.9,5.7-6.7,6.3-11.2c-0.4,0-1.1,0.1-1.5,0.2
		c-0.2-0.6-0.7-1.8-0.9-2.4c-3.2,0-6.1,1.2-8.8,2.6c0.7-1.8,0.8-4.3,2.9-5.2c3.2-1.5,6.6-3.4,10.2-3.5c1.8,1.6,2.5,4,4,6
		c0.4-1.3,0.9-2.5,1.3-3.8c0.8-0.4,1.7-0.9,2.5-1.3c0.8,2.3,1.1,4.8,1.1,7.3c1.3,0.9,2.5,1.8,3.8,2.6c0.5,4.3-0.2,8.7-0.3,13
		c2-0.4,4.4-0.2,5.7-2.2c2.8-4.4,0.7-10.1,3.5-14.4c1.1-2.7,3.9-4.1,6.8-4c1.4,2,2.6,4.1,3.3,6.5c0.1-2.6,0.8-5.2,1.9-7.6
		c2.2,0,4.5,0.1,6.7,0.4c0.7,4.8-0.8,9.6,0.1,14.4c0.8,5,0.5,10.3,2.8,14.9c0.3,0.2,1,0.5,1.3,0.6c0.2,0.1,0.7,0.2,0.9,0.3
		c1-0.4,2.4-0.8,2.4-2.2c1-6.8,1-13.8,1.6-20.6c1.7-8.2,3.2-16.6,7.4-23.9c1.3,0.5,2.5,1,3.8,1.4c1.7,0.1,3.9,0.7,5.2-1
		c7-7.7,11.8-16.9,16.1-26.3c1.3,2,2.5,4,3.6,6.1c1.6-1,3.2-2,4.7-3c-1.3,3.4-2.6,6.8-3.9,10.2c0.4,0,1.3,0.1,1.7,0.1
		c4.3,0.4,8.2-1.6,11.9-3.3c0.8,5.8,2.5,11.3,4.9,16.6c0.4-0.7,0.8-1.4,1.2-2.1c0.1,0.6,0.3,1.7,0.4,2.2c2-4,3.6-8.6,8-10.7
		c0.3,0.3,0.8,0.9,1.1,1.2c0.1,0.7,0.3,2.2,0.5,2.9c2.8,1,6.1,0.5,8.5-1.3c3.5-5.6,1.2-12.5,2.5-18.6c1.3,2.2,2.5,4.4,3.8,6.5
		c0.3,0.1,0.9,0.3,1.1,0.3c0.3,0.1,0.8,0.2,1,0.3c-0.1-4.8,0.4-9.6-0.2-14.3c-1-3.3-2.6-6.4-4.8-9l-1-0.3c-3.6,2.9-6.5,6.5-10.5,8.9
		c0.1-3,0-6-0.2-9c-3.5-1-7.4,0.4-10.8-1.4c3.5-4.3,8.2-8.2,8.9-14.1c-0.4,0-1.2,0-1.6,0c-2.7-0.2-4.4,2.1-6.4,3.5
		c-2.3,2-5.3,2.8-8.1,3.7l-1.9,0.1c-0.2-6.2,2-12.1,1.6-18.3l0.1-0.8c-1.1,0.4-3,0.2-3.4,1.6c-2.8,7.2-4,15-5.1,22.7
		c-0.7,3.7,0.8,8.7-2.8,11.3c-0.4-6,0.5-12-0.5-17.9l-1.2-0.4l-0.3-0.1c-0.3-0.1-1-0.2-1.3-0.3c-4.7,4.2-7.9,9.8-11.3,15
		c-1.7-1.9-0.9-4.6,0-6.6c1.7-3.5,5.6-5.1,7.8-8.3c1.1-2,0.3-4.3,0.2-6.4c-2.3,0.1-4.7,0.1-7,0.2c1.7-2.5,3.5-4.9,5.3-7.3
		c2.2-2.9,3.1-6.5,4.2-10c1.1-3.8,2.9-7.6,2.3-11.7c-2-0.5-4.3-0.2-5.7,1.4c-3.6,3.6-4.3,9-6.8,13.3c-2.5,3.1-6,5.6-7.2,9.6
		c-1.7,5.3-5.2,10-9.8,13.1c0-3.5,2.7-7.1,1.1-10.4c-4.3-0.2-8.8,2.2-12.9,0.2c-1.9-1-4.4-1.8-5-4c2.1-2.6,0.6-5.8,0.6-8.7
		c0.8-2.8,3.4-4.7,5.2-6.9c-2.8,0.3-5.5,1.1-8.2,1.8c-0.6,0-1.9-0.1-2.5-0.2c-1.1-3.5-1.5-8-4.9-10.1c-4.4,0.1-8.8,0.7-13.2,1
		c-0.6,4.7,2.9,9.7,0.6,13.9c-4.8,1.7-10.6,1-14.6,4.7c-1.7,1.5-0.6,4.1-0.5,6.1c-4.4-1.1-8.8-0.5-12.9,1.2c1,0.9,2.1,1.7,3.2,2.6
		c-1.8,1.1-3.8,1.8-5.9,1.7c-3,0.4-3.6-3.7-6.4-4.3c-9-4.9-19.1,0-28.5-0.7c0-2.1,1-4.6-0.3-6.5c-1.7-1.5-4-1.8-6.1-2.5
		c1.5-0.9,3.1-1.9,4.6-2.8c-10.9-1.2-21.4,4.1-29.4,11c-6.1,5.1-11,12.2-18.8,14.7c-0.2-2.3-0.4-4.6-0.5-6.8
		c6.5-3.5,14.2-5.2,19.6-10.6c5.9-5.4,12.6-9.8,19-14.6c-4.3-3.1-9.7-4.3-13.9-7.6c8.8-4.6,18-8.2,27.3-11.6
		c1.1-5.1-3.2-8.7-4.5-13.2c8.5-2.3,17.4-2.8,26.1-3.9c-3.4-5.8-10.5-8.2-14.2-13.8c9.7-1,19.4,0.3,29.2-0.1
		c3.7-1.7,2.8-8.2,7.2-9.1c2.9-0.8,5.9-1.3,8.7-2.5c-0.7-2.2-1.3-4.4-1.8-6.6c9.7-5,19.8-9.3,29.3-14.8c5.1-2.1,10.9-1,16.2-2.6
		c1.2,0.6,2.5,1.1,3.8,1.6c3.1,2.3,6.7,3.9,10.6,3.9c8.2,0,17.2,0.8,24.3-4.3c2-1.9,3.3-4.5,5-6.7c4.3-6.2,11.1-10.2,15-16.7
		c0.2-0.3,0.7-0.8,0.9-1.1c0.4-3.8,1.2-8-0.6-11.5c-1.9-3.8-2.6-8.2-5.3-11.6c-2.6-3.5-5.4-6.8-7.7-10.5c-3.4-5.2-9.1-8.3-13.1-13
		c0-0.8,0-2.3,0-3c1.2-0.5,2.3-1,3.5-1.5c-1-6-7.8-8.9-8.9-14.9c3.5,0,7.1,0,10.6-0.1c-0.4-2.8-0.9-5.7-1.3-8.5
		c9,3.6,17.1,8.9,26.1,12.4c2,0.6,3-1.8,4.2-3c4.4,0.4,8.7,1.5,13.2,1.4c-0.8-2.3-1.7-4.7-2.5-7c4.7,1.1,9,3.5,13.5,5.3
		c2.9,1.1,5.8,2.9,9.1,2.6c8.1-4.3,15.6-11.2,25.4-11.1c5.6,1.7,10.9,4.5,16.6,6c4.9-2.1,8.3-8,14.2-7.2c6,0,12,0,18.1,0
		c1.3-2,2.7-4,4.1-6c7.1,2.1,13.9,5.3,21,7.3c0.9-3.5,1.4-7.1,1.7-10.7c3.6,1.9,7,4.3,10.5,6.5c1.2-2.7,1.3-5.7,1.6-8.7
		c2.7-0.1,5.5-0.1,8.2-0.2C510.3,95.8,504.5,88.8,505.2,80.1 M425.4,314.3c-1,5.5,1.7,10.5,4,15.3c0.5,1,1.1,2.1,2.2,2.5
		c0.8-6.3-0.9-12.6-3.5-18.3C427.3,312.8,426.2,314.1,425.4,314.3 M396.6,332c-0.2,7.2-2.1,14-4.1,20.9c-1.3,4.1,0.5,8.9,4.4,10.8
		c2.5-1.4,4.4-3.8,4.6-6.8c0.3-4.2,0.5-8.4-0.1-12.5C400.2,340.2,398.5,336,396.6,332z"/>
	<path fill="#998968" d="M269.6,144.7c7.7-4.6,16.9-2.7,25.4-3.8c5.3-0.6,10.6,1.4,15.9,0.7c4-0.5,8.2-0.8,12.2,0.2
		c0.4,0.7,0.9,1.4,1.3,2.2c4,4.7,9.7,7.8,13.1,13c2.3,3.7,5.2,7,7.7,10.5c2.6,3.4,3.4,7.8,5.3,11.6c1.9,3.6,1,7.7,0.6,11.5
		c-0.2,0.3-0.7,0.8-0.9,1.1c1.6-3.6,0.8-7.6,0.7-11.3l-0.5-0.6c-2.2-2.1-4.7-4.3-5.9-7.2c-2-4.4-6.1-7.4-8.7-11.5
		c-2.2-3.5-5.6-5.7-8.7-8.3c-1.7-1.6-2.9-3.8-5.1-4.9c-4.8-1.7-9.9,0.5-14.9-0.3c-7-1.2-14.1-0.1-21.2-0.1
		c-4.6,0.2-9.7,1.1-12.9,4.6c0,3.6,0,7.3-0.6,10.9c-2,10.9,0.3,22.4,5.3,32.3c1.3,2.7,3.8,4.5,6.2,6.2c2,1.6,3.8,3.3,5.9,4.8
		c3.1,2.1,6.7,3.1,9.8,5c1.7,0.9,3.2,2.3,5.2,2.4c6,0.8,12,1.4,17.9,2.5c-4.2,2.4-9.2,1.1-13.8,1.5c-4.7,0.4-9.1-1.1-13.6-2.1
		c-1.3-0.6-2.5-1.1-3.8-1.6c-5.8-2.7-10.5-7.1-15.3-11.2c-3.5-3-5-7.4-6.5-11.6c-3-8.4-4.4-17.3-3.8-26.2c0.6-4.3,1.1-8.6,1.1-13
		C267.4,149.4,267,146.1,269.6,144.7z"/>
	<path fill="#362224" d="M273.1,152.1c3.2-3.6,8.3-4.4,12.9-4.6c7.1,0,14.1-1.1,21.2,0.1c4.9,0.8,10-1.4,14.9,0.3
		c2.1,1.1,3.3,3.4,5.1,4.9c-13-0.7-26-0.1-39-0.4c-3.8-0.3-7.2,1.5-10.6,3c-1.1,8.5-2.2,17.1-1.3,25.6c0.9,7.4,6.1,13.3,7.9,20.4
		c-2.4-1.6-4.9-3.4-6.2-6.2c-5-9.8-7.3-21.3-5.3-32.3C273,159.4,273,155.8,273.1,152.1z"/>
	<path d="M277.4,155.5c3.4-1.5,6.8-3.3,10.6-3c13,0.3,26-0.3,39,0.4c3.1,2.6,6.6,4.8,8.7,8.3c2.6,4.1,6.6,7.1,8.7,11.5
		c1.2,2.9,3.7,5,5.9,7.2c0.1,2.6,0.1,5.1-0.3,7.7c-1.8-1.1-4.2-2.1-6-0.4c-3.1,3.5-3.9,8.5-7,12c-3.1,2.7-6.9,4.3-9.7,7.3
		c-1.7,1.5-3,4-5.5,4.1c-3.6,0.3-7.3,0.1-10.9,0.1c-7.3,0-13.6-5.2-21-4.3c-2.1-1.5-3.9-3.2-5.9-4.8c-1.8-7.1-7.1-12.9-7.9-20.4
		C275.2,172.6,276.3,164,277.4,155.5 M291.1,156.1c-3.1,3.8-3.4,9.2-3.4,13.9c-0.2,2.3,2.5,2.9,4,3.9c-1.1,3.7-1.8,8.4,0.8,11.7
		c2.3,3.3,6.4,4.5,10.1,5.7c0-2.3,0-4.7,0-7c2.3,0.2,4.5,0.2,6.8,0.2c-0.1-5.6-0.1-11.3,0-16.9c0.3,0.4,0.9,1.2,1.2,1.6
		c0.3,3.9-0.1,7.9,0.2,11.8c2.6-2.4,2.9-7.9,7.4-7.7c4.7,0.3,5.6,5.7,7.8,8.9c1.4-5.2,3-10.8,1.2-16.1c-1.2-5.1-6.3-8.4-11.4-8.6
		c-1.7,0-3.4,0-5.1,0c-0.4,0-0.9,0-1.3,0c-3.6,0.1-7.2-0.1-10.8,0.1c0.1-0.3,0.3-0.8,0.3-1c0.8,0,2.3-0.1,3-0.2l-0.3-1.3
		C298,154.7,294.2,154.4,291.1,156.1z"/>
	<path d="M507.5,155.6c1.6-2.1,4.5-1.3,6.7-0.8c5.6,1.9,11.1,4,16.6,5.9c9.3,3.7,18.7,7.1,28.2,9.9c11.8,2.7,24.1,2.6,35.9,5.4
		c5.5,1.3,11.2,2.8,15.9,6.2c3.2,2.8,5.5,6.5,8.5,9.5c2.4,2.9,5.5,5.5,6.5,9.2c0,5.7-3.9,11.7-9.8,12.8c-3,0.3-6-0.6-8.9-1.3
		c-7.9-2.1-16-2.7-24.1-3.1c-18.2-0.6-36,3.9-53.7,7.3c-3.2,0.6-6.4,1.1-9.6,1.5c-12.2,1.2-24.5,2.4-36.8,2.8
		c-16.6,1.4-33.3-1-49.9-2.4c-3.2-0.2-6.4-1.1-9.4-2.1c-0.3-2.6-0.8-5.3-0.1-7.9c1.3-1.6,3.4-2,5.2-2.6c8.3-2.3,16.7-4.1,25.2-5.2
		c7.7-1.1,15.7-1.3,23.1-4c4.4-1.2,9.1-2.9,12.1-6.5c3.3-4.2,1.1-10,3.7-14.4c1.3-2.3,3.1-4.2,4.6-6.3
		C501,164.9,503.7,159.8,507.5,155.6 M499.4,170.5c-2,2.4-4.8,4.4-5.5,7.6c-1.5,4.5-1.7,9.5-4.4,13.5c-2,2.6-4.8,4.4-7.1,6.6
		c17.2-3.5,34.3-7.8,51.5-11.3c2.7-0.6,5.4-1.2,8.1-1.2c15.2,0.2,30.7-0.1,45.3,4.7c4.4,1.5,8.8,2.7,13.4,3.1
		c5.7,2.4,8.1,8.8,13.2,12c2.9-2,2.9-6.6,0.5-9c-3.3-3.9-4.7-9-7.9-13c-3.1-2.8-7.4-3.6-11.3-4.8c-12-3.9-24.7-3.8-37.1-4.2
		c-6.1-0.9-11.9-3.3-17.1-6.5c-9.3-4.7-19.5-7.5-29.1-11.4C507.6,161,503.5,165.7,499.4,170.5z"/>
	<path d="M94.2,157.6c0.3-0.1,0.8-0.4,1.1-0.5c-3.7,5.9-6.5,12.3-9.4,18.6l-0.3-0.8C88.3,169.1,91.3,163.4,94.2,157.6z"/>
	<path fill="#302235" d="M291.1,156.1c3.1-1.7,6.9-1.4,10.3-1.1l0.3,1.3c-0.8,0-2.3,0.1-3,0.2c-0.1,0.3-0.3,0.8-0.3,1
		c-0.6,1.8-1.3,3.6-2.1,5.4c-1.8,3.5-3.3,7.2-4.6,10.9c-1.6-0.9-4.2-1.5-4-3.9C287.7,165.3,288,159.9,291.1,156.1z"/>
	<path fill="#302235" d="M439.8,999.1c5.1,2.3,10.4,4,15.5,6.3C450,1003.8,444.7,1001.7,439.8,999.1z"/>
	<path fill="#211E2F" d="M309.3,157.4c0.4,0,0.9,0,1.3,0c-0.1,3.2-0.3,6.4,0.1,9.6c0.9,1.8,3.1,2.1,4.6,3c0.2-4.2,0.1-8.5,0.4-12.7
		c5.1,0.1,10.1,3.5,11.4,8.6c1.9,5.3,0.2,10.9-1.2,16.1c-2.2-3.2-3.1-8.6-7.8-8.9c-4.5-0.2-4.8,5.4-7.4,7.7
		c-0.3-3.9,0.1-7.9-0.2-11.8c-0.3-0.4-0.9-1.2-1.2-1.6C309.3,164.1,309.3,160.8,309.3,157.4z"/>
	<path fill="#4E476F" d="M499.4,170.5c4.1-4.8,8.2-9.5,12.5-14c9.6,3.9,19.8,6.7,29.1,11.4c5.2,3.3,11,5.6,17.1,6.5
		c12.4,0.5,25.2,0.3,37.1,4.2c3.9,1.2,8.2,2,11.3,4.8c3.2,4,4.6,9.1,7.9,13c2.4,2.4,2.4,7-0.5,9c-5.1-3.2-7.5-9.6-13.2-12
		c-4.6-0.4-9-1.7-13.4-3.1c-14.6-4.8-30.2-4.4-45.3-4.7c-2.8,0-5.5,0.6-8.1,1.2c-17.2,3.6-34.3,7.9-51.5,11.3
		c2.3-2.2,5.1-4.1,7.1-6.6c2.7-4,2.9-9,4.4-13.5C494.6,174.9,497.4,172.9,499.4,170.5 M494.9,182.7c-0.1,2.5-2,6.4,0.9,7.9
		c6-0.7,11.7-2.7,17.6-4c3.7-1,7.5-1.6,11-3.3c1-0.4,1.6-1.2,1.7-2.4C515.7,180.7,505.4,184.8,494.9,182.7z"/>
	<path fill="#FEFDF6" d="M296.4,162.9c0.8-1.8,1.4-3.6,2.1-5.4c3.6-0.2,7.2,0,10.8-0.1c0,3.3,0,6.7,0,10c0,5.7-0.1,11.3,0,16.9
		c-2.3,0-4.5,0-6.8-0.2c1.7-0.7,3.4-1.3,5-1.9c0.5-7.4,0.5-14.8,0.1-22.1c-2.3-1.2-4.8-1.4-7.3-1.1
		C299.1,160.5,297.8,161.8,296.4,162.9z"/>
	<path fill="#414060" d="M310.5,157.5c1.7,0,3.4,0,5.1,0c-0.2,4.2-0.2,8.5-0.4,12.7c-1.6-0.9-3.8-1.3-4.6-3
		C310.2,163.9,310.5,160.7,310.5,157.5z"/>
	<path fill="#FEFADF" d="M296.4,162.9c1.4-1.2,2.8-2.4,4-3.8c2.5-0.4,5-0.1,7.3,1.1c0.4,7.4,0.5,14.8-0.1,22.1
		c-1.7,0.6-3.4,1.2-5,1.9c-0.1,2.3,0,4.7,0,7c-3.6-1.2-7.7-2.4-10.1-5.7c-2.6-3.3-1.9-7.9-0.8-11.7
		C293,170.1,294.5,166.5,296.4,162.9z"/>
	<path fill="#382126" d="M350.4,179.8l0.5,0.6c0.1,3.7,0.9,7.8-0.7,11.3c-5.2,3.7-8.4,9.7-14.7,11.9c-2.2,3.6-3.8,7.5-5.9,11.1
		c-2.1,1.2-4.6,1.1-6.9,1.4c-5.9-1.1-11.9-1.7-17.9-2.5c-2-0.1-3.6-1.5-5.2-2.4c-3.1-1.9-6.8-3-9.8-5c7.4-0.9,13.7,4.3,21,4.3
		c3.6,0.1,7.3,0.3,10.9-0.1c2.5-0.1,3.8-2.6,5.5-4.1c2.7-3,6.6-4.7,9.7-7.3c3.1-3.5,3.9-8.5,7-12c1.8-1.7,4.2-0.6,6,0.4
		C350.4,184.9,350.5,182.4,350.4,179.8z"/>
	<path fill="#010005" d="M494.9,182.7c10.5,2.1,20.7-2,31.2-1.8c-0.1,1.2-0.7,2-1.7,2.4c-3.5,1.7-7.3,2.3-11,3.3
		c-5.8,1.3-11.6,3.3-17.6,4C493,189.1,494.8,185.2,494.9,182.7z"/>
	<path fill="#BC614D" d="M335.6,203.7c6.2-2.2,9.5-8.3,14.7-11.9c-3.9,6.6-10.8,10.5-15,16.7c-1.7,2.2-3,4.8-5,6.7
		c-7.1,5-16.1,4.3-24.3,4.3c-3.9,0-7.5-1.6-10.6-3.9c4.5,1,9,2.4,13.6,2.1c4.6-0.4,9.6,0.9,13.8-1.5c2.3-0.3,4.8-0.2,6.9-1.4
		C331.8,211.1,333.4,207.2,335.6,203.7z"/>
	<path fill="#B74135" d="M456.9,198.9c6.7-0.6,13.4-2.7,20.1-2.3c-7.4,2.7-15.4,2.9-23.1,4c-8.5,1.1-16.9,2.9-25.2,5.2
		c-1.8,0.6-3.9,1-5.2,2.6c-0.7,2.6-0.2,5.3,0.1,7.9c3,1.1,6.2,1.9,9.4,2.1c16.6,1.4,33.2,3.8,49.9,2.4c12.3-0.4,24.6-1.6,36.8-2.8
		l1.1,0.9c-9.5,2-19.2,2-28.8,2.9c-9,1.2-18,0.5-27,0.7c-7.8,0.3-15.4-1.5-23.1-1.9c-6.1-0.2-12.2-1.1-18-2.7c-3.3-1.6-2.8-6-2.1-9
		c0.4-2.7,3.3-3.4,5.6-4.2C437.1,202.1,446.9,199.8,456.9,198.9z"/>
	<path fill="#CB4E25" d="M519.7,218.1c3.2-0.5,6.4-1,9.6-1.5c0,4.9-0.2,9.9-0.2,14.8c-0.2,13.9-1.6,27.8-0.7,41.7
		c-0.6-1-1.4-1.9-1.5-3.1c0.3-17,0.8-34,0.2-51c-2.1-0.1-4.3,0-6.4,0L519.7,218.1z"/>
	<path fill="#FF7F00" d="M498.5,228.1c1.9-0.4,3.9-0.8,5.9-0.8c0.4,2,0.9,4.1,1.3,6.1c4.5,2.1,9.3-0.9,13.8,1
		c0.1,11.8-0.1,23.7,0.1,35.5c0.3,3.6,0.3,7.7,3,10.4c3.7,3.8,7.5,7.5,11.9,10.5c0,4.6-0.7,9.4,1.1,13.9c1,3.2,4.8,3.4,6.9,5.6
		c-1.3,1.8-2.8,3.5-3,5.8c0,2.3,0.1,4.6,0.2,6.9c0,0.4,0,1.1,0,1.4c0,2-0.1,4.1-0.2,6.1c-1.6-0.2-3.3-0.2-4.9,0
		c0.1,1,0.2,2.1,0.3,3.1c-0.1,1.5-0.4,3.1-0.8,4.6c-0.7,1.7-1.7,4,0.5,5.1c-1.2,1.2-2.5,2.3-3.6,3.6c-1.2-0.7-2.3-0.5-3.2,0.6
		c-5.2-0.2-10.4-0.2-15.6,0.1c-2.4,0.4-5.1,0.3-6.8,2.3c-0.6,0.7-1.1,1.5-1.7,2.2c-2.1-0.1-4.3,0.1-6.3,0.7c-3,0.6-6.6,2.6-6.1,6.2
		c-2.1-2-3-4.8-4.5-7.2c-2.5-3.5-6.5-5.5-10.3-7.2c0.8,4.5,2.4,8.8,2.1,13.4c-1.6-0.9-3.5-1.7-4-3.7c-1-2.9-3.3-4.8-5.6-6.6
		c-3.8-2.7-1.3-9.2-5.3-11.6c-1.6-4.1-0.6-8.9-3.2-12.7c-1.7-3.3-5.1-4.9-7.4-7.6c-1.2-1.9-0.9-4.3-0.8-6.4c0.5-0.2,1.4-0.6,1.9-0.8
		c0.6-0.1,1.7-0.2,2.3-0.3c0.6-1.3,1.1-2.6,1.6-3.9c2,0.7,4.3,0.8,5.9,2.4c2.9,2.8,3.8,6.9,5.5,10.3c1-5.7,1.3-11.5,0.9-17.3
		c-0.4-5.7-2.7-11.3-2-17c0.8-8.2,5.3-15.2,9.5-22c1.6-2.5,1.6-5.6,2.7-8.3c1.4-2.7,4.4-3.7,6.8-5.3c1.7-1,2.3-3,3.3-4.7
		C493.1,237.7,496,233,498.5,228.1z"/>
	<path fill="#FF7F00" d="M318.7,305.6c1.6-4.6,3-11.4,8.9-11.9c-1.4,5.1-2.8,10.2-4.8,15.1c-2.6,6.3-8.1,11-9.9,17.6
		c3.4-1.3,5.9-4.8,9.9-4.4c-0.1,1.6,0.1,3.4-0.6,4.9c-2.1,2.6-5.5,3.9-7.3,6.8c-2.2,3.2-2.1,7.4-0.6,10.9c1.3-0.2,3.1-0.2,3.5-1.9
		c2.5-5.7,6.9-10.2,10.7-15.1l0.3,0.1c-0.6,8.8,1.6,18.3-3.2,26.3c-4.2,9.4-9.1,18.6-16.1,26.3c-1.2,1.6-3.5,1.1-5.2,1
		c-1-2.4-2.1-4.8-3.3-7.1c-5.9,12.3-10.5,25.7-10.3,39.5c0,4.3-0.9,8.6-1.6,12.9c-0.2-0.1-0.7-0.2-0.9-0.3c-0.8-7.2-3-14.3-2.6-21.6
		c0.1-4.5,2.4-8.5,2.2-13c-0.1-4-1.9-7.7-3.6-11.3c-1.2,5.2-0.8,10.6-0.3,15.9c-2.2-0.2-4.5-0.3-6.7-0.4c-1.1,2.4-1.8,5-1.9,7.6
		c-0.7-2.4-1.9-4.5-3.3-6.5c-2.8-0.1-5.7,1.3-6.8,4c-2.9,4.4-0.8,10.1-3.5,14.4c-1.2,1.9-3.7,1.8-5.7,2.2c0.1-4.3,0.9-8.7,0.3-13
		c-1.3-0.9-2.5-1.8-3.8-2.6c0.1-2.5-0.3-4.9-1.1-7.3c-0.9,0.4-1.7,0.9-2.5,1.3c-1.8-1.3-3.5-2.8-5.1-4.5c-5.2,1.6-12.4,2.8-14.3,8.7
		c-0.8,1.5,0.5,3.5,2.2,3.6c2.3-0.8,4.6-1.7,7-2.2c-3.2,6.3-7.5,12.1-9.5,19c-0.2-3.6,0.4-8-2.5-10.7c-2.6-2.9-8.6-3.5-9.9,0.9
		c-0.3,5.1,0.7,10.6-2.5,15c-0.1-2.8,1.5-7.1-2-8.5c-2.8-0.5-5.5,0.8-8.3,1.3c-1.5-3.2-1.3-7.7-5.2-9.1c-1.1,1.2-3,2.4-2.4,4.3
		c1.1,5.3,3.4,10.8,1.6,16.2c-2.8,8.2-7.8,15.5-12,23c-2.3,4-3.4,8.6-5.1,12.9c-0.9,0.3-1.7,0.6-2.6,0.9c0.4-3.3,0.9-7.1-1.6-9.7
		c-2.3-1-5.8-1-6.9,1.7c-4.5,9.3-2.4,19.9-3.5,29.7c-2.4,3.3-3.9,7-5.8,10.5c-0.6-6.4-1-12.8-1.4-19.2c-0.1-1.5-0.4-2.9-1.1-4.2
		c-0.4-0.1-1.3-0.2-1.7-0.3c-0.2,0-0.6-0.1-0.7-0.1c0.4,7-1.1,13.9-1.6,20.8c-0.5-0.7-1-1.4-1.4-2.2c-0.8-3-1.3-6.2-2.7-9
		c-1.4-2.8-4.2-4.6-5.7-7.3c-1.1-2.6-1.3-5.5-1.7-8.3c-0.2-1.9-0.7-3.8-1.6-5.5c-6.6,1-10.6,7.1-16.3,10c0.1-3.5,1.6-6.6,2.6-9.9
		c1.8-6.4,8.6-10.2,9.1-17c-0.4-0.3-1.1-0.8-1.5-1.1c-1.4-0.4-3-1.3-4.3-0.4c-2.5,1.5-3,4.6-4.1,7.1c-1.3,4-4.9,6.8-6,10.9
		c-2.8,9.5-3.6,19.4-6,29c-1.5,7.9-4.1,15.6-6.1,23.4c-0.2-4.7-0.8-9.4-0.3-14.1c0.4-2.9-0.7-6.4-4-6.7c-1.9-0.3-4.4-0.6-5.5,1.4
		c-2.3,3.6,0,7.7,0.9,11.4c2.7,11.1,3.5,22.5,4.4,33.8c0.2,3.4-0.1,6.8-0.5,10.1c-1.7-0.9-1.9-2.8-2.3-4.4c-0.9-4.1-1-8.7-4-11.8
		c-3.2,2-6.4,4.3-10.1,5.1c-1.2-4.5-0.6-9.1,0.4-13.6c1.6-7.3,2.2-14.7,4-21.9c1.2-5.1,2.2-10.2,2.4-15.4c-1.3-0.4-2.9-1.5-4.2-0.3
		c-2.6,1.9-4.1,4.8-5.9,7.4c-1.2-1.8-2.2-3.7-2.8-5.8c2.4-2.3,6.1-4,6.7-7.6c0.6-2.1,0.5-4.3,0.1-6.4c-0.4,0-1.2,0-1.6,0
		c-3-0.2-5.3,1.8-7.7,3.2c-3.8,2.4-8,4-12,6c-5.5,2.8-8.9,8.2-13.3,12.4c3.2-13.8,6.8-27.7,6.2-41.9c-0.1-5.4-1.9-10.6-1.8-16
		c0-3.5,0.1-7-0.1-10.4c-3.1,3.1-4.8,7.3-7,11c-3.5,6-7,12-9.4,18.6c-1,3.7-5.6,4.5-7,7.9c-1.3,2.5-2,5.6-4.5,7.2
		c-3.7,0.8-7.3-0.6-10.7-2c3.2-3.6,2.3-8.9,4.1-13.2c4.8-13,11-25.7,13.6-39.5c1.6-8.3,2.3-17.4,7.7-24.3c1.7-2.4,4.6-3.4,6.5-5.5
		c2.2-5.4,2.3-12,7.1-16c4.9-4.1,10.3-9.2,17.2-8.8c6.9,0.2,15.2,3.5,16.8,11c0.7,3.4,3.1,6,6.2,7.6c1.8-2.9,1.1-6.4,1.3-9.7
		c1.1,3.1,1.5,6.6,3.4,9.3c0.1,0.2,0.4,0.6,0.5,0.8c1.4-4.4,1.9-9.9,6-12.7c2.1-0.1,4.3,0.2,6.4,0.3c1.7-1.3,3.2-2.9,5.2-3.5
		c3.6-0.9,7.4-0.3,10.9-1.5c-0.4-3-2.1-5.6-2.7-8.5c0.2-3.4,4.3-2.1,6.4-2.6c1.2-1.1,2.2-2.8,1.5-4.4c-0.7-3.5-4.4-4.7-7.2-6.2
		c2-1.7,4.6-2.6,6.6-4.4c0.5-1.7,0.2-3.4,0.3-5.1c0.2-0.6,0.7-2,0.9-2.6c2.1-0.7,4.3-1.4,6.4-2.1c7.8-2.6,12.8-9.6,18.8-14.7
		c8.1-6.9,18.5-12.2,29.4-11c-1.5,1-3,1.9-4.6,2.8c2,0.8,4.4,1.1,6.1,2.5c1.3,1.9,0.3,4.4,0.3,6.5c9.5,0.7,19.5-4.1,28.5,0.7
		c2.8,0.6,3.4,4.7,6.4,4.3c2.1,0,4.1-0.6,5.9-1.7c1.1-0.9,2.1-1.8,3.4-2.5c2.4-0.2,4.8,0,7.1,0c0.4-2.3,0.9-4.5,1.3-6.8
		c5.1-2.5,11.1-2.4,16.1-5.2c0.2,0.2,0.7,0.7,1,0.9c0.2,0.2,0.7,0.7,0.9,0.9c1.2,0.2,2.4,0.4,3.5,0.5c1,2.1,1,5.6,3.9,6
		c2.3,0.6,5.5,0.4,6.5-2.2c1.1-3.3,1.4-6.8,2.8-10c0.9,4.3-0.6,8.7,0.9,13c0.7,2.3,3.1,3.1,5,4c4.2,2,8.6-0.4,12.9-0.2
		c-1.7,5.1-3.4,10.2-4.3,15.5c3.8-3.2,7.8-6.4,10.8-10.4c2.2-2.8,3.2-6.3,4.7-9.4C312.9,311.3,318,310.1,318.7,305.6z"/>
	<path fill="#E03B21" d="M504.4,227.3l1.2,0.1c0.7,1.4,1.3,2.8,2.1,4.2c0.6,1.8,2.6,0.8,4,0.9c3.1-0.5,6.4-0.9,9.3,0.7
		c0.7,6.6,0.1,13.2,0.3,19.9c0.2,7.9-0.8,16.1,1.4,23.9c2.7,4,6.5,7.2,10.1,10.4c3.3,4.3,7,8.3,10.2,12.6c-2.4,1.6-4.8,3.3-7.2,4.8
		c-1.7-4.4-1.1-9.2-1.1-13.9c-4.4-3-8.2-6.7-11.9-10.5c-2.7-2.7-2.6-6.9-3-10.4c-0.2-11.8,0-23.7-0.1-35.5c-4.5-1.9-9.4,1.1-13.8-1
		C505.2,231.4,504.8,229.3,504.4,227.3z"/>
	<path fill="#D83B08" d="M495.4,230.3c0.6-1.2,1.8-1.8,3-2.2c-2.5,4.9-5.4,9.6-7.7,14.6c-0.9,1.6-1.6,3.6-3.3,4.7
		c-2.4,1.6-5.4,2.6-6.8,5.3c-1.1,2.7-1.1,5.8-2.7,8.3c-4.2,6.8-8.7,13.9-9.5,22c-0.7,5.8,1.6,11.3,2,17c0.4,5.8,0,11.6-0.9,17.3
		c-1.8-3.5-2.6-7.6-5.5-10.3c-1.6-1.6-3.9-1.8-5.9-2.4l-1-0.5c5-2.3,8.8,2.8,11.8,6c1.9-11.5-4.6-23.1-0.4-34.4
		c1.9-6.9,7.1-12.1,9.3-18.8c0.8-2.2,1.4-4.5,2.6-6.5c2.5-2.5,6.3-3.6,8.2-6.8C491.2,239.3,492.8,234.6,495.4,230.3z"/>
	<path fill="#D83B08" d="M322.9,293.9c1.4-1.7,3.6-2,5.7-1.4c0.6,4.1-1.2,7.9-2.3,11.7c-1.1,3.5-2,7.1-4.2,10
		c-1.8,2.4-3.7,4.8-5.3,7.3c2.3-0.1,4.7-0.1,7-0.2c0.1,2.1,0.9,4.4-0.2,6.4c-2.2,3.1-6.1,4.7-7.8,8.3c-0.9,2.1-1.8,4.7,0,6.6
		c3.4-5.2,6.6-10.7,11.3-15c0.3,0.1,1,0.2,1.3,0.3c-3.8,4.9-8.2,9.4-10.7,15.1c-0.4,1.6-2.1,1.7-3.5,1.9c-1.5-3.5-1.5-7.7,0.6-10.9
		c1.8-2.9,5.2-4.2,7.3-6.8c0.7-1.5,0.4-3.3,0.6-4.9c-3.9-0.5-6.5,3-9.9,4.4c1.8-6.6,7.3-11.4,9.9-17.6c2-4.9,3.4-10,4.8-15.1
		c-5.9,0.5-7.3,7.3-8.9,11.9c-0.7,4.4-5.8,5.7-7.4,9.6c-1.5,3.2-2.5,6.6-4.7,9.4c-3,4-7,7.1-10.8,10.4c1-5.3,2.6-10.4,4.3-15.5
		c1.6,3.3-1.1,6.9-1.1,10.4c4.6-3.1,8.1-7.8,9.8-13.1c1.2-4,4.7-6.5,7.2-9.6C318.6,302.9,319.3,297.5,322.9,293.9z"/>
	<path fill="#D83B08" d="M356.4,322.5c0.4,0,1.2,0,1.6,0c-0.7,5.9-5.3,9.8-8.9,14.1c3.4,1.8,7.2,0.4,10.8,1.4c0.2,3,0.3,6,0.2,9
		c4-2.4,6.9-6.1,10.5-8.9l1,0.3c-1.7,1.8-3.4,3.7-5.1,5.6c-3.7,3.1-6.7,6.9-10.6,9.7c0.8-5,3.4-9.6,3.2-14.8
		c-4.8,0.2-9.8,0.4-14.3-1.4c1.8-1.7,4-3,5.9-4.7C353.6,330,355,326.1,356.4,322.5z"/>
	<path fill="#D83B08" d="M129.9,345.8c2.7,1.5,6.5,2.7,7.2,6.2c0.7,1.7-0.3,3.3-1.5,4.4c-2.2,0.6-6.2-0.7-6.4,2.6
		c0.5,2.9,2.3,5.5,2.7,8.5c-3.5,1.2-7.3,0.6-10.9,1.5c-2,0.7-3.5,2.3-5.2,3.5c-2.1-0.2-4.3-0.5-6.4-0.3c-4.1,2.9-4.5,8.3-6,12.7
		c-0.1-0.2-0.4-0.6-0.5-0.8c-0.3-3-0.6-6.1-1.3-9c0.8,0.5,1.6,1,2.4,1.5c1.3-1.9,2.2-4.2,4-5.7c2.8-1.1,6.3,0.9,8.8-1.3
		c3.8-2.9,8.8-2.4,13.3-3.1c-0.6-2.9-2.2-5.6-2.1-8.6c1.1-3.2,5-2.9,7.7-3.7C136.6,349.9,130.8,349.3,129.9,345.8z"/>
	<path fill="#D83B08" d="M69.3,365.4c7.9-2.9,17.5,0,22.2,7c1.9,2.8,1.9,6.6,4.5,8.9c1.7-3.8-0.8-8.3,1.8-11.9
		c0.1,5,0,10.1,0.3,15.2c-3-1.5-5.4-4.2-6.2-7.6c-1.6-7.5-9.9-10.8-16.8-11c-6.9-0.5-12.3,4.7-17.2,8.8c-4.8,4-4.8,10.6-7.1,16
		c-2,2-4.9,3.1-6.5,5.5c-5.4,6.9-6.1,16-7.7,24.3c-2.6,13.8-8.7,26.4-13.6,39.5c-1.8,4.3-1,9.6-4.1,13.2c-0.3-0.1-1-0.4-1.4-0.5
		c3-5.8,3.4-12.4,6-18.4c4.3-10.6,8.9-21.2,11.3-32.4c1.5-8.1,2.2-16.6,6.2-24c2-3.8,6.1-5.8,8.5-9.3c1.8-4.5,2-9.9,5.7-13.4
		C59.5,371.4,63.5,366.8,69.3,365.4z"/>
	<path fill="#CE8F25" d="M529.2,231.4c4.8,2.1,9.2,5,13.3,8.4c11.2,9,21,19.5,30.9,29.8c27.4,29.9,53.8,60.9,81.1,91
		c25.6,27.9,48.7,57.9,69.8,89.3c22.7,33,43.8,67.1,67.6,99.3c16.9,22.4,34,44.7,47.9,69.2c7.2,12.8,14.1,26.1,17.4,40.5
		c1.4,8.7,6.6,15.9,10.5,23.6c10.7,20.1,22.2,39.9,30.9,60.9c8.8,20.8,17.8,41.6,25,63.1c-0.8,4.9,1,9.7,2,14.4
		c1.4,6.3,5.5,11.5,8.5,17.2c3.3,6.6,6.6,13.3,9.8,20c5.2,12.2,9.3,24.7,14.1,37c2.5,7,7,13.1,10.8,19.4
		c12,17.5,23.2,35.5,34.4,53.5c1.9,2.9,3.2,6.5,6.6,8c0.1,0.2,0.4,0.6,0.5,0.8c1.7,4.6,5.5,8.1,6.5,12.9c-6.8-2.9-13-7-19.6-10.4
		c-10.3-5.6-20.4-11.5-30-18.2c-1.3-0.8-2.8-1.5-4.2-2.1c-7.9-5-15.5-10.3-23-15.9c-3.9-3-7.9-6-10.7-10.1
		c-10.6-15.6-21.2-31.2-32.3-46.4c-0.3-3-2-5.4-3.8-7.6c0.5-0.4,1.4-1.2,1.8-1.5c14.5,12.4,29.4,24.3,42.6,38
		c0.4,0.4,0.9,0.8,1.4,1.1c0.5,0,1.4,0.1,1.9,0.2c-0.1-0.3-0.2-1-0.2-1.3c-0.1-1-0.3-2.9-0.4-3.9c5.2,6.2,10.9,12,15.2,18.9
		c7,11.1,14,22.2,20.2,33.8c-1.5-4.2-2.3-8.7-4.3-12.8c-3.4-5.6-7.1-11.2-9.2-17.5c5.1,5,8.5,11.4,13.1,16.8
		c-1.7-8.5-8.1-14.6-13.1-21.2c-7.2-9.1-14.5-18.2-21.4-27.5c-5.6-8.2-10.4-16.8-15.9-25.1c-10-15-19.1-30.6-30.2-44.9
		c-10.5-14.5-21.8-28.3-31.6-43.2c-17.1-25.3-35-50.1-50.9-76.2c-8.2-15.6-19.1-29.7-28-44.9c-3.1-5.1-6-10.7-11-14.2
		c-0.8,0.2-2.4,0.6-3.1,0.8c4.8,10.9,11.6,20.7,17.5,31c7,11.4,14,22.7,21.1,34c6.1,9.7,13.1,18.8,20.1,27.9
		c13.7,17.1,23.8,36.6,36.6,54.3c8.7,10,16.2,21,24.4,31.3c-0.9,1.4-2.5,1.4-3.9,1.3c-12.9-14.5-26.7-28.1-39.2-43
		c-14.7-17.3-29.6-34.4-44.1-51.9c-6.5-8.2-13.5-16.1-19.3-24.8c-8.9-12-19.1-23-28-35c-3.8-4.8-7.1-10.2-12.5-13.4
		c-1.2,0.1-2.4,0.3-3.6,0.6c5.5,9.8,12.9,18.4,19.5,27.4c8.6,11.4,17.5,22.5,26.2,33.8c10.8,13.9,24.2,25.7,35.3,39.3
		c0.9,7.3,9.3,10.6,10.6,17.9c-4.3-2.3-6.8-6.7-10.1-10c-3-3-5.8-6.2-8.7-9.4c-0.9-1.2-2.5-1.3-3.8-1.7
		c-16.5-17.7-33.3-35.2-48-54.4c-10.7-12.3-21.9-24.2-32.1-36.9c-3-2.7-6.4-8-11-5.6c2.6,5.3,6.7,9.6,10.3,14.2
		c11.7,14.6,24,28.7,36.1,43c13.4,16.2,30.1,29.2,43.6,45.4c6.7,7.6,13.3,15.3,20.2,22.8c-0.5,1.1-1,2.2-1.4,3.4
		c-9-8-18.4-15.5-27-24c-15.6-14.7-31.1-29.5-46.7-44.3c-9.3-9.4-19.1-18.3-27.6-28.5c-10.2-11.1-21.6-21.1-31.8-32.2
		c-3.8-3.9-7.3-8.2-12.2-10.9c-1.4-1.1-3.1,0.3-4.5,0.5c3.6,5.5,8.4,10.2,12.8,15.2c12.1,13.2,24.7,26,37.1,38.9
		c8.3,8.8,17.5,16.5,26.7,24.4c17.2,14,31.5,31.2,47.9,46c10.1,7.4,19.2,16.2,28.8,24.1c4.7,3.6,9.3,7.3,13.5,11.5
		c18.4,17.7,36.9,35.3,54.9,53.5c0.9,3.9,4.4,6.2,6.9,9c-0.5,0.2-1.6,0.7-2.2,1c-12.1-10.6-24.1-21.3-36.2-31.9
		c-14.7-12.3-28.9-25.3-44.5-36.5c-11.5-8.9-23.5-17.1-35-26.1c-25.8-21.1-52.4-41.5-77.3-63.7c-12-12.1-25.8-22.2-38.4-33.6
		c-4.8-4.2-9.3-9.3-15.4-11.6c-1.3,0-2.4,1-3.6,1.5c5.1,6,11,11.1,16.8,16.4c12.2,11.5,25,22.3,37.5,33.5
		c12.4,11.1,26.4,20.2,39.6,30.2c11.5,9.4,22.6,19.5,34.1,29c5,4.5,11,7.6,16.3,11.7c9.3,6.8,18.4,13.7,28.1,20
		c15.8,12.3,31.2,25.3,46.6,38.1c1.1,1.8,2.2,3.7,3.5,5.4c-2.3-1.2-4.8-2-7.3-2.6c-0.9-0.6-1.7-1.2-2.5-1.9
		c-2.6-2.8-6.2-4.5-9.3-6.6c-17.1-11.2-34.6-21.6-51.5-33.1c-4.5-3.2-9.8-5.3-14.3-8.6c-7.9-6.8-15.6-13.9-23.7-20.4
		c-10.2-8.7-21.7-15.6-32.7-23.2c-14.9-10.1-29.6-20.4-44.2-30.9c-9.6-6.7-19-13.5-28-21C638,696,614.9,677,591.2,658.9
		c-8.8-5-16.6-11.4-24.1-18.1c7.1,0.5,14.2,1.2,21.3,1.8c-2.8-3.6-5.8-6.8-8.5-10.4c7.1,1.6,14.1,3.5,21.2,5.2
		c-6.9-6.4-14.6-12-21.4-18.5c5.6,2.1,10.8,5.1,16.4,6.8c-11.9-9.1-24.3-17.6-36.4-26.5c9.9,1.4,19.7,3.3,29.6,4.7
		c-7.6-4.8-15.4-9.3-23.1-14c-3.4-2.2-7.3-3.9-10.4-6.6c7.5,1.1,14.9,2.4,22.4,3.6c-5.2-4.3-11.5-7.4-15.9-12.7
		c3-0.8,6.1-1.5,9.2-2.1c-17.6-13.7-36-26.4-52.8-41c9.2,2.3,18.3,5.3,27.5,7.9c-4.7-3.6-10.1-6.3-14.8-10.1
		c5.1,0.8,10.1,2.4,15.2,3.3c-10.7-7.6-22-14.4-32.8-21.9c-2.1-1.9-3.1-4.8-4.5-7.3c15.1,2.6,30.1,5.3,45.1,8
		c-12.5-6.4-25-13-37.1-20.2c-7.5-5.3-15.5-9.9-23.4-14.7c1.6-0.8,3.2-1.6,4.8-2.4c-7.5-4-15.5-7.3-22.6-12c0-0.2,0.1-0.6,0.1-0.9
		c20.4-1,40.8-0.7,61.2-1.2c-9.9-3.9-20.1-6.8-30.1-10.4c4.8-2.1,9.8-3.4,14.5-5.7c-13-1.4-26-3-39-4.7c-5.8-0.8-11.7-1.1-17.4-2.3
		c9.3-1,18.7,0.5,28-0.6c-9.9-4-19.9-8-30-11.4c-2.2-0.6-3.4-2.7-4.8-4.4c-3.9-5.3-7.8-10.5-11.3-16.1c6.1,0.8,12.1,1.4,18.2,2.3
		c-1.9-4.5-3.9-8.9-5.7-13.4c3.4,1.2,6.8,2.9,10.5,2.3c-1.4-6.8-4.8-13-7.7-19.2c3-2.2,7.2-2.8,9.4-6l-1.8-0.6
		c-0.1-2.9,0.2-5.8,0.5-8.6c3.7,2.8,6.7,6.5,10.8,8.8l-0.1-1.2c0.2-3.3-1-7.1,1-10.1c3,1.1,6.1,2,9.3,2.5l-0.5-1.5
		c-0.5-3.6,3.1-5.6,6.1-6.2c1.8,1.2,3.6,2.4,5.4,3.6c0.2-1.1,0.7-3.3,0.9-4.4c0.5-0.8,1.1-1.5,1.7-2.2c1.8,2.3,3.8,4.6,5.8,6.8
		c1.4-2.8,1.1-6,1-9.1c5.2-0.3,10.4-0.3,15.6-0.1c1.3,0.7,2.3,0.5,3.2-0.6c1.1-1.3,2.4-2.4,3.6-3.6c0.3-0.4,0.9-1,1.2-1.4
		c-0.6-1.3-1.1-2.5-1.7-3.8c0.4-1.5,0.6-3,0.8-4.6c4.4-1.4,8.9-2.3,13.3-3.7c-2.6-2.1-5.6-3.8-8.5-5.5c0-0.3,0-1.1,0-1.4
		c1.9-0.8,3.9-1.5,5.8-2.3c-1.9-1.6-3.9-3.2-6-4.6c0.2-2.3,1.7-4,3-5.8c-2-2.3-5.9-2.5-6.9-5.6c2.4-1.5,4.8-3.2,7.2-4.8
		c-3.2-4.4-6.9-8.4-10.2-12.6c1.8-0.4,3.6-0.8,5.4-1.1c-2.8-4.7-6.3-8.8-9.5-13.1C527.6,259.2,528.9,245.3,529.2,231.4z"/>
	<path fill="#DB3F0C" d="M259.1,292.6c4.4-0.3,8.8-1,13.2-1c3.5,2.2,3.8,6.6,4.9,10.1c0.6,0,1.9,0.1,2.5,0.2
		c-0.9,3.2-1.3,6.6-2.3,9.8c-1.8,2.4-5.3,1.7-7.6,0.5c0.1-1,0.4-2.9,0.5-3.8c1.2,1.2,2.1,3.9,4.2,3.2c3.2-0.6,2.6-4.7,2.1-7.1
		c-1.1-3.3-1.7-6.8-3.3-9.9c-1.8-3.1-5.8-0.9-8.6-0.6C262.8,294.8,260.9,293.5,259.1,292.6z"/>
	<path fill="#FB7219" d="M259.7,306.5c2.3-4.3-1.1-9.3-0.6-13.9c1.8,0.9,3.7,2.3,5.8,1.4c2.8-0.2,6.7-2.5,8.6,0.6
		c1.6,3.1,2.2,6.6,3.3,9.9c-0.5,0.1-1.6,0.2-2.2,0.3c-1.1-0.7-2.2-1.5-3.5-2c-3.3-0.5-5.7,2.2-8.3,3.7c-5,2.8-10.9,2.7-16.1,5.2
		c-0.4,2.3-0.9,4.5-1.3,6.8c-2.4,0-4.8-0.2-7.1,0c-1.2,0.7-2.3,1.7-3.4,2.5c-1.1-0.8-2.2-1.7-3.2-2.6c4.1-1.7,8.5-2.3,12.9-1.2
		c0-2-1.2-4.5,0.5-6.1C249.1,307.6,254.9,308.2,259.7,306.5 M261.1,295.4c-0.3,3.2,0.4,6.3,1.2,9.4c2.1-1.1,4-2.5,6.3-3.3
		c2-0.4,4.1,0.2,6.2,0.4c-1-2.6-1.5-6-4.1-7.6C267.5,294.5,264.3,295.2,261.1,295.4z"/>
	<path fill="#FF7F03" d="M261.1,295.4c3.2-0.2,6.3-0.9,9.5-1.1c2.6,1.6,3.1,5,4.1,7.6c-2-0.2-4.1-0.8-6.2-0.4
		c-2.2,0.8-4.2,2.2-6.3,3.3C261.5,301.7,260.8,298.6,261.1,295.4z"/>
	<path fill="#FD741A" d="M279.8,301.9c2.7-0.7,5.4-1.5,8.2-1.8c-1.8,2.2-4.4,4-5.2,6.9c0,2.9,1.5,6.1-0.6,8.7c-1.5-4.2,0-8.7-0.9-13
		c-1.4,3.2-1.7,6.7-2.8,10c-1,2.5-4.2,2.8-6.5,2.2c-2.9-0.4-2.9-3.9-3.9-6c-1.2-0.1-2.4-0.3-3.5-0.5c-0.2-0.2-0.7-0.7-0.9-0.9
		c0.8-0.2,2.5-0.6,3.3-0.8c0.5,0,1.5,0,2,0c0.3,0.4,1,1.3,1.3,1.7c-0.1,0.9-0.4,2.9-0.5,3.8c2.3,1.2,5.9,1.9,7.6-0.5
		C278.5,308.5,279,305.1,279.8,301.9z"/>
	<path fill="#D84007" d="M262.8,306.5c2.6-1.6,5-4.3,8.3-3.7c1.2,0.5,2.3,1.3,3.5,2c-2-0.1-4-0.3-6-0.6c0.3,0.5,0.6,1.1,1,1.7
		c-0.8,0.3-1.6,0.5-2.4,0.8c-0.8,0.2-2.5,0.6-3.3,0.8C263.5,307.2,263,306.7,262.8,306.5z"/>
	<path fill="#67271D" d="M52.2,307.1c0.5-1.2,0.9-2.3,1.4-3.5c1.3,15.8,2.7,31.8,0.6,47.6c-1.2,3.2-2.4,6.4-3.8,9.5
		c-0.1-0.7-0.4-2.1-0.5-2.9C56.3,341.6,53.2,324,52.2,307.1z"/>
	<path fill="#E73723" d="M268.5,304.1c2,0.3,4,0.5,6,0.6c0.5-0.1,1.6-0.2,2.2-0.3c0.5,2.4,1.1,6.5-2.1,7.1c-2.1,0.8-3-1.9-4.2-3.2
		c-0.3-0.4-1-1.3-1.3-1.7c-0.5,0-1.5,0-2,0c0.8-0.3,1.6-0.5,2.4-0.8C269.1,305.2,268.8,304.7,268.5,304.1z"/>
	<path fill="#FF7C0C" d="M449.5,307.5c1.7-0.7,3.3,0.6,4.7,1.3c-0.5,0.2-1.4,0.6-1.9,0.8c-0.1,2.1-0.4,4.5,0.8,6.4
		c2.3,2.7,5.7,4.4,7.4,7.6c2.5,3.8,1.5,8.6,3.2,12.7c0.8,5.3,0.4,10.6,0.6,15.9c-0.4-0.3-1.4-0.9-1.8-1.1c-1.8-2.7-3.9-5.3-5.7-8
		c-2.1-3.5-1.6-7.7-1.7-11.6c0.3,0,1,0,1.4,0c1.4,4.4,3.2,8.6,5.2,12.7c0.2-6.5,0.1-13.4-2.3-19.5c-1.4-3.5-6-4.1-7.3-7.6
		C450.9,313.9,450.4,310.6,449.5,307.5z"/>
	<path fill="#DE410A" d="M450.7,318.4c-1.2-3.5-2-7.3-1.2-10.9c0.8,3.1,1.3,6.4,2.6,9.4c1.3,3.5,5.9,4.2,7.3,7.6
		c2.4,6.2,2.5,13,2.3,19.5c-2-4.1-3.8-8.3-5.2-12.7c1.7,0.5,2.4,2.2,3.5,3.4c-0.3-3-0.5-6.1-1.9-8.9
		C456.5,322.6,452.7,321.3,450.7,318.4z"/>
	<path fill="#DF3B11" d="M338.3,312.3c0.4-1.5,2.3-1.2,3.4-1.6l-0.1,0.8c-1.1,1-2.5,1.8-2.9,3.4c-2.4,8.2-3.7,16.7-4.4,25.3
		c0.1,6.6-6.5,11.2-5.3,18.1c0.6-0.2,1.8-0.5,2.4-0.7c1.7-3.1,3.3-6.3,4.6-9.6c0.7-1,1.4-2.1,2.1-3.1c-0.9,7.9-3.4,15.6-6.4,22.9
		c-0.4,0-1.3-0.1-1.7-0.1c1.3-3.4,2.6-6.8,3.9-10.2c-1.6,1-3.1,2-4.7,3c-1.1-2.1-2.2-4.2-3.6-6.1c4.7-8,2.6-17.5,3.2-26.3l1.2,0.4
		c1,5.9,0.1,12,0.5,17.9c3.6-2.6,2.1-7.5,2.8-11.3C334.3,327.3,335.5,319.5,338.3,312.3z"/>
	<path fill="#FF7C12" d="M338.8,314.9c0.3-1.6,1.8-2.4,2.9-3.4c0.4,6.2-1.9,12.1-1.6,18.3l1.9-0.1c-0.7,2.6-1.7,5-2.7,7.5
		c-0.9-1.4-1.8-2.7-2.7-4.1c0.1,4.4-0.8,8.7-1.6,13.1c0.3,0.4,0.9,1.3,1.3,1.7c-1.3,3.3-2.9,6.5-4.6,9.6c-0.6,0.2-1.8,0.5-2.4,0.7
		c-1.1-6.9,5.4-11.5,5.3-18.1C335.1,331.6,336.4,323.1,338.8,314.9z"/>
	<path fill="#FF7D10" d="M425.4,314.3c0.8-0.2,2-1.5,2.8-0.5c2.6,5.7,4.2,12,3.5,18.3c-1.1-0.4-1.7-1.5-2.2-2.5
		C427.1,324.8,424.4,319.8,425.4,314.3z"/>
	<path fill="#CB440A" d="M539.5,316.2c2.1,1.4,4.1,3,6,4.6c-2,0.7-3.9,1.4-5.8,2.3C539.6,320.8,539.5,318.5,539.5,316.2z"/>
	<path fill="#FF7F02" d="M350,326c2-1.4,3.7-3.7,6.4-3.5c-1.4,3.6-2.8,7.5-5.7,10.2c-1.9,1.7-4,3-5.9,4.7c4.6,1.8,9.5,1.6,14.3,1.4
		c0.2,5.1-2.5,9.8-3.2,14.8c3.9-2.8,6.9-6.6,10.6-9.7c1.9-0.8,3.7-1.7,5.5-2.6c2.3,3.8,3.9,8.1,3.1,12.6c-1.2-0.6-2.3-1.1-3.4-1.7
		c-0.9-0.7-1.8-1.4-2.8-2c-0.6,6.4,0.4,12.8-0.6,19.2c-0.3,3.3-3.9,3.7-6.5,4.4c-0.9-0.7-1.8-1.4-2.6-2.1c-0.3-0.3-0.8-0.9-1.1-1.2
		c-0.7-0.6-1.3-1.2-2-1.7c-3,2.8-5.5,6.1-6.4,10.2c-0.4,0.7-0.8,1.4-1.2,2.1c-2.4-5.3-4.2-10.8-4.9-16.6c-3.8,1.7-7.7,3.7-11.9,3.3
		c3-7.3,5.6-15,6.4-22.9c-0.7,1-1.4,2.1-2.1,3.1c-0.3-0.4-0.9-1.3-1.3-1.7c0.8-4.3,1.7-8.6,1.6-13.1c0.9,1.4,1.8,2.7,2.7,4.1
		c1-2.5,2-4.9,2.7-7.5C344.7,328.8,347.7,328,350,326z"/>
	<path fill="#E13E1E" d="M539.7,324.5c3,1.7,5.9,3.4,8.5,5.5c-4.4,1.4-8.9,2.4-13.3,3.7c-0.1-1-0.2-2.1-0.3-3.1
		c1.6-0.3,3.3-0.2,4.9,0C539.6,328.6,539.6,326.5,539.7,324.5z"/>
	<path fill="#DC3F0C" d="M454.2,331.5l0.9,0c0.1,3.9-0.4,8.1,1.7,11.6c1.8,2.8,3.9,5.3,5.7,8C455.8,347.5,452,338.8,454.2,331.5z"/>
	<path fill="#FB701B" d="M396.6,332c1.9,4,3.6,8.1,4.9,12.4c0.5,4.1,0.3,8.4,0.1,12.5c-0.2,2.9-2,5.4-4.6,6.8
		c-3.9-1.9-5.8-6.8-4.4-10.8C394.5,346.1,396.4,339.2,396.6,332 M394.3,352c-1,3.1-0.8,7.7,2.8,9c3.1,0,2.7-4,3.1-6.1
		c0.1-5,1-10.9-2.4-15.1C396.6,344,395.6,348,394.3,352z"/>
	<path fill="#E0460C" d="M463.7,336.3c4,2.4,1.5,8.9,5.3,11.6c2.3,1.8,4.6,3.8,5.6,6.6c0.6,1.9,2.4,2.8,4,3.7
		c-0.1,0.3-0.5,0.8-0.6,1c-2.1-0.5-3.8-1.6-4.5-3.7c-1.5-3.7-4.8-6-7.9-8.2c-0.4,1.6-0.8,3.2-1.3,4.9
		C464.1,346.9,464.5,341.5,463.7,336.3z"/>
	<path fill="#FB6E1E" d="M371.6,338.3c2.2,2.6,3.8,5.8,4.8,9c0.6,4.8,0.1,9.6,0.2,14.3c-0.3-0.1-0.8-0.2-1-0.3
		c-1-3.2-2.2-6.4-3.9-9.3c1.1,0.6,2.3,1.1,3.4,1.7c0.8-4.5-0.8-8.8-3.1-12.6c-1.8,0.9-3.7,1.8-5.5,2.6
		C368.2,342,369.9,340.2,371.6,338.3z"/>
	<path fill="#CC5B06" d="M534.7,343.5c-2.2-1.1-1.2-3.4-0.5-5.1c0.6,1.2,1.2,2.5,1.7,3.8C535.6,342.4,535,343.1,534.7,343.5z"/>
	<path fill="#FE7F00" d="M394.3,352c1.3-4,2.3-8.1,3.4-12.1c3.5,4.2,2.6,10,2.4,15.1c-0.4,2.1,0,6.1-3.1,6.1
		C393.5,359.7,393.3,355.1,394.3,352z"/>
	<path fill="#CF3B12" d="M428.1,339.8c4.7,7.4,5,16.4,4.9,24.8c1.3,0.1,2.7,0.2,4,0.4c-2.9-5.2-2.9-11.5-1-16.9
		c0.3-1,1.3-1.5,2.3-1.6c-1.9,5.2-3.8,11.6-0.4,16.6c0.8,1.7,2.9,1.5,4.4,1.6c1.4-6.4-1.6-12.5-2.6-18.7l0.8-0.6
		c2.9,7.2,4.7,15.3,2.6,22.9c-4-0.9-8.1-1.8-12.1-2.7c0.6-4.5,0.8-9.1-0.1-13.6c-0.7-3.9-2.3-7.4-3.3-11.2L428.1,339.8z"/>
	<path fill="#CF3B12" d="M364.9,514l1.2,0.2c2,5,4.9,9.5,7.7,14.1c-6.6-1.6-13.3-3.2-19.3-6.5c-0.2,3.1,0,6.2,0.5,9.2
		c1,5.4-0.2,10.9-1,16.3c-2.8-0.8-5.4-2.2-7.9-3.5c2.1-1.3,4.4,0.3,6.5,0.9c0.8-4.2,1.4-8.5,0.8-12.7c-0.5-3.6-0.9-7.3-0.3-10.9
		c5.9-0.1,10.8,4,16.6,4C368,521.5,365.1,518.3,364.9,514z"/>
	<path fill="#CF3B12" d="M57.8,611.1c0.5-0.5,1.5-1.4,2-1.8c-0.1,1.9-0.3,3.8-0.3,5.7c1.7,22.2,6,44.2,7.7,66.4
		c-4.6-0.2-8.9-2-13.2-3.3c0.6-0.3,1.6-0.7,2.2-1c2.6,0.5,5.1,1.9,7.8,1.8c1.3,0,1.6-1.6,1.4-2.6c-2.3-15.7-4.1-31.5-6.4-47.2
		C58.8,623,57.2,617.1,57.8,611.1z"/>
	<path fill="#FF7C09" d="M426.6,353c0.1-4.1-0.5-8.4,1.2-12.3c1,3.8,2.6,7.4,3.3,11.2c0.9,4.5,0.7,9.1,0.1,13.6
		c0,0.3-0.1,0.9-0.1,1.2c-1.5,0.4-2.9,0.8-4.3,1.2C426.5,363.1,426.6,358.1,426.6,353z"/>
	<path fill="#FF7E0B" d="M438.4,346.4c0.4-0.1,1.1-0.4,1.4-0.5c1.1,6.2,4,12.3,2.6,18.7c-1.6-0.1-3.7,0.1-4.4-1.6
		C434.6,358,436.5,351.6,438.4,346.4z"/>
	<path fill="#FF7E0B" d="M134.9,446c0.4,0.3,1.1,0.8,1.5,1.1c-0.6,6.8-7.4,10.6-9.1,17c-0.9,3.3-2.5,6.4-2.6,9.9
		c5.7-2.9,9.7-9,16.3-10c0.9,1.7,1.4,3.6,1.6,5.5c-1.6,4.1-3.8,8.2-2.9,12.7c0.8,4.3-3.3,7-5.9,9.6c-0.2-0.4-0.6-1.1-0.8-1.5
		c1.5-6.5,3.5-12.9,6.3-19c0.7-1.9,2.1-4,1.2-6.1c-6.7,3-11.5,8.9-17.9,12.5c0.8-7.8,2.8-15.9,7.9-22.1
		C132.6,452.7,134.4,449.5,134.9,446z"/>
	<path fill="#C25B01" d="M527.9,347.6c1-1.1,2-1.3,3.2-0.6C530.2,348.2,529.1,348.4,527.9,347.6z"/>
	<path fill="#DF3C1D" d="M505.4,350c1.7-2,4.5-1.9,6.8-2.3c0.1,3,0.4,6.3-1,9.1C509.2,354.7,507.3,352.4,505.4,350z"/>
	<path fill="#DE410B" d="M369,350.1c0.9,0.7,1.8,1.4,2.8,2c1.7,2.9,3,6,3.9,9.3c-0.3-0.1-0.9-0.3-1.1-0.3c-1.3-2.1-2.5-4.3-3.8-6.5
		c-1.2,6.1,1.1,13-2.5,18.6c-2.4,1.8-5.7,2.3-8.5,1.3c-0.1-0.7-0.4-2.2-0.5-2.9c0.9,0.7,1.7,1.4,2.6,2.1c2.5-0.6,6.2-1,6.5-4.4
		C369.3,363,368.4,356.5,369,350.1z"/>
	<path fill="#C94609" d="M497.5,353c2-0.6,4.2-0.8,6.3-0.7c-0.2,1.1-0.7,3.3-0.9,4.4C501,355.5,499.2,354.3,497.5,353z"/>
	<path fill="#F9D5A7" d="M43.7,376.8c0.8-6.6,3.6-12.8,6.2-18.9c0.1,0.7,0.4,2.1,0.5,2.9C48.2,366.1,46.2,371.6,43.7,376.8z"/>
	<path fill="#CC4715" d="M479.5,365.8c0.3-2,0.6-4,0.9-6c0.4,2.8,0.8,5.6,1.2,8.4l0.1,1.2c-4.1-2.3-7-6.1-10.8-8.8
		C474.4,361,476.8,363.9,479.5,365.8z"/>
	<path fill="#F9E666" d="M458.1,360.5c4.2,2.8,7.9,6.2,12.2,8.8l1.8,0.6c-2.2,3.2-6.4,3.8-9.4,6c2.8,6.3,6.3,12.4,7.7,19.2
		c-3.7,0.6-7.1-1-10.5-2.3c1.8,4.5,3.8,8.9,5.7,13.4c-6.1-0.9-12.1-1.5-18.2-2.3c3.5,5.6,7.4,10.8,11.3,16.1
		c1.4,1.7,2.6,3.8,4.8,4.4c10.1,3.4,20.1,7.4,30,11.4c-9.3,1-18.7-0.5-28,0.6c5.7,1.3,11.6,1.5,17.4,2.3c13,1.6,26,3.2,39,4.7
		c-4.7,2.3-9.8,3.6-14.5,5.7c10,3.5,20.2,6.5,30.1,10.4c-20.4,0.5-40.8,0.2-61.2,1.2c0,0.2-0.1,0.6-0.1,0.9c7.1,4.8,15.1,8,22.6,12
		c-1.6,0.8-3.2,1.6-4.8,2.4c7.9,4.8,15.8,9.4,23.4,14.7c12.1,7.1,24.6,13.8,37.1,20.2c-15-2.6-30.1-5.3-45.1-8
		c1.4,2.4,2.4,5.3,4.5,7.3c10.8,7.5,22.1,14.3,32.8,21.9c-5.1-0.8-10.1-2.5-15.2-3.3c4.7,3.8,10,6.4,14.8,10.1
		c-9.2-2.6-18.2-5.6-27.5-7.9c16.8,14.7,35.3,27.3,52.8,41c-3.1,0.6-6.1,1.3-9.2,2.1c4.4,5.2,10.7,8.3,15.9,12.7
		c-7.5-1.2-15-2.4-22.4-3.6c3.1,2.7,6.9,4.3,10.4,6.6c7.6,4.8,15.4,9.3,23.1,14c-9.9-1.4-19.7-3.3-29.6-4.7
		c12,9,24.5,17.4,36.4,26.5c-5.7-1.8-10.9-4.8-16.4-6.8c6.8,6.5,14.5,12.1,21.4,18.5c-7.1-1.7-14.1-3.6-21.2-5.2
		c2.7,3.6,5.8,6.9,8.5,10.4c-7.1-0.6-14.2-1.3-21.3-1.8c7.5,6.7,15.3,13.1,24.1,18.1c23.8,18.1,46.8,37.1,70.1,55.8
		c9,7.5,18.4,14.3,28,21c14.6,10.5,29.3,20.8,44.2,30.9c11,7.5,22.5,14.5,32.7,23.2c8.1,6.5,15.8,13.6,23.7,20.4
		c4.5,3.2,9.7,5.4,14.3,8.6c16.9,11.5,34.4,21.9,51.5,33.1c3.1,2.1,6.7,3.8,9.3,6.6c-15.9-10.6-32-20.6-48.2-30.8
		c-4,1.7-8.1,3.3-12.2,4.7c0.9,0.6,1.8,1.3,2.7,2c2.2,1.6,4.4,3.2,6.6,4.7c-0.9,0.6-1.8,1.1-2.7,1.7c-2.8,1.7-5.6,3.4-8.1,5.6
		c0,0.3,0.1,1,0.2,1.3c4.9,1.9,10.1,3.2,15.4,3.4c-4.6,3.4-10.3,4.8-15.1,8c4.2,1.5,8.8,0.9,13.1,1c-0.3,0.8-0.7,1.7-1,2.5
		c-2.9,1.4-5.9,2.5-8.8,3.9c0.2,0.1,0.7,0.3,1,0.5c2.5,1.3,5.5,1.5,8.2,2.3c-3.6,1.8-7.2,3.7-10.9,5.4c0.7,0.2,2.2,0.6,2.9,0.7
		c-0.2,0.3-0.5,0.9-0.7,1.1c2.4,0.6,4.8,1.2,7.1,1.9c0.1,1,0.3,2,0.4,3.1c-2.5,1.5-5.1,3-7.7,4.5c-2.9,1.7-5.9,3.3-8.6,5.2
		c4-0.4,8-1,12-1.3c2.3-0.1,4.5-0.5,6.8-0.7c-5.5,4-11.3,7.6-16.9,11.6l1,0.2c1.7,0.4,3.5,0.9,5.3,1.3c-0.1,0.6-0.3,1.7-0.4,2.3
		c-3.4,1.7-6.9,3-10.4,4.5l-0.6,1c-0.2,0.4-0.5,1.2-0.7,1.6c-3.8,0.7-7.7,0.7-11.6,0.8c2.7,0.3,5.4,0.7,8.1,0.9
		c-3.1,0.4-6.2,0.6-9.3,0.8c7,3.8,15,5.5,22.8,6.8c-13.5,2-27.3,2.2-40.9,3.9c-1.7,2.4-2.7,5.2-4,7.8c-0.7,1.9-2.8,3.9-1.7,6
		c1.9,4.3,3.8,8.7,5.8,13l0,0c-7.3,0.6-14.7,1.7-22,0.5c-1.4-0.4-2.8-0.2-4,0.6c2.5,3,5.5,5.5,7.4,9c-6.2,0.5-12.2-1.3-18.3-1.3
		c-3.7-0.2-7.3-1.1-11-0.7c0.9,5.3,5.1,9.1,7,14c-8.8-1.1-17.1-4.5-25.9-5.5c0.6,2.3,1.3,4.7,1.5,7.1c-3.1,2-7.1-0.5-10.6,0.1
		c-10-1.2-20-0.8-30-1.1c-1.8-0.1-3.5-0.1-5.3-0.2c0.7,1.6,1.5,3.1,2.6,4.4c0.2,0.3,0.7,0.8,0.9,1c0.5,1.5,0.9,3,1.4,4.5
		c-1.9-0.3-3.7-0.5-5.6-0.9c-1.5-0.5-3-1-4.6-1.5c-5.7-2.5-11.4-5.1-17.3-6.9c0.6,1.8,1.6,3.5,2.7,5c-0.2,0.2-0.6,0.5-0.8,0.7
		c-5.4,0.9-10.7,2.2-16,3.3c0.9,2.4,1.9,4.7,3,7c-2.8-0.1-5.5-0.8-8.3-1.4c-11-1.9-21.8-5.3-33-6.1c1.4,4.2,4.6,7.5,6.3,11.5
		c-4.6,0.2-8.6-2.8-13.3-2.5c4.9,4,10.4,7.3,14.4,12.2c-7.9-0.4-15.7-2.3-23.5-3.1c0.9,2.6,3,4.5,5,6.3c-7.9-1.3-15.7-2.9-23.5-4.2
		c-3.1-0.9-6.2-2.3-9.5-1.6c-0.6,2.4,2.3,3.8,3.7,5.3c4.1,3.3,7.9,7.1,11.5,10.9c-13.2-4-25.6-10-38.5-14.9
		c-0.4,1.1-0.9,2.3-1.3,3.4c-12-1.8-23.9-4.6-36-5.3c1.1,1.5,2.2,3,3.3,4.6c-4.8-0.1-9.2-2-13.7-3.3c-1.3-0.4-2.5-0.8-3.8-1.2
		c-3.4-1-6.6-2.6-9.7-4c1.9,2.5,4.2,4.8,6.4,7c-0.1,0.3-0.3,0.9-0.4,1.2c-5.1-2.3-10.4-4.1-15.5-6.3c-0.3-0.2-1-0.5-1.3-0.6
		c-4.2-1.5-8-4.2-12.6-4.4c1.2,4.1,5.2,6.6,6.3,10.8c-8.9-0.7-16.8-6.7-25.8-6.5c-2.2,2,1,4.3,1.8,6.3c-13.2-4-25.3-10.6-37.6-16.6
		c-10.7-6-21.7-11.5-32.3-17.7c-1.6-0.9-4-2-4.8,0.4c-0.7,2.9,1.4,5.3,2.5,7.8c-24-11.9-48.7-22.3-73.1-33.5c-1.7-1-3.7-0.8-5.5-0.6
		c0.5,4.3,2.3,8.3,3.5,12.5c-3.6-0.9-6.6-3.2-9.6-5.4c-34.2-24.5-66.8-51.1-99.7-77.3c-4-3-8-7.4-13.4-7.2
		c-0.4,5.3,3.4,9.4,5.4,13.9c-2.2-1-4.3-2.3-6.1-3.9c-11.1-9.5-20.9-20.4-30.3-31.5C67.1,796.9,37.3,740.2,15.7,681
		c-0.3-1.7-0.4-3.4-0.1-5.1c6.1,13.2,11.3,26.7,17.8,39.7l0.9,0c3.7-6.4,0.8-14.3,3.7-20.9c4.3,4.2,7.7,9.2,12.5,12.9
		c1.1,1,2.7,1,4.1,1.3c1.1-3.9-0.2-7.9,0-11.9c0.1-5.6-0.1-11.3,0.2-17c3.7,0.7,7.3,2,11,2.3c2.5-0.2,3.1-3.3,2.8-5.4
		c-1.1-11.4-3.7-22.6-4.4-34c-1.2-9.3-2.7-18.6-3.5-28c0-2.2,0.7-4.2,1.3-6.3c2.2,1.6,4.3,3.4,6.4,5.2c0.2-0.3,0.4-0.9,0.6-1.3
		c2.2-4.8,3.6-10,5.3-15c0.8,0.9,1.5,1.9,2.1,3c4.6,8.8,9.4,17.4,13.8,26.3c1.1,2.4,2.1,4.9,3.7,7c1.9-1.2,3.8-2.5,5.7-3.8
		c7,11.6,14.4,23,22.1,34.1c0-1.8,0-3.6-0.1-5.3c0.3,0.1,0.8,0.4,1.1,0.5c6,13.3,11.9,26.6,17.9,39.8c0.7-3.6,0.5-7.5,2.1-10.9
		c6,7.9,12.5,15.4,18.7,23.2c-0.5-4.3-1.8-8.8-0.3-13c1.5,0.6,2.9,1.2,4.2,2.1c5.6,3.9,11.3,7.6,17,11.5c0.1-7-0.3-13.9-0.2-20.9
		c0.1-0.5,0.3-1.5,0.4-2.1c2.6,7.7,6,15.2,9.8,22.4c1.1,2,2.4,3.9,3.9,5.8c4.9-3.5,5.9-10.1,8.3-15.4c10.5-1.2,21.3-2.1,31.8-0.4
		c3.8,0.5,7.3,2.3,10.4,4.4c2,1.5,5.1,1.3,6.9-0.5c2.3-2.3,3.9-5.4,4.6-8.6c0.2-0.7,0.5-2,0.7-2.7c7,2.9,14,5.6,20.9,8.7
		c1.2,0.6,2.6,0.9,4,0.9c0.7-6.8-1.1-13.5-2.3-20.1c3.8,3,7.8,6,11.7,8.8c2.9,2,5.8,4.2,9.4,4.7c-5-14-11.6-27.3-17-41.1
		c-0.4-3-1-5.9-1.6-8.8c3.5,2.4,4.6,7.1,8.5,9c1.3-1.5,1.1-3.6,1.3-5.5c0.4-7.3,0.5-14.7,1.1-22c0.6-5.6-1.6-11.1-0.3-16.7
		c0.5-0.5,0.9-1.1,1.4-1.6c2.7-0.5,5.4-1.6,7.1-3.8c2.9-3.6,5.5-7.6,6.6-12.1c-0.2-6-2.8-11.6-2.4-17.7c0.6,0.2,1.7,0.7,2.3,0.9
		c5,4.5,9.4,9.8,15.4,13c1.4,0.9,3,0.9,4.6,1.1c0.5-6.5-0.5-13-0.5-19.5c3-1,6.2-3.3,6.2-6.9c-0.1-6.5-0.9-12.9-0.7-19.4
		c0.1-0.2,0.4-0.5,0.5-0.6c2.6,2.3,4.9,5.1,8,6.7c2.9-1.5,1.7-5.8,2.3-8.6c0.2-0.1,0.5-0.2,0.7-0.3c2.6,1.3,5.1,2.8,7.9,3.5
		c0.8-5.4,2-10.9,1-16.3c-0.5-3.1-0.7-6.2-0.5-9.2c6,3.3,12.7,4.9,19.3,6.5c-2.9-4.5-5.8-9.1-7.7-14.1c1.1,0.2,2.1,0.4,3.2,0.7
		c3.2,2.6,5.8,6.4,9.9,7.5c0.5-5.9-1.4-11.7-2.4-17.4c-0.1-0.9-0.3-2.6-0.4-3.5c2.6,0,5.2-0.1,7.8-0.4c1.5,0.1,2.5-1.6,1.6-2.8
		c-4.8-9.4-9.4-18.9-14.4-28.2c-0.4-1-0.7-1.9-1.1-2.9c4.3-1.2,8.7-2.4,12.8-4.1c1.1-0.3,1.8-1.2,1.9-2.3c0.8-5.9-4.5-10.1-5-15.7
		c6.3-2.3,11.8-6.1,16.9-10.3c0.8-0.7,1.7-1.7,1.4-2.8c-0.7-3.5-2.5-6.6-3-10.1c0.7-1.8,3.3-1.2,4.9-1.6c1.4,0,2.9,0,4.3,0
		c-0.3-4.9-3.3-9.4-2.5-14.4c4.7,1.3,8.9,3.6,13.6,5l-0.1-1.1c-0.1-1.9-0.1-3.8-0.2-5.7c2.5,1.1,4.8,2.7,7.6,3
		c2.6-0.8,2.3-4,2.5-6.1c-0.1-6.5,0.3-12.9-0.5-19.4c0-0.4,0.1-1.1,0.2-1.5c4.1,1.1,7.7,3.8,12.1,4.3c-1.6-6-4.5-11.5-6.1-17.6
		c0-0.3,0.1-0.9,0.1-1.2c4,0.9,8,1.8,12.1,2.7c5,1.1,10.1,2.3,15.2,3C458.2,367.7,458,364.1,458.1,360.5z"/>
	<path fill="#FC761A" d="M98.5,367.7c1.2,2.4,2.3,4.9,3,7.5c0.7,3,1,6,1.3,9c-2-2.8-2.4-6.2-3.4-9.3c-0.3,3.2,0.5,6.8-1.3,9.7
		c-0.3-5.1-0.1-10.1-0.3-15.2C97.9,369,98.3,368.1,98.5,367.7z"/>
	<path fill="#DD400A" d="M349.8,378.8c0.9-4.1,3.4-7.4,6.4-10.2c0.7,0.6,1.3,1.1,2,1.7c-4.3,2.1-6,6.7-8,10.7
		C350.1,380.5,349.9,379.4,349.8,378.8z"/>
	<path fill="#DE410C" d="M290.8,413.9c-0.3-13.8,4.4-27.2,10.3-39.5c1.3,2.3,2.4,4.6,3.3,7.1c-1.3-0.4-2.5-0.9-3.8-1.4
		c-4.3,7.3-5.8,15.7-7.4,23.9c-0.5,6.9-0.6,13.8-1.6,20.6c0,1.4-1.4,1.8-2.4,2.2C289.8,422.5,290.7,418.3,290.8,413.9z"/>
	<path fill="#C1450F" d="M423.3,380.2c0.5,0,1.4,0,1.8,0c0,0.4-0.1,1.1-0.2,1.5c-1.4,7.8-0.3,15.8-1,23.6c-5.3-0.4-9.3-4.6-13.8-7
		c4.7-0.5,7.8,4.4,12.4,4.8C423,395.4,422.3,387.8,423.3,380.2z"/>
	<path fill="#E43A14" d="M284,396.6c-0.5-5.3-0.9-10.7,0.3-15.9c1.7,3.6,3.5,7.3,3.6,11.3c0.2,4.5-2.1,8.6-2.2,13
		c-0.4,7.3,1.8,14.4,2.6,21.6c-0.3-0.2-1-0.5-1.3-0.6c-2.4-4.6-2.1-9.9-2.8-14.9C283.2,406.2,284.7,401.4,284,396.6z"/>
	<path fill="#FFDE73" d="M424,405.3c0.6-7.9-0.5-15.8,1-23.6c0.8,6.4,0.4,12.9,0.5,19.4c-0.1,2.2,0.1,5.3-2.5,6.1
		c-2.7-0.3-5.1-1.9-7.6-3c0.1,1.9,0.1,3.8,0.2,5.7c-2.2-3.2-4.4-6.4-6.1-9.9l-0.6-1.6l1.3,0C414.7,400.6,418.6,404.8,424,405.3z"/>
	<path fill="#FFDE73" d="M962.8,959.1c1.4,0.6,2.8,1.3,4.2,2.1c9.6,6.6,19.7,12.6,30,18.2c6.6,3.4,12.8,7.6,19.6,10.4
		c-1-4.8-4.8-8.3-6.5-12.9c3.5,5.3,6.2,11.2,10.3,16.1c-3.8-2.8-8.2-4.6-12.2-7c-5.2-3-10.5-5.8-15.7-8.7
		c-6.7-3.6-13.2-7.7-19.7-11.7C969.5,963.3,966.3,961.1,962.8,959.1z"/>
	<path fill="#FF7C10" d="M229.6,400.6c1.9-5.9,9.1-7.1,14.3-8.7c1.6,1.6,3.3,3.1,5.1,4.5c-0.4,1.3-0.9,2.6-1.3,3.8
		c-1.4-1.9-2.2-4.4-4-6c-3.6,0-7,2-10.2,3.5c-2,0.9-2.2,3.3-2.9,5.2c2.8-1.4,5.7-2.6,8.8-2.6c0.2,0.6,0.7,1.8,0.9,2.4
		c-3.4,6.3-7.9,12.2-9.8,19.2c-1.6,5.8-4.5,11-6.9,16.4c-1.9-8.3,5.5-15.8,3.4-24.2c-0.9-3.8-5.1-4.8-8.6-4.4
		c-0.8,5.1,0.8,10.6-1.9,15.2c-3.2,6.2-5.9,12.7-8.4,19.2c-1.1-3.1-2.6-6.4-1.9-9.8c0.7-1.7,2.4-2.9,3.5-4.3c2.6-3,2.7-7.1,2.9-10.9
		c-3,0.3-5.9,1-8.9,1.4c-3.4-0.8-2.7-5.2-3.7-7.8c-0.5-0.2-1.6-0.6-2.1-0.8c0.5,4.9,2.4,9.7,2.4,14.7c-1.5,7.9-5.7,15-9.6,21.9
		c-4.1,5.9-6.7,12.5-8.8,19.3c-2.3,1-4.6,2-6.7,3.2c0.8-4.2,2.4-8.8,0.6-12.9c-2.3,0-4.9,0.7-5.6,3.2c-3.2,8.9-1.3,18.6-2.5,27.8
		c-0.2,3.3-3.4,5.1-4.5,8c-1,2.9-1.6,6-2.6,8.9c-0.2-0.2-0.5-0.6-0.7-0.8c-1.9-9.9-1.4-20-3.8-29.8c0.4,0.1,1.3,0.2,1.7,0.3
		c0.7,1.3,1.1,2.7,1.1,4.2c0.4,6.4,0.8,12.8,1.4,19.2c1.9-3.5,3.5-7.2,5.8-10.5c1.1-9.8-1-20.4,3.5-29.7c1.1-2.7,4.6-2.7,6.9-1.7
		c2.5,2.6,2,6.4,1.6,9.7c0.9-0.3,1.7-0.6,2.6-0.9c1.7-4.3,2.8-8.9,5.1-12.9c4.2-7.6,9.2-14.8,12-23c1.8-5.4-0.4-10.9-1.6-16.2
		c-0.6-1.9,1.3-3.1,2.4-4.3c3.8,1.4,3.7,5.9,5.2,9.1c2.7-0.5,5.5-1.7,8.3-1.3c3.5,1.4,1.9,5.7,2,8.5c3.2-4.4,2.2-9.9,2.5-15
		c1.3-4.4,7.4-3.8,9.9-0.9c2.9,2.8,2.3,7.1,2.5,10.7c2-6.9,6.3-12.7,9.5-19c-2.4,0.6-4.7,1.5-7,2.2
		C230.1,404.1,228.9,402.1,229.6,400.6z"/>
	<path fill="#C44715" d="M411.7,407.2c-1.6-3-3.7-5.9-3.8-9.5c0.4,0.6,1.1,1.7,1.5,2.2c1.7,3.5,3.9,6.7,6.1,9.9l0.1,1.1
		c-4.6-1.4-8.9-3.7-13.6-5c-0.8,5,2.2,9.5,2.5,14.4c-1.5,0-2.9,0-4.3,0c-2.2-0.4-4.3-1.2-6.4-1.9c3-0.5,6-0.2,8.9,0.3
		c-1-4.4-2.7-8.7-2.3-13.2C404.4,404.4,408,406.7,411.7,407.2z"/>
	<path fill="#DD3E0D" d="M240.5,402.7c0.4,0,1.1-0.1,1.5-0.2c-0.6,4.5-4.4,7.3-6.3,11.2c-3.3,5.3-3.8,11.7-6.6,17.3
		c-1.5,2.8-1.7,6.8-5.1,8.1l-0.1-0.9c2.4-5.4,5.3-10.6,6.9-16.4C232.6,414.8,237.1,409,240.5,402.7z"/>
	<path fill="#FFF794" d="M393,418.5c0.2,0,0.7,0,1-0.1c2.1,0.7,4.2,1.5,6.4,1.9c-1.6,0.4-4.2-0.2-4.9,1.6c0.5,3.5,2.3,6.6,3,10.1
		c0.3,1.1-0.7,2.1-1.4,2.8c-5.1,4.2-10.7,8-16.9,10.3c0.5,5.6,5.8,9.8,5,15.7c-0.5-1.1-0.9-2.1-1.4-3.2c-0.1-0.2-0.3-0.7-0.4-0.9
		c-1.7-4-3.2-8.1-5.7-11.7l0.1-0.8c6.5-1.5,11.9-5.5,17.4-9.1c0.9-0.7,2.8-1.4,1.9-2.9c-0.9-3-2-5.8-2.9-8.8
		C393.8,421.8,393.4,420.1,393,418.5z"/>
	<path fill="#FFF794" d="M59.9,609.3c0.8-0.7,1.7-1.4,2.6-2c2.3,1.6,4.5,3.4,6.4,5.4c-0.2,0.3-0.4,0.9-0.6,1.3
		c-2.1-1.8-4.2-3.6-6.4-5.2c-0.6,2-1.3,4.1-1.3,6.3c0.8,9.4,2.3,18.7,3.5,28c0.8,11.4,3.3,22.6,4.4,34c0.3,2.1-0.3,5.1-2.8,5.4
		c-3.7-0.3-7.3-1.6-11-2.3c-0.3,5.6-0.1,11.3-0.2,17c-0.2,4,1.1,7.9,0,11.9c-1.4-0.3-2.9-0.3-4.1-1.3c-4.8-3.7-8.2-8.7-12.5-12.9
		c-2.9,6.6,0,14.5-3.7,20.9c0.4-5,1.1-10,1.5-15.1c0.5-3.2,0.3-6.6,1.8-9.6c2.3,5.1,6.5,8.9,10.3,12.9c0.2,0.2,0.5,0.5,0.7,0.7
		c1.5,1.5,3.2,2.9,5,4.2c0-10.1,0.1-20.2-0.1-30.3c0.1-0.1,0.4-0.2,0.6-0.3c4.4,1.3,8.6,3.1,13.2,3.3c-1.7-22.2-6-44.1-7.7-66.4
		C59.6,613,59.7,611.2,59.9,609.3z"/>
	<path fill="#FFF794" d="M279.1,639.3c0.3,0.2,1,0.6,1.3,0.8c3.8,5.6,8.3,10.8,12.1,16.4c-3.9-1.8-5-6.6-8.5-9
		c0.6,2.9,1.2,5.9,1.6,8.8C283.2,650.7,281,645,279.1,639.3z"/>
	<path fill="#FFF794" d="M803.4,859.1c6.7-0.5,13.4-0.2,20-0.3c-2.5,1.5-5.3,2.5-7.9,3.8c0.3-0.8,0.6-1.7,1-2.5
		C812.2,859.9,807.6,860.6,803.4,859.1z"/>
	<path fill="#FFF794" d="M807.3,876.5c0.2-0.3,0.5-0.9,0.7-1.1c4.1,1,8.2,2,12.3,3c-1.8,1-3.7,2.1-5.4,3.2c-0.2-1-0.3-2.1-0.4-3.1
		C812.1,877.7,809.7,877,807.3,876.5z"/>
	<path fill="#FFF794" d="M795.3,910c5.6-0.2,11.2,0.9,16.8,0c0.9,0.6,0.5,2-0.7,1.7c-6.8-0.2-13.5,0.9-20.2,1.6
		c-2.7-0.2-5.4-0.5-8.1-0.9c3.9-0.1,7.7-0.2,11.6-0.8C794.8,911.3,795.2,910.4,795.3,910z"/>
	<path fill="#C54B14" d="M394.1,423.4c0.9,3,2,5.8,2.9,8.8c0.9,1.5-1,2.2-1.9,2.9c-5.5,3.6-10.9,7.7-17.4,9.1c0-0.3,0.1-1,0.1-1.3
		c5.8-3.1,12.3-5.3,17-10.2C394.2,429.7,393.6,426.5,394.1,423.4z"/>
	<path fill="#C9531C" d="M383.3,456.7c-3.6-2.5-5.8-7.4-5.7-11.7C380.1,448.6,381.5,452.7,383.3,456.7z"/>
	<path fill="#DF3F0D" d="M182.1,467.8c2-6.8,4.7-13.5,8.8-19.3c-0.2,2-0.5,4.1-1.5,5.8c-1.9,3.6-3.1,7.5-4.7,11.3
		C184.3,466.8,183.1,467.3,182.1,467.8z"/>
	<path fill="#C34A14" d="M383.7,457.6c0.5,1.1,0.9,2.1,1.4,3.2c-0.1,1.1-0.8,2-1.9,2.3c-4.1,1.8-8.5,3-12.8,4.1l-0.3-0.9
		c3.4-1.8,7.1-2.6,10.6-3.9C382.7,461.8,382.9,459.3,383.7,457.6z"/>
	<path fill="#DE400B" d="M122.5,477.6c6.4-3.5,11.2-9.4,17.9-12.5c0.9,2.1-0.5,4.1-1.2,6.1c-2.8,6.1-4.8,12.5-6.3,19
		c-0.6-1-0.8-2-0.7-3.1c1.3-6.7,4.2-12.9,6.4-19.3c-5.8,3.2-9.8,9.3-16.3,11.1C122.4,478.6,122.5,477.9,122.5,477.6z"/>
	<path fill="#DD3F0A" d="M142.6,469.4c0.4,2.8,0.6,5.7,1.7,8.3c1.5,2.7,4.3,4.5,5.7,7.3c1.4,2.8,1.8,6,2.7,9c-0.3,0.5-1,1.4-1.3,1.8
		c-1-3.8-1.3-8-3.9-11.1c-2.2-2.6-3.9-5.5-6.2-8c-0.6,4.1,0.9,9-2.3,12.3c-1.4,1.8-3.4,3.1-5.4,4.3c0-0.4,0.1-1.1,0.1-1.5
		c2.6-2.6,6.7-5.3,5.9-9.6C138.8,477.6,141,473.5,142.6,469.4z"/>
	<path fill="#C0460F" d="M373.9,478.2c-1.3-2.5-3.1-5.1-2.5-8.1c5,9.3,9.6,18.8,14.4,28.2c0.9,1.3-0.1,3-1.6,2.8
		c-2.9,0-5.7-0.2-8.6-0.6c2.7-0.6,5.5-0.9,8.3-1c-0.5-2.2-1.2-4.3-2.3-6.3C379,488.3,376.7,483.1,373.9,478.2z"/>
	<path fill="#DA390F" d="M154,496.1c0.4-7,1.9-13.8,1.6-20.8c0.2,0,0.5,0.1,0.7,0.1c2.4,9.8,1.8,19.9,3.8,29.8
		c-4.3-4.1-2.5-10.8-3.3-16.1C156.2,491.6,155.8,494.2,154,496.1z"/>
	<path fill="#FF791B" d="M86.2,477.3c0.4,0,1.2,0,1.6,0c0.5,2.1,0.5,4.3-0.1,6.4c-0.7,3.6-4.3,5.3-6.7,7.6c0.5,2.1,1.6,4,2.8,5.8
		c1.8-2.6,3.4-5.5,5.9-7.4c1.3-1.1,2.9,0,4.2,0.3c-0.2,5.2-1.3,10.3-2.4,15.4c-1.8,7.2-2.4,14.7-4,21.9c-1,4.5-1.5,9.1-0.4,13.6
		c3.8-0.8,6.9-3.1,10.1-5.1c3.1,3.2,3.1,7.8,4,11.8c0.4,1.6,0.6,3.6,2.3,4.4c0.4-3.4,0.7-6.8,0.5-10.1c-1-11.3-1.7-22.8-4.4-33.8
		c-0.9-3.7-3.2-7.8-0.9-11.4c1.1-2,3.6-1.8,5.5-1.4c-1.9,1.3-5,1.9-5.4,4.6c0.6,3.2,2,6.2,2.7,9.4c2,8.4,2.6,17.1,3.5,25.8
		c0.7,7,1.1,14.2-0.9,21c-0.2,1-0.8,1.8-1.6,2.4c-1.7-6.9-3.3-13.9-5.3-20.8c-2.2,1.3-4.4,2.7-6.6,4.1c-1.4,0.3-2.8,0.7-4.3,1
		c-2.4-7.5-0.3-15.3,0.9-22.8c1.6-10.1,3.6-20.2,5-30.3c-6.5,3.5-6.9,11.4-9,17.6c-0.8-5.4-0.7-11.3-4.6-15.6c2.3-2.4,5-4.4,6.9-7.1
		C87.3,482.4,86.4,479.7,86.2,477.3z"/>
	<path fill="#C04530" d="M12.2,486.1c1.2,4.5,0.1,9.1-0.6,13.5c-3.9,22.7-7,45.6-9.4,68.5c0.1,1.7-1.1,2.9-2.1,4.2
		c0.7-11,2.7-21.8,3.8-32.7c1.5-5.8,1.7-11.7,2.8-17.5c1-7.2,2.5-14.4,3.1-21.7C10.6,495.6,11.3,490.9,12.2,486.1z"/>
	<path fill="#F3C7AB" d="M5.2,526.9c1.3-8.9,1.8-18,4.5-26.6c-0.6,7.3-2.1,14.4-3.1,21.7c-1,5.8-1.3,11.8-2.8,17.5
		C3.8,535.3,4.6,531.1,5.2,526.9z"/>
	<path fill="#C44913" d="M377.7,520.2c0-6.2-2.6-12.1-2.3-18.3c0.5,1.1,1,2.1,1.5,3.2c0.9,5.8,2.8,11.5,2.4,17.4
		c-4.1-1.1-6.8-4.9-9.9-7.5C372.7,515.6,375,518.3,377.7,520.2z"/>
	<path fill="#DF3F0C" d="M90.6,541.8c2.2-1.4,4.4-2.8,6.6-4.1c2,6.9,3.6,13.8,5.3,20.8c-0.3,0.1-1,0.2-1.3,0.2
		c-1.7-5.1-2.1-10.7-4.3-15.7C95.8,540.6,92.6,542,90.6,541.8z"/>
	<path fill="#C54714" d="M333.2,548.1c0.4-0.4,1.1-1.1,1.4-1.5c-0.2,6.5,0.6,12.9,0.7,19.4c0.1,3.5-3.1,5.8-6.2,6.9
		c0,6.5,1,13,0.5,19.5c-1.6-0.2-3.3-0.3-4.6-1.1c-6-3.3-10.4-8.5-15.4-13c-0.6-0.2-1.7-0.7-2.3-0.9c-0.3,6,2.2,11.7,2.4,17.7
		c-1.2,4.5-3.7,8.5-6.6,12.1c-1.7,2.2-4.4,3.3-7.1,3.8c4.7-4.2,10.1-8.5,11.7-14.9c0.9-6.7-3.3-13.1-1.4-19.8c2.1,0,4.2,0.4,5.6,2.1
		c4.7,4.9,9.7,9.6,15.8,12.8c1-6.3-0.6-12.6,0.4-18.9c2.1-1.8,5.3-3.2,5.5-6.4C333.7,559.8,332.6,554,333.2,548.1z"/>
	<path fill="#FFEFE3" d="M0,579.5c0.3,7.7,1.2,15.4,1.9,23.1L1.3,602c-0.3-0.3-1-1.1-1.3-1.4V579.5z"/>
	<path fill="#C24815" d="M68.3,609c2.4-3.5,2-9,5.8-11.3c-1.7,5-3.1,10.2-5.3,15c-2-2-4.1-3.8-6.4-5.4
		C64.6,607.1,66.5,608.2,68.3,609z"/>
	<path fill="#EFBEA5" d="M1.3,602l0.6,0.6c1.4,13.2,2.8,26.4,4,39.7C2.9,629,2.3,615.4,1.3,602z"/>
	<path fill="#D95D23" d="M293.4,612.9c0.3-0.1,0.8-0.4,1.1-0.5c-1.2,5.6,0.9,11.1,0.3,16.7c-0.6,7.3-0.7,14.7-1.1,22
		c-0.2,1.8,0,4-1.3,5.5c-3.8-5.7-8.2-10.8-12.1-16.4c5.4,2.3,7.3,8.6,11.6,12.2C294.1,639.3,293.5,626,293.4,612.9z"/>
	<path fill="#C34812" d="M99.5,630.2c1.4,0.1,2.4,1.1,3.1,2.3c5,7.9,10.2,15.7,15.2,23.6c0.8,1.5,2.2,2.3,3.7,2.9
		c0,1.8,0.1,3.5,0.1,5.3C113.9,653.2,106.5,641.8,99.5,630.2z"/>
	<path fill="#785027" d="M770,654.4c0.8-0.2,2.4-0.6,3.1-0.8c5.1,3.5,7.9,9.1,11,14.2c8.9,15.2,19.8,29.3,28,44.9
		c16,26.1,33.8,50.9,50.9,76.2c9.9,14.9,21.2,28.8,31.6,43.2C905.9,846.4,915,862,925,877c5.5,8.3,10.3,16.9,15.9,25.1
		c7,9.3,14.2,18.4,21.4,27.5c5,6.6,11.4,12.7,13.1,21.2c-4.6-5.4-8-11.8-13.1-16.8c2.1,6.3,5.7,11.9,9.2,17.5c2,4,2.8,8.5,4.3,12.8
		c-6.2-11.6-13.2-22.7-20.2-33.8c-4.3-6.9-10-12.7-15.2-18.9c0.1,1,0.3,2.9,0.4,3.9c-5.9-8.6-13.8-15.5-20.8-23.2
		c-7.3-7.3-14.5-14.6-22-21.7c-17.9-18.2-36.4-35.8-54.9-53.5c-4.2-4.2-8.8-7.9-13.5-11.5c-9.7-8-18.7-16.7-28.8-24.1
		c-16.5-14.9-30.7-32.1-47.9-46c-9.2-7.8-18.4-15.6-26.7-24.4C713.7,698,701,685.3,689,672c-4.4-4.9-9.2-9.6-12.8-15.2
		c1.4-0.3,3.1-1.6,4.5-0.5c4.8,2.6,8.4,6.9,12.2,10.9c10.2,11.1,21.5,21.1,31.8,32.2c8.4,10.2,18.3,19.1,27.6,28.5
		c15.6,14.8,31.1,29.6,46.7,44.3c8.6,8.5,18,16,27,24c7.5,6.8,15.4,13.3,22.7,20.3c12.2,12.2,24.5,24.1,36.4,36.6
		c10.9,11,21.2,22.7,32.4,33.3c-5.5-7.6-12.6-14-18.7-21.1c-12.9-13.7-24.8-28.5-39-40.9c-7.4-7-14.4-14.3-21.8-21.1
		c-3.8-3.1-7.4-6.6-10.6-10.4c-6.8-7.5-13.5-15.2-20.2-22.8c-13.4-16.2-30.2-29.2-43.6-45.4c-12.1-14.3-24.4-28.4-36.1-43
		c-3.6-4.6-7.7-9-10.3-14.2c4.7-2.4,8,2.9,11,5.6c10.3,12.7,21.4,24.6,32.1,36.9c14.8,19.2,31.5,36.8,48,54.4
		c13.1,14,25.8,28.6,39.7,41.9c12.9,13.1,26.5,25.5,38.5,39.5c12.8,14.3,25.4,28.8,37.7,43.4c6,6.7,11.4,14,17.6,20.4
		c-4.4-8-10.9-14.5-16.4-21.7c-13.2-15.8-26.2-31.7-39.7-47.3c-4.1-4.9-9.1-8.9-13.3-13.8c-7.7-8-15-16.3-23.1-23.8
		c-10-11.5-19.3-23.7-29-35.5c-11.2-13.6-24.5-25.4-35.3-39.3c-8.7-11.3-17.6-22.4-26.2-33.8c-6.6-9.1-14-17.6-19.5-27.4
		c1.2-0.3,2.4-0.5,3.6-0.6c5.4,3.2,8.8,8.6,12.5,13.4c8.9,12,19.1,23,28,35c5.7,8.8,12.8,16.6,19.3,24.8
		c14.5,17.5,29.4,34.6,44.1,51.9c12.5,14.9,26.2,28.6,39.2,43c10.5,10.9,19.1,23.4,29.2,34.7c-3.8-6.7-8.6-12.8-12.8-19.2
		c-4-5.8-7.7-11.7-12.5-16.8c-8.3-10.4-15.7-21.3-24.4-31.3c-12.8-17.7-23-37.3-36.6-54.3c-7-9.1-14-18.2-20.1-27.9
		c-7-11.3-14.1-22.6-21.1-34C781.7,675.1,774.8,665.3,770,654.4z"/>
	<path fill="#785027" d="M652.2,678.6c1.2-0.5,2.3-1.4,3.6-1.5c6.1,2.3,10.5,7.4,15.4,11.6c12.6,11.4,26.4,21.5,38.4,33.6
		c25,22.2,51.5,42.5,77.3,63.7c11.4,9,23.4,17.2,35,26.1c15.6,11.2,29.8,24.2,44.5,36.5c12.1,10.5,24.1,21.3,36.2,31.9
		c8.6,7.6,17.3,15.2,26,22.8c4.5,3.6,6.9,8.9,10.4,13.3c-0.5-0.3-1-0.7-1.4-1.1c-13.2-13.8-28.2-25.7-42.6-38
		c-8-6.6-15.6-13.6-23.8-20c-15.5-12.8-30.8-25.8-46.6-38.1c-9.6-6.3-18.8-13.2-28.1-20c-5.3-4.1-11.3-7.1-16.3-11.7
		c-11.5-9.5-22.6-19.5-34.1-29c-13.2-10-27.2-19.1-39.6-30.2c-12.5-11.2-25.3-22-37.5-33.5C663.3,689.8,657.3,684.6,652.2,678.6z"/>
	<path fill="#BD3908" d="M51.9,679c0.4-0.2,1.1-0.6,1.5-0.8c0.1,10.1,0,20.2,0.1,30.3c-1.8-1.3-3.5-2.7-5-4.2c1.1,0,2.2,0,3.4,0.1
		C52.1,696,51.8,687.5,51.9,679z"/>
	<path fill="#C54A14" d="M142.9,687.5c5.7,5.7,10.2,12.5,15.8,18.3c0.1-2.8,0.3-5.5,1.2-8.1c2.5,0.2,5.1,0.7,7.1,2.3
		c4.4,3.2,8.7,6.8,13.6,9.2c0.3-5.8-0.5-11.7-0.4-17.5c0.4,0,1.3-0.1,1.7-0.1c-0.2,6.9,0.2,13.9,0.2,20.9c-5.6-3.9-11.3-7.7-17-11.5
		c-1.3-0.9-2.8-1.6-4.2-2.1c-1.5,4.2-0.2,8.7,0.3,13c-6.2-7.7-12.7-15.3-18.7-23.2L142.9,687.5z"/>
	<path fill="#C54B15" d="M38,689.9c2.6,3.5,5.3,6.8,8.4,9.8c1.2,1,1.3,2.6,1.5,4c-3.8-3.9-8-7.8-10.3-12.9L38,689.9z"/>
	<path fill="#C54815" d="M251.9,705c3.1-2.7,4.1-6.8,5.8-10.2c0.1,0.6,0.3,1.8,0.5,2.4c-0.8,3.2-2.3,6.3-4.6,8.6
		c-1.8,1.9-4.9,2.1-6.9,0.5c-3.2-2.1-6.6-3.9-10.4-4.4c-10.6-1.7-21.3-0.8-31.8,0.4c-2.4,5.2-3.4,11.8-8.3,15.4
		c-1.5-1.8-2.8-3.7-3.9-5.8c1.6,1,3.3,2,4.9,3c3.3-3.9,3.4-9.4,6.4-13.3c6.5-2.8,13.7-2,20.6-2.3c7.5,0.2,15.7,0.2,22,4.7
		C247.8,705,250,706.5,251.9,705z"/>
	<path fill="#CA902A" d="M808.3,764.2c1.3,0.5,2.9,0.5,3.8,1.7c2.8,3.2,5.7,6.3,8.7,9.4c3.3,3.3,5.8,7.7,10.1,10
		c-1.2-7.3-9.7-10.6-10.6-17.9c9.7,11.8,19,24,29,35.5c8.1,7.5,15.4,15.8,23.1,23.8c4.2,4.8,9.2,8.8,13.3,13.8
		c13.4,15.6,26.5,31.5,39.7,47.3c5.5,7.2,12,13.7,16.4,21.7c-6.2-6.5-11.6-13.7-17.6-20.4c-12.3-14.7-24.9-29.1-37.7-43.4
		c-12-13.9-25.5-26.4-38.5-39.5C834,792.8,821.4,778.2,808.3,764.2z"/>
	<path fill="#C08E44" d="M827.3,792.7c3.2,3.8,6.8,7.2,10.6,10.4c7.4,6.9,14.5,14.2,21.8,21.1c14.2,12.4,26.1,27.2,39,40.9
		c6.1,7.2,13.2,13.5,18.7,21.1C906.1,875.6,895.9,864,885,853c-11.9-12.4-24.3-24.4-36.4-36.6c-7.3-7-15.2-13.5-22.7-20.3
		C826.3,795,826.8,793.8,827.3,792.7z"/>
	<path fill="#C69140" d="M923.4,806.5c3.2,7.6,2.5,16.8,8.3,23.3l-1.3-0.4c4.9,8.4,9.3,17,13.5,25.8c5.1,11.8,9.3,24,13.8,36.1
		c1.6,4.2,3,8.5,5.5,12.3c15.9,24,31.7,48,46.4,72.7c-3.4-1.5-4.7-5.2-6.6-8c-11.2-18-22.5-36-34.4-53.5
		c-3.8-6.3-8.3-12.4-10.8-19.4c-4.8-12.3-8.9-24.9-14.1-37c-3.2-6.7-6.4-13.4-9.8-20c-2.9-5.7-7.1-10.8-8.5-17.2
		C924.4,816.1,922.6,811.4,923.4,806.5z"/>
	<path fill="#6B470D" d="M804.6,832.3c4.1-1.4,8.2-2.9,12.2-4.7c16.1,10.1,32.3,20.2,48.2,30.8c0.8,0.6,1.6,1.3,2.5,1.9
		c7.6,5.7,16.3,10.3,22.5,17.7c2.4,2.8,4.7,5.8,7,8.6c11.1,15.3,21.7,30.8,32.3,46.4c2.9,4.1,6.9,7.1,10.7,10.1
		c7.4,5.6,15.1,11,23,15.9c3.4,2,6.7,4.3,10,6.5c-2.2-0.2-4.5-0.6-6.3-2c-8.2-5.6-16.4-11.1-24.6-16.8c-6.1-4.8-12.2-9.7-16.7-16.2
		c-11.2-17-22.4-34-35.1-49.9c-2.9-4.4-6.9-7.8-11.3-10.7c-6-3.7-11.3-8.2-17.4-11.7c-7.6-5.5-15.9-10-23.5-15.5
		c-4.9-3.5-10.8-5.6-15.5-9.4c-1.8-1.3-3.5-2.8-5.6-3.4c-3.7-0.3-7,1.7-9.6,4.1C806.3,833.6,805.4,833,804.6,832.3z"/>
	<path fill="#614923" d="M807.2,834.3c2.6-2.4,6-4.4,9.6-4.1c2.1,0.6,3.9,2.1,5.6,3.4c4.7,3.8,10.6,5.9,15.5,9.4
		c7.6,5.5,15.9,10,23.5,15.5c6.1,3.5,11.5,8,17.4,11.7c4.4,2.8,8.4,6.3,11.3,10.7c12.7,15.9,23.9,32.9,35.1,49.9
		c4.4,6.4,10.5,11.4,16.7,16.2c8.2,5.6,16.4,11.2,24.6,16.8c1.8,1.4,4,1.8,6.3,2c6.5,4,13,8,19.7,11.7c-19.8,3-39.9,1.9-59.7,0.3
		c-0.3,0.7-0.9,2.1-1.2,2.8c-1.4-1.3-2.4-3.3-4.5-3.3c-54.8-5.5-109-15.1-163.1-25.3l0,0c0.6-1.2,0.9-2.5,0.1-3.7
		c-2.3-4.8-5.3-9.7-4.3-15.3c1.4-2.6,2.4-5.4,4-7.8c13.6-1.7,27.3-1.9,40.9-3.9c-7.8-1.3-15.7-3.1-22.8-6.8c3.1-0.2,6.2-0.5,9.3-0.8
		c6.7-0.6,13.5-1.7,20.2-1.6c1.2,0.3,1.6-1.1,0.7-1.7l0.3,0c-3.6-1.5-7.5-1.2-11.3-1.5c3.3-1.6,7-2.7,10.1-4.7
		c0.1-0.4,0.2-1.2,0.3-1.6c1.6-0.9,3.3-1.7,5-2.5c-5,0.3-10,0.8-15,1.3l-1-0.2c5.5-4,11.4-7.6,16.9-11.6c-2.3,0.3-4.6,0.6-6.8,0.7
		c-1.4-0.5-2.7-1-4.1-1.5c0.2-0.8,0.5-1.6,0.7-2.5c2.5-1.5,5.1-3,7.7-4.5c1.8-1.1,3.6-2.1,5.4-3.2c-4.1-1-8.2-2-12.3-3
		c-0.7-0.2-2.2-0.5-2.9-0.7c3.7-1.8,7.3-3.6,10.9-5.4c1.6-0.8,3.3-1.6,4.9-2.5c-4.4,0-8.8,0.2-13.1,0.2c-0.2-0.1-0.7-0.3-1-0.5
		c2.9-1.3,5.9-2.5,8.8-3.9c2.6-1.3,5.4-2.3,7.9-3.8c-6.7,0.2-13.4-0.1-20,0.3c4.7-3.2,10.4-4.6,15.1-8c-3.9-3-9.3-2.1-13.5-4.6
		c2.5-1.7,5-3.4,7.4-5.2l-1.4-0.5c0.9-0.6,1.8-1.1,2.7-1.7C811.6,837.5,809.4,835.9,807.2,834.3z"/>
	<path fill="#76502B" d="M930.4,829.3l1.3,0.4c24,24.2,48.2,48.2,72.2,72.3c28.3,28,56.6,56.1,85.7,83.3c8.9,8.5,19,15.8,28.8,23.4
		c15.4,12.1,30.7,24.4,46,36.6c6.4,5,12.6,10.3,19.7,14.5c18.3,12.3,36.4,24.8,54.1,38c6.1,4.8,12.7,9.2,17.8,15.1
		c8.1,11.6,16,23.4,24.1,35v1.1l0-0.9c-9.4,3.2-18.8,7.5-28.8,7.5c-14.5-3.8-28.8-8.1-43.3-11.5c-9.9-2-18.3-7.9-27.2-12.4
		c0.4-0.4,1.2-1.2,1.6-1.6c11.8,2,22.8,7,34,10.7c6.7,2.2,13.1,5.4,20,7.1c4,1,7.7,3.5,11.9,3.1c-1.4-5.4-4.7-10-7.4-14.8
		c-2.3-4.1-3.5-8.8-6.4-12.6c-4-5.4-9.5-9.2-14.6-13.4c-15.8-12.1-32.3-23.1-48.6-34.4c-6.5-4.5-12.7-9.3-18.7-14.3
		c-5.7-4.6-11.8-8.8-17.1-13.8c-13.3-11.4-27.5-21.8-40.6-33.4c-4.7-4.1-9.6-7.8-14.5-11.5c-14.9-13.1-30.6-25.3-45.7-38.3
		c-20.7-17.6-41.8-34.8-61.5-53.5c-3.1-2.7-5.3-7.3-9.8-7.6c-2.5-3.8-3.8-8.1-5.5-12.3c-4.6-12-8.8-24.2-13.8-36.1
		C939.7,846.3,935.3,837.7,930.4,829.3z"/>
	<path fill="#76502B" d="M932.8,977.6c19.9,1.6,39.9,2.7,59.7-0.3c5.2,2.9,10.5,5.7,15.7,8.7c-0.5,0.3-1.4,1-1.9,1.3
		c1.8,3.5,4.7,6.3,7.2,9.3c17.4,21.6,34.9,43.1,51.8,65.1c12.8,16.6,26,32.9,37.8,50.2c0.8,1.2,0.7,2.8,1,4.2
		c-2.5-0.7-4.9-1.6-7.1-2.8c-8.4-4.8-16.9-9.7-24.8-15.4c-6.9-5.1-14.4-9.5-21.2-14.8c-7.4-5-14.3-10.8-22-15.2
		c2.7,3.7,6.2,6.7,9.4,9.9c3.3,3.3,6.5,6.8,10.1,9.8c6.7,5.4,12.1,12.1,18.6,17.6c6.7,5.6,12.3,12.4,19,18
		c6.1,5.7,11.6,11.9,18.6,16.6c-0.6,0.8-1.1,1.7-1.6,2.6c-9-5.6-18-11.3-25.7-18.6c-21.9-21-43.6-42.3-65.4-63.5
		c-27-26.4-53.9-52.9-80.3-79.9C931.9,979.6,932.5,978.3,932.8,977.6z"/>
	<path fill="#C88E30" d="M889.8,833c4.8,5.1,8.5,11.1,12.5,16.8c4.2,6.4,8.9,12.6,12.8,19.2c-10.1-11.3-18.7-23.8-29.2-34.7
		C887.3,834.5,888.9,834.5,889.8,833z"/>
	<path fill="#5D460A" d="M803,846.3c2.4-2.2,5.2-4,8.1-5.6l1.4,0.5c-2.4,1.8-4.9,3.5-7.4,5.2c4.2,2.4,9.6,1.5,13.5,4.6
		c-5.3-0.2-10.5-1.5-15.4-3.4C803.1,847.3,803,846.7,803,846.3z"/>
	<path fill="#C58D32" d="M871.2,857.5c8.1,6.4,15.8,13.4,23.8,20c-0.4,0.4-1.4,1.2-1.8,1.5c1.8,2.2,3.5,4.6,3.8,7.6
		c-2.3-2.9-4.6-5.8-7-8.6c-6.2-7.4-14.9-11.9-22.5-17.7c2.5,0.6,5,1.4,7.3,2.6C873.5,861.2,872.3,859.3,871.2,857.5z"/>
	<path fill="#FDF496" d="M807.8,866.9c4.4-0.1,8.7-0.2,13.1-0.2c-1.6,0.9-3.3,1.7-4.9,2.5C813.3,868.3,810.3,868.2,807.8,866.9z"/>
	<path fill="#C59033" d="M897.9,870.6c7.4,7.1,14.7,14.5,22,21.7c7,7.7,15,14.6,20.8,23.2c0.1,0.3,0.2,1,0.2,1.3
		c-0.5,0-1.4-0.1-1.9-0.2c-3.5-4.4-5.9-9.7-10.4-13.3c-8.7-7.6-17.4-15.2-26-22.8c0.5-0.2,1.6-0.7,2.2-1
		C902.3,876.7,898.7,874.5,897.9,870.6z"/>
	<path fill="#5E4909" d="M798.6,891.2c2.8-1.9,5.7-3.5,8.6-5.2c-0.3,0.8-0.5,1.6-0.7,2.5c1.4,0.5,2.7,1,4.1,1.5
		C806.6,890.2,802.6,890.8,798.6,891.2z"/>
	<path fill="#F7EB8B" d="M801.5,901c5-0.5,10-1,15-1.3c-1.7,0.8-3.3,1.7-5,2.5c-1.8,0.8-3.5,1.6-5.3,2.4c0.1-0.6,0.3-1.7,0.4-2.3
		C805,901.9,803.3,901.5,801.5,901z"/>
	<path fill="#604B0D" d="M806.3,904.6c1.8-0.8,3.5-1.6,5.3-2.4c-0.1,0.4-0.2,1.2-0.3,1.6c-3.1,2-6.8,3-10.1,4.7
		c3.8,0.3,7.7,0,11.3,1.5l-0.3,0c-5.6,0.9-11.2-0.2-16.8,0l0.6-1C799.4,907.6,803,906.3,806.3,904.6z"/>
	<path fill="#764026" d="M963.2,903.4c4.5,0.3,6.7,5,9.8,7.6c19.6,18.8,40.7,36,61.5,53.5c15.1,12.9,30.8,25.2,45.7,38.3
		c4.9,3.7,9.8,7.5,14.5,11.5c13.1,11.6,27.3,22,40.6,33.4c5.3,5.1,11.4,9.2,17.1,13.8c6,5,12.2,9.8,18.7,14.3
		c16.3,11.3,32.9,22.3,48.6,34.4c5.1,4.2,10.6,8,14.6,13.4c2.9,3.8,4.1,8.5,6.4,12.6c2.7,4.8,6,9.4,7.4,14.8c-4.3,0.4-8-2-11.9-3.1
		c-6.9-1.7-13.2-4.9-20-7.1c-11.3-3.8-22.3-8.7-34-10.7c-0.4,0.4-1.2,1.2-1.6,1.6c-4.3-2.1-8.8-4.4-13.6-4.3c-4,1-3.2,5.9-4.2,9.1
		c-3,3.9-2.2,9.7-0.8,14.2c-0.1,3.5-0.2,7.1-0.8,10.6c-0.5-1.2-1.1-2.4-1.6-3.6c-6.2,1-12.4-0.3-18.6-0.9
		c-5.1-0.6-10.1-1.8-14.9-3.3c-0.1,0.6-0.3,1.8-0.3,2.4c-7.7-4.4-15.4-8.9-22.9-13.6c0.5-0.9,1.1-1.7,1.6-2.6
		c-6.9-4.7-12.5-11-18.6-16.6c-6.7-5.6-12.3-12.4-19-18c-6.6-5.5-12-12.2-18.6-17.6c-3.6-3-6.8-6.4-10.1-9.8
		c-3.2-3.2-6.7-6.2-9.4-9.9c7.8,4.4,14.7,10.2,22,15.2c6.8,5.3,14.3,9.7,21.2,14.8c7.9,5.7,16.3,10.6,24.8,15.4
		c2.2,1.3,4.6,2.2,7.1,2.8c-0.3-1.4-0.2-3-1-4.2c-11.8-17.3-25-33.6-37.8-50.2c-16.9-22-34.5-43.5-51.8-65.1c-2.5-3-5.3-5.8-7.2-9.3
		c0.5-0.3,1.4-1,1.9-1.3c4.1,2.4,8.4,4.2,12.2,7c-4.2-4.9-6.8-10.8-10.3-16.1c-0.1-0.2-0.4-0.6-0.5-0.8
		C994.9,951.4,979.1,927.4,963.2,903.4z"/>
	<path fill="#5D470B" d="M758.1,938.7c-1.1-2.1,1-4.1,1.7-6c-1.1,5.6,2,10.5,4.3,15.3c0.8,1.2,0.5,2.5-0.1,3.7
		C762,947.4,760,943.1,758.1,938.7z"/>
	<path fill="#A29552" d="M652.7,974.2c1.8,0,3.5,0.1,5.3,0.2c-0.9,1.4-1.8,2.8-2.6,4.2C654.3,977.2,653.4,975.7,652.7,974.2z"/>
	<path fill="#9D8A4C" d="M630.2,974.8c5.9,1.8,11.6,4.4,17.3,6.9c-4.5,0.4-8.4-2.3-12.5-3.6c-0.5,0.4-1.5,1.3-2,1.7
		C631.8,978.3,630.8,976.6,630.2,974.8z"/>
	<path fill="#988A67" d="M633,979.8c0.5-0.4,1.5-1.3,2-1.7c4.1,1.3,8,4,12.5,3.6c1.5,0.5,3,1.1,4.6,1.5c-0.2,0.3-0.5,0.9-0.7,1.2
		c-19.6,31-39.6,61.8-59.2,92.8c-19.4,30.9-39.3,61.6-58.2,92.8c-2.1,3.8-5.2,7.4-5.1,12c-0.2,4.9,1.4,10.6,6.1,13
		c7.6,4.1,15.5,8.1,24,9.7c10.1,0.8,20.3-0.9,30-3.8c6.5-1.8,11.5-6.5,17.4-9.7c8.7-5,18.5-8.6,28.7-8.4c8.7,0.1,17.2,3.7,23.5,9.6
		c6.9,6.2,11.7,14.3,15.5,22.7c-2.7-3-5.2-6.2-8.4-8.9c-6.9-6.3-16.3-10.1-25.7-9.2c-8.5,0.7-16.4,4.8-22.9,10.1c-0.2,6,0,12-0.1,18
		c0.2,2.1-2.5,2.3-3.8,3c-8.2,2.4-16.7,3.2-25.1,4.1c-15,0.8-30.1-0.6-45.1-1.3c-10.8-1.1-21.6-1.2-32.2-3.6
		c-4.8-1.2-9.6-2.8-14.7-2.9c-4.3,3.7-9.7,5.4-14.7,7.9c-9.5,4.1-19,8.5-29.3,10.2c-19.1,4.1-38.5,8-58.1,8.5
		c-5.3,0.7-11.2-1-16.1,1.8c-5.4,2.9-10.5,7.1-12.3,13.2h-0.4c0.1-1.5,0.1-3.1,0.6-4.4c1.8-4.8,2.3-10,4.7-14.6
		c-15.5,0.6-31,1.6-46.5,0.7c-8.4-0.4-17-1.8-25.2,0.9c-4.9,1.4-9.8,4.9-15.1,3c-4.2-1.4-9.9-3.5-10.4-8.6c0.2-4.9,4.3-8.2,7.6-11.3
		c-4.5,0.5-9.2,0.1-13.5,1.7c-6.9,2.7-13.5,6.2-19.3,10.9c-0.5-0.7-1-1.3-1.5-1.9c1.2-1.5,2.5-3.1,2.9-5.1c1.5-1.2,3-2.3,4.5-3.4
		c-7.5,1-15,1.9-22.4,3.6c-4.2,1-8.2,3-12.6,3.1c-6.1,0.2-12-1.6-17.6-3.9c-4.8-1.7-9-5.6-14.4-5.4c-12.4,0.7-24.7,2.3-37,3.4
		c-10.7,1-21.5,0.2-32,2.5c-10.5,1.7-21.3,4.4-31.9,1.8c-5.2-1.1-9.3-5.3-10.7-10.4c-6.9-1.8-14.4-2-21.1,0.9
		c-5.9,2.3-10.5,6.8-14.7,11.4c2.3-7.5,8.6-13.1,15.4-16.6c9.9-5.1,21-7.3,32-8.4c11.9-1.8,23.8-4,35.9-3.7
		c13.7,0.1,27.3,0.3,41,0.1c12.3-0.2,24.8,0,36.9-2.2c13.3-2.4,26.5-6,39.1-10.9c14.9-5.8,29.4-13.9,39.9-26.2
		c4.8-5.4,11.2-8.8,16.4-13.7c6.9-6.4,13.3-13.4,19.7-20.3c41.9-45.9,82-93.3,122.4-140.5c0.3,0.1,1,0.5,1.3,0.6
		c4.9,2.6,10.2,4.7,15.5,6.3c0.1-0.3,0.3-0.9,0.4-1.2c0.2-0.4,0.7-1.3,1-1.8c0.6-0.3,1.8-0.9,2.4-1.2c1.3,0.4,2.5,0.8,3.8,1.2
		c-28.6,33.6-56.8,67.5-84.8,101.5c-11.6,14-23.2,28.1-34.5,42.5c-5.5,6.8-9.9,14.3-14.2,21.8c-3.1,5.9-6.1,12.8-4.2,19.5
		c1.5,4.7,4.8,9.5,9.9,10.9c4.3,0.6,8.6,0,12.9-0.6c10.9-1.5,22-0.7,33-1.5c12.4-0.9,25-1.5,36.8-5.9c17.6-5.4,35.6-11,54.2-11.1
		c7.1-4.9,13.6-10.8,20.5-16c3.2-2.8,7.2-4.9,9.6-8.5c36.3-55.2,72.7-110.3,108.8-165.7c2.7,0.6,5.4,1.3,8.3,1.4l0.7-0.9
		c-0.4-1.5-0.9-3-1.3-4.5c4.3-2.5,10.1-1.1,13.7-4.9C632.4,980.3,632.8,979.9,633,979.8 M436.4,1200.5c-8,2.2-14.2,8.3-22,11
		c-9.4,3.8-19.7,1.9-29.5,3.1c-3.9,0.5-8.3,0.5-11.5,3.3c1.7,1.2,3.4,2.4,4.7,4.1c9-1.1,18-1.8,26.9-3.4c9.7-1.7,18.9-5.5,27.7-9.8
		c6.5-3.2,13-6.7,18.7-11.2C446.4,1198.4,441.3,1199.2,436.4,1200.5z"/>
	<path fill="#E7E39B" d="M656.3,979.5c3,2.6,5.6,5.7,7.8,9c-4.4-0.8-8.1-3.9-12.7-4.2c0.2-0.3,0.5-0.9,0.7-1.2
		c1.8,0.4,3.7,0.6,5.6,0.9C657.2,982.5,656.7,981,656.3,979.5z"/>
	<path fill="#9A884A" d="M616.2,983.7c5.3-1.1,10.6-2.4,16-3.3c-3.6,3.8-9.4,2.4-13.7,4.9c0.5,1.5,1,3,1.3,4.5l-0.7,0.9
		C618.1,988.4,617.1,986.1,616.2,983.7z"/>
	<path fill="#9C8744" d="M449.4,997.3c3.2,1.5,6.3,3.1,9.7,4c-0.6,0.3-1.8,0.9-2.4,1.2c-0.2,0.5-0.7,1.3-1,1.8
		C453.5,1002,451.2,999.8,449.4,997.3z"/>
	<path fill="#FFFDC3" d="M533.8,1001.9c3.3-0.7,6.4,0.7,9.5,1.6c-1.7,0.2-3.3,0.4-4.9,0.7c-0.2,0.7-0.6,2.2-0.8,3
		C536.2,1005.7,533.2,1004.3,533.8,1001.9z"/>
	<path fill="#532D19" d="M1162,1150.7c-1.3-4.5-2.2-10.3,0.8-14.2C1162.4,1141.2,1162.3,1145.9,1162,1150.7z"/>
	<path fill="#74512C" d="M1126.2,1153.5c4.9,1.5,9.9,2.8,14.9,3.3c6.2,0.6,12.4,1.9,18.6,0.9c0.5,1.2,1.1,2.4,1.6,3.6
		c-0.2,0.4-0.5,1.1-0.7,1.4c-4.1,1.2-8.4,1.1-12.6,1.3c-3.8-0.1-7.8,0.3-11.2-1.7c-3.7-2.1-7.4-4.2-11-6.4
		C1125.9,1155.3,1126.1,1154.1,1126.2,1153.5z"/>
	<path fill="#908775" d="M236.6,1255.8c2.3-7.3,6.7-14,12.8-18.6c-0.4,2-1.7,3.6-2.9,5.1c0.5,0.6,1,1.3,1.5,1.9
		C243.7,1247.6,240.2,1251.8,236.6,1255.8z"/>
</g>
</svg>
