<?xml version="1.0" encoding="iso-8859-1"?>
<!-- Generator: Adobe Illustrator 19.0.0, SVG Export Plug-In . SVG Version: 6.00 Build 0)  -->
<svg version="1.1" id="Layer_1" xmlns="http://www.w3.org/2000/svg" xmlns:xlink="http://www.w3.org/1999/xlink" x="0px" y="0px"
	 viewBox="0 0 512 512" style="enable-background:new 0 0 512 512;" xml:space="preserve">
<path style="fill:#668018;" d="M472.991,187.339c-3.333-3.331-8.736-3.331-12.067,0L264.533,383.729V34.133
	c0-4.714-3.821-8.533-8.533-8.533c-4.713,0-8.533,3.82-8.533,8.533v349.596L50.732,186.996c-3.333-3.331-8.736-3.331-12.067,0
	c-3.333,3.334-3.333,8.736,0,12.068l208.802,208.802v73.679h17.067v-73.679l208.458-208.458
	C476.325,196.074,476.325,190.672,472.991,187.339z"/>
<g>
	<path style="fill:#C2DC71;" d="M20.56,168.892L207.94,356.272c-20.127,20.116-52.747,20.116-72.875,0
		c-11.617-11.617-16.509-27.398-14.711-42.542c-15.144,1.798-30.925-3.095-42.542-14.711s-16.509-27.398-14.711-42.542
		c-15.144,1.798-30.925-3.095-42.542-14.711C0.432,221.639,0.432,189.019,20.56,168.892z"/>
	<path style="fill:#C2DC71;" d="M256,0v264.988c-28.456,0-51.53-23.063-51.53-51.53c0-16.418,7.703-31.05,19.672-40.482
		c-11.969-9.432-19.672-24.053-19.672-40.482s7.703-31.05,19.672-40.482C212.173,82.58,204.47,67.959,204.47,51.53
		C204.47,23.074,227.544,0,256,0z"/>
	<path style="fill:#C2DC71;" d="M491.429,168.88l-0.341,0.353L304.06,356.272c-20.116-20.127-20.116-52.747,0-72.875
		c11.617-11.617,27.398-16.509,42.542-14.723c-1.798-15.132,3.095-30.913,14.711-42.53c11.617-11.617,27.398-16.509,42.542-14.723
		c-1.798-15.132,3.095-30.913,14.711-42.53C438.693,148.764,471.302,148.764,491.429,168.88z"/>
</g>
<g>
	<path style="fill:#8AA92C;" d="M207.94,283.398c20.116,20.127,20.116,52.747,0,72.875L20.56,168.892
		c20.127-20.127,52.747-20.127,72.875,0c11.617,11.617,16.509,27.398,14.711,42.53c15.144-1.786,30.925,3.106,42.542,14.723
		s16.509,27.398,14.711,42.53C180.543,266.889,196.324,271.781,207.94,283.398z"/>
	<path style="fill:#8AA92C;" d="M307.53,51.53c0,16.43-7.703,31.05-19.672,40.482c11.969,9.432,19.672,24.053,19.672,40.482
		s-7.703,31.05-19.672,40.482c11.969,9.432,19.672,24.064,19.672,40.482c0,28.467-23.074,51.53-51.53,51.53V0
		C284.456,0,307.53,23.074,307.53,51.53z"/>
	<path style="fill:#8AA92C;" d="M491.44,168.892c20.127,20.127,20.127,52.747,0,72.875c-11.617,11.617-27.398,16.509-42.542,14.711
		c1.798,15.144-3.095,30.925-14.711,42.542s-27.398,16.509-42.53,14.711c1.786,15.144-3.106,30.925-14.723,42.542
		c-20.127,20.116-52.747,20.116-72.875,0l187.028-187.039C491.088,169.233,491.429,168.88,491.44,168.892z"/>
</g>
<path style="fill:#FF9212;" d="M350.652,512H161.348c19.524-31.778,54.613-52.975,94.652-52.975S331.127,480.222,350.652,512z"/>
<g>
</g>
<g>
</g>
<g>
</g>
<g>
</g>
<g>
</g>
<g>
</g>
<g>
</g>
<g>
</g>
<g>
</g>
<g>
</g>
<g>
</g>
<g>
</g>
<g>
</g>
<g>
</g>
<g>
</g>
</svg>
