<?xml version="1.0" encoding="iso-8859-1"?>
<!-- Generator: Adobe Illustrator 18.0.0, SVG Export Plug-In . SVG Version: 6.00 Build 0)  -->
<!DOCTYPE svg PUBLIC "-//W3C//DTD SVG 1.1//EN" "http://www.w3.org/Graphics/SVG/1.1/DTD/svg11.dtd">
<svg version="1.1" id="Capa_1" xmlns="http://www.w3.org/2000/svg" xmlns:xlink="http://www.w3.org/1999/xlink" x="0px" y="0px"
	 viewBox="0 0 427.479 427.479" style="enable-background:new 0 0 427.479 427.479;" xml:space="preserve">
<g>
	<path style="fill:#51CAF4;" d="M214.396,427.479h-11c0-22.658,5.655-34.109,11.124-45.183c5.137-10.399,9.987-20.222,9.987-40.311
		c0-20.089-4.852-29.912-9.987-40.311c-5.469-11.074-11.124-22.524-11.124-45.182c0-22.658,5.655-34.109,11.124-45.183
		c5.136-10.399,9.987-20.222,9.987-40.312c0-20.091-4.852-29.914-9.987-40.314c-5.469-11.075-11.124-22.526-11.124-45.185
		s5.655-34.11,11.124-45.185c5.136-10.4,9.987-20.223,9.987-40.313h11c0,22.659-5.655,34.11-11.124,45.184
		c-5.136,10.4-9.987,20.224-9.987,40.314s4.852,29.914,9.987,40.314c5.469,11.075,11.124,22.526,11.124,45.185
		c0,22.658-5.655,34.109-11.124,45.183c-5.136,10.399-9.987,20.222-9.987,40.312c0,20.089,4.852,29.912,9.987,40.311
		c5.469,11.074,11.124,22.524,11.124,45.182s-5.655,34.108-11.124,45.182C219.248,397.566,214.396,407.389,214.396,427.479z"/>
	<path style="fill:#51CAF4;" d="M208.91,76.496L208.91,76.496c-29.822,0-53.997-24.175-53.997-53.997v0h0
		C184.734,22.499,208.91,46.674,208.91,76.496L208.91,76.496z"/>
	<path style="fill:#51CAF4;" d="M208.91,239.238L208.91,239.238c-29.822,0-53.997-24.175-53.997-53.997v0h0
		C184.734,185.241,208.91,209.416,208.91,239.238L208.91,239.238z"/>
	<path style="fill:#51CAF4;" d="M226.909,371.981L226.909,371.981c-29.822,0-53.997-24.175-53.997-53.997v0h0
		C202.734,317.984,226.909,342.159,226.909,371.981L226.909,371.981z"/>
	<path style="fill:#51CAF4;" d="M217.909,122.994L217.909,122.994c29.822,0,53.997-24.175,53.997-53.997v0h0
		C242.085,68.996,217.909,93.172,217.909,122.994L217.909,122.994z"/>
	<path style="fill:#51CAF4;" d="M217.909,285.736L217.909,285.736c29.822,0,53.997-24.175,53.997-53.997v0h0
		C242.085,231.738,217.909,255.914,217.909,285.736L217.909,285.736z"/>
	<path style="fill:#51CAF4;" d="M78.562,427.479h-11c0-22.658,5.655-34.108,11.124-45.183c5.136-10.399,9.987-20.222,9.987-40.311
		c0-20.089-4.852-29.911-9.987-40.311c-5.469-11.074-11.124-22.524-11.124-45.182c0-22.658,5.655-34.109,11.124-45.183
		c5.136-10.399,9.987-20.222,9.987-40.312c0-20.091-4.852-29.914-9.987-40.314c-5.469-11.075-11.124-22.526-11.124-45.185h11
		c0,20.091,4.852,29.914,9.987,40.314c5.469,11.075,11.124,22.526,11.124,45.185c0,22.658-5.655,34.109-11.124,45.183
		c-5.136,10.399-9.987,20.222-9.987,40.312c0,20.089,4.852,29.911,9.987,40.311c5.469,11.074,11.124,22.524,11.124,45.182
		s-5.655,34.108-11.124,45.182C83.414,397.566,78.562,407.389,78.562,427.479z"/>
	<path style="fill:#51CAF4;" d="M73.076,239.238L73.076,239.238c-29.822,0-53.997-24.175-53.997-53.997v0h0
		C48.901,185.241,73.076,209.416,73.076,239.238L73.076,239.238z"/>
	<path style="fill:#51CAF4;" d="M91.898,368.981L91.898,368.981c-29.822,0-53.997-24.175-53.997-53.997v0h0
		C67.723,314.984,91.898,339.159,91.898,368.981L91.898,368.981z"/>
	<path style="fill:#51CAF4;" d="M82.076,122.994L82.076,122.994c29.822,0,53.997-24.175,53.997-53.997v0h0
		C106.251,68.996,82.076,93.172,82.076,122.994L82.076,122.994z"/>
	<path style="fill:#51CAF4;" d="M82.076,285.736L82.076,285.736c29.822,0,53.997-24.175,53.997-53.997v0h0
		C106.251,231.738,82.076,255.914,82.076,285.736L82.076,285.736z"/>
	<path style="fill:#51CAF4;" d="M347.889,427.479h-11c0-22.658,5.655-34.108,11.124-45.183c5.137-10.399,9.987-20.222,9.987-40.311
		c0-20.089-4.852-29.912-9.987-40.311c-5.469-11.074-11.124-22.524-11.124-45.182c0-22.658,5.655-34.109,11.124-45.183
		c5.136-10.399,9.987-20.222,9.987-40.312h11c0,22.658-5.655,34.109-11.124,45.183c-5.136,10.399-9.987,20.222-9.987,40.312
		c0,20.089,4.852,29.912,9.987,40.311c5.469,11.074,11.124,22.524,11.124,45.182s-5.655,34.108-11.124,45.182
		C352.741,397.566,347.889,407.389,347.889,427.479z"/>
	<path style="fill:#51CAF4;" d="M342.403,239.238L342.403,239.238c-29.822,0-53.997-24.175-53.997-53.997v0h0
		C318.228,185.241,342.403,209.416,342.403,239.238L342.403,239.238z"/>
	<path style="fill:#51CAF4;" d="M355.902,373.481L355.902,373.481c-29.822,0-53.997-24.175-53.997-53.997v0h0
		C331.727,319.484,355.902,343.659,355.902,373.481L355.902,373.481z"/>
	<path style="fill:#51CAF4;" d="M354.403,302.235L354.403,302.235c29.822,0,53.997-24.175,53.997-53.997v0h0
		C378.578,248.237,354.403,272.413,354.403,302.235L354.403,302.235z"/>
</g>
<g>
</g>
<g>
</g>
<g>
</g>
<g>
</g>
<g>
</g>
<g>
</g>
<g>
</g>
<g>
</g>
<g>
</g>
<g>
</g>
<g>
</g>
<g>
</g>
<g>
</g>
<g>
</g>
<g>
</g>
</svg>
