<?xml version="1.0"?>
<svg xmlns:rdf="http://www.w3.org/1999/02/22-rdf-syntax-ns#" xmlns="http://www.w3.org/2000/svg" xmlns:cc="http://web.resource.org/cc/" xmlns:xlink="http://www.w3.org/1999/xlink" xmlns:dc="http://purl.org/dc/elements/1.1/" id="svg16971" viewBox="0 0 399.64 438.21" version="1.0">
  <g id="layer1" transform="translate(24.105 33.172)">
    <path id="path5739" d="m117.06 380.04c-1.76-0.24-4.23-1.54-5.5-2.88-1.7-1.82-4.06-2.44-9.21-2.44-7.01 0-10.399-1.87-6.273-3.45 1.798-0.69 1.365-1.18-2.162-2.46-2.426-0.87-6.527-1.63-9.113-1.69-2.586-0.05-5.629-0.45-6.762-0.88-3.427-1.32 0.25-4.32 5.533-4.52 2.986-0.11 3.618-0.37 1.765-0.73-4.324-0.83-3.477-2.54 1.745-3.52 3.045-0.57 4.85-1.72 5.276-3.35 0.357-1.36 1.591-2.46 2.742-2.44 2.334 0.05 7.769 3.72 5.859 3.97-0.66 0.08 2.5 0.8 7.03 1.6 4.7 0.83 8.47 2.19 8.8 3.18 0.42 1.26-0.18 1.5-2.14 0.88-1.64-0.53-2.71-0.31-2.71 0.54 0 0.78-1.3 1.93-2.89 2.57-2.8 1.13-2.79 1.16 0.54 1.24 1.88 0.05 4.33 0.43 5.44 0.86 2.58 0.99 2.66 4.35 0.11 4.35-1.06 0-1.92 0.51-1.92 1.13 0 2.11 3.61 4.12 8.53 4.76l4.93 0.64-3.8-1.74c-5.7-2.6-2.02-3.97 8.09-2.99 4.69 0.45 12.85 0.2 18.14-0.56 5.28-0.76 13.78-1.71 18.88-2.11 9.28-0.75 11.83-2.97 3.4-2.97-2.67 0-4.17-0.52-3.7-1.29 0.44-0.7 3.53-1.28 6.87-1.28s6.68-0.6 7.41-1.33c2.31-2.31 7.84-2.64 9.89-0.6 2.47 2.47 4.67 2.48 4.67 0.01 0-2.82 2.16-2.35 2.94 0.64 0.37 1.41 0.15 2.24-0.49 1.85-0.64-0.4-1.17-0.11-1.17 0.64 0 0.74 1.01 1.37 2.25 1.39 2.04 0.04 2.03 0.17-0.16 1.44-1.32 0.76-7.09 1.58-12.82 1.81-19.62 0.79-28.23 1.95-32.16 4.31-6.65 4.01-13.75 5.69-24.4 5.78-5.64 0.05-11.7-0.11-13.46-0.36zm78.83-13.01c-0.43-0.71-1.04-1.29-1.36-1.29-0.31 0-0.56 0.58-0.56 1.29 0 0.7 0.61 1.28 1.36 1.28 0.74 0 1-0.58 0.56-1.28zm-115.11 4.3c-1.024-1.02 0.134-3.02 1.75-3.02 0.663 0 1.206 0.86 1.206 1.92 0 1.98-1.512 2.55-2.956 1.1zm82.72-14.55c0.88-1.42 2.95-2.57 4.59-2.57 1.63 0 3.96-0.53 5.15-1.17 1.45-0.77 2.98-0.57 4.6 0.6 4.07 2.98 0.56 5.34-8.26 5.53-7.39 0.17-7.62 0.08-6.08-2.39zm34.96 1.27c0.43-0.7 2.34-1.27 4.24-1.26 2.7 0.02 3.03 0.29 1.52 1.26-2.53 1.64-6.78 1.64-5.76 0zm8.64-6.32c-0.89-1.46-2.51-2.65-3.6-2.65-1.1 0-1.68-0.5-1.31-1.11 1.04-1.67 17.67-3.22 32.78-3.06 8.13 0.08 13.77-0.39 14.27-1.2 0.52-0.84 5.99-1.19 14.76-0.92 7.66 0.23 17.82 0.42 22.58 0.43s8.65 0.45 8.65 0.99c0 2.07-7.33 2.61-25.43 1.87-10.33-0.42-17.93-0.45-16.87-0.07 1.06 0.39 2.71 0.96 3.67 1.26 1.33 0.43 1.4 0.98 0.28 2.32-1.04 1.26-6.46 1.99-19.05 2.54-9.67 0.43-20.18 1.11-23.35 1.51-4.91 0.63-6.01 0.34-7.38-1.91zm7.38-0.88c0-0.27-1.16-0.49-2.57-0.49s-2.56 0.53-2.56 1.16c0 0.64 1.15 0.86 2.56 0.5 1.41-0.37 2.57-0.9 2.57-1.17zm4.08-0.08c-0.92-0.37-2.03-0.33-2.45 0.1-0.43 0.43 0.33 0.73 1.68 0.67 1.49-0.06 1.8-0.36 0.77-0.77zm-125.54-2.41c-3.24-2.37-0.585-4.41 5.742-4.41 7.634 0 6.284-1.3-2.449-2.37-7.387-0.9-9.169-3.16-2.968-3.77 6.24-0.61 7.541-1.33 5.924-3.28-1.685-2.03-0.625-3.39 2.637-3.39 1.3 0 3.49-0.7 4.86-1.56 2.84-1.78 5.09-0.42 2.91 1.76-0.8 0.8-1.12 3.1-0.72 5.11 0.67 3.33 0.4 3.67-2.95 3.79l-3.69 0.13 4.17 1.34c2.29 0.73 4.16 1.74 4.16 2.23 0 3.97-13.588 7.37-17.626 4.42zm171.45-0.56c0-0.71 0.25-1.28 0.56-1.28s0.92 0.57 1.36 1.28c0.44 0.7 0.18 1.28-0.56 1.28-0.75 0-1.36-0.58-1.36-1.28zm-91.01-4.67c-6.8-1.86-14.96-1.75-23.71 0.32-3.48 0.83-3.68 0.71-2.09-1.21 0.97-1.17 2.57-2.13 3.55-2.13 1.27 0 1.56-0.93 0.99-3.21-0.52-2.05-0.27-3.2 0.7-3.2 0.92 0 1.19-0.99 0.69-2.56-0.56-1.78-0.23-2.57 1.09-2.57 1.05 0 2.82-0.35 3.94-0.78 1.11-0.42 2.02-0.14 2.02 0.64 0 0.79-0.9 1.42-2 1.42-1.18 0-1.62 0.61-1.08 1.48 0.5 0.81-0.05 2.18-1.23 3.04-4.14 3.03-1.16 5.74 6.34 5.74 3.78 0 11.26 0.96 16.63 2.14 7.8 1.72 9.96 1.82 10.76 0.52 1-1.61 13.68-2.29 15.16-0.81 0.39 0.39-1.98 0.71-5.27 0.71s-5.98 0.58-5.98 1.28c0 1.9-12.42 1.4-20.51-0.82zm67.29-13.35c-5.58-1.26-55.27-1.66-57.22-0.46-0.65 0.41-3.62 0.29-6.59-0.26l-5.4-1.01 8.33-1.13c11.39-1.55 50.72-1.21 64.33 0.55 8.29 1.08 12.62 1.07 16.91-0.01 6.82-1.72 21.3-1.94 21.3-0.33 0 1.01-4.14 1.47-29.48 3.3-3.88 0.28-9.36-0.01-12.18-0.65zm-125.96-3.2c-0.64-1.15-3.82-2.39-7.43-2.9-4.34-0.62-6.32-1.51-6.32-2.81 0-1.4 1.8-2.01 6.73-2.3 5.79-0.33 6.73-0.75 6.73-3 0-1.57 1.06-2.9 2.63-3.31 1.49-0.39 2.36-1.42 2-2.35-0.35-0.91 0.2-2.35 1.23-3.2 1.27-1.06 1.46-2.04 0.59-3.08-0.9-1.09-0.17-2.34 2.48-4.31 3.74-2.76 6.64-1.78 4.23 1.43-1.63 2.17-1.84 8.31-0.32 9.25 2.18 1.34 1.37 4.47-1.16 4.47-1.33 0-2.71 1.15-3.08 2.56s-1.88 3.01-3.37 3.56c-2.56 0.95-2.5 1.12 1.3 3.37 3.05 1.8 3.59 2.63 2.26 3.47-2.79 1.76-7.29 1.31-8.5-0.85zm19.58-0.57c-3.45-0.88-3.23-1 2.16-1.13 3.31-0.09 6.37 0.42 6.81 1.13 0.9 1.46-3.24 1.46-8.97 0zm158.63 0.36c1.95-0.29 4.84-0.29 6.41 0.02 1.58 0.3-0.01 0.54-3.54 0.53-3.52-0.01-4.81-0.25-2.87-0.55zm-140.05-2.78c0-0.62 1.25-1.45 2.78-1.85 2.36-0.62 2.52-1.03 1.1-2.75-1.87-2.24-1.87-2.23 2.31-3.97l2.98-1.25-3.3-3.56c-1.82-1.96-3.3-4.34-3.3-5.29 0-2.27 8.64-7.39 9.67-5.73 0.42 0.69-1 1.87-3.17 2.62-4.57 1.6-4.98 3.63-1.38 6.89 2.67 2.42 3.51 7.05 1.28 7.05-0.7 0-1.3 1.01-1.32 2.25-0.05 3.12-3.03 6.73-5.55 6.73-1.15 0-2.1-0.51-2.1-1.14zm-94.813-3.89c-2.909-1.92-0.689-3.04 6.028-3.05 5.12 0 16.5 2.26 14.444 2.88-3.364 1.01-19.011 1.14-20.472 0.17zm-13.111-2.92c1.196-1.2 1.88-1.2 3.076 0 1.197 1.2 0.855 1.54-1.538 1.54-2.392 0-2.734-0.34-1.538-1.54zm-22.175-3.07c-4.23-0.98-10.469-2.02-13.866-2.31-3.3963-0.28-6.5127-0.86-6.9253-1.27-1.1278-1.13 13.642 0.13 19.509 1.66 2.82 0.74 7.545 1.35 10.5 1.37 2.954 0.02 5.728 0.61 6.164 1.31 1.09 1.77-5.995 1.41-15.382-0.76zm145.48-17.08c-2.46-0.42 10.8-1.4 29.48-2.17 37.22-1.54 46.15-1.59 46.15-0.25 0 0.48-6.01 0.85-13.37 0.82-7.35-0.03-13.95 0.31-14.66 0.75-1.77 1.1-41.99 1.82-47.6 0.85zm-39.84-1.87c-0.49-0.44-13.4-1.92-17.73-2.03-1-0.03-1.41-0.46-0.91-0.96s3.27-0.74 6.16-0.53c6.25 0.45 8.23-1.69 4.88-5.28-1.6-1.71-4.48-2.65-9.15-2.96-3.75-0.26-7.02-1.07-7.26-1.8-0.25-0.74-1.49-1.34-2.76-1.34-1.28 0-3.68-1.14-5.345-2.53-2.582-2.17-2.744-2.73-1.103-3.83 1.058-0.71 3.365-1.33 5.128-1.38 3-0.09 3.05-0.19 0.75-1.62-1.346-0.84-3.41-2.44-4.584-3.55-4.482-4.25-16.293-9.87-22.382-10.65-3.491-0.45-8.878-2.04-11.972-3.53-3.094-1.5-8.169-3.01-11.278-3.36-3.108-0.36-5.652-1.21-5.652-1.91 0-0.8 3.627-0.93 9.934-0.34 10.937 1.02 11.857 1.31 11.857 3.79 0 1.64 8.854 4.56 13.827 4.56 1.341 0 3.435-1.1 4.654-2.45 2.082-2.3 2.084-2.52 0.034-3.67-1.464-0.81-1.71-1.51-0.748-2.1 0.99-0.61 0.478-2.77-1.653-6.98-1.697-3.35-3.471-8.14-3.941-10.65-0.763-4.06-0.255-5.29 4.765-11.44 3.091-3.8 8.187-8.78 11.325-11.08 3.137-2.3 7.904-6.18 10.584-8.63 2.98-2.71 7.73-5.26 12.18-6.55 12.92-3.74 12.34-3.21 14-12.91 1.82-10.59-0.5-35.09-4.73-50.1-1.44-5.1-2.62-10.47-2.62-11.92s-1.15-5.03-2.56-7.95c-1.41-2.91-2.56-6.85-2.56-8.75 0-1.896-0.87-4.165-1.93-5.043-1.05-0.877-1.92-2.632-1.92-3.899 0-1.266-0.93-5.941-2.07-10.387-2.82-10.998-1.47-39.01 2.2-45.865 1.34-2.498 2.43-5.134 2.43-5.859s2.02-4.315 4.49-7.979 4.49-7.041 4.49-7.505c0-1.55 8.08-10.122 12.07-12.81 4.05-2.7227 24.58-7.6339 30.1-7.1974 1.69 0.1339 3.8 0.8477 4.69 1.5861 1.04 0.8665 1.89 0.8963 2.39 0.0841 1.25-2.0094 11.7 2.1646 20.94 8.3593 4.58 3.0759 8.73 5.5926 9.22 5.5926 1.44 0 6.47 5.7963 6.47 7.4533 0 0.835 0.59 1.519 1.32 1.519s1.69 1.01 2.15 2.243c3.4 9.235 13.09 15.1 28.1 17.004 21.28 2.701 36.31 5.522 45.26 8.493 10.97 3.647 13.67 4.963 12.09 5.897-2.87 1.698-40 2.277-57.95 0.904-16.7-1.278-21.28-1.204-31.35 0.507-6.49 1.101-17.43 2.34-24.31 2.753-8.15 0.488-15.03 1.712-19.72 3.507-9.54 3.653-11.08 7.147-11.12 25.345-0.03 14.069 1.67 22.767 5.52 28.187 6.17 8.68 14.12 40.17 14.12 55.9 0 7.55 1.74 8.08 15.08 4.63 7.74-2 13.25-2.62 19.92-2.24 9.42 0.53 24.22 4.58 27.76 7.59 1.99 1.7 7.41 3.27 21.07 6.11 6.32 1.32 8.78 2.7 14.94 8.41 4.52 4.18 8.3 9.08 9.74 12.6 1.85 4.51 3.55 6.34 7.81 8.42 3 1.46 5.13 3.18 4.73 3.82-0.4 0.65 0.13 1.51 1.18 1.91 2.2 0.84 5.95 9.5 5.94 13.7-0.01 1.57-1.16 4.58-2.56 6.7-1.4 2.11-2.55 4.83-2.55 6.04-0.01 2.68-15.47 13.04-26.29 17.62-7.03 2.97-9.23 3.25-25.63 3.2-9.87-0.03-24.87-0.26-33.33-0.51-13.63-0.4-16.55-0.09-25.64 2.77-17.11 5.38-20.53 6.13-27.7 6.12-9.13-0.02-37.8-3.25-44.17-4.98-6.56-1.78-17.38-8.94-19.27-12.74-2.15-4.32-3.66-5.53-5.868-4.68-2.926 1.12-1.316 6.8 2.644 9.33 1.848 1.18 5.384 4.02 7.844 6.32l4.49 4.17-4.09 0.01c-2.25 0.01-4.448 0.59-4.883 1.3-0.479 0.77 1.264 1.28 4.403 1.28 3.8 0 5.62 0.68 6.79 2.56 0.94 1.5 2.99 2.57 4.95 2.57 4.65 0 11.56 2.57 10.69 3.98-0.4 0.64 0.33 1.55 1.61 2.03 1.27 0.48 3.07 1.91 3.99 3.19 0.93 1.28 2.94 2.37 4.49 2.42 2.71 0.09 2.72 0.13 0.25 1.19-2.76 1.19-6.29 1.58-7.16 0.8zm54.58-25.16c23-6.73 22.27-6.62 40.38-5.77 42.03 1.98 39.3 2.13 50.99-2.62 13.32-5.41 21.19-11.02 25.29-18.01 5.93-10.12 3.62-17.46-8.34-26.53-6.89-5.21-7.27-5.33-15.97-4.99-4.91 0.2-9.1 0.53-9.31 0.75-0.22 0.21 1.54 2.44 3.91 4.95 2.36 2.51 5.01 7.09 5.88 10.19 1.48 5.31 1.37 5.94-1.94 11-2.72 4.15-3.89 5.05-5.2 3.96-0.93-0.77-2.51-1.1-3.49-0.72-1.9 0.73-3.37-3.91-3.37-10.62 0-1.91-1.17-4.54-2.6-5.84-1.44-1.3-2.34-3.08-2-3.95 0.33-0.87-0.75-2.47-2.41-3.56-2.56-1.68-3.23-1.7-4.49-0.18-1.16 1.4-0.91 2.08 1.17 3.2 2.18 1.17 9.05 12.35 9.05 14.74 0 1.74-2.43 0.43-2.9-1.56-0.35-1.51-0.92-0.81-1.75 2.16-1.28 4.56-4.32 6.95-4.32 3.39 0-1.11 0.56-2.02 1.24-2.02s0.87-0.97 0.42-2.15c-0.74-1.93-0.93-1.89-1.79 0.32-0.89 2.26-0.98 2.22-1.06-0.42-0.07-2.2-0.85-2.88-3.3-2.88-1.76 0-3.2 0.58-3.2 1.28 0 2.48-1.95 1.23-4.17-2.68-3.07-5.4-2.83-6.47 1.29-5.59 3.39 0.73 3.43 0.68 0.99-1.28-1.39-1.13-3.41-1.67-4.48-1.21-1.08 0.46-4.99 1.12-8.69 1.47-7.29 0.69-7.6 0.99-4.77 4.73 1.04 1.37 1.88 3.54 1.88 4.82 0 2.57-15.32 18.97-17.72 18.97-2.6 0-1.64-1.3 1.98-2.67 2.43-0.93 2.99-1.63 1.86-2.33-1.26-0.78-1.18-1.36 0.36-2.64 1.1-0.91 1.95-3.45 1.91-5.66-0.07-3.44-0.24-3.63-1.16-1.35-0.59 1.46-2.61 3.66-4.5 4.89-3.37 2.21-3.4 2.21-2-0.41 2.17-4.06 1.93-13.71-0.43-17.32-1.15-1.75-2.09-4.61-2.09-6.36s-0.5-3.48-1.11-3.86-0.84 1.18-0.52 3.45 0.57 5 0.57 6.06c-0.01 1.05 0.61 3.22 1.38 4.81 1.13 2.32 0.81 4.14-1.64 9.37-3.96 8.47-5.33 9.18-2.91 1.52 1.06-3.35 1.84-6.81 1.75-7.69-0.1-0.88-0.31-3.22-0.45-5.2-0.28-3.73-7.32-13.46-7.32-10.12 0 1.03 0.86 2.58 1.92 3.46s1.92 3.01 1.92 4.74v3.15l-3.2-3.81c-1.76-2.09-3.2-4.73-3.2-5.87 0-2.49-1.26-2.58-5.47-0.4-3.16 1.64-3.17 1.69-0.79 4.63 1.33 1.64 2.41 3.85 2.41 4.93 0 2.23-4.55-3.12-7.79-9.17-3.77-7.03-4.67-5.76-8.07 11.42-0.28 1.41-0.57-2.34-0.65-8.34-0.08-5.99 0.74-15.18 1.84-20.42 2.15-10.3 2.33-31.76 0.36-42.03-0.65-3.37-2-10.74-3.01-16.38-2.1-11.68-5.5-21.97-10.2-30.81-1.78-3.36-3.24-7.42-3.24-9.04 0-1.61-0.54-3.26-1.19-3.669-0.65-0.404-1.05-7.923-0.88-16.739l0.3-16.004h-3.17c-3.04 0-2.97-0.198 1.84-4.625l5.02-4.624-4.72 3.342c-5.6 3.962-6.71 4.177-4.99 0.963 1.14-2.136 0.81-2.344-3.27-2.021-2.5 0.199-5.65 1.359-7 2.58-1.35 1.22-2.45 1.659-2.45 0.974 0-0.684 2.45-2.632 5.45-4.329 3.91-2.215 4.81-3.211 3.2-3.534-1.23-0.247-5.76 1.688-10.06 4.3-7.23 4.396-7.76 5.026-7.07 8.463 0.59 2.955-0.04 4.529-3.08 7.711-2.1 2.199-3.81 4.633-3.79 5.41 0.01 0.777 1.04 0.088 2.29-1.529 1.24-1.618 2.61-2.594 3.04-2.169 1.27 1.277-0.41 5.751-2.17 5.751-0.9 0-2 0.947-2.44 2.104-0.71 1.836-0.54 1.877 1.34 0.321 2-1.657 1.99-1.484-0.02 2.421-1.9 3.665-1.94 4.441-0.33 6.055 1.6 1.594 1.95 1.598 2.55 0.028 0.39-1.002 2.61-2.784 4.93-3.958 2.64-1.331 3.63-1.501 2.63-0.452-1.97 2.08-2.11 4.203-0.19 3.016 1.03-0.634 1.03-0.153 0 1.762-1.86 3.47-1.9 6.782-0.05 4.085 1.08-1.584 1.25-1.471 0.94 0.64-0.22 1.507 0.28 2.437 1.23 2.247 1.95-0.39 2 0.37 0.27 3.61-1.49 2.79-0.05 3.3 2.5 0.87 1.1-1.04 0.96-0.16-0.38 2.49-1.29 2.57-1.59 4.39-0.79 4.89 0.71 0.43 1.28 0.08 1.28-0.79 0-0.86 0.27-1.3 0.6-0.96 0.34 0.33-0.5 2.88-1.85 5.66s-2.82 6.79-3.26 8.9l-0.79 3.85 2.17-4.17c4.41-8.47 6.28-2.16 2.01 6.81-2.43 5.1-2.76 8.94-1 11.77 0.53 0.86 0.33 2.72-0.43 4.15-0.76 1.42-0.85 2.59-0.21 2.59 0.65 0 1.54-1.01 1.97-2.25 0.44-1.23 1.16-3.04 1.6-4.02 0.51-1.12 0.27-1.45-0.64-0.89-1.98 1.23-1.76-1.95 0.33-4.7 4.12-5.42 4.08 0.07-0.08 9.71-3.97 9.22-3.2 10.69 1.46 2.75 3.27-5.59 5.62-18.09 3.1-16.53-1.75 1.08-1.37-0.33 1.52-5.55l2.66-4.8-0.84 5.77c-0.46 3.17-1 7.83-1.19 10.36-0.2 2.53-0.97 5.69-1.71 7.02-0.91 1.61-0.94 3.2-0.09 4.78 0.89 1.66 0.76 2.96-0.43 4.4-1.28 1.55-1.32 2.18-0.16 2.57 1.84 0.62 0.75 3.9-2.43 7.32-2.97 3.2-3.03 1.1-0.07-2.25 1.65-1.85 1.82-2.68 0.65-3.09-1-0.35-1.34-1.85-0.89-3.98l0.71-3.42-1.95 3.2c-2.36 3.88-2.57 5.61-0.54 4.36 1.06-0.66 1.2-0.21 0.48 1.52-0.56 1.35-1.16 3.9-1.34 5.66s-0.74 4.21-1.26 5.45c-1.65 3.95 0.48 2.4 3.99-2.91 1.88-2.84 3.68-4.89 4-4.57 0.33 0.33-1.79 3.99-4.71 8.15-3.44 4.91-5.26 8.87-5.19 11.29 0.06 2.06-0.28 5.33-0.76 7.27-1.34 5.51 2.44 4.48 9.39-2.57 3.6-3.64 5.12-4.69 3.8-2.61-2.79 4.4-2.82 5.67-0.06 3.41 1.86-1.53 1.85-1.3-0.15 1.77-2.53 3.88-3.61 4.58-2.46 1.6 1-2.61 0.06-2.43-5.09 0.96-9.65 6.34-9.55 6.25-5.78 5.5 1.87-0.38 4.46-0.99 5.76-1.37s-0.95 0.84-5 2.72c-4.06 1.87-7.38 3.89-7.38 4.49 0 1.08 3.36 0.26 5.77-1.41 1.8-1.24 5.77-2.59 5.77-1.96 0 0.29-3.46 2.37-7.68 4.62-6.51 3.47-8.16 5.1-10.78 10.65-1.71 3.61-3.49 8.83-3.96 11.61-0.77 4.51-0.64 4.87 1.17 3.37 1.11-0.93 2.02-2.66 2.02-3.86 0-3.56 3.99-14.17 5.33-14.17 0.68 0 0.8 0.72 0.27 1.6s1.89-0.63 5.37-3.35l6.34-4.96-6.92 6.83c-8.97 8.85-11.31 16.13-7.74 24.11 1.3 2.88 2.96 5.25 3.7 5.25s1.34 0.68 1.34 1.5c0 2.8-6.26-4.36-7.08-8.08-0.45-2.04-1.25-3.43-1.78-3.1-1.46 0.9-1.49 9.46-0.05 10.36 0.7 0.43 0.92 1.34 0.49 2.03-0.42 0.68-0.06 2.1 0.81 3.14 0.86 1.05 1.27 2.2 0.9 2.57-0.67 0.67-6.29-8.42-7.78-12.59-0.91-2.52 1.1-3.13 2.12-0.64 0.36 0.88 0.33-1.28-0.07-4.81-0.41-3.52-0.97-6.68-1.26-7.01-1.11-1.26-2.87 3.28-2.15 5.57 0.46 1.49 0.24 2.09-0.58 1.58-2.62-1.62-2.89 1.89-0.79 10.42 1.18 4.77 3.33 9.97 4.78 11.56 2.68 2.93 1.41 4.15-1.4 1.34-1.19-1.2-1.54-1.18-1.54 0.07 0 0.92-2 0.08-4.72-1.99l-4.72-3.59 2.31 3.52c1.26 1.94 2.96 3.62 3.76 3.72 0.8 0.11 2.09 0.26 2.88 0.34 0.78 0.08 2.23 0.8 3.2 1.6 0.98 0.8 4.02 2.06 6.76 2.81l4.97 1.36-2.73-2.91c-4.35-4.64-3.17-5.59 1.43-1.16 3.33 3.21 5.97 4.32 13.14 5.51 4.93 0.83 11.28 1.99 14.1 2.59 7.38 1.57 21.66 0.39 32.04-2.65zm-67.7-12.55c-1.99-2.21-6.45-13.08-5.36-13.08 0.29 0 1.71 2.68 3.16 5.96 1.45 3.27 3.64 6.72 4.86 7.65 1.23 0.93 1.61 1.71 0.83 1.73-0.77 0.03-2.34-0.99-3.49-2.26zm163.2-4.54c1.76-1.69 3.6-2.85 4.08-2.58 0.49 0.28 1.48-0.51 2.21-1.76 1.12-1.93 1.33-1.96 1.36-0.23 0.05 2.65-4.42 6.67-8.03 7.22-2.77 0.41-2.76 0.36 0.38-2.65zm-59.8-0.63c1.16-1.28 2.12-3.3 2.12-4.48s0.53-2.14 1.19-2.14c0.73 0 0.73 1.59 0 4.15-0.66 2.29-1.19 4.31-1.19 4.49s-0.96 0.33-2.12 0.33c-1.98 0-1.98-0.16 0-2.35zm57.1-4.75c2.19-2.49 3.98-5.66 3.98-7.05 0-1.38 0.61-2.51 1.36-2.51 0.74 0 1.02 0.53 0.62 1.19-0.41 0.65-0.16 1.55 0.56 1.99 2.11 1.31-2.23 8.35-5.14 8.35-1.39 0-2.53 0.58-2.53 1.28 0 0.71-0.63 1.28-1.41 1.28s0.37-2.03 2.56-4.53zm-19.04-2.84l0.05-6.08 1.91 3.53c1.44 2.65 1.58 4.16 0.55 6.08-2.07 3.86-2.57 3.16-2.51-3.53zm-28.3 2.25c-0.12-2.95-0.22-3-1.23-0.64-0.89 2.05-1.12 1.61-1.2-2.25-0.1-5.44 1.85-6.31 3.93-1.74 1 2.2 1 3.74 0.01 5.45-1.26 2.17-1.4 2.1-1.51-0.82zm-102.27-4.49c-1.38-1.76-3.15-3.2-3.93-3.2-1.66 0-1.75-7.16-0.14-10.9 0.85-1.99 1.12-1.35 1.19 2.84 0.07 4.14 1.02 6.47 4.07 9.94 2.19 2.49 3.38 4.53 2.66 4.53-0.73 0-2.46-1.45-3.85-3.21zm109.04 0.34c0.14-2.03 0.72-3.02 1.38-2.36s0.56 2.12-0.25 3.5c-1.21 2.08-1.35 1.94-1.13-1.14zm2.76-0.89c0.07-2.03 0.56-3.42 1.09-3.09 1.32 0.81 1.22 5.26-0.13 6.09-0.6 0.37-1.04-0.98-0.96-3zm11.18 1.83c-0.16-2.14-0.4-2.24-1.44-0.64-0.93 1.45-1.24 0.82-1.26-2.52-0.02-4.05 0.16-4.26 2.02-2.4 1.17 1.17 1.78 3.33 1.45 5.08-0.47 2.48-0.61 2.57-0.77 0.48zm44.39 0.46c1.73-1.74 2.22-7.51 0.63-7.51-1.56 0-4.32 5.12-3.48 6.46 0.41 0.68-0.16 1.23-1.27 1.23-1.8 0-1.83-0.41-0.26-3.52 0.98-1.94 2.1-6.43 2.5-9.98 0.68-6.03 0.43-6.8-3.76-11.54-2.61-2.94-4.12-4-3.59-2.51 0.5 1.41 1.01 3.52 1.14 4.7 0.12 1.17 0.9 2.94 1.72 3.93 1.6 1.93 1.56 9.94-0.04 9.95-0.53 0-0.96-0.73-0.96-1.62s-2.07-4.69-4.59-8.44c-4.7-6.97-5.36-9.94-1.19-5.33 3.61 3.99 4.71 3.04 2.02-1.75l-2.43-4.33h3.07c5.97 0 13.37 14.05 13.37 25.38 0 3.38-0.66 5.04-2.24 5.64-1.8 0.69-1.93 0.54-0.64-0.76zm-164.26-5.97c-1.67-3.22-1.6-4.09 0.63-8.65 1.37-2.78 2.15-3.91 1.73-2.5-2.13 7.28-2.11 9.76 0.1 12.21 1.26 1.39 1.64 2.53 0.85 2.53-0.8 0-2.29-1.61-3.31-3.59zm65.24 2.31c0.43-0.7-0.11-2.56-1.21-4.13s-1.99-4.07-1.99-5.57-1.16-3.77-2.57-5.04c-2.83-2.56-3.48-6.28-0.96-5.46 0.88 0.29 2.41 2.21 3.4 4.27s2.2 4.04 2.7 4.39c3.34 2.41 4.2 12.82 1.05 12.82-0.67 0-0.86-0.58-0.42-1.28zm89.26-1.99c-0.1-1.44-0.82-3.27-1.6-4.05-0.79-0.79-1.17-2.2-0.86-3.14 0.9-2.7 3.82 3.72 3.18 7-0.51 2.62-0.56 2.63-0.72 0.19zm-54.56-1.83c-2.62-9.22-2.66-8.63 0.38-5.92 2.83 2.53 3.62 6.48 1.54 7.76-0.65 0.4-1.52-0.42-1.92-1.84zm69.87-3.29c0.1-5.01 0.11-5.03 1.42-1.43 0.94 2.58 0.91 4.05-0.1 5.06-1.04 1.05-1.4 0.08-1.32-3.63zm-64.75-2.77c-0.7-1.83-0.55-1.97 0.72-0.72 0.87 0.87 1.27 1.91 0.87 2.3-0.39 0.4-1.11-0.32-1.59-1.58zm-108.4-3.74c0-1.42 6.23-10.73 7.18-10.73 0.74 0 0.09 1.14-4.24 7.54-1.61 2.39-2.94 3.83-2.94 3.19zm14.1-22.07c0-0.6 1.25-2.18 2.77-3.53l2.76-2.44-2.27 3.53c-2.34 3.63-3.26 4.32-3.26 2.44zm-2.56-13.66c1.66-1.76 3.63-3.2 4.39-3.2s-0.3 1.44-2.35 3.2c-4.79 4.12-5.91 4.12-2.04 0zm-1.28-3.85c0.88-1.05 1.2-1.92 0.72-1.92-0.49 0 0.69-2.88 2.61-6.41s3.76-6.15 4.09-5.83c0.32 0.33-0.64 2.67-2.13 5.21-3.66 6.19-3.44 8.15 0.48 4.47 1.76-1.66 3.2-2.3 3.2-1.43s0.64 1.19 1.41 0.71c0.99-0.61 0.98-0.06-0.04 1.85-1.71 3.19-2.92 3.63-1.77 0.64 0.66-1.72 0.36-1.84-1.75-0.71-1.4 0.75-3.29 2.26-4.2 3.35-0.91 1.1-2.23 2-2.93 2-0.72 0-0.58-0.85 0.31-1.93zm-1.28-47.99c0-0.66 0.57-1.55 1.26-1.99 0.73-0.44 0.95 0.07 0.51 1.21-0.85 2.22-1.77 2.63-1.77 0.78zm5.22-7.12c0-0.71 0.82-2.73 1.83-4.49 1-1.76 1.83-2.63 1.83-1.92 0 0.7-0.83 2.72-1.83 4.49-1.01 1.76-1.83 2.62-1.83 1.92zm-16.76-38.248c0-0.559 0.62-2.17 1.37-3.579 0.76-1.41 1.58-3.657 1.84-4.993 0.64-3.287 7.19-14.349 8.02-13.524 0.36 0.363-0.29 2.099-1.44 3.858-2.46 3.759-2.68 5.082-0.62 3.809 1.66-1.028 1.59-0.89-4.79 8.793-2.41 3.659-4.38 6.195-4.38 5.636zm7.4-13.105c-0.43-0.429-1.47 0.566-2.32 2.213-1.47 2.862-1.43 2.896 0.78 0.781 1.28-1.217 1.97-2.564 1.54-2.994zm8 10.73c-0.01-1.192 0.56-2.524 1.26-2.96 1.63-1.002 1.63 0.695 0 3.205-1.07 1.657-1.24 1.623-1.26-0.245zm-2.54-2.482c-0.02-1.148 0.82-2.804 1.88-3.682 2.47-2.045 2.49 0.041 0.04 3.28-1.58 2.09-1.89 2.154-1.92 0.402zm-0.04-8.439c0-0.736 1.01-2.13 2.24-3.097 2.08-1.627 2.1-1.567 0.37 0.804-1.04 1.41-2.05 2.804-2.25 3.098s-0.36-0.068-0.36-0.805zm-8.97-3.73c0-0.673 1.74-3.22 3.87-5.661l3.88-4.438-3.31 5.094c-3.92 6.03-4.44 6.623-4.44 5.005zm7.69-0.262c0-0.582 1.53-2.457 3.4-4.166l3.41-3.107-3.01 4.165c-3.12 4.334-3.8 4.888-3.8 3.108zm-6.41-7.116c0-0.267 1.01-1.276 2.24-2.244 2.03-1.594 2.08-1.549 0.49 0.484-1.68 2.136-2.73 2.815-2.73 1.76zm-39.737 189.04c0-0.63-0.836-1.46-1.857-1.86-1.242-0.47-1.621-0.09-1.145 1.15 0.778 2.03 3.002 2.55 3.002 0.71zm19.427-6.32c-1.45-3.81-2.22-8.73-2.01-12.83 0.2-3.95-0.16-6.35-0.88-5.9-0.67 0.41-1.11 3.79-0.99 7.52 0.12 3.72-0.11 7.29-0.5 7.93-1.18 1.9 2.62 9.46 4.75 9.46 1.74 0 1.69-0.76-0.37-6.18zm-9.014-6.98c-1.265-1.25-1.413-1.11-0.717 0.72 0.481 1.27 1.198 1.98 1.591 1.58 0.4-0.39 0-1.43-0.874-2.3zm-6.567-4.78c0-0.71-0.611-1.28-1.358-1.28s-1.001 0.57-0.565 1.28c0.436 0.7 1.046 1.28 1.357 1.28s0.566-0.58 0.566-1.28zm127.94-3.63c0.25-2.57-0.56-5.43-2.21-7.74-1.43-2.01-2.19-4.08-1.68-4.58 1.25-1.26-3.47-4.56-6.51-4.56-1.85 0-2.22 0.55-1.48 2.24 0.53 1.24 1.24 4.13 1.56 6.42 0.92 6.53 2.91 6.28 2.29-0.29-0.31-3.34-0.05-5.55 0.62-5.14 1.6 0.99 3.65 9.52 3.22 13.43-0.42 3.89 0.32 5.43 2.3 4.78 0.82-0.27 1.67-2.32 1.89-4.56zm-8.74 0.99c0-0.66-0.57-1.21-1.28-1.21-0.7 0-1.28 0.9-1.28 2s0.58 1.64 1.28 1.21c0.71-0.44 1.28-1.34 1.28-2zm53.84-1.21c-0.82-1.53-1.78-2.49-2.13-2.14s0.03 1.89 0.85 3.43c0.82 1.53 1.78 2.49 2.13 2.14s-0.03-1.9-0.85-3.43zm6.27-0.23c0.79 1.28 1.37 1.2 2.69-0.39 1.38-1.67 1.37-2.95-0.08-7.35-2.03-6.15-6.98-12.53-9.71-12.53-1.04 0-1.53-0.58-1.09-1.29 1.04-1.68-2.7-1.64-5.88 0.06-2.39 1.28-2.32 1.5 1.36 4.6 2.13 1.8 3.87 4.22 3.87 5.39-0.01 1.17 1.29 5.1 2.88 8.74 2.55 5.81 3.02 6.28 3.92 3.87 0.75-1.99 1.3-2.28 2.04-1.1zm-3.07-4.61c-0.7-0.51-2.14-2.04-3.2-3.41-1.75-2.25-1.72-2.4 0.32-1.64 2.82 1.06 2.86-0.11 0.12-3.14-1.21-1.35-1.5-2.35-0.67-2.35 1.81 0 5.65 7.25 5.11 9.67-0.22 0.99-0.97 1.38-1.68 0.87zm-172.4 4.2c0-0.97-0.577-2.13-1.282-2.56-0.73-0.45-1.282 0.65-1.282 2.56s0.552 3.02 1.282 2.57c0.705-0.44 1.282-1.59 1.282-2.57zm6.786-8.1c-1.98-2.02-2.17-4.07-0.38-4.07 0.71 0 1.33 1.01 1.39 2.24 0.07 1.23 0.63 0.51 1.27-1.6 1.2-4.02 0.5-8.33-1.34-8.33-0.59 0-0.79 1.08-0.44 2.41 0.34 1.33-0.09 2.87-0.96 3.41-1.1 0.67-1.27 0.45-0.56-0.7 0.69-1.12 0.54-1.37-0.46-0.75-0.83 0.51-1.2 1.43-0.82 2.03 0.38 0.61 0.1 1.47-0.62 1.91-0.716 0.45-1.294 1.78-1.283 2.98 0.017 1.86 0.191 1.9 1.263 0.24 1.49-2.3 1.73-1.15 1.49 7.05l-0.16 5.13 1.64-5.13c1.33-4.18 1.33-5.44-0.03-6.82zm121.39 6.25c0-0.59-1.01-2.15-2.24-3.48s-1.81-1.85-1.28-1.17c0.53 0.69 0.96 2.61 0.96 4.27 0 1.69 0.56 2.68 1.28 2.23 0.71-0.43 1.28-1.27 1.28-1.85zm30.38-3.25c-0.25-2.46-1.5-5.61-2.77-7.02-4.56-5.03-11.39-4.88-7.85 0.18 1.01 1.44 1.69 3.28 1.51 4.08-0.19 0.8-0.1 1.02 0.2 0.48 0.3-0.53 1.07-0.64 1.71-0.24 0.65 0.4 1.18 0.11 1.18-0.63 0-3.02 2.5-1.08 4.02 3.13 2.05 5.66 2.58 5.67 2 0.02zm-170.09 0.54c0-1.45-0.577-2.28-1.282-1.85-0.705 0.44-1.282 1.63-1.282 2.64 0 1.02 0.577 1.85 1.282 1.85s1.282-1.19 1.282-2.64zm10.169-11.46c0.005-1.33-0.442-1.13-1.442 0.64-0.798 1.41-2.222 3.03-3.166 3.59s-1.713 2.01-1.709 3.2c0.004 1.61 0.84 1.17 3.158-1.66 1.733-2.12 3.155-4.71 3.159-5.77zm17.123 5.13c0.37-1.42 0.14-2.25-0.49-1.85-0.64 0.39-1.17 1.55-1.17 2.56 0 2.66 0.87 2.28 1.66-0.71zm9.86-12.17c1.5-0.93 1.77-3.29 0.34-3.06-2.54 0.4-4.24-0.28-3.54-1.42 0.5-0.8-0.26-0.88-2.06-0.21-1.56 0.58-3.35 2.43-3.97 4.11l-1.13 3.06 3.27-3.07c1.79-1.69 3.26-2.39 3.26-1.57 0 0.83-0.51 1.51-1.14 1.51s-1.53 1-1.99 2.21c-0.62 1.61 0.04 1.37 2.42-0.86 4.16-3.9 4.18-2.55 0.07 3.5-1.76 2.6-3.17 5.59-3.14 6.66s1.46-0.75 3.18-4.05 3.71-6.36 4.43-6.81zm106.39 6c-0.02-1.86-0.19-1.9-1.26-0.24-1.63 2.51-1.63 4.21 0 3.2 0.7-0.43 1.27-1.76 1.26-2.96zm-135.85-0.88c0-0.98-0.571-2.13-1.268-2.56-0.752-0.46-0.924 0.11-0.423 1.42 0.569 1.48 0.36 1.9-0.641 1.28-0.969-0.6-1.22-0.23-0.724 1.07 0.876 2.28 3.056 1.42 3.056-1.21zm18.141-9.62c1.38 0 2.16-0.57 1.72-1.28-0.52-0.85-1.64-0.83-3.32 0.07-1.4 0.75-3.81 1-5.37 0.56-2.23-0.63-2.43-0.51-0.92 0.55 1.3 0.91 1.41 1.35 0.32 1.37-0.88 0.01-1.6 0.65-1.6 1.42s-1.15 2.86-2.563 4.66c-4.934 6.27-2.509 5.69 3.323-0.8 3.29-3.66 7-6.55 8.41-6.55zm130.55 8.9c0-0.75-0.58-1-1.29-0.56-0.7 0.43-1.28 1.04-1.28 1.35s0.58 0.57 1.28 0.57c0.71 0 1.29-0.61 1.29-1.36zm-145.96-6.01c1.594-2.03 1.549-2.08-0.484-0.49-1.234 0.97-2.243 1.98-2.243 2.25 0 1.05 1.052 0.37 2.727-1.76zm96.614-0.32c-0.44-0.71-1.05-1.28-1.36-1.28s-0.57 0.57-0.57 1.28c0 0.7 0.62 1.28 1.36 1.28 0.75 0 1-0.58 0.57-1.28zm-10.26-6.41c-0.43-0.71-1.37-1.28-2.07-1.28-0.71 0-0.93 0.57-0.49 1.28 0.43 0.7 1.37 1.28 2.07 1.28 0.71 0 0.93-0.58 0.49-1.28zm33.97 0c0-0.71-0.61-1.28-1.36-1.28-0.74 0-1 0.57-0.56 1.28 0.43 0.7 1.04 1.28 1.35 1.28 0.32 0 0.57-0.58 0.57-1.28zm56.55-2.15c-1.11-1.92-1.36-1.97-1.39-0.31-0.05 2.16 1.3 4.1 2.21 3.2 0.3-0.3-0.07-1.6-0.82-2.89zm-52.7-2.34c-1.77-2.12-5.13-2.6-5.13-0.73 0 1.05 2.26 2.06 5.6 2.51 0.62 0.08 0.4-0.72-0.47-1.78zm-39.1-0.64c-0.43-0.7-1.33-1.28-2-1.28-0.66 0-1.2 0.58-1.2 1.28 0 0.71 0.9 1.28 1.99 1.28 1.1 0 1.65-0.57 1.21-1.28zm80.85-2.27c-2.22-2.12-2.25-2.08-0.78 0.78 0.84 1.65 1.88 2.64 2.31 2.21s-0.26-1.77-1.53-2.99zm-16.67 0.03c-0.18-1.24-1.33-2.44-2.56-2.68-1.89-0.37-2.01-0.03-0.8 2.24 1.75 3.26 3.81 3.53 3.36 0.44zm-19.96-0.32c0-0.71-2.16-1.22-4.8-1.13-4.79 0.15-4.79 0.15-0.97 1.13 5.55 1.41 5.77 1.41 5.77 0zm6.41-8.33c-3.75-3.99-3.97-3.99-2.12-0.01 0.81 1.75 2.3 3.2 3.31 3.2 1.26 0.01 0.89-0.98-1.19-3.19zm34.61 2.06c0-0.63-0.95-1.51-2.1-1.96-1.76-0.67-1.84-0.48-0.49 1.15 1.85 2.22 2.59 2.45 2.59 0.81zm-9.61-1.42c-0.44-0.71-1.77-1.28-2.96-1.26-1.87 0.01-1.91 0.19-0.25 1.26 2.51 1.62 4.21 1.62 3.21 0zm-20.44-4.53c-1.37-1.03-3.1-1.86-3.84-1.84-0.75 0.02-0.24 0.89 1.13 1.92 1.37 1.04 3.1 1.87 3.84 1.84 0.75-0.02 0.24-0.88-1.13-1.92zm-14.57-1.48c-0.93-0.37-2.03-0.32-2.46 0.11-0.43 0.42 0.33 0.72 1.68 0.67 1.5-0.06 1.8-0.37 0.78-0.78zm-29.72-4.32c0-0.75-0.58-1-1.29-0.57-0.7 0.44-1.28 1.05-1.28 1.36s0.58 0.57 1.28 0.57c0.71 0 1.29-0.62 1.29-1.36zm-55.79-47.74c1.09-2.61 1.73-4.74 1.42-4.74-0.78 0-4.6 7.79-4.6 9.38 0 2.02 1.02 0.53 3.18-4.64zm-3.29-10.51c0.04-0.7-0.48-0.41-1.17 0.64-1.06 1.65-1.24 1.6-1.26-0.32-0.01-1.23-0.57-2.24-1.23-2.24-0.73 0-0.64 1.67 0.21 4.1 1.26 3.61 1.54 3.8 2.41 1.6 0.53-1.37 1.01-3.07 1.04-3.78zm-4.07-7.37c-0.35-2.29 0.16-5.71 1.12-7.59 1.36-2.67 1.4-3.55 0.16-4s-1.21-1.2 0.13-3.453c1.26-2.133 1.33-3.256 0.26-4.322-1.71-1.71-4.04 1.152-3.05 3.739 0.34 0.874 0 1.97-0.76 2.435-0.75 0.461-1.37 2.081-1.37 3.581 0 2.68 0.04 2.68 1.89 0.24 2.49-3.29 2.51-0.64 0.02 2.91-1.22 1.75-1.46 3.06-0.64 3.57 0.71 0.44 1.3 2.21 1.3 3.93s0.35 3.13 0.78 3.13c0.44 0 0.51-1.88 0.16-4.17zm4.65 2.24c0.4-1.05 0.18-1.92-0.51-1.92-0.68 0-1.24 0.87-1.24 1.92 0 1.06 0.23 1.93 0.51 1.93 0.27 0 0.83-0.87 1.24-1.93zm-0.47-7.76c0-1.02-0.57-1.85-1.28-1.85-0.7 0-1.28 1.19-1.28 2.64s0.58 2.28 1.28 1.85c0.71-0.44 1.28-1.63 1.28-2.64zm-6.51-34.812c0.29-0.2-0.37-0.363-1.47-0.363s-2.36 0.947-2.8 2.104c-0.71 1.832-0.52 1.879 1.46 0.363 1.25-0.958 2.51-1.905 2.81-2.104zm-3.08-7.821c-0.38-0.376 0.58-2.024 2.11-3.662 1.54-1.639 2.34-2.98 1.78-2.98s-0.29-0.879 0.6-1.953c2.5-3.015 0.6-3.638-3.31-1.081l-3.5 2.298 1.53-2.872c0.85-1.58 2.04-2.562 2.65-2.184 0.62 0.379 1.89-0.06 2.82-0.975 2.26-2.201 12.26-7.337 14.25-7.313 1.01 0.013 0.88 0.503-0.36 1.386-1.48 1.052-1.12 1.189 1.6 0.597 2.39-0.522 3.53-0.247 3.54 0.857 0.02 1.137 0.31 1.197 0.96 0.197 1.14-1.727 11.87-7.299 12.62-6.551 0.29 0.292-1.82 1.589-4.69 2.883s-5.78 3.403-6.47 4.687c-1.66 3.118 0.43 2.974 3.33-0.23 2.58-2.848 5.66-3.599 3.35-0.816-1.17 1.414-0.83 1.629 1.79 1.128 1.78-0.34 3.54-1.126 3.93-1.747 0.38-0.62 1.38-1.12 2.22-1.109 1.01 0.013 0.92 0.403-0.24 1.139-0.97 0.615-1.35 1.787-0.85 2.604 0.66 1.064 2.18 0.742 5.37-1.139 2.44-1.443 4.85-2.606 5.33-2.584 0.49 0.021-0.12 0.627-1.35 1.345-1.24 0.719-2.24 1.887-2.24 2.597s1.28 0.393 2.84-0.704c4.02-2.813 5.68-2.48 2.91 0.583-1.62 1.786-3.75 2.51-6.93 2.353-2.53-0.124-5.7 0.256-7.05 0.844-1.73 0.756-2.18 0.634-1.53-0.416 0.62-1.001 0.2-1.21-1.28-0.641-1.5 0.573-1.9 0.362-1.28-0.655 1.16-1.866 0.09-1.908-3.23-0.129-2.03 1.085-2.25 1.749-1.07 3.178 1.08 1.292 2.17 1.452 3.83 0.561 1.59-0.853 2.48-0.787 2.81 0.211 0.36 1.084 1.19 1.08 3.23-0.014 1.65-0.884 3.04-0.99 3.49-0.268 0.41 0.661 2.6 0.972 4.88 0.691 2.28-0.28 9.91-1.127 16.96-1.881 21.57-2.308 32.69-4.955 32.69-7.785 0-0.937-2.61-1.277-7.59-0.99-8.5 0.49-9.88-0.156-7.96-3.738 1.06-1.985 0.63-3.31-2.2-6.701-2.96-3.537-3.94-4.007-6.04-2.881-3.84 2.051-8.72 0.54-10.51-3.249-2.3-4.858-2.14-5.104 3.76-6.102 4.33-0.731 5.67-0.47 7.01 1.358 0.91 1.245 1.35 2.755 0.98 3.356s0.76 1.093 2.52 1.093c2.49 0 3.56 0.991 4.82 4.486 0.89 2.467 2.16 4.486 2.83 4.486 0.66 0 1.84 0.733 2.62 1.63 0.96 1.098 3.51 1.412 7.83 0.961l6.41-0.668-7.3-5.768c-4.01-3.173-7.33-6.235-7.37-6.805-0.04-0.571 0.6-0.626 1.41-0.123 0.88 0.54 1.14 0.355 0.64-0.453-0.47-0.753-3.15-1.758-5.97-2.234-3.94-0.665-5.12-1.445-5.12-3.381 0-2.768-9.17-7.568-9.95-5.212-0.26 0.781-1.91 0.549-4.2-0.594-2.07-1.033-4.38-1.494-5.15-1.023-0.76 0.47-2.19-0.212-3.18-1.517-1.7-2.2487-1.79-2.2146-1.83 0.66-0.04 2.977-0.1 2.992-3.41 0.826-1.92-1.259-3.71-1.691-4.17-1.006-0.44 0.659-2.53 1.152-4.64 1.096-2.84-0.075-3.8 0.459-3.68 2.041 0.13 1.839-0.31 1.932-3.11 0.656-2.53-1.154-3.38-1.131-3.79 0.1-0.29 0.873-1.63 1.587-2.99 1.587-2.74 0-3.09 1.547-1.16 5.143 0.99 1.858 0.77 2.719-0.96 3.755-1.71 1.019-0.4 1.263 5.44 1.01 5.28-0.23 7.59-0.831 7.37-1.917-0.18-0.87 0.25-1.582 0.96-1.582 1.87 0 1.57 4.668-0.32 4.88-0.89 0.098-5.1 0.382-9.38 0.63-8.72 0.507-11.31 1.585-10.28 4.282 0.39 1.013-0.05 2.133-0.98 2.489-2.03 0.777-2.27 4.371-0.3 4.41 0.76 0.015-2.07 1.812-6.3 3.993-9.92 5.115-14.41 8.338-16.15 11.605-1.03 1.911-1.03 2.391 0 1.758 1.71-1.057 1.88 0.848 0.22 2.548-0.65 0.67-0.86 2.817-0.48 4.771 0.56 2.877 1.04 3.269 2.49 2.061 0.99-0.821 1.5-1.801 1.12-2.177zm-3.22-2.61c0-1.771 3.57-4.336 5.26-3.774 0.82 0.275-0.03 1.496-1.88 2.714-1.86 1.218-3.38 1.695-3.38 1.06zm59.93-13.207c0.82-0.816 3.33-1.594 5.58-1.728 3.73-0.222 3.88-0.089 1.73 1.485-3.02 2.208-9.49 2.423-7.31 0.243zm-21.37-4.11c0.29-0.257 1.97-1.154 3.73-1.993 3.03-1.439 3.07-1.412 0.72 0.467-2.04 1.636-6.21 3.065-4.45 1.526zm-11.01-1.955c0.71-0.709 3.59-2.245 6.41-3.413 6.7-2.775 4.85-0.897-2.22 2.264-3.01 1.341-4.89 1.859-4.19 1.149zm2.57-5.955c2.11-0.969 4.71-1.743 5.77-1.721 1.05 0.022-0.1 0.817-2.57 1.767-5.85 2.254-8.15 2.22-3.2-0.046zm-3.21-1.794c0-1.015 6.63-2.834 7.44-2.04 0.21 0.208-1.37 0.993-3.53 1.742-2.15 0.75-3.91 0.884-3.91 0.298zm18.59-20.591c-0.44-0.705-0.18-1.282 0.56-1.282 0.75 0 1.36 0.577 1.36 1.282s-0.25 1.282-0.56 1.282-0.92-0.577-1.36-1.282zm-28.52 39.778c0.88 0.023 0.24 1.177-1.42 2.563-3.33 2.77-2.74 3.293 1.28 1.141 1.43-0.761 2.28-2.177 1.9-3.157-0.38-0.978 0.73-2.886 2.45-4.242 3.11-2.449 3.12-2.469 0.39-3.181-1.52-0.399-4.92 0.398-7.67 1.803-5.37 2.738-6.54 4.464-2.26 3.346 2.49-0.65 2.53-0.537 0.64 1.554-2.97 3.287-2.5 5.719 0.52 2.694 1.41-1.41 3.29-2.545 4.17-2.521zm-9.45-7.413c0.69-1.234 1.59-2.099 1.99-1.923 1.65 0.724 3.05 0.192 5.83-2.216 1.61-1.396 3.33-2.286 3.82-1.979 0.5 0.306 0.91-0.298 0.91-1.344s-0.34-1.705-0.75-1.463-2.68 1.199-5.04 2.127c-2.7 1.064-3.73 2.033-2.77 2.622 1.07 0.663 0.9 1.17-0.59 1.74-1.22 0.47-1.77 0.278-1.31-0.463 1.01-1.631-0.18-1.61-3.3 0.06-1.36 0.73-2.48 2.172-2.48 3.204 0 2.577 2.17 2.363 3.69-0.365zm138.59-2.243c-0.88-1.058-2.17-1.923-2.88-1.923s-0.57 0.85 0.32 1.923c0.87 1.057 2.17 1.922 2.87 1.922 0.72 0 0.58-0.85-0.31-1.922zm5.13 1.438c0-0.266-1.01-1.275-2.25-2.243-2.03-1.594-2.07-1.549-0.48 0.484 1.67 2.135 2.73 2.814 2.73 1.759zm-19.87-3.361c-1.28-1.41-2.52-2.564-2.77-2.564s0.26 1.154 1.14 2.564 2.13 2.564 2.78 2.564c0.64 0 0.12-1.154-1.15-2.564zm4.95 0.641c-0.41-1.058-1.32-1.923-2.04-1.923-0.75 0-0.63 0.815 0.29 1.923 0.88 1.057 1.8 1.923 2.04 1.923 0.25 0 0.11-0.866-0.29-1.923zm3.82-0.055c-0.41-1.088-1.03-1.703-1.37-1.367-0.33 0.336-0.23 1.226 0.24 1.978 1.26 2.045 2 1.647 1.13-0.611zm-24.63-2.21c-1.27-1.256-1.42-1.109-0.72 0.718 0.48 1.264 1.2 1.976 1.59 1.581 0.4-0.395 0-1.429-0.87-2.299zm12.65 2.422c0-0.266-1-1.276-2.24-2.243-2.03-1.595-2.08-1.549-0.48 0.484 1.67 2.135 2.72 2.814 2.72 1.759zm-113.91-4.727c4.28-2.161 7.49-4.227 7.12-4.59-0.36-0.364-2 0.085-3.65 0.997s-3.52 1.504-4.16 1.316c-2.18-0.636-8.45 2.66-8.45 4.439 0 2.388 0.24 2.333 9.14-2.162zm106.22 3.445c0-0.266-0.87-1.213-1.95-2.104-1.63-1.354-1.82-1.275-1.14 0.484 0.69 1.797 3.09 3.056 3.09 1.62zm-109.61-7.645c1.04-1.043 2.99-1.612 4.32-1.263 1.66 0.434 3.28-0.572 5.15-3.196 3.26-4.572 3.36-5.357 0.73-5.357-2.94 0-15.95 6.386-15.95 7.829 0 0.728 1.1 0.647 2.68-0.197 1.47-0.787 2.96-1.145 3.31-0.796 0.34 0.35-1.44 1.62-3.98 2.824-2.54 1.203-4.9 2.657-5.26 3.231-1.06 1.715 6.95-1.02 9-3.075zm3.23-4.689c1.05-0.683 2.5-1.242 3.2-1.242 0.71 0 0.42 0.559-0.64 1.242-1.06 0.684-2.5 1.243-3.21 1.243-0.7 0-0.41-0.559 0.65-1.243zm7.15-6.995c4.17-1.733 6.43-3.184 5.02-3.225-2.13-0.061-2.24-0.284-0.64-1.334 1.35-0.885 0.59-1.013-2.56-0.427-7.64 1.417-10.2 2.972-3.85 2.336l5.77-0.577-6.3 1.586c-3.47 0.873-6.55 2.307-6.84 3.189-0.76 2.277 0.8 2.02 9.4-1.548zm124.87 269.71c4.58-0.57 16.69-1.43 26.92-1.91 10.22-0.48 19.02-1.14 19.54-1.46 0.53-0.32 0.97 0.01 0.97 0.72 0 1.94-5.88 2.51-32.05 3.12-15.32 0.36-20.76 0.19-15.38-0.47zm-94.54-2.83c0.68-2.08 7.38-2.91 7.38-0.92 0 1.06 2.29 1.25 8.01 0.65 13.05-1.37 21.32-3.44 20.65-5.17-0.32-0.85 0.93-2.55 2.79-3.77 3.75-2.46 5.52-2.01 2.83 0.72-0.96 0.97-2.09 2.7-2.53 3.84-1.71 4.54-40.61 9.16-39.13 4.65zm-82.988-0.95c-8.46-0.45-16.246-1.17-17.304-1.61-1.057-0.44-5.96-1.09-10.895-1.45-15.362-1.13-29.297-3.3-30.7-4.79-0.97-1.03-0.63-1.22 1.219-0.68 1.41 0.41 6.024 1.07 10.254 1.48 10.207 0.96 52.035 4.48 67.614 5.68 0.53 0.04 0.96 0.65 0.96 1.36 0 0.7-1.3 1.18-2.88 1.05-1.59-0.12-9.808-0.59-18.268-1.04zm127.54-7.75c0-0.62 2.16-1.45 4.81-1.86 14.3-2.22 14.54-2.84 0.96-2.47-7.76 0.22-12.66 0.11-10.9-0.23 1.77-0.35 4.36-1.14 5.77-1.77 1.41-0.62 9.49-1.39 17.95-1.71 15.24-0.56 15.32-0.55 9.27 1.39-3.36 1.08-5.85 2.22-5.53 2.54 0.52 0.52 44.4-4.24 51.69-5.61 5.7-1.06 2.75-2.65-3.2-1.72-3.35 0.52-11.57 1.27-18.27 1.67-11.95 0.71-11.86 0.68 5.13-1.66 9.52-1.31 17.59-2.45 17.95-2.52 0.35-0.08-0.09-0.6-0.97-1.16-1.16-0.74-0.61-1.75 1.97-3.67 4.1-3.03 12.67-5.39 11.26-3.1-0.49 0.78-1.78 1.42-2.88 1.42-1.67 0-1.73 0.33-0.36 1.99 1.4 1.68 1.21 2.1-1.18 2.72-3.78 0.99-2.75 3.43 1.87 4.43 2.06 0.44 3.02 0.88 2.14 0.96s-2.75 1.31-4.16 2.72-4.21 2.56-6.23 2.56c-2.01 0-11.09 1.1-20.18 2.44-17.87 2.65-56.91 4.45-56.91 2.64zm41.66-2.44l5.12-1.06-5.12-0.06c-2.82-0.03-7.72 0.41-10.9 0.98l-5.77 1.02 5.77 0.09c3.18 0.05 8.08-0.39 10.9-0.97zm13.63-1.95c3.4-1.48 3.72-1.88 1.53-1.92-3.58-0.07-6.83 1.19-6.83 2.65 0 1.5 0.24 1.47 5.3-0.73zm34.87-16.4c-1.07-1.74 2.64-2.21 9.18-1.15l6.41 1.04-7.5 0.54c-4.12 0.3-7.76 0.1-8.09-0.43zm-291.33-14.92c-1.224-0.82 2.313-0.99 10.373-0.51 7.472 0.44 13.154 0.21 14.605-0.6 1.802-1.01 0.923-1.17-3.644-0.65-4.02 0.45-6.019 0.2-6.019-0.77 0-0.8 0.577-1.45 1.282-1.45s1.282-0.58 1.282-1.28c0-0.74-4.034-1.28-9.538-1.28-5.856 0-9.893-0.58-10.457-1.49-1.26-2.04 23.2-0.51 27.996 1.75 3.897 1.84 4.022 2.11 2.282 4.86-0.916 1.45-4.297 2.02-13.76 2.29-6.9 0.2-13.381-0.19-14.402-0.87zm4.74-11.31c-1.938-0.29-3.525-1.03-3.525-1.63 0-0.61-1.009-1.37-2.243-1.69-1.411-0.37-0.964-0.64 1.206-0.74 1.898-0.08 3.801 0.42 4.229 1.12 0.429 0.69 2.626 1.79 4.883 2.44 4.176 1.21 1.828 1.47-4.55 0.5zm-17.277-4.98c0.426-0.43 1.5315-0.47 2.4568-0.1 1.0225 0.41 0.7188 0.71-0.7744 0.77-1.3512 0.06-2.1083-0.24-1.6824-0.67z"/>
  </g>
  <metadata>
    <rdf:RDF>
      <cc:Work>
        <dc:format>image/svg+xml</dc:format>
        <dc:type rdf:resource="http://purl.org/dc/dcmitype/StillImage"/>
        <cc:license rdf:resource="http://creativecommons.org/licenses/publicdomain/"/>
        <dc:publisher>
          <cc:Agent rdf:about="http://openclipart.org/">
            <dc:title>Openclipart</dc:title>
          </cc:Agent>
        </dc:publisher>
      </cc:Work>
      <cc:License rdf:about="http://creativecommons.org/licenses/publicdomain/">
        <cc:permits rdf:resource="http://creativecommons.org/ns#Reproduction"/>
        <cc:permits rdf:resource="http://creativecommons.org/ns#Distribution"/>
        <cc:permits rdf:resource="http://creativecommons.org/ns#DerivativeWorks"/>
      </cc:License>
    </rdf:RDF>
  </metadata>
</svg>
