<?xml version="1.0" encoding="iso-8859-1"?>
<!-- Generator: Adobe Illustrator 19.0.0, SVG Export Plug-In . SVG Version: 6.00 Build 0)  -->
<svg version="1.1" id="Layer_1" xmlns="http://www.w3.org/2000/svg" xmlns:xlink="http://www.w3.org/1999/xlink" x="0px" y="0px"
	 viewBox="0 0 512 512" style="enable-background:new 0 0 512 512;" xml:space="preserve">
<circle style="fill:#C2D5D8;" cx="256" cy="256" r="256"/>
<path style="fill:#406A80;" d="M220.428,126.024c29.388-9.24,131.336-20.624,166.144,21.992
	c-37.188-2.208-73.928,7.048-88.812,32.544C276.272,170.788,220.428,126.024,220.428,126.024z"/>
<path style="fill:#395F73;" d="M284.676,173.172c5.012,3.152,9.544,5.78,13.084,7.388c12.252-20.972,39.28-30.936,69.208-32.588
	C334.028,146.224,301.68,153.532,284.676,173.172z"/>
<path style="fill:#406A80;" d="M0,107.6c4.58,19.296,12.048,36.22,21.616,51.332c25.992-0.528,57.968,4.224,77.828,16.136
	c-13.956,7.488-33.664,13.316-51.428,16.284c84.928,83.304,246.884,96.6,300.288,168.308l29.832-64.176
	C243.936,46.028,75.684,76.38,0,107.6z"/>
<path style="fill:#395F73;" d="M370.892,311.084l7.252-15.592C270.392,95.168,140.664,75.288,54.552,91.396
	C143.28,85.752,269.964,124.304,370.892,311.084z"/>
<path style="fill:#406A80;" d="M136.668,226.996c-22.052,7.348-38.216,37.724-40.664,57.312
	c16.168-6.372,51.924-34.284,70.06-28.652C150.868,235.816,136.668,226.996,136.668,226.996z"/>
<path style="fill:#395F73;" d="M136.668,226.996c-3.812,1.272-7.432,3.268-10.852,5.748c5.552,4.616,13.464,12.064,21.776,22.916
	c-12.14-3.772-32.204,7.52-48.984,17.292c-1.268,3.992-2.164,7.856-2.604,11.36c16.168-6.376,51.924-34.284,70.06-28.652
	C150.868,235.816,136.668,226.996,136.668,226.996z"/>
<path style="fill:#F5F5F5;" d="M348.304,359.668l6.132-13.188c-13.084-48.716-217.768-119.484-238.768-161.364
	c23.576-33.428-67.044-39.724-97.856-32.752c1.256,2.2,2.46,4.436,3.804,6.572c25.992-0.528,57.968,4.224,77.828,16.136
	c-13.956,7.488-33.664,13.316-51.428,16.284C132.944,274.664,294.9,287.96,348.304,359.668z"/>
<path style="fill:#406A80;" d="M378.136,295.492c15.704-17.064,72.028-41.556,114.156-40.084
	c-10.284,19.104-27.432,35.52-42.988,29.64c-13.72,12.252-46.964,32.064-55.592,58.824c-8.428,26.116-11.78,89.596-7.132,110.904
	c-13.96-12.48-40.688-70.924-38.264-95.096S378.136,295.492,378.136,295.492z"/>
<g>
	<path style="fill:#395F73;" d="M381.408,343.872c-6.5,20.136-9.96,62.404-9.084,90.5c5.136,9.312,10.232,16.796,14.252,20.404
		c-4.64-21.296-1.288-84.776,7.132-110.904c8.5-26.368,40.852-45.964,54.928-58.252C444.752,286.58,390.032,317.1,381.408,343.872z"
		/>
	<path style="fill:#395F73;" d="M479.8,255.744c-7.472,13.752-18.488,25.992-29.872,29.484c15.388,5.228,32.216-10.96,42.364-29.82
		C488.252,255.264,484.056,255.428,479.8,255.744z"/>
</g>
<path style="fill:#F5F5F5;" d="M121.548,137.78c-3.056,0-6.1-1.312-8.36-3.424c-2.212-2.252-3.396-5.324-3.396-8.404
	c0-3.192,1.184-6.268,3.396-8.416c4.476-4.36,12.244-4.36,16.584,0c2.244,2.144,3.528,5.228,3.528,8.416
	c0,3.08-1.284,6.152-3.528,8.272C127.66,136.468,124.592,137.78,121.548,137.78z"/>
<path style="fill:#242424;" d="M121.548,131.9c-1.528,0-3.056-0.648-4.176-1.708c-1.112-1.124-1.704-2.664-1.704-4.2
	c0-1.6,0.588-3.14,1.704-4.216c2.24-2.184,6.116-2.184,8.292,0c1.116,1.076,1.756,2.608,1.756,4.216c0,1.536-0.64,3.076-1.756,4.132
	C124.592,131.252,123.08,131.9,121.548,131.9z"/>
<path style="fill:#406A80;" d="M160.668,218.916c-9.888,36.744,35.252,98.212,28.404,118.784
	c12.752-15.188,43.588-58.916,35.268-84.876C216.016,226.868,160.668,218.916,160.668,218.916z"/>
<path style="fill:#395F73;" d="M224.34,252.828c-8.324-25.96-63.672-33.916-63.672-33.916c-0.204,0.756-0.252,1.584-0.412,2.368
	c16.748,3.924,45.912,13.252,51.768,31.548c6.34,19.756-10.024,49.796-23.824,69.728c1.6,6.156,2.12,11.36,0.86,15.148
	C201.816,322.516,232.66,278.78,224.34,252.828z"/>
<g>
</g>
<g>
</g>
<g>
</g>
<g>
</g>
<g>
</g>
<g>
</g>
<g>
</g>
<g>
</g>
<g>
</g>
<g>
</g>
<g>
</g>
<g>
</g>
<g>
</g>
<g>
</g>
<g>
</g>
</svg>
