<?xml version="1.0" encoding="iso-8859-1"?>
<!-- Generator: Adobe Illustrator 18.0.0, SVG Export Plug-In . SVG Version: 6.00 Build 0)  -->
<!DOCTYPE svg PUBLIC "-//W3C//DTD SVG 1.1//EN" "http://www.w3.org/Graphics/SVG/1.1/DTD/svg11.dtd">
<svg version="1.1" id="Capa_1" xmlns="http://www.w3.org/2000/svg" xmlns:xlink="http://www.w3.org/1999/xlink" x="0px" y="0px"
	 viewBox="0 0 474.742 474.742" style="enable-background:new 0 0 474.742 474.742;" xml:space="preserve">
<g>
	<radialGradient id="SVGID_1_" cx="265.813" cy="295.8722" r="172.5" gradientUnits="userSpaceOnUse">
		<stop  offset="0" style="stop-color:#E92B06"/>
		<stop  offset="0.3717" style="stop-color:#F17760;stop-opacity:0.6283"/>
		<stop  offset="1" style="stop-color:#FFFFFF;stop-opacity:0"/>
	</radialGradient>
	<circle style="fill:url(#SVGID_1_);" cx="265.813" cy="295.872" r="172.5"/>
	<linearGradient id="SVGID_2_" gradientUnits="userSpaceOnUse" x1="292.1931" y1="373.0372" x2="299.7531" y2="373.0372">
		<stop  offset="0" style="stop-color:#ED1C24"/>
		<stop  offset="0.1372" style="stop-color:#E81B23"/>
		<stop  offset="0.303" style="stop-color:#D91A21"/>
		<stop  offset="0.4837" style="stop-color:#C1171D"/>
		<stop  offset="0.6749" style="stop-color:#9F1318"/>
		<stop  offset="0.8723" style="stop-color:#730E12"/>
		<stop  offset="1" style="stop-color:#530A0D"/>
	</linearGradient>
	<path style="fill:url(#SVGID_2_);" d="M295.973,369.252c2.08,0,3.78,1.7,3.78,3.78c0,2.09-1.7,3.79-3.78,3.79
		c-2.09,0-3.78-1.7-3.78-3.79C292.193,370.952,293.883,369.252,295.973,369.252z"/>
	<linearGradient id="SVGID_3_" gradientUnits="userSpaceOnUse" x1="267.8231" y1="418.2022" x2="275.4931" y2="418.2022">
		<stop  offset="0" style="stop-color:#FFFFFF"/>
		<stop  offset="0.1802" style="stop-color:#FBFBFB"/>
		<stop  offset="0.3531" style="stop-color:#F0F0F0"/>
		<stop  offset="0.5231" style="stop-color:#DCDCDC"/>
		<stop  offset="0.6913" style="stop-color:#C1C1C1"/>
		<stop  offset="0.8566" style="stop-color:#9E9E9E"/>
		<stop  offset="1" style="stop-color:#7A7A7A"/>
	</linearGradient>
	<path style="fill:url(#SVGID_3_);" d="M275.493,414.842l-5.6,6.72l-2.07-1.35C270.313,418.452,272.873,416.662,275.493,414.842z"/>
	<linearGradient id="SVGID_4_" gradientUnits="userSpaceOnUse" x1="280.7431" y1="406.0672" x2="297.1931" y2="406.0672">
		<stop  offset="0" style="stop-color:#FFFFFF"/>
		<stop  offset="0.1802" style="stop-color:#FBFBFB"/>
		<stop  offset="0.3531" style="stop-color:#F0F0F0"/>
		<stop  offset="0.5231" style="stop-color:#DCDCDC"/>
		<stop  offset="0.6913" style="stop-color:#C1C1C1"/>
		<stop  offset="0.8566" style="stop-color:#9E9E9E"/>
		<stop  offset="1" style="stop-color:#7A7A7A"/>
	</linearGradient>
	<path style="fill:url(#SVGID_4_);" d="M297.193,399.902l-6.16,12.33l-10.23-1.02c-0.02,0-0.04,0-0.06,0
		c2.56-1.76,5.16-3.54,7.77-5.34C291.373,403.912,294.273,401.922,297.193,399.902z"/>
	<linearGradient id="SVGID_5_" gradientUnits="userSpaceOnUse" x1="324.9331" y1="376.8872" x2="334.0031" y2="376.8872">
		<stop  offset="0" style="stop-color:#FFFFFF"/>
		<stop  offset="0.1802" style="stop-color:#FBFBFB"/>
		<stop  offset="0.3531" style="stop-color:#F0F0F0"/>
		<stop  offset="0.5231" style="stop-color:#DCDCDC"/>
		<stop  offset="0.6913" style="stop-color:#C1C1C1"/>
		<stop  offset="0.8566" style="stop-color:#9E9E9E"/>
		<stop  offset="1" style="stop-color:#7A7A7A"/>
	</linearGradient>
	<path style="fill:url(#SVGID_5_);" d="M334.003,373.482l-1.14,4.72l-7.93,2.09C328.013,378.032,331.043,375.752,334.003,373.482z"
		/>
	<linearGradient id="SVGID_6_" gradientUnits="userSpaceOnUse" x1="303.063" y1="391.6672" x2="319.5431" y2="391.6672">
		<stop  offset="0" style="stop-color:#FFFFFF"/>
		<stop  offset="0.1802" style="stop-color:#FBFBFB"/>
		<stop  offset="0.3531" style="stop-color:#F0F0F0"/>
		<stop  offset="0.5231" style="stop-color:#DCDCDC"/>
		<stop  offset="0.6913" style="stop-color:#C1C1C1"/>
		<stop  offset="0.8566" style="stop-color:#9E9E9E"/>
		<stop  offset="1" style="stop-color:#7A7A7A"/>
	</linearGradient>
	<path style="fill:url(#SVGID_6_);" d="M319.543,384.212l-8.45,14.91l-7.76-3.19c-0.09-0.04-0.18-0.05-0.27-0.08
		C308.573,392.032,314.103,388.142,319.543,384.212z"/>
	<linearGradient id="SVGID_7_" gradientUnits="userSpaceOnUse" x1="49.3918" y1="381.0833" x2="112.9689" y2="417.7896">
		<stop  offset="0" style="stop-color:#6E6E6E"/>
		<stop  offset="1" style="stop-color:#000000"/>
	</linearGradient>
	<path style="fill:url(#SVGID_7_);" d="M82.243,378.752c5.01,17.68,13.6,34.01,25.43,48.21c-26.62-1.03-50.32-17.65-60.59-41.88
		C59.113,388.412,72.133,386.042,82.243,378.752z"/>
	<linearGradient id="SVGID_8_" gradientUnits="userSpaceOnUse" x1="244.3436" y1="247.8502" x2="282.4056" y2="313.7756">
		<stop  offset="0" style="stop-color:#6E6E6E"/>
		<stop  offset="1" style="stop-color:#000000"/>
	</linearGradient>
	<path style="fill:url(#SVGID_8_);" d="M275.593,234.052c14.81,25.26,15.53,56.58,2.09,82.45c-18.15-4.82-34.7-14-48.4-26.81
		c22.2-12.91,38.08-33.92,44.45-58.81L275.593,234.052z"/>
	<linearGradient id="SVGID_9_" gradientUnits="userSpaceOnUse" x1="359.1751" y1="360.6272" x2="83.9551" y2="360.6272">
		<stop  offset="0" style="stop-color:#FFFFFF"/>
		<stop  offset="0.1802" style="stop-color:#FBFBFB"/>
		<stop  offset="0.3531" style="stop-color:#F0F0F0"/>
		<stop  offset="0.5231" style="stop-color:#DCDCDC"/>
		<stop  offset="0.6913" style="stop-color:#C1C1C1"/>
		<stop  offset="0.8566" style="stop-color:#9E9E9E"/>
		<stop  offset="1" style="stop-color:#7A7A7A"/>
	</linearGradient>
	<path style="fill:url(#SVGID_9_);" d="M358.373,333.292c1.21,2.75,1.37,6.85-1.8,10.13c-17.43,18-46.73,38.11-72.59,55.86
		c-23.76,16.31-44.29,30.39-52.72,40.6c-0.95,1.16-1.18,2.74-0.59,4.12c0.58,1.37,1.89,2.3,3.38,2.42
		c22.52,1.7,42.83-4.27,57.61-10.76c-22.56,19.92-51.71,31.08-82.2,31.08c-6.31,0-12.66-0.49-18.88-1.44
		c-26.63-4.09-50.71-16.39-69.63-35.58s-30.89-43.44-34.6-70.09l-0.04-0.34c-4.95-35.56-2.03-71.25,8.04-104.78
		c-0.04,17.1,4.13,33.98,12.52,50.12c24.49,47.09,76.85,75.9,115.14,82.74c7.72,1.38,15.59,2.08,23.39,2.08
		c4.02,0,9.9-0.62,13.04-0.99c1.94-0.22,3.86-0.48,5.43-0.7c2.5-0.37,5.61-0.82,5.61-4.35c0-3.04,0.61-5.99,1.81-8.76
		c3.64-8.4,12.06-13.83,21.43-13.83c2.14,0,4.22,0.29,6.22,0.83c-0.95-0.25-1.94-0.4-2.97-0.4c-6.5,0-11.78,5.29-11.78,11.78
		c0,6.5,5.28,11.79,11.78,11.79s11.78-5.29,11.78-11.79c0-5.23-3.44-9.68-8.17-11.21c2.48,0.74,4.82,1.88,6.94,3.41
		c4.72,3.4,10.84,3.56,15.6,0.39c13.35-8.94,25.38-20.09,35.82-33.18C358.103,332.722,358.253,333.012,358.373,333.292z
		 M232.393,427.942c1.31-1.78,0.92-4.28-0.86-5.59c-1.77-1.31-4.28-0.93-5.59,0.85l-9.82,13.35c-2.3,3.14-3.22,7.13-2.51,10.95
		c0.71,3.82,2.99,7.22,6.26,9.32c0.67,0.43,1.42,0.64,2.16,0.64c1.31,0,2.6-0.65,3.36-1.84c1.2-1.86,0.66-4.33-1.2-5.53
		c-1.44-0.92-2.4-2.36-2.71-4.05c-0.32-1.68,0.07-3.37,1.09-4.75L232.393,427.942z M218.073,398.242c2.1-0.67,3.26-2.93,2.58-5.03
		c-0.68-2.1-2.93-3.26-5.04-2.58c-13.93,4.49-25.52,14.02-32.63,26.82l-2.71,4.88c-1.08,1.93-0.38,4.37,1.55,5.44
		c0.62,0.34,1.28,0.5,1.94,0.5c1.41,0,2.77-0.74,3.5-2.06l2.71-4.88C196.093,410.312,206.073,402.112,218.073,398.242z
		 M205.013,461.172c1.75-1.34,2.08-3.85,0.74-5.61l-0.12-0.15c-3.98-5.2-4.35-12.44-0.94-18.03c1.15-1.88,0.56-4.34-1.33-5.5
		c-1.88-1.15-4.35-0.55-5.5,1.33c-5.12,8.38-4.55,19.26,1.42,27.07l0.12,0.15c0.79,1.03,1.97,1.57,3.18,1.57
		C203.423,462.002,204.283,461.732,205.013,461.172z M198.953,392.182c2.11-0.68,3.26-2.93,2.58-5.03
		c-0.68-2.11-2.93-3.26-5.03-2.58c-13.94,4.49-25.53,14.02-32.64,26.81l-2.71,4.89c-1.07,1.93-0.38,4.36,1.56,5.44
		c0.61,0.34,1.28,0.5,1.93,0.5c1.41,0,2.77-0.74,3.5-2.06l2.72-4.88C176.983,404.252,186.963,396.052,198.953,392.182z
		 M176.903,386.992c2.1-0.68,3.26-2.93,2.58-5.04c-0.68-2.1-2.94-3.25-5.04-2.57c-12.4,4-22.73,12.48-29.06,23.88l-2.39,4.31
		c-1.07,1.93-0.38,4.36,1.55,5.44c0.62,0.34,1.29,0.5,1.94,0.5c1.41,0,2.77-0.74,3.5-2.06l2.4-4.31
		C157.723,397.532,166.433,390.372,176.903,386.992z M154.933,380.442c2.08-0.74,3.17-3.03,2.43-5.11
		c-0.74-2.08-3.03-3.17-5.11-2.43c-10.26,3.65-18.78,11.34-23.98,21.66l-1.95,3.85c-0.99,1.97-0.2,4.38,1.77,5.37
		c0.58,0.29,1.2,0.43,1.8,0.43c1.46,0,2.87-0.8,3.58-2.2l1.94-3.85C139.683,389.692,146.613,383.392,154.933,380.442z"/>
	<linearGradient id="SVGID_10_" gradientUnits="userSpaceOnUse" x1="102.3781" y1="267.8672" x2="351.3531" y2="267.8672">
		<stop  offset="0" style="stop-color:#6E6E6E"/>
		<stop  offset="1" style="stop-color:#000000"/>
	</linearGradient>
	<path style="fill:url(#SVGID_10_);" d="M349.633,327.772c0.6-0.02,1.18,0.02,1.72,0.1c-9.85,12.26-21.15,22.71-33.67,31.09
		c-1.95,1.3-4.49,1.21-6.48-0.22c-5.38-3.88-11.77-5.92-18.48-5.92c-12.56,0-23.86,7.32-28.77,18.65c-1.18,2.73-1.94,5.58-2.28,8.52
		c-4.16,0.57-11.8,1.46-16.27,1.46c-7.33,0-14.73-0.66-21.98-1.95c-20.07-3.59-41.79-12.87-61.18-26.13
		c-21.33-14.59-38.02-32.72-48.27-52.43c-14.64-28.15-15.42-58.77-2.32-88.72c0.63-1.44,1.34-2.86,2.09-4.25
		c8.9-16.41,19.71-31.9,32.35-46.15c2.26-2.55,4.62-5.06,7.01-7.54c-2.77,8.92-4.2,18.23-4.2,27.61c0,7.9,1.01,15.8,3.01,23.47
		c1.35,5.21,6.05,8.84,11.43,8.84c1.14,0,2.27-0.16,3.38-0.5c9.14-2.72,17.64-7.61,24.58-14.13c4.75-4.44,8.75-9.59,11.89-15.31
		l11.65-21.21c3.39,34.22-1.28,69.24-13.51,101.36c-1.95,5.09-4.06,10.08-6.27,14.83c-0.94,2-0.07,4.38,1.93,5.32
		c0.55,0.25,1.12,0.37,1.69,0.37c1.51,0,2.95-0.85,3.63-2.31c1.22-2.62,2.41-5.32,3.57-8.06c23.03,33.9,60.52,53.85,101.9,53.85
		c0.25,0,0.5,0,0.74,0C324.523,328.322,338.353,328.102,349.633,327.772z"/>
	<linearGradient id="SVGID_11_" gradientUnits="userSpaceOnUse" x1="252.7181" y1="26.4422" x2="252.7181" y2="206.2064">
		<stop  offset="0" style="stop-color:#969696"/>
		<stop  offset="1" style="stop-color:#000000"/>
	</linearGradient>
	<path style="fill:url(#SVGID_11_);" d="M348.533,153.132l-41.91-44.47c-5.73-6.09-13.73-9.74-21.94-10.02
		c-1.09-0.04-2.17-0.06-3.25-0.06c-36.96,0-70.72,21.78-86.01,55.47c-5.92,13.07-9.51,26.75-10.71,40.67
		c-5.83,5.17-12.8,9.09-20.28,11.32c-2.11,0.64-4.25-0.66-4.78-2.69c-1.82-7.02-2.75-14.24-2.75-21.46
		c0-14.58,3.78-28.99,10.93-41.71c34.92-30.67,77.65-50.74,123.62-58.03c8.59-1.36,16.35-6.16,21.29-13.16l30.01-42.55
		c-4.4,17.55-6.62,35.56-6.62,53.73C336.133,104.862,340.383,129.722,348.533,153.132z"/>
	<path d="M365.693,330.052c2.89,6.56,1.23,14.22-3.78,19.35c-5.11,5.23-11.13,10.6-17.72,16.02l-4.12,16.99
		c-0.35,1.43-1.45,2.55-2.87,2.92l-10.69,2.82l-10.2,17.99c-0.99,1.75-3.14,2.49-5,1.72l-7.59-3.12l-6.77,13.54
		c-0.74,1.48-2.32,2.35-3.97,2.19l-10.86-1.09l-8.37,10.05c-0.79,0.94-1.93,1.44-3.08,1.44c-0.76,0-1.52-0.22-2.19-0.66l-7.63-5.01
		c-6.75,4.91-12.66,9.48-17.18,13.5c25.98-0.47,47.99-11.1,59.44-17.88c1.64-0.96,3.59-0.99,5.22-0.05
		c1.64,0.93,2.66,2.68,2.66,4.56c0,1.26-0.46,2.47-1.29,3.42c-25.14,29.22-61.68,45.99-100.24,45.99c-6.71,0-13.48-0.52-20.09-1.54
		c-28.35-4.35-53.98-17.44-74.12-37.87c-0.09-0.09-0.19-0.2-0.28-0.3l-5.03-0.02c-33.93-0.16-64.09-23.06-73.36-55.69
		c-0.43-1.5,0.06-3.11,1.23-4.12c1.18-1.02,2.84-1.27,4.26-0.62l2.44,1.09c11.89,5.35,25.93,3.13,35.61-5.44
		c-0.67-3.15-1.25-6.32-1.69-9.54l-0.05-0.33c-7.14-51.38,1.61-103.03,24.31-148.49c0.9-1.8,4.21-8.09,4.9-9.33
		c9.02-16.34,19.88-31.79,32.51-46.03c6.8-7.66,14.18-15.02,21.92-21.88c36.16-31.94,80.48-52.82,128.18-60.38
		c6.46-1.03,12.3-4.63,16-9.87l44.22-62.69c1.3-1.84,3.91-2.28,5.77-0.82c1.34,1.04,1.79,2.87,1.27,4.49l-2.96,9.13
		c-6.88,21.24-10.37,43.34-10.37,65.68c0,30.62,6.78,61.5,19.62,89.34c0.7,1.53,0.5,3.38-0.68,4.59c-1.64,1.68-4.26,1.6-5.8-0.03
		l-56.47-59.93c-4.3-4.56-10.27-7.29-16.4-7.5c-35-1.25-67.29,18.97-81.69,50.72c-3.84,8.47-6.63,17.21-8.36,26.11
		c0.64-1,1.26-2.02,1.83-3.07l17.8-32.4c0.85-1.53,2.58-2.34,4.3-2c1.71,0.35,3.01,1.77,3.19,3.51l1.18,11.31
		c3.72,35.24-0.85,71.35-13.16,104.57c4.1,6.68,8.77,12.83,13.94,18.41c22.68-12.48,38.5-34.02,43.6-59.53l1.02-5.09
		c0.32-1.62,1.62-2.88,3.26-3.16c1.63-0.28,3.27,0.49,4.11,1.93l7.07,12.05c15.85,27.04,16.94,60.4,3.22,88.33
		c7.17,1.37,14.55,2.08,22.07,2.08c0.23,0,0.47,0,0.7,0c15.93-0.09,29.69-0.31,40.91-0.64
		C356.533,319.552,362.793,323.502,365.693,330.052z M356.573,343.422c3.17-3.28,3.01-7.38,1.8-10.13
		c-0.12-0.28-0.27-0.57-0.43-0.85c-10.44,13.09-22.47,24.24-35.82,33.18c-4.76,3.17-10.88,3.01-15.6-0.39
		c-2.12-1.53-4.46-2.67-6.94-3.41l-0.64-0.17c-2-0.54-4.08-0.83-6.22-0.83c-9.37,0-17.79,5.43-21.43,13.83
		c-1.2,2.77-1.81,5.72-1.81,8.76c0,3.53-3.11,3.98-5.61,4.35c-1.57,0.22-3.49,0.48-5.43,0.7c-3.14,0.37-9.02,0.99-13.04,0.99
		c-7.8,0-15.67-0.7-23.39-2.08c-38.29-6.84-90.65-35.65-115.14-82.74c-8.39-16.14-12.56-33.02-12.52-50.12
		c-10.07,33.53-12.99,69.22-8.04,104.78l0.04,0.34c3.71,26.65,15.68,50.9,34.6,70.09s43,31.49,69.63,35.58
		c6.22,0.95,12.57,1.44,18.88,1.44c30.49,0,59.64-11.16,82.2-31.08c-14.78,6.49-35.09,12.46-57.61,10.76
		c-1.49-0.12-2.8-1.05-3.38-2.42c-0.59-1.38-0.36-2.96,0.59-4.12c8.43-10.21,28.96-24.29,52.72-40.6
		C309.843,381.532,339.143,361.422,356.573,343.422z M351.353,327.872c-0.54-0.08-1.12-0.12-1.72-0.1
		c-11.28,0.33-25.11,0.55-41.11,0.64c-0.24,0-0.49,0-0.74,0c-41.38,0-78.87-19.95-101.9-53.85c-1.16,2.74-2.35,5.44-3.57,8.06
		c-0.68,1.46-2.12,2.31-3.63,2.31c-0.57,0-1.14-0.12-1.69-0.37c-2-0.94-2.87-3.32-1.93-5.32c2.21-4.75,4.32-9.74,6.27-14.83
		c12.23-32.12,16.9-67.14,13.51-101.36l-11.65,21.21c-3.14,5.72-7.14,10.87-11.89,15.31c-6.94,6.52-15.44,11.41-24.58,14.13
		c-1.11,0.34-2.24,0.5-3.38,0.5c-5.38,0-10.08-3.63-11.43-8.84c-2-7.67-3.01-15.57-3.01-23.47c0-9.38,1.43-18.69,4.2-27.61
		c-2.39,2.48-4.75,4.99-7.01,7.54c-12.64,14.25-23.45,29.74-32.35,46.15c-0.75,1.39-1.46,2.81-2.09,4.25
		c-13.1,29.95-12.32,60.57,2.32,88.72c10.25,19.71,26.94,37.84,48.27,52.43c19.39,13.26,41.11,22.54,61.18,26.13
		c7.25,1.29,14.65,1.95,21.98,1.95c4.47,0,12.11-0.89,16.27-1.46c0.34-2.94,1.1-5.79,2.28-8.52c4.91-11.33,16.21-18.65,28.77-18.65
		c6.71,0,13.1,2.04,18.48,5.92c1.99,1.43,4.53,1.52,6.48,0.22C330.203,350.582,341.503,340.132,351.353,327.872z M306.623,108.662
		l41.91,44.47c-8.15-23.41-12.4-48.27-12.4-72.96c0-18.17,2.22-36.18,6.62-53.73l-30.01,42.55c-4.94,7-12.7,11.8-21.29,13.16
		c-45.97,7.29-88.7,27.36-123.62,58.03c-7.15,12.72-10.93,27.13-10.93,41.71c0,7.22,0.93,14.44,2.75,21.46
		c0.53,2.03,2.67,3.33,4.78,2.69c7.48-2.23,14.45-6.15,20.28-11.32c1.2-13.92,4.79-27.6,10.71-40.67
		c15.29-33.69,49.05-55.47,86.01-55.47c1.08,0,2.16,0.02,3.25,0.06C292.893,98.922,300.893,102.572,306.623,108.662z
		 M332.863,378.202l1.14-4.72c-2.96,2.27-5.99,4.55-9.07,6.81L332.863,378.202z M311.093,399.122l8.45-14.91
		c-5.44,3.93-10.97,7.82-16.48,11.64c0.09,0.03,0.18,0.04,0.27,0.08L311.093,399.122z M291.033,412.232l6.16-12.33
		c-2.92,2.02-5.82,4.01-8.68,5.97c-2.61,1.8-5.21,3.58-7.77,5.34c0.02,0,0.04,0,0.06,0L291.033,412.232z M277.683,316.502
		c13.44-25.87,12.72-57.19-2.09-82.45l-1.86-3.17c-6.37,24.89-22.25,45.9-44.45,58.81
		C242.983,302.502,259.533,311.682,277.683,316.502z M269.893,421.562l5.6-6.72c-2.62,1.82-5.18,3.61-7.67,5.37L269.893,421.562z
		 M107.673,426.962c-11.83-14.2-20.42-30.53-25.43-48.21c-10.11,7.29-23.13,9.66-35.16,6.33
		C57.353,409.312,81.053,425.932,107.673,426.962z"/>
	<path d="M299.583,361.822c4.73,1.53,8.17,5.98,8.17,11.21c0,6.5-5.28,11.79-11.78,11.79s-11.78-5.29-11.78-11.79
		c0-6.49,5.28-11.78,11.78-11.78c1.03,0,2.02,0.15,2.97,0.4L299.583,361.822z M299.753,373.032c0-2.08-1.7-3.78-3.78-3.78
		c-2.09,0-3.78,1.7-3.78,3.78c0,2.09,1.69,3.79,3.78,3.79C298.053,376.822,299.753,375.122,299.753,373.032z"/>
	<path d="M231.533,422.352c1.78,1.31,2.17,3.81,0.86,5.59l-9.82,13.35c-1.02,1.38-1.41,3.07-1.09,4.75
		c0.31,1.69,1.27,3.13,2.71,4.05c1.86,1.2,2.4,3.67,1.2,5.53c-0.76,1.19-2.05,1.84-3.36,1.84c-0.74,0-1.49-0.21-2.16-0.64
		c-3.27-2.1-5.55-5.5-6.26-9.32c-0.71-3.82,0.21-7.81,2.51-10.95l9.82-13.35C227.253,421.422,229.763,421.042,231.533,422.352z"/>
	<path d="M220.653,393.212c0.68,2.1-0.48,4.36-2.58,5.03c-12,3.87-21.98,12.07-28.1,23.09l-2.71,4.88c-0.73,1.32-2.09,2.06-3.5,2.06
		c-0.66,0-1.32-0.16-1.94-0.5c-1.93-1.07-2.63-3.51-1.55-5.44l2.71-4.88c7.11-12.8,18.7-22.33,32.63-26.82
		C217.723,389.952,219.973,391.112,220.653,393.212z"/>
	<path d="M205.753,455.562c1.34,1.76,1.01,4.27-0.74,5.61c-0.73,0.56-1.59,0.83-2.43,0.83c-1.21,0-2.39-0.54-3.18-1.57l-0.12-0.15
		c-5.97-7.81-6.54-18.69-1.42-27.07c1.15-1.88,3.62-2.48,5.5-1.33c1.89,1.16,2.48,3.62,1.33,5.5c-3.41,5.59-3.04,12.83,0.94,18.03
		L205.753,455.562z"/>
	<path d="M201.533,387.152c0.68,2.1-0.47,4.35-2.58,5.03c-11.99,3.87-21.97,12.07-28.09,23.09l-2.72,4.88
		c-0.73,1.32-2.09,2.06-3.5,2.06c-0.65,0-1.32-0.16-1.93-0.5c-1.94-1.08-2.63-3.51-1.56-5.44l2.71-4.89
		c7.11-12.79,18.7-22.32,32.64-26.81C198.603,383.892,200.853,385.042,201.533,387.152z"/>
	<path d="M179.483,381.952c0.68,2.11-0.48,4.36-2.58,5.04c-10.47,3.38-19.18,10.54-24.52,20.15l-2.4,4.31
		c-0.73,1.32-2.09,2.06-3.5,2.06c-0.65,0-1.32-0.16-1.94-0.5c-1.93-1.08-2.62-3.51-1.55-5.44l2.39-4.31
		c6.33-11.4,16.66-19.88,29.06-23.88C176.543,378.702,178.803,379.852,179.483,381.952z"/>
	<path d="M157.363,375.332c0.74,2.08-0.35,4.37-2.43,5.11c-8.32,2.95-15.25,9.25-19.52,17.72l-1.94,3.85
		c-0.71,1.4-2.12,2.2-3.58,2.2c-0.6,0-1.22-0.14-1.8-0.43c-1.97-0.99-2.76-3.4-1.77-5.37l1.95-3.85
		c5.2-10.32,13.72-18.01,23.98-21.66C154.333,372.162,156.623,373.252,157.363,375.332z"/>
</g>
<g>
</g>
<g>
</g>
<g>
</g>
<g>
</g>
<g>
</g>
<g>
</g>
<g>
</g>
<g>
</g>
<g>
</g>
<g>
</g>
<g>
</g>
<g>
</g>
<g>
</g>
<g>
</g>
<g>
</g>
</svg>
