<?xml version="1.0" encoding="iso-8859-1"?>
<!-- Generator: Adobe Illustrator 19.0.0, SVG Export Plug-In . SVG Version: 6.00 Build 0)  -->
<svg version="1.1" id="Capa_1" xmlns="http://www.w3.org/2000/svg" xmlns:xlink="http://www.w3.org/1999/xlink" x="0px" y="0px"
	 viewBox="0 0 512.002 512.002" style="enable-background:new 0 0 512.002 512.002;" xml:space="preserve">
<rect x="214.59" y="25" style="fill:#F2F2F2;" width="82.83" height="106.6"/>
<rect x="277.42" y="25" style="fill:#E6E6E6;" width="20" height="106.6"/>
<path style="fill:#FFD151;" d="M189.735,157.85v-32.133c0-3.314,2.686-6,6-6h120.533c3.314,0,6,2.686,6,6v32.133H189.735z"/>
<path style="fill:#F79B4A;" d="M316.268,119.717h-20c3.314,0,6,2.686,6,6v32.133h20v-32.133
	C322.268,122.403,319.581,119.717,316.268,119.717z"/>
<polygon style="fill:#FF2551;" points="297.417,53.45 214.584,103.149 214.584,25 297.417,25 "/>
<polygon style="fill:#C21750;" points="277.417,65.45 297.417,53.45 297.417,25 277.417,25 "/>
<path style="fill:#FFD151;" d="M299.701,36.883H212.3c-3.314,0-6-2.686-6-6V9.751c0-3.314,2.686-6,6-6h87.401c3.314,0,6,2.686,6,6
	v21.132C305.701,34.197,303.014,36.883,299.701,36.883z"/>
<path style="fill:#F79B4A;" d="M299.701,3.751h-20c3.314,0,6,2.686,6,6v21.132c0,3.314-2.686,6-6,6h20c3.314,0,6-2.686,6-6V9.751
	C305.701,6.437,303.014,3.751,299.701,3.751z"/>
<path style="fill:#B6E3EE;" d="M405.101,323.035l-16.738-140.466l0,0c-1.709-16.695-15.813-29.72-32.96-29.72s-181.656,0-198.802,0
	s-31.251,13.025-32.96,29.72h-0.001l-16.739,140.465v9.215h298.2V323.035z"/>
<path style="fill:#96D2E0;" d="M388.363,182.569L388.363,182.569c-1.71-16.695-15.814-29.72-32.96-29.72c-2.907,0-10.059,0-20,0
	c17.147,0,31.251,13.025,32.96,29.72h0.001l16.738,140.466v9.215h20v-9.215L388.363,182.569z"/>
<path style="fill:#58565C;" d="M380.251,492.467l55.9-151.73c1.149-3.119-0.456-6.577-3.58-7.713l-174.519-63.462
	c-1.324-0.482-2.776-0.482-4.101,0L79.43,333.024c-3.123,1.136-4.729,4.594-3.58,7.713l55.901,151.73l25.75,8.284l48.6-16.5l53.4,14
	l46.402-14l50.598,16.5L380.251,492.467z"/>
<g>
	<polygon style="fill:#49484D;" points="186.099,484.25 147.231,497.447 157.501,500.751 197.386,487.209 	"/>
	<path style="fill:#49484D;" d="M432.571,333.024l-174.519-63.462c-1.324-0.482-2.776-0.482-4.101,0L246,272.454l166.568,60.57
		c3.124,1.136,4.729,4.594,3.58,7.713l-55.9,151.73l-14.085,4.912l10.337,3.371l23.75-8.283l55.9-151.73
		C437.299,337.618,435.694,334.16,432.571,333.024z"/>
	<polygon style="fill:#49484D;" points="285.901,484.25 248.799,495.444 259.501,498.25 295.513,487.385 	"/>
</g>
<path style="fill:#0094D4;" d="M511.615,481.812c-1.311-3.93-5.556-6.052-9.487-4.743L454.8,492.846l-47.326-15.777
	c-1.541-0.514-3.205-0.514-4.744,0l-47.329,15.777l-47.326-15.777c-1.541-0.514-3.203-0.514-4.744,0L256,492.846l-47.326-15.777
	c-1.541-0.514-3.205-0.514-4.744,0l-47.329,15.777l-47.326-15.777c-1.541-0.514-3.203-0.514-4.744,0L57.2,492.846L9.874,477.068
	c-3.933-1.315-8.178,0.813-9.487,4.743c-1.309,3.93,0.814,8.177,4.743,9.487l49.698,16.567c1.541,0.514,3.203,0.514,4.744,0
	l47.33-15.777l47.326,15.777c1.539,0.514,3.203,0.514,4.744,0l47.329-15.777l47.326,15.777c0.77,0.257,1.571,0.385,2.372,0.385
	c0.801,0,1.602-0.128,2.372-0.385l47.33-15.777l47.326,15.777c1.539,0.514,3.203,0.514,4.744,0l47.329-15.777l47.326,15.777
	c1.539,0.514,3.203,0.514,4.744,0l49.7-16.567C510.802,489.989,512.925,485.741,511.615,481.812z"/>
<g>
	<path style="fill:#3A393D;" d="M141.903,415.114c-3.071,0-5.926-1.898-7.034-4.908l-8.414-22.837
		c-1.433-3.887,0.558-8.198,4.444-9.63c3.889-1.434,8.199,0.558,9.63,4.444l6.037,16.385l52.234-14.242v-24.393
		c0-4.143,3.357-7.5,7.5-7.5s7.5,3.357,7.5,7.5v30.121c0,3.382-2.264,6.346-5.527,7.235l-64.395,17.559
		C143.221,415.028,142.557,415.114,141.903,415.114z"/>
	<path style="fill:#3A393D;" d="M370.099,415.114c-0.654,0-1.317-0.086-1.976-0.265l-64.395-17.56
		c-3.264-0.89-5.527-3.853-5.527-7.235v-30.121c0-4.143,3.357-7.5,7.5-7.5s7.5,3.357,7.5,7.5v24.393l52.234,14.242l6.036-16.385
		c1.433-3.887,5.742-5.874,9.631-4.445c3.887,1.433,5.877,5.744,4.445,9.631l-8.413,22.837
		C376.025,413.216,373.17,415.114,370.099,415.114z"/>
</g>
<g>
	<path style="fill:#00BCE7;" d="M183.736,243.966h-36.904c-3.609,0-6.401-3.163-5.954-6.744l2.642-21.131
		c0.375-3.003,2.928-5.256,5.954-5.256h34.263c3.314,0,6,2.686,6,6v21.131C189.736,241.279,187.049,243.966,183.736,243.966z"/>
	<path style="fill:#00BCE7;" d="M291.417,243.966h-70.832c-3.314,0-6-2.686-6-6v-21.131c0-3.314,2.686-6,6-6h70.832
		c3.314,0,6,2.686,6,6v21.131C297.417,241.279,294.731,243.966,291.417,243.966z"/>
	<path style="fill:#00BCE7;" d="M365.172,243.966h-36.904c-3.314,0-6-2.686-6-6v-21.131c0-3.314,2.686-6,6-6h34.263
		c3.026,0,5.578,2.253,5.954,5.256l2.642,21.131C371.573,240.803,368.781,243.966,365.172,243.966z"/>
</g>
<path style="fill:#FFD151;" d="M432.571,333.024l-174.519-63.461c-1.324-0.482-2.776-0.482-4.101,0L79.43,333.024
	c-3.123,1.136-4.729,4.594-3.58,7.713l9.009,24.453l171.142-63.241l171.14,63.241l0,0l9.009-24.453
	C437.299,337.618,435.694,334.16,432.571,333.024z"/>
<path style="fill:#F79B4A;" d="M414.846,326.579c3.124,1.136,4.451,4.975,3.302,8.094l-8.593,24.019l17.586,6.498l0.021-0.058
	l8.988-24.459c1.149-3.119-0.491-6.466-3.58-7.649"/>
<path style="fill:#58565C;" d="M123.64,182.569L123.64,182.569l-1.301,10.914h267.325l-1.301-10.914h-0.001
	c-0.142-1.39-0.378-2.752-0.687-4.086H124.327C124.019,179.817,123.783,181.179,123.64,182.569z"/>
<g>
</g>
<g>
</g>
<g>
</g>
<g>
</g>
<g>
</g>
<g>
</g>
<g>
</g>
<g>
</g>
<g>
</g>
<g>
</g>
<g>
</g>
<g>
</g>
<g>
</g>
<g>
</g>
<g>
</g>
</svg>
