<?xml version="1.0" encoding="iso-8859-1"?>
<!-- Generator: Adobe Illustrator 19.0.0, SVG Export Plug-In . SVG Version: 6.00 Build 0)  -->
<svg xmlns="http://www.w3.org/2000/svg" xmlns:xlink="http://www.w3.org/1999/xlink" version="1.1" id="Capa_1" x="0px" y="0px" viewBox="0 0 512.002 512.002" style="enable-background:new 0 0 512.002 512.002;" xml:space="preserve" width="512" height="512">
<g>
	<rect x="214.585" y="28.75" style="fill:#F2F2F2;" width="82.832" height="106.6"/>
	<rect x="277.417" y="28.75" style="fill:#E6E6E6;" width="20" height="106.6"/>
	<path style="fill:#FFD151;" d="M189.735,161.6v-32.133c0-3.314,2.686-6,6-6h120.533c3.314,0,6,2.686,6,6V161.6H189.735z"/>
	<path style="fill:#F79B4A;" d="M316.268,123.467h-20c3.314,0,6,2.686,6,6V161.6h20v-32.133   C322.268,126.153,319.581,123.467,316.268,123.467z"/>
	<polygon style="fill:#FF2551;" points="297.417,57.2 214.584,106.899 214.584,28.75 297.417,28.75  "/>
	<polygon style="fill:#C21750;" points="277.417,69.2 297.417,57.2 297.417,28.75 277.417,28.75  "/>
	<g>
		<path style="fill:#FFD151;" d="M299.701,40.633H212.3c-3.314,0-6-2.686-6-6V13.501c0-3.314,2.686-6,6-6h87.401    c3.314,0,6,2.686,6,6v21.132C305.701,37.946,303.014,40.633,299.701,40.633z"/>
		<path style="fill:#F79B4A;" d="M299.701,7.501h-20c3.314,0,6,2.686,6,6v21.132c0,3.314-2.686,6-6,6h20c3.314,0,6-2.686,6-6V13.501    C305.701,10.187,303.014,7.501,299.701,7.501z"/>
	</g>
	<path style="fill:#B6E3EE;" d="M405.101,326.785l-16.738-140.466h0c-1.709-16.695-15.813-29.72-32.96-29.72s-181.656,0-198.802,0   s-31.251,13.025-32.96,29.72h-0.001l-16.739,140.465V336h298.2V326.785z"/>
	<path style="fill:#96D2E0;" d="M388.363,186.319L388.363,186.319c-1.71-16.695-15.814-29.72-32.96-29.72c-2.907,0-10.059,0-20,0   c17.147,0,31.251,13.025,32.96,29.72h0.001l16.738,140.466V336h20v-9.215L388.363,186.319z"/>
	<g>
		<path style="fill:#58565C;" d="M380.251,496.217l55.9-151.73c1.149-3.119-0.456-6.577-3.58-7.713l-174.519-63.462    c-1.324-0.482-2.776-0.482-4.101,0L79.43,336.774c-3.123,1.136-4.729,4.594-3.58,7.713l55.901,151.73l25.75,8.284l48.6-16.5    l53.4,14l46.402-14l50.598,16.5L380.251,496.217z"/>
	</g>
	<g>
		<path style="fill:#49484D;" d="M432.571,336.774l-174.519-63.462c-1.324-0.482-2.776-0.482-4.101,0l-9.451,3.437l165.068,60.025    c3.124,1.136,4.729,4.594,3.58,7.713l-55.9,151.73l-12.635,4.407l11.888,3.877l23.75-8.283l55.9-151.73    C437.299,341.368,435.694,337.91,432.571,336.774z"/>
	</g>
	<path style="fill:#00BCE7;" d="M183.736,247.715h-36.904c-3.609,0-6.401-3.163-5.954-6.744l2.642-21.131   c0.375-3.003,2.928-5.256,5.954-5.256h34.263c3.314,0,6,2.686,6,6v21.131C189.736,245.029,187.049,247.715,183.736,247.715z"/>
	<path style="fill:#00BCE7;" d="M291.417,247.715h-70.832c-3.314,0-6-2.686-6-6v-21.131c0-3.314,2.686-6,6-6h70.832   c3.314,0,6,2.686,6,6v21.131C297.417,245.029,294.731,247.715,291.417,247.715z"/>
	<path style="fill:#00BCE7;" d="M365.172,247.715h-36.904c-3.314,0-6-2.686-6-6v-21.131c0-3.314,2.686-6,6-6h34.263   c3.026,0,5.578,2.253,5.954,5.256l2.642,21.131C371.573,244.552,368.781,247.715,365.172,247.715z"/>
	<path style="fill:#FFD151;" d="M432.571,336.774l-174.519-63.461c-1.324-0.482-2.776-0.482-4.101,0L79.43,336.774   c-3.123,1.136-4.729,4.594-3.58,7.713l9.009,24.453l171.142-63.241l171.14,63.241l0,0l9.009-24.453   C437.299,341.368,435.694,337.91,432.571,336.774z"/>
	<g>
		<path style="fill:#F79B4A;" d="M411.569,330.773c3.123,1.136,4.729,4.594,3.58,7.713l-8.438,22.904l20.431,7.55l0,0l9.009-24.453    c1.149-3.119-0.456-6.577-3.58-7.713L411.569,330.773z"/>
	</g>
</g>
<g>
	<path d="M511.615,485.561c-1.311-3.93-5.556-6.052-9.487-4.743L454.8,496.596l-47.326-15.777c-1.541-0.514-3.205-0.514-4.744,0   l-10.047,3.349l52.588-142.742c0.691-1.872,0.605-3.94-0.234-5.75c-0.839-1.81-2.365-3.21-4.239-3.892l-28.795-10.471   l-16.185-135.825c-2.158-20.75-19.52-36.39-40.414-36.39h-25.635v-25.632c0-4.143-3.357-7.5-7.5-7.5h-17.351V48.133h0.783   c4.143,0,7.5-3.357,7.5-7.5V7.501c0-4.143-3.357-7.5-7.5-7.5h-99.4c-4.143,0-7.5,3.357-7.5,7.5v33.132c0,4.143,3.357,7.5,7.5,7.5   h0.784v67.834h-17.35c-4.143,0-7.5,3.357-7.5,7.5v25.632H156.6c-20.892,0-38.254,15.639-40.414,36.389l-16.185,135.825   l-28.796,10.471c-1.874,0.682-3.399,2.082-4.239,3.892c-0.84,1.81-0.925,3.879-0.234,5.75l11.087,30.094   c0.002,0.007,0.004,0.014,0.006,0.021c0.002,0.007,0.006,0.013,0.008,0.019l41.488,112.608l-10.046-3.349   c-1.541-0.514-3.203-0.514-4.744,0L57.2,496.596L9.874,480.818c-3.933-1.314-8.178,0.813-9.487,4.743   c-1.309,3.93,0.814,8.177,4.743,9.487l49.698,16.567c1.541,0.514,3.203,0.514,4.744,0l47.33-15.777l22.371,7.458   c0.003,0.001,0.006,0.002,0.009,0.003l24.946,8.316c1.539,0.514,3.203,0.514,4.744,0l47.329-15.777l47.326,15.777   c0.011,0.004,0.024,0.005,0.035,0.009c0.34,0.111,0.691,0.196,1.05,0.258c0.068,0.012,0.136,0.021,0.204,0.031   c0.355,0.051,0.714,0.087,1.083,0.087c0.369,0,0.728-0.036,1.082-0.087c0.068-0.01,0.136-0.019,0.204-0.031   c0.359-0.062,0.71-0.147,1.05-0.258c0.012-0.004,0.024-0.005,0.035-0.009l47.33-15.777l47.326,15.777   c1.539,0.514,3.203,0.514,4.744,0l47.329-15.777l47.326,15.777c1.539,0.514,3.203,0.514,4.744,0l49.7-16.567   C510.802,493.739,512.925,489.491,511.615,485.561z M422.699,359.303l-159.198-58.828v-17.201l138.811,50.477   c0.036,0.014,0.072,0.026,0.109,0.039l26.171,9.517L422.699,359.303z M213.8,15.001h84.4v18.132h-84.4V15.001z M289.917,48.133   v4.821l-67.833,40.699V48.133H289.917z M222.084,111.145l67.833-40.699v45.52h-67.833V111.145z M197.235,130.967h117.533v18.132   H197.235V130.967z M156.6,164.098h33.096c0.013,0,0.026,0.002,0.039,0.002c0.013,0,0.026-0.002,0.039-0.002h132.456   c0.013,0,0.025,0.002,0.039,0.002c0.013,0,0.026-0.002,0.039-0.002h33.096c11.51,0,21.318,7.518,24.527,18.135H132.074   C135.283,171.617,145.09,164.098,156.6,164.098z M129.893,197.233H382.11l14.101,118.338l-137.647-50.054   c-0.026-0.009-0.053-0.012-0.079-0.021c-0.365-0.128-0.741-0.23-1.129-0.301c-0.054-0.01-0.107-0.016-0.161-0.025   c-0.39-0.063-0.787-0.104-1.194-0.104c-0.407,0-0.804,0.041-1.194,0.104c-0.054,0.009-0.107,0.015-0.161,0.025   c-0.388,0.071-0.764,0.173-1.129,0.301c-0.026,0.009-0.054,0.012-0.08,0.021l-137.647,50.053L129.893,197.233z M109.547,333.803   c0.02-0.007,0.04-0.014,0.06-0.022l138.894-50.507v17.201L89.302,359.303l-5.893-15.995L109.547,333.803z M355.401,496.596   l-47.326-15.777c-1.541-0.514-3.203-0.514-4.744,0l-39.83,13.277v-42.461c0-4.143-3.357-7.5-7.5-7.5c-4.143,0-7.5,3.357-7.5,7.5   v42.461l-39.826-13.277c-1.541-0.514-3.205-0.514-4.744,0l-47.329,15.777l-19.057-6.353L94.488,373.378l154.013-56.911v105.199   c0,4.143,3.357,7.5,7.5,7.5c4.143,0,7.5-3.357,7.5-7.5V316.467l154.012,56.912l-43.054,116.864L355.401,496.596z"/>
	<path d="M206.301,356.183c-4.143,0-7.5,3.357-7.5,7.5v24.393l-52.234,14.242l-6.037-16.385c-1.431-3.887-5.741-5.878-9.63-4.444   c-3.887,1.432-5.877,5.743-4.444,9.63l8.414,22.837c1.108,3.01,3.963,4.908,7.034,4.908c0.653,0,1.317-0.086,1.976-0.266   l64.395-17.559c3.264-0.89,5.527-3.853,5.527-7.235v-30.121C213.801,359.541,210.444,356.183,206.301,356.183z"/>
	<path d="M377.134,413.956l8.413-22.837c1.432-3.887-0.559-8.198-4.445-9.631c-3.889-1.429-8.198,0.559-9.631,4.445l-6.036,16.385   L313.2,388.076v-24.393c0-4.143-3.357-7.5-7.5-7.5c-4.143,0-7.5,3.357-7.5,7.5v30.121c0,3.382,2.264,6.346,5.527,7.235   l64.395,17.56c0.658,0.179,1.321,0.265,1.976,0.265C373.17,418.864,376.025,416.966,377.134,413.956z"/>
	<path d="M189.736,207.084h-45.56c-3.782,0-6.973,2.816-7.442,6.569l-4.142,33.132c-0.267,2.135,0.396,4.281,1.819,5.895   c1.424,1.612,3.472,2.536,5.623,2.536h49.701c4.143,0,7.5-3.357,7.5-7.5v-33.132C197.236,210.441,193.878,207.084,189.736,207.084z    M182.236,240.216H148.53l2.267-18.132h31.438V240.216z"/>
	<path d="M304.917,247.716v-33.132c0-4.143-3.357-7.5-7.5-7.5h-82.833c-4.143,0-7.5,3.357-7.5,7.5v33.132c0,4.143,3.357,7.5,7.5,7.5   h82.833C301.56,255.216,304.917,251.858,304.917,247.716z M289.917,240.216h-67.833v-18.132h67.833V240.216z"/>
	<path d="M322.268,255.216h49.701c2.151,0,4.199-0.924,5.623-2.536c1.423-1.613,2.086-3.76,1.819-5.895l-4.142-33.132   c-0.47-3.753-3.66-6.569-7.442-6.569h-45.56c-4.143,0-7.5,3.357-7.5,7.5v33.132C314.768,251.858,318.125,255.216,322.268,255.216z    M329.768,222.084h31.439l2.267,18.132h-33.705V222.084z"/>
</g>















</svg>
