<svg height="512" viewBox="0 0 59 58" width="512" xmlns="http://www.w3.org/2000/svg"><g id="Page-1" fill="none" fill-rule="evenodd"><g id="033---Shipwreck" fill-rule="nonzero" transform="translate(-1)"><path id="Shape" d="m10.127 17.011 2.708-3.417c.5919624-.7473069 1.6291082-.9729008 2.478-.539l7.62 3.9-1.422 4.185-4.788 3.649-6.27-4.968c-.4159273-.3293521-.68395264-.8104678-.74509228-1.337469s.08961665-1.0567015.41909228-1.472531z" fill="#3f5c6c"/><path id="Shape" d="m1.433 27.984 2.708-3.417c.5919624-.7473069 1.62910824-.9729008 2.478-.539l7.62 3.9-1.227 4.44-4.984 3.4-6.27-4.968c-.41753819-.329627-.68655173-.812017-.74754256-1.3404791-.06099084-.5284621.09106695-1.0594488.42254256-1.4755209z" fill="#3f5c6c"/><path id="Shape" d="m17.49 14.17-5.47 6.89-1.57-1.24c-.86422761-.6876488-1.00748678-1.9456435-.32-2.81l2.71-3.42c.5906098-.7446726 1.6258729-.9668141 2.47-.53z" fill="#e64c3c"/><path id="Shape" d="m8.79 25.14-5.46 6.9-1.57-1.25c-.41653255-.3287698-.68533433-.8095968-.74722727-1.3366246-.06189293-.5270277.08819719-1.0570484.41722727-1.4733754l2.71-3.41c.58992934-.7518741 1.63086966-.9785305 2.48-.54z" fill="#e64c3c"/><path id="Shape" d="m1.067 55v-9.357c.00028889-.6756019.22861272-1.3313282.648-1.861l23.7-29.962c.7804725-.9884963 1.9809293-1.5516736 3.24-1.52l13 .35-30.61 42.472z" fill="#d1d4d1"/><path id="Shape" d="m30.532 52.481 13.585-17.181c.1894716-.2324513.2634915-.538198.2013198-.8315711-.0621718-.293373-.2538473-.5428134-.5213198-.6784289l-3.46-1.77 2.65-1.73-2.84-6.08 5.32 2.94 1.87-2.35 1.2 2.59c.1462194.3144063.4448745.530627.7892157.5713774.3443411.0407504.685216-.0997862.9007843-.3713774l1.12-1.42c1.7061036-2.1569168 2.1786659-5.0414368 1.25-7.63l-4.25-11.88c-.1243362-.33900547-.4217741-.58465126-.7781701-.64266922-.356396-.05801795-.7163892.08060416-.9418299.36266922l-4.97 6.27-29.836 37.7z" fill="#ecf0f1"/><g fill="#2fa8cc"><path id="Shape" d="m36.651 12.512-20.114 25.388c-.558.707-1.357.993-1.789.653l-1.57-1.239c-.432-.34-.333-1.192.218-1.891l18.248-23.039z"/><circle id="Oval" cx="44.656" cy="20.13" r="2"/><circle id="Oval" cx="34.72" cy="32.67" r="2"/><circle id="Oval" cx="29.751" cy="38.941" r="2"/><path id="Shape" d="m25.307 47.13c.4143335-.1127926.7820569-.3544394 1.05-.69.6842475-.8669024.5363121-2.1243328-.3304477-2.8087609-.8667599-.684428-2.1242211-.5367546-2.8088297.3298626s-.5371972 2.1241092.3292774 2.8088983c.1357876.1092184.2875607.1969095.45.26z"/></g><circle id="Oval" cx="50.067" cy="34" fill="#3b97d3" r="2"/><circle id="Oval" cx="57.067" cy="2" fill="#3b97d3" r="2"/><circle id="Oval" cx="56.067" cy="41" fill="#3b97d3" r="3"/><circle id="Oval" cx="56.067" cy="33" fill="#2980ba" r="1"/><circle id="Oval" cx="53.067" cy="6" fill="#2980ba" r="1"/><path id="Shape" d="m1 55c0 1.6568542 1.34314575 3 3 3h52c1.3512165.0008655 2.5362643-.9016921 2.8945417-2.2045444.3582774-1.3028522-.1986424-2.6844416-1.3603057-3.3746045-1.1616634-.690163-2.6413597-.5185602-3.614236.4191489.0572668-.2762377.0840935-.5579185.08-.84.0017601-2.2574908-1.5108554-4.2355655-3.6899318-4.8253907-2.1790765-.5898252-4.4829137.3552247-5.6200682 2.3053907h-.01c-.5740069-.3577279-1.1882633-.6463948-1.83-.86-1.1740474-.3921152-2.4022616-.5979423-3.64-.61-.0696736-.0083174-.1398513-.0116592-.21-.01-1.7173069-.0232952-3.4172333.3461054-4.97 1.08-.6090837.2927073-1.1717781.6734526-1.67 1.13l-.01.01c-1.4544667-1.5299412-3.3809418-2.5266367-5.47-2.83-1.2764948-.2629885-2.576701-.3936793-3.88-.39-2.3073566-.0425687-4.5975795.4038885-6.72 1.31-.6439237.2811414-1.2489112.6441338-1.8 1.08l-.01.01c-1.4156065-1.3607862-3.496666-1.7670144-5.3201096-1.0384992-1.82344356.7285153-3.05166993 2.4568932-3.1398904 4.4184992-.87739067-.7990942-2.14394583-1.0045409-3.22894315-.5237636-1.08499733.4807773-1.7836181 1.5570204-1.78105685 2.7437636z" fill="#f3d55b"/><path id="Shape" d="m41.9 51.91c.0082843.5522847.4627153.9932843 1.015.985s.9932843-.4627153.985-1.015c-.0154811-.592258.1099631-1.1797207.366-1.714.116966-.2407185.2555342-.4703266.414-.686-.5740069-.3577279-1.1882633-.6463948-1.83-.86-.6405727.976059-.9716739 2.1227147-.95 3.29z" fill="#f0c419"/><path id="Shape" d="m14.48 49.39c.7798246.5945633 1.3194191 1.4501046 1.52 2.41.099165.4616905.5077811.7910852.98.79.0672762.0027973.1346099-.0039361.2-.02.2599387-.0529946.4881678-.2071045.6344551-.428411.1462874-.2213065.1986434-.4916715.1455449-.751589-.2470287-1.1687635-.831087-2.2395371-1.68-3.08-.6439237.2811414-1.2489112.6441338-1.8 1.08z" fill="#f0c419"/><path id="Shape" d="m32.36 50.21c.3539293.3554208.5640507.8290843.59 1.33.0108913.5444587.4554324.9801089 1 .98h.01c.2660666.0000543.520956-.1069899.7072028-.2969993.1862468-.1900093.2881723-.4469884.2827972-.7130007-.0229954-.8907417-.347316-1.7473709-.92-2.43-.6090837.2927073-1.1717781.6734526-1.67 1.13z" fill="#f0c419"/></g></g></svg>