<?xml version="1.0" encoding="iso-8859-1"?>
<!-- Generator: Adobe Illustrator 19.0.0, SVG Export Plug-In . SVG Version: 6.00 Build 0)  -->
<svg version="1.1" id="Capa_1" xmlns="http://www.w3.org/2000/svg" xmlns:xlink="http://www.w3.org/1999/xlink" x="0px" y="0px"
	 viewBox="0 0 426.667 426.667" style="enable-background:new 0 0 426.667 426.667;" xml:space="preserve">
<rect x="200.235" style="fill:#FCD462;" width="13.649" height="137.643"/>
<rect x="100.527" y="185.216" style="fill:#EBF0F3;" width="213.06" height="88.819"/>
<rect x="117.022" y="125.269" style="fill:#3EA69B;" width="180.053" height="59.947"/>
<path style="fill:#3A556A;" d="M360.458,257.581l-154.976-61.99L52.773,266.739c-8.895,4.145-13.173,14.38-9.873,23.621
	l22.881,64.067v57.411h277.487v-57.411l27.799-72.587C374.755,272.214,370.03,261.41,360.458,257.581z"/>
<path style="fill:#64798A;" d="M52.773,266.739c-8.895,4.145-13.173,14.38-9.873,23.621l22.881,64.067v57.411h139.7V195.591
	L52.773,266.739z"/>
<path style="fill:#27A2DB;" d="M205.793,426.667c-18.464,0.004-30.066-7.423-35.912-12.596c-45.163,20.954-75.434,6.41-86.027-0.516
	c-29.782,12.54-56.992,6.593-58.192,6.317l3.371-14.932c0.258,0.064,26.014,5.543,52.436-7.094l4.56-2.179l3.798,3.341
	c1.129,0.957,29.076,24.067,78.211-1.069l5.857-2.998l3.842,5.337c0.748,0.987,20.359,25.685,71.783-2.25l3.401-1.85l3.502,1.645
	c0.366,0.168,38.513,17.392,80.562-0.135l3.674-1.532l3.36,2.127c0.135,0.078,18.965,11.239,54.757,5.984l2.228,15.145
	c-32.705,4.803-53.501-2.53-61.485-6.253c-39.627,15.126-74.747,4.336-85.945,0.045
	C234.218,423.206,218.404,426.667,205.793,426.667z"/>
<g>
	<rect x="254.464" y="137.6" style="fill:#D5D6DB;" width="24.452" height="35.26"/>
	<rect x="215.211" y="137.6" style="fill:#D5D6DB;" width="24.452" height="35.26"/>
	<rect x="173.952" y="137.6" style="fill:#D5D6DB;" width="24.452" height="35.26"/>
	<rect x="135.206" y="137.6" style="fill:#D5D6DB;" width="24.452" height="35.26"/>
</g>
<polygon style="fill:#FCD462;" points="207.057,80.024 159.766,18.367 170.589,10.063 207.057,57.598 243.525,10.063 
	254.348,18.367 "/>
<rect x="164.463" y="87.582" style="fill:#64798A;" width="89.984" height="12.51"/>
<g>
</g>
<g>
</g>
<g>
</g>
<g>
</g>
<g>
</g>
<g>
</g>
<g>
</g>
<g>
</g>
<g>
</g>
<g>
</g>
<g>
</g>
<g>
</g>
<g>
</g>
<g>
</g>
<g>
</g>
</svg>
