<svg height="512" viewBox="0 0 61 60" width="512" xmlns="http://www.w3.org/2000/svg"><g id="Page-1" fill="none" fill-rule="evenodd"><g id="033---Shipwreck" fill-rule="nonzero"><g id="Icons" transform="translate(0 1)"><path id="Shape" d="m51.35 26.17-1.12 1.42c-.2155683.2715912-.5564432.4121278-.9007843.3713774-.3443412-.0407504-.6429963-.2569711-.7892157-.5713774l-1.2-2.59-1.87 2.35-5.32-2.94 2.84 6.08-2.65 1.73 3.46 1.77c.2674725.1356155.459148.3850559.5213198.6784289.0621717.2933731-.0118482.5991198-.2013198.8315711l-11.75 14.86c-1.4543222-1.4923057-3.3586103-2.4655304-5.42-2.77-1.2764948-.2629885-2.576701-.3936793-3.88-.39-3.61 0-6.77.96-8.53 2.4-.3700588-.3617117-.7953915-.6621451-1.26-.89l28.38-35.86 4.97-6.27c.2254407-.28206506.5854339-.42068717.9418299-.36266922.356396.05801796.6538339.30366375.7781701.64266922l4.25 11.88c.9286659 2.5885632.4561036 5.4730832-1.25 7.63z" fill="#7f8e94"/><path id="Shape" d="m43.8 33.79-3.46-1.77 2.65-1.73-1.8-3.845-4.04-2.235 2.84 6.08-2.65 1.73 3.46 1.77c.2674725.1356155.459148.3850559.5213198.6784289.0621717.2933731-.0118482.5991198-.2013198.8315711l-10.585 13.386c.6990972.3712937 1.3216968.8714091 1.835 1.474l11.75-14.86c.1894716-.2324513.2634915-.538198.2013198-.8315711-.0621718-.293373-.2538473-.5428134-.5213198-.6784289z" fill="#545c60"/><path id="Shape" d="m52.6 18.54-4.25-11.88c-.1243362-.33900547-.4217741-.58465126-.7781701-.64266922-.356396-.05801795-.7163892.08060416-.9418299.36266922l-.951 1.2 3.921 10.96c.9602096 2.7187354.3934221 5.7433822-1.486 7.93l.426.92c.1462194.3144063.4448745.530627.7892157.5713774.3443411.0407504.685216-.0997862.9007843-.3713774l1.12-1.42c1.7061036-2.1569168 2.1786659-5.0414368 1.25-7.63z" fill="#545c60"/><path id="Shape" d="m59.07 55c0 1.6568542-1.3431458 3-3 3h-52c-1.34107777.003491-2.52157274-.8835079-2.89145013-2.1725744s.16072029-2.6670366 1.29962157-3.3751366c1.13890129-.7081001 2.6094231-.5743052 3.60182856.327711.07348309-1.6863992.99289797-3.2218774 2.44477467-4.0829209 1.4518767-.8610436 3.24019073-.931399 4.75522533-.1870791.4646085.2278549.8899412.5282883 1.26.89 1.76-1.44 4.92-2.4 8.53-2.4 3.11 0 7.433.822 9.3 3.16.02.02.03.04.05.06 1.871171-1.527284 4.2366043-2.3169475 6.65-2.22 1.0422974-.0003836 2.0804845.1306498 3.09.39.9185455.2244934 1.7959748.5923388 2.6 1.09 1.1371545-1.950166 3.4409917-2.8952159 5.6200682-2.3053907 2.1790764.5898252 3.6916919 2.5678999 3.6899318 4.8253907.0040935.2820815-.0227332.5637623-.08.84.8665588-.83375 2.1472415-1.069487 3.2538828-.5989466s1.8253754 1.5564231 1.8261172 2.7589466z" fill="#ffeb3a"/><path id="Shape" d="m51.07 52c.0040935.2820815-.0227332.5637623-.08.84.8109943-.7949079 2.0073744-1.0514697 3.073-.659 0-.061.007-.12.007-.181.00769-1.59897-.7534858-3.1042232-2.0458655-4.0457745s-2.9584949-1.2046785-4.4781345-.7072255c2.0893786.6408078 3.5179317 2.5675708 3.524 4.753z" fill="#fdd834"/><path id="Shape" d="m56.07 52c-.5280603.0021035-1.0459507.1453866-1.5.415 1.1753751.6766532 1.7486093 2.0592723 1.3968239 3.3690865s-1.5405955 2.2191896-2.8968239 2.2159223l3-.0000088c1.6568542 0 3-1.3431458 3-3s-1.3431458-3-3-3z" fill="#fdd834"/><path id="Shape" d="m10.127 17.011 2.708-3.417c.5919624-.7473069 1.6291082-.9729008 2.478-.539l7.62 3.9-6.21 7.837-6.27-4.968c-.4168075-.3294173-.68542321-.8111338-.74658263-1.3388683-.06115943-.5277346.09016357-1.0581179.42058263-1.4741317z" fill="#9e9e9e"/><path id="Shape" d="m1.433 27.984 2.708-3.417c.5919624-.7473069 1.62910824-.9729008 2.478-.539l7.62 3.9-6.211 7.834-6.27-4.968c-.41577612-.3294976-.68360745-.8106854-.74455879-1.33768-.06095134-.5269947.08997159-1.0566149.41955879-1.47232z" fill="#9e9e9e"/><g fill="#3f51b5"><circle id="Oval" cx="44.656" cy="20.13" r="2"/><circle id="Oval" cx="34.72" cy="32.67" r="2"/><circle id="Oval" cx="29.751" cy="38.941" r="2"/><path id="Shape" d="m26.36 46.44c-.2679431.3355606-.6356665.5772074-1.05.69-.408-.049-.978-.1-1.32-.1-.159309-.0632294-.3077648-.1509533-.44-.26-.8664746-.6847891-1.013886-1.9422811-.3292774-2.8088983s1.9420698-1.0142906 2.8088297-.3298626c.8667598.6844281 1.0146952 1.9418585.3304477 2.8087609z"/></g><path id="Shape" d="m41.66 12.65-28.38 35.86c-1.5150346-.7443199-3.30334863-.6739645-4.75522533.1870791-1.4518767.8610435-2.37129158 2.3965217-2.44477467 4.0829209-.87739067-.7990942-2.14394583-1.0045409-3.22894315-.5237636-1.08499733.4807773-1.7836181 1.5570204-1.78106387 2.7437636l.00000702-9.36c.00266505-.6735646.22764236-1.3274049.64-1.86l23.71-29.96c.7804725-.9884963 1.9809293-1.5516736 3.24-1.52z" fill="#f5f5f5"/><path id="Shape" d="m38.721 12.569-28.009 35.391c.141-.012.215.04.358.04.766072-.0021053 1.5223185.1724132 2.21.51l28.38-35.86z" fill="#cfd8dc"/><circle id="Oval" cx="50.067" cy="34" fill="#02a9f4" r="2"/><circle id="Oval" cx="57.067" cy="2" fill="#02a9f4" r="2"/><circle id="Oval" cx="56.067" cy="41" fill="#02a9f4" r="3"/><path id="Shape" d="m36.65 12.51v.01l-20.11 25.38c-.56.71-1.36.99-1.79.65l-1.57-1.24c-.43-.34-.34-1.19.22-1.89l18.24-23.04z" fill="#02a9f4"/><path id="Shape" d="m17.49 14.17-5.47 6.89-1.57-1.24c-.86422761-.6876488-1.00748678-1.9456435-.32-2.81l2.71-3.42c.5906098-.7446726 1.6258729-.9668141 2.47-.53z" fill="#f44335"/><path id="Shape" d="m8.79 25.14-5.46 6.9-1.57-1.25c-.41653255-.3287698-.68533433-.8095968-.74722727-1.3366246-.06189293-.5270277.08819719-1.0570484.41722727-1.4733754l2.71-3.41c.58992934-.7518741 1.63086966-.9785305 2.48-.54z" fill="#f44335"/></g><g id="Icons_copy" fill="#000"><path id="Shape" d="m56.067 52c-.358506-.0005314-.715427.0475739-1.061.143-.3371197-2.3469875-2.0258398-4.2747701-4.3080301-4.9178935-2.2821902-.6431234-4.7290023.1192623-6.2419699 1.9448935-1.600599-.7511487-3.344954-1.146554-5.113-1.159-.092-.011-.184-.011-.276-.011-1.0943663-.0012177-2.1846687.1331387-3.246.4l9.079-11.476c.3803114-.4711761.5256646-1.0897552.395-1.681-.125279-.5821175-.5077573-1.0760294-1.04-1.343l-1.925-.985 1.206-.788c.4168076-.2719108.5702422-.8089321.36-1.26l-1.54-3.3 2.629 1.453c.4274412.236434.9631427.1294628 1.267-.253l.861-1.082.524 1.131c.2951178.6262975.8931588 1.0554169 1.5809824 1.1344209.6878237.079004 1.3675847-.2033459 1.7970176-.7464209l1.118-1.417c1.9093799-2.432196 2.4399942-5.672868 1.406-8.587l-4.252-11.883c-.2485678-.67907575-.8443476-1.17108301-1.5581726-1.28677117s-1.4345038.16296333-1.8848274.72877117l-4.654 5.878-12.509-.337c-1.5736411-.0413389-3.0743488.6630447-4.048 1.9l-1.97 2.491-6.894-3.525c-1.2740554-.6470129-2.8273973-.3094389-3.718.808l-2.708 3.416c-.49421345.6237442-.72034788 1.4182947-.62863842 2.2087965.09170947.7905018.49374746 1.5121753 1.11763842 2.0062035l5.5 4.356-1.351 1.707-6.9-3.53c-1.27354196-.6485006-2.82760676-.3106786-3.717.808l-2.715 3.417c-.494325.6236198-.72062607 1.4180902-.62910491 2.2085855.09152116.7904952.49336515 1.5122409 1.11710491 2.0064145l5.506 4.362-5.712 7.221c-.55835346.7069416-.86267241 1.5811541-.864 2.482v9.357c0 2.209139 1.790861 4 4 4h52c2.209139 0 4-1.790861 4-4s-1.790861-4-4-4zm-39.507-27.615-3.135-2.485 4.335-5.471 3.632 1.858zm-5.86-5.016c-.0313198-.2638603.0443075-.5292762.21-.737l2.708-3.417c.2958436-.3738284.8144394-.4868396 1.239-.27l1.086.556-4.087 5.157-.783-.62c-.2087107-.1642182-.3430285-.4051261-.373-.669zm-2.834 15.988-3.136-2.484 4.335-5.473 3.635 1.859zm-5.859-5.015c-.03159947-.2637235.0436634-.5291241.209-.737l2.709-3.417c.29693223-.3720801.81417692-.4847968 1.239-.27l1.085.556-4.086 5.157-.784-.621c-.20836417-.1639405-.34234883-.4045367-.372-.668zm45.399-22.342 4.25 11.88c.8032521 2.2649932.3907876 4.783555-1.093 6.674l-1.118 1.416-1.2-2.591c-.1462194-.3144063-.4448745-.530627-.7892157-.5713774-.3443411-.0407504-.685216.0997862-.9007843.3713774l-1.344 1.689-4.58-2.531c-.3794099-.2104451-.8512379-.1522269-1.168114.144132-.316876.2963589-.4065009.7632405-.221886 1.155868l2.473 5.294-1.923 1.256c-.2982641.1949411-.4702676.5338634-.4515182.8896891.0187493.3558258.2254187.6747949.5425182.8373109l3.451 1.77-11.057 13.98c-1.407321-1.080759-3.04406-1.8238604-4.784-2.172.2450695-.5032358.3421702-1.0657265.28-1.622-.1125624-1.1361618-.8602782-2.109944-1.9288563-2.5120318-1.0685782-.4020879-2.2727621-.1627725-3.1063911.6173534-.833629.780126-1.1521792 1.9658142-.8217526 3.0586784-2.3830961.0784945-4.7177546.6937778-6.83 1.8zm-23.113 39.061c-.0441229-.0206575-.086009-.0457892-.125-.075-.3542849-.2822056-.4746478-.7673021-.2933766-1.1823907.1812713-.4150886.6189059-.6565049 1.0667055-.5884362s.7939304.4286228.8436711.8788269c.0302672.2586718-.0450844.518617-.209.721-.1067413.1293321-.2442927.2297446-.4.292-.291-.03-.59-.029-.883-.046zm10.33-32.6-18.872 23.82c-.1272223.1742874-.297889.3121999-.495.4l-1.345-1.061c.0370805-.2121329.1299213-.4105845.269-.575l17.94-22.652zm-32.123 30.939 23.7-29.962c.5832257-.7438213 1.4852115-1.1662328 2.43-1.138l.992.027-17.011 21.473c-.3689959.4558485-.6062284 1.003973-.686 1.585-.1051817.6425233.1356943 1.2929645.634 1.712l1.57 1.237c.3030349.2373705.678098.3640381 1.063.359.2544331-.0017591.5065862-.0481282.745-.137.5473447-.2128446 1.0257361-.5718976 1.383-1.038l19.8-24.993 2.519.068-26.683 33.712c-1.5268721-.5069394-3.19336631-.3794514-4.62535956.3538435-1.43199324.7332948-2.50950623 2.0109575-2.99064044 3.5461565-1.0889935-.370827-2.28597041-.2439248-3.273.347v-5.909c.00073316-.451188.15324819-.8890083.433-1.243zm53.567 12.6h-52c-1.1045695 0-2-.8954305-2-2s.8954305-2 2-2c.49627791-.0009509.97470551.1850646 1.34.521.28761792.2601915.69974692.3306095 1.05743998.1806782.35769305-.1499312.59643356-.4931687.61256002-.8806782.06092018-1.5292399.99352699-2.8880055 2.39860815-3.4946627 1.40508115-.6066571 3.03357675-.3536719 4.18839185.6506627.6800872.582311 1.1495816 1.3722986 1.336 2.248.0737753.3495844.3284476.633255.6680842.7441559.3396367.1109009.7126388.0321835.9785001-.2065s.3841911-.6010715.3104157-.9506559c-.170527-.7895276-.4961593-1.5373263-.958-2.2 2.1831543-1.1226074 4.6139861-1.6770076 7.068-1.612 1.2341188-.00411 2.4653478.1195491 3.674.369 1.8064217.2718679 3.4837417 1.0982974 4.8 2.365.3266578.3486839.5218151.8001619.552 1.277.0060282.5479842.4519827.9890332 1 .989h.007c.2652226-.0031636.5183234-.1115667.7036134-.3013577s.2875884-.4454202.2843866-.7106423c-.0123977-.5301699-.1382205-1.0515331-.369-1.529 1.6208968-1.0096707 3.5042458-1.5173017 5.413-1.459.0437233.0063138.0878245.0096548.132.01 1.4494657.0047622 2.8812711.3183958 4.2.92-.2467148.6661492-.3700602 1.3716577-.364 2.082.0065716.5475928.4523678.9880394 1 .988h.012c.265398-.0031623.518652-.1117031.7039708-.3017111.1853188-.1900081.2874985-.4458947.2840292-.7112889-.0087881-.8120169.2382146-1.6062038.706-2.27.9960624-1.4308113 2.8060677-2.0487865 4.4691742-1.5258734s2.7937895 2.0654981 2.7918258 3.8088734c.003944.2090817-.0148328.4179733-.056.623-.0956463.4306356.1021813.8730735.4868925 1.0889264s.8654155.1541242 1.1831075-.1519264c.6486438-.6251963 1.6352196-.7395553 2.4096814-.2793184.7744619.4602369 1.1456277 1.3814566.9065613 2.2500511s-1.0293496 1.4701444-1.9302427 1.4692673z"/><path id="Shape" d="m42.793 23.481c.5280409.4203653 1.1830672.6491662 1.858.649.1169602.000287.2338338-.0063915.35-.02 1.4217736-.1644175 2.5294024-1.3102871 2.6454855-2.7368206.1160832-1.4265336-.7917114-2.7364068-2.1681968-3.1285306-1.3764855-.3921238-2.8382771.2427178-3.491376 1.51627s-.3156011 2.8310995.8060873 3.7200812zm1.08-2.972c.1636429-.2087129.4043969-.3427855.668-.372.0388138-.0047937.0778915-.0071317.117-.007.5285354.0021382.9641393.4152078.9943225.942885.0301833.5276771-.3554782.9877232-.8803225 1.050115-.2635711.0336409-.5294446-.0418585-.736-.209-.2079637-.1646761-.3419763-.4052339-.3725461-.6687345-.0305699-.2635006.0448083-.5283508.2095461-.7362655z"/><path id="Shape" d="m32.856 36.021c.9507759.7540013 2.2621472.8609802 3.3225584.2710475 1.0604113-.5899328 1.6610051-1.7605848 1.5216959-2.9660248-.1393093-1.20544-.9910835-2.208246-2.1580995-2.5407613s-2.4194195.0707518-3.1731548 1.0217386c-.5001352.6210658-.7302052 1.416814-.6386605 2.2089488.0915448.7921348.4970509 1.5144312 1.1256605 2.0050512zm1.08-2.972c.3429582-.4328457.9718583-.505744 1.404738-.1628287.4328797.3429154.5058402.9718083.1629677 1.4047219s-.9717581.5059364-1.4047057.1631068c-.2079637-.1646761-.3419763-.4052339-.3725461-.6687345-.0305699-.2635006.0448083-.5283508.2095461-.7362655z"/><path id="Shape" d="m27.888 42.292c1.1217944.8888187 2.7152285.8614293 3.8058136-.0654178s1.3745747-2.4950092.6782906-3.745453c-.696284-1.2504439-2.1789148-1.8348997-3.5411669-1.3959346-1.3622522.4389651-2.2247154 1.7790918-2.0599373 3.2008054.0898837.7908821.4920216 1.5130744 1.117 2.006zm1.08-2.973c.1645992-.2075903.4048477-.3413813.668-.372.0388138-.0047937.0778915-.0071317.117-.007.4661444.0005542.8700773.3231047.9737605.7775722.1036832.4544676-.120388.9202923-.5401682 1.1229632-.4197802.202671-.9239114.0884242-1.2153086-.2754145-.2913971-.3638388-.2927593-.8807514-.0032837-1.2461209z"/><path id="Shape" d="m47.067 35c0 1.6568542 1.3431458 3 3 3s3-1.3431458 3-3-1.3431458-3-3-3-3 1.3431458-3 3zm4 0c0 .5522847-.4477153 1-1 1s-1-.4477153-1-1 .4477153-1 1-1 1 .4477153 1 1z"/><path id="Shape" d="m57.067 0c-1.6568542 0-3 1.34314575-3 3s1.3431458 3 3 3 3-1.34314575 3-3-1.3431458-3-3-3zm0 4c-.5522847 0-1-.44771525-1-1s.4477153-1 1-1 1 .44771525 1 1c0 .26521649-.1053568.5195704-.2928932.70710678s-.4418903.29289322-.7071068.29289322z"/><path id="Shape" d="m56.067 38c-2.209139 0-4 1.790861-4 4s1.790861 4 4 4 4-1.790861 4-4-1.790861-4-4-4zm0 6c-1.1045695 0-2-.8954305-2-2s.8954305-2 2-2 2 .8954305 2 2-.8954305 2-2 2z"/><circle id="Oval" cx="56.067" cy="34" r="1"/><circle id="Oval" cx="53.067" cy="7" r="1"/></g></g></g></svg>