<?xml version="1.0" standalone="no"?>
<!DOCTYPE svg PUBLIC "-//W3C//DTD SVG 20010904//EN"
 "http://www.w3.org/TR/2001/REC-SVG-20010904/DTD/svg10.dtd">
<svg version="1.0" xmlns="http://www.w3.org/2000/svg"
 width="900.000000pt" height="795.000000pt" viewBox="0 0 900.000000 795.000000"
 preserveAspectRatio="xMidYMid meet">
<metadata>
Created by potrace 1.12, written by Peter Selinger 2001-2015
</metadata>
<g transform="translate(0.000000,795.000000) scale(0.100000,-0.100000)"
fill="#000000" stroke="none">
<path d="M2344 7695 l-7 -17 16 -15 15 -16 17 7 16 6 -3 22 -3 23 -23 3 -22 3
-6 -16z"/>
<path d="M4637 7583 l-7 -6 0 -24 0 -24 15 -5 15 -6 0 -14 0 -14 -9 0 -8 0
-26 20 -25 20 -14 0 -13 0 -58 -60 -57 -60 -58 0 -57 0 -11 -8 -11 -7 -7 -21
-6 -21 14 -12 15 -13 78 2 78 2 26 -1 25 -1 37 -33 37 -33 0 -83 0 -84 17 -19
16 -18 -7 -7 -6 -7 -45 3 -45 2 -22 -12 -22 -12 19 -13 19 -14 68 0 68 0 0
-20 0 -20 20 -20 20 -20 52 -36 53 -37 5 -8 5 -8 60 -29 60 -29 28 -7 28 -7
-6 -33 -7 -34 22 -20 22 -21 -7 -56 -7 -56 12 -14 11 -14 -2 -13 -1 -13 1 -18
1 -18 10 6 10 6 -6 25 -6 24 12 15 12 14 -7 56 -7 55 -9 6 -9 5 0 38 0 38 18
15 17 16 63 -2 62 -2 16 -16 17 -16 -2 -128 -1 -128 -15 -9 -15 -8 0 -69 0
-70 -17 -2 -18 -2 -40 0 -40 -1 0 -10 0 -10 50 0 50 0 14 -9 13 -9 85 2 84 2
15 6 14 5 0 13 0 13 -16 6 -16 6 -64 0 -64 0 0 44 0 44 15 12 15 12 0 57 1 56
14 19 15 20 0 35 0 34 -14 16 -13 16 -6 46 -6 45 22 20 22 19 34 1 34 1 9 18
10 17 54 -7 54 -6 20 6 20 6 0 22 0 22 35 19 36 20 23 1 23 1 37 28 37 28 57
-5 57 -6 37 -6 37 -7 6 25 7 26 -7 10 -6 11 -23 0 -23 0 -33 17 -33 16 16 12
17 12 0 10 0 9 -30 22 -29 22 -14 0 -15 0 -28 15 -29 16 -91 -3 -91 -3 -18 15
-17 14 -114 2 -114 2 -13 10 -12 9 -55 7 -55 7 -12 10 -12 11 -63 5 -63 5 -10
8 -11 9 -43 -15 -42 -14 -10 5 -9 6 0 48 0 49 -15 12 -15 13 5 17 5 17 -15 13
-15 12 0 18 0 18 -15 12 -14 12 -9 -6 -9 -6 -18 20 -18 20 -19 0 -19 0 -5 15
-6 15 -12 0 -13 0 -6 -7z m63 -231 l1 -97 29 -25 30 -24 0 -64 0 -64 23 -19
22 -18 53 -1 52 0 0 19 0 19 -17 13 -16 14 -41 0 -41 0 -3 38 -3 37 15 0 16 0
0 -13 0 -14 19 -17 20 -18 10 7 11 6 0 14 0 13 -16 6 -15 6 6 10 6 10 10 0 9
0 0 -10 0 -10 20 -20 20 -20 6 0 5 0 29 32 29 32 8 -8 8 -8 -18 -12 -17 -13 0
-27 0 -26 11 0 12 0 12 16 11 16 27 -31 26 -31 6 0 6 0 29 32 29 32 8 -8 7 -7
-13 -20 -12 -21 4 -4 5 -5 31 31 31 32 6 -16 6 -16 9 0 9 0 44 46 44 45 7 -10
6 -11 -15 -6 -16 -6 0 -22 0 -22 -30 -24 -29 -25 -1 -12 0 -13 10 0 10 0 59
61 59 60 7 -10 6 -11 -15 -6 -16 -6 0 -13 0 -13 -15 -12 -15 -12 0 -18 0 -18
15 -6 15 -5 0 -11 0 -10 -14 0 -14 0 -6 -15 -5 -15 -26 0 -25 0 0 -30 0 -30
14 0 14 0 12 15 12 15 34 0 34 0 0 13 0 13 -11 11 -11 11 18 21 18 21 18 0 18
0 44 46 44 45 7 -10 6 -11 -15 -6 -16 -6 0 -29 0 -29 14 0 14 0 6 16 6 15 10
-6 10 -6 0 -10 0 -9 -15 0 -16 0 3 -27 3 -28 -62 -3 -63 -3 0 -11 0 -11 -17
-19 -16 -18 -44 0 -43 0 0 -10 0 -10 27 -11 26 -10 -10 -10 -10 -10 -59 3 -59
3 -3 22 -3 23 -32 35 -31 35 -151 0 -151 0 -20 15 -19 14 -13 1 -14 0 -38 37
-39 36 9 17 9 17 -11 64 -12 64 -13 8 -13 8 0 93 0 93 6 6 7 6 8 -5 9 -5 0
-97z m120 -102 l0 -19 -10 -6 -10 -6 -6 15 -6 16 6 16 6 15 10 -6 10 -6 0 -19z
m205 -10 l7 -11 -6 -15 -6 -15 -25 17 -25 16 6 9 5 9 19 0 19 0 6 -10z m65
-27 l0 -8 -24 -22 -23 -22 -7 6 -6 6 0 9 0 8 14 0 14 0 6 15 5 15 11 0 10 0 0
-7z m141 -76 l-11 -11 -6 7 -6 6 7 10 6 11 11 -6 10 -6 -11 -11z m537 -84 l4
-13 -81 0 -81 0 0 15 0 16 77 -3 76 -3 5 -12z"/>
<path d="M5002 7059 l4 -10 9 0 10 0 3 10 4 11 -17 0 -17 0 4 -11z"/>
<path d="M5180 7055 l0 -15 15 0 15 0 0 15 0 15 -15 0 -15 0 0 -15z"/>
<path d="M6675 7215 l-78 -75 -16 0 -16 -1 -18 -25 -19 -25 6 -15 5 -14 24 0
23 0 20 15 19 14 18 1 18 0 15 -15 15 -15 20 0 19 0 0 -9 0 -9 -10 -4 -9 -3
-3 -96 -3 -95 15 -15 15 -15 20 -37 20 -37 20 0 21 0 24 -30 25 -29 36 -1 36
0 21 -23 22 -23 0 -17 0 -16 10 -6 10 -6 0 -73 0 -74 -15 -12 -16 -13 3 -51 3
-51 20 0 20 0 0 55 0 55 19 14 18 14 -3 96 -4 96 22 3 22 3 11 15 12 14 18 0
18 0 6 -17 7 -16 -7 -131 -6 -131 -2 -22 -2 -21 -13 -16 -13 -15 4 -23 3 -23
17 -3 16 -3 7 23 7 23 15 17 15 16 -5 157 -6 157 6 14 5 14 38 0 38 0 4 12 4
12 35 -2 35 -2 33 34 33 34 13 -4 13 -5 15 21 14 20 15 -5 15 -6 13 16 12 15
18 0 18 0 12 15 12 14 116 3 117 3 3 33 3 32 -18 7 -18 7 -13 13 -13 13 -43 0
-42 0 -29 30 -29 30 -30 0 -31 1 -20 15 -20 15 -71 -3 -72 -2 -16 13 -17 14
-123 1 -123 1 -14 12 -15 12 -59 3 -60 3 0 22 -1 21 -14 29 -14 28 -40 43 -40
42 -46 0 -47 0 -78 -75z m160 10 l29 -24 -16 -6 -17 -7 -7 -31 -6 -30 -10 17
-10 17 6 24 6 24 -16 9 -17 9 7 12 7 11 7 0 7 -1 30 -24z m36 -186 l-20 -19
-11 0 -10 0 0 28 0 29 6 6 6 6 25 -16 24 -16 -20 -18z m-41 -58 l0 -30 10 -6
9 -6 14 27 14 27 7 -29 7 -28 -15 -12 -16 -11 0 -27 0 -26 14 0 15 0 3 27 3
26 10 4 10 3 17 -31 18 -30 57 3 58 3 -2 19 -1 19 9 24 9 24 37 -3 38 -3 3
-27 3 -28 25 0 25 0 26 30 26 31 17 -19 17 -18 36 4 36 4 6 19 6 19 14 0 14 0
25 -11 25 -12 25 17 25 16 19 0 18 0 12 -12 12 -12 0 -18 0 -17 -19 -11 -20
-10 -13 5 -14 5 -34 -35 -34 -35 -26 0 -25 0 -13 20 -13 21 -12 -8 -11 -7 -29
2 -28 2 -22 -15 -21 -15 -23 0 -23 0 0 -30 0 -30 -9 0 -9 0 -12 15 -12 15 -48
0 -48 0 -12 -15 -12 -15 -44 0 -44 0 -33 18 -33 17 -21 20 -20 20 -17 32 -16
32 0 44 0 44 7 6 6 7 9 0 8 0 0 -29z m120 -17 l0 -14 -9 0 -10 0 -6 10 -6 10
6 10 6 10 10 -5 9 -6 0 -15z m240 -5 l0 -9 -15 0 -15 0 0 8 0 9 6 6 7 6 8 -5
9 -5 0 -10z m120 12 l0 -10 -11 -6 -10 -7 -6 5 -5 6 7 10 6 11 10 0 9 0 0 -9z
m-303 -65 l-6 -16 -26 0 -25 0 0 13 0 14 23 10 22 11 9 -8 9 -9 -6 -15z m358
-125 l-6 -11 -10 5 -9 6 0 22 0 21 16 -16 16 -16 -7 -11z m-64 -34 l-8 -8 -49
3 -49 3 0 10 0 10 25 3 25 4 8 14 8 15 24 -23 24 -23 -8 -8z"/>
<path d="M7100 6905 l0 -15 15 0 15 0 0 15 0 15 -15 0 -15 0 0 -15z"/>
<path d="M1816 7208 l-11 -18 -21 0 -22 0 -6 -15 -5 -15 -19 0 -20 0 -12 -15
-12 -15 -17 0 -17 0 -61 -52 -60 -53 -27 -32 -26 -31 6 -15 6 -15 -21 -12 -21
-11 0 -17 0 -18 -12 -12 -11 -11 2 -64 2 -64 -16 -13 -15 -12 0 -16 0 -17 -42
-37 -43 -38 -12 0 -11 0 -4 -7 -3 -8 -32 -22 -32 -23 -14 0 -14 0 -32 -16 -31
-16 -30 7 -31 7 -24 -16 -24 -16 -28 0 -28 0 -57 -55 -58 -55 0 -8 0 -9 24
-22 24 -23 226 7 226 7 25 -16 24 -16 28 0 28 0 33 -20 32 -20 0 -10 0 -10 19
0 19 0 12 -15 12 -15 13 0 13 0 12 -15 12 -15 42 0 41 -1 38 -34 37 -35 0 -64
0 -64 15 -12 15 -12 0 -73 0 -73 -15 -12 -15 -12 0 -117 0 -117 12 -12 11 -11
-26 -10 -27 -11 0 -72 0 -73 -15 -29 -15 -28 0 -37 1 -36 14 -19 15 -20 0 -43
0 -44 15 -5 15 -6 0 -74 0 -75 15 -5 15 -6 0 -23 0 -23 15 -6 15 -5 0 -25 0
-24 15 -6 15 -5 0 -25 0 -24 15 -6 15 -5 0 -19 0 -19 30 -29 29 -29 1 -21 0
-22 15 -6 15 -5 0 -17 0 -16 24 6 25 6 6 -10 6 -10 -15 -6 -16 -6 0 -15 0 -15
26 5 26 5 5 -17 6 -16 29 -33 28 -33 0 -14 0 -13 17 -31 18 -30 22 -10 23 -11
0 -8 0 -9 25 -27 24 -26 9 0 9 0 15 -17 16 -18 4 -20 3 -20 28 -13 27 -13 22
-30 22 -29 14 0 13 0 -5 -17 -5 -18 34 -37 35 -38 8 0 8 0 48 -56 48 -55 24
-9 23 -9 7 -26 6 -25 20 0 19 0 33 -25 33 -25 11 0 11 0 35 -36 35 -36 16 5
15 6 10 -19 11 -20 33 0 34 0 13 -16 13 -16 32 5 32 5 17 -18 17 -19 26 -3 27
-3 13 -27 13 -28 10 0 9 0 0 -23 0 -23 30 -24 29 -25 1 -27 0 -28 -37 0 -38 1
-19 14 -20 15 -28 0 -29 0 -5 15 -6 15 -54 0 -53 0 -8 13 -8 14 -49 7 -50 6
-16 15 -17 15 -12 0 -12 0 -24 16 -25 16 0 -7 0 -6 -27 21 -26 21 -88 -3 -87
-2 -17 17 -16 17 -43 0 -44 0 -12 15 -12 15 -78 0 -78 0 -6 15 -6 16 -72 -3
-73 -3 0 -20 0 -20 65 -3 65 -3 8 -15 8 -14 38 0 39 0 6 -15 5 -15 39 0 40 0
12 -15 12 -15 50 0 49 0 5 -15 6 -15 113 0 113 0 12 -15 13 -16 13 5 12 5 18
-20 17 -19 32 0 33 0 28 -15 29 -15 32 0 32 0 6 -10 6 -10 31 0 30 0 38 -30
38 -30 24 0 24 0 20 -15 19 -14 17 -1 17 0 36 -44 36 -45 -3 -28 -3 -28 -50
-3 -50 -3 -15 -5 -14 -5 29 -24 30 -24 46 -1 46 0 21 -23 22 -23 0 -36 0 -36
15 -12 15 -12 0 -63 0 -63 15 -6 15 -5 0 -27 0 -27 14 -16 15 -16 0 -165 0
-165 -1 -65 -2 -65 -18 -13 -19 -14 4 -11 5 -12 -20 -32 -19 -32 3 -34 2 -35
-17 -16 -17 -17 6 -25 6 -25 -15 -17 -15 -17 -4 -35 -3 -35 -145 4 -145 3 -10
8 -10 7 -35 6 -35 6 -212 2 -213 2 0 7 0 7 -40 7 -41 6 -19 -10 -19 -10 -6
-20 -6 -20 -103 0 -102 0 -12 -12 -12 -12 0 -22 0 -22 19 -5 20 -5 18 13 18
12 110 2 109 2 16 14 17 15 225 0 226 0 35 -15 36 -15 133 0 133 -1 18 -13 18
-14 -11 -41 -11 -40 -15 -16 -15 -15 -79 0 -79 0 -9 16 -9 15 -95 3 -95 3 -19
11 -20 10 -132 1 -132 0 -5 -10 -6 -9 -169 0 -169 0 -15 -15 -15 -15 -30 0
-31 0 0 -19 0 -20 -10 -6 -10 -6 0 -11 0 -10 20 5 20 5 6 -9 5 -9 36 0 36 0
11 15 11 14 388 3 388 3 7 -12 8 -12 84 -3 85 -3 3 -37 3 -38 -15 -22 -16 -22
0 -28 0 -28 -39 0 -39 0 -12 15 -12 15 -18 0 -18 0 -12 15 -12 15 -31 0 -30 0
-16 14 -16 15 -63 3 -63 3 -9 -15 -10 -15 0 -6 0 -6 25 -27 24 -26 19 0 20 0
12 -14 11 -15 22 -3 22 -3 0 -25 0 -25 -102 -3 -102 -3 -26 -13 -25 -13 -117
5 -116 5 -36 -19 -36 -19 -8 -12 -8 -13 -25 0 -25 0 -6 -16 -6 -15 24 -25 24
-26 190 5 190 5 40 15 41 15 185 3 185 3 32 -24 32 -24 0 -48 0 -48 20 -20 20
-20 43 0 42 -1 28 -23 29 -23 -4 -19 -3 -19 -39 -3 -39 -3 -14 -15 -14 -14
-33 0 -32 0 -12 -12 -12 -12 -61 -2 -62 -3 -11 -11 -10 -10 -53 0 -53 0 0 -9
0 -10 -50 -28 -51 -28 3 -30 3 -30 93 -2 93 -1 6 14 5 14 68 0 69 0 16 17 17
16 50 3 51 4 16 14 17 15 41 -2 42 -1 19 17 19 17 35 0 36 0 6 15 6 16 67 -3
68 -3 3 -25 4 -25 7 -10 7 -10 3 -110 3 -110 4 -7 5 -8 43 0 42 0 21 28 20 28
-2 76 -3 77 -16 23 -16 22 0 23 0 23 13 1 12 1 9 -1 8 -2 14 12 14 11 0 29 0
29 -51 51 -51 51 6 42 6 41 12 48 12 47 -19 14 -20 14 18 19 17 20 0 116 0
117 18 18 18 18 63 -2 64 -2 8 -13 8 -14 68 -2 68 -3 54 -17 54 -17 29 17 30
17 29 0 30 0 5 15 6 15 58 0 58 0 12 15 12 15 65 0 64 0 5 13 5 14 -10 26 -11
27 -44 0 -44 0 -6 -15 -5 -15 -67 0 -67 0 -16 -14 -16 -14 -245 -2 -245 -2
-12 1 -13 1 0 62 0 62 20 21 21 22 104 -4 105 -4 35 17 35 16 13 -9 12 -9 30
1 30 0 11 7 11 7 215 1 215 1 26 14 26 14 473 1 473 1 22 14 23 15 15 30 16
30 160 0 160 0 36 15 35 15 148 0 148 0 12 15 12 15 60 0 59 0 5 15 6 15 28 0
27 0 16 18 17 19 0 21 0 22 -44 0 -44 0 -6 15 -5 15 -25 0 -24 0 -6 16 -6 16
-54 -4 -54 -3 -11 18 -11 17 -39 0 -40 0 -15 15 -15 15 -41 0 -41 0 -5 15 -6
15 -33 0 -33 0 -6 15 -5 15 -46 0 -46 0 -5 15 -6 15 -53 0 -53 0 -12 15 -12
15 -79 0 -79 0 0 15 0 15 -59 0 -59 0 -6 15 -5 15 -55 0 -54 0 -6 15 -5 15
-55 0 -54 0 -6 15 -5 15 -55 0 -54 0 -6 15 -5 15 -34 0 -35 0 -12 15 -12 15
-39 0 -39 0 0 10 0 10 24 0 25 0 6 10 6 10 55 0 55 0 5 15 6 15 17 0 17 0 27
28 27 28 -12 12 -12 12 -33 0 -34 0 -5 15 -6 15 -53 0 -53 0 -16 -6 -16 -6 0
-13 0 -13 16 -6 16 -6 49 0 49 0 0 -6 0 -7 -17 -13 -18 -13 -53 -1 -54 0 -31
-15 -32 -14 -45 -3 -45 -3 0 -35 0 -35 55 -3 55 -3 8 -15 8 -14 25 0 25 0 5
-15 6 -15 27 0 27 0 20 -15 19 -14 38 -1 38 0 5 -15 6 -15 53 0 53 0 12 -15
12 -15 63 0 63 0 6 -15 5 -15 69 0 70 0 12 -15 12 -15 37 0 37 0 20 -15 19
-14 50 -1 50 -1 19 -14 20 -15 47 0 47 0 12 -15 12 -15 28 0 28 0 12 -15 12
-15 43 0 43 0 6 -15 5 -15 70 0 69 0 6 -15 5 -15 30 0 29 0 6 -15 5 -15 26 0
25 0 0 -14 0 -14 -16 -6 -16 -6 -53 0 -53 0 -12 -15 -12 -15 -126 0 -125 0
-18 -16 -17 -15 -238 -2 -239 -2 -5 -30 -5 -29 -45 -9 -45 -8 -29 6 -29 5 -14
-11 -14 -12 -102 8 -102 8 -35 -1 -35 -2 -285 -6 -285 -5 -23 -15 -23 -15 -32
6 -32 6 -232 -9 -233 -9 -14 -12 -14 -12 -64 3 -63 3 2 64 2 64 12 7 12 8 2
96 2 96 11 12 10 13 7 75 7 75 9 11 9 10 5 50 6 49 12 7 11 7 -2 40 -3 40 18
9 17 10 -2 53 -2 53 -15 9 -15 8 0 68 0 69 -15 12 -15 12 0 14 0 13 11 6 10 7
21 -19 20 -18 87 -4 86 -3 8 -14 8 -14 108 0 109 0 12 -15 12 -15 48 0 48 0 6
-15 5 -15 56 0 56 0 5 -15 6 -15 57 0 57 0 20 -15 19 -14 51 -1 52 0 12 -15
13 -16 61 3 61 3 0 20 0 20 -45 3 -45 3 -8 15 -8 14 -55 0 -55 0 -5 15 -6 15
-68 0 -68 0 -6 15 -5 15 -55 0 -54 0 -6 15 -5 15 -41 0 -41 0 -5 15 -6 15
-137 0 -136 1 -19 14 -20 15 -56 0 -57 0 -7 8 -7 7 -56 10 -56 10 -11 20 -11
20 -12 8 -13 8 0 79 0 79 13 8 12 8 50 3 50 4 187 3 186 4 6 -15 5 -14 100 0
99 0 6 -15 5 -15 88 0 88 -1 19 -14 20 -15 127 0 127 0 6 -15 5 -15 84 0 85 0
12 -15 12 -15 130 0 129 0 6 16 6 15 -10 10 -10 10 -51 2 -52 2 -5 13 -4 12
-115 0 -114 0 -28 15 -29 15 -76 0 -77 0 -12 15 -12 15 -63 0 -63 0 -12 15
-12 14 -169 0 -168 0 -33 17 -33 17 -267 -5 -267 -6 -5 15 -6 15 0 68 0 68 15
12 14 12 3 96 3 97 23 3 23 4 6 14 5 14 39 0 40 0 5 15 6 15 28 0 28 0 6 15 5
15 25 0 24 0 6 15 5 15 29 0 30 0 12 15 12 15 43 0 43 0 6 15 5 15 25 0 24 0
6 15 5 15 23 0 23 0 12 18 11 19 36 17 36 17 0 9 0 10 25 0 26 0 5 15 6 15 40
0 39 0 41 45 41 45 12 0 13 0 12 15 12 15 83 0 83 0 12 15 12 15 22 0 22 0 20
15 19 14 52 1 52 0 33 30 32 30 32 0 32 0 6 15 5 15 40 0 39 0 6 15 5 15 25 0
24 0 6 15 5 15 40 0 39 0 6 15 5 15 27 0 26 0 45 30 44 30 22 0 23 0 32 30 33
30 33 0 34 0 12 15 12 15 53 0 53 0 12 15 12 15 94 0 94 0 0 8 0 8 50 22 50
22 110 0 109 0 6 10 7 11 11 -10 12 -9 387 -3 387 -3 23 27 24 27 14 0 15 1
43 40 42 40 0 39 0 40 -10 0 -10 0 -13 28 -12 27 -20 23 -19 23 -12 -5 -12 -5
-17 19 -16 18 -17 -5 -18 -4 -29 12 -30 12 -32 -2 -32 -2 -21 11 -21 11 6 10
6 9 38 0 38 0 21 23 22 23 0 15 0 15 -11 11 -11 11 -15 -5 -14 -6 -15 21 -14
20 -18 -5 -18 -4 -13 15 -13 16 -28 0 -28 0 -12 15 -12 15 -27 0 -26 0 -29 15
-28 15 -59 0 -60 0 -5 15 -6 15 -81 0 -80 0 -18 16 -18 16 -30 -18 -31 -18
-11 11 -12 12 -17 -9 -17 -9 -27 15 -28 14 -198 0 -198 0 -12 15 -12 15 -50 0
-49 0 -5 15 -6 15 -78 0 -78 0 -12 15 -12 15 -45 0 -44 0 -5 -15 -6 -15 12
-15 12 -15 24 0 24 0 0 -15 0 -15 -40 0 -39 0 -11 20 -11 20 10 18 10 19 -15
21 -15 22 -57 0 -57 1 -19 14 -20 15 -28 0 -29 0 -5 15 -6 15 -53 0 -53 0 -5
14 -5 13 -56 7 -56 7 -5 8 -5 8 -50 7 -50 7 -47 24 -46 25 -37 0 -38 0 -6 15
-5 15 -49 0 -50 0 -12 15 -12 15 -69 0 -69 0 0 -15 0 -15 14 0 15 0 5 -8 5 -9
-6 -21 -5 -22 -17 0 -17 0 -12 12 -12 12 0 32 0 32 -25 16 -24 16 -61 0 -61 0
-5 15 -6 15 -44 0 -44 0 0 -15 0 -15 33 0 34 0 26 -23 27 -23 0 -7 0 -7 -24 0
-24 0 -12 15 -12 15 -35 0 -34 0 -5 15 -6 15 -30 0 -30 0 4 13 5 12 26 3 27 3
0 15 0 14 -59 0 -59 0 -6 15 -5 15 -94 0 -95 0 -12 15 -12 15 -98 0 -98 0 -6
15 -5 15 -65 0 -65 0 -8 14 -8 13 -72 5 -73 5 -12 11 -13 10 -107 4 -107 3
-13 13 -12 12 -57 0 -57 0 -11 14 -11 13 -72 6 -71 6 -11 11 -10 10 -32 0 -32
0 -6 15 -5 15 -51 0 -51 0 -5 15 -6 15 -22 0 -21 0 -22 24 -23 24 0 15 0 15
-15 12 -15 12 0 42 -1 41 -14 19 -15 20 0 62 0 62 -15 12 -15 12 0 93 0 93
-15 12 -15 12 0 32 0 32 -12 12 -11 11 -22 66 -21 66 -27 29 -27 28 0 15 0 15
-15 12 -15 12 0 27 -1 26 -14 19 -15 20 0 23 0 23 -19 0 -18 0 -79 75 -79 75
-14 0 -14 0 -19 16 -18 17 -196 1 -197 1 -11 -17z m302 -35 l4 -13 -15 0 -15
0 -6 -25 -6 -25 -25 16 -25 16 23 24 22 24 19 -2 19 -3 5 -12z m-216 -28 l0
-9 -11 -4 -11 -4 0 17 0 17 11 -4 11 -3 0 -10z m-22 -60 l0 -15 -15 0 -15 0 0
15 0 15 15 0 15 0 0 -15z m321 0 l0 -10 -26 -3 -25 -3 0 16 0 16 25 -3 26 -3
0 -10z m37 -34 l5 -13 -14 4 -13 4 -4 13 -4 14 13 -5 13 -4 4 -13z m125 -26
l2 -10 -17 -3 -18 -3 0 16 0 16 16 -3 15 -3 2 -10z m-538 -5 l6 -10 64 0 64 0
8 -14 8 -15 40 -3 40 -3 4 -20 3 -20 44 -42 44 -43 0 -19 0 -20 28 -13 27 -13
5 -50 5 -50 28 -3 27 -3 0 -29 0 -29 15 -15 15 -15 0 -15 0 -16 -14 0 -14 0
-6 16 -6 15 -10 -6 -10 -6 0 -30 0 -31 37 -38 36 -39 9 5 9 6 -3 17 -3 16 24
24 24 24 15 -10 16 -9 10 -17 10 -16 -7 -8 -8 -7 -19 11 -18 12 -6 -15 -6 -16
0 -23 0 -23 -15 -6 -15 -5 0 -111 0 -111 15 -5 15 -6 0 -18 0 -18 -15 -12 -15
-12 0 -22 0 -21 19 -29 19 -28 -5 -39 -6 -39 25 0 26 0 15 -22 16 -23 7 23 6
22 14 0 14 0 0 -30 0 -30 -15 0 -15 0 0 -45 0 -45 -12 0 -13 0 -24 36 -24 35
-14 -6 -15 -5 -9 0 -9 0 0 -41 0 -40 32 -29 32 -30 1 -47 0 -48 28 -3 27 -3 0
15 0 16 14 0 15 0 6 -20 6 -20 20 -11 20 -10 42 -2 42 -2 23 -20 22 -19 0 -19
0 -18 15 -5 15 -6 0 -29 0 -29 14 0 14 0 6 -16 6 -15 25 18 24 18 1 11 0 12
-15 6 -15 5 0 26 0 25 -10 0 -10 0 -12 25 -11 24 -17 -9 -17 -9 -7 6 -6 6 0
17 0 18 15 12 15 12 0 23 0 23 15 6 15 5 0 41 0 40 15 0 15 0 1 -37 1 -38 -1
-17 -2 -17 21 -11 21 -11 -6 -10 -6 -9 -23 0 -23 0 -5 -6 -6 -5 26 -40 26 -39
18 0 19 0 -6 53 -7 52 21 27 21 26 0 13 0 12 -15 17 -15 16 -2 24 -3 24 18 4
17 3 0 -24 0 -25 15 -12 15 -12 0 -38 0 -38 16 -12 15 -13 -3 -31 -3 -30 -25
-6 -25 -6 -3 -17 -3 -17 20 -25 19 -26 -5 -57 -6 -57 -8 -9 -9 -10 9 -10 9
-11 4 -25 3 -24 20 -6 20 -5 23 -20 22 -19 0 -16 0 -15 24 -22 24 -23 19 0 18
0 14 -21 13 -22 -13 -23 -12 -24 -37 0 -38 0 -12 -15 -12 -15 -33 0 -33 0 -12
14 -11 15 -22 3 -22 3 2 10 2 10 18 3 18 4 13 16 13 17 13 -17 13 -18 12 0 11
0 0 23 0 22 -48 53 -47 52 -11 0 -12 0 -6 16 -6 15 -22 -3 -23 -3 -3 -23 -4
-23 12 -14 12 -15 -16 -6 -17 -6 -19 17 -19 17 -18 -4 -18 -3 -3 -19 -4 -18
11 -11 11 -11 12 12 12 12 23 -26 23 -27 0 -12 0 -13 15 -6 15 -5 0 -26 0 -25
-26 0 -27 0 -12 17 -12 16 -7 -12 -7 -11 15 -6 16 -6 0 -27 1 -26 29 -25 30
-24 0 -16 0 -15 35 -37 34 -38 18 0 18 -1 38 -38 38 -37 -7 -17 -6 -16 -17 11
-18 11 -22 -22 -21 -21 0 -5 0 -5 21 -21 20 -20 22 3 22 3 3 28 3 27 14 0 13
0 5 14 6 14 23 4 23 3 3 43 3 42 -13 0 -14 0 -32 29 -32 30 0 15 0 16 -40 0
-41 0 -5 15 -6 15 -22 0 -23 0 -6 7 -7 7 22 23 21 23 17 0 16 0 20 -15 19 -14
28 -1 28 0 5 15 6 15 23 0 23 0 12 -15 12 -15 22 0 21 0 10 -8 10 -7 25 -37
25 -38 11 0 12 0 6 15 5 15 26 0 25 0 0 8 -1 7 -20 25 -21 25 -13 -18 -12 -17
-7 0 -6 0 -20 20 -19 19 -7 26 -6 25 21 0 22 0 5 -15 6 -15 24 0 24 0 0 -15 0
-16 57 3 58 3 3 20 3 20 5 13 4 13 43 -35 44 -36 12 0 11 0 0 -15 0 -15 97 0
96 0 17 -15 17 -16 13 16 12 15 37 0 37 0 20 15 19 14 20 1 20 0 38 -35 37
-34 0 -8 0 -9 21 -17 21 -18 21 3 22 3 0 25 0 25 49 3 48 3 19 -17 18 -17 20
6 20 5 11 -13 11 -13 24 -6 25 -6 0 -14 0 -14 -12 -5 -13 -4 -72 17 -73 17 0
-18 0 -18 10 -6 10 -6 0 -20 0 -19 -54 0 -54 0 -12 -15 -12 -15 -19 0 -18 0
-6 -10 -6 -10 15 -6 16 -6 0 -14 0 -14 52 0 51 0 39 -17 38 -17 0 -13 0 -13
-20 0 -21 0 -31 -16 -30 -16 -8 9 -8 8 -4 20 -3 20 -23 3 -23 4 -6 14 -5 14
-37 0 -36 0 -10 -8 -10 -7 -17 -27 -17 -26 -41 5 -40 6 0 -35 0 -36 14 -12 15
-11 132 3 131 3 5 12 5 13 24 0 23 0 8 14 8 15 221 5 221 6 13 -15 12 -15 14
0 13 0 9 16 9 17 54 -5 53 -5 4 -12 4 -11 18 0 19 0 13 -13 13 -13 18 -7 18
-7 -3 -17 -3 -18 -23 -3 -24 -4 -16 15 -17 15 -22 6 -23 7 0 10 0 9 -40 0 -40
0 0 -10 0 -10 15 0 15 0 0 -19 0 -19 -13 -11 -14 -11 -23 25 -23 25 -10 0 -10
0 -11 14 -11 14 -32 5 -32 6 -3 -31 -3 -31 -11 -4 -12 -4 -15 16 -16 15 -12 0
-12 0 -16 14 -16 14 -32 7 -33 7 0 -20 0 -20 -6 -16 -6 -16 -22 0 -22 0 -20
15 -19 14 -26 1 -27 0 -6 15 -5 15 -15 0 -14 0 -5 -19 -5 -19 9 -13 9 -14 0
-22 0 -23 10 0 10 0 0 -15 0 -15 -15 0 -15 0 0 10 0 10 -27 0 -28 0 -29 15
-28 15 -29 0 -29 0 0 -20 0 -21 -15 -6 -16 -5 -17 15 -17 15 -27 -5 -26 -5
-12 22 -11 21 -52 -3 -52 -3 -3 -19 -4 -19 16 -9 16 -9 0 -13 0 -14 -14 -11
-14 -12 5 -18 5 -19 -13 -7 -12 -8 -64 68 -64 67 -45 24 -45 24 -13 0 -14 0
-6 -16 -6 -17 15 -17 15 -17 0 -16 0 -16 20 -11 20 -11 0 -19 0 -20 -18 0 -18
0 -24 22 -24 23 -36 19 -35 18 -8 14 -8 14 -18 0 -19 0 -12 15 -12 15 -18 0
-18 0 -12 15 -12 15 -18 0 -18 0 -12 -15 -13 -15 -6 6 -6 6 0 21 0 22 -45 0
-45 0 -3 -28 -3 -27 25 -31 26 -31 0 -14 0 -14 -27 0 -28 0 -23 -6 -22 -6 -14
34 -15 35 -60 0 -59 1 -11 7 -11 6 6 23 5 22 -20 18 -20 18 -24 -6 -24 -6 -16
13 -15 12 -4 20 -3 20 -58 3 -57 3 0 14 0 14 10 6 9 6 -11 25 -12 26 -54 -4
-54 -5 -5 14 -6 14 16 12 16 12 3 35 3 35 -62 3 -63 3 0 13 0 14 15 12 15 12
0 19 0 19 -39 0 -39 0 -12 15 -12 15 -68 0 -68 0 -6 24 -6 24 6 17 7 16 39 41
39 41 -3 21 -3 21 -37 3 -38 3 0 18 0 19 15 12 15 12 0 25 0 24 -15 5 -15 6 0
13 0 13 15 6 15 5 0 41 0 40 -25 0 -26 0 -25 27 -26 28 6 30 6 29 15 9 15 8 0
65 0 66 -16 28 -17 28 6 13 7 14 12 17 12 17 -25 20 -24 20 -18 1 -19 0 4 13
5 12 36 3 37 3 0 23 0 23 -34 28 -35 29 6 9 5 8 21 -3 22 -2 23 19 22 19 0 13
0 13 -8 0 -7 0 -51 49 -51 50 -7 17 -6 17 36 33 37 32 -2 60 -2 59 14 11 14
12 2 119 1 119 -24 48 -25 48 9 15 8 14 -44 43 -44 42 0 10 0 11 -16 15 -15
16 -21 0 -20 0 -33 -16 -34 -16 -17 4 -18 3 -6 20 -5 20 -20 23 -19 22 -62 0
-61 0 -37 -33 -36 -33 0 -27 0 -27 -39 0 -39 0 -25 -30 -26 -30 -10 0 -11 0 0
55 0 55 18 15 17 14 39 36 38 35 18 0 19 0 6 20 6 20 22 11 22 12 8 13 8 14
36 0 35 0 20 25 19 25 14 0 14 0 6 -10z m390 -80 l7 -11 13 11 14 12 12 -8 12
-7 -17 -9 -16 -9 0 -13 0 -14 15 -6 15 -5 0 -19 0 -20 15 -12 15 -12 0 -24 0
-24 -11 0 -11 0 -19 23 -18 22 -1 22 0 22 -45 33 -44 33 -1 13 0 12 29 0 30 0
6 -10z m145 -34 l0 -14 15 -12 15 -12 0 -32 0 -32 15 -20 14 -19 1 -42 0 -43
-11 0 -11 0 -19 23 -18 22 -1 16 0 17 -15 12 -15 12 0 16 0 15 17 20 18 19
-18 9 -17 10 0 24 0 25 15 0 15 0 0 -14z m-570 -101 l0 -25 -15 0 -15 0 0 25
0 25 15 0 15 0 0 -25z m687 8 l6 -18 14 -17 15 -17 -7 -11 -7 -11 -24 26 -24
26 0 20 0 19 10 0 11 0 6 -17z m-597 -144 l0 -11 -52 -54 -52 -54 -5 0 -6 0
-14 9 -14 9 13 31 12 31 25 0 25 0 20 25 19 25 15 0 14 0 0 -11z m700 -24 l21
-34 -3 -51 -3 -50 -10 -1 -10 -1 -17 48 -18 49 0 38 0 37 9 0 9 0 22 -35z
m-840 -46 l0 -9 -25 0 -25 0 0 14 0 14 -21 5 -21 6 6 10 7 10 39 -20 40 -21 0
-9z m80 -103 l0 -15 -11 -6 -10 -7 -6 6 -5 5 5 16 6 15 11 0 10 0 0 -14z m728
-65 l13 -8 -3 -34 -3 -34 -22 -3 -23 -3 0 39 0 39 7 6 6 7 6 0 6 0 13 -9z
m-94 -123 l-7 -43 -13 -16 -14 -16 0 -16 0 -17 -13 0 -12 0 -13 21 -14 21 11
11 11 11 0 23 0 23 18 19 17 19 18 1 17 1 -6 -42z m174 14 l3 -22 -10 0 -10 0
-10 19 -10 18 6 7 7 6 10 -3 11 -4 3 -21z m-38 -51 l10 -20 0 -45 0 -45 -10
-6 -10 -6 -10 25 -10 26 -10 0 -10 0 0 -30 0 -30 -14 0 -15 0 -6 21 -7 21 21
22 21 22 0 32 0 32 20 0 19 0 11 -19z m70 4 l0 -15 -15 0 -15 0 0 15 0 15 15
0 15 0 0 -15z m28 -133 l3 -82 44 -42 44 -42 -6 -8 -5 -9 -14 12 -15 12 -11
-11 -12 -12 -13 0 -13 0 0 30 0 30 -12 1 -13 1 -15 2 -15 1 -3 24 -4 24 16 9
16 9 0 70 0 71 13 -4 12 -5 3 -81z m-233 32 l25 -16 0 -28 0 -28 -15 -12 -15
-12 0 -14 0 -14 -15 0 -15 0 0 70 0 70 5 0 6 0 24 -16z m118 -120 l4 -25 -5
-44 -5 -45 -13 -11 -14 -11 0 -24 0 -24 -15 0 -15 0 0 44 0 44 -15 6 -15 5 0
41 0 40 14 0 14 0 6 -15 5 -15 11 0 10 0 0 30 0 30 14 0 14 0 5 -26z m55 -141
l-3 -16 -12 -5 -13 -4 0 21 0 21 16 0 15 0 -3 -17z m242 2 l0 -15 -15 0 -15 0
0 15 0 15 15 0 15 0 0 -15z m-92 -68 l3 -67 -11 0 -10 0 -20 20 -20 20 -2 23
-2 23 19 27 20 26 10 -3 10 -3 3 -66z m-88 32 l0 -9 -15 0 -15 0 0 8 0 9 6 6
7 6 8 -5 9 -5 0 -10z m256 6 l19 -14 41 -1 42 0 6 -15 5 -15 79 0 80 0 12 -15
12 -15 44 0 43 0 5 -9 6 -9 -16 -6 -16 -6 -71 0 -72 1 -25 14 -25 14 -28 1
-28 0 -15 15 -15 15 -50 0 -49 0 0 -39 0 -40 11 -6 10 -7 10 -25 10 -26 -6
-18 -6 -19 -11 0 -10 0 -19 23 -18 22 -1 30 0 30 -6 22 -6 22 -27 10 -26 9 27
1 28 1 6 28 7 27 4 8 4 7 8 0 7 0 20 -15z m-436 -90 l0 -15 -15 0 -15 0 0 15
0 15 15 0 15 0 0 -15z m85 6 l5 -10 -11 -6 -11 -7 6 -33 7 -33 -11 -7 -10 -6
0 -50 0 -51 -12 4 -13 5 -3 88 -3 88 5 14 5 13 20 0 20 0 6 -9z m65 -15 l0
-24 15 -12 15 -12 0 -39 0 -39 -12 0 -11 0 -19 17 -18 16 0 59 0 58 15 0 15 0
0 -24z m455 -38 l20 -3 3 -38 3 -38 15 -6 14 -5 0 -20 0 -21 35 -38 35 -39 0
-10 0 -11 -15 -5 -14 -6 -23 16 -22 16 -58 0 -58 0 0 14 0 14 25 6 25 6 0 11
0 10 -32 30 -32 29 -12 0 -11 0 -18 20 -19 20 12 12 12 12 18 -17 19 -17 6 0
7 0 0 38 0 39 7 6 6 7 16 -14 16 -14 20 -4z m380 23 l5 -10 -7 -4 -8 -5 -34 5
-33 6 13 8 14 9 22 0 22 0 6 -9z m-149 -42 l34 -21 -6 -9 -5 -9 -25 0 -24 0 0
-15 0 -15 14 0 13 0 27 -21 26 -21 -5 -9 -6 -9 -19 0 -19 0 -7 -12 -7 -11 23
-19 22 -18 23 0 23 0 12 -15 13 -16 21 3 21 3 3 59 3 59 20 25 20 26 69 4 68
4 39 -18 38 -17 14 -11 14 -11 21 -1 21 -1 40 -1 40 -2 60 -60 60 -59 33 -1
34 0 5 20 5 20 9 0 10 0 6 -16 6 -16 25 -9 25 -10 -33 -34 -34 -35 -10 10 -10
10 -23 0 -24 0 -22 14 -22 14 -25 4 -25 3 -3 -33 -3 -33 -47 3 -47 3 3 28 3
27 -17 0 -17 0 -18 16 -18 16 -10 -7 -11 -6 0 -25 0 -24 -30 0 -30 0 0 -25 0
-26 15 -5 15 -6 0 -14 0 -14 -12 0 -13 1 -25 29 -24 30 -18 0 -18 0 0 10 0 10
-25 6 -24 6 -12 14 -11 14 -14 0 -14 0 0 -19 0 -19 51 -52 50 -51 -3 -17 -3
-17 -48 -3 -47 -3 0 15 0 15 -13 13 -13 13 -7 18 -6 17 -36 0 -35 0 -19 12
-18 11 -18 -7 -17 -6 6 -15 6 -16 -17 -6 -17 -7 -4 12 -3 11 -36 22 -35 22
-19 1 -19 1 0 10 -1 10 58 7 58 7 54 -10 55 -9 9 9 9 9 -6 11 -7 11 -14 0 -13
0 -6 15 -5 15 -56 0 -55 0 0 30 0 31 -30 17 -30 17 0 11 0 12 15 6 15 5 0 21
0 21 -15 5 -15 6 0 10 0 10 23 19 22 18 19 1 19 0 33 -21z m449 6 l0 -10 -72
-3 -73 -3 0 16 0 16 73 -3 72 -3 0 -10z m-267 -32 l4 -13 -46 0 -46 0 0 16 0
15 42 -3 41 -3 5 -12z m-1053 -33 l-7 -12 -10 10 -10 10 7 12 7 12 10 -10 10
-10 -7 -12z m526 -92 l18 -23 1 -18 0 -18 15 -5 15 -6 0 -28 0 -29 -10 -6 -10
-6 -6 16 -7 17 -24 9 -23 9 -10 25 -10 25 -10 0 -10 0 0 23 0 24 7 6 6 7 20 0
19 0 19 -22z m1234 3 l0 -14 -20 -13 -20 -13 -33 20 -32 21 6 9 6 10 46 -3 47
-3 0 -14z m230 -56 l0 -10 -47 -3 -48 -3 0 16 0 16 48 -3 47 -3 0 -10z m641
-30 l19 -14 37 -1 37 0 8 -14 8 -14 24 -4 24 -3 5 -12 4 -13 -30 0 -30 0 -13
16 -13 16 -85 -2 -86 -2 -12 1 -13 1 0 15 0 15 34 0 34 0 6 15 5 15 9 0 8 0
20 -15z m-1908 -33 l4 -12 -16 0 -16 0 0 16 0 16 12 -4 12 -4 4 -12z m1712 3
l0 -15 -15 0 -15 0 0 15 0 15 15 0 15 0 0 -15z m-1923 -31 l6 -15 24 6 25 6
15 -13 15 -12 9 -23 9 -23 19 0 19 0 6 -15 5 -15 16 0 15 0 0 -41 0 -41 20 -5
20 -5 0 -14 0 -14 -34 0 -34 0 -5 14 -6 15 -32 -1 -33 -1 -4 12 -4 12 -25 10
-24 9 5 18 6 18 -45 44 -45 44 0 16 0 17 7 6 6 7 19 0 19 0 6 -16z m1651 -1
l-4 -18 -46 3 -47 4 -12 -7 -11 -7 42 -39 42 -39 10 6 10 6 28 -27 28 -27 -5
-14 -5 -14 -13 0 -13 0 -6 15 -5 15 -18 0 -19 0 -17 20 -17 20 -19 0 -19 0
-12 15 -12 15 -45 0 -44 0 -5 -15 -6 -15 -22 0 -23 0 -6 -6 -6 -7 36 -38 37
-39 37 0 38 0 3 -42 3 -43 21 -3 22 -3 32 -29 33 -29 18 9 18 10 6 10 6 10 33
0 32 0 29 -30 29 -30 17 0 17 0 12 -15 12 -14 -7 -11 -6 -10 -29 0 -28 0 -5
14 -5 13 -32 7 -32 6 -18 -22 -18 -22 -14 12 -15 12 -47 25 -47 25 -20 0 -19
0 0 10 0 10 -25 10 -24 9 -7 28 -6 28 -4 13 -3 12 -53 0 -53 -1 -19 -14 -20
-15 -37 0 -38 0 -7 -12 -7 -11 16 -12 17 -12 0 -10 0 -9 29 -28 30 -28 26 6
25 6 7 -16 6 -16 24 -9 25 -9 5 -20 5 -20 35 -21 34 -21 21 22 21 22 23 -5 23
-4 16 17 16 18 20 -5 20 -5 10 -20 10 -19 -12 -16 -13 -15 -48 5 -47 6 -5 -8
-5 -7 30 -24 29 -25 0 -12 0 -13 -10 0 -10 0 0 -10 0 -10 18 0 18 0 28 -28 27
-29 -13 -10 -13 -10 -39 -7 -39 -7 -28 12 -29 12 -6 23 -6 23 7 20 6 20 27 3
27 3 0 10 0 10 -30 3 -29 4 -20 14 -20 14 -17 0 -17 0 -12 15 -12 15 -20 0
-19 0 -5 -15 -6 -15 -13 0 -13 0 -6 15 -5 15 -35 0 -35 0 -6 -10 -6 -10 15 -6
16 -6 0 -14 0 -14 -44 0 -44 0 -6 15 -5 15 -31 0 -31 0 -15 15 -15 15 -35 0
-34 0 -20 20 -20 20 0 9 0 9 15 6 15 5 0 33 0 32 -22 23 -21 23 -20 0 -20 0
-12 17 -13 18 -20 -25 -20 -25 10 -19 10 -18 19 -5 19 -5 0 -24 0 -25 15 -5
15 -6 0 -14 0 -14 -13 0 -13 0 -12 13 -13 12 -42 1 -43 1 -34 32 -35 32 -14
-3 -14 -3 -4 -10 -3 -10 35 -24 36 -24 -11 -11 -10 -10 -36 3 -36 3 -34 20
-34 20 0 23 0 24 28 3 27 3 0 10 0 10 -75 3 -74 3 -13 11 -13 11 -33 6 -32 7
0 39 0 40 48 3 47 3 0 -25 0 -26 12 0 11 0 33 25 33 25 13 -1 13 0 38 -60 38
-59 16 0 16 0 12 -17 12 -16 12 8 13 7 -6 34 -7 33 21 11 20 11 0 20 0 19 -24
10 -24 9 -7 10 -6 11 -28 0 -28 0 -6 7 -7 6 26 24 26 24 27 -3 26 -3 3 -22 3
-23 24 -6 24 -6 5 -14 5 -14 36 0 36 0 5 15 6 15 9 0 9 0 58 -60 59 -60 11 0
12 0 40 40 40 40 0 15 0 15 24 6 24 6 33 1 34 2 3 24 4 24 24 22 24 22 0 7 0
7 -17 18 -18 17 -56 2 -56 2 -13 -15 -12 -15 -40 0 -39 0 -6 -16 -6 -15 39
-40 39 -40 -15 -9 -15 -10 -13 5 -14 5 -45 0 -45 0 6 22 5 23 -36 32 -36 33
18 20 18 20 64 0 64 0 32 17 32 17 173 -3 172 -2 6 15 6 16 60 0 59 0 -3 -17z
m122 2 l0 -15 -15 0 -15 0 0 15 0 15 15 0 15 0 0 -15z m172 -46 l32 -29 9 0 8
0 16 -12 16 -13 33 -32 33 -33 14 0 14 0 82 -81 82 -82 -6 -15 -5 -15 -36 6
-36 6 -19 17 -19 17 0 22 0 23 -14 11 -14 12 -6 24 -6 25 -21 0 -20 0 -29 32
-29 32 -7 -17 -6 -17 -13 0 -13 0 -6 16 -6 15 -20 -6 -20 -6 -7 17 -6 16 17
10 16 9 -5 10 -6 9 -17 0 -17 1 -24 19 -23 20 6 16 6 15 20 -6 20 -6 32 -30z
m-1722 11 l20 -20 0 -20 0 -21 15 -5 15 -6 0 -14 0 -14 -14 0 -14 0 -12 15
-12 15 -19 0 -19 0 0 45 0 45 10 0 10 0 20 -20z m2240 5 l0 -15 33 0 32 -1 29
-23 29 -24 -7 -11 -7 -10 -32 5 -32 6 -27 29 -28 29 -14 0 -15 0 -5 9 -6 9 12
5 13 5 13 1 12 1 0 -15z m-2040 -63 l0 -18 15 -20 14 -21 -6 -7 -6 -6 -59 0
-58 0 0 15 0 15 16 0 15 0 10 30 11 30 24 0 24 0 0 -18z m1809 -39 l36 -28 32
-17 33 -18 35 0 35 0 0 13 -1 12 -14 19 -15 20 0 13 0 13 8 0 7 0 44 -40 44
-40 -14 -4 -14 -5 -20 -3 -20 -3 -3 -19 -4 -19 16 -9 16 -9 0 -21 0 -20 -31 6
-31 6 -44 0 -44 0 0 23 0 24 -22 19 -23 19 -35 19 -35 19 -7 11 -8 11 0 18 0
17 22 0 21 0 36 -27z m385 -25 l5 -23 -8 -8 -9 -9 -11 6 -11 7 0 25 0 24 14 0
14 0 6 -22z m90 7 l5 -15 24 0 24 0 6 -7 7 -7 -22 -23 -21 -23 -13 0 -12 0 -6
15 -5 15 -31 0 -30 0 0 6 0 7 23 22 22 23 11 1 12 1 6 -15z m-930 -20 l5 -15
34 0 33 0 29 -30 29 -30 15 0 16 -1 29 -29 29 -30 19 0 18 0 0 -9 0 -9 43 -25
42 -25 100 2 100 1 26 -18 26 -18 40 7 39 6 13 -16 13 -15 -7 -12 -7 -11 -82
4 -81 3 -1 -10 0 -10 23 -18 23 -18 20 6 21 7 14 -12 15 -12 0 -32 0 -32 -28
-27 -28 -27 -29 0 -28 0 -19 -17 -18 -17 -12 12 -12 12 19 20 19 21 -14 9 -13
8 16 33 16 33 -10 17 -9 18 -20 6 -20 6 0 10 0 9 -15 0 -15 0 0 -13 0 -14 20
-18 20 -18 -11 -14 -11 -13 -23 0 -23 0 -7 31 -7 30 -15 6 -14 6 5 23 6 24 -6
0 -5 0 -15 -15 -15 -15 -40 0 -40 0 -6 15 -6 16 19 14 19 14 -17 1 -18 0 -37
34 -38 33 -12 -4 -13 -5 0 15 0 15 -20 5 -20 5 -10 26 -10 26 -34 0 -35 0 -13
13 -13 13 -17 7 -18 6 0 14 0 14 7 6 6 7 23 0 22 0 6 -15z m-1428 -69 l14 -15
0 -30 0 -31 -15 0 -15 0 0 25 0 26 -15 5 -15 6 0 14 0 14 16 0 15 0 15 -14z
m2442 -33 l-3 -18 -10 2 -10 2 -3 15 -3 16 16 0 16 0 -3 -17z m-2599 -61 l51
-48 0 -12 0 -12 -14 0 -14 0 -6 16 -6 17 -36 -6 -35 -6 -4 12 -3 12 -7 38 -6
37 14 0 15 0 51 -48z m3639 29 l4 -11 -36 0 -36 0 0 15 0 15 32 -4 32 -3 4
-12z m-464 -26 l28 -26 -6 -14 -5 -15 -19 0 -18 0 -13 -12 -12 -13 -15 19 -14
20 0 14 0 13 10 20 11 19 13 0 13 0 27 -25z m-276 -2 l27 -18 37 -34 38 -34
-11 -14 -11 -13 -39 0 -38 0 -7 12 -7 11 16 12 17 12 0 13 0 12 -19 -5 -19 -5
-21 24 -21 24 0 10 0 10 15 0 16 0 27 -17z m427 -4 l36 -21 -12 -14 -11 -14
-16 0 -15 0 -23 26 -24 25 0 10 0 9 14 0 15 0 36 -21z m175 6 l0 -15 -9 0 -10
0 -5 9 -5 8 6 7 6 6 9 0 8 0 0 -15z m-1050 -91 l0 -13 -20 -6 -21 -7 -14 12
-15 12 0 18 0 18 -15 12 -15 13 11 14 12 14 39 -38 38 -37 0 -12z m1316 50
l-7 -17 -11 11 -11 11 7 17 7 17 11 -11 11 -11 -7 -17z m-2483 14 l4 -13 -5
-17 -4 -18 -29 0 -29 0 0 30 0 30 29 0 29 0 5 -12z m1317 -3 l0 -15 -15 0 -15
0 0 15 0 15 15 0 15 0 0 -15z m1081 0 l0 -10 -21 -3 -20 -3 0 9 0 9 7 7 7 7
14 -3 13 -3 0 -10z m379 -5 l21 -21 -6 -9 -6 -10 -15 0 -14 0 0 14 0 14 -16 6
-15 6 6 10 6 10 10 0 9 0 20 -20z m-985 -25 l0 -20 -19 -3 -18 -4 -10 10 -11
11 7 16 6 16 22 -3 23 -3 0 -20z m-400 -7 l25 -21 -11 -14 -11 -13 -18 0 -18
0 -12 15 -12 14 7 21 6 20 10 0 9 0 25 -22z m140 -8 l7 -11 -12 -14 -12 -15
-24 0 -23 0 -5 9 -6 9 6 16 6 16 28 0 29 0 6 -10z m658 -2 l4 -13 -5 -17 -4
-18 -9 0 -8 0 -9 18 -9 17 4 13 5 12 13 0 13 0 5 -12z m-895 -21 l4 -18 -13
-15 -12 -14 -13 11 -14 11 0 25 0 24 22 -3 23 -3 3 -18z m-2201 -21 l8 -14 23
-4 23 -3 0 -10 0 -10 -26 -3 -25 -3 0 15 0 16 -15 0 -15 0 0 15 0 15 10 0 9 0
8 -14z m2081 -29 l3 -17 -16 -6 -16 -7 -11 11 -11 11 13 16 13 16 11 -4 11 -4
3 -16z m736 17 l16 -6 0 -9 0 -8 -25 -26 -26 -25 -9 0 -9 0 -20 26 -21 27 11
13 11 14 28 0 28 0 16 -6z m-431 -31 l-6 -18 -10 -12 -9 -13 -24 0 -23 0 -6
10 -7 11 12 14 11 14 32 4 32 4 2 1 2 2 -6 -17z m1333 -16 l7 -7 -15 0 -15 0
-32 -6 -31 -6 0 16 0 16 39 -3 40 -3 7 -7z m-566 -7 l0 -10 -15 0 -15 0 0 10
0 10 15 0 15 0 0 -10z m-1712 -12 l12 -12 -11 -13 -11 -13 -23 0 -23 0 -5 14
-5 14 11 11 11 11 16 0 16 0 12 -12z m1200 0 l12 -12 -11 -13 -11 -13 -19 0
-18 0 -6 10 -7 11 6 14 5 15 19 0 18 0 12 -12z m-118 -34 l0 -24 -20 0 -20 0
0 11 0 10 11 20 10 20 10 -6 9 -6 0 -25z m600 -30 l0 -55 -42 3 -43 3 0 30 0
30 23 3 22 3 10 20 11 19 9 0 10 0 0 -56z m-1827 32 l6 -15 -12 -9 -12 -10
-24 -4 -24 -3 -11 -19 -11 -19 13 -4 12 -5 0 -14 0 -14 -48 0 -48 0 -12 12
-12 12 0 17 0 17 16 6 16 6 27 0 27 0 17 30 18 30 28 0 29 0 5 -14z m835 -8
l-3 -23 -18 -3 -18 -4 -15 13 -14 12 11 13 11 14 25 0 24 0 -3 -22z m1235 2
l9 -8 -17 -36 -17 -36 -49 0 -49 0 0 32 0 31 16 19 17 18 41 -6 41 -7 8 -7z
m-2909 1 l6 -9 -15 -6 -15 -5 0 14 0 15 9 0 10 0 5 -9z m3114 -35 l3 -38 -18
-13 -18 -14 19 -14 18 -14 -36 -21 -37 -22 -10 0 -9 0 0 -20 0 -19 -20 -11
-21 -11 -37 3 -37 3 -3 17 -3 17 18 25 18 25 28 1 27 0 1 43 0 42 47 31 47 32
10 -2 10 -3 3 -37z m240 -29 l3 -67 -16 -6 -15 -6 0 -23 0 -23 -36 -21 -35
-21 -70 0 -69 0 0 15 0 15 45 0 45 0 0 75 0 75 15 0 15 0 0 23 0 24 7 7 7 7
51 -3 50 -3 3 -68z m-2258 34 l0 -19 -17 -6 -17 -7 -14 15 -14 14 6 11 7 11
25 0 24 0 0 -19z m765 2 l6 -18 -25 -22 -26 -22 -15 5 -15 6 0 22 0 22 12 12
12 12 22 0 22 0 7 -17z m1705 -65 l0 -17 11 -6 11 -7 -23 -24 -22 -23 -9 5
-10 6 -29 -21 -28 -21 -10 0 -9 0 -5 -12 -4 -13 -13 12 -13 12 6 15 6 16 24 0
23 0 22 44 22 44 -6 16 -6 16 6 17 7 17 24 -29 24 -30 1 -17z m-2690 22 l0
-30 -20 0 -21 0 -5 15 -6 15 6 15 5 15 21 0 20 0 0 -30z m118 8 l-5 -13 -21
-3 -22 -3 0 15 0 16 26 0 26 0 -4 -12z m750 0 l-5 -13 -16 -3 -17 -3 0 15 0
16 21 0 21 0 -4 -12z m-335 -22 l5 -14 -11 -11 -11 -11 -12 11 -13 10 6 15 5
14 13 0 13 0 5 -14z m-290 -16 l28 -14 -3 -15 -3 -16 -16 -3 -15 -3 -14 28
-14 28 -4 9 -4 9 8 -5 9 -4 28 -14z m349 -7 l5 -18 -4 -12 -5 -13 -13 0 -14 0
-6 10 -6 10 6 20 6 20 14 0 13 0 4 -17z m165 1 l6 -17 -18 -13 -18 -14 -24 6
-24 6 -23 -21 -23 -22 -13 16 -13 16 12 26 12 26 34 -6 35 -6 5 10 6 9 20 0
20 0 6 -16z m-1260 -9 l11 -4 4 -23 3 -23 24 0 24 0 18 -42 18 -42 -9 -6 -9
-6 -55 0 -55 -1 -12 -14 -11 -14 -44 0 -43 0 -7 12 -8 12 13 4 12 4 19 21 19
20 -6 10 -6 9 -42 -6 -43 -5 -5 13 -6 14 6 6 6 6 63 0 63 0 6 9 5 10 -16 9
-17 10 6 16 7 16 27 -6 28 -6 12 -3z m634 5 l19 -11 0 -18 0 -19 -15 -12 -15
-12 -25 16 -25 16 0 19 0 18 7 6 6 7 14 0 14 0 20 -10z m1206 -6 l6 -17 -24
-18 -24 -18 -11 9 -10 9 -54 -6 -53 -6 7 11 7 11 14 -5 15 -6 10 26 10 26 50
0 51 0 6 -16z m183 -18 l0 -24 -15 -12 -15 -12 6 -9 5 -9 100 0 99 0 0 -14 0
-14 -157 -6 -158 -6 -30 0 -30 0 -92 6 -92 5 -23 -12 -23 -13 -48 -6 -48 -5 0
-10 0 -10 21 -3 20 -3 0 -10 0 -9 -19 -19 -19 -19 -24 -4 -23 -3 -3 -43 -3
-43 -12 4 -12 4 -5 39 -5 39 -15 3 -15 3 -33 -31 -33 -30 -7 0 -7 0 -10 22
-10 21 -20 11 -20 11 -11 14 -11 14 -8 -13 -8 -13 17 -9 16 -9 0 -44 0 -44
-28 -15 -27 -14 -16 -18 -17 -19 -4 -20 -3 -20 -23 -3 -23 -4 -25 17 -25 16
-18 -6 -18 -5 -11 -25 -12 -25 -19 0 -19 0 -12 -15 -12 -15 -17 0 -16 1 -22
18 -23 19 0 11 0 11 40 0 41 0 5 15 6 15 22 0 22 0 24 28 25 28 45 17 45 16
25 3 25 3 0 30 0 30 -25 7 -25 7 -39 8 -39 8 -5 13 -4 12 50 0 50 0 12 15 12
15 22 0 22 0 20 15 19 14 23 1 23 0 5 15 6 15 24 0 23 0 9 15 8 15 247 1 247
0 14 15 15 14 13 0 14 0 22 30 23 30 29 0 30 0 0 -24z m240 14 l0 -10 -20 -20
-20 -20 -55 0 -55 0 0 13 0 12 28 17 27 16 48 1 47 1 0 -10z m156 -5 l15 -15
20 0 19 0 0 -15 0 -15 -58 0 -59 0 -7 7 -7 7 28 23 28 22 3 1 3 0 15 -15z
m-1918 -28 l3 -17 -16 -6 -16 -7 -11 11 -11 11 7 16 6 16 17 -3 18 -3 3 -18z
m505 9 l5 -14 -27 -26 -27 -26 -15 0 -15 0 -11 11 -11 11 5 14 5 14 24 0 25 0
5 15 6 15 13 0 13 0 5 -14z m-1205 -13 l4 -13 -21 0 -20 0 -5 9 -5 8 6 7 7 7
15 -3 14 -3 5 -12z m547 7 l6 -10 -6 -20 -6 -20 -14 0 -13 0 -6 16 -6 16 0 14
0 14 19 0 20 0 6 -10z m1283 -1 l-3 -10 -10 0 -9 0 -4 10 -4 11 17 0 17 0 -4
-11z m-1404 -15 l16 -6 0 -13 0 -14 -20 -6 -20 -6 -20 6 -20 6 0 14 0 13 13 5
12 5 12 1 11 1 16 -6z m398 -51 l28 -27 0 -33 0 -32 -20 -11 -21 -11 7 -10 6
-10 28 6 27 6 27 -7 26 -6 0 -14 0 -14 -17 0 -18 0 -30 -20 -30 -20 -35 0 -35
1 -42 40 -43 40 0 20 0 20 -15 5 -15 6 0 29 0 29 19 0 20 0 7 -22 6 -21 19
-21 19 -20 15 20 14 19 1 27 0 26 6 16 6 16 6 0 6 0 28 -27z m111 13 l5 -14
-11 -11 -11 -11 -17 0 -17 0 -11 13 -11 13 12 12 12 12 22 0 22 0 5 -14z
m1702 -11 l0 -10 -72 -3 -73 -3 0 16 0 16 73 -3 72 -3 0 -10z m-2088 -39 l24
-24 -11 -7 -12 -7 -11 11 -11 11 -12 0 -13 0 -25 10 -26 9 7 17 6 16 30 -6 30
-6 24 -24z m-140 8 l4 -11 -18 -5 -19 -5 -23 8 -22 9 6 10 7 11 31 -3 30 -3 4
-11z m1409 -93 l-7 -11 -20 0 -19 0 0 23 0 24 7 7 7 7 19 -20 19 -19 -6 -11z
m-605 -12 l20 -10 -12 -15 -11 -14 -29 0 -28 0 -6 10 -7 11 6 14 5 15 21 0 21
0 20 -11z m-135 -62 l1 -2 7 -38 7 -37 -16 -6 -16 -7 -12 16 -12 15 -27 16
-26 17 -57 -54 -56 -55 3 -33 3 -34 28 -3 28 -3 -3 -17 -3 -17 -25 0 -25 0 -3
-23 -4 -24 -19 -19 -19 -19 -10 0 -10 0 0 25 0 26 15 6 16 5 -4 75 -5 74 -15
17 -16 18 12 24 12 25 48 3 47 3 11 21 11 20 66 -6 66 -7 2 -2z m-786 -40 l0
-4 -20 -18 -20 -18 0 21 0 22 20 0 20 0 0 -3z m-68 -78 l20 -11 -9 -9 -10 -10
-16 7 -17 6 2 47 1 46 4 -32 4 -33 21 -11z m-158 32 l-19 -18 -4 3 -3 3 5 16
6 15 17 0 17 0 -19 -19z m348 -43 l-12 -12 -6 7 -6 6 6 17 7 17 11 -11 12 -12
-12 -12z m165 7 l-12 -25 -12 0 -13 0 0 13 0 13 12 12 12 12 12 0 12 0 -11
-25z m-1442 -34 l5 -10 -10 -6 -11 -7 -15 6 -15 6 6 10 6 10 14 0 14 0 6 -9z
m565 -6 l0 -15 -15 0 -15 0 0 15 0 15 15 0 15 0 0 -15z m480 7 l0 -9 -6 -6 -7
-6 -9 5 -8 5 5 10 6 9 10 0 9 0 0 -8z m-1651 -26 l12 -14 -11 -7 -10 -6 -10 6
-10 6 0 15 0 14 9 0 9 0 11 -14z m1498 -22 l-6 -6 -10 7 -11 6 6 11 6 10 11
-11 11 -11 -7 -6z m1003 11 l0 -15 -20 0 -20 0 0 15 0 15 20 0 20 0 0 -15z
m-946 -23 l4 -8 -22 -21 -23 -22 -7 6 -6 6 0 18 0 17 13 5 12 5 12 1 12 1 5
-8z m126 -7 l0 -15 -14 0 -14 0 -6 -15 -5 -15 -11 0 -10 0 0 15 0 15 15 0 15
0 0 15 0 15 15 0 15 0 0 -15z m-1173 -32 l-6 -5 -10 6 -10 7 6 15 6 16 9 -17
10 -17 -5 -5z m-327 -3 l0 -20 -15 0 -15 0 0 20 0 20 15 0 15 0 0 -20z m390
-37 l0 -22 -10 -6 -10 -6 -6 15 -6 16 7 27 6 27 10 -15 9 -14 0 -22z m150 6
l0 -9 -15 0 -15 0 0 8 0 9 6 6 7 6 8 -5 9 -5 0 -10z m268 4 l-3 -18 -10 2 -10
2 -3 15 -3 16 16 0 16 0 -3 -17z m182 2 l0 -15 -15 0 -15 0 0 15 0 15 15 0 15
0 0 -15z m270 0 l0 -15 -15 0 -15 0 0 15 0 15 15 0 15 0 0 -15z m-390 -30 l0
-15 -15 0 -15 0 0 8 0 9 7 6 6 7 9 0 8 0 0 -15z m510 0 l0 -15 -15 0 -15 0 0
15 0 15 15 0 15 0 0 -15z m-1281 -44 l-22 -30 -9 5 -8 5 0 11 0 12 22 23 22
23 9 -9 9 -9 -23 -31z m229 11 l4 -12 -16 0 -16 0 0 16 0 16 12 -4 12 -4 4
-12z m782 3 l0 -15 -15 0 -15 0 0 15 0 15 15 0 15 0 0 -15z m210 0 l0 -15 -15
0 -15 0 0 15 0 15 15 0 15 0 0 -15z m-1113 -132 l-7 -6 -40 40 -40 40 7 6 6 7
40 -40 40 -40 -6 -7z m58 77 l6 -10 -15 -6 -16 -6 -16 6 -15 6 6 10 6 10 19 0
19 0 6 -10z m335 -4 l11 -15 22 -3 22 -3 0 -15 0 -15 -25 3 -25 3 -8 14 -8 15
-24 0 -25 0 0 15 0 15 24 0 24 0 12 -14z m360 -1 l0 -15 -30 0 -30 0 0 15 0
15 30 0 30 0 0 -15z m90 0 l0 -15 -15 0 -15 0 0 15 0 15 15 0 15 0 0 -15z m90
0 l0 -15 -15 0 -15 0 0 15 0 15 15 0 15 0 0 -15z m120 0 l0 -15 -15 0 -15 0 0
15 0 15 15 0 15 0 0 -15z m-414 -45 l24 0 0 -15 0 -15 -25 0 -25 0 -21 21 -21
21 7 16 7 17 15 -22 15 -23 24 0z m-426 15 l0 -15 -15 0 -15 0 0 15 0 15 15 0
15 0 0 -15z m950 0 l0 -15 -19 0 -20 0 -5 9 -5 8 6 7 6 6 19 0 18 0 0 -15z
m-223 -45 l25 0 -4 -12 -5 -13 -24 -3 -24 -4 -8 -14 -8 -14 -10 5 -9 6 0 38 0
38 7 7 8 8 14 -21 13 -21 25 0z m-607 15 l0 -15 -15 0 -15 0 0 15 0 15 15 0
15 0 0 -15z m223 -45 l17 0 0 -12 0 -11 -17 -19 -16 -18 -14 0 -13 0 0 25 0
24 -17 9 -16 10 7 17 7 18 22 -22 23 -21 17 0z m264 20 l5 -20 9 0 9 0 0 -15
0 -15 -11 0 -10 0 -15 14 -14 14 -12 4 -12 4 7 17 6 17 17 0 16 0 5 -20z
m-1112 1 l5 -10 -10 -6 -10 -6 -10 6 -10 6 5 10 6 9 9 0 9 0 6 -9z m445 -6 l0
-15 15 0 15 0 0 -9 0 -10 -10 -6 -10 -6 -6 15 -6 16 -38 0 -39 0 -5 9 -5 8 6
7 6 6 39 0 38 0 0 -15z m270 4 l0 -12 -17 -13 -18 -13 18 -6 17 -7 0 -25 0
-26 -17 -13 -18 -13 18 -6 17 -7 0 -14 0 -14 -15 0 -15 0 0 15 0 15 -15 0 -15
0 0 14 0 14 16 6 15 6 -3 22 -3 23 -19 3 -18 4 -29 -31 -28 -31 -10 0 -11 0 0
10 0 9 35 36 36 35 20 0 20 0 5 15 6 15 14 0 14 0 0 -11z m-180 -49 l0 -30
-15 0 -15 0 0 30 0 30 15 0 15 0 0 -30z m480 15 l0 -15 -15 0 -15 0 0 15 0 15
15 0 15 0 0 -15z m-872 -31 l-3 -17 -12 -5 -13 -4 0 25 0 24 7 7 7 6 9 -9 9
-9 -4 -18z m632 0 l0 -14 -15 0 -15 0 0 13 0 14 6 6 7 6 8 -5 9 -5 0 -15z
m-367 1 l-3 -10 -17 0 -16 0 -5 13 -4 14 23 -4 24 -3 -2 -10z m808 -28 l-1 -7
-7 -1 -7 0 -4 12 -4 12 12 -4 12 -4 -1 -8z m-441 -32 l0 -15 -15 0 -15 0 0 15
0 15 15 0 15 0 0 -15z m190 -5 l20 -20 0 -20 0 -21 -15 -5 -15 -6 0 -14 0 -14
-15 0 -15 0 0 15 0 15 15 0 15 0 0 25 0 26 -15 5 -15 6 0 14 0 14 10 0 10 0
20 -20z m-340 -34 l0 -25 -11 -7 -11 -6 -10 10 -10 10 11 21 12 21 9 0 10 0 0
-24z m420 -14 l0 -9 -6 -6 -7 -6 -9 5 -8 5 5 10 6 9 10 0 9 0 0 -8z m-512 -44
l-3 -23 -22 -3 -22 -3 12 25 12 26 13 0 13 0 -3 -22z m237 -28 l6 -10 25 0 24
0 0 -16 0 -15 -37 3 -38 3 -3 23 -3 22 10 0 10 0 6 -10z m228 -25 l2 -10 -17
-3 -18 -3 0 16 0 16 16 -3 15 -3 2 -10z m-103 -14 l0 -19 -6 -16 -6 -16 -9 6
-9 5 0 30 0 29 15 0 15 0 0 -19z m-237 -56 l-18 -14 -4 11 -3 10 13 8 13 9 9
-6 8 -5 -18 -13z m237 -50 l0 -15 -14 0 -15 0 -5 9 -5 8 6 7 6 6 14 0 13 0 0
-15z m-62 -100 l53 0 9 -15 9 -15 23 0 23 0 3 -28 3 -28 15 -6 14 -5 0 -23 0
-23 15 -6 15 -5 0 -16 0 -15 -117 4 -118 4 -45 12 -45 12 -15 8 -15 7 -3 48
-3 47 17 19 17 19 31 9 31 9 15 -6 15 -6 53 -1z m182 -229 l11 -15 22 -3 22
-3 6 -80 7 -80 3 -20 4 -20 -28 -3 -28 -3 -24 15 -24 16 -23 0 -23 0 -29 15
-28 15 -60 0 -60 0 -24 23 -24 22 0 26 0 27 -15 12 -15 12 0 29 0 29 159 0
159 0 12 -14z m-150 -211 l12 -15 37 0 37 0 20 -15 19 -14 34 -1 33 0 24 -22
24 -23 0 -40 0 -41 16 -22 15 -22 -2 -253 -2 -252 -15 -11 -14 -10 1 -91 0
-90 -14 -19 -14 -19 -1 -61 0 -62 -14 -12 -15 -12 -3 -36 -3 -37 -145 0 -145
0 -3 61 -3 61 16 13 15 12 0 58 0 57 21 27 21 26 -7 31 -7 30 18 20 18 20 0
40 1 40 11 7 11 7 6 54 6 54 11 11 10 10 0 31 0 31 15 20 14 19 0 105 0 105
-14 19 -15 20 0 22 0 23 -45 43 -45 43 0 9 0 9 -16 18 -16 18 7 10 6 11 33 0
34 0 12 -15z m154 -1231 l16 -15 0 -24 0 -24 -10 -6 -10 -6 0 -22 0 -22 -24
-23 -24 -22 -15 15 -16 15 -105 0 -106 0 -20 20 -20 20 0 24 0 25 11 6 10 7 9
24 10 24 139 0 140 0 15 -16z m-164 -175 l35 -11 45 -7 45 -6 3 -57 3 -56 -16
-37 -15 -37 0 -98 0 -98 -14 -12 -15 -12 -3 -46 -3 -47 -31 -3 -31 -3 -13 15
-12 16 -28 0 -28 0 -12 15 -12 15 -33 0 -32 0 -17 19 -17 19 3 39 3 38 28 3
27 3 0 40 0 40 -45 41 -45 41 0 22 0 23 15 6 15 5 0 46 0 46 18 24 17 24 65 1
65 0 35 -11z"/>
<path d="M2420 5533 l1 -38 20 -24 20 -25 19 11 18 12 6 -6 6 -6 0 -20 0 -20
16 -18 16 -18 -7 -20 -6 -21 -10 0 -9 0 0 -48 0 -47 27 -29 27 -29 4 -60 5
-60 18 -18 18 -18 13 -2 13 -1 13 1 12 1 0 15 0 15 -24 6 -24 6 -6 21 -6 22 0
63 0 62 -15 0 -15 0 0 15 0 15 8 0 8 0 22 -30 23 -30 14 0 15 0 0 26 0 25 -31
28 -30 28 3 34 3 34 10 0 10 0 4 -20 3 -20 29 -36 29 -37 0 -16 0 -16 13 0 12
1 18 38 17 38 0 15 0 16 -30 25 -30 26 0 10 0 11 -45 0 -44 0 -23 30 -22 31
-21 -3 -20 -3 0 25 0 25 -22 23 -23 22 -25 0 -25 0 0 -37z"/>
<path d="M2388 5200 l-3 -10 3 -50 4 -50 23 0 24 0 7 -12 7 -11 -1 -34 -1 -33
29 0 30 0 0 30 0 29 -30 23 -30 22 0 15 0 14 -17 39 -17 38 -12 0 -12 0 -4
-10z"/>
<path d="M2695 5079 l-7 -10 6 -6 6 -7 11 11 11 11 -10 6 -11 6 -6 -11z"/>
<path d="M2535 4981 l-6 -18 10 -27 11 -26 25 0 25 0 0 14 0 14 -17 31 -18 31
-12 0 -12 0 -6 -19z"/>
<path d="M2990 4901 l0 -10 30 -33 30 -32 0 -17 0 -17 15 -6 15 -5 0 -26 0
-25 8 0 8 0 28 -45 29 -45 32 0 32 0 6 6 7 7 -39 38 -39 39 -15 0 -16 0 -6 10
-6 10 17 29 18 30 -53 50 -53 51 -24 0 -24 0 0 -9z"/>
<path d="M3426 4902 l-5 -9 29 -21 29 -22 26 0 25 0 0 15 0 15 -29 0 -29 0 -6
15 -5 15 -15 0 -15 0 -5 -8z"/>
<path d="M3356 4871 l-6 -9 32 -36 32 -36 13 0 13 0 0 30 0 30 -19 0 -20 0
-15 15 -15 15 -5 0 -5 0 -5 -9z"/>
<path d="M3747 4873 l-7 -6 0 -18 0 -17 15 -6 15 -5 0 -17 0 -17 -60 6 -60 5
0 -18 0 -18 15 -6 15 -5 0 -20 0 -20 -7 -4 -8 -5 -33 -7 -33 -7 -6 21 -5 21
-29 0 -29 0 0 -11 0 -10 30 -26 30 -25 0 -14 0 -13 19 -11 20 -10 24 0 25 0 6
-15 5 -15 41 0 40 0 0 45 0 45 14 0 14 0 6 -15 5 -15 18 0 17 0 23 22 23 21
-45 44 -45 43 0 10 0 10 29 0 29 0 6 -15 5 -15 36 0 36 0 8 23 8 22 -5 14 -5
13 -22 24 -22 24 -34 0 -35 0 -22 -16 -23 -16 -18 16 -18 16 -6 -7z m143 -38
l0 -15 -25 0 -25 0 0 8 0 9 7 6 6 7 19 0 18 0 0 -15z"/>
<path d="M2660 4820 l0 -30 15 0 15 0 0 30 0 30 -15 0 -15 0 0 -30z"/>
<path d="M3266 4833 l-6 -6 0 -18 0 -17 15 -6 15 -5 0 -26 0 -25 45 0 45 0 0
13 0 13 -36 33 -37 32 -17 9 -17 9 -7 -6z"/>
<path d="M3170 4778 l0 -13 41 -47 41 -48 13 0 14 0 11 -20 11 -20 13 0 14 0
-5 -19 -5 -19 39 -36 38 -35 38 -1 37 0 0 30 0 30 -9 0 -10 0 -33 30 -32 30
-20 0 -19 0 -29 32 -28 32 0 10 0 11 -49 33 -50 32 -10 0 -11 0 0 -12z"/>
<path d="M2786 4763 l-6 -6 0 -32 0 -31 12 -12 12 -12 18 0 18 0 0 26 0 25
-10 18 -9 19 -15 5 -14 6 -6 -6z"/>
<path d="M3440 4660 l0 -11 37 -49 37 -50 17 0 17 0 12 -15 12 -15 55 0 55 0
-4 13 -5 12 -21 3 -21 3 -43 45 -43 44 -33 0 -33 0 -5 15 -6 15 -14 0 -14 0 0
-10z"/>
<path d="M3030 4629 l0 -13 12 -33 12 -33 14 0 13 0 -3 43 -3 42 -22 3 -23 3
0 -12z"/>
<path d="M3140 4585 l0 -24 18 -35 17 -35 10 3 10 3 3 37 3 38 -17 19 -17 19
-14 0 -13 0 0 -25z"/>
<path d="M3564 5655 l-6 -15 23 -20 24 -19 38 -1 37 0 0 15 0 15 -21 0 -21 0
-25 20 -26 20 -9 0 -9 0 -5 -15z"/>
<path d="M3770 5585 l0 -15 45 0 45 0 0 -9 0 -9 38 -23 37 -24 8 -3 7 -4 0 17
0 17 -22 19 -23 18 -21 1 -22 0 -6 15 -5 15 -41 0 -40 0 0 -15z"/>
<path d="M3560 5556 l0 -14 14 -5 14 -6 4 -23 3 -23 23 -3 23 -4 6 -14 5 -14
12 0 11 0 19 34 18 34 -6 11 -7 11 -13 0 -14 0 -12 15 -12 15 -44 0 -44 0 0
-14z"/>
<path d="M4037 5066 l-28 -23 15 -13 16 -12 0 -12 0 -12 41 -27 41 -27 8 0 8
0 12 15 12 15 22 0 23 0 22 24 23 24 -4 19 -3 18 -56 0 -55 1 -24 17 -24 17
-11 0 -10 -1 -28 -23z"/>
<path d="M4646 5082 l-6 -11 11 -6 10 -7 6 6 7 6 -11 11 -11 11 -6 -10z"/>
<path d="M3700 7145 l0 -25 25 0 26 0 5 -15 6 -15 118 0 118 0 6 -15 5 -15 84
0 85 0 13 -16 13 -16 128 4 127 3 11 11 12 12 -14 8 -13 9 -113 3 -113 4 -6
14 -5 14 -88 0 -88 0 -12 15 -12 15 -119 0 -119 0 0 15 0 15 -40 0 -40 0 0
-25z"/>
<path d="M5643 6863 l-13 -5 0 -13 0 -13 16 -6 16 -6 63 0 63 0 12 -15 12 -15
98 0 98 0 6 -15 5 -15 125 0 124 0 6 -15 5 -15 56 0 56 0 28 -30 28 -31 69 3
69 3 0 20 0 20 -50 3 -50 3 -17 29 -17 30 -59 0 -60 0 -6 15 -5 15 -145 0
-144 0 -6 15 -5 15 -93 0 -93 1 -19 14 -20 15 -70 -1 -71 -1 -12 -5z"/>
<path d="M6691 6681 l-14 -9 6 -16 6 -16 64 0 65 0 12 -15 12 -15 33 0 33 0
11 14 12 14 -11 7 -11 7 -31 3 -31 4 -17 16 -17 15 -54 0 -54 0 -14 -9z"/>
<path d="M7314 6585 l-6 -14 7 -12 8 -11 43 6 43 5 6 -19 6 -20 49 0 48 0 6
-16 6 -15 57 3 58 3 0 20 0 20 -52 3 -51 3 -12 14 -12 15 -43 0 -43 0 -28 15
-29 15 -28 0 -28 0 -5 -15z"/>
<path d="M2805 6500 l-7 -11 12 -14 12 -15 33 0 33 0 12 -15 12 -15 63 0 63 0
6 -15 5 -15 114 0 115 0 11 -13 11 -14 222 -2 223 -2 11 -14 11 -15 160 0 160
0 29 -14 29 -14 165 2 165 1 0 20 0 20 -119 3 -119 3 -21 14 -20 15 -207 0
-207 0 -6 15 -5 15 -164 0 -163 0 -12 13 -13 12 -182 3 -182 4 -8 14 -8 14
-58 0 -59 0 -12 15 -12 15 -44 0 -43 0 -6 -10z"/>
<path d="M7694 6495 l-6 -14 7 -11 6 -10 50 0 49 0 0 25 0 25 -50 0 -51 0 -5
-15z"/>
<path d="M4995 6431 l-5 -10 -1 -95 0 -96 -10 0 -9 0 0 -10 0 -10 20 -20 20
-20 9 0 9 0 6 16 6 16 0 103 0 103 -6 16 -6 16 -13 0 -14 0 -6 -9z"/>
<path d="M7830 6390 l0 -10 14 0 15 0 6 10 6 10 -20 0 -21 0 0 -10z"/>
<path d="M6500 6365 l0 -15 30 0 30 0 0 15 0 15 -30 0 -30 0 0 -15z"/>
<path d="M4523 6345 l-6 -16 10 -10 10 -10 144 3 144 3 0 20 0 20 -148 3 -147
3 -7 -16z"/>
<path d="M6133 6353 l-13 -5 0 -13 0 -14 33 -6 32 -6 145 3 145 3 0 20 0 20
-165 2 -165 2 -12 -6z"/>
<path d="M5591 6319 l-24 -10 12 -12 12 -12 102 -1 102 -1 13 10 12 10 -10 12
-10 12 -92 1 -93 1 -24 -10z"/>
<path d="M6570 6250 l-16 -9 -59 -1 -60 -1 -230 0 -230 0 -29 -15 -29 -14
-137 0 -136 0 -20 -15 -19 -14 -15 -1 -15 0 -15 -10 -15 -10 18 -14 18 -14 22
6 22 5 8 13 7 13 28 -8 27 -8 138 4 137 4 21 -20 22 -20 -336 -1 -336 0 -8 14
-8 15 -215 2 -215 1 -15 13 -15 13 -50 -11 -50 -10 -779 -4 -780 -3 -14 -12
-14 -12 18 -13 18 -13 352 0 352 0 12 -15 12 -15 43 0 43 0 12 15 12 15 478 0
478 0 12 -15 12 -15 190 0 189 0 15 -15 15 -15 69 0 69 0 15 15 15 15 189 0
190 0 12 -15 12 -15 48 0 48 0 6 15 5 15 41 0 41 0 5 15 6 16 -26 24 -26 24
-47 3 -47 3 26 17 27 18 200 0 200 1 23 -12 22 -12 86 0 85 0 85 8 85 7 43 0
44 0 11 -11 11 -11 229 0 228 0 21 -11 20 -11 21 20 20 20 -6 16 -6 16 -246 0
-246 0 -15 15 -15 15 -127 2 -127 2 -40 2 -40 1 -5 2 -5 2 -45 4 -45 4 -15 -9z"/>
<path d="M6894 4247 l-6 -16 4 -16 3 -16 10 -2 10 -2 3 24 4 23 -11 11 -10 10
-7 -16z"/>
<path d="M2140 3397 l0 -24 18 -16 19 -17 40 0 41 0 12 -15 12 -15 48 0 48 0
12 -15 12 -15 49 0 48 0 9 -16 9 -16 81 3 81 4 5 -17 4 -18 45 0 45 0 12 -15
12 -15 68 0 68 0 12 -15 12 -15 38 0 38 0 12 -15 12 -15 62 0 62 0 11 -11 12
-12 15 6 16 6 0 25 0 24 -22 6 -23 6 -38 0 -38 0 -15 15 -15 15 -64 0 -63 0
-6 15 -5 15 -48 0 -48 1 -19 14 -20 15 -67 0 -67 0 -6 15 -5 15 -53 0 -53 1
-19 14 -20 15 -37 0 -37 0 -12 15 -12 15 -48 0 -48 0 -12 15 -12 15 -32 0 -31
1 -25 14 -25 14 -27 1 -28 0 0 -23z"/>
<path d="M8870 3300 l0 -21 18 3 17 3 0 15 0 15 -17 3 -18 3 0 -21z"/>
<path d="M8931 3256 l-12 -14 23 -16 22 -16 18 0 18 0 0 30 0 30 -29 0 -29 0
-11 -14z"/>
<path d="M8930 3155 l0 -16 18 3 17 3 -2 10 -2 10 -15 3 -16 3 0 -16z"/>
<path d="M5714 3116 l-6 -25 7 -10 6 -11 84 0 84 0 27 -10 26 -10 89 -7 89 -6
11 -13 11 -14 94 0 94 0 0 14 0 14 15 6 15 5 0 21 0 20 -135 0 -134 0 -9 15
-8 16 -162 0 -162 1 -6 9 -5 9 -9 0 -10 0 -6 -24z"/>
<path d="M6415 3071 l-5 -10 8 -5 9 -5 7 6 6 6 0 9 0 8 -9 0 -10 0 -6 -9z"/>
<path d="M5635 700 l-6 -10 26 0 26 0 -6 10 -6 10 -14 0 -14 0 -6 -10z"/>
<path d="M5575 669 l-7 -10 6 -6 6 -7 11 11 11 11 -10 6 -11 6 -6 -11z"/>
<path d="M5707 614 l-6 -7 5 -8 5 -9 20 0 19 0 0 15 0 15 -18 0 -19 0 -6 -6z"/>
<path d="M5527 587 l-5 -14 6 -10 7 -11 70 -3 70 -4 0 25 0 25 -71 3 -72 3 -5
-14z"/>
<path d="M4650 410 l0 -20 9 0 9 0 6 16 6 16 0 4 0 4 -15 0 -15 0 0 -20z"/>
<path d="M4751 391 l-23 -18 3 -18 4 -18 16 -10 16 -10 17 6 16 6 0 25 0 24
-6 16 -6 16 -7 0 -6 0 -24 -19z"/>
<path d="M5360 245 l0 -15 15 0 15 0 0 15 0 15 -15 0 -15 0 0 -15z"/>
<path d="M5452 198 l-11 -11 10 -19 10 -19 10 6 9 6 0 19 0 19 -8 5 -9 5 -11
-11z"/>
<path d="M5335 189 l-7 -10 6 -6 6 -7 11 11 11 11 -10 6 -11 6 -6 -11z"/>
<path d="M5351 116 l-13 -23 11 -22 12 -21 12 0 12 1 30 24 29 24 -27 10 -27
11 0 10 0 10 -13 0 -14 0 -12 -24z"/>
</g>
</svg>
