<svg height="512" viewBox="0 0 512 512" width="512" xmlns="http://www.w3.org/2000/svg"><g><g fill="#57a4ff"><g><path d="m232 239-88 16c-33.92-22.61-23.9-57.2-15.1-75.56a20.01 20.01 0 0 1 19.86-11.28l61.09 5.55a20.024 20.024 0 0 1 17.6 15.07z"/><path d="m286.83 317.66h-61.66l30.83-61.66z"/><path d="m368.38 255-88-16 4.55-50.22a20 20 0 0 1 17.59-15.07l61.1-5.55a19.988 19.988 0 0 1 19.85 11.28c8.8 18.36 18.82 52.95-15.09 75.56z"/><path d="m288 320h-64l1.17-2.34 30.83-61.66 30.83 61.66z"/><path d="m232 239-88 16c-33.92-22.61-23.9-57.2-15.1-75.56a20.01 20.01 0 0 1 19.86-11.28l61.09 5.55a20.024 20.024 0 0 1 17.6 15.07z"/><path d="m368.38 255-88-16 4.55-50.22a20 20 0 0 1 17.59-15.07l61.1-5.55a19.988 19.988 0 0 1 19.85 11.28c8.8 18.36 18.82 52.95-15.09 75.56z"/></g><path d="m136 409.94-32.74 32.74a32 32 0 1 1 -54.55 24.64l-4.03-4.03a31.993 31.993 0 1 1 24.64-54.55l37.45-37.45a39.846 39.846 0 0 0 29.23 12.71z"/><path d="m487.93 103.26a31.988 31.988 0 0 1 -45.25 0l-22.76 22.76-.01-.01-28.72-39.14 17.55-17.55a32 32 0 1 1 54.55-24.64l4.03 4.03a31.988 31.988 0 0 1 20.61 54.55z"/><path d="m487.93 453.99a31.858 31.858 0 0 1 -20.61 9.3l-4.03 4.03a31.993 31.993 0 1 1 -54.55-24.64l-32.74-32.74v-25.94a39.846 39.846 0 0 0 29.23-12.71l37.45 37.45a32 32 0 0 1 45.25 45.25z"/><path d="m120.81 86.87-28.72 39.14-.01.01-22.76-22.76a32 32 0 1 1 -24.64-54.55l4.03-4.03a31.993 31.993 0 1 1 54.55 24.64z"/></g><g fill="#004fac"><path d="m217.194 324.206a8 8 0 0 0 6.806 3.794h64a8 8 0 0 0 7.155-11.578l-32-64a8 8 0 0 0 -14.31 0l-32 64a8 8 0 0 0 .349 7.784zm38.806-50.317 19.056 38.111h-38.112z"/><path d="m352 416h-8v-8a8 8 0 0 0 -16 0v8h-16v-8a8 8 0 0 0 -16 0v8h-16v-8a8 8 0 0 0 -16 0v8h-16v-8a8 8 0 0 0 -16 0v8h-16v-8a8 8 0 0 0 -16 0v8h-16v-8a8 8 0 0 0 -16 0v8h-8a8 8 0 0 0 0 16h8v8a8 8 0 0 0 16 0v-8h16v8a8 8 0 0 0 16 0v-8h16v8a8 8 0 0 0 16 0v-8h16v8a8 8 0 0 0 16 0v-8h16v8a8 8 0 0 0 16 0v-8h16v8a8 8 0 0 0 16 0v-8h8a8 8 0 0 0 0-16z"/><path d="m239.968 238.277-4.555-50.218a7.968 7.968 0 0 0 -.207-1.218 28.027 28.027 0 0 0 -24.628-21.094l-61.1-5.555a28.138 28.138 0 0 0 -27.791 15.792c-17.03 35.52-10.515 66.746 17.874 85.672a8 8 0 0 0 5.869 1.215l88-16a8 8 0 0 0 6.538-8.594zm-94.1 8.253c-24.43-18.212-18.925-44.489-9.748-63.629a12.073 12.073 0 0 1 10.842-6.823c.356 0 .715.016 1.073.048l61.1 5.555a12.011 12.011 0 0 1 10.412 8.518l3.831 42.239z"/><path d="m278.944 246.871 88 16a8 8 0 0 0 5.868-1.215c28.39-18.926 34.9-50.152 17.875-85.671a28.138 28.138 0 0 0 -27.787-15.793l-61.1 5.555a28.027 28.027 0 0 0 -24.628 21.094 7.968 7.968 0 0 0 -.207 1.218l-4.555 50.218a8 8 0 0 0 6.534 8.594zm13.89-56.672a12.011 12.011 0 0 1 10.412-8.518l61.1-5.555a12.05 12.05 0 0 1 11.916 6.776c9.177 19.139 14.682 45.416-9.748 63.628l-77.514-14.092z"/><path d="m465.3 391.37a39.709 39.709 0 0 0 -22.06 6.62l-27.34-27.34a47.75 47.75 0 0 0 8.1-26.65v-8a8.066 8.066 0 0 0 -1.34-4.44l-9.16-13.73a190.36 190.36 0 0 0 34.5-109.83 182.432 182.432 0 0 0 -18.32-80.43l13.56-13.56a40 40 0 1 0 27.73-72.96l-.02-.02a39.994 39.994 0 1 0 -72.96 27.73l-6.87 6.87c-35.68-33.3-83.63-51.63-135.12-51.63s-99.44 18.33-135.12 51.63l-6.87-6.87a40 40 0 1 0 -72.96-27.73l-.02.02a39.994 39.994 0 1 0 27.73 72.96l13.56 13.56a182.432 182.432 0 0 0 -18.32 80.43 190.36 190.36 0 0 0 34.5 109.83l-9.16 13.73a8.066 8.066 0 0 0 -1.34 4.44v8a47.75 47.75 0 0 0 8.1 26.65l-27.34 27.34a40 40 0 1 0 -27.73 72.96l.02.02a39.994 39.994 0 1 0 72.96-27.73l13.99-13.99v10.75a48.051 48.051 0 0 0 48 48h160a48.051 48.051 0 0 0 48-48v-10.75l13.99 13.99a40 40 0 1 0 72.96 27.73l.02-.02a39.991 39.991 0 0 0 -5.67-79.58zm-50.9-316.39a8 8 0 0 0 -.01-11.32 24 24 0 1 1 40.92-18.48 7.974 7.974 0 0 0 2.32 5.16l4.03 4.03a8 8 0 0 0 5.16 2.32 23.994 23.994 0 1 1 -18.48 40.91 8.015 8.015 0 0 0 -11.32 0l-15.37 15.38a178.314 178.314 0 0 0 -19.33-25.92zm-339.42 22.62a8.015 8.015 0 0 0 -11.32 0 23.992 23.992 0 1 1 -18.48-40.91 8 8 0 0 0 5.16-2.32l4.03-4.03a7.974 7.974 0 0 0 2.32-5.16 23.994 23.994 0 1 1 40.92 18.48 8 8 0 0 0 -.01 11.32l12.08 12.08a178.314 178.314 0 0 0 -19.33 25.92zm53.02 309.03-30.4 30.39a8 8 0 0 0 .01 11.32 24 24 0 1 1 -40.92 18.48 8 8 0 0 0 -2.32-5.16l-4.03-4.03a8 8 0 0 0 -5.16-2.32 23.994 23.994 0 1 1 18.48-40.92 8 8 0 0 0 11.32.01l32.11-32.11a47.757 47.757 0 0 0 20.91 9.03zm248-30.63h-24a8 8 0 0 0 0 16h16v48a32.042 32.042 0 0 1 -32 32h-160a32.042 32.042 0 0 1 -32-32v-48h16a8 8 0 0 0 0-16h-24a32.042 32.042 0 0 1 -32-32v-5.58l30.66-45.98a8 8 0 0 0 -13.32-8.88l-13.25 19.88a174.43 174.43 0 0 1 -28.09-95.44c0-46.42 18.24-89.14 51.37-120.28 32.74-30.77 77-47.72 124.63-47.72s91.89 16.95 124.63 47.72c33.13 31.14 51.37 73.86 51.37 120.28a174.43 174.43 0 0 1 -28.09 95.44l-13.25-19.88a8 8 0 1 0 -13.32 8.88l30.66 45.98v5.58a32.042 32.042 0 0 1 -32 32zm106.27 72.33a23.969 23.969 0 0 1 -15.45 6.98 8 8 0 0 0 -5.16 2.32l-4.03 4.03a8 8 0 0 0 -2.32 5.16 23.994 23.994 0 1 1 -40.92-18.48 8 8 0 0 0 .01-11.32l-30.4-30.39v-15.31a47.757 47.757 0 0 0 20.91-9.03l32.11 32.11a8 8 0 0 0 11.32-.01 24 24 0 0 1 33.93 33.94z"/></g></g></svg>