<svg height="512" viewBox="0 0 58 58" width="512" xmlns="http://www.w3.org/2000/svg"><g id="Page-1" fill="none" fill-rule="evenodd"><g id="001---Skull-And-Crossbones" fill-rule="nonzero"><g fill="#e3bf5c"><path id="Shape" d="m21.28 40.96-9.73 9.73c-.3243274.3377996-.3778761.8526913-.13 1.25.5135681.8332498.6955777 1.8289494.51 2.79-.3555562 1.8886632-2.00402044 3.2575187-3.92585882 3.2599638-1.92183839.0024451-3.57378036-1.3622115-3.93414118-3.2499638-.07985696-.4097569-.40024307-.730143-.81-.81-1.88775232-.3603608-3.2524089-2.0123028-3.24996381-3.9341412s1.37130065-3.5703026 3.25996381-3.9258588c.96105063-.1855777 1.9567502-.0035681 2.79.51.39730872.2478761.91220045.1943274 1.25-.13l9.15-9.15z"/><path id="Shape" d="m39.97 13.79 6.48-6.48c.3243274-.33779955.3778761-.85269128.13-1.25-.5135681-.8332498-.6955777-1.82894937-.51-2.79.3555562-1.88866316 2.0040204-3.25751872 3.9258588-3.25996381s3.5737804 1.36221149 3.9341412 3.24996381c.079857.40975693.4002431.73014304.81.81 1.8877523.36036082 3.2524089 2.01230279 3.2499638 3.93414118-.0024451 1.92183838-1.3713006 3.57030262-3.2599638 3.92585882-.9610506.1855777-1.9567502.0035681-2.79-.51-.3973087-.2478761-.9122004-.1943274-1.25.13l-7.52 7.52z"/><path id="Shape" d="m14.83 19.07-7.52-7.52c-.33779955-.3243274-.85269128-.3778761-1.25-.13-.83346641.5129837-1.82769443.6982879-2.79.52-1.72135193-.3329027-3.03074254-1.7392852-3.24-3.48-.2456763-2.08514022 1.16620914-4.00408049 3.23-4.39.40975693-.07985696.73014304-.40024307.81-.81.38591951-2.06379086 2.30485978-3.4756763 4.39-3.23 1.7407148.20925746 3.1470973 1.51864807 3.48 3.24.1782879.96230557-.0070163 1.95653359-.52 2.79-.2478761.39730872-.1943274.91220045.13 1.25l6.48 6.48z"/><path id="Shape" d="m41.54 37.3 9.15 9.15c.3377996.3243274.8526913.3778761 1.25.13.8332498-.5135681 1.8289494-.6955777 2.79-.51 1.8886632.3555562 3.2575187 2.0040204 3.2599638 3.9258588s-1.3622115 3.5737804-3.2499638 3.9341412c-.4097569.079857-.730143.4002431-.81.81-.3603608 1.8877523-2.0123028 3.2524089-3.9341412 3.2499638s-3.5703026-1.3713006-3.9258588-3.2599638c-.1855777-.9610506-.0035681-1.9567502.51-2.79.2478761-.3973087.1943274-.9122004-.13-1.25l-9.73-9.73z"/></g><path id="Shape" d="m41.41 32.42c.3852982.805697.5868181 1.6869198.59 2.58.0030711.7898167-.1533895 1.5721196-.46 2.3-.8299973 1.999236-2.6713061 3.3974082-4.82 3.66h-.02l-.52 5.24c-.1027131 1.0219821-.9628693 1.8000129-1.99 1.8h-10.38c-1.0271307.0000129-1.8872869-.7780179-1.99-1.8l-.52-5.24h-.02c-2.1486939-.2625918-3.9900027-1.660764-4.82-3.66-.3066105-.7278804-.4630711-1.5101833-.46-2.3.0031819-.8930802.2047018-1.774303.59-2.58-3.0076173-4.44929-3.4100797-10.1660858-1.0554983-14.9928745 2.3545814-4.8267888 7.1076866-8.02861986 12.4654983-8.3971255.33-.02.67-.03 1-.03s.67.01 1 .03c5.3626985.35884757 10.1235463 3.5594786 12.4799787 8.3900617 2.3564323 4.8305831 1.9482581 10.5527422-1.0699787 14.9999383z" fill="#f2d45b"/><path id="Shape" d="m18.752 21c-.3306062-.0000025-.6398441-.1634055-.8261302-.4365317-.1862861-.2731263-.2255411-.6206714-.1048698-.9284683 1.1459275-2.891947 3.3575044-5.2341641 6.179-6.544.5017507-.230855 1.095645-.0112507 1.3265.4905s.0112507 1.095645-.4905 1.3265c-2.3532698 1.0917674-4.1977658 3.0450791-5.153 5.457-.1501646.3830257-.5195902.6349969-.931.635z" fill="#fff"/><path id="Shape" d="m27 43v5h-2v-5c0-.5522847.4477153-1 1-1s1 .4477153 1 1z" fill="#b08f46"/><path id="Shape" d="m33 43v5h-2v-5c0-.5522847.4477153-1 1-1s1 .4477153 1 1z" fill="#b08f46"/><path id="Shape" d="m27 26c0 2.209139-1.790861 4-4 4s-4-1.790861-4-4c0-2.209 1.791-3 4-3s4 .791 4 3z" fill="#5f5346"/><path id="Shape" d="m39 26c0 2.209139-1.790861 4-4 4s-4-1.790861-4-4c0-2.209 1.791-3 4-3s4 .791 4 3z" fill="#5f5346"/><path id="Shape" d="m31.251 37c-.3147573 0-.6111456-.1481942-.8-.4l-1.451-1.933-1.45 1.933c-.3313708.4418278-.9581722.5313708-1.4.2s-.5313708-.9581722-.2-1.4l2.25-3c.1967934-.2391708.4902738-.3777478.8-.3777478s.6032066.138577.8.3777478l2.25 3c.2272632.3030176.2638192.7084296.0944272 1.0472136s-.5156551.5527864-.8944272.5527864z" fill="#5f5346"/><path id="Shape" d="m7.346 53.3c-.34795677.0002322-.67101864-.180425-.853-.477-.32954185-.5352211-.78077902-.9850877-1.317-1.313-.47220343-.2880165-.62151644-.9042965-.33349995-1.3765.28801648-.4722034.90429649-.6215165 1.37649995-.3335.80666766.4935506 1.48541236 1.1705822 1.981 1.976.19004047.3088928.19794336.6964671.02065267 1.01285s-.51198278.5119781-.87465267.51115z" fill="#b08f46"/><path id="Shape" d="m52.3 8.348c-.1836405.00038067-.363738-.05053153-.52-.147-.8059779-.49298176-1.4837955-1.16977129-1.978-1.975-.244919-.46579929-.0869063-1.04171462.361427-1.31730772s1.0335456-.15654257 1.338573.27230772c.3305085.53842604.7843273.99053101 1.324 1.319.3776815.23604137.5537401.69340568.4318149 1.12176658-.1219252.42836089-.5124435.72445926-.9578149.72623342z" fill="#b08f46"/><path id="Shape" d="m31.38 16.24-1.55 2.31c-.1839835.2793852-.4954809.4482694-.83.45-.1958889-.0024563-.3868904-.0614932-.55-.17-.2220203-.1467316-.3763952-.3759089-.4289477-.6367947s.0010525-.5319584.1489477-.7532053l1.54-2.31-1.12-1.13c-.3771767-.372279-.5896456-.8800436-.59-1.41v-3.56c.33-.02.67-.03 1-.03s.67.01 1 .03v3.56l1.13 1.12c.6675676.6797757.7716131 1.7327163.25 2.53z" fill="#e3bf5c"/><path id="Shape" d="m5.705 8.345c-.44760296.00020518-.84082512-.29705452-.96268498-.72775004-.12185985-.43069552.05732717-.88991116.43868498-1.12424996.53724266-.32900679.98917835-.78025721 1.319-1.317.17180681-.3334024.51573139-.54263332.89079704-.54192775.37506566.00070556.71820062.21122895.88875184.54527538.17055122.33404644.13983848.73544204-.07954888 1.03965237-.49307309.80636888-1.16938156 1.4850756-1.974 1.981-.15688605.09565241-.33725591.14585132-.521.145z" fill="#b08f46"/><path id="Shape" d="m50.653 53.3c-.1836186.0002219-.3636736-.0506782-.52-.147-.4708695-.2879075-.61946-.9028572-.332-1.374.4929818-.8059779 1.1697713-1.4837955 1.975-1.978.3041942-.2163636.703574-.2452842 1.0357666-.0750038s.5418867.5114095.5438285.884697-.204192.7165796-.5345951.8903068c-.5353065.3293426-.9854719.7801932-1.314 1.316-.1806981.2991794-.5044866.4823057-.854.483z" fill="#b08f46"/></g></g></svg>