<?xml version="1.0" encoding="utf-8"?>
<!-- Generator: Adobe Illustrator 16.0.0, SVG Export Plug-In . SVG Version: 6.00 Build 0)  -->
<!DOCTYPE svg PUBLIC "-//W3C//DTD SVG 1.1//EN" "http://www.w3.org/Graphics/SVG/1.1/DTD/svg11.dtd">
<svg version="1.1" xmlns="http://www.w3.org/2000/svg" xmlns:xlink="http://www.w3.org/1999/xlink" x="0px" y="0px" width="972px"
	 height="405px" viewBox="0 0 972 405" enable-background="new 0 0 972 405" xml:space="preserve">
<g>
	<g>
		<path fill="#FFFFFF" d="M565.947,125.719c0.04,8.363,42.794,19.593,51.88,21.461c19.22,3.952,42.539,4.009,62.177,2.671
			c22.51-1.534,36.387-2.131,57.585,6.129c10.255,3.995,20.735,7.272,30.999,11.195c5.991,2.29,16.336,11.652,20.831,11.963
			c16.705,1.152,37.734,20.99,49.874,31.386c15.485,13.259,36.285,25.455,51.374,39.144c17.852,16.195,32.552,30.385,48.667,48.333
			c10.799,12.027,31.667,47.334,29.667,53.667s-17.515,1.127-21.422-0.397c-8.685-3.386-17.445-5.095-24.245-11.603
			c-3.977,16.583-25.333-0.334-32.667-4.334c-8,2-19.52-4.574-25.967-8.005c0.967,11.005-6.729,7.056-12.168,4.537
			c-9.705-4.495-14.011-1.063-23.42-3.188c-18.691-4.225-36.969-6.369-44.85-24.758c5.579,15.253-19.922,11.974-22.068-3.713
			c-5.164,13.658-29.049-0.306-27.74-12.169c-5.408,8.869-34.61-5.816-43.387-9.312c-12.435-4.951-33.89-0.799-47.71-0.191
			c-35.122,1.542-67.246-6.546-102.057-12.256c7.425,15.657,14.85,31.316,22.274,46.974c3.626,7.644,24.678,38.752,22.275,46.973
			c-0.519,1.779-9.675,4.994-11.457,5.914c-2.983,1.54-4.408,6.046-6.029,8.865c-4.475,7.789-12.837-8.045-16.967,6.49
			c-2.509,8.832-10.777,7.471-17.416,6.191c-7.188-1.386-11.458,9.2-20.318,6.674c0.688,1.822,1.376,3.644,2.063,5.466
			c-10.691-1.287-56.236-11.08-60.225-6.807c-0.497-14.443-14.149-1.06-20.801-8.228c-7.531-8.114-19.704-8.747-20.037-20.441
			c-8.272,5.284-12.083-2.224-11.653-9.899c-3.539,1.718-14.656-0.535-13.566-5.243c3.142-13.566-3.239-4.962-9.419-13.79
			c-4.22-6.028-3.218-11.609-7.539-17.989c-2.717-4.009-9.272-12.039-2.767-16.232c27.563-17.758,55.125-35.515,82.688-53.273
			c-3.766-0.904-7.348-2.95-9.488-6.033c-2.315-3.335-7.438-1.129-11.916-1.667c-5.786-0.693-10.657-2.345-16.752-4.159
			c-3.996-1.188-10.027-7.193-13.199-8.456c-5.252-2.09-20.026-1.061-16.088-10.106c-4.67,1.49-8.067,0.754-12.581-0.412
			c-1.549-0.4-1.778-5.146-3.3-5.775c-0.848-0.35-5.787,1.188-7.168,1.031c-5.417-0.614-3.794-5.883-10.622-6.857
			c-5.627-0.805-8.775-1.762-5.827-7.374c-6.101-0.56-16.377,0.944-12.787-7.941c-7.926,2.182-16.3,1.035-14.127-9.281
			c-7.4,5.213-19.504,4.041-13.406-7.733c-6.927,2.396-20.595-5.741-26.106-10.236c-2.611-2.131-7.378-2.61-10.71-4.305
			c-3.017-1.534,1.296-5.127-3.605-4.999c-1.596,0.041-4.731,0.485-6.481-0.021c-12.724-3.677-25.447-7.354-38.171-11.03
			c-14.543-4.202-15.573,1.822-24.137-12.619c-6.406,14.872-31.95,8.351-31.452-7.527c-6.482,7.248-22.129,2.379-30.556-1.266
			C119.135,114.756,120.199,110.512,111,98c-6.303,7.029-27.611,0.868-36.667-4.667C63.057,86.439,55.931,80.696,44,75
			c-9.796-4.677-21.762-3.641-31.061-8.784c-16.112-8.912,3.093-20.396,11.087-23.615c42.93-17.288,89.468-24.278,135.322-27.362
			c48.349-3.251,111.036-16.436,157.093,4.624c23.425,10.712,43.714,28.392,64.216,43.769
			c18.443,13.833,43.271,22.585,64.258,32.102c18.1,8.208,26.723,11.113,46.473,11.113c-0.604-5.602-1.208-11.203-1.814-16.805
			c-0.409-3.793-5.302-5.224-5.816-7.738C481.658,72.044,483.5,63.75,477.25,52.5c3.466-0.127,13.263,1.666,16.229,3.552
			c7.61,4.835,6.383,0.856,12.553,2.018c9.507,1.788,18.36,4.074,24.847,11.758C544.607,86.096,561.646,104.064,565.947,125.719z"/>
		<path d="M569.31,125.442l0.021,0.263l0.011,0.131c0.003-0.036,0.004-0.071,0.002-0.106c-0.004-0.071-0.02-0.141-0.045-0.205
			c-0.003-0.018,0.006-0.003,0.004-0.004c-0.006,0.009,0.052,0.108,0.126,0.225c0.167,0.249,0.496,0.604,0.89,0.949
			c0.794,0.703,1.835,1.409,2.933,2.057c2.212,1.308,4.675,2.461,7.179,3.53c5.028,2.133,10.288,3.953,15.586,5.641
			c5.305,1.679,10.677,3.217,16.067,4.609c2.71,0.686,5.365,1.367,8.045,1.851l2.069,0.398l2.015,0.334
			c1.332,0.236,2.708,0.418,4.074,0.612c10.955,1.49,22.113,1.945,33.261,1.84c5.577-0.053,11.157-0.27,16.732-0.587
			c5.594-0.331,11.268-0.705,16.97-0.853c5.708-0.145,11.495-0.024,17.265,0.622c5.77,0.647,11.477,1.902,16.998,3.593
			c2.766,0.84,5.479,1.809,8.158,2.841l7.885,2.99l15.861,5.695l7.968,2.974c0.692,0.265,1.508,0.648,2.175,0.998
			c0.68,0.36,1.33,0.735,1.964,1.118c1.265,0.768,2.467,1.567,3.65,2.371c2.359,1.604,4.641,3.25,6.929,4.734
			c1.142,0.739,2.292,1.44,3.404,1.993c0.553,0.277,1.102,0.504,1.557,0.635c0.115,0.036,0.206,0.047,0.31,0.077l0.339,0.044
			l1.05,0.113c3.131,0.356,5.973,1.247,8.743,2.312c2.757,1.078,5.371,2.392,7.887,3.828c5.033,2.878,9.7,6.219,14.194,9.721
			c4.491,3.508,8.8,7.204,13.043,10.927l6.331,5.535c2.16,1.842,4.289,3.584,6.484,5.299c8.803,6.883,18.107,13.229,27.198,19.957
			c4.545,3.364,9.046,6.82,13.381,10.514c2.168,1.841,4.289,3.78,6.341,5.685l6.195,5.755c8.243,7.718,16.335,15.594,24.174,23.729
			c3.925,4.061,7.779,8.188,11.571,12.372c1.885,2.113,3.838,4.104,5.697,6.333c1.832,2.209,3.538,4.485,5.193,6.794
			c3.319,4.609,6.459,9.325,9.447,14.141c2.988,4.816,5.849,9.713,8.473,14.77c1.296,2.538,2.534,5.113,3.642,7.785
			c0.547,1.342,1.068,2.701,1.503,4.14c0.217,0.719,0.415,1.454,0.563,2.244c0.138,0.797,0.271,1.611,0.146,2.688
			c-0.028,0.269-0.092,0.545-0.204,0.902l-0.089,0.253l-0.186,0.426c-0.243,0.492-0.557,0.934-0.926,1.323
			c-0.74,0.779-1.642,1.278-2.492,1.581c-1.723,0.601-3.329,0.665-4.863,0.591c-3.062-0.179-5.896-0.861-8.675-1.665
			c-1.387-0.408-2.764-0.823-4.124-1.3c-0.681-0.237-1.356-0.482-2.036-0.747l-1.978-0.739c-2.589-0.928-5.285-1.787-7.969-2.724
			c-2.688-0.945-5.411-1.943-8.041-3.271c-2.618-1.341-5.176-2.952-7.426-4.976l3.307-0.973l-0.001,0.006
			c-0.438,1.758-1.1,3.584-2.375,5.205c-0.635,0.804-1.428,1.532-2.334,2.09c-0.905,0.561-1.91,0.927-2.903,1.137
			c-2.004,0.418-3.917,0.223-5.682-0.136c-1.77-0.372-3.427-0.942-5.017-1.597c-3.177-1.318-6.109-2.959-8.956-4.668
			c-1.422-0.855-2.819-1.734-4.202-2.606c-1.378-0.864-2.761-1.753-4.082-2.483l1.435,0.184c-2.658,0.646-5.279,0.477-7.718,0.037
			c-2.447-0.452-4.764-1.195-6.997-2.058c-4.46-1.733-8.62-3.985-12.668-6.157l2.915-1.93c0.084,1.078,0.128,2.18,0.023,3.35
			c-0.127,1.162-0.327,2.437-1.153,3.742c-0.397,0.643-1.014,1.262-1.733,1.67c-0.718,0.416-1.494,0.622-2.202,0.7
			c-1.423,0.137-2.609-0.121-3.705-0.412c-2.171-0.622-4.037-1.53-5.85-2.365c-0.771-0.335-1.854-0.845-2.641-1.098
			c-0.823-0.312-1.718-0.57-2.604-0.785c-1.778-0.424-3.59-0.578-5.5-0.582c-1.907-0.011-3.934,0.109-6.034,0.052
			c-2.098-0.056-4.241-0.285-6.309-0.75l-5.854-1.275c-3.905-0.843-7.843-1.693-11.769-2.754c-3.923-1.067-7.846-2.36-11.606-4.171
			c-3.754-1.803-7.339-4.18-10.329-7.223c-2.996-3.038-5.313-6.693-6.981-10.55l3.696-1.468c0.573,1.621,1.028,3.392,0.885,5.377
			c-0.079,0.984-0.314,2.022-0.818,2.98c-0.49,0.96-1.225,1.811-2.072,2.431c-0.844,0.637-1.777,1.043-2.701,1.321
			c-0.928,0.278-1.854,0.399-2.761,0.441c-1.816,0.074-3.562-0.199-5.222-0.681c-3.309-0.98-6.336-2.79-8.723-5.318
			c-2.398-2.505-4.033-5.835-4.496-9.312l3.833,0.435c-0.676,1.793-1.816,3.594-3.503,4.851c-1.668,1.273-3.72,1.911-5.65,2.036
			c-1.946,0.137-3.814-0.146-5.57-0.631c-1.758-0.491-3.416-1.194-4.983-2.038c-3.119-1.71-5.924-3.949-8.19-6.769
			c-1.126-1.413-2.114-2.982-2.814-4.75c-0.695-1.757-1.089-3.754-0.868-5.79l3.678,1.254c-0.754,1.24-1.945,2.219-3.163,2.757
			c-1.224,0.569-2.449,0.797-3.623,0.923c-2.349,0.207-4.547-0.038-6.678-0.401c-4.251-0.764-8.261-2.045-12.195-3.449
			c-3.931-1.415-7.771-3-11.571-4.634l-5.665-2.462c-1.861-0.804-3.767-1.645-5.505-2.079c-3.72-1.002-7.722-1.331-11.731-1.397
			c-4.02-0.059-8.079,0.161-12.146,0.475c-4.07,0.315-8.152,0.737-12.267,1.116c-2.059,0.188-4.125,0.365-6.212,0.496l-1.568,0.087
			c-0.595,0.034-1.051,0.034-1.583,0.053l-3.085,0.084c-2.044,0.083-4.141,0.056-6.228,0.047c-2.093,0.014-4.167-0.056-6.24-0.135
			l-3.111-0.111l-3.105-0.19l-3.105-0.19l-3.097-0.267c-2.066-0.167-4.13-0.357-6.187-0.597c-2.06-0.217-4.118-0.442-6.168-0.72
			c-4.107-0.507-8.199-1.105-12.28-1.742c-8.163-1.272-16.279-2.735-24.379-4.208l-12.142-2.195
			c-4.045-0.722-8.092-1.413-12.14-2.088l2.122-2.819l20.709,43.671l1.294,2.729c0.419,0.907,0.835,1.703,1.32,2.581
			c0.952,1.721,1.973,3.45,2.992,5.179l6.148,10.423c2.026,3.501,4.017,7.034,5.898,10.647c1.87,3.623,3.676,7.291,5.098,11.251
			c0.685,1.999,1.341,4.025,1.467,6.465c0.015,0.621-0.011,1.276-0.161,1.99l-0.065,0.271l-0.033,0.135
			c-0.155,0.447-0.054,0.148-0.093,0.26l-0.019,0.043l-0.038,0.087c-0.027,0.061-0.093,0.186-0.145,0.272
			c-0.102,0.179-0.273,0.414-0.326,0.465c-0.334,0.397-0.599,0.592-0.873,0.815c-1.051,0.781-1.982,1.233-2.943,1.721
			c-1.899,0.928-3.792,1.699-5.658,2.468l-1.378,0.57c-0.437,0.188-0.923,0.385-1.12,0.524l-0.313,0.189
			c-0.045,0.042-0.091,0.082-0.14,0.12c-0.083,0.048-0.237,0.209-0.366,0.322c-0.266,0.257-0.522,0.566-0.773,0.897
			c-1.004,1.37-1.792,3.143-2.712,5.002c-0.23,0.466-0.483,0.948-0.758,1.437l-0.226,0.373c-0.063,0.104-0.193,0.291-0.29,0.431
			c-0.207,0.288-0.421,0.545-0.672,0.81c-0.5,0.52-1.157,1.003-1.913,1.313c-0.759,0.307-1.575,0.419-2.294,0.39
			c-1.452-0.064-2.564-0.493-3.567-0.865c-0.996-0.385-1.893-0.779-2.71-1.037c-0.815-0.265-1.53-0.367-1.998-0.267
			c-0.462,0.089-0.861,0.336-1.314,0.888c-0.44,0.54-0.836,1.299-1.163,2.116c-0.168,0.407-0.313,0.842-0.455,1.277l-0.445,1.444
			c-0.402,1.171-0.899,2.217-1.607,3.24c-0.707,1.008-1.623,1.919-2.673,2.619c-2.128,1.414-4.587,1.857-6.799,1.91
			c-2.241,0.056-4.357-0.245-6.399-0.594l-1.516-0.277l-0.375-0.072l-0.047-0.009c0.026,0.004-0.125-0.021,0.048,0.007l-0.094-0.014
			l-0.187-0.026l-0.374-0.054l-0.215-0.002c-0.625-0.028-1.402,0.097-2.136,0.387c-1.508,0.563-3.06,1.689-4.713,2.861
			c-1.659,1.166-3.475,2.438-5.712,3.242c-2.224,0.83-4.878,0.901-7.15,0.224l2.412-2.62l2.063,5.466l0.004,0.011
			c0.388,1.026-0.13,2.172-1.156,2.56c-0.312,0.117-0.643,0.15-0.951,0.112c-2.621-0.333-5.115-0.771-7.638-1.201l-7.522-1.322
			c-5.007-0.885-10.008-1.762-15.012-2.572c-5.003-0.807-10.012-1.563-15.01-2.127c-2.497-0.277-4.997-0.511-7.456-0.605
			c-1.225-0.043-2.45-0.059-3.601,0.022c-0.572,0.039-1.138,0.1-1.61,0.203c-0.236,0.051-0.442,0.112-0.595,0.169
			c-0.131,0.05-0.192,0.121-0.084,0.008l-3.451-1.292c-0.041-1.059-0.158-2.094-0.417-2.955c-0.264-0.872-0.644-1.462-1.108-1.749
			c-0.455-0.315-1.249-0.468-2.228-0.438c-0.974,0.027-2.064,0.196-3.194,0.391c-2.267,0.37-4.724,0.934-7.526,0.646
			c-1.387-0.152-2.88-0.591-4.156-1.441c-0.317-0.211-0.622-0.439-0.907-0.686c-0.138-0.126-0.285-0.247-0.414-0.381l-0.344-0.349
			l-0.612-0.629l-0.563-0.531c-1.571-1.438-3.404-2.7-5.349-3.881c-1.945-1.191-4.012-2.316-6.066-3.68
			c-2.037-1.357-4.127-3.021-5.646-5.32c-0.755-1.139-1.338-2.413-1.711-3.723c-0.376-1.311-0.551-2.646-0.597-3.954l3.067,1.624
			c-0.808,0.503-1.658,0.972-2.594,1.35c-0.474,0.183-0.963,0.347-1.479,0.474c-0.518,0.123-1.057,0.209-1.616,0.245
			c-0.561,0.029-1.14,0.004-1.719-0.095c-0.577-0.109-1.158-0.267-1.694-0.521c-1.09-0.484-2.009-1.242-2.702-2.079
			c-0.703-0.839-1.219-1.75-1.617-2.669c-0.397-0.922-0.678-1.856-0.882-2.792c-0.404-1.872-0.512-3.747-0.415-5.604l2.863,1.906
			c-1.276,0.578-2.342,0.676-3.393,0.752c-1.042,0.052-2.044-0.002-3.034-0.116c-1.977-0.244-3.904-0.71-5.814-1.61
			c-0.95-0.456-1.913-1.039-2.801-1.957c-0.437-0.477-0.851-1.051-1.137-1.758c-0.288-0.711-0.381-1.548-0.283-2.304l0.085-0.514
			l0.073-0.33l0.146-0.659l0.247-1.247c0.144-0.831,0.263-1.658,0.296-2.403c0.047-0.723-0.093-1.415-0.157-1.42
			c-0.018-0.019-0.004-0.034-0.208-0.133c-0.195-0.091-0.544-0.197-0.95-0.301c-0.834-0.212-1.856-0.458-2.847-0.878
			c-0.994-0.411-1.953-0.976-2.792-1.646c-0.84-0.67-1.574-1.428-2.217-2.224c-0.313-0.417-0.609-0.775-0.911-1.253
			c-0.249-0.4-0.483-0.702-0.745-1.183c-1.054-1.8-1.748-3.586-2.322-5.406c-0.567-1.806-0.986-3.549-1.508-5.178
			c-0.516-1.631-1.133-3.156-1.944-4.578c-0.776-1.38-1.878-2.812-2.915-4.369c-1.033-1.551-2.04-3.187-2.816-5.059
			c-0.384-0.938-0.709-1.94-0.885-3.038c-0.167-1.098-0.165-2.318,0.17-3.526c0.337-1.209,1.042-2.321,1.882-3.154
			c0.419-0.422,0.872-0.781,1.333-1.094c0.452-0.313,0.777-0.507,1.172-0.766l9.08-5.851l72.64-46.8l0.615,3.619
			c-1.771-0.435-3.496-1.074-5.115-1.967c-1.613-0.896-3.14-2.023-4.416-3.45c-0.317-0.357-0.627-0.724-0.908-1.116
			c-0.354-0.49-0.405-0.538-0.535-0.658c-0.293-0.267-0.668-0.455-1.244-0.564c-1.148-0.226-2.749-0.065-4.407,0.067
			c-0.838,0.067-1.715,0.128-2.631,0.133c-0.459,0-0.929-0.016-1.407-0.053l-0.362-0.035l-0.373-0.047l-0.614-0.088l-1.228-0.175
			l-1.286-0.231c-0.872-0.149-1.7-0.34-2.532-0.527c-3.33-0.763-6.521-1.772-9.68-2.718l-1.184-0.356l-0.296-0.089l-0.39-0.134
			c-0.202-0.075-0.374-0.128-0.6-0.222c-1.027-0.441-1.791-0.87-2.551-1.345c-1.515-0.938-2.874-1.955-4.208-2.957
			c-1.33-1-2.63-2.007-3.909-2.87c-0.62-0.41-1.295-0.813-1.76-1.003c-0.62-0.241-1.327-0.413-2.089-0.574
			c-1.523-0.314-3.162-0.548-4.823-0.838c-1.666-0.294-3.369-0.619-5.121-1.197c-0.875-0.296-1.768-0.654-2.66-1.188
			c-0.882-0.53-1.806-1.273-2.466-2.361c-0.673-1.078-0.918-2.431-0.815-3.563c0.09-1.149,0.421-2.138,0.804-3.034l2.438,2.699
			c-2.271,0.736-4.806,1.084-7.227,0.868c-1.208-0.096-2.376-0.296-3.498-0.535c-0.563-0.119-1.114-0.25-1.657-0.384l-0.811-0.203
			l-0.402-0.104l-0.05-0.013l-0.214-0.063l-0.097-0.034c0.008,0.005-0.142-0.053-0.273-0.117c-0.121-0.059-0.266-0.14-0.353-0.199
			c-0.625-0.438-0.907-0.879-1.136-1.24c-0.22-0.367-0.366-0.692-0.496-1.001c-0.254-0.614-0.427-1.16-0.601-1.673
			c-0.17-0.505-0.335-0.982-0.498-1.336c-0.079-0.174-0.162-0.317-0.198-0.365c-0.016-0.023-0.024-0.027,0.019,0.014
			c0.012,0.005,0.056,0.051,0.094,0.067l0.082,0.048l0.046,0.02l0.184,0.066l-0.024-0.007c-0.2-0.056,0.211,0.065,0.23,0.047
			c0.018,0.002,0.02,0-0.01,0.001c-0.04,0-0.135,0.008-0.228,0.017c-0.198,0.021-0.437,0.059-0.679,0.102
			c-0.489,0.086-1.01,0.195-1.539,0.307c-1.079,0.22-2.111,0.478-3.435,0.632c-0.174,0.017-0.359,0.031-0.577,0.035
			c-0.121,0-0.221,0.003-0.378-0.01l-0.108-0.009l-0.14-0.017l-0.102-0.015l-0.426-0.065l-0.579-0.122
			c-0.699-0.178-1.424-0.462-2.077-0.877c-1.336-0.837-2.168-2.027-2.787-2.864c-0.634-0.871-1.15-1.477-1.782-1.907
			c-0.62-0.438-1.391-0.722-2.272-0.903c-0.418-0.081-0.952-0.152-1.533-0.243c-0.563-0.089-1.128-0.187-1.709-0.307
			c-1.16-0.26-2.379-0.516-3.75-1.35c-0.671-0.428-1.415-1.114-1.828-2.051c-0.427-0.929-0.455-1.889-0.368-2.663
			c0.211-1.554,0.768-2.678,1.313-3.765l1.586,2.918c-1.455-0.13-3.042-0.142-4.663-0.208c-1.629-0.073-3.303-0.152-5.103-0.55
			c-0.452-0.107-0.91-0.231-1.379-0.4c-0.47-0.176-0.947-0.373-1.428-0.67c-0.479-0.273-0.955-0.662-1.381-1.113
			c-0.409-0.478-0.788-1.028-0.999-1.63c-0.24-0.596-0.333-1.196-0.379-1.771c-0.009-0.279-0.003-0.553,0.002-0.83l0.087-0.777
			c0.088-0.493,0.19-0.979,0.333-1.423c0.124-0.465,0.299-0.872,0.454-1.305l2.382,2.674c-1.871,0.509-3.799,0.873-5.81,0.971
			c-1.005,0.047-2.032,0.025-3.079-0.114c-1.046-0.14-2.118-0.396-3.172-0.856c-0.526-0.23-1.043-0.52-1.536-0.865
			c-0.485-0.357-0.959-0.752-1.357-1.227c-0.414-0.459-0.748-0.982-1.04-1.517c-0.272-0.542-0.49-1.101-0.643-1.662
			c-0.152-0.562-0.248-1.121-0.306-1.671c-0.055-0.551-0.063-1.089-0.054-1.623c0.038-1.058,0.188-2.07,0.384-3.056l3.105,2.045
			c-1.887,1.315-3.977,2.263-6.199,2.823c-1.113,0.276-2.262,0.453-3.45,0.484c-0.595,0.013-1.197-0.003-1.812-0.08
			c-0.611-0.068-1.235-0.192-1.859-0.393c-1.239-0.372-2.539-1.121-3.483-2.303c-0.464-0.586-0.829-1.263-1.046-1.954
			c-0.114-0.347-0.208-0.694-0.253-1.037c-0.07-0.349-0.091-0.685-0.101-1.019c-0.026-0.668,0.029-1.311,0.136-1.916
			c0.088-0.62,0.254-1.188,0.422-1.753c0.174-0.561,0.375-1.1,0.601-1.617c0.21-0.532,0.475-1.013,0.711-1.521l2.427,2.807
			c-1.583,0.52-3.147,0.607-4.595,0.5c-1.455-0.109-2.832-0.39-4.161-0.749c-2.654-0.729-5.125-1.766-7.511-2.929
			c-2.383-1.169-4.672-2.48-6.891-3.91c-1.11-0.715-2.2-1.463-3.272-2.257l-0.801-0.605l-0.723-0.573
			c-0.605-0.462-0.79-0.549-1.322-0.832c-1.959-0.958-4.484-1.485-7.068-2.425c-0.65-0.234-1.314-0.517-1.979-0.843
			c-0.378-0.21-0.228-0.105-0.638-0.38c-0.306-0.213-0.51-0.402-0.737-0.658c-0.446-0.496-0.758-1.183-0.868-1.779
			c-0.209-1.203,0.022-1.997,0.017-2.404c0.018-0.186-0.047-0.194,0.082,0.098c0.074,0.126,0.179,0.263,0.277,0.319
			c0.072,0.059,0.117,0.067,0.101,0.063c-0.02-0.014-0.212-0.049-0.423-0.059c-0.107-0.007-0.222-0.012-0.351-0.009l-0.172,0
			l-0.24,0.009l-1.86,0.125c-1.333,0.072-2.667,0.189-4.336-0.085c-0.2-0.031-0.453-0.102-0.657-0.152l-0.462-0.133l-0.924-0.267
			l-1.848-0.534l-3.695-1.068l-29.563-8.543l-1.824-0.524c-0.619-0.171-1.244-0.347-1.817-0.482
			c-1.176-0.289-2.393-0.548-3.601-0.743c-1.214-0.199-2.434-0.348-3.693-0.474c-1.263-0.136-2.56-0.224-3.989-0.493
			c-1.414-0.248-2.987-0.802-4.285-1.675c-1.307-0.864-2.334-1.922-3.239-2.983c-1.786-2.144-3.167-4.383-4.515-6.625l3.555-0.229
			c-0.813,1.886-2,3.663-3.521,5.11c-1.515,1.453-3.338,2.563-5.265,3.287c-3.877,1.45-8.058,1.457-11.911,0.502
			c-3.853-0.97-7.509-2.932-10.297-5.941c-1.386-1.501-2.528-3.275-3.273-5.225c-0.75-1.947-1.085-4.054-1.02-6.115l3.489,1.396
			c-1.108,1.234-2.489,2.205-3.943,2.875c-1.457,0.676-2.978,1.074-4.478,1.296c-3.008,0.434-5.938,0.229-8.768-0.201
			c-2.833-0.441-5.58-1.138-8.266-1.979c-1.342-0.422-2.669-0.883-3.982-1.378c-1.321-0.502-2.593-1.011-3.916-1.608l-1.868-0.848
			c-0.626-0.29-1.28-0.637-1.918-0.954c-0.649-0.312-1.266-0.677-1.89-1.032c-0.627-0.342-1.241-0.726-1.846-1.134
			c-0.616-0.382-1.209-0.813-1.792-1.268c-0.598-0.427-1.149-0.928-1.706-1.42c-0.57-0.478-1.056-1.046-1.584-1.567
			c-0.481-0.557-0.977-1.113-1.419-1.689c-0.89-1.152-1.706-2.334-2.453-3.503l-2.212-3.474c-1.454-2.287-2.957-4.504-4.537-6.674
			l-0.007-0.01l3.1,0.15c-1.487,1.596-3.401,2.476-5.212,2.959c-1.833,0.492-3.641,0.634-5.409,0.656
			c-3.539,0.011-6.946-0.534-10.269-1.305c-3.322-0.78-6.559-1.814-9.716-3.063c-3.14-1.253-6.281-2.69-9.145-4.58
			c-5.631-3.532-11.105-7.399-16.653-10.933c-1.384-0.901-2.807-1.722-4.209-2.587c-1.425-0.821-2.858-1.629-4.303-2.415
			c-1.458-0.727-2.957-1.516-4.381-2.194c-0.758-0.329-1.527-0.695-2.259-0.939c-0.729-0.285-1.491-0.537-2.271-0.768
			c-6.203-1.91-12.898-2.38-19.425-4.3c-3.251-0.961-6.481-2.278-9.299-4.37c-1.396-1.055-2.731-2.357-3.557-4.087
			c-0.843-1.727-0.869-3.853-0.229-5.594c0.619-1.762,1.677-3.232,2.836-4.527c1.168-1.297,2.47-2.424,3.824-3.461
			c2.718-2.063,5.645-3.775,8.704-5.232c0.771-0.361,1.537-0.705,2.35-1.022l2.322-0.899l4.644-1.799
			c3.116-1.163,6.278-2.256,9.42-3.368c25.267-8.501,51.464-13.969,77.844-17.418c13.196-1.732,26.446-2.997,39.712-3.938
			c13.226-0.896,26.404-2.376,39.625-3.739c13.216-1.364,26.468-2.624,39.782-3.21c13.307-0.579,26.695-0.507,39.997,1.001
			c13.275,1.512,26.518,4.505,38.847,9.965c12.28,5.461,23.585,12.786,34.368,20.595c10.793,7.81,21.135,16.235,31.747,24.056
			c10.631,7.734,22.538,13.518,34.631,18.864c6.057,2.665,12.181,5.212,18.301,7.812c3.06,1.299,6.121,2.611,9.168,3.968
			c3.043,1.347,6.06,2.711,9.091,3.97c6.066,2.563,12.208,4.752,18.562,5.934c3.174,0.603,6.396,0.979,9.645,1.206
			c3.252,0.21,6.53,0.268,9.814,0.272h0.002l-1.988,2.214l-1.435-14.322l-0.179-1.79l-0.044-0.447l-0.022-0.224l-0.003-0.028
			c-0.002-0.02,0.016,0.125,0.007,0.057l-0.002-0.014l-0.008-0.056l-0.016-0.111c-0.021-0.189-0.04-0.208-0.049-0.267
			c-0.015-0.063-0.045-0.165-0.072-0.246c-0.225-0.68-0.811-1.398-1.607-2.126c-0.795-0.753-1.776-1.428-2.806-2.588
			c-0.254-0.299-0.511-0.64-0.737-1.06c-0.111-0.216-0.213-0.442-0.296-0.691c-0.077-0.219-0.155-0.593-0.166-0.684l-0.312-1.774
			l-0.263-1.867l-0.206-1.831c-0.119-1.216-0.222-2.425-0.314-3.625l-0.291-3.562c-0.109-1.174-0.242-2.337-0.401-3.49
			c-0.171-1.148-0.375-2.286-0.625-3.41c-0.264-1.119-0.558-2.23-0.92-3.319c-0.157-0.553-0.382-1.082-0.578-1.622
			c-0.19-0.542-0.413-1.072-0.654-1.595c-0.438-1.064-0.991-2.081-1.51-3.113l-0.001-0.001l-0.161-0.472
			c-0.249-0.728,0.139-1.519,0.866-1.768c0.196-0.067,0.403-0.087,0.597-0.067c1.494,0.157,2.769,0.44,4.09,0.69l3.887,0.81
			c2.582,0.58,5.144,1.089,7.722,2.151c0.32,0.127,0.65,0.301,0.98,0.486c0.29,0.156,0.563,0.328,0.845,0.49
			c0.567,0.35,1.104,0.618,1.642,0.9c1.096,0.526,2.221,0.967,3.18,0.9c0.488-0.02,1.016-0.164,1.674-0.337
			c0.647-0.18,1.407-0.316,2.138-0.36c1.467-0.089,2.929,0.189,4.158,0.401c5.151,0.893,10.405,2.038,15.328,4.432
			c2.45,1.189,4.799,2.689,6.863,4.537c1.025,0.909,2.017,1.943,2.896,2.928l2.591,2.904c6.93,7.73,13.991,15.484,20.243,24.075
			c3.132,4.287,6.032,8.812,8.441,13.663c2.445,4.829,4.293,10.037,5.385,15.445C569.281,125.182,569.3,125.323,569.31,125.442z
			 M563.92,126.038c-1.029-4.872-2.706-9.62-4.923-14.129c-2.224-4.538-4.884-8.879-7.798-13.068
			c-1.472-2.085-2.945-4.177-4.5-6.217c-1.54-2.053-3.16-4.05-4.75-6.081c-3.195-4.048-6.519-8.025-9.838-12.036l-2.465-3.034
			c-0.806-0.994-1.566-1.868-2.438-2.729c-1.721-1.703-3.717-3.126-5.876-4.31c-4.328-2.379-9.286-3.735-14.309-4.845
			c-1.314-0.3-2.42-0.535-3.553-0.504c-0.563,0.021-1.091,0.089-1.7,0.237c-0.601,0.135-1.343,0.333-2.161,0.344
			c-1.681,0.02-3.026-0.644-4.24-1.255c-0.605-0.338-1.22-0.678-1.748-1.027c-0.275-0.17-0.549-0.353-0.826-0.513
			c-0.234-0.138-0.472-0.279-0.753-0.399c-2.203-0.987-4.745-1.654-7.249-2.101c-1.26-0.221-2.535-0.381-3.806-0.455
			c-1.256-0.072-2.574-0.068-3.68,0.136l1.301-2.307l0.001,0.001c0.579,1.1,1.188,2.186,1.683,3.333
			c0.269,0.563,0.519,1.135,0.737,1.722c0.224,0.583,0.475,1.158,0.657,1.757c0.414,1.182,0.752,2.386,1.057,3.597
			c0.29,1.215,0.528,2.435,0.729,3.657c0.188,1.222,0.346,2.439,0.478,3.652l0.351,3.606c0.11,1.19,0.229,2.37,0.361,3.54
			l0.223,1.743l0.264,1.692l0.338,1.766c0.038,0.205,0.03,0.124,0.045,0.189c0.013,0.035,0.036,0.081,0.062,0.133
			c0.061,0.108,0.166,0.25,0.302,0.404c0.565,0.641,1.56,1.364,2.532,2.229c0.968,0.872,2.059,1.985,2.649,3.585
			c0.072,0.202,0.132,0.387,0.19,0.614c0.057,0.233,0.112,0.505,0.125,0.615l0.067,0.517l0.052,0.447l0.207,1.787l1.656,14.299
			c0.126,1.089-0.654,2.075-1.744,2.201c-0.074,0.009-0.147,0.013-0.221,0.013h-0.023h-0.002c-3.354-0.03-6.718-0.114-10.092-0.358
			c-3.373-0.261-6.754-0.681-10.099-1.342c-6.71-1.301-13.135-3.661-19.269-6.308c-3.092-1.313-6.116-2.708-9.135-4.072
			c-3.008-1.367-6.041-2.695-9.083-4.014c-6.083-2.639-12.203-5.239-18.282-7.969c-12.123-5.471-24.229-11.457-35.054-19.456
			c-10.692-8.044-20.953-16.407-31.659-24.204c-10.686-7.781-21.793-15.009-33.797-20.386c-11.978-5.344-24.938-8.321-38.013-9.844
			c-13.1-1.521-26.357-1.631-39.576-1.091c-13.227,0.547-26.434,1.767-39.64,3.095c-13.203,1.326-26.432,2.776-39.712,3.641
			c-13.23,0.904-26.436,2.129-39.581,3.819c-26.28,3.366-52.35,8.738-77.476,17.119c-3.12,1.095-6.238,2.164-9.346,3.313
			l-4.648,1.787l-2.324,0.894c-0.735,0.284-1.486,0.618-2.219,0.959c-2.938,1.388-5.777,3.042-8.354,4.989
			c-1.283,0.978-2.503,2.033-3.561,3.203c-1.054,1.165-1.96,2.457-2.446,3.839c-0.487,1.382-0.442,2.82,0.173,4.099
			c0.617,1.282,1.715,2.388,2.963,3.312c2.54,1.864,5.563,3.093,8.668,3.987c6.24,1.809,12.946,2.237,19.479,4.186
			c1.612,0.455,3.323,1.11,4.793,1.771c1.578,0.737,3.021,1.49,4.539,2.235l4.42,2.394c1.439,0.851,2.909,1.663,4.325,2.547
			c5.722,3.495,11.171,7.196,16.858,10.616c2.72,1.718,5.669,3.024,8.722,4.15c3.052,1.103,6.187,2,9.352,2.644
			c3.159,0.637,6.374,1.037,9.481,0.93c1.546-0.057,3.071-0.254,4.433-0.687c1.365-0.421,2.538-1.092,3.288-1.979
			c0.697-0.824,1.929-0.927,2.753-0.23c0.113,0.096,0.212,0.201,0.298,0.315l0.049,0.065l0.008,0.011
			c1.64,2.25,3.206,4.563,4.687,6.892l2.194,3.446c0.725,1.136,1.467,2.205,2.249,3.217c0.389,0.508,0.808,0.972,1.218,1.451
			c0.449,0.434,0.849,0.917,1.332,1.315c0.469,0.412,0.927,0.836,1.445,1.202c0.495,0.389,1.007,0.761,1.555,1.1
			c0.528,0.358,1.073,0.7,1.648,1.011c0.565,0.321,1.124,0.655,1.709,0.934c0.587,0.291,1.14,0.59,1.753,0.875l1.868,0.848
			c1.169,0.528,2.438,1.038,3.672,1.506c1.246,0.471,2.503,0.907,3.77,1.305c2.532,0.794,5.102,1.441,7.675,1.842
			c2.566,0.395,5.16,0.551,7.575,0.197c2.412-0.348,4.583-1.273,6.022-2.881c0.737-0.823,2.001-0.893,2.825-0.156
			c0.455,0.407,0.679,0.986,0.665,1.552c-0.047,1.567,0.202,3.115,0.757,4.558c0.552,1.444,1.404,2.781,2.479,3.946
			c2.154,2.338,5.151,3.979,8.325,4.771c3.172,0.792,6.583,0.748,9.53-0.364c1.469-0.554,2.807-1.375,3.914-2.437
			c1.11-1.059,1.986-2.357,2.611-3.802c0.439-1.015,1.618-1.481,2.633-1.042c0.4,0.173,0.714,0.461,0.922,0.808l0.002,0.004
			c1.288,2.15,2.625,4.285,4.129,6.083c0.753,0.888,1.546,1.676,2.384,2.226c0.839,0.552,1.728,0.884,2.835,1.087
			c2.215,0.387,4.968,0.487,7.58,0.949c1.323,0.214,2.618,0.488,3.931,0.812c0.675,0.162,1.284,0.333,1.901,0.504l1.873,0.539
			l29.563,8.543l3.695,1.068l1.848,0.534l0.924,0.267l0.462,0.133c0.108,0.021,0.163,0.046,0.28,0.063
			c0.866,0.155,2.117,0.109,3.337,0.026l1.978-0.131l0.24-0.009l0.309-0.003c0.191-0.004,0.397,0.002,0.61,0.016
			c0.428,0.031,0.879,0.069,1.467,0.266c0.288,0.097,0.622,0.25,0.96,0.488c0.344,0.258,0.69,0.619,0.901,1.04
			c0.437,0.863,0.384,1.526,0.379,1.974c-0.071,0.867-0.13,1.358-0.089,1.427c0.013,0.032-0.021-0.055-0.042-0.071
			c-0.017-0.015,0.018,0.014-0.024-0.018c-0.158-0.076,0.284,0.17,0.186,0.114c0.487,0.237,1.003,0.461,1.56,0.661
			c2.225,0.835,4.784,1.321,7.462,2.595c1.524,0.732,2.482,1.698,3.451,2.38c0.989,0.732,2.015,1.436,3.06,2.11
			c2.092,1.348,4.262,2.59,6.483,3.679c2.221,1.084,4.504,2.032,6.799,2.66c2.263,0.623,4.669,0.915,6.402,0.33
			c1.049-0.354,2.187,0.209,2.541,1.258c0.169,0.501,0.129,1.023-0.074,1.47l-0.038,0.082c-0.19,0.416-0.422,0.829-0.582,1.246
			c-0.184,0.417-0.336,0.832-0.464,1.245c-0.121,0.409-0.245,0.824-0.294,1.213c-0.073,0.395-0.1,0.776-0.085,1.123
			c0.004,0.176,0.011,0.348,0.048,0.499c0.015,0.165,0.061,0.307,0.106,0.444c0.084,0.281,0.217,0.511,0.382,0.723
			c0.163,0.212,0.382,0.395,0.638,0.564c0.266,0.161,0.569,0.309,0.92,0.413c0.344,0.111,0.725,0.191,1.125,0.234
			c0.396,0.051,0.814,0.063,1.237,0.053c0.848-0.021,1.725-0.152,2.587-0.367c1.727-0.433,3.406-1.196,4.861-2.211
			c0.907-0.633,2.156-0.411,2.79,0.496c0.323,0.463,0.423,1.015,0.324,1.528l-0.004,0.022c-0.158,0.799-0.271,1.591-0.3,2.353
			c-0.005,0.377,0,0.749,0.036,1.104c0.038,0.354,0.097,0.692,0.182,1.01c0.346,1.273,1.104,2.123,2.337,2.673
			c1.233,0.542,2.832,0.713,4.448,0.634c1.626-0.079,3.297-0.385,4.935-0.832c1.066-0.291,2.166,0.338,2.457,1.404
			c0.109,0.402,0.088,0.808-0.037,1.174l-0.034,0.099c-0.108,0.317-0.253,0.641-0.329,0.947c-0.104,0.314-0.157,0.608-0.214,0.896
			l-0.047,0.408l-0.001,0.362c0.025,0.215,0.049,0.409,0.114,0.55c0.042,0.158,0.144,0.26,0.236,0.393
			c0.126,0.117,0.259,0.251,0.475,0.369c0.406,0.245,0.991,0.454,1.639,0.6c1.31,0.295,2.829,0.39,4.374,0.454
			c1.556,0.066,3.154,0.071,4.869,0.222c1.098,0.096,1.909,1.064,1.813,2.162c-0.023,0.268-0.099,0.518-0.215,0.743l-0.01,0.018
			c-0.445,0.849-0.814,1.75-0.882,2.374c-0.03,0.305,0.001,0.479,0.04,0.546c0.028,0.07,0.104,0.174,0.345,0.335
			c0.497,0.321,1.438,0.607,2.404,0.801c0.489,0.101,1,0.189,1.516,0.271c0.498,0.08,1.048,0.148,1.703,0.273
			c1.254,0.255,2.587,0.714,3.762,1.538c1.185,0.805,2.071,1.925,2.716,2.814c0.663,0.916,1.161,1.527,1.698,1.854
			c0.269,0.173,0.573,0.295,0.931,0.388l0.222,0.05l0.384,0.059l0.101,0.015l0.025,0.004c0.021,0.003-0.121-0.016-0.063-0.009
			h-0.001l-0.006-0.002c-0.021,0.002,0.015,0,0.031,0.001c0.055-0.001,0.143-0.007,0.241-0.017c0.848-0.094,1.947-0.344,3.006-0.565
			c0.54-0.113,1.088-0.229,1.675-0.333c0.295-0.051,0.597-0.101,0.942-0.138c0.179-0.019,0.356-0.035,0.59-0.039
			c0.106-0.004,0.246-0.001,0.399,0.011c0.154-0.005,0.703,0.13,0.632,0.12l0.025,0.008l0.196,0.072l0.035,0.016l0.138,0.066
			c0.088,0.046,0.187,0.096,0.262,0.146c0.148,0.099,0.311,0.213,0.419,0.316c0.25,0.219,0.418,0.428,0.563,0.623
			c0.286,0.395,0.457,0.738,0.606,1.06c0.292,0.642,0.474,1.201,0.654,1.73c0.176,0.522,0.338,1.018,0.503,1.412
			c0.081,0.195,0.165,0.367,0.226,0.468c0.054,0.104,0.108,0.107-0.066-0.018c-0.031-0.021-0.114-0.073-0.176-0.098
			c-0.071-0.031-0.163-0.055-0.089-0.03l0.097,0.034c0.151,0.046-0.192-0.059-0.152-0.047l0.013,0.004l0.024,0.006l0.049,0.013
			l0.392,0.1l0.779,0.195c0.518,0.128,1.03,0.25,1.536,0.356c1.014,0.217,2.004,0.383,2.975,0.459
			c1.938,0.166,3.814-0.09,5.701-0.69c1.053-0.335,2.178,0.246,2.513,1.3c0.152,0.478,0.112,0.977-0.072,1.404
			c-0.268,0.619-0.447,1.229-0.482,1.733c-0.036,0.513,0.049,0.863,0.248,1.197c0.373,0.686,1.595,1.385,2.975,1.829
			c1.392,0.462,2.947,0.771,4.538,1.049c1.597,0.281,3.237,0.511,4.955,0.864c0.854,0.181,1.764,0.395,2.689,0.749
			c1.069,0.438,1.799,0.925,2.564,1.417c1.463,0.989,2.778,2.013,4.093,3c1.309,0.985,2.606,1.948,3.906,2.751
			c0.638,0.41,1.337,0.763,1.822,0.99c0.154,0.068,0.378,0.14,0.564,0.209l0.146,0.052l0.073,0.026l0.018,0.007
			c-0.037-0.013,0.11,0.036-0.079-0.025l0.037,0.011l0.298,0.09l1.193,0.358c3.179,0.953,6.304,1.938,9.427,2.65
			c0.782,0.177,1.566,0.357,2.325,0.485l1.156,0.212l1.228,0.175l0.614,0.087l0.154,0.022c-0.035-0.004,0.063,0.006,0.089,0.008
			l0.255,0.026c0.346,0.025,0.704,0.038,1.071,0.038c0.739-0.003,1.513-0.054,2.324-0.119c1.629-0.104,3.363-0.378,5.489-0.007
			c1.047,0.188,2.253,0.678,3.179,1.54c0.492,0.431,0.923,1.064,1.057,1.239c0.199,0.281,0.426,0.546,0.656,0.808
			c1.877,2.084,4.617,3.508,7.495,4.206c1.074,0.258,1.736,1.337,1.478,2.411c-0.125,0.519-0.448,0.945-0.862,1.215l-72.641,46.8
			l-9.08,5.85c-0.357,0.234-0.803,0.508-1.088,0.711c-0.284,0.191-0.538,0.396-0.752,0.613c-0.431,0.436-0.713,0.895-0.866,1.421
			c-0.308,1.048-0.045,2.505,0.566,3.956c0.602,1.459,1.478,2.916,2.442,4.355c0.951,1.442,2.065,2.863,3.068,4.619
			c0.976,1.707,1.709,3.541,2.277,5.341c0.574,1.802,0.998,3.563,1.512,5.191c0.5,1.614,1.146,3.193,1.911,4.504
			c0.157,0.317,0.466,0.738,0.692,1.102c0.175,0.287,0.453,0.626,0.677,0.93c0.488,0.604,1.017,1.142,1.583,1.594
			c1.162,0.929,2.357,1.367,4.154,1.786c0.464,0.124,0.987,0.256,1.614,0.536c0.614,0.266,1.385,0.801,1.864,1.539
			c0.487,0.729,0.675,1.477,0.757,2.084c0.097,0.636,0.09,1.183,0.075,1.718c-0.047,1.055-0.193,2.012-0.356,2.955l-0.277,1.4
			l-0.146,0.659l-0.073,0.33c-0.026,0.131-0.009,0.097-0.023,0.152c-0.01,0.133-0.011,0.217,0.038,0.344
			c0.056,0.126,0.164,0.298,0.333,0.486c0.365,0.378,0.945,0.777,1.619,1.091c1.346,0.641,2.961,1.055,4.552,1.242
			c0.797,0.094,1.599,0.133,2.355,0.095c0.738-0.035,1.491-0.18,1.857-0.356c0.995-0.482,2.191-0.067,2.673,0.928
			c0.151,0.313,0.214,0.645,0.198,0.969l-0.001,0.015c-0.081,1.533,0.015,3.079,0.329,4.529c0.31,1.441,0.866,2.806,1.651,3.737
			c0.793,0.941,1.69,1.337,2.838,1.281c0.289-0.021,0.589-0.067,0.898-0.139c0.31-0.077,0.626-0.183,0.945-0.305
			c0.64-0.259,1.283-0.609,1.918-1.003l0.015-0.01c0.941-0.583,2.177-0.294,2.761,0.647c0.19,0.307,0.288,0.654,0.3,0.991
			c0.068,2.063,0.568,3.977,1.649,5.588c1.065,1.625,2.688,2.977,4.529,4.199c3.693,2.444,8.156,4.493,11.916,7.955l0.711,0.676
			l0.611,0.629l0.271,0.275c0.072,0.078,0.155,0.14,0.231,0.213c0.157,0.135,0.321,0.258,0.49,0.371
			c0.676,0.45,1.485,0.706,2.416,0.813c1.877,0.214,4.074-0.21,6.4-0.614c1.175-0.197,2.401-0.404,3.768-0.446
			c0.684-0.017,1.413,0.017,2.181,0.162c0.767,0.154,1.591,0.432,2.332,0.925c0.747,0.48,1.367,1.146,1.804,1.84
			c0.445,0.694,0.735,1.409,0.943,2.1c0.41,1.385,0.532,2.696,0.585,3.972l-3.461-1.296c0.56-0.569,1.073-0.796,1.526-0.993
			c0.442-0.17,0.849-0.28,1.235-0.363c0.771-0.165,1.476-0.232,2.171-0.282c1.388-0.096,2.709-0.074,4.025-0.029
			c2.625,0.102,5.193,0.344,7.752,0.627c5.111,0.578,10.165,1.342,15.205,2.154c5.039,0.816,10.058,1.696,15.069,2.582l7.507,1.32
			c2.491,0.424,5.01,0.863,7.436,1.171l-2.111,2.69l-2.062-5.465c-0.39-1.033,0.132-2.188,1.165-2.577
			c0.416-0.157,0.852-0.166,1.249-0.054l0.006,0.002c1.597,0.45,3.158,0.414,4.723-0.148c1.571-0.557,3.119-1.589,4.739-2.738
			c1.632-1.135,3.342-2.464,5.618-3.341c1.145-0.434,2.387-0.697,3.777-0.633l0.539,0.035l0.374,0.054l0.187,0.027l0.28,0.046
			l0.367,0.07l1.455,0.268c1.922,0.331,3.819,0.584,5.61,0.536c1.789-0.04,3.445-0.407,4.692-1.244
			c0.623-0.421,1.161-0.947,1.613-1.586c0.443-0.63,0.814-1.422,1.069-2.151l0.444-1.442c0.17-0.521,0.345-1.043,0.561-1.567
			c0.426-1.046,0.939-2.112,1.768-3.144c0.792-1.019,2.132-2.028,3.673-2.293c1.53-0.28,2.858,0.048,3.948,0.385
			c1.104,0.354,2.052,0.778,2.935,1.116c0.871,0.34,1.692,0.59,2.261,0.601c0.572,0.002,0.793-0.097,1.212-0.491
			c0.095-0.102,0.204-0.23,0.29-0.351c0.044-0.069,0.065-0.083,0.134-0.194l0.165-0.272c0.219-0.39,0.435-0.799,0.65-1.235
			c0.874-1.738,1.697-3.691,3.072-5.589c0.354-0.474,0.741-0.942,1.199-1.387c0.245-0.223,0.439-0.43,0.771-0.669l0.463-0.337
			l0.333-0.201c0.659-0.396,1.123-0.553,1.606-0.77l1.414-0.585c1.857-0.764,3.695-1.519,5.416-2.358
			c0.836-0.414,1.711-0.878,2.273-1.306c0.116-0.091,0.252-0.21,0.235-0.204c0.036-0.038-0.073,0.086-0.103,0.163
			c-0.019,0.034-0.044,0.109-0.043,0.115l0.037-0.087l0.02-0.044c-0.029,0.082,0.09-0.244-0.061,0.174l0.01-0.049l0.023-0.097
			c0.057-0.271,0.082-0.626,0.072-1.011c-0.069-1.596-0.608-3.472-1.24-5.264c-1.299-3.627-3.051-7.211-4.876-10.74
			c-1.839-3.531-3.803-7.02-5.812-10.489l-6.13-10.393c-1.026-1.74-2.054-3.479-3.052-5.282c-0.491-0.884-1.007-1.875-1.432-2.798
			l-1.294-2.729l-20.708-43.671l-0.003-0.005c-0.473-0.997-0.048-2.188,0.949-2.661c0.384-0.182,0.795-0.23,1.185-0.165
			c4.07,0.679,8.136,1.373,12.193,2.098l12.155,2.198c8.095,1.471,16.18,2.928,24.28,4.191c4.051,0.632,8.104,1.225,12.164,1.726
			c2.029,0.274,4.061,0.497,6.094,0.711c2.031,0.237,4.065,0.424,6.102,0.589l3.052,0.263l3.056,0.188l3.056,0.188l3.058,0.109
			c2.039,0.078,4.077,0.146,6.101,0.132c2.028,0.009,4.047,0.039,6.116-0.045l3.085-0.085c0.496-0.017,1.069-0.021,1.502-0.049
			l1.512-0.084c2.021-0.126,4.055-0.3,6.095-0.486c4.08-0.376,8.187-0.801,12.322-1.121c4.136-0.318,8.305-0.547,12.517-0.486
			c4.206,0.075,8.479,0.4,12.722,1.538c2.258,0.593,4.122,1.448,6.038,2.267l5.657,2.458c3.761,1.617,7.531,3.172,11.345,4.545
			c3.809,1.363,7.675,2.584,11.53,3.273c1.918,0.333,3.851,0.52,5.606,0.36c0.864-0.091,1.688-0.265,2.331-0.571
			c0.66-0.298,1.105-0.702,1.434-1.214l0.027-0.041c0.596-0.93,1.832-1.2,2.762-0.604c0.66,0.424,0.987,1.174,0.907,1.905
			c-0.283,2.52,0.978,5.31,2.834,7.613c1.865,2.33,4.31,4.296,6.972,5.748c1.335,0.72,2.733,1.308,4.153,1.704
			c1.416,0.395,2.86,0.593,4.209,0.495c1.352-0.091,2.569-0.505,3.533-1.236c0.972-0.722,1.692-1.804,2.18-3.082l0.003-0.007
			c0.394-1.031,1.549-1.549,2.581-1.155c0.706,0.27,1.172,0.898,1.269,1.598c0.362,2.659,1.573,5.151,3.448,7.117
			c1.854,1.977,4.319,3.453,6.935,4.224c1.305,0.381,2.656,0.579,3.932,0.524c1.271-0.047,2.464-0.381,3.252-0.976
			c0.793-0.584,1.205-1.404,1.297-2.521c0.091-1.111-0.194-2.418-0.654-3.696c-0.375-1.04,0.163-2.186,1.202-2.561
			c0.997-0.359,2.096,0.128,2.514,1.085c1.505,3.468,3.539,6.664,6.159,9.324c2.618,2.662,5.781,4.775,9.22,6.429
			c3.44,1.657,7.136,2.886,10.917,3.913c3.787,1.023,7.661,1.862,11.565,2.704l5.854,1.276c1.83,0.411,3.678,0.608,5.571,0.661
			c1.893,0.054,3.86-0.062,5.947-0.054c2.081,0.002,4.278,0.182,6.39,0.687c1.054,0.256,2.082,0.552,3.129,0.946
			c1.106,0.386,1.829,0.743,2.889,1.204c1.808,0.841,3.563,1.665,5.239,2.14c0.822,0.23,1.635,0.354,2.205,0.29
			c0.575-0.099,0.763-0.191,1.02-0.576c0.264-0.381,0.456-1.133,0.527-1.94c0.074-0.819,0.047-1.721-0.025-2.632l-0.002-0.025
			c-0.087-1.099,0.733-2.06,1.832-2.146c0.397-0.031,0.775,0.056,1.102,0.231c4.086,2.195,8.077,4.345,12.236,5.96
			c2.072,0.802,4.177,1.467,6.273,1.853c2.089,0.384,4.187,0.472,6.032,0.018l0.021-0.005c0.499-0.123,1.005-0.041,1.423,0.189
			c1.54,0.854,2.906,1.739,4.299,2.61c1.383,0.872,2.753,1.733,4.132,2.563c2.756,1.656,5.552,3.209,8.419,4.397
			c1.43,0.59,2.881,1.08,4.311,1.38c1.424,0.296,2.843,0.399,4.049,0.138c1.213-0.25,2.175-0.843,2.931-1.8
			c0.76-0.952,1.279-2.26,1.623-3.661l0.002-0.004l0.053-0.174c0.319-1.037,1.418-1.62,2.455-1.301
			c0.318,0.098,0.6,0.275,0.819,0.496c1.837,1.855,3.954,3.468,6.299,4.781c2.359,1.291,4.88,2.383,7.489,3.343
			c2.619,0.96,5.277,1.851,7.976,2.865l1.972,0.759c0.638,0.235,1.289,0.459,1.941,0.673c1.309,0.423,2.627,0.827,3.96,1.147
			c2.66,0.629,5.377,1.11,7.951,1.12c1.27-0.013,2.53-0.108,3.465-0.476c0.948-0.355,1.341-0.909,1.458-1.489
			c0.055-0.326,0.012-0.929-0.095-1.515c-0.103-0.597-0.262-1.226-0.444-1.856c-0.364-1.264-0.835-2.544-1.337-3.814
			c-1.019-2.544-2.192-5.064-3.428-7.558c-2.454-5-5.154-9.909-7.994-14.733c-2.855-4.815-5.831-9.568-9.035-14.147
			c-1.612-2.28-3.273-4.524-5.026-6.666c-1.742-2.11-3.703-4.174-5.569-6.263c-3.803-4.138-7.666-8.218-11.6-12.229
			c-7.853-8.037-15.966-15.826-24.225-23.45l-6.225-5.702c-2.088-1.909-4.146-3.766-6.285-5.562
			c-4.272-3.593-8.739-6.979-13.271-10.29c-9.067-6.623-18.427-12.917-27.402-19.842c-2.249-1.732-4.477-3.534-6.618-5.337
			c-2.188-1.849-4.284-3.694-6.419-5.535c-4.251-3.679-8.529-7.298-12.954-10.707c-4.423-3.402-8.987-6.615-13.797-9.322
			c-2.403-1.352-4.872-2.568-7.409-3.54c-2.524-0.958-5.158-1.741-7.735-2.011l-1.051-0.106l-0.291-0.035
			c-0.12-0.016-0.247-0.028-0.36-0.05c-0.218-0.049-0.449-0.093-0.654-0.152c-0.832-0.234-1.554-0.544-2.239-0.877
			c-1.369-0.669-2.612-1.424-3.827-2.198c-2.425-1.549-4.722-3.186-7.04-4.738c-2.306-1.524-4.655-3.099-6.986-4.006l-7.899-2.884
			l-15.97-5.604l-7.931-2.941c-2.601-0.981-5.222-1.896-7.877-2.681c-5.305-1.583-10.72-2.732-16.213-3.309
			c-5.495-0.574-11.049-0.656-16.627-0.474c-5.585,0.186-11.171,0.594-16.808,0.968c-5.649,0.369-11.308,0.606-16.974,0.692
			c-11.327,0.163-22.693-0.235-33.995-1.711c-1.412-0.193-2.821-0.372-4.242-0.616c-1.428-0.221-2.835-0.459-4.206-0.732
			c-2.831-0.499-5.61-1.196-8.355-1.875c-5.498-1.39-10.949-2.921-16.367-4.604c-5.414-1.696-10.797-3.522-16.09-5.734
			c-2.646-1.116-5.27-2.316-7.834-3.811c-1.28-0.753-2.548-1.576-3.771-2.639c-0.608-0.537-1.212-1.13-1.76-1.908
			c-0.27-0.398-0.532-0.824-0.732-1.35l-0.146-0.4c-0.048-0.177-0.09-0.356-0.125-0.537l-0.047-0.271l-0.012-0.132L563.92,126.038z"
			/>
	</g>
	<path fill="#A89187" d="M464.988,116.746c-5.136,10.005-14.925,23.104-14.128,34.65c-32.983-20.951-64.306-44.559-92.193-72.084
		c-14.159-13.976-28.716-25.956-46.813-34.381c-16.165-7.525-36.649-4.498-53.939-4.498c3.878-1.875,19.589-12.575,23.272-11.795
		c9.029,1.911,19.744,2.577,28.25,6.144c20.103,8.425,33.972,17.81,52.077,29.571C395.236,86.262,427.35,102.57,464.988,116.746z"/>
	<path fill="#A89187" d="M459.007,208.425c-2.636,7.908-3.167,30.404-9.9,33.104c-0.011-3.297-2.002-6.606-1.959-9.9
		c-4.457,4.732-10.481,4.132-16.088,1.753c9.029-9.405,21.288-17.544,27.947-28.874C459.007,205.813,459.007,207.12,459.007,208.425
		z"/>
	<path fill="#A89187" stroke="#A89187" stroke-width="0.929" stroke-linejoin="round" d="M400.845,176.971
		c7.129,16.27,19.362,35.264,22.274,52.904c-12.894-4.559-12.367-7.439-17.118-19.646
		C401.92,199.746,400.534,188.265,400.845,176.971z"/>
	<path fill="#A89187" stroke="#A89187" stroke-width="0.929" stroke-linejoin="round" d="M383.004,169.444
		c6.323,16.072,10.425,34.252,20.006,48.468c-26.925,2.629-21.169-33.578-24.027-50.737
		C380.323,167.932,381.663,168.688,383.004,169.444z"/>
	<path fill="#A89187" stroke="#A89187" stroke-width="0.929" stroke-linejoin="round" d="M368.876,167.175
		c3.079,12.315,11.072,30.632,10.106,43.003c-19.456-2.15-17.92-53.638-16.294-68.27
		C364.751,150.331,366.813,158.753,368.876,167.175z"/>
	<path fill="#A89187" stroke="#A89187" stroke-width="0.929" stroke-linejoin="round" d="M354.747,151.396
		c0,17.865,7.265,36.079,5.981,53.11c-15.185-5.624-12.554-51.949-8.25-64.661C353.235,143.696,353.991,147.546,354.747,151.396z"/>
	<path fill="#A89187" stroke="#A89187" stroke-width="0.929" stroke-linejoin="round" d="M338.66,153.769
		c1.242,7.689,2.166,14.657,2.166,22.428c0,6.887,5.703,11.945,1.546,18.41c-15.28-2.759-6.76-41.423-5.671-52.698
		C337.354,145.862,338.008,149.815,338.66,153.769z"/>
	<path fill="#A89187" stroke="#A89187" stroke-width="0.929" stroke-linejoin="round" d="M330.514,139.846
		c-1.084,14.373-2.214,28.682-3.816,43.005C320.741,170.844,327.503,152.212,330.514,139.846z"/>
	<path fill="#A89187" stroke="#A89187" stroke-width="0.929" stroke-linejoin="round" d="M320.51,145.827
		c-0.978,7.931,1.999,25.949-3.919,31.144c-13.414-12.048-2.031-33.497,5.981-44.858
		C321.885,136.684,321.197,141.256,320.51,145.827z"/>
	<path fill="#A89187" stroke="#A89187" stroke-width="0.929" stroke-linejoin="round" d="M296.482,124.275
		c-8.287,13.708-8.354,21.579-8.354,37.434C274.561,158.979,282.366,121.511,296.482,124.275z"/>
	<path fill="#A89187" stroke="#A89187" stroke-width="0.929" stroke-linejoin="round" d="M270.289,108.807
		c-7.471,10.768-17.463,23.488-10.106,37.021C238.978,150.085,253.776,109.894,270.289,108.807z"/>
	<path fill="#A89187" stroke="#A89187" stroke-width="0.929" stroke-linejoin="round" d="M254.201,103.031
		c-4.879,8.213-8.086,13.014-8.921,22.43c-0.436,4.908,1.354,23.767-9.127,16.447C222.015,132.035,246.714,109.005,254.201,103.031z
		"/>
	<path fill="#A89187" stroke="#A89187" stroke-width="0.929" stroke-linejoin="round" d="M264.102,81.478
		c-12.002,7.834-24.004,15.668-36.006,23.502c-9.532,6.222-16.299,15.806-26.18,21.46c3.473,3.886,6.944,7.77,10.417,11.654
		C229.346,118.796,248.549,101.984,264.102,81.478z"/>
	<path fill="#A89187" stroke="#A89187" stroke-width="0.929" stroke-linejoin="round" d="M226.151,53.84
		c-37.48,5.654-87.544,3.037-110.447,37.537C152.155,77.491,188.362,63.514,226.151,53.84z"/>
	<path fill="#A89187" stroke="#A89187" stroke-width="0.929" stroke-linejoin="round" d="M233.885,71.476
		c-33.024,17.333-61.938,32.049-98.071,41.043c22.214,8.587,32.854,8.18,52.232-5.723C204.133,95.254,221.076,86.686,233.885,71.476
		z"/>
	<path fill="#A89187" stroke="#A89187" stroke-width="0.929" stroke-linejoin="round" d="M232.133,61.575
		c-22.444,7.331-44.888,14.663-67.332,21.994c-7.593,2.48-15.174,4.996-22.758,7.503c-8.554,2.828-18.503,1.498-26.339,5.771
		c6.317,7.713,9.718,13.993,19.741,9.379c12.416-5.715,23.491-10.218,36.662-13.762C191.971,87.116,213.525,70.878,232.133,61.575z"
		/>
	<path fill="#A89187" stroke="#A89187" stroke-width="0.929" stroke-linejoin="round" d="M240.278,42.188
		c-32.812,3.088-67.633,2.24-98.587,13.921C174.329,62.784,208.03,49.257,240.278,42.188z"/>
	<path fill="#A89187" stroke="#A89187" stroke-width="0.929" stroke-linejoin="round" d="M256.366,28.471
		c-36.339,3.582-79.107,1.703-112.612,17.738C182.335,42.873,218.404,36.349,256.366,28.471z"/>
	<path fill="#A89187" d="M575.848,145.827c18.485,7.228,35.804,15.882,55.842,15.882c20.628,0,41.23-1.259,61.837-2.144
		c21.64-0.929,32.721,1.463,51.601,12.611c17.254,10.187,36.513,14.212,53.471,24.595c-22.348,0-40.446-11.289-59.698-21.674
		c-19.468-10.502-31.093-3.386-51.374-0.956c-41.094,4.925-81.806,3.975-121.99,14.689
		C568.974,174.497,572.41,160.162,575.848,145.827z"/>
	<path fill="#A89187" stroke="#A89187" stroke-width="0.929" stroke-linejoin="round" d="M822.832,223.894
		c12.16,12.72,31.23,26.321,37.95,43.003C848.974,259.407,819.503,240.684,822.832,223.894z"/>
	<path fill="#A89187" stroke="#A89187" stroke-width="0.929" stroke-linejoin="round" d="M806.538,223.894
		c19.388,22.139,38.775,44.276,58.162,66.413c-13.759,8.348-19.7-8.554-26.726-19.122
		C827.496,255.421,817.017,239.657,806.538,223.894z"/>
	<path fill="#A89187" stroke="#A89187" stroke-width="0.929" stroke-linejoin="round" d="M812.52,245.24
		c9.6,13.777,19.2,27.554,28.801,41.331c5.789,8.31,27.297,20.654,25.442,29.104c-15.469-9.668-23.231-15.341-33.38-30.385
		C825.11,273.026,819.319,258.389,812.52,245.24z"/>
	<path fill="#A89187" stroke="#A89187" stroke-width="0.929" stroke-linejoin="round" d="M796.432,243.693
		c17.982,31.122,30.491,63.05,66.31,75.9c-14.333,5.946-14.159,5.612-26.907-3.123c-9.188-6.295-14.211-12.697-21.123-21.592
		C801.521,277.909,798.809,264.854,796.432,243.693z"/>
	<path fill="#A89187" stroke="#A89187" stroke-width="0.929" stroke-linejoin="round" d="M778.488,243.693
		c12.036,32.742,24.719,58.78,52.078,81.676c-8.998-3.229-22.598-5.616-28.855-13.143c-7.178-8.632-11.689-18.604-16.385-28.771
		c-10.194-22.069-14.535-45.102-25.091-67.296C766.319,225.338,772.403,234.516,778.488,243.693z"/>
	<path fill="#A89187" stroke="#A89187" stroke-width="0.929" stroke-linejoin="round" d="M752.294,225.646
		c10.491,25.298,19.638,51.664,31.969,76.106c-5.185-0.435-5.742,3.231-4.228,8.354c-12.154-7.446-13.094-27.762-16.859-40.779
		C759.002,254.9,755.757,240.259,752.294,225.646z"/>
	<path fill="#A89187" stroke="#A89187" stroke-width="0.929" stroke-linejoin="round" d="M744.147,227.916
		c2.894,12.647,23.015,66.985,12.065,73.837C740.63,280.163,745.095,254.196,744.147,227.916z"/>
	<path fill="#A89187" stroke="#A89187" stroke-width="0.929" stroke-linejoin="round" d="M736.413,237.609
		c1.993,16.81,3.988,33.619,5.981,50.428c-10.875-5.821-10.24-5.142-9.114-17.123C734.325,259.812,735.369,248.712,736.413,237.609z
		"/>
	<path fill="#A89187" stroke="#A89187" stroke-width="0.929" stroke-linejoin="round" d="M724.244,221.729
		c1.775,10.943,3.815,21.454,3.815,32.534c0,10.977-4.807,21.101-3.815,32.228C712.87,279.559,723.396,234.226,724.244,221.729z"/>
	<path fill="#A89187" stroke="#A89187" stroke-width="0.929" stroke-linejoin="round" d="M715.892,245.24
		c-1.311,10.443,0.37,27.181-7.734,35.063C698.876,273.181,712.503,253.697,715.892,245.24z"/>
	<path fill="#A89187" stroke="#A89187" stroke-width="0.929" stroke-linejoin="round" d="M709.91,241.528
		c-3.361,11.088-6.684,22.178-9.9,33.31c-1.73-0.248-4.559-1.162-5.981-2.166C698.688,261.233,702.979,251.699,709.91,241.528z"/>
	<path fill="#A89187" stroke="#A89187" stroke-width="0.929" stroke-linejoin="round" d="M692.069,249.263
		c-4.006,8.49-7.905,29.497-20.315,25.575C678.526,266.313,685.299,257.788,692.069,249.263z"/>
	<path fill="#A89187" stroke="#A89187" stroke-width="0.929" stroke-linejoin="round" d="M677.941,253.182
		c-4.501,6.949-10.195,24.017-20.213,21.656C664.467,267.619,671.204,260.4,677.941,253.182z"/>
	<path fill="#A89187" stroke="#A89187" stroke-width="0.929" stroke-linejoin="round" d="M659.895,255.45
		c-4.107,8.045-6.911,21.87-18.047,21.347C646.64,270.356,652.634,257.743,659.895,255.45z"/>
	<path fill="#A89187" stroke="#A89187" stroke-width="0.929" stroke-linejoin="round" d="M645.767,255.45
		c-4.116,7.013-7.106,17.621-15.882,19.388C635.18,268.376,640.473,261.913,645.767,255.45z"/>
	<path fill="#A89187" stroke="#A89187" stroke-width="0.929" stroke-linejoin="round" d="M637.825,255.45
		c-5.251,6.25-12.707,21.356-22.068,19.388C621.771,268.083,628.03,256.313,637.825,255.45z"/>
	<path fill="#A89187" stroke="#A89187" stroke-width="0.929" stroke-linejoin="round" d="M621.532,255.45
		c-5.81,6.553-11.861,19.738-21.863,13.2C606.957,264.251,614.245,259.851,621.532,255.45z"/>
	<path fill="#A89187" stroke="#A89187" stroke-width="0.929" stroke-linejoin="round" d="M601.731,256.997
		c-6.735,4.554-13.454,11.862-22.274,9.899C586.882,263.597,594.307,260.297,601.731,256.997z"/>
	<path fill="#A89187" stroke="#A89187" stroke-width="0.929" stroke-linejoin="round" d="M579.457,259.162
		c-7.891,5.102-12.347,8.98-22.069,7.734C564.745,264.318,572.101,261.74,579.457,259.162z"/>
	<path fill="#A89187" d="M558.178,202.074c-4.731,16.764,12.371,16.769,21.941,23.988c11.393,8.598-2.604,23.114-13.32,25.414
		c-5.054,1.084-12.82-0.901-18.047-1.27c-10.049-0.706-7.166-3.883-3.751-12.083C549.922,226.309,555.142,214.742,558.178,202.074z"
		/>
	<path fill="#A89187" d="M463.028,336.609c-15.108-8.862-9.371-27.098-5.724-41.436c4.766-18.734,10.185-37.113,15.83-55.605
		c-2.089,17.646-4.106,35.242-5.659,52.942c-1.403,15.997,7.77,29.698-0.528,46.471C465.421,338.548,464.041,337.42,463.028,336.609
		z"/>
	<path fill="#A89187" d="M521.397,292.06c-11.342,12.99-18.567,24.436-23.137,41.158c-1.965,7.18-4.849,33.387-16.772,28.545
		c-9.124-3.706-10.106-6.08-13.738-15.111c-2.128-5.29,8.073-14.031,9.613-19.323c2.706-9.304-3.649-35.132,3.712-39.291
		c0,4.069-3.29,43.026,9.05,32.989C501.725,311.589,508.973,300.449,521.397,292.06z"/>
	<path fill="#A89187" stroke="#A89187" stroke-width="0.929" stroke-linejoin="round" d="M537.278,321.76
		c9.42,15.605,18.838,31.211,28.257,46.818C547.989,376.356,541.45,333.753,537.278,321.76z"/>
	<path fill="#A89187" stroke="#A89187" stroke-width="0.929" stroke-linejoin="round" d="M527.379,340.94
		c3.3,15.022,6.6,30.044,9.899,45.065C522.348,390.534,527.808,350.773,527.379,340.94z"/>
	<path fill="#A89187" stroke="#A89187" stroke-width="0.929" stroke-linejoin="round" d="M517.479,358.369
		c0,11.171,0,22.344,0,33.516c-2.133,0.12-6.271-0.924-8.146-1.96C512.049,379.406,514.764,368.888,517.479,358.369z"/>
	<path fill="#A89187" stroke="#A89187" stroke-width="0.929" stroke-linejoin="round" d="M501.392,360.638
		c-2.164,8.476-3.513,34.81-14.129,33.103C491.973,382.706,496.683,371.672,501.392,360.638z"/>
	<path fill="#A89187" stroke="#A89187" stroke-width="0.929" stroke-linejoin="round" d="M452.819,352.903
		c-4.709,11.034-9.419,22.068-14.128,33.103c-2.585-4.416-9.046-10.368-5.368-13.977
		C439.821,365.655,446.321,359.279,452.819,352.903z"/>
	<path fill="#A89187" stroke="#A89187" stroke-width="0.929" stroke-linejoin="round" d="M445.085,296.185
		c-13.372,20.212-26.743,40.425-40.115,60.638C404.97,332.063,429.4,314.489,445.085,296.185z"/>
	<path fill="#A89187" stroke="#A89187" stroke-width="0.929" stroke-linejoin="round" d="M442.919,329.494
		c-7.287,13.612-14.575,27.225-21.862,40.837C413.917,356.312,435.03,339.72,442.919,329.494z"/>
	<path fill="#A89187" stroke="#A89187" stroke-width="0.929" stroke-linejoin="round" d="M433.02,286.49
		c-7.713,10.257-15.426,20.513-23.138,30.768c-1.703,2.264-17.433,29.498-23.166,17.805c-1.694-3.458,10.228-19.991,13.73-22.768
		C411.305,303.693,422.161,295.092,433.02,286.49z"/>
	<path fill="#A89187" stroke="#A89187" stroke-width="0.929" stroke-linejoin="round" d="M421.057,282.572
		c-5.204,5.056-37.561,40.782-41.095,33.154C374.399,303.721,412.884,287.577,421.057,282.572z"/>
	<path d="M39.598,42.188c46.713-23.356,107.444-21.082,158.399-27.329c-3.552,7.687-22.063,7.17-30.008,7.941
		c6.015,0,12.03,0,18.046,0c-12.686,4.404-23.271,8.077-34.34,15.676c-14.161,9.721-18.623,10.105-35.991,10.105
		c10.072,3.094,20.144,6.188,30.216,9.281c-17.944,1.375-36.234,4.063-54.243,3.713c6.356,9.911,35.191,2.766,45.89,2.269
		c-9.368,3.001-18.98,7.632-28.874,7.632c-8.955,0-23.701-3.736-29.391,4.227c13.557,1.922,26.718,1.754,40.425,1.754
		c-1.165,0.418-26.694,6.44-26.298,5.775c-5.489,9.213,17.706,8.146,20.316,8.146C96.67,110.06,57.598,77.536,42.467,69.97
		c-5.876-2.938-31.435-0.328-31.435-10.4C11.032,48.626,29.704,43.531,39.598,42.188z"/>
	<path d="M834.485,212.24C923.001,268.333,968.334,342.667,963.334,349s-23.327-3.88-32.752-7.307
		c-3.292-1.197-4.354-6.049-7.616-6.631c-0.08-0.015-8.044,5.938-10.632,5.938c-6.986,0-19.295-13.443-23.348-9.599
		c-4.652,1.932-18.806-3.354-24.286-8.095c2.139,1.884,5.629,2.638,8.147,4.021c4.017-6.847-1.757-10.209-6.085-15.469
		c8.83,5.002,17.858,12.038,28.153,13.51c-3.892-13.389-34.134-18.413-34.134-29.133c0-5.521,29.074,18.739,36.196,17.376
		c-7.313-11.558-20.209-20.193-30.216-29.287c6.636,1.756,13.247,4.385,20.213,3.712c-1.69-9.614-16.715-14.687-24.234-19.387
		c21.408-3.001-14.252-30.992-20.006-37.022c2.536,0.432,5.308-0.464,7.837,0c-7.437-7.056-14.755-14.165-21.966-21.45
		C830.547,210.858,832.622,211.375,834.485,212.24z"/>
	<path stroke="#000000" stroke-width="0.929" stroke-linejoin="round" d="M503.763,298.247c-2.52,6.872-9.316,42.8-17.84,41.25
		c-8.245-1.5,6.121-14.227,6.754-17.995C493.924,314.083,497.118,302.554,503.763,298.247z"/>
	<path stroke="#000000" stroke-width="0.929" stroke-linejoin="round" d="M488.81,294.638c-3.837,9.167-5.329,26.6-13.199,32.896
		c-2.566-1.817-5.969-5.338-7.734-7.94C480.707,313.681,480.474,305.364,488.81,294.638z"/>
	<path d="M496.367,59.982c-0.089,9.377,15.499,10.67,23.622,9.391c7.981-1.259,18.579,8.586,9.396,14.215
		c-3.725,2.283-5.547-1.02-8.251-1.784c-1.062-0.3-2.349-4.828-2.29-5.858c0.189-3.313-4.767-0.369-6.712-1.577
		c-7.803-4.852-17.768-8.143-24.801-12.874C491.512,62.8,493.273,60.383,496.367,59.982z"/>
	<g>
		<path d="M465.25,190.5c0,0-0.045-0.279-0.13-0.803c-0.077-0.523-0.229-1.291-0.334-2.271c-0.208-1.96-0.607-4.767-0.772-8.157
			c-0.085-1.695-0.173-3.535-0.15-5.483c0-1.948,0.025-4.009,0.181-6.135c0.143-2.126,0.316-4.331,0.633-6.556
			c0.331-2.224,0.711-4.48,1.198-6.723c0.538-2.23,1.129-4.452,1.855-6.603c0.681-2.164,1.574-4.223,2.49-6.186
			c0.883-1.979,1.981-3.782,3.039-5.462c0.558-0.825,1.094-1.63,1.659-2.375c0.599-0.724,1.128-1.452,1.72-2.088
			c1.126-1.316,2.286-2.406,3.348-3.316c0.539-0.443,1.043-0.858,1.51-1.243c0.488-0.353,0.936-0.677,1.341-0.97
			c0.395-0.301,0.766-0.545,1.111-0.729c0.334-0.194,0.618-0.359,0.849-0.493c0.458-0.266,0.703-0.407,0.703-0.407
			s-0.181,0.226-0.519,0.649c-0.335,0.422-0.858,0.996-1.448,1.786c-0.297,0.387-0.625,0.815-0.983,1.281
			c-0.325,0.494-0.702,0.994-1.087,1.539c-0.75,1.108-1.538,2.381-2.355,3.772c-0.802,1.404-1.565,2.972-2.366,4.615
			c-0.357,0.85-0.771,1.687-1.097,2.598c-0.167,0.452-0.349,0.901-0.546,1.347c-0.173,0.459-0.347,0.922-0.523,1.39
			c-0.37,0.923-0.651,1.909-0.985,2.877c-0.144,0.495-0.288,0.994-0.433,1.494c-0.169,0.491-0.321,0.993-0.465,1.5
			c-0.619,2.01-1.103,4.108-1.561,6.211c-0.517,2.092-0.938,4.218-1.313,6.323c-0.323,2.114-0.785,4.184-1.061,6.222
			c-0.309,2.042-0.607,4.017-0.89,5.89c-0.25,1.883-0.524,3.673-0.773,5.332c-0.211,1.66-0.467,3.188-0.675,4.547
			c-0.189,1.359-0.412,2.55-0.576,3.531c-0.148,0.98-0.34,1.757-0.434,2.285C465.306,190.218,465.25,190.5,465.25,190.5z"/>
	</g>
	<path fill="#A89187" stroke="#A89187" stroke-width="0.929" stroke-linejoin="round" d="M233.885,83.231
		c-19.02,15.216-39.492,37.283-64.144,41.044c4.122,1.77,13.998,8.504,18.254,7.837c4.794-0.751,14.321-11.837,17.943-15.366
		C216.408,106.546,225.321,95.005,233.885,83.231z"/>
	<path fill="#A89187" stroke="#A89187" stroke-width="0.929" stroke-linejoin="round" d="M284.622,118.5
		c-7.693,12.389-12.168,18.51-12.168,32.896C251.423,151.808,276.431,103.137,284.622,118.5z"/>
	<path fill="#A89187" stroke="#A89187" stroke-width="0.929" stroke-linejoin="round" d="M308.651,130.152
		c-6.568,13.879-6.394,24.109-6.394,39.292C288.054,163.61,296.166,133.068,308.651,130.152z"/>
</g>
<g>
	<path d="M564,134c0,0,0.316,2.215,0.522,6.126c0.079,1.953,0.21,4.333,0.182,7.058c-0.008,1.364-0.016,2.816-0.024,4.347
		c-0.026,1.531-0.127,3.135-0.192,4.814c-0.108,3.363-0.497,6.978-0.824,10.82c-0.2,1.916-0.487,3.872-0.736,5.881
		c-0.251,2.008-0.526,4.058-0.908,6.125c-0.709,4.144-1.447,8.432-2.489,12.726c-0.509,2.149-0.938,4.337-1.521,6.496
		c-0.598,2.155-1.198,4.318-1.798,6.48c-1.15,4.342-2.685,8.568-4.096,12.755c-0.359,1.044-0.718,2.084-1.074,3.119
		c-0.409,1.016-0.816,2.027-1.221,3.032c-0.814,2.006-1.619,3.988-2.411,5.938c-0.4,0.972-0.797,1.936-1.19,2.89
		c-0.443,0.934-0.882,1.859-1.316,2.773c-0.878,1.824-1.737,3.607-2.573,5.344c-0.872,1.719-1.617,3.437-2.521,5.011
		c-0.896,1.577-1.76,3.1-2.589,4.563c-1.696,2.901-3.167,5.599-4.688,7.866c-1.505,2.277-2.869,4.227-3.979,5.835
		c-1.101,1.613-2.012,2.851-2.611,3.705C525.327,268.549,525,269,525,269s0.225-0.513,0.646-1.475
		c0.436-0.952,1.043-2.365,1.875-4.124c0.822-1.765,1.806-3.911,2.992-6.332c0.618-1.197,1.131-2.547,1.722-3.941
		c0.594-1.391,1.219-2.854,1.87-4.379c0.663-1.517,1.353-3.097,2.067-4.731c0.729-1.626,1.33-3.377,2.031-5.137
		c0.692-1.762,1.404-3.571,2.132-5.421c0.367-0.922,0.739-1.854,1.114-2.794c0.333-0.958,0.67-1.925,1.009-2.899
		c0.688-1.943,1.386-3.92,2.094-5.921c0.356-0.998,0.715-2.003,1.076-3.013c0.324-1.022,0.649-2.05,0.977-3.081
		c1.254-4.143,2.749-8.278,3.842-12.54c0.604-2.113,1.21-4.226,1.812-6.33c0.574-2.112,1.079-4.234,1.618-6.331
		c0.266-1.049,0.53-2.094,0.794-3.134c0.276-1.037,0.543-2.071,0.758-3.11c0.467-2.071,0.927-4.117,1.38-6.129
		c0.495-2.006,0.85-4.003,1.251-5.95c0.394-1.95,0.778-3.857,1.152-5.714c0.629-3.732,1.363-7.253,1.835-10.53
		c0.265-1.638,0.52-3.207,0.761-4.699c0.218-1.498,0.424-2.918,0.618-4.253c0.371-2.674,0.668-5.013,0.911-6.943
		c0.204-1.931,0.417-3.451,0.503-4.49C563.943,134.556,564,134,564,134z"/>
</g>
<path fill="#FFFFFF" d="M526.667,76.236c-0.126,0-0.126,0.195,0,0.195S526.793,76.236,526.667,76.236z"/>
<path fill="#FFFFFF" d="M527.667,72.947c-1.79,0-1.79,2.773,0,2.773S529.457,72.947,527.667,72.947z"/>
</svg>
