<?xml version="1.0" encoding="iso-8859-1"?>
<!-- Generator: Adobe Illustrator 16.0.0, SVG Export Plug-In . SVG Version: 6.00 Build 0)  -->
<!DOCTYPE svg PUBLIC "-//W3C//DTD SVG 1.1//EN" "http://www.w3.org/Graphics/SVG/1.1/DTD/svg11.dtd">
<svg version="1.1" id="Capa_1" xmlns="http://www.w3.org/2000/svg" xmlns:xlink="http://www.w3.org/1999/xlink" x="0px" y="0px"
	 width="579.324px" height="579.324px" viewBox="0 0 579.324 579.324" style="enable-background:new 0 0 579.324 579.324;"
	 xml:space="preserve">
<g>
	<g>
		<path d="M549.813,513.458c-2.718-1.673-5.598-3.174-8.568-4.325c-6.287-2.436-10.607-6.87-12.183-13.211
			c-2.306-9.298-9.511-13.402-17.319-14.423c-15.015-1.958-24.387-11.938-32.388-22.391c-5.969-7.801-8.225-18.511-4.524-28.988
			c0.853-2.42,0.922-4.37-0.053-7.197c-1.225-3.537,0.139-8.025,0.587-12.081c4.398-39.788,20.09-75.35,40.902-108.984
			c1.967-3.179,3.934-6.353,5.92-9.515c5.104-8.132,7.205-16.912,8.405-26.553c2.537-20.392,3.301-41.069,9.51-60.988
			c6.418-20.587,5.953-41.571,2.199-62.771c-1.938-10.951-1.497-22.306-2.632-33.428c-2.595-25.512-8.556-50.171-21.008-72.799
			c-5.549-10.082-12.027-19.669-18.413-29.266c-2.631-3.954-5.744-8.131-11.726-5.928c-3.146,1.159-7.332,9.167-7.074,13.517
			c0.073,1.232,0.685,2.48,0.555,3.667c-0.273,2.497-0.865,4.958-1.339,7.434c-0.705,3.708-1.632,7.393-2.068,11.13
			c-0.403,3.456-0.302,6.977-0.392,10.469c-0.102,4.076-0.399,8.164-0.191,12.224c0.343,6.74,0.783,13.199-2.587,19.698
			c-1.819,3.513-0.8,8.401-1.616,12.558c-0.86,4.386-2.477,8.617-3.598,12.954c-1.689,6.512-3.55,13.003-4.77,19.608
			c-2.13,11.493-3.484,23.138-5.794,34.594c-3.016,14.961-6.736,29.78-9.968,44.701c-1.383,6.385-2.179,12.897-3.48,19.302
			c-0.448,2.208-1.709,4.239-2.443,6.402c-1.261,3.725-2.42,7.482-3.562,11.244c-0.2,0.661,0.089,1.51-0.192,2.109
			c-3.7,7.826-7.479,15.61-11.203,23.423c-2.024,4.243-3.999,8.515-5.957,12.787c-0.367,0.8-0.478,1.718-0.853,2.514
			c-7.891,16.613-16.304,33.007-23.579,49.886c-8.029,18.63-13.468,37.997-15.858,58.377c-2.44,20.767-6.512,41.358-10.388,61.931
			c-1.191,6.319-3.934,12.378-6.275,18.433c-1.51,3.909-7.05,5.994-11.366,4.986c-22.864-5.337-45.807-11.106-69.381-10.698
			c-14.117,0.245-28.156,3.762-42.269,5.517c-42.702,5.304-85.395,10.665-128.137,15.614c-30.114,3.488-60.29,4.137-90.409-0.367
			c-1.579-0.237-3.182-0.327-4.782-0.372c-0.461-0.012-0.934,0.363-2.57,1.062c2.293,1.619,3.692,3.276,5.402,3.708
			c7.556,1.897,15.178,3.57,22.824,5.08c6.401,1.265,13.007,1.685,19.286,3.37c14.451,3.884,28.813,2.342,43.317,0.661
			c12.105-1.403,24.284-2.518,36.455-2.84c4.61-0.122,9.221,2.767,13.95,3.492c5.145,0.792,10.428,0.779,15.655,0.914
			c5.969,0.155,11.946,0.049,17.915,0.118c6.385,0.078,12.901-0.559,19.119,0.522c10.069,1.755,19.951,4.627,29.894,7.083
			c9.918,2.452,19.809,5.03,29.739,7.45c7.005,1.709,14.051,3.271,21.094,4.818c0.999,0.22,2.289,0.363,3.121-0.073
			c3.848-2.028,5.973-0.616,6.846,3.859c4.464-1.351,8.491-2.57,12.521-3.79c0.311,0.469,0.625,0.938,0.935,1.407
			c-17.083,11.461-33.86,23.415-51.334,34.243c-17.593,10.898-37.679,15.672-57.997,19.466c0.094,0.849,0.188,1.697,0.282,2.55
			c4.533,0.678,9.266,2.538,13.554,1.8c10.518-1.812,20.824-4.839,31.224-7.34c2.077-0.498,3.819-1.502,5.912,1.154
			c1.13,1.437,4.982,1.167,7.548,0.951c6.369-0.539,12.685-1.73,19.053-2.184c4.003-0.285,8.07,0.294,12.109,0.462
			c1.575,0.064,3.533,0.689,4.676,0c9.486-5.757,20.054-3.599,30.07-3.733c16.136-0.217,32.325,0.689,48.438,1.844
			c15.729,1.126,30.575-1.669,44.908-7.838c19.131-8.237,38.67-15.043,59.05-19.706c11.424-2.615,22.913-5.463,32.787-13.085
			c8.841-6.821,19.4-6.977,29.951-3.125c5.247,1.918,10.641,3.436,17.066,5.483C560.613,523.201,556.391,517.497,549.813,513.458z"
			/>
	</g>
</g>
<g>
</g>
<g>
</g>
<g>
</g>
<g>
</g>
<g>
</g>
<g>
</g>
<g>
</g>
<g>
</g>
<g>
</g>
<g>
</g>
<g>
</g>
<g>
</g>
<g>
</g>
<g>
</g>
<g>
</g>
</svg>
