<svg id="Layer_1" enable-background="new 0 0 512 512" height="512" viewBox="0 0 512 512" width="512" xmlns="http://www.w3.org/2000/svg"><g><path d="m256 11c-135.31 0-245 109.69-245 245 0 19.692 2.338 38.835 6.726 57.182l1.821 1h472.907l1.821-1c4.387-18.347 6.725-37.49 6.725-57.182 0-135.31-109.69-245-245-245z" fill="#98f9ff"/><path d="m345.847 123.675h-39.945v26.325h39.945c7.269 0 13.162-5.893 13.162-13.162 0-7.27-5.893-13.163-13.162-13.163z" fill="#e7f9fb"/><path d="m326.234 59.188c0 7.269 5.893 13.162 13.162 13.162h59.019c7.269 0 13.162 5.893 13.162 13.162s-5.893 13.162-13.162 13.162h-7.643c-7.269 0-13.162 5.893-13.162 13.162s5.893 13.164 13.162 13.164h72.287c-20.404-32.183-48.099-59.283-80.769-78.975h-42.894c-7.269 0-13.162 5.893-13.162 13.163z" fill="#e7f9fb"/><g><path d="m166.084 107.65h-5.073c.053.925.086 1.856.086 2.795v23.53h4.987c7.269 0 13.162-5.893 13.162-13.162s-5.893-13.163-13.162-13.163z" fill="#d8ecfe"/><path d="m190.604 55h-74.698c-3.346 2.336-6.622 4.764-9.843 7.26 1.491-.199 3.001-.332 4.528-.39.634-.024 1.266-.036 1.895-.036 15.891 0 30.024 7.665 38.9 19.491h39.219c7.269 0 13.162-5.893 13.162-13.162s-5.894-13.163-13.163-13.163z" fill="#e7f9fb"/></g><g><g fill="#bb5d4c"><path d="m262.913 191.076 31.085 10.561c3.917-4.489 8.234-8.589 12.904-12.233v-16.125h-61.749l-4.282 12.764c7.459.906 14.835 2.584 22.042 5.033z"/><path d="m506.999 229.213h-8.429c-7.074 12.021-16.768 22.288-28.533 30.122-15.391 10.248-33.252 15.665-51.648 15.665-.001 0 0 0-.002 0-7.262 0-14.478-.87-21.551-2.562-1.757 14.609-6.223 28.791-13.154 41.743h84.237c25.378-17.823 42.417-46.716 44.074-79.671.145-2.874-2.116-5.297-4.994-5.297z"/></g><path d="m221.888 98.956c.054-1.13.165-2.246.309-3.352l-51.24 19.755c-2.805 1.082-4.656 3.778-4.656 6.784 0 4.016 3.255 7.271 7.271 7.271h59.326c-7.385-8.085-11.563-18.963-11.01-30.458z" fill="#fac600"/><path d="m187 122.144c0-3.007 1.85-5.703 4.656-6.784l29.294-11.294c-.118-1.695-.145-3.414-.061-5.157.047-.975.138-1.938.25-2.896l-50.183 19.348c-2.805 1.082-4.656 3.778-4.656 6.784 0 4.016 3.255 7.271 7.271 7.271h20.699c-4.015-.001-7.27-3.256-7.27-7.272z" fill="#e8b800"/><path d="m262.193 58.032c-22.133.841-40.24 18.752-41.304 40.876-.965 20.077 11.836 37.315 29.781 43.093 2.458.791 3.838 3.389 3.017 5.838l-6.412 19.115h59.628v-65.922c-.001-24.323-20.18-43.932-44.71-43z" fill="#00a763"/><path d="m253.686 147.838-4.262 12.706h16.476l6.61-19.706c.821-2.448-.558-5.046-3.017-5.838-17.944-5.777-30.746-23.015-29.781-43.093.671-13.952 8.123-26.223 19.085-33.6-20.562 2.438-36.901 19.619-37.909 40.6-.965 20.077 11.836 37.315 29.781 43.093 2.459.792 3.839 3.39 3.017 5.838z" fill="#009884"/><path d="m244.818 174.278-3.622 10.799c5.154.636 10.316 1.647 15.455 3.046l4.644-13.845z" fill="#a44f3e"/><path d="m502.612 210.487-108.186-36.754c-37.36-12.692-77.157-.562-101.474 27.548l95.177 32.335c1.112.378 2.032 1.206 2.525 2.271.488 1.056.523 2.227.1 3.297-2.558 6.458-5.75 12.682-9.485 18.498l-.989 1.541h13.018c1.187 0 2.292.473 3.112 1.331.804.841 1.218 1.939 1.167 3.091-.148 3.285-.448 6.554-.867 9.804 44.986 10.701 91.503-13.102 108.922-56.32 1.077-2.677-.288-5.714-3.02-6.642z" fill="#a44f3e"/><circle cx="254.076" cy="97.491" fill="#554e56" r="9.035"/><path d="m249.424 160.545-4.606 13.733h62.084v-13.733z" fill="#fff"/><path d="m244.818 174.278h16.476l4.607-13.733h-16.477z" fill="#eaf6ff"/><ellipse cx="210.35" cy="110.284" fill="#fe9901" rx="4.578" ry="3.433" transform="matrix(.948 -.317 .317 .948 -24.109 72.351)"/></g><path d="m494.274 313.182h-476.548c25.758 107.725 122.656 187.818 238.274 187.818s212.516-80.093 238.274-187.818z" fill="#26a6fe"/><g fill="#0182fc"><path d="m319.178 449h39.645c6.173 0 11.178-5.004 11.178-11.178 0-6.173-5.004-11.178-11.178-11.178h-39.645c-6.173 0-11.178 5.004-11.178 11.178 0 6.174 5.004 11.178 11.178 11.178z"/><path d="m65.822 363h-30.253c3.737 7.685 7.864 15.145 12.355 22.355h17.898c6.173 0 11.178-5.004 11.178-11.178 0-6.173-5.004-11.177-11.178-11.177z"/><path d="m386.822 327h-11.098c-5.926 8.308-12.898 15.832-20.715 22.355h31.813c6.173 0 11.178-5.004 11.178-11.178 0-6.173-5.004-11.177-11.178-11.177z"/><path d="m135.479 413.289h50.119c6.173 0 11.178 5.004 11.178 11.178s-5.004 11.178-11.178 11.178h-6.49c-6.173 0-11.178 5.004-11.178 11.178 0 6.173 5.004 11.178 11.178 11.178h66.714c6.173 0 11.178-5.004 11.178-11.178 0-6.173-5.004-11.178-11.178-11.178h-9.384c-6.173 0-11.178-5.004-11.178-11.178s5.004-11.178 11.178-11.178h40.384c6.173 0 11.178-5.004 11.178-11.178 0-6.173-5.004-11.178-11.178-11.178h-141.343c-6.173 0-11.178 5.004-11.178 11.178.001 6.174 5.005 11.178 11.178 11.178z"/></g><g><path d="m380.302 384.112c0 6.173 5.004 11.178 11.178 11.178h66.073c4.972-7.182 9.567-14.644 13.763-22.355h-79.836c-6.174-.001-11.178 5.003-11.178 11.177z" fill="#0182fc"/></g><g><path d="m393.296 258.222h-12.388c-7.836 12.05-18.032 22.425-30.166 30.553-17.827 11.942-38.536 18.255-59.883 18.255-.001 0 .001 0 0 0-11.734 0-23.371-1.932-34.587-5.743l-125.248-43.307c-1.122-.388-2.012-1.196-2.507-2.275-.484-1.054-.517-2.221-.095-3.288 7.316-18.463 19.321-33.956 34.36-45.402-.228.054-.459.105-.686.16v-13.341h-71.222l-27.257 81.259c-3.238 7.776-4.966 15.914-4.966 24.297 0 23.63 13.671 45.327 36.484 62.368 2.704 2.02 6.01 3.077 9.385 3.077h224.91c2.687 0 5.334-.674 7.682-1.98 35.236-19.591 59.541-56.463 61.462-99.164.134-2.988-2.289-5.469-5.278-5.469z" fill="#d88a55"/><path d="m90 299.389c0-8.383 1.728-16.521 4.966-24.297l26.903-80.203h-31.349l-26.903 80.203c-3.238 7.776-4.966 15.914-4.966 24.297 0 23.63 13.671 45.327 36.484 62.368 2.704 2.02 6.01 3.077 9.385 3.077h31.348c-3.375 0-6.681-1.057-9.385-3.077-22.812-17.041-36.483-38.738-36.483-62.368z" fill="#c57a44"/><path d="m63.933 108.043c.061-1.279.186-2.542.347-3.795l-58.913 22.714c-3.234 1.247-5.367 4.356-5.367 7.822 0 4.63 3.753 8.383 8.383 8.383h68.187c-8.481-9.341-13.274-21.878-12.637-35.124z" fill="#fac600"/><path d="m62.933 107.996c.054-1.124.16-2.235.289-3.339l-57.855 22.305c-3.234 1.247-5.367 4.356-5.367 7.822 0 4.63 3.753 8.383 8.383 8.383h14.729c-1.31-1.479-2.112-3.418-2.112-5.55 0-3.466 2.133-6.575 5.367-7.822l36.784-14.182c-.258-2.49-.342-5.032-.218-7.617z" fill="#e8b800"/><path d="m97.267 157.676c2.834.913 4.425 3.908 3.478 6.73l-5.268 15.704h66.62v-69.667c0-28.041-23.264-50.649-51.545-49.574-25.517.969-46.393 21.619-47.619 47.125-1.112 23.148 13.646 43.022 34.334 49.682z" fill="#00a763"/><path d="m100.745 164.407-4.914 14.649h31.126l4.914-14.649c.947-2.823-.644-5.818-3.478-6.73-20.688-6.66-35.446-26.534-34.334-49.681.999-20.787 15.051-38.345 34.028-44.656-5.484-1.815-11.39-2.703-17.535-2.469-25.517.969-46.393 21.619-47.619 47.125-1.113 23.147 13.646 43.021 34.334 49.681 2.834.912 4.425 3.907 3.478 6.73z" fill="#009884"/><path d="m388.45 232.669-125.216-42.54c-55.002-18.686-114.594 8.544-135.742 61.92-1.099 2.773.387 5.902 3.205 6.876l125.252 43.31c54.994 18.683 114.576-9.277 135.733-62.683 1.103-2.782-.397-5.92-3.232-6.883z" fill="#f6a96c"/><path d="m312.821 297.204-125.252-43.31c-2.819-.975-4.304-4.103-3.205-6.876 11.637-29.37 34.915-50.819 62.662-61.063-50.068-8.937-100.45 17.932-119.533 66.094-1.099 2.773.387 5.902 3.205 6.876l125.252 43.31c24.536 8.336 49.983 7.38 72.526-.972-5.235-.949-10.465-2.296-15.655-4.059z" fill="#ea9b58"/><circle cx="101.194" cy="106.362" fill="#554e56" r="10.416"/><path d="m95.831 179.056-5.311 15.833h71.577v-15.833z" fill="#fff"/><path d="m95.831 179.056-5.311 15.833h31.48l5.311-15.833z" fill="#eaf6ff"/><ellipse cx="50.783" cy="121.111" fill="#fe9901" rx="5.278" ry="3.958" transform="matrix(.948 -.317 .317 .948 -35.766 22.338)"/></g></g></svg>