<?xml version="1.0" encoding="UTF-8" standalone="no"?>
<!-- Created with Inkscape (http://www.inkscape.org/) -->
<svg xmlns:rdf="http://www.w3.org/1999/02/22-rdf-syntax-ns#" xmlns="http://www.w3.org/2000/svg" xmlns:cc="http://web.resource.org/cc/" xmlns:dc="http://purl.org/dc/elements/1.1/" xmlns:svg="http://www.w3.org/2000/svg" xmlns:inkscape="http://www.inkscape.org/namespaces/inkscape" xmlns:sodipodi="http://sodipodi.sourceforge.net/DTD/sodipodi-0.dtd" xmlns:ns1="http://sozi.baierouge.fr" xmlns:xlink="http://www.w3.org/1999/xlink" id="svg2" viewBox="0 0 284.13 262.5" version="1.0" inkscape:version="0.91 r13725">
  <path id="path2343" style="fill:#000000" d="m-134.49 293.7c0-0.71 3.34-0.84 10.25-0.4 6.57 0.42 16.17 0.11 26.749-0.88 9.075-0.85 21.737-1.97 28.137-2.49 8.476-0.69 12.55-1.48 15-2.91 3.495-2.05 13.01-3 30.613-3.07l8.25-0.03v-4.5-4.5l-3.75-0.09c-7.984-0.2-13.207 0.34-25.75 2.66-14.732 2.73-14.81 2.74-14.088 1.57 0.291-0.47 2.681-1.13 5.309-1.47 5.183-0.66 7.165-1.03 14.779-2.76 5.182-1.17 23.621-2.77 24.5-2.12 0.275 0.21 0.658 4.39 0.85 9.29 0.192 4.91 0.751 8.92 1.243 8.92 0.504 0 0.796-9.48 0.671-21.75-0.122-11.96 0.108-24.3 0.511-27.41 1.033-7.97 4.2293-17.77 9.325-28.61 2.4072-5.11 4.2696-9.73 4.1386-10.27-0.1311-0.53 2.6214-3.55 6.1165-6.71l6.3549-5.75-5.8549 0.08c-7.259 0.1-10.996-0.89-14.015-3.73-3.681-3.46-2.7303-4.4 1.0718-1.06 3.1837 2.79 3.9685 3 11.75 3.07 6.7801 0.07 8.7591-0.27 10.588-1.8 1.238-1.03 2.25-2.24 2.25-2.67s-0.54-0.25-1.2 0.41-3.743 1.2-6.852 1.2c-6.3069 0-12.191-3.02-12.741-6.53-0.29253-1.87-0.21971-1.87 1.4929 0.16 2.3808 2.81 6.9947 5.68 8.0653 5.02 0.469-0.29 3.4448-0.64 6.6118-0.76 5.397-0.22 5.991-0.5 9.441-4.44 3.623-4.14 17.291-28.56 18.716-33.45 1.097-3.76 8.187-17.61 12.56-24.53 7.166-11.35 9.137-17.36 9.062-27.658-0.042-5.878-2.276-11.823-4.431-11.796-0.801 0.01-0.72 0.335 0.236 0.939 1.249 0.79 1.191 1.22-0.405 2.984-1.026 1.134-2.643 2.061-3.594 2.061-2 0-3.306-3.631-1.606-4.463 0.63-0.307 0.209-0.391-0.935-0.186-2.636 0.473-4.834-1.224-5.222-4.03-0.228-1.655 0.562-2.588 3.286-3.88 5.204-2.47 3.665-2.837-1.786-0.426-5.829 2.579-10.699 6.641-10.699 8.925 0 3.198-2.004 7.585-3.92 8.581-1.037 0.539-7.02 4.619-13.295 9.069-11.499 8.15-15.977 10.41-20.605 10.41-1.3873 0-3.279 0.69-4.204 1.52-0.925 0.84-4.3354 2.02-7.5787 2.63-8.1953 1.53-14.818 4.23-19.723 8.06-2.295 1.79-3.499 2.4-2.674 1.35s3.525-3.22 6-4.83c5.627-3.66 2.302-2.82-7.998 2.01-9.677 4.55-25.53 15.26-22.574 15.26 0.443 0-0.843 1.82-2.857 4.05-4.927 5.46-6.429 8.79-4.514 10.02 0.978 0.63 0.458 0.74-1.616 0.34-2.796-0.53-3.209-0.25-4.808 3.3-0.962 2.13-1.855 4.6-1.984 5.48-0.13 0.89-0.814 2.3-1.519 3.15-2.224 2.68-1.016 6.12 2.284 6.49l2.913 0.33-2.913 2.39c-3.233 2.64-1.35 3.49 2.211 1 1.138-0.8 2.925-1.4 3.972-1.34s3.883-0.23 6.304-0.66c3.938-0.69 4.33-0.59 3.732 0.97-0.578 1.5-0.229 1.65 2.588 1.09 1.79-0.36 5.849-2 9.018-3.65 7.051-3.67 7.744-2.36 0.761 1.44-2.75 1.5-5 2.92-5 3.15 0 0.69 10.136-3.49 14.925-6.15 2.762-1.53 4.662-2.07 5.058-1.43 0.389 0.63 4.102-0.68 9.576-3.38 9.0768-4.47 13.79-6.27 25.426-9.68 3.567-1.05 8.63-3.24 11.25-4.86 5.596-3.48 6.518-2.46 1.015 1.13-4.249 2.76-8.235 4.4-13.071 5.35-5.1214 1.02-15.436 6.01-17.804 8.63-1.169 1.29-2.667 3.39-3.331 4.68-0.663 1.28-1.46 2.08-1.771 1.77s0.632-2.38 2.095-4.59 2.407-4.02 2.097-4.02c-1.267 0-6.202 2.98-7.473 4.51-0.749 0.9-4.654 3.45-8.677 5.66-4.023 2.2-7.315 4.16-7.315 4.35 0 1.33 13.114-4.42 14.3-6.27 0.44-0.69 1.258-1.25 1.818-1.25s0.092 1.3-1.041 2.89c-1.567 2.2-2.122 4.72-2.318 10.5-0.265 7.78-1.759 10.85-1.759 3.61 0-2.2-0.188-4-0.418-4-1.777 0-3.304 1.42-3.031 2.82 1.295 6.63 1.643 7.23 5.214 9.09l3.735 1.95-5.613-0.56c-3.087-0.3-5.865-0.14-6.172 0.35-0.312 0.51 2.724 0.96 6.863 1.02 7.471 0.11 8.426-0.27 6.222-2.47-0.66-0.66-0.772-1.19-0.25-1.18 1.339 0.02 3.196 1.3 3.605 2.48 0.19 0.55 1.47 1.04 2.845 1.08 1.375 0.05 5.2003 0.21 8.5003 0.37 5.767 0.27 5.8485 0.31 2.0995 1.03-2.1452 0.42-4.8452 0.58-6 0.38-1.1547-0.21-1.5406-0.12-0.8575 0.21 0.8436 0.4 0.9463 1.14 0.3201 2.31-0.5071 0.95-1.4249 7.33-2.0397 14.17-1.1417 12.72-3.3337 22.94-5.6557 26.37-0.899 1.34-1.116 3.8-0.704 8 0.445 4.55 0.306 5.81-0.554 5.01-0.631-0.59-1.234-3.98-1.34-7.54-0.149-5.05 0.271-7.23 1.911-9.93 2.627-4.32 4.186-11.63 4.979-23.36 0.339-5 0.9892-9.83 1.4456-10.72 0.6739-1.32 0.1315-1.74-2.8876-2.21-2.044-0.32-5.359-1-7.366-1.5-3.449-0.86-4.11-0.59-12 4.98-14.163 10.01-20.372 16.14-23.924 23.66-5.006 10.58-11.917 32.47-10.717 33.93 0.72 0.88 0.557 1.41-0.559 1.84-1.554 0.6-3.267 4.11-2.814 5.78 0.129 0.47-0.192 1.37-0.713 2-1.755 2.12-4.939 11.64-4.074 12.17 0.472 0.29 2.1 0.22 3.618-0.16 2.486-0.62 2.565-0.77 0.796-1.46-1.852-0.73-1.839-0.77 0.227-0.84 1.205-0.04 2.486 0.41 2.846 0.99 0.421 0.68 2.682 0.81 6.309 0.38 3.11-0.38 5.342-0.36 4.961 0.04-1.405 1.5-16.054 2.51-44.636 3.1-28.99 0.59-45.83 2.05-45.5 3.95 0.09 0.53-2.05 1.07-4.75 1.18-2.71 0.12-4.92 0.07-4.92-0.11 0-0.79 11.15-3.68 18-4.66 22.03-3.18 35.82-4.05 39.518-2.5 2.618 1.11 18.651 0.66 20.119-0.55 0.631-0.53 1.698-2.4 2.372-4.17s1.812-4.57 2.53-6.22c1.725-3.96 2.953-9.2 1.937-8.25-0.442 0.41-1.619 3.06-2.616 5.89-2.002 5.68-2.537 6.52-3.54 5.51-0.374-0.37 0.076-2.26 1-4.2 0.924-1.93 1.679-4.6 1.679-5.92 0-1.33 0.421-2.67 0.935-2.99 1.502-0.93 4.219-11.48 3.521-13.68-0.384-1.21-0.066-2.47 0.799-3.18 1.256-1.03 2.603-5.16 6.811-20.89 0.747-2.8 2.449-4.84 6.876-8.24 3.235-2.49 6.484-5.89 7.22-7.55 0.735-1.66 2.021-3.24 2.857-3.51 1.713-0.54 5.612-7.19 4.733-8.07-0.536-0.54-8.073 0.43-32.58 4.18-5.68 0.87-14.68 3.12-20 4.99-15.181 5.36-20.861 6.62-23.241 5.15-3.28-2.04-1.84-4.85 5.48-10.71l6.92-5.53-3.42-0.5c-7.17-1.05-3.62-7.44 6.45-11.61 2.494-1.03 4.73-2.55 4.972-3.38s0.806-2.41 1.253-3.5c0.498-1.22-1.871 0.24-6.105 3.75-7.26 6.03-8.48 6.65-8.48 4.32 0-1.35 9.716-10.58 11.138-10.58 6.593-3.55 14.442-13.28 19.854-20.38l6.507-6.91 1-2.89 2-2.03c5.265-5.96 11.381-9.43 18.059-13.42 8.71-4.89 17.475-9.15 26.988-11.96 9.107-2.79 27.913-7.69 31.453-8.18 3.389-0.48 8.716-3.85 23.621-14.921 6.139-4.562 7.204-5.814 7.727-9.081 0.549-3.435 5.68-10.045 7.902-10.181 0.413-0.026 1.11-0.047 1.549-0.047 0.44 0 0.622-1.523 0.404-3.386-0.217-1.862 0.132-4.371 0.776-5.574 0.644-1.204 1.354-4.517 1.577-7.364 0.861-10.981 1.666-16.004 2.783-17.377 3.123-2.388 4.133-7.198 7.734-8.546 2.801-1.048 8.305 0.436 8.305 0.436 4.568 0.24 8.939 0.958 9.714 1.595 4.293 3.533 6.607 6.072 8.296 9.105 1.039 1.863 2.716 4.215 3.728 5.227 1.98 1.98 1.55 4.884-0.723 4.884-0.766 0-1.393 0.45-1.393 1 0 1.002 1.372 1.388 3.792 1.065 1.053-0.14 1.055 0.208 0.01 1.882-0.714 1.142-2.345 2.053-3.677 2.053-2.374 0-2.37 0.019 0.49 2.157 1.587 1.187 7.033 6.226 12.106 11.199 5.07 4.973 9.44 8.814 9.72 8.536 0.28-0.277-0.83-1.969-2.47-3.76-1.63-1.79-2.97-3.567-2.97-3.949s-1.58-2.007-3.5-3.612c-1.93-1.605-3.501-3.74-3.501-4.744 0-1.005-0.45-1.827-1-1.827s-1-0.707-1-1.571c0-1.397 0.167-1.405 1.5-0.071 0.825 0.825 1.501 1.934 1.501 2.464s0.67 1.223 1.5 1.54c0.82 0.317 1.5 1.265 1.5 2.107s0.45 1.531 1 1.531c1.06 0 5 3.603 5 4.572 0 0.314 0.63 1.206 1.41 1.982s1.61 1.981 1.86 2.679c0.25 0.697 0.8 0.949 1.22 0.56 0.8-0.744-3.6-7.267-11.12-16.504-2.47-3.029-13.463-14.308-11.8-13.665 0.405 0.157 0.688-0.37 0.848-0.14 0.159 0.229 10.642 11.166 13.672 15.016 6.44 8.171 15.08 21.412 19.68 30.14 6.63 12.6 4.18 11.42-13.93-6.734-18.224-18.266-22.651-20.904-35.091-20.905-7.55-0.001-7.75 0.062-7.75 2.44 0 1.343-0.45 2.72-1 3.059-0.55 0.34-1 1.569-1 2.731 0 1.161-0.665 2.847-1.478 3.746-1.311 1.448-1.251 2.058 0.529 5.379 4.799 8.955 2.587 20.854-6.844 36.804-3.361 5.69-8.2 14.84-10.755 20.34-4.432 9.54-8.577 17.86-14.329 28.74-3.455 6.54-13.249 17.91-21.331 24.76-3.5665 3.03-7.088 6.85-7.8253 8.5s-3.6787 7.95-6.5365 14c-7.2304 15.31-7.9385 19.56-7.885 47.36 0.0418 21.76 0.1755 23.46 1.9411 24.75 2.0329 1.49 9.4197 1.7 13.514 0.39 2.1238-0.68 1.8604-0.82-1.75-0.9-5.8931-0.14-5.371-2.1 0.5589-2.1 5.4294 0 9.7078 2.29 7.2688 3.9-3.0114 1.98-41.13 3.33-51.578 1.82-12.347-1.77-10.621-3.41 4.157-3.93 4.486-0.16 7.947 0.04 7.691 0.46-0.256 0.41-3.252 0.8-6.657 0.85-4.614 0.07-5.554 0.3-3.691 0.9 3.084 0.99 14.192 1.19 19.25 0.36 3.318-0.55 3.75-0.95 3.75-3.49 0-2.08-0.481-2.86-1.75-2.83-0.962 0.02-8.987 0.44-17.832 0.93-13.48 0.75-16.656 1.24-19.627 2.99-2.802 1.65-6.347 2.3-16.918 3.06-7.355 0.54-17.873 1.41-23.373 1.94-13.459 1.31-39.499 1.19-39.499-0.18zm29.18-8.64c-1.21-0.78-6.18-0.39-6.18 0.48 0 0.21 1.69 0.37 3.75 0.37 2.39-0.01 3.27-0.32 2.43-0.85zm37.973-29.15c0.909-2.74 1.333-4.99 0.941-4.99s-1.432 2.25-2.312 5c-0.879 2.75-1.303 5-0.941 4.99 0.362 0 1.402-2.25 2.312-5zm6.798-20.49c3.509-9.36 4.899-11.78 9.303-16.25 5.986-6.07 5.607-6.76-0.959-1.75-2.521 1.93-4.931 3.5-5.357 3.5-0.906 0-2.859 5.45-5.818 16.23-3.829 13.95-2.82 13.34 2.831-1.73zm19.548-26.89c1.1-0.85 1.55-1.56 1-1.57-0.55-0.02-2.35 1.12-4 2.52-3.072 2.61-0.605 1.82 3-0.95zm-72.999 1.39c0.34-0.55 0.17-1-0.38-1s-1.28 0.45-1.62 1-0.17 1 0.38 1 1.28-0.45 1.62-1zm21.274-11.66c4.551-2.39 9.362-4.34 10.691-4.34s2.707-0.47 3.063-1.05c1.144-1.85-9.662 0.18-11.677 2.2-1.019 1.02-2.312 1.85-2.875 1.85-1.574 0-16.776 9.04-18.206 10.83-0.7 0.87 1.43 0.07 4.73-1.78 3.3-1.86 9.723-5.32 14.274-7.71zm-2.041 6.91c4.271-2.06 7.991-3.97 8.266-4.25 1.468-1.47 14.907-6.82 17.331-6.9 1.557-0.05 3.582-0.53 4.5-1.06 1.239-0.73 0.333-0.99-3.521-1.01-4.562-0.03-7.106 0.96-21 8.1-17.589 9.05-17.289 8.87-14.989 8.87 0.9 0 5.141-1.69 9.413-3.75zm4.766-6.5c1.258-1.34-12.639 6.15-13.999 7.54-0.55 0.57 2.15-0.66 5.999-2.72 3.85-2.07 7.45-4.23 8-4.82zm53.542 4.6c2.199-1.45 3.774-2.87 3.499-3.14-0.523-0.52-8.541 4.46-8.541 5.3 0 0.93 1.065 0.48 5.042-2.16zm-55.53-9.16c-0.513-0.53-18.311 8.68-19.031 9.85-0.38 0.6 3.82-1.3 9.33-4.22 5.501-2.93 9.868-5.46 9.701-5.63zm54.488 5.75c0-0.58-0.45-0.78-1-0.44s-1 0.82-1 1.06 0.45 0.44 1 0.44 1-0.48 1-1.06zm-24.413-2.93c2.798-0.99 6.489-2.51 8.201-3.4 3.938-2.04 5.32-2.02 2.712 0.03-1.942 1.52-1.927 1.55 0.5 0.84 1.375-0.4 4.075-1.6 6-2.65l3.5-1.92-3 0.56c-1.65 0.31-5.7 0.7-9 0.87-5.734 0.29-13.383 3.11-12.055 4.44 0.347 0.35-0.848 1.47-2.657 2.49-3.375 1.9-2.938 1.81 5.799-1.26zm10.156 0.41c4.212-0.87 9.35-2.45 11.418-3.5 4.307-2.2 4.839-2.3 4.839-0.92 0 0.55-0.675 1-1.5 1s-1.5 0.4-1.5 0.89c0 0.52 1.752 0.5 4.168-0.04 2.292-0.51 4.727-0.72 5.411-0.46 0.938 0.36 1.027-0.28 0.364-2.59-0.485-1.69-1.02-3.21-1.189-3.38-0.682-0.68-9.326 1.79-10.741 3.07-2.071 1.87-6.224 3.46-14.513 5.54-8.863 2.23-6.84 2.47 3.243 0.39zm-34.25-0.41c0.351-0.56-0.051-0.73-0.941-0.39-1.732 0.66-2.049 1.38-0.611 1.38 0.518 0 1.216-0.44 1.552-0.99zm-13.993-1.01c0.34-0.55 0.168-1-0.379-1-0.55 0-1.28 0.45-1.62 1s-0.17 1 0.38 1 1.28-0.45 1.619-1zm52-10.43c10.691-2.99 25.306-9.1 24.271-10.13-0.233-0.24-2.28 0.47-4.549 1.57-2.269 1.09-4.615 1.99-5.213 1.99-0.599 0-2.758 0.83-4.799 1.84-2.04 1.02-5.96 2.43-8.71 3.15s-5.427 1.69-5.95 2.16c-1.242 1.11-0.95 1.08 4.95-0.58zm3-4.03c1.65-0.76 2.325-1.39 1.5-1.41s-2.85 0.58-4.5 1.33c-1.65 0.76-2.325 1.39-1.5 1.41s2.85-0.58 4.5-1.33zm-43.128-1.07c2.546-0.38 4.628-1.1 4.628-1.58 0-0.49-0.337-0.78-0.75-0.64-0.412 0.14-0.862-0.09-1-0.5-0.79-2.37 0.248-4.34 4.552-8.65 2.643-2.64 6.207-7.74 7.927-11.34 1.719-3.6 3.982-7.16 5.028-7.9 2.377-1.7 5.798-6.86 4.546-6.86-0.51 0-4.355 3.16-8.544 7.02-8.262 7.61-16.166 17.42-18.511 22.98-0.812 1.93-2.414 4.82-3.561 6.43-1.599 2.25-1.719 2.8-0.513 2.33 0.864-0.33 3.653-0.91 6.198-1.29zm24.447-3.95c0.283-0.29-0.264-0.52-1.217-0.52-2.323 0-11.602 4.04-11.602 5.05 0 0.74 11.668-3.38 12.819-4.53zm-0.157 3.8c2.936-0.93 5.338-2.08 5.338-2.57 0-1.02-2.565-0.3-8.392 2.34-5.132 2.33-3.908 2.42 3.054 0.23zm37.477-0.4c1.299-1.14 1.797-1.79 1.108-1.43-5.729 2.91-6.589 3.5-5.108 3.5 0.902 0.01 2.702-0.92 4-2.07zm-18.889-1.57c1.513-0.77 2.75-1.62 2.75-1.89 0-0.57-6.179 1.93-8.74 3.53-1.473 0.93-1.352 1 0.74 0.43 1.375-0.37 3.738-1.3 5.25-2.07zm-32.797 0.49c1.401-0.64 2.547-1.55 2.547-2.03 0-0.47-1.35-0.16-3 0.69-4.499 2.33-4.127 3.43 0.453 1.34zm25.547-0.9c0-0.58-0.45-0.78-1-0.44s-1 0.82-1 1.06 0.45 0.44 1 0.44 1-0.48 1-1.06zm-25.689-4.94c0.514 0 0.374 0.68-0.311 1.5-1.548 1.87-0.012 1.96 2.461 0.15 1.276-0.93 1.489-1.56 0.691-2.06-0.634-0.39-1.164-1.92-1.179-3.4l-0.027-2.69-3.473 3.74c-3.953 4.25-5.035 8.29-1.284 4.8 1.204-1.12 2.609-2.04 3.122-2.04zm45.594 1.11c3.099-1.61 4.931-3.09 4.293-3.49-1.252-0.77-11.198 4.1-11.198 5.49 0 1.34 1.003 1.05 6.905-2zm-32.405-32.11c0.782-1.27-0.541-1.27-2.5 0-1.292 0.84-1.266 0.97 0.191 0.99 0.93 0 1.969-0.44 2.309-0.99zm185.25-52.442c-0.96-0.703-1.75-1.791-1.75-2.418s-0.45-1.14-1-1.14-1 0.309-1 0.686c0 1.188 4.31 5.334 4.92 4.729 0.32-0.318-0.21-1.153-1.17-1.857zm-4.75-4.558c0-0.55-0.48-1-1.06-1s-0.78 0.45-0.44 1 0.82 1 1.06 1 0.44-0.45 0.44-1zm1.18-3.216c-0.71-0.718-1.18-0.777-1.18-0.15 0 1.335 1.18 2.517 1.85 1.85 0.28-0.284-0.02-1.049-0.67-1.7zm-59.993-2.467c-0.722-0.289-1.585-0.253-1.917 0.079-0.332 0.333 0.258 0.569 1.313 0.525 1.165-0.048 1.402-0.284 0.604-0.604zm8.202-2.889c0.421-1.097 0.1-1.475-1.06-1.25-0.915 0.177-1.851 0.885-2.08 1.572-0.612 1.839 2.43 1.526 3.14-0.322zm-4.524-6.96c0.257-0.257-0.08-0.468-0.749-0.468-1.429 0-7.117 2.829-7.117 3.54 0 0.504 7.037-2.243 7.866-3.072zm6.322-3.151c-0.722-0.289-1.585-0.253-1.917 0.079-0.332 0.333 0.258 0.569 1.313 0.525 1.165-0.048 1.402-0.284 0.604-0.604zm21.812-1.317c0-0.55-0.476-1-1.059-1-0.582 0-0.781 0.45-0.441 1s0.817 1 1.059 1c0.243 0 0.441-0.45 0.441-1zm-29.75-1.986c0.963-0.007 1.75-0.464 1.75-1.014 0-1.467-3.129-1.155-6 0.599l-2.5 1.527 2.5-0.549c1.375-0.302 3.288-0.555 4.25-0.563zm2.75-4.216c1.009-0.625 0.219-0.755-2.413-0.399-2.153 0.291-4.389 1.004-4.969 1.584-1.275 1.274 5.046 0.259 7.382-1.185zm5.417-1.441c0.918-2.392 0.356-2.552-5.044-1.443-4.074 0.837-4.258 0.959-1.123 0.744 2.541-0.173 3.75 0.163 3.75 1.043 0 1.848 1.667 1.611 2.417-0.344zm8.026-1.293c1.698-1.876 1.639-1.958-1.892-2.62-4.349-0.816-5.085-0.31-3.597 2.471 1.394 2.604 3.222 2.654 5.489 0.149zm-14.526-1.632c2.904-0.862 5.118-1.73 4.919-1.929-0.594-0.594-10.258 1.635-11.286 2.603-1.386 1.306 0.305 1.127 6.367-0.674zm20.265-4.265c-1.475-0.184-3.393-0.972-4.263-1.752-0.87-0.781-1.873-1.127-2.23-0.769-0.358 0.357 1.012 1.888 3.043 3.402 3.357 2.504 3.804 2.604 4.912 1.103 1.046-1.416 0.838-1.698-1.462-1.984zm-15.603 0.318c3.078-1.096 3.399-1.406 1.492-1.441-2.373-0.043-7.568 1.344-11.571 3.088-3.2 1.394 5.562-0.037 10.079-1.647zm3.609 0.832c-0.722-0.289-1.585-0.253-1.917 0.079-0.332 0.333 0.258 0.569 1.313 0.525 1.165-0.048 1.402-0.284 0.604-0.604zm-4.69-4.163c-2.11-0.421-10.498 1.825-10.498 2.811 0 0.388 2.753-0.008 6.117-0.88 3.365-0.871 5.336-1.74 4.381-1.931zm0.204-2.528c1.316-1.326-7.091 0.503-8.532 1.857-1.065 1-0.427 1.02 3.202 0.098 2.492-0.633 4.891-1.512 5.33-1.955zm21.298 2.374c0-0.55-0.476-1-1.059-1-0.582 0-0.781 0.45-0.441 1s0.817 1 1.059 1c0.243 0 0.441-0.45 0.441-1zm-5.439-4.098c0.719-1.163-0.785-1.147-3.911 0.041-1.947 0.741-2.613 0.597-3.099-0.67-0.791-2.063 1.083-3.238 5.199-3.257 2.766-0.013 3.25 0.341 3.25 2.377 0 1.317 0.635 2.637 1.412 2.935 1.123 0.431 1.241-0.051 0.579-2.36-1.299-4.529-1.716-4.812-6.241-4.237-6.448 0.819-7.978 2.88-4.894 6.595 1.002 1.208 1.882 1.313 4.208 0.503 1.617-0.564 3.191-1.431 3.497-1.927zm-16.061-1.181c0.674-0.684 0.402-0.804-0.832-0.368-1.007 0.356-2.919 0.647-4.25 0.647-1.33 0-2.418 0.439-2.418 0.975 0 1.193 6.093 0.174 7.5-1.254zm11.688-0.404c-0.722-0.289-1.585-0.253-1.917 0.079-0.332 0.333 0.258 0.569 1.313 0.525 1.165-0.048 1.402-0.284 0.604-0.604zm-75.188 242.68c0-0.58 3.1667-1 7.5-1 4.3337 0 7.4997 0.42 7.4997 1s-3.166 1-7.4997 1c-4.3333 0-7.5-0.42-7.5-1zm-16.151-17.75c-0.496-2.47-0.232-7.25 0.401-7.25 0.413 0 0.75 1.8 0.75 4 0 3.47-0.705 5.46-1.151 3.25zm3.987-71.44c-1.465-0.51-2.899-1.53-3.187-2.28-0.461-1.2 2.035-0.32 6.268 2.22 1.3248 0.8-0.8245 0.84-3.081 0.06zm10.664-0.27c-4.5139-1.34-8.8709-3.5-8.2761-4.1 0.2174-0.21 2.8314 0.53 5.8089 1.66 5.1677 1.97 8.3679 2.08 12.217 0.43 0.9982-0.42 1.7499-0.31 1.7499 0.26 0 0.84-2.4549 1.88-6.4997 2.73-0.55 0.12-2.8-0.32-5-0.98zm14.841-13.21c0.37-0.37 1.683-0.74 2.917-0.81 1.233-0.08 3.367-0.47 4.742-0.88 2.398-0.71 2.421-0.68 0.559 0.81-1.839 1.47-9.644 2.3-8.218 0.88zm-1.971-4.77c-1.721-0.75-3.4352-1.86-3.8087-2.46-0.9526-1.54 0.573-1.31 2.8797 0.43 1.068 0.81 2.756 1.47 3.75 1.47 0.995 0 1.809 0.45 1.809 1 0 1.3-0.82 1.22-4.63-0.44zm6.635-1.31c0.003-0.41 1.916-0.85 4.25-0.98 3.039-0.17 3.819 0.04 2.745 0.73-1.772 1.15-7.002 1.33-6.995 0.25zm-1.755-7.91c-0.687-0.28-1.25-0.88-1.25-1.33 0-1.02 3.832-0.09 4.575 1.11 0.578 0.94-1.249 1.06-3.325 0.22zm5.75 0.27c0-0.21 1.544-0.57 3.43-0.79 1.887-0.22 3.21-0.05 2.941 0.39-0.484 0.78-6.371 1.15-6.371 0.4zm-50-6.65c5.225-2.2 11.975-5.21 15-6.71 7.1731-3.53 7.717-3.73 6.4398-2.36-1.5094 1.61-27.192 13.11-29.238 13.09-0.936-0.01 2.573-1.82 7.798-4.02zm-3.997-2.32c7.497-3.73 9.997-4.76 9.997-4.12 0 0.69-14.062 7.49-15.359 7.42-0.628-0.03 1.785-1.52 5.362-3.3zm14.997 2.3c3.174-2.17 17.229-9.04 17.647-8.63 0.4836 0.49-16.953 9.7-18.306 9.68-0.462-0.01-0.166-0.48 0.659-1.05zm-28.503-1.06c0.303-0.79 2.043-1.41 4.044-1.46 4.128-0.09 3.303 1.26-1.34 2.19-2.515 0.5-3.118 0.34-2.704-0.73zm74.003 0.12c2.753-1.18 3.731-1.18 3 0-0.34 0.55-1.604 0.97-2.809 0.93-2.112-0.07-2.119-0.1-0.191-0.93zm-7-1c-0.34-0.55-0.141-1 0.441-1 0.583 0 1.059 0.45 1.059 1s-0.198 1-0.441 1c-0.242 0-0.719-0.45-1.059-1zm-42-6c0.34-0.55 1.068-1 1.618-1s0.722 0.45 0.382 1-1.068 1-1.618 1-0.722-0.45-0.382-1zm56.771-10.6c0.332-0.34 1.195-0.37 1.917-0.08 0.798 0.32 0.561 0.55-0.604 0.6-1.055 0.04-1.645-0.19-1.313-0.52zm-76.771-2.4c0.34-0.55 1.042-1 1.559-1 0.518 0 0.941 0.45 0.941 1s-0.701 1-1.559 1c-0.857 0-1.281-0.45-0.941-1zm21.5-18.52c1.925-0.89 5.75-1.8 8.5003-2.03l5-0.41-5.5003 1.34c-11.854 2.9-11.917 2.91-8 1.1zm23.5-1.48c-1.2492-0.54 0.3093-0.66 4.1515-0.3 3.4362 0.31 7.5192 0.09 9.2502-0.52 3.092-1.07 4.516 0.06 1.516 1.21-2.305 0.89-12.585 0.61-14.918-0.39zm89.5-59c0-0.55 0.199-1 0.441-1 0.243 0 0.719 0.45 1.059 1s0.142 1-0.441 1c-0.582 0-1.059-0.45-1.059-1z" transform="translate(155.49 -32.299)"/>
  <metadata>
    <rdf:RDF>
      <cc:Work>
        <dc:format>image/svg+xml</dc:format>
        <dc:type rdf:resource="http://purl.org/dc/dcmitype/StillImage"/>
        <cc:license rdf:resource="http://creativecommons.org/licenses/publicdomain/"/>
        <dc:publisher>
          <cc:Agent rdf:about="http://openclipart.org/">
            <dc:title>Openclipart</dc:title>
          </cc:Agent>
        </dc:publisher>
        <dc:title>nayrhcrel Wood Ibis</dc:title>
        <dc:date>2006-12-23T04:19:30</dc:date>
        <dc:description>Trace of fws line art</dc:description>
        <dc:source>https://openclipart.org/detail/2225/nayrhcrel_wood_ibis_1-by-zeimusu-2225</dc:source>
        <dc:creator>
          <cc:Agent>
            <dc:title>zeimusu</dc:title>
          </cc:Agent>
        </dc:creator>
        <dc:subject>
          <rdf:Bag>
            <rdf:li>bird</rdf:li>
            <rdf:li>ciconiidae</rdf:li>
            <rdf:li>fws</rdf:li>
            <rdf:li>fws lineart</rdf:li>
            <rdf:li>ibis</rdf:li>
            <rdf:li>jpg</rdf:li>
            <rdf:li>line art</rdf:li>
            <rdf:li>mycteria americana</rdf:li>
            <rdf:li>remix</rdf:li>
            <rdf:li>stork</rdf:li>
            <rdf:li>wood ibis</rdf:li>
            <rdf:li>wood stork</rdf:li>
          </rdf:Bag>
        </dc:subject>
      </cc:Work>
      <cc:License rdf:about="http://creativecommons.org/licenses/publicdomain/">
        <cc:permits rdf:resource="http://creativecommons.org/ns#Reproduction"/>
        <cc:permits rdf:resource="http://creativecommons.org/ns#Distribution"/>
        <cc:permits rdf:resource="http://creativecommons.org/ns#DerivativeWorks"/>
      </cc:License>
    </rdf:RDF>
  </metadata>
</svg>
