<?xml version="1.0" encoding="iso-8859-1"?>
<!-- Generator: Adobe Illustrator 18.0.0, SVG Export Plug-In . SVG Version: 6.00 Build 0)  -->
<!DOCTYPE svg PUBLIC "-//W3C//DTD SVG 1.1//EN" "http://www.w3.org/Graphics/SVG/1.1/DTD/svg11.dtd">
<svg version="1.1" id="Capa_1" xmlns="http://www.w3.org/2000/svg" xmlns:xlink="http://www.w3.org/1999/xlink" x="0px" y="0px"
	 viewBox="0 0 443.994 443.994" style="enable-background:new 0 0 443.994 443.994;" xml:space="preserve">
<g>
	<path d="M441.716,324.493c-2.348-1.115-234.566-111.646-276.524-152.852c-2.232-4.048-16.098-29.06-23.691-39.414
		c-7.92-10.802-23.145-20.065-39.731-24.177c-14.733-3.651-37.547-5.085-62.589,8.827C25.04,124.734,7.392,142.89,3.615,184.774
		c-2.332,25.862,1.521,56.491,10.054,79.933c4.571,12.557,6.985,21.886,3.911,26.604c-1.916,2.939-6.574,4.676-13.847,5.16
		c-2.204,0.147-3.871,2.053-3.725,4.258c0.141,2.113,1.899,3.733,3.987,3.733c0.09,0,0.18-0.003,0.271-0.009
		c10.058-0.671,16.604-3.541,20.016-8.775c5.437-8.342,1.638-20.704-3.096-33.707c-8.156-22.407-11.837-51.712-9.604-76.478
		c3.462-38.398,19.031-54.704,31.482-61.621c41.371-22.984,80.322-2.818,91.984,13.086c7.052,9.615,20.397,33.593,22.976,38.258
		c0.869,15.911-9.355,39.56-12.296,45.991l-27.527,6.761c-4.969,1.221-9.08,4.568-11.279,9.185c-2.197,4.61-2.208,9.903-0.03,14.522
		c9.995,21.197,26.843,60.147,27.383,82.845c0.052,2.177,1.832,3.905,3.997,3.905c0.032,0,0.064,0,0.097-0.001
		c2.209-0.053,3.957-1.886,3.904-4.094c-0.575-24.17-17.881-64.298-28.145-86.067c-1.15-2.438-1.145-5.234,0.016-7.669
		c1.163-2.44,3.338-4.211,5.966-4.856l28.184-6.922c14.445,5.441,160.456,60.57,260.449,103.212
		c5.146,2.194,10.584,3.307,16.164,3.307h0.001c5.757,0,11.337-1.183,16.58-3.513l0.202-0.092c1.399-0.658,2.299-2.068,2.302-3.614
		C443.996,326.569,443.113,325.157,441.716,324.493z M165.771,182.858c23.848,19.657,76.531,49.438,129.306,77.222l-133.444-58.103
		C163.515,195.813,165.117,189.16,165.771,182.858z M424.91,327.335L424.91,327.335c-4.496,0-8.879-0.897-13.026-2.666
		c-95.469-40.712-232.761-92.767-257.911-102.262c1.335-3.016,3.229-7.534,5.124-12.809L425.425,325.56
		c1.143,0.55,2.241,1.079,3.247,1.563C427.431,327.264,426.176,327.335,424.91,327.335z"/>
	<path d="M131.61,166.661c1.172-1.159,1.514-2.918,0.859-4.432c-0.069-0.16-1.731-3.968-4.681-7.785
		c-4.288-5.548-9.271-8.481-14.411-8.481c-0.36,0-0.723,0.015-1.091,0.044c-8.097,0.647-13.698,4.563-18.199,7.708
		c-1.653,1.155-3.215,2.247-4.661,3.004c-1.218,0.636-2.022,1.853-2.134,3.221c-0.11,1.369,0.488,2.699,1.587,3.523
		c0.42,0.314,1.032,0.836,1.74,1.438c4.264,3.633,12.201,10.394,22.301,10.394C119.528,175.295,125.818,172.39,131.61,166.661z
		 M112.924,153.981c0.152-0.012,0.304-0.019,0.453-0.019c4.343,0,8.334,5.269,10.464,8.95c-3.584,2.944-7.178,4.382-10.921,4.382
		c-1.366,0-2.697-0.2-3.984-0.535c-1.006-5.043,0.224-9.89,1.046-12.316C110.917,154.225,111.893,154.064,112.924,153.981z
		 M98.669,160.272c0.705-0.493,1.415-0.988,2.137-1.473c-0.151,1.195-0.244,2.467-0.255,3.792c-0.886-0.631-1.721-1.274-2.49-1.895
		C98.263,160.557,98.466,160.415,98.669,160.272z"/>
</g>
<g>
</g>
<g>
</g>
<g>
</g>
<g>
</g>
<g>
</g>
<g>
</g>
<g>
</g>
<g>
</g>
<g>
</g>
<g>
</g>
<g>
</g>
<g>
</g>
<g>
</g>
<g>
</g>
<g>
</g>
</svg>
