<svg id="Capa_1" enable-background="new 0 0 512.011 512.011" height="512" viewBox="0 0 512.011 512.011" width="512" xmlns="http://www.w3.org/2000/svg"><g><path d="m343.396 140.607-7.739 15.542c-22.306 58.183-22.159 142.541.244 200.347l6.002 15.371c63.698-19.237 121.102-53.469 121.102-115.861-.001-61.874-56.53-96.071-119.609-115.399zm24.608 106.399c-12.656 0-19.57-14.745-11.6-24.51 8.307-10.203 25.137-5.379 26.53 8.029.903 8.799-6.112 16.481-14.93 16.481z"/><path d="m151.547 428.685c10.826 23.055 27.551 42.836 49.601 58.368 25.982 18.302 50.328 24.291 51.352 24.537 9.417 2.261 18.505-4.876 18.505-14.585v-78.867c-45.39 7.053-88.844 9.658-119.458 10.547z"/><path d="m271.004 93.868v-78.862c0-9.705-9.083-16.846-18.505-14.585-1.024.246-25.37 6.235-51.352 24.537-22.051 15.532-38.776 35.314-49.602 58.37 30.621.889 74.073 3.489 119.459 10.54z"/><path d="m307.928 144.675c.387-1.001.354-.854 5.913-12.018-61.6-14.492-144.134-20.934-202.027-19.652-36.465.145-58.565 40.018-40.277 70.884-25.492 15.605-30.125 50.423-9.927 72.116-20.202 21.697-15.56 56.515 9.927 72.116-18.298 30.882 3.826 70.739 40.277 70.884 59.253 1.337 140.293-5.277 200.91-19.388l-4.782-12.246c-25.194-65.009-25.372-157.263-.014-222.696z"/></g></svg>