<?xml version="1.0" encoding="iso-8859-1"?>
<!-- Generator: Adobe Illustrator 19.0.0, SVG Export Plug-In . SVG Version: 6.00 Build 0)  -->
<svg version="1.1" id="Capa_1" xmlns="http://www.w3.org/2000/svg" xmlns:xlink="http://www.w3.org/1999/xlink" x="0px" y="0px"
	 viewBox="0 0 490 490" style="enable-background:new 0 0 490 490;" xml:space="preserve">
<g id="XMLID_527_">
	<path id="XMLID_530_" d="M208.156,220c0,35.841,29.158,65,64.999,65h13.091v-30h-13.091c-13.935,0-25.992-8.185-31.62-20h44.71v-30
		h-78.09V220z"/>
	<path id="XMLID_531_" d="M453.921,220c0-22.056-17.944-40-40-40h-0.634c-24.288-47.502-73.113-77.675-127.041-77.675h-24.653
		V84.999c0-46.868-38.131-84.999-85-84.999h-15v93.891c-4.146-0.916-8.399-1.391-12.685-1.391c-10.262,0-20.404,2.725-29.331,7.878
		c-13.119,7.573-22.694,19.896-26.944,34.182c-14.285,4.25-26.608,13.825-34.181,26.942c-7.574,13.118-9.705,28.577-6.243,43.073
		C41.963,215.399,36.079,229.853,36.079,245s5.884,29.601,16.131,40.425c-3.462,14.496-1.332,29.955,6.243,43.073
		c7.573,13.118,19.896,22.692,34.181,26.942c4.25,14.285,13.825,26.608,26.944,34.182c8.926,5.153,19.069,7.878,29.331,7.878
		c4.285,0,8.539-0.475,12.685-1.391V490h15c46.869,0,85-38.131,85-84.999v-17.326h24.653c53.928,0,102.753-30.173,127.041-77.675
		h0.634c22.056,0,40-17.944,40-40c0-9.451-3.294-18.147-8.796-25C450.627,238.147,453.921,229.451,453.921,220z M231.593,84.999
		v17.326h-40V32.079C214.653,38.623,231.593,59.87,231.593,84.999z M231.593,405.001c0,25.129-16.939,46.376-40,52.92v-70.246h40
		V405.001z M413.921,260c5.514,0,10,4.486,10,10s-4.486,10-10,10h-20.08l-3.886,9.121c-17.742,41.645-58.451,68.554-103.709,68.554
		H171.263l-4.135,3.363c-5.123,4.167-11.593,6.462-18.219,6.462c-5.003,0-9.959-1.335-14.331-3.858
		c-8.072-4.66-13.404-13.005-14.262-22.321l-1.144-12.417l-12.417-1.144c-9.316-0.858-17.661-6.19-22.321-14.262
		c-4.661-8.072-5.105-17.965-1.19-26.461l5.218-11.325l-10.182-7.2c-7.639-5.401-12.2-14.19-12.2-23.512s4.561-18.11,12.2-23.512
		l10.182-7.2l-5.218-11.325c-3.915-8.496-3.47-18.389,1.19-26.461c4.66-8.071,13.005-13.403,22.321-14.262l12.417-1.144
		l1.144-12.417c0.858-9.316,6.19-17.661,14.262-22.321c4.373-2.523,9.328-3.858,14.332-3.858c6.626,0,13.097,2.295,18.219,6.462
		l4.135,3.363h114.983c45.258,0,85.967,26.909,103.709,68.554l3.886,9.121h20.08c5.514,0,10,4.486,10,10s-4.486,10-10,10h-20v30
		H413.921z"/>
	<rect id="XMLID_536_" x="325.083" y="204.303" width="30" height="30"/>
</g>
<g>
</g>
<g>
</g>
<g>
</g>
<g>
</g>
<g>
</g>
<g>
</g>
<g>
</g>
<g>
</g>
<g>
</g>
<g>
</g>
<g>
</g>
<g>
</g>
<g>
</g>
<g>
</g>
<g>
</g>
</svg>
