<svg height="512" viewBox="0 0 57 58" width="512" xmlns="http://www.w3.org/2000/svg"><g id="Page-1" fill="none" fill-rule="evenodd"><g id="005---Swallow" fill-rule="nonzero"><path id="Shape" d="m56.71 21.74c-1.11 6-5.92 17.42-22.71 18.26 0 0-10 13-21 18 5.1948934-6.6330809 9.875192-13.6535288 14-21 0 0-15 4-26 2 0 0 14.51-1.61 24.71-8.47-1.4970304.0819975-2.9805522-.321324-4.23-1.15-2.907251.6610754-5.9550179-.116682-8.19-2.09-6.87.74-9.29-2.88-9.29-2.88 7 0 16-6.24 21-8.73.6834423-.37129 1.4354376-.5992704 2.21-.67h.05c.32457-.0208713.6504764-.0007121.97.06 2.62.53 4.32 3.75 8.77 5.6.9170981.3882829 1.8825261.650664 2.87.78h.01c.6703981-.6451703 1.0707259-1.5208873 1.12-2.45.0432358-1.7622126.5206842-3.4865227 1.39-5.02 1.2-2.15 14.53 6.61 14.32 7.76z" fill="#cc4b4c"/><path id="Shape" d="m57 19c-.0176996.919973-.1147259 1.8367046-.29 2.74-1.7478225 3.0335114-5.0049835 4.8787303-8.5054751 4.8184487-3.5004915-.0602816-6.6921874-2.0165557-8.3345249-5.1084487h.01c.6703981-.6451703 1.0707259-1.5208873 1.12-2.45.0432358-1.7622126.5206842-3.4865227 1.39-5.02 1.2015758-2.1588132 3.3603524-3.6154588 5.8119837-3.9216658 2.4516314-.30620695 4.9023683.5747137 6.5980163 2.3716658 1.030488 1.2318524 1.7139545 2.7161485 1.98 4.3.1465109.7477803.2201888 1.5080021.22 2.27z" fill="#ecf0f1"/><path id="Shape" d="m42 19c0 .92-1.47 2.75-2.12 3.45-.9907291-.1291998-1.9594792-.3915696-2.88-.78-4.45-1.85-6.15-6.07-8.77-6.6-.3195236-.0607121-.64543-.0808713-.97-.06h-.05c-.7184517-.0684251-1.4305607-.1921248-2.13-.37-1.8241987-.3855727-3.4595279-1.3886688-4.63-2.84-.6036037-.7701111-1.0365142-1.6597932-1.27-2.61v-.01c-1.187802-.52330211-2.2927991-1.21729416-3.28-2.06-1.0086421-.85147672-1.8467654-1.88640637-2.47-3.05v-.01c-.0055228 0-.01-.00447715-.01-.01-4.07-1.93-4.42-4.05-4.42-4.05 6.2765506 1.12585093 12.6265939 1.79427654 19 2 4 0 7 0 10 6 1.036043 2.2743009 2.5305857 4.3101472 4.39 5.98-.99 1.73-.39 3.68-.39 5.02z" fill="#35495e"/><path id="Shape" d="m28.61 7.99c-.0315324.52488783-.4641836.93568795-.99.94h-.06c-3.9435679-.15056121-7.8563713-.7579518-11.66-1.81-1.0086421-.85147672-1.8467654-1.88640637-2.47-3.05.014096-.00149638.0282665.00204626.04.01 3.24 1.54 8.02 2.5 14.2 2.85.2653913.0154441.5137106.13592544.6900922.33482386.1763817.19889843.2663072.45984217.2499078.72517614z" fill="#2c3e50"/><path id="Shape" d="m29.61 11.93c0 .5522847-.4477153 1-1 1-2.7620915.0479453-5.5148806-.333262-8.16-1.13-.6036037-.7701111-1.0365142-1.6597932-1.27-2.61.01 0 .02.01.03.01 2.9751407 1.2369305 6.1794228 1.8266548 9.4 1.73.2652165 0 .5195704.1053568.7071068.2928932s.2928932.4418903.2928932.7071068z" fill="#2c3e50"/><path id="Shape" d="m28.448 17.014c-.27 0-.5366667-.0046667-.8-.014-.3572656-.0126829-.6806263-.2150014-.8482754-.5307439s-.1541165-.6969404.0355-1 .5265098-.481939.8837754-.4692561c.8855512.0289806 1.7720377.0066098 2.655-.067.3614083-.0382522.7151189.1225829.9238569.4200852.208738.2975022.2396388.6848319.0807099 1.0116664-.1589288.3268345-.4826651.5417157-.8455668.5612484-.712.059-1.412.088-2.085.088z" fill="#2c3e50"/><path id="Shape" d="m49 10 4.3-3.441c.141299-.11280543.3324907-.14054006.5000186-.07253367.167528.06800639.2852905.22115807.3079814.40053367l.69 5.543z" fill="#f0c419"/><path id="Shape" d="m48 18c1.3865927 1.2797638 2.1214887 3.1170037 2 5 0 .18 0 .37-.01.54-.0013048.0869959-.0079842.173828-.02.26-.27 3.42-2.3 4.36-4.09 4.51-.8182646.06249-1.6412722-.0015967-2.44-.19h-.01c-.7684978.6794292-1.7373396 1.0901339-2.76 1.17h-.01c-.8732744.0587374-1.7496235-.0533537-2.58-.33l-.09.06c-1.6234044 1.2377186-3.6867798 1.7481325-5.7 1.41-.882676-.1570936-1.7317336-.4649193-2.51-.91-.05.02-.11.05-.16.07-.0218637.0057319-.0422963.0159482-.06.03-1.2106585.5442555-2.5138519.8530852-3.84.91h-.01c-.3236425.0104644-.6476228.0004444-.97-.03-1.1616408-.0800226-2.2821048-.4627041-3.25-1.11 0-.0055228-.0044772-.01-.01-.01-1.8878662.3848383-3.8467878.2146483-5.64-.49-.933324-.3770119-1.7930823-.915207-2.54-1.59l-.01-.01c-6.87.74-9.29-2.88-9.29-2.88 7 0 16-6.24 21-8.73.6834423-.37129 1.4354376-.5992704 2.21-.67h.05c.32457-.0208713.6504764-.0007121.97.06 2.62.53 4.32 3.75 8.77 5.6.9205208.3884304 1.8892709.6508002 2.88.78.01-.01.02-.02.02-.03.5320333-.535636.8998215-1.2122276 1.06-1.95.0286191-.1549886.0420162-.3124041.04-.47.0432358-1.7622126.5206842-3.4865227 1.39-5.02 1.2015758-2.1588132 3.3603524-3.6154588 5.8119837-3.9216658 2.4516314-.30620695 4.9023683.5747137 6.5980163 2.3716658 1.030488 1.2318524 1.7139545 2.7161485 1.98 4.3-9.54-6.14-10.27-.22-8.78 1.27z" fill="#547580"/><path id="Shape" d="m49.97 23.8c-.2 3.5-1.89 5.55-7.97 9.2-3.0534209 1.8503907-5.760663 4.2192276-8 7 0 0-10 13-21 18 5.1948934-6.6330809 9.875192-13.6535288 14-21 0 0-15 4-26 2 0 0 14.51-1.61 24.71-8.47h.01c1.4072188-.062044 2.7877339-.4054727 4.06-1.01 2.6170382 1.5444363 5.9141418 1.3219811 8.3-.56 1.8044359.7042636 3.8482206.3833703 5.35-.84 1.44.33 6.12 1 6.54-4.32z" fill="#35495e"/><g fill="#3f5c6c"><path id="Shape" d="m25.48 25.05c-3.0196982 1.7208735-6.2641316 3.0132619-9.64 3.84-.933324-.3770119-1.7930823-.915207-2.54-1.59 3.9589324-.6132578 7.7659701-1.9704905 11.22-4 .3145028-.1993023.7136911-.2073696 1.0359894-.0209367.3222982.1864329.5143298.5364905.4983679.9084832-.0159619.3719928-.2372737.7043141-.5743573.8624535z"/><path id="Shape" d="m45.22 20.52c-1.3544865.6249573-2.8282881.9490571-4.32.95-.33 0-.66-.02-1-.05.5320333-.535636.8998215-1.2122276 1.06-1.95 1.1848446-.011876 2.3537716-.2742882 3.43-.77.5055872-.2208753 1.0951333.0007586 1.33.5.2253043.5026133.0017535 1.0927874-.5 1.32z"/><path id="Shape" d="m31.42 26.88c-2.07595 1.4661455-4.3182326 2.6812747-6.68 3.62-1.1616408-.0800226-2.2821048-.4627041-3.25-1.11 3.1745639-.7965106 6.1613236-2.2100397 8.79-4.16.4556349-.3148023 1.0801977-.2006349 1.395.255s.2006349 1.0801977-.255 1.395z"/><path id="Shape" d="m35.98 27.69c-1.1434193 1.0245011-2.378619 1.9416955-3.69 2.74-.882676-.1570936-1.7317336-.4649193-2.51-.91 1.7502215-.9119846 3.385153-2.0299152 4.87-3.33.2679492-.2375816.6422927-.3141669.9820191-.2009069.3397263.11326.5932228.3991584.665.75.0717771.3508416-.0490699.7133253-.3170191.9509069z"/><path id="Shape" d="m42.08 27.63c-.4331946.5835709-.9042059 1.1380949-1.41 1.66h-.01c-.8732744.0587374-1.7496235-.0533537-2.58-.33l-.09.06c.9397081-.7469101 1.7769124-1.6143748 2.49-2.58.2002708-.3179416.5618717-.4967775.9361071-.4629679s.6979298.2745573.8379753.6232441.0728007.7464501-.1740824 1.0297238z"/><path id="Shape" d="m46.51 27.26c-.1824755.3657956-.3931099.7168531-.63 1.05-.8182646.06249-1.6412722-.0015967-2.44-.19.5255014-.5041847.9587038-1.0964537 1.28-1.75.1156466-.2396046.3230399-.4224417.5752516-.5071397.2522117-.0846979.5279236-.0640976.7647484.0571397.4892153.250167.6890609.8452626.45 1.34z"/></g><path id="Shape" d="m8.757 9.03-2.757.689v-2.719c0-.55228475-.44771525-1-1-1s-1 .44771525-1 1v2.719l-2.757-.689c-.53396655-.12972141-1.07256598.19570268-1.20609737.72872921-.13353139.53302659.18803803 1.07393619.72009737 1.21127079l2.539.635-2.096 2.795c-.33137085.4418278-.2418278 1.0686292.2 1.4s1.06862915.2418278 1.4-.2l2.2-2.933 2.2 2.933c.33137086.4418278.95817219.5313708 1.39999998.2.4418278-.3313709.53137085-.9581722.20000002-1.4l-2.1-2.795 2.539-.635c.34882102-.0847423.62545979-.3499483.7248402-.6948844.0993804-.34493602.00625379-.71667606-.24400745-.97402148-.25026124-.25734543-.61925765-.36080981-.96683275-.27109412z" fill="#35495e"/><path id="Shape" d="m51.97 48.757c-.1342322-.5352153-.6766155-.8605558-1.212-.727l-2.758.689v-2.719c0-.5522847-.4477153-1-1-1s-1 .4477153-1 1v2.719l-2.757-.689c-.3475751-.0897157-.7165715.0137487-.9668327.2710941-.2502613.2573454-.3433879.6290855-.2440075.9740215.0993804.3449361.3760192.6101421.7248402.6948844l2.539.635-2.1 2.8c-.2143594.2858125-.2599565.6642735-.1196153.9928203.1403412.3285469.4452995.5572657.8.6000001.3547006.0427344.705256-.1070079.9196153-.3928204l2.204-2.939 2.2 2.934c.2143593.2858125.5649147.4355548.9196153.3928204.3547005-.0427344.6596588-.2714532.8-.6000001.1403412-.3285468.0947441-.7070078-.1196153-.9928203l-2.1-2.8 2.538-.635c.5352823-.1320344.8627194-.6723951.732-1.208z" fill="#35495e"/></g></g></svg>