<svg height="512" viewBox="0 0 60 60" width="512" xmlns="http://www.w3.org/2000/svg"><g id="028---Red-Crowned-Crane" fill="none"><g id="Icons" transform="translate(1 1)"><path id="Shape" d="m48 4-1 4h-2c-3 0 0 4.12 0 8.12 0 2.55-1.62 5.09-4.09 6.86l-2.81-.68c-.272384-.0685063-.503402-.2484029-.6365609-.495698s-.1561819-.5391889-.0634391-.804302l.6-1.63c1.5353898-.4206066 2.6985684-1.6768395 3-3.24 1-4-3-8.13-3-12.13 0-2 2-4 5-4s3.5 2.51 5 4z" fill="#37474f"/><path id="Shape" d="m27.64 39c-.6444506.0210464-1.2848768-.1090936-1.87-.38.814789-.618827 1.2743914-1.5978174 1.23-2.62.0358228-.48124.4102115-.8682486.89-.92.7664342-.1888211 1.5057108-.4744507 2.2-.85.91 2.65-.5 4.77-2.45 4.77z" fill="#7f8e94"/><path id="Shape" d="m46.49 2c-2.13 0-6.5.94-6.5 8.33-.9-2.12-2-4.24-2-6.33s2-4 5-4c1.4418709-.01290737 2.7790935.75121983 3.5 2z" fill="#f44335"/><path id="Shape" d="m17.09 27.09c-.13-.05-.51-.71 2.36 4 .33.81-.42 2-1.29 1.3l-1.64-1.39v.18c-.14 1.32-.85 4.76-2 5.76-.13.17-2.55 1.48-4.56 8.35-.3 1-1.95.93-1.95-.15 0-.63 0-3.54 0-4.18-.00724426-.4632097-.33168936-.8607986-.78403569-.9607909-.45234632-.0999924-.91414821.1237946-1.11596431.5407909-.88 1.82-1.68 7.52-2.27 8.85-.17617005.3614349-.55168208.5822035-.95317301.5603834-.40149093-.0218202-.75086528-.2819848-.88682699-.6603834-.76-2.44-2-7.75-2-10.29 0-9 7.42-14.88 16-18 1.2470212.7179952 2.2820048 1.7529788 3 3 .5027566.8481079.8990769 1.7549426 1.18 2.7.25 1.05-.62 1.39-1.33 1.17-.5048573-.1734833-.9961967-.3840574-1.47-.63-.1014998-.0400438-.198666-.0903022-.29-.15z" fill="#607d8b"/><g fill="#37474f"><path id="Shape" d="m15.16 32.35-1.64-1.35v.18c-.14 1.32-.85 4.76-2 5.76-.09.12-1.78 1.06-3.5 5.29v2.91c0 1.08 1.65 1.19 1.95.15 2.05-7 4.39-8.12 4.56-8.35 1-.91 1.58-3.5 1.83-4.86-.0927431.2268659-.2904836.3941044-.5295964.4479047-.2391128.0538004-.4894278-.0126256-.6704036-.1779047z"/><path id="Shape" d="m5 44.46c0-.13 0-3.33 0-3.48-.00724426-.4632097-.33168936-.8607986-.78403569-.9607909-.45234632-.0999924-.91414821.1237946-1.11596431.5407909-.73437056 2.1832702-1.29937708 4.4198937-1.69 6.69.19.77.38 1.46.55 2 .12057139.3996744.47673649.6823952.89334464.7091294.41660814.0267342.80598816-.2081441.97665536-.5891294.47393935-1.6155205.86445542-3.2543529 1.17-4.91z"/><path id="Shape" d="m20.2 26.72c-.2857082-.9529023-.6888009-1.866579-1.2-2.72-.7179952-1.2470212-1.7529788-2.2820048-3-3-.68.25-1.26.48-1.91.75.7759675.6196451 1.4245775 1.3837145 1.91 2.25.38.72 1.29 2.35 1.21 3.15.4321422.2268971.8761095.4305212 1.33.61 1.24.51 1.87-.14 1.66-1.04z"/><path id="Shape" d="m17.2 27.38c-.16.46-.71.77-1.64.4-.5364702-.2256656-1.0575854-.4862232-1.56-.78 2.74 4.53 2.43 3.86 2.5 4.17v-.19l1.64 1.33c.87.65 1.62-.49 1.29-1.3z"/></g><path id="Shape" d="m56.91 10-9.91-2 1-4 9.45 4.11c.4302401.21528732.6462.70642204.5140323 1.16900921-.1321678.46258718-.5749974.76549639-1.0540323.72099079z" fill="#fec108"/><path id="Shape" d="m40.91 23c-1.3070796.9352831-2.7798122 1.6139617-4.34 2-.3408307.081724-.6139987.335922-.72.67-.53 1.78-2.51 7.43-6.72 9-.3970068.181829-.812853.3193266-1.24.41-.4797885.0517514-.8541772.43876-.89.92-.2 2.33-1.26 3-3 3-2 0-2.82-.83-3-3-.0130015-.2869259-.1487486-.5544089-.3726561-.7343003-.2239075-.1798915-.5143553-.2548216-.7973439-.2056997-.25 0-.51.16-.83.25-1.94.56-3.35 1.79-5.16 2.25.1726473-.1884513.3635844-.3592897.57-.51 1.5-1.13 2.11-6 2.11-6l1.64 1.34c.87.65 1.62-.49 1.29-1.31l-2.45-4.08c.6139125.3581167 1.264254.6497647 1.94.87.69.17 1.49-.19 1.25-1.2-.2886751-.9343072-.6881854-1.8306876-1.19-2.67-.7187534-1.24644-1.75356-2.2812466-3-3 9-4 10-2.88 15-1.88 2.76.55 5.21.8 7 .24l-.6 1.64c-.1029463.2687399-.0851241.568804.0489099.8234685.1340339.2546645.371285.4392397.6510901.5065315z" fill="#f5f5f5"/><path id="Shape" d="m38.1 22.31c-.2748288-.0681391-.5078884-.2495933-.6413332-.4993258-.1334448-.2497324-.1547642-.5443302-.0586668-.8106742l.6-1.63c-1.0120502.2762016-2.0638154.377658-3.11.3l-.49 1.33c-.1029463.2687399-.0851241.568804.0489099.8234685.1340339.2546645.371285.4392397.6510901.5065315l2.81.68c-1.3070796.9352831-2.7798122 1.6139617-4.34 2-.3408307.081724-.6139987.335922-.72.67-.53 1.78-2.51 7.43-6.72 9-.3970068.181829-.812853.3193266-1.24.41-.4763426.050991-.8496057.432642-.89.91-.14 1.58-.67 2.4-1.55 2.78.496684.176541 1.0238077.2513585 1.55.22 1.76 0 2.82-.71 3-3 .0358228-.48124.4102115-.8682486.89-.92.427147-.0906734.8429932-.228171 1.24-.41 4.21-1.57 6.19-7.22 6.72-9 .1060013-.334078.3791693-.588276.72-.67 1.5601878-.3860383 3.0329204-1.0647169 4.34-2z" fill="#cfd8dc"/></g><path id="Shape" d="m5.74 50.82c.68-1.54 1.44-7.15 2.26-8.82v4.16c0 2.24 3.29 2.56 3.91.43.6241238-2.6031015 1.8007199-5.0415543 3.45-7.15.8715692-.2812205 1.7125041-.6497577 2.51-1.1.8787734-.5214589 1.8239962-.921749 2.81-1.19.1011176-.0453193.2094518-.0724029.32-.08.17 2.26 1 3.47 2.78 3.83-.51 1.5-1.54 3.63-3.1 4.15-.3807454.1272229-.648506.469799-.68.87l-.94 11.64c-.5215221.1243873-1.0278685.3054648-1.51.54-.4220233.2042726-.645459.6743292-.5374022 1.1305689.1080568.4562398.5185889.7761461.9874022.7694311.1562755-.0030402.3099448-.0406038.45-.11 1.0991573-.5441607 2.3484504-.7060409 3.55-.46l2.8.56c.2642949.0588836.5411709.0080719.7673354-.1408197.2261644-.1488916.3822819-.383134.4326646-.6491803.0587019-.2657496.0065538-.5439454-.1444111-.7703926-.1509648-.2264473-.3877039-.3815824-.6555889-.4296074-1.3457585-.3583101-2.7215037-.5926219-4.11-.7l.91-10.61c2.33-1.21 3.48-4.3 3.9-5.71.3218785-.0521224.6370876-.1393078.94-.26.8191198.2826328 1.6968327.3514731 2.55.2.35 1.46.73 4.16-.9 5.26-.3822161.2138522-.5807967.6515401-.49 1.08l2.75 10.37c-.4225256.1258351-.8339264.2863818-1.23.48-.4154822.2125087-.6287368.6841417-.513863 1.1364573s.5273298.7650379.993863.7535427c.1562755-.0030402.3099448-.0406038.45-.11 1.0991573-.5441607 2.3484504-.7060409 3.55-.46l2.8.56c.2642949.0588836.5411709.0080719.7673354-.1408197.2261644-.1488916.3822819-.383134.4326646-.6491803.0587019-.2657496.0065538-.5439454-.1444111-.7703926-.1509648-.2264473-.3877039-.3815824-.6555889-.4296074-3-.61-3.22-.71-4.42-.69l-2.65-10c2.25-2.13 1.46-5.92 1-7.45 1.0541201-1.1436588 1.4635803-2.740178 1.09-4.25 3.32-2.28 5-6.71 5.57-8.71 5.24-1.3 9.19-5.53 9.19-9.84 0-3-1.6-6.41-1.35-7.08.1234133-.01849631.2492995-.01169165.37.02 2.53 0 .3-.29 11.71 2 .9896429.1552712 1.9415039-.4455684 2.2270355-1.4057631.2855316-.96019479-.1833542-1.98351958-1.0970355-2.3942369l-9.23-4c-1.33-1.45-2.14-4.2-5.61-4.2-3.71 0-6 2.59-6 5 0 4.26 3.92 8.32 3 11.88-.69 2.76-3.17 3.39-8.83 2.26-5.31-1.06-6.38-2.15-15.57 1.93-14.44 5.28-16.6 14.13-16.6 18.93 0 2.53 1.17 7.7 2 10.56.23631667.8015179.94603718 1.371631 1.77965466 1.429583s1.61539685-.4084739 1.96034534-1.169583zm22.8-11.82c.2581483-.61375.4135572-1.2657917.46-1.93.4546151-.0792173.8978824-.2135407 1.32-.4.06 1.26-.5 2.33-1.78 2.33zm20.68-30.77.46-1.84 8.32 3.61zm-3.84-5.92c-2.4629838.68582532-4.3471418 2.67380419-4.9 5.17-.2952531-.79465641-.4574292-1.63256637-.48-2.48 0-2.38 3.6-3.63 5.38-2.69zm-2.38 15.06c.53-2.13-.13-4.2-1-6.21.06-5.72 2.94-7 5-7.13.3.44.58.85.91 1.25l-.69 2.72c-1.39 0-2.44-.12-3.13.8-1.32 1.74.91 5 .91 8.32-.176924 2.3267219-1.3927822 4.4498823-3.31 5.78l-2.35-.57.45-1.18c1.6439093-.6311191 2.8535532-2.0555596 3.21-3.78zm-13 3.35c2.4235883.6837709 4.9318847 1.020455 7.45 1-.1888288.5314624-.144479 1.1179492.1221233 1.6149722.2666024.4970229.730671.8583732 1.2778767.9950278l.38.09c-.6157567.2764025-1.2549607.4972792-1.91.66-.6865401.1671322-1.2339416.6841225-1.44 1.36-.47 1.6-2.33 6.91-6.12 8.35-.3242988.1410329-.6585343.2580154-1 .35-.9280299.1065841-1.6586755.8413811-1.76 1.77-.15 1.81-.77 2.13-2 2.13-1.4 0-1.85-.29-2-2.11-.0365916-.5687912-.314125-1.0949497-.7628963-1.4463281-.4487713-.3513783-1.0261424-.4945919-1.5871037-.3936719-.2077846.039273-.4118531.0961445-.61.17-.849022.2477941-1.6700752.5829179-2.45 1 .2651839-.7708888.4757055-1.5595094.63-2.36l.34.28c1.67 1.24 3.55-.68 2.82-2.48-.05-.11-.06-.13-.94-1.56 3.062389.8446772 6.3371941.3964699 9.06-1.24.4522526-.287496.5974802-.8803968.3292932-1.3443602-.2681869-.4639635-.8544428-.6340415-1.3292932-.3856398-1.8911237 1.1361089-4.1164119 1.5846987-6.3 1.27.2-1.12-.66-2.68-1.24-3.77-.4941079-.9293333-1.1590637-1.7571354-1.96-2.44 6.18-2.59 7.79-2.23 11-1.51zm-13.12 2.4c.9709204.6223181 1.7662061 1.483017 2.31 2.5.4316222.7342323.7676758 1.5205976 1 2.34-.5991026-.1864085-1.1733164-.4449726-1.71-.77-.3934907-.2535213-.9101936-.2001633-1.2435727.1284189-.3333791.3285823-.3942195.8444577-.1464273 1.2415811l2.28 3.72-1.26-1c-.2817229-.2329855-.6681309-.2936683-1.0077086-.1582539s-.5781967.4453411-.6222914.8082539c-.22 1.81-.92 4.76-1.71 5.36-2.28 1.71-3.87 5.71-4.77 8.46 0-.93 0-3 0-3.79-.02335383-.9185186-.66953704-1.7029638-1.56658402-1.9017816s-1.81415966.2391449-2.22341598 1.0617816c-1 2-1.75 7.61-2.29 8.89-.97835818-3.2627858-1.6216812-6.6167771-1.92-10.01 0-4.23 2-12 14.89-16.88z" fill="#000"/></g></svg>