<svg id="Layer_1" enable-background="new 0 0 256 256" height="512" viewBox="0 0 256 256" width="512" xmlns="http://www.w3.org/2000/svg"><path d="m102.396 92.13v-57.585c0-15.021-12.177-27.198-27.199-27.198-15.021 0-27.199 12.177-27.199 27.198v57.585 18.277c0 49.77 40.346 90.116 90.116 90.116 49.77 0 90.116-40.347 90.116-90.116l23.77-18.277z" fill="#f4efed"/><path d="m243 92.129-23.769 18.277c0 48.26-37.937 87.659-85.616 90.004 1.491.073 2.991.112 4.5.112 49.77 0 90.116-40.347 90.116-90.116l23.769-18.277z" fill="#d6d1cf"/><path d="m138.114 250.653c-1.104 0-2-.896-2-2v-48.131c0-1.104.896-2 2-2s2 .896 2 2v48.131c0 1.105-.895 2-2 2z" fill="#690589"/><path d="m138.114 248.653h-19.048l9.524-9.857 9.524-9.856 9.524 9.856 9.523 9.857z" fill="#fcc24c"/><path d="m56.998 110.407v-18.278-57.584c0-13.487 9.82-24.676 22.699-26.821-1.465-.244-2.966-.377-4.5-.377-15.021 0-27.199 12.177-27.199 27.198v57.584 18.277c0 49.77 40.346 90.116 90.116 90.116 1.509 0 3.009-.039 4.5-.112-47.679-2.344-85.616-41.743-85.616-90.003z" fill="#fff"/><path d="m138.114 202.522c-50.793 0-92.116-41.323-92.116-92.116v-75.861c0-16.1 13.099-29.198 29.198-29.198 16.101 0 29.199 13.099 29.199 29.198v55.585h147.605c.856 0 1.618.545 1.894 1.356.275.811.005 1.707-.675 2.229l-22.993 17.68c-.531 50.341-41.647 91.127-92.112 91.127zm-62.917-193.175c-13.895 0-25.199 11.304-25.199 25.198v75.861c0 48.588 39.528 88.116 88.116 88.116s88.116-39.528 88.116-88.116c0-.621.288-1.207.781-1.586l19.106-14.69h-143.721c-1.104 0-2-.896-2-2v-57.585c0-13.895-11.304-25.198-25.199-25.198z" fill="#690589"/><path d="m157.161 250.653h-38.096c-.803 0-1.527-.479-1.841-1.219s-.155-1.594.402-2.171l19.048-19.714c.754-.779 2.123-.779 2.877 0l19.048 19.714c.558.577.716 1.432.402 2.171s-1.037 1.219-1.84 1.219zm-33.382-4h28.669l-14.335-14.836z" fill="#690589"/><path d="m149.642 139.198h-23.712c-12.998 0-23.534-10.537-23.534-23.534 0-12.997 10.537-23.534 23.534-23.534h70.78c0 25.995-21.073 47.068-47.068 47.068z" fill="#7bac51"/><path d="m111.396 115.664c0-12.997 10.537-23.534 23.534-23.534h-9c-12.998 0-23.534 10.537-23.534 23.534 0 12.998 10.537 23.534 23.534 23.534h9c-12.998 0-23.534-10.537-23.534-23.534z" fill="#99ca6f"/><path d="m4 70.447h43.998v-26.684h-17.315c-14.737 0-26.683 11.947-26.683 26.684z" fill="#fcc24c"/><path d="m187.71 92.129c0 25.995-21.073 47.068-47.068 47.068h9c25.995 0 47.068-21.073 47.068-47.068z" fill="#5d8e33"/><path d="m75.197 33.527c0 2.905-2.355 5.26-5.26 5.26s-5.26-2.355-5.26-5.26 2.355-5.26 5.26-5.26 5.26 2.355 5.26 5.26z" fill="#7bac51"/><path d="m40.683 43.763h-10c-14.737 0-26.683 11.946-26.683 26.683h10c0-14.737 11.946-26.683 26.683-26.683z" fill="#fce06a"/><g fill="#690589"><path d="m55.998 99.269c-1.104 0-2-.896-2-2v-12c0-1.104.896-2 2-2s2 .896 2 2v12c0 1.104-.895 2-2 2z"/><path d="m149.642 141.197h-23.712c-14.079 0-25.534-11.454-25.534-25.533 0-14.08 11.455-25.534 25.534-25.534h70.78c1.104 0 2 .896 2 2 0 27.056-22.012 49.067-49.068 49.067zm-23.712-47.067c-11.874 0-21.534 9.66-21.534 21.534 0 11.873 9.66 21.533 21.534 21.533h23.712c24.181 0 43.975-19.142 45.024-43.067z"/><path d="m47.998 72.446h-43.998c-1.104 0-2-.896-2-2 0-15.816 12.867-28.683 28.684-28.683h17.314c1.104 0 2 .896 2 2v26.684c0 1.104-.895 1.999-2 1.999zm-41.918-4h39.918v-22.683h-15.314c-12.938 0-23.582 10.004-24.604 22.683z"/><path d="m69.938 40.786c-4.003 0-7.26-3.256-7.26-7.259s3.257-7.26 7.26-7.26 7.26 3.257 7.26 7.26-3.258 7.259-7.26 7.259zm0-10.518c-1.798 0-3.26 1.462-3.26 3.26 0 1.797 1.462 3.259 3.26 3.259s3.26-1.462 3.26-3.259c-.001-1.799-1.463-3.26-3.26-3.26z"/></g></svg>