<svg height="512" viewBox="0 0 58 58" width="512" xmlns="http://www.w3.org/2000/svg"><g id="Page-1" fill="none" fill-rule="evenodd"><g id="010---Turtle" fill-rule="nonzero"><path id="Shape" d="m36.964 14.064c.961-1.8 1.824-4.058 3.556-4.617 2.376-.764 6.336-1.513 7.941.092s.856 5.565.092 7.941c-.559 1.732-2.821 2.595-4.617 3.556z" fill="#14a085"/><g fill="#26b99a"><path id="Shape" d="m19.583 13.244c-.453-2.432-3.72-2.22-5.77-.17-2.475 2.475-6.013 3.875-7.863 3.267s.622-3.1 6.187-8.662 12.268-2.4 14.736.071c.7789919.65004469 1.2147254 1.62297381 1.181 2.637z"/><path id="Shape" d="m9.627 28.419c-2.305-.142-5.459-.043-6.873 1.371-2.362 2.362-3.472 8.351-2.254 9.568s4.158-2.942 5.954-3.508c.52767497-.1736103 1.09351782-.1954401 1.633-.063z"/><path id="Shape" d="m47.613 29.946c1.0140262-.0337254 1.9869553.4020081 2.637 1.181 2.468 2.468 5.636 9.171.071 14.736s-8.04 8.04-8.662 6.187.792-5.388 3.267-7.863c2.05-2.05 2.262-5.317-.17-5.77z"/><path id="Shape" d="m29.581 48.373c.142 2.3.043 5.459-1.371 6.873-2.362 2.362-8.351 3.472-9.568 2.256s2.942-4.158 3.508-5.954c.1736103-.527675.1954401-1.0935178.063-1.633z"/></g><path id="Shape" d="m9.273 44.541c-1.237 1.506-3.153 4.359-2.531 6.717 2.362.622 5.211-1.294 6.717-2.531z" fill="#14a085"/><path id="Shape" d="m42.8 40.65c-4.86 4.859-13.3 8.736-20.97 9.3-3.855.288-8.036-.233-10.85-2.93-2.695-2.812-3.217-7.01-2.93-10.85.521-7.1 4.065-15.735 9.3-20.97 7.724-7.724 15.638-5.574 23.33 2.12 7.725 7.725 9.82 15.634 2.12 23.33z" fill="#f0c419"/><circle id="Oval" cx="53" cy="24" fill="#3b97d3" r="2"/><circle id="Oval" cx="55" cy="3" fill="#3b97d3" r="3"/><circle id="Oval" cx="46" cy="2" fill="#3b97d3" r="2"/><circle id="Oval" cx="57" cy="19" fill="#2980ba" r="1"/><circle id="Oval" cx="57" cy="10" fill="#2980ba" r="1"/><path id="Shape" d="m46.51 35.53-3.7-1.468c1.576-3.253 1.243-7.407-4.26-13.2l2.83-2.832c-.23-.24-.46-.47-.7-.71s-.47-.47-.71-.7l-2.831 2.831c-5.794-5.5-9.948-5.836-13.2-4.26l-1.468-3.7c-.6124296.2806051-1.2039468.6047699-1.77.97l1.511 3.786c-.7211115.5414584-1.400984 1.135762-2.034 1.778-2.34038 2.4472832-4.2180334 5.2983213-5.542 8.415l-3.776-1.27c-.2666667.61-.5166667 1.23-.75 1.86l3.77 1.259c-2.2 5.875-2.7 12.018-.694 15.107l-2.866 2.874c.21.26.43.51.66.75.24.23.49.45.75.66l2.87-2.866c3.089 2.008 9.232 1.509 15.107-.694l1.259 3.77c.63-.23 1.25-.48 1.86-.75l-1.269-3.775c3.1166787-1.3239666 5.9677168-3.20162 8.415-5.542.6425081-.6327616 1.2368298-1.3126549 1.778-2.034l3.79 1.511c.3652301-.5660532.6893949-1.1575704.97-1.77z" fill="#f29c1f"/><path id="Shape" d="m34.731 29.712 12.419-2.482c-.175913-.6536122-.4032899-1.2922737-.68-1.91l-12.291 2.464-3.963-3.963 2.464-12.291c-.6177263-.2767101-1.2563878-.504087-1.91-.68l-2.482 12.419-5.588 1.525-7.33-7.334c-.42.52-.82 1.07-1.2 1.63l7.118 7.118-1.525 5.592-11.483 2.29c-.11.7-.18 1.4-.23 2.08l12.272-2.445 3.953 3.953-2.445 12.272c.68-.05 1.38-.12 2.08-.23l2.29-11.483 5.589-1.525 7.121 7.118c.56-.38 1.11-.78 1.63-1.2l-7.334-7.325z" fill="#e57e25"/></g></g></svg>