<?xml version="1.0" encoding="iso-8859-1"?>
<!-- Generator: Adobe Illustrator 19.0.0, SVG Export Plug-In . SVG Version: 6.00 Build 0)  -->
<svg version="1.1" id="Capa_1" xmlns="http://www.w3.org/2000/svg" xmlns:xlink="http://www.w3.org/1999/xlink" x="0px" y="0px"
	 viewBox="0 0 512 512" style="enable-background:new 0 0 512 512;" xml:space="preserve">
<g>
	<g>
		<path d="M337.523,311.428l-26.37,45.674l50.444,50.444c32.655-44.5,37.486-96.101,37.486-96.101L337.523,311.428z"/>
	</g>
</g>
<g>
	<g>
		<path d="M174.435,311.428l-61.56,0.017c0,0,4.831,51.601,37.486,96.101l50.444-50.444L174.435,311.428z"/>
	</g>
</g>
<g>
	<g>
		<path d="M255.97,139.746c-57.463,0-87.024,21.767-87.024,21.767l56.803,56.803h60.479l56.789-56.788
			C343.016,161.528,313.433,139.746,255.97,139.746z"/>
	</g>
</g>
<g>
	<g>
		<path d="M286.227,374.557h-60.479l-55.662,55.872c0,0,34.918,37.42,85.885,37.42c50.967,0,85.895-37.43,85.895-37.43
			L286.227,374.557z"/>
	</g>
</g>
<g>
	<g>
		<polygon points="283.781,248.296 228.194,248.296 200.4,296.437 228.194,344.577 283.781,344.577 311.576,296.437 		"/>
	</g>
</g>
<g>
	<g>
		<path d="M145.473,180.439c-21.628,22.77-34.692,55.682-34.692,100.219c0,0.263,0.007,0.525,0.008,0.788h63.647l26.37-45.674
			L145.473,180.439z"/>
	</g>
</g>
<g>
	<g>
		<path d="M366.483,180.457l-55.315,55.316l26.37,45.674h63.611c0.001-0.263,0.008-0.525,0.008-0.788
			C401.158,236.133,388.102,203.226,366.483,180.457z"/>
	</g>
</g>
<g>
	<g>
		<path d="M451.704,470.856c-4.19-31.403-21.785-59.037-47.235-76.391c-6.33,12.563-13.68,24.355-22.015,35.26
			c-15.823,20.703-34.323,37.122-54.985,48.815c2.456,2.529,5.024,4.958,7.727,7.253c19.977,16.995,45.346,26.199,71.299,26.199
			c4.819,0,9.659-0.317,14.488-0.961l35.446-4.728L451.704,470.856z"/>
	</g>
</g>
<g>
	<g>
		<path d="M468.195,201.269c-23.635-23.081-51.859-37.884-81.629-43.171c13.119,13.359,23.5,29.191,30.911,47.218
			c9.065,22.048,13.662,47.397,13.662,75.342c0,3.854-0.094,7.698-0.264,11.533c16.7,3.769,37.897,8.507,62.782,13.975l17.843,3.92
			l0.363-18.263C512.439,262.834,495.706,228.135,468.195,201.269z"/>
	</g>
</g>
<g>
	<g>
		<path d="M314.557,36.233L289.434,0h-66.928l-25.122,36.233c-13.297,19.176-17.345,44.171-10.833,66.859l4.566,15.909
			c19.693-6.101,41.471-9.237,64.854-9.237s45.159,3.135,64.854,9.237l4.566-15.909C331.903,80.404,327.853,55.409,314.557,36.233z"
			/>
	</g>
</g>
<g>
	<g>
		<path d="M125.357,158.115c-29.74,5.3-57.941,20.093-81.555,43.156C16.291,228.136-0.44,262.835,0.136,291.823l0.363,18.263
			l17.843-3.92c24.856-5.463,46.032-10.195,62.723-13.962c-0.171-3.839-0.265-7.687-0.265-11.546
			c0-27.945,4.596-53.294,13.662-75.342C101.871,187.296,112.246,171.47,125.357,158.115z"/>
	</g>
</g>
<g>
	<g>
		<path d="M129.486,429.726c-8.433-11.033-15.861-22.973-22.241-35.703c-25.7,17.37-43.479,45.172-47.695,76.787l-4.734,35.493
			l35.493,4.734c4.841,0.647,9.687,0.963,14.518,0.963c26,0,51.418-9.222,71.423-26.241c2.761-2.345,5.384-4.827,7.887-7.413
			C163.609,466.666,145.223,450.315,129.486,429.726z"/>
	</g>
</g>
<g>
</g>
<g>
</g>
<g>
</g>
<g>
</g>
<g>
</g>
<g>
</g>
<g>
</g>
<g>
</g>
<g>
</g>
<g>
</g>
<g>
</g>
<g>
</g>
<g>
</g>
<g>
</g>
<g>
</g>
</svg>
