<?xml version="1.0" encoding="iso-8859-1"?>
<!-- Generator: Adobe Illustrator 19.0.0, SVG Export Plug-In . SVG Version: 6.00 Build 0)  -->
<svg version="1.1" id="Layer_1" xmlns="http://www.w3.org/2000/svg" xmlns:xlink="http://www.w3.org/1999/xlink" x="0px" y="0px"
	 viewBox="0 0 511.978 511.978" style="enable-background:new 0 0 511.978 511.978;" xml:space="preserve">
<g>
	<path style="fill:#A0D468;" d="M258.864,170.863l54.826,33.015c1.719,1.046,3.625,1.531,5.5,1.531c3.609,0,7.14-1.828,9.14-5.156
		l49.529-82.247c5.874-9.749,7.593-21.218,4.858-32.28c-2.749-11.062-9.64-20.39-19.404-26.264
		c-6.641-4.016-14.25-6.125-21.984-6.125c-14.874,0-28.904,7.921-36.575,20.656l-49.515,82.23
		C252.193,161.27,253.817,167.832,258.864,170.863z"/>
	<path style="fill:#A0D468;" d="M328.33,311.741c-1.453-2.438-3.812-4.188-6.562-4.844c-2.75-0.688-5.656-0.25-8.078,1.219
		l-54.826,32.998c-5.047,3.03-6.671,9.593-3.625,14.624l49.515,82.247c7.671,12.75,21.701,20.656,36.575,20.656
		c7.734,0,15.344-2.094,21.984-6.125c9.765-5.875,16.655-15.188,19.404-26.249c2.734-11.062,1.016-22.531-4.858-32.312
		L328.33,311.741z"/>
	<path style="fill:#A0D468;" d="M164.54,73.992c-7.672-12.734-21.687-20.656-36.577-20.656c-7.734,0-15.328,2.109-21.983,6.125
		c-9.766,5.875-16.656,15.203-19.39,26.264c-2.75,11.062-1.031,22.531,4.844,32.28l49.529,82.247c2,3.328,5.531,5.156,9.156,5.156
		c1.858,0,3.765-0.484,5.483-1.531l54.826-33.015c5.047-3.031,6.672-9.593,3.641-14.64L164.54,73.992z"/>
	<path style="fill:#A0D468;" d="M210.428,341.114l-54.826-32.998c-2.422-1.469-5.327-1.906-8.077-1.219
		c-2.734,0.656-5.094,2.406-6.562,4.844l-49.514,82.215c-5.891,9.78-7.609,21.249-4.859,32.312
		c2.734,11.062,9.625,20.374,19.39,26.249c6.656,4.031,14.25,6.125,21.983,6.125l0,0c14.89,0,28.905-7.906,36.577-20.656
		l49.529-82.247C217.1,350.707,215.475,344.144,210.428,341.114z"/>
	<path style="fill:#A0D468;" d="M31.998,245.329H10.655C4.765,245.329,0,250.095,0,256.001c0,5.89,4.766,10.655,10.655,10.655
		h21.343c5.875,0,10.656-4.766,10.656-10.655C42.654,250.094,37.873,245.329,31.998,245.329z"/>
	<path style="fill:#A0D468;" d="M489.385,210.08c-13.999-11.656-32.498-18.077-52.075-18.077c-19.593,0-38.077,6.421-52.077,18.077
		c-14.577,12.14-22.592,28.452-22.592,45.92c0,17.46,8.015,33.771,22.592,45.896c14,11.656,32.484,18.093,52.077,18.093
		c19.577,0,38.076-6.437,52.075-18.093c14.562-12.125,22.593-28.437,22.593-45.896C511.978,238.532,503.947,222.22,489.385,210.08z"
		/>
</g>
<g>
	<path style="fill:#656D78;" d="M458.637,287.991c-5.891,0-10.656-4.78-10.656-10.655c0-5.898,4.766-10.68,10.656-10.68
		s10.671,4.781,10.671,10.68C469.308,283.211,464.527,287.991,458.637,287.991z"/>
	<path style="fill:#656D78;" d="M458.637,245.329c-5.891,0-10.656-4.781-10.656-10.672c0-5.89,4.766-10.655,10.656-10.655
		s10.671,4.765,10.671,10.655C469.308,240.548,464.527,245.329,458.637,245.329z"/>
</g>
<path style="fill:#F6BB42;" d="M430.92,184.784c-10.874-21.624-26.374-41.014-46.093-57.623
	c-40.201-33.858-93.542-52.498-150.181-52.498c-56.638,0-109.964,18.639-150.166,52.498c-19.733,16.609-35.232,35.999-46.092,57.623
	C27.06,207.314,21.326,231.282,21.326,256c0,24.71,5.734,48.678,17.062,71.207c10.859,21.624,26.359,40.999,46.092,57.623
	c40.202,33.843,93.528,52.498,150.166,52.498c56.639,0,109.979-18.655,150.181-52.498c19.719-16.624,35.219-35.999,46.093-57.623
	c11.312-22.529,17.062-46.497,17.062-71.207C447.981,231.282,442.231,207.315,430.92,184.784z"/>
<g>
	<path style="fill:#FFCE54;" d="M313.8,203.971l-73.811-42.67c-3.312-1.906-7.375-1.906-10.687,0l-73.81,42.67
		c-3.297,1.906-5.327,5.421-5.327,9.234v85.317c0,3.812,2.03,7.344,5.327,9.25l73.81,42.653c1.656,0.969,3.5,1.438,5.344,1.438
		s3.687-0.469,5.343-1.438l73.81-42.653c3.297-1.906,5.328-5.438,5.328-9.25v-85.317C319.128,209.393,317.096,205.877,313.8,203.971
		z"/>
	<path style="fill:#FFCE54;" d="M314.706,289.866c-4.78-3.438-11.437-2.344-14.89,2.406c-3.453,4.781-2.375,11.469,2.406,14.906
		l93.651,67.621c5.172-5.062,10-10.374,14.469-15.874L314.706,289.866z"/>
	<path style="fill:#FFCE54;" d="M234.646,330.52c-5.891,0-10.656,4.781-10.656,10.655v95.935c3.531,0.125,7.094,0.219,10.656,0.219
		c3.578,0,7.125-0.094,10.671-0.219v-95.935C245.318,335.301,240.536,330.52,234.646,330.52z"/>
	<path style="fill:#FFCE54;" d="M154.587,289.866l-95.636,69.06c4.469,5.5,9.296,10.781,14.484,15.874l93.652-67.621
		c4.766-3.438,5.844-10.125,2.406-14.906C166.039,287.491,159.368,286.428,154.587,289.866z"/>
	<path style="fill:#FFCE54;" d="M167.071,204.533l-93.652-67.324c-5.188,5.078-10.015,10.358-14.484,15.858l95.683,68.794
		c1.875,1.359,4.047,2,6.219,2c3.312,0,6.578-1.531,8.656-4.438C172.93,214.643,171.852,207.971,167.071,204.533z"/>
	<path style="fill:#FFCE54;" d="M234.646,74.664c-3.562,0-7.125,0.078-10.656,0.219v95.652c0,5.89,4.766,10.656,10.656,10.656
		s10.671-4.766,10.671-10.656V74.883C241.771,74.742,238.224,74.664,234.646,74.664z"/>
	<path style="fill:#FFCE54;" d="M395.889,137.209l-93.651,67.325c-4.781,3.438-5.875,10.109-2.438,14.89
		c2.078,2.906,5.359,4.438,8.672,4.438c2.155,0,4.327-0.641,6.218-2l95.668-68.794C405.889,147.567,401.061,142.271,395.889,137.209
		z"/>
</g>
<g>
</g>
<g>
</g>
<g>
</g>
<g>
</g>
<g>
</g>
<g>
</g>
<g>
</g>
<g>
</g>
<g>
</g>
<g>
</g>
<g>
</g>
<g>
</g>
<g>
</g>
<g>
</g>
<g>
</g>
</svg>
