<?xml version="1.0"?>
<svg xmlns:rdf="http://www.w3.org/1999/02/22-rdf-syntax-ns#" xmlns="http://www.w3.org/2000/svg" xmlns:cc="http://web.resource.org/cc/" xmlns:dc="http://purl.org/dc/elements/1.1/" id="svg2" viewBox="0 0 348.57 308.57" version="1.0">
  <g id="layer1" transform="translate(15.714 10.495)">
    <path id="path1906" d="m157.34 231.38c-0.08-1.27-2.73-2.36-6.04-2.48-3.24-0.11-4.47-0.58-2.72-1.04 1.75-0.45 3.17-2.04 3.17-3.52 0-1.49 0.79-2.22 1.75-1.62 1.04 0.64 1.98-4.98 2.35-13.96l0.61-15.04 0.37 16.79 0.37 16.79 7.71-0.22c7.24-0.2 7.38-0.3 2.27-1.6-5.02-1.28-5.09-1.4-0.9-1.57 6.08-0.26 12.7 1.62 12.7 3.6 0 0.88-4.42 1.6-9.83 1.6-6.17 0-10.17 0.85-10.75 2.27-0.73 1.82-0.94 1.82-1.06 0zm-51.42-3.47c1.25-0.5 3.29-0.5 4.54 0 1.25 0.51 0.23 0.92-2.27 0.92-2.49 0-3.51-0.41-2.27-0.92zm-23.137-1.93c-2.496-0.46-5.763-1.91-7.26-3.23-1.498-1.33-5.11-2.68-8.028-3.01-2.918-0.34-5.635-1.83-6.037-3.33-0.47-1.75-0.195-2.01 0.767-0.73 0.825 1.09 5.551 2.53 10.502 3.19s9.811 2.01 10.799 3c0.989 0.99 4.289 1.81 7.334 1.83 3.045 0.01 6.761 0.82 8.258 1.78 1.982 1.29 0.758 1.7-4.537 1.54-3.993-0.12-9.302-0.59-11.798-1.04zm37.597-0.86c-1.21-0.77 2.85-1.41 9.03-1.42 6.18-0.02 11.64 0.61 12.12 1.39 1.14 1.85-18.26 1.87-21.15 0.03zm-55.748-12.34l-6.352-1.34 6.863-0.24c4.81-0.17 7.161-1.19 7.856-3.41 0.547-1.75 2.106-5.27 3.466-7.81 2.086-3.92 7.961-19.22 11.094-28.9 0.761-2.35 1.076-2.35 2.637 0 1.251 1.89 1.412 1.13 0.545-2.59-0.864-3.7-0.618-4.88 0.832-3.99 1.343 0.83 1.667 0.25 0.931-1.66-0.621-1.62-0.266-4.73 0.787-6.9 1.053-2.18 2.407-6.23 3.01-9 1.676-7.72 6.599-11.4 21.199-15.86 7.36-2.25 13.72-4.39 14.13-4.75 0.85-0.75-5.28-13.2-8.01-16.27-1-1.13-4.54-5.08-7.88-8.79-3.34-3.706-5.63-7.174-5.1-7.703 1.21-1.213 12.04 10.803 15.84 17.583 1.58 2.81 4.3 7.29 6.05 9.96 3.67 5.61 3.89 5.19-4.37 8.76l-6.35 2.75 6.35 0.33c5.89 0.3 6.02 0.43 1.81 1.78-6.36 2.04-13.11 2.13-11.9 0.17 0.56-0.9-0.68-1.2-2.77-0.66-2.88 0.76-3.2 1.36-1.36 2.53 1.85 1.18 1.68 1.54-0.76 1.56-1.74 0.02-3.17 0.79-3.17 1.71s-2.04 4.09-4.53 7.05c-5.41 6.43-24.524 54.54-24.484 61.62 0.015 2.74 0.627 4.13 1.361 3.1 1.847-2.6 8.117-2.24 9.042 0.51 0.854 2.55-15.523 2.83-26.767 0.46zm16.272-13.52c0.116-3.12-3.107 1.52-4.346 6.26l-1.187 4.54 2.734-4.54c1.504-2.5 2.763-5.32 2.799-6.26zm5.453-14.61c0-1-0.791-0.59-1.759 0.9-0.968 1.5-1.76 3.54-1.76 4.54s0.792 0.59 1.76-0.91c0.968-1.49 1.759-3.54 1.759-4.53zm3.336-9.13c-0.559-0.56-1.574 0.45-2.256 2.24-0.985 2.59-0.776 2.8 1.016 1.02 1.241-1.23 1.798-2.7 1.24-3.26zm10.113-24c1.424-2.74 4.364-7.01 6.514-9.49 2.52-2.88 3.17-4.75 1.81-5.2-3.14-1.05-6.64 3.31-9.589 11.97-3.015 8.85-2.499 9.96 1.265 2.72zm203.5 8.79zm-250.48 47.02c-3.217-1.38-3.062-1.57 1.361-1.68 2.745-0.07 4.991 0.69 4.991 1.68 0 2.13-1.395 2.13-6.352 0zm-16.336-3.63c-0.617-1-0.305-1.81 0.693-1.81 0.999 0 2.32 0.81 2.937 1.81s0.305 1.82-0.693 1.82-2.32-0.82-2.937-1.82zm-12.286-3c1.229-0.5 3.679-0.53 5.445-0.07s0.761 0.87-2.234 0.9c-2.995 0.04-4.44-0.34-3.211-0.83zm126.84-13.53c-0.82-9.84-0.56-15.52 0.79-17.15 1.66-2-0.31-2.26-11.25-1.5-7.29 0.5-13.85 1.87-14.56 3.02-0.72 1.16-1.96 1.45-2.76 0.65-3.35-3.35 5.88-6.6 18.74-6.6 7.24 0 13.67-0.83 14.3-1.85 0.63-1.01 1.9-1.37 2.83-0.8s1.48-0.84 1.23-3.15c-0.26-2.46 0.45-4.01 1.72-3.77 1.19 0.24 3.9-2.01 6.02-4.99 3.63-5.09 3.07-6.47-2.29-5.62-0.75 0.11-1.36-0.51-1.36-1.39 0-2.41-19.34-11.09-25.01-11.22-4.77-0.11-4.8-0.17-0.85-1.76 3.18-1.28 6.79-0.25 16.33 4.65 11.71 6 13.11 6.28 31.54 6.29 12.06 0.01 22.02-0.96 26.6-2.57 4.03-1.42 7.85-2.06 8.5-1.42 0.64 0.64 0.65-0.44 0.02-2.41-1.03-3.23-0.94-3.27 0.9-0.39 1.55 2.4 4.52 3.17 12.24 3.17 5.61 0 9.68 0.52 9.05 1.14-1.38 1.39-37.01 4.66-55.2 5.08-7.2 0.16-13.36 0.67-13.69 1.12-0.32 0.46-3.21 3.92-6.42 7.7-10.16 11.98-9.78 12.16 25.48 12.37 17.22 0.1 33.36 0.78 35.85 1.53 2.5 0.74-12.12 1.27-32.49 1.18l-37.03-0.17-2.31 6.35c-2.07 5.7-2.32 5.88-2.45 1.73-0.07-2.55 0.77-5.54 1.88-6.65s1.66-3.11 1.22-4.44c-0.54-1.6-1.67-0.88-3.32 2.11-1.7 3.09-2.33 9.3-1.97 19.5 0.29 8.24 0.17 14.98-0.26 14.98-0.44 0-1.35-6.62-2.02-14.72zm139.56-0.67c-7.16-1.84-7.93-2.35-3.63-2.41 2.99-0.04 8.3 1.02 11.79 2.37 8 3.08 3.74 3.1-8.16 0.04zm-24.15-4.55c-5.7-1.35-10.08-3.74-6.56-3.58 4.53 0.21 21.01 5.05 17.09 5.03-2.49-0.02-7.23-0.67-10.53-1.45zm-18.86-6.09c-1.34-1.34-4.87-3.31-7.85-4.39l-5.41-1.97 5.55-0.14c3.24-0.08 8.09 1.74 11.69 4.39 5.29 3.91 5.61 4.54 2.3 4.54-2.12 0-4.95-1.09-6.28-2.43zm29.57-6.64l-4.1-9.08-10.29-0.1c-5.66-0.06-13.56-0.78-17.55-1.61-5.99-1.24-4.33-1.54 9.49-1.71l16.75-0.21-2.06-4.51c-1.13-2.48-5.76-6.31-10.3-8.5-4.53-2.2-7.28-4.31-6.1-4.71 1.18-0.39 4.66 1.07 7.73 3.26l5.57 3.97 5.29-5.19c3.95-3.88 5.3-6.92 5.34-12 0.03-4.25-0.8-6.81-2.22-6.83-1.66-0.02-1.71-0.38-0.16-1.37 1.48-0.94 0.93-2.71-1.87-5.97-3.41-3.95-5.45-4.61-14.04-4.53-6.77 0.07-11.02 1.07-13.01 3.06-1.63 1.63-2.45 3.46-1.84 4.08 0.62 0.62 0.34 1.13-0.63 1.13-0.96 0-2.73-0.98-3.93-2.18-1.69-1.7-2.18-1.7-2.18 0 0 1.2-1.84 2.16-4.08 2.15-3.3-0.02-3.56-0.37-1.36-1.79 2.18-1.41 1.87-1.76-1.56-1.79-2.91-0.02-3.97 0.78-3.31 2.49 0.68 1.77-0.08 2.25-2.51 1.61-1.91-0.5-3.03-1.63-2.48-2.52 1.37-2.21-5.93-2.02-10.21 0.26-1.92 1.03-4.75 4.3-6.28 7.26-2.12 4.1-4.05 5.4-8.03 5.4-2.89 0-5.66 1.02-6.17 2.27-0.61 1.52-0.96 1.35-1.06-0.52-0.08-1.68-3.43-3.75-8.5-5.24-7.09-2.1-8.61-2.09-10.05 0.05-1.32 1.95-1.59 1.74-1.18-0.95 0.4-2.62-1.02-3.89-5.75-5.14-3.46-0.92-8.36-3.09-10.89-4.82-2.54-1.74-9.1-5.43-14.59-8.2s-13.76-7.428-18.36-10.342c-5.47-3.458-9.52-4.861-11.66-4.04-2.56 0.979-3.02 0.585-2.12-1.78 0.67-1.746 0.29-3.038-0.9-3.038-1.14 0-3.36-1.154-4.93-2.565-3.269-2.922-55.192-29.092-61.404-30.946-2.247-0.671-4.084-1.807-4.084-2.525 0-1.791 18.516 0.551 31.763 4.017 14.809 3.874 14.865 3.847 6.962-3.447-3.829-3.534-7.779-7.251-8.777-8.258-13.749-13.88-15.721-16.421-14.736-18.989 0.937-2.441 2.206-2.164 8.823 1.93 4.25 2.63 14.054 7.785 21.787 11.455 7.969 3.784 14.124 7.854 14.21 9.397 0.103 1.864 0.44 2.007 1.066 0.454 0.504-1.248 2.685-2.212 4.85-2.141 3.82 0.124 3.83 0.175 0.3 1.779-2.495 1.137-1 1.325 4.79 0.605 4.63-0.577 12.8-0.206 18.15 0.823s15.45 2.82 22.44 3.979c6.98 1.159 21.75 4.903 32.82 8.321 22.83 7.053 40.67 18.187 51.58 32.2 7.99 10.261 11.88 12.061 26.12 12.061 18.05 0 28.33 7.6 28.33 20.96 0 4.99-5.17 15.34-7.65 15.34-1.82 0-1.89 14.5-0.07 14.59 6.51 0.31 23.3 2.33 23.9 2.88 0.42 0.37-4.31 0.68-10.5 0.68h-11.25l1.2 9.08c0.66 4.99 0.84 9.07 0.39 9.07s-2.67-4.08-4.92-9.07zm-106.36-56.27c0.62-1 0.31-1.81-0.69-1.81s-2.32 0.81-2.94 1.81c-0.61 1-0.3 1.82 0.7 1.82 0.99 0 2.32-0.82 2.93-1.82zm44.11-9.17c-1.69-0.99-5.78-2.07-9.07-2.4-3.3-0.33-8.36-1.25-11.24-2.036l-5.24-1.433 5.24-2.465 5.24-2.465-7.26 0.88c-6.56 0.796-6.82 0.681-2.72-1.187 2.5-1.137 5.76-1.863 7.26-1.613s2.15-0.126 1.45-0.835c-0.69-0.71-6-1.457-11.79-1.66-5.79-0.204-9.1-0.05-7.36 0.342 1.81 0.406 3.18 2.379 3.18 4.573 0 3.003-0.48 3.376-2.18 1.682-1.2-1.198-3.85-2.146-5.9-2.107-4.06 0.078 2.15 3.356 17.16 9.054 8.99 3.41 28.64 4.83 23.23 1.67zm-25.96-18.055c-0.61-0.998-2.5-1.758-4.19-1.687-2.5 0.104-2.4 0.415 0.56 1.687 4.86 2.087 4.92 2.087 3.63 0zm-16.79-3.017c-1.24-0.504-3.29-0.504-4.53 0-1.25 0.504-0.23 0.915 2.27 0.915 2.49 0 3.51-0.411 2.26-0.915zm-18.26-1.853c-1.31-0.524-2.88-0.46-3.48 0.143-0.6 0.604 0.47 1.033 2.38 0.954 2.12-0.087 2.55-0.517 1.1-1.097zm-49.77-15.912c-0.57-2.949 0.11-4.816 2-5.543 2.49-0.953 2.51-1.316 0.19-2.785-1.47-0.93-4.31-1.645-6.3-1.59-3.532 0.097-3.536 0.138-0.125 1.474 2.255 0.883 2.785 1.823 1.475 2.63-1.11 0.69-4.085-0.803-6.6-3.317-2.514-2.515-5.426-4.573-6.469-4.573-3.141 0-2.135-3.302 1.278-4.194 1.747-0.456 0.522-0.925-2.722-1.04-4.619-0.165-5.899-0.999-5.899-3.841 0-1.997-0.817-3.63-1.815-3.63s-1.815 0.817-1.815 1.815-0.817 1.815-1.815 1.815c-0.999 0-1.815-1.225-1.815-2.723 0-1.497-1.226-2.722-2.723-2.722-3.908 0-3.356 4.796 0.896 7.774 1.99 1.394 3.238 2.915 2.773 3.379-0.464 0.465 2.222 3.968 5.971 7.785 5.36 5.457 15.408 11.2 23.695 13.544 0.37 0.104 0.28-1.812-0.18-4.258zm46.71 2.632c-0.62-0.999-1.89-1.815-2.83-1.815s-1.71 0.816-1.71 1.815c0 0.998 1.27 1.815 2.83 1.815s2.32-0.817 1.71-1.815zm-38.12-10.891c-0.62-0.998-1.48-1.815-1.92-1.815s-0.8 0.817-0.8 1.815c0 0.999 0.86 1.815 1.92 1.815s1.42-0.816 0.8-1.815zm-47.212-21.326c-0.334-1.747-0.67-3.429-0.747-3.738-0.076-0.308-0.995-0.031-2.042 0.616-1.301 0.804-1.23 1.986 0.222 3.737 2.785 3.355 3.303 3.23 2.567-0.615zm-6.331-5.899c0-0.999-1.273-1.815-2.829-1.815-1.557 0-2.325 0.816-1.708 1.815 0.617 0.998 1.89 1.815 2.829 1.815 0.94 0 1.708-0.817 1.708-1.815zm9.554 143.9c2.759-0.42 6.843-0.41 9.075 0.02 2.233 0.44-0.025 0.78-5.016 0.76-4.991-0.01-6.818-0.36-4.059-0.78zm-46.308-1.97c-4.742-0.31-8.622-1.16-8.622-1.9 0-1.52 18.508-0.74 36.301 1.53l11.798 1.51-15.428-0.3c-8.485-0.16-19.308-0.54-24.049-0.84zm161.51-14.25c1.23-0.5 3.68-0.53 5.44-0.07 1.77 0.46 0.76 0.87-2.23 0.9-3 0.04-4.44-0.34-3.21-0.83zm31.8-0.14c3.74-0.39 9.86-0.39 13.61 0 3.74 0.4 0.68 0.72-6.81 0.72s-10.55-0.32-6.8-0.72zm-52.95-6.69c-0.08-1.91 0.35-2.98 0.95-2.38s0.67 2.17 0.14 3.48c-0.57 1.45-1 1.01-1.09-1.1zm19.79-16.53c-1.92-2.31-1.81-2.57 0.68-1.62 1.64 0.63 2.98 1.87 2.98 2.77 0 2.33-1.05 2-3.66-1.15zm29.25-1.18c1.76-1.24 0.02-1.49-5.62-0.82-5.57 0.67-7.01 0.46-4.54-0.63 2-0.89 6.2-1.67 9.33-1.74 6.91-0.15 9.61 4.28 2.86 4.69-3.48 0.22-3.97-0.15-2.03-1.5zm50.64 0.62c0-4.09-0.53-4.89-6.86-10.29l-6.38-5.44 5.26-1.15 5.26-1.14-4.99-0.22c-2.75-0.12-4.99-0.94-4.99-1.84 0-2.27 15.01 1.32 16.71 4 1.89 2.96 1.79 5.32-0.17 4.11-0.89-0.55-2.64 0.24-3.89 1.75-1.9 2.29-1.77 2.55 0.8 1.56 2.6-1 2.87-0.38 1.81 4.04-1.39 5.77-2.56 7.89-2.56 4.62zm-88.44-1.4c0.6-0.6 2.17-0.67 3.48-0.14 1.44 0.58 1.01 1.01-1.1 1.09-1.91 0.08-2.99-0.35-2.38-0.95zm92.42-2.08c0.33-1.75 1.81-3.18 3.28-3.18s2.95 1.43 3.29 3.18c0.43 2.23-0.55 3.18-3.29 3.18-2.73 0-3.71-0.95-3.28-3.18z"/>
  </g>
  <metadata>
    <rdf:RDF>
      <cc:Work>
        <dc:format>image/svg+xml</dc:format>
        <dc:type rdf:resource="http://purl.org/dc/dcmitype/StillImage"/>
        <cc:license rdf:resource="http://creativecommons.org/licenses/publicdomain/"/>
        <dc:publisher>
          <cc:Agent rdf:about="http://openclipart.org/">
            <dc:title>Openclipart</dc:title>
          </cc:Agent>
        </dc:publisher>
      </cc:Work>
      <cc:License rdf:about="http://creativecommons.org/licenses/publicdomain/">
        <cc:permits rdf:resource="http://creativecommons.org/ns#Reproduction"/>
        <cc:permits rdf:resource="http://creativecommons.org/ns#Distribution"/>
        <cc:permits rdf:resource="http://creativecommons.org/ns#DerivativeWorks"/>
      </cc:License>
    </rdf:RDF>
  </metadata>
</svg>
