<?xml version="1.0" encoding="iso-8859-1"?>
<!-- Generator: Adobe Illustrator 16.0.0, SVG Export Plug-In . SVG Version: 6.00 Build 0)  -->
<!DOCTYPE svg PUBLIC "-//W3C//DTD SVG 1.1//EN" "http://www.w3.org/Graphics/SVG/1.1/DTD/svg11.dtd">
<svg version="1.1" id="Capa_1" xmlns="http://www.w3.org/2000/svg" xmlns:xlink="http://www.w3.org/1999/xlink" x="0px" y="0px"
	 width="243.636px" height="243.637px" viewBox="0 0 243.636 243.637" style="enable-background:new 0 0 243.636 243.637;"
	 xml:space="preserve">
<g>
	<path d="M234.785,232.69c-0.857-4.049-21.268-99.556-62.932-140.308c-9.629-9.413-19.122-16.701-28.467-22.088
		c4.664-7.354,7.158-15.85,7.063-24.719c-0.13-12.371-5.213-23.936-14.292-32.562C117.604-4.618,87.734-4.291,69.582,13.734
		c-2.216,2.19-4.214,4.714-6.059,7.646L14.889,37.46c-3.715,1.229-6.227,4.702-6.227,8.618s2.512,7.392,6.227,8.621l48.651,16.086
		c1.259,1.998,2.646,3.771,4.091,5.441c-0.618,0.588-1.259,1.126-1.856,1.744C52.532,91.511,46.58,107.828,48.56,125.176
		c2.154,18.888,13.589,38.589,33.993,58.538c7.56,7.394,16.911,14.025,27.163,19.966v30.878h18.158v-21.444
		c43.471,20.304,93.452,29.832,96.354,30.376c0.567,0.105,1.123,0.147,1.667,0.147c2.423,0,4.77-0.97,6.489-2.731
		C234.5,238.73,235.399,235.657,234.785,232.69z M77.632,58.934c-1.103-2.04-2.944-3.582-5.14-4.309l-25.839-8.547l25.827-8.538
		c2.196-0.727,4.037-2.27,5.139-4.303c1.513-2.799,3.018-4.897,4.75-6.617c11.251-11.181,29.767-11.373,41.272-0.446
		c5.497,5.216,8.568,12.182,8.65,19.603c0.071,6.186-2.051,12.032-5.833,16.917c-6.479-2.063-12.868-3.225-19.14-3.225
		c-8.698,0-17.056,2.122-24.84,6.106C80.706,63.808,79.095,61.653,77.632,58.934z M66.585,123.116
		c-1.356-11.898,2.737-22.818,12.152-32.447c8.461-8.656,18.075-13.036,28.57-13.036c15.578,0,33.018,9.333,51.831,27.739
		c27.214,26.61,45.17,82.538,53.126,111.985c-65.987-25.741-84.681-89.4-84.869-90.074l-17.484,4.87
		c0.647,2.329,12.176,42.221,49.216,74.264c-23.867-8.802-48.521-20.635-63.907-35.684C77.904,153.77,68.254,137.751,66.585,123.116
		z"/>
</g>
<g>
</g>
<g>
</g>
<g>
</g>
<g>
</g>
<g>
</g>
<g>
</g>
<g>
</g>
<g>
</g>
<g>
</g>
<g>
</g>
<g>
</g>
<g>
</g>
<g>
</g>
<g>
</g>
<g>
</g>
</svg>
