<?xml version="1.0" encoding="iso-8859-1"?>
<!-- Generator: Adobe Illustrator 16.0.0, SVG Export Plug-In . SVG Version: 6.00 Build 0)  -->
<!DOCTYPE svg PUBLIC "-//W3C//DTD SVG 1.1//EN" "http://www.w3.org/Graphics/SVG/1.1/DTD/svg11.dtd">
<svg version="1.1" id="Capa_1" xmlns="http://www.w3.org/2000/svg" xmlns:xlink="http://www.w3.org/1999/xlink" x="0px" y="0px"
	 width="581.514px" height="581.514px" viewBox="0 0 581.514 581.514" style="enable-background:new 0 0 581.514 581.514;"
	 xml:space="preserve">
<g>
	<g>
		<path d="M498.666,234.091c-29.531-57.961-81.359-87.92-143.951-100.65c-2.844-0.579-5.785-1.542-8.225-3.06
			c-20.797-12.954-42.637-22.876-67.488-24.969c-1.534-0.131-2.86-3.583-4.145-5.578c-1.628-2.525-2.64-5.643-4.741-7.638
			c-16.846-16.022-37.911-24.357-59.637-30.653c-12.925-3.746-26.532-6.406-39.939-6.936c-22.591-0.894-37.679,12.142-42.367,34.227
			c-1.167,5.496-2.832,11.359-2.012,16.711c2.167,14.194-5.071,23.187-14.847,31.424C76.77,166.093,42.265,195.27,7.797,224.486
			c-3.272,2.774-6.185,5.977-7.797,10.759c0.469-1.391,6.173-3.807,7.523-4.655c2.95-1.852,5.883-3.725,8.805-5.618
			c1.697-1.097,3.366-2.24,5.055-3.35c9.229,1.848,33.513-11.432,70.621-31.24c66.337-35.411,72.359-23.26,72.359-23.26
			c9.555,7.25,28.633,33.056,29.739,42.391c2.089,17.654,4.463,35.467,9.135,52.555c3.786,13.839,14.076,23.803,27.789,29.571
			c2.632,1.106,5.149,3.02,7.091,5.142c15.239,16.654,33.448,29.262,53.346,39.608c14.736,7.666,21.297,22.812,17.445,39.384
			c-1.105,4.758-2.516,10.204-1.26,14.619c4.578,16.107-1.232,30.188-7.508,44.088c-4.725,10.466-9.975,20.85-16.307,30.396
			c-9.918,14.945-26.137,14.729-41.792,15.479c-3.611,0.171-17.124,7.952-20.694,9c2.864,2.493,15.516,0.833,18.609,1.15
			c9.266,0.955,18.695,0.343,28.748,0.343c-0.51,6.83-6.785,6.765-5.455,30.041c9.176-0.383,13.048-9.221,33.75-34.101
			c11.432,7.152,25.859-4.442,39.217,5.206c0.922-0.746,3.268-2.647,5.613-4.549c0.52,0.404,1.037,0.804,1.555,1.208
			c-6.891,9.147-13.781,18.294-20.674,27.438c0.678,0.959-4.268,4.798,0.037,10.857c4.342-8.72,14.705-12.669,19.785-16.646
			c9.383-7.356,18.217-6.688,27.592-0.959c7.055,4.309,13.105,14.541,22.135,17.605c-3.273-6.145,3.324-22.021-9.014-24.142
			c-14.867-19.857-17.229-40.833-7.426-63.46c5.088-11.742,11.008-23.276,14.566-35.488c3.375-11.587,5.529-23.909,5.684-35.94
			c0.146-11.404,1.297-19.087,14.002-23.456c10.416-3.582,19.707-10.877,28.936-17.328c5.484-3.831,9.527-3.668,15.133-0.273
			c14.742,8.939,29.918,17.161,43.631,24.941c3.99-2.211,6.488-4.558,9.254-4.945c6.883-0.963,13.889-1.22,20.85-1.399
			c5.789-0.15,11.918,0.723,11.094-7.021c6.865,3.868,12.785,9.013,19.502,10.465c6.564,1.42,13.945-0.922,20.967-1.615
			c0.689-1.469,1.383-2.934,2.076-4.402c-5.033-4.125-10.604-7.752-15.014-12.46C539.404,301.496,516.904,269.889,498.666,234.091z
			 M382.268,363.627c-0.895,2.754-3.232,5.047-4.1,7.805c-2.232,7.091-6.566,14.766-5.41,21.399
			c2.105,12.13-0.4,22.905-3.734,34.023c-3.615,12.057-6.988,24.187-10.521,36.267c-2.893,9.886-9.621,14.468-19.92,13.607
			c-2.957-0.249-5.902-0.698-8.857-1c-11.99-1.216-20.885-13.015-17.992-24.811c2.363-9.625,4.896-19.352,8.736-28.445
			c10.049-23.795,19.449-47.279-0.385-69.658c18.674,0,35.721,0.718,52.664-0.277C382.402,351.97,385.373,354.051,382.268,363.627z"
			/>
	</g>
</g>
<g>
</g>
<g>
</g>
<g>
</g>
<g>
</g>
<g>
</g>
<g>
</g>
<g>
</g>
<g>
</g>
<g>
</g>
<g>
</g>
<g>
</g>
<g>
</g>
<g>
</g>
<g>
</g>
<g>
</g>
</svg>
