<?xml version="1.0" encoding="iso-8859-1"?>
<!-- Generator: Adobe Illustrator 19.0.0, SVG Export Plug-In . SVG Version: 6.00 Build 0)  -->
<svg version="1.1" id="Capa_1" xmlns="http://www.w3.org/2000/svg" xmlns:xlink="http://www.w3.org/1999/xlink" x="0px" y="0px"
	 viewBox="0 0 512 512" style="enable-background:new 0 0 512 512;" xml:space="preserve">
<path style="fill:#867E88;" d="M379.871,107.562v33.032h12.387c25.085,0,45.419,20.335,45.419,45.419s-20.335,45.419-45.419,45.419
	H33.032C14.789,231.433,0,246.221,0,264.465c0,116.387,110.751,200.858,222.995,170.082l63.606-17.441l58.942-16.162l54.959-15.069
	C466.35,367.82,512,307.969,512,239.691v-0.001C512,166.717,452.844,107.562,379.871,107.562z"/>
<path style="fill:#6F6571;" d="M85.677,264.465c0-18.243,14.789-33.032,33.032-33.032H33.032C14.789,231.433,0,246.221,0,264.465
	c0,114.979,108.09,198.731,218.925,171.069C144.025,416.54,85.677,348.931,85.677,264.465z"/>
<path style="fill:#DBD9DC;" d="M180.989,272.723H0.245c5.099,112.076,113.184,191.866,222.75,161.824l63.606-17.441l21.304-5.842
	C181.043,385.8,180.989,272.723,180.989,272.723z"/>
<path style="fill:#C0BCC1;" d="M307.854,411.265c-48.278,2.349-99.682-9.943-136.596-37.942
	c-33.863-25.681-55.395-61.298-60.633-100.294c-0.015-0.112-0.087-0.197-0.106-0.306H94.42c-0.144,0.817-0.282,1.642-0.166,2.508
	c5.831,43.383,29.633,82.895,67.024,111.254c24.644,18.692,53.714,31.183,84.404,37.096c-44.811,0.681-88.876-13.258-123.96-39.862
	C84.645,355.602,61.093,316.3,55.403,273.054c-0.016-0.121-0.094-0.212-0.115-0.331h-16.09c-0.143,0.809-0.283,1.626-0.169,2.484
	c6.27,47.657,32.093,90.871,72.714,121.673c28.422,21.551,62.267,35.399,97.784,40.749c4.484-0.868,8.973-1.849,13.469-3.082
	l63.606-17.441L307.854,411.265L307.854,411.265z"/>
<circle style="fill:#4B3F4E;" cx="247.74" cy="272.72" r="16.516"/>
<path style="fill:#6F6571;" d="M349.837,433.729l-9.527-52.776c-1.866-10.336-12.096-16.928-22.279-14.357l-29.448,7.435
	c-11.56,2.919-17.258,15.987-11.427,26.387c9.029,16.106,24.695,37.725,48.62,50.856
	C337.885,457.92,352.308,447.319,349.837,433.729z"/>
<path style="fill:#5D5360;" d="M198.194,280.981c4.56,0,8.258-3.698,8.258-8.258s-3.698-8.258-8.258-8.258H0
	c0,5.591,0.333,11.082,0.832,16.516H198.194z"/>
<circle style="fill:#FFFFFF;" cx="251.75" cy="269.11" r="8.258"/>
<path style="fill:#6F6571;" d="M371.613,107.562c0,0-14.302-42.871-62.834-48.849c-2.619-0.323-4.073,2.76-2.435,4.829
	c3.847,4.862,7.463,13.999,7.463,31.174c0,22.021,16.516,29.362,16.516,29.362s-16.516,7.34-16.516,29.362
	c0,17.175-3.616,26.312-7.463,31.174c-1.638,2.069-0.184,5.152,2.435,4.829c48.533-5.978,62.834-48.849,62.834-48.849h15.537
	c8.728,0,16.667-6.337,17.429-15.031c0.726-8.279-4.683-15.349-12.163-17.368c-4.134-0.39-8.31-0.633-12.546-0.633
	C379.87,107.562,371.613,107.562,371.613,107.562z"/>
<g>
</g>
<g>
</g>
<g>
</g>
<g>
</g>
<g>
</g>
<g>
</g>
<g>
</g>
<g>
</g>
<g>
</g>
<g>
</g>
<g>
</g>
<g>
</g>
<g>
</g>
<g>
</g>
<g>
</g>
</svg>
