<?xml version="1.0" encoding="iso-8859-1"?>
<!-- Generator: Adobe Illustrator 19.0.0, SVG Export Plug-In . SVG Version: 6.00 Build 0)  -->
<svg version="1.1" id="Capa_1" xmlns="http://www.w3.org/2000/svg" xmlns:xlink="http://www.w3.org/1999/xlink" x="0px" y="0px"
	 viewBox="0 0 512 512" style="enable-background:new 0 0 512 512;" xml:space="preserve">
<circle style="fill:#80D5FF;" cx="254.306" cy="256" r="239.29"/>
<path style="fill:#B4E7FC;" d="M404.412,69.646h-24.555c-6.768,0-12.255,5.487-12.255,12.255c0,6.768,5.486,12.255,12.255,12.255
	h19.043c6.768,0,12.255,5.486,12.255,12.255c0,6.768-5.486,12.255-12.255,12.255c-9.661,0-68.205,0-76.67,0
	c-6.768,0-12.255,5.487-12.255,12.255c0,6.768,5.486,12.256,12.255,12.256c13.708,0,55.018,0,59.63,0
	c6.768,0,12.255,5.486,12.255,12.254c0,6.769-5.486,12.255-12.255,12.255h-5.161c-6.768,0-12.255,5.487-12.255,12.255
	s5.487,12.255,12.255,12.255h108.288C471.484,143.271,442.842,100.64,404.412,69.646z"/>
<path style="fill:#8C9DAD;" d="M508.543,191.274c-19.912-2.689-33.531-14.93-39.655-21.659c-2.277-2.501-4.005-5.444-5.081-8.651
	c-2.228-6.631-8.44-11.098-15.435-11.098l0,0c-3.686,0-7.284-1.176-10.218-3.406c-9.654-7.338-17.788-18.788-22.295-25.9
	c-1.797-2.833-5.984-2.594-7.483,0.409c-15.258,30.559-11.738,57.52-8.541,70.296c1.285,5.134-0.999,10.511-5.571,13.176
	c-10.279,5.991-27.789,12.948-51.774,15.277c3.484-36.021-59.518-7.108-59.521-7.107c-35.379-13.343-78.39-40.293-121.1-48.482
	c0,0-154.072-28.694-161.869,98.309c0,0,3.204,40.422,46.564,72.528c0,0,97.065,76.887,252.838,10.544
	c59.914-25.517,105.772-85.647,124.165-120.431c1.76-3.327,5.343-5.274,9.09-4.924c43.792,4.084,67.94-12.35,78.059-21.916
	C513.179,195.911,511.901,191.727,508.543,191.274z"/>
<path style="fill:#7389A0;" d="M139.617,342.615c-43.36-32.106-46.564-72.528-46.564-72.528
	c4.267-69.507,52.347-92.378,95.005-98.843c-8.697-2.97-17.449-5.441-26.19-7.116c0,0-154.072-28.695-161.869,98.309
	c0,0,3.204,40.423,46.564,72.528c0,0,57.582,45.59,155.205,36.249C161.733,360.117,139.617,342.615,139.617,342.615z"/>
<path style="fill:#EFEFEF;" d="M46.564,334.965c0,0,66.789,52.896,178.467,33.074l-21.931-37.554l-23.435-2.415
	c-59.381-7.21-87.981-62.232-87.981-62.232C39.271,255.345,0,262.437,0,262.437S3.204,302.86,46.564,334.965z"/>
<path style="fill:#DDDDDD;" d="M139.617,342.615c-43.36-32.106-46.564-72.528-46.564-72.528c0.034-0.55,0.079-1.089,0.117-1.634
	c-0.989-1.662-1.486-2.615-1.486-2.615C39.271,255.345,0,262.437,0,262.437l0,0c0,0,0.041,0.507,0.172,1.446
	c0.031,0.224,0.068,0.473,0.111,0.745c0.521,3.355,1.936,10.319,5.537,19.185c0.229,0.563,0.466,1.134,0.712,1.712
	c6.092,14.273,17.767,32.951,40.033,49.438c0,0,0.147,0.116,0.438,0.336l0.002,0.001c0.088,0.066,0.193,0.145,0.307,0.229
	c0.03,0.022,0.065,0.048,0.097,0.072c0.094,0.07,0.196,0.145,0.306,0.225c0.052,0.039,0.11,0.08,0.167,0.12
	c0.1,0.073,0.206,0.149,0.317,0.229c0.078,0.056,0.16,0.115,0.244,0.174c0.103,0.073,0.211,0.149,0.322,0.228
	c0.105,0.074,0.214,0.15,0.325,0.228c0.102,0.072,0.209,0.146,0.317,0.221c0.134,0.092,0.27,0.186,0.413,0.284
	c0.099,0.068,0.205,0.14,0.309,0.211c0.166,0.114,0.335,0.227,0.513,0.347c0.085,0.057,0.177,0.118,0.264,0.177
	c0.205,0.137,0.413,0.276,0.632,0.42c0.066,0.044,0.138,0.089,0.205,0.134c0.252,0.166,0.509,0.334,0.78,0.509
	c0.001,0.001,0.003,0.002,0.004,0.003c1.96,1.267,4.393,2.767,7.285,4.418c0.013,0.008,0.025,0.015,0.038,0.021
	c0.462,0.264,0.937,0.532,1.422,0.803c0.03,0.016,0.059,0.033,0.089,0.049c0.48,0.267,0.971,0.538,1.473,0.812
	c0.038,0.02,0.075,0.041,0.113,0.061c0.505,0.275,1.02,0.552,1.547,0.833c0.033,0.017,0.066,0.035,0.1,0.052
	c0.539,0.286,1.088,0.576,1.649,0.867c0.017,0.009,0.035,0.018,0.051,0.026c15.827,8.209,40.816,18.375,73.652,22.964
	c0.005,0.001,0.009,0.001,0.014,0.002c1.214,0.17,2.44,0.332,3.676,0.486l0,0c12.361,1.54,25.789,2.28,40.218,1.837
	c0.039-0.001,0.078-0.002,0.117-0.004c1.343-0.042,2.697-0.096,4.056-0.158c0.144-0.007,0.287-0.013,0.431-0.019
	c1.298-0.062,2.605-0.135,3.92-0.216c0.209-0.013,0.417-0.025,0.627-0.039c1.276-0.082,2.562-0.174,3.853-0.275
	c0.247-0.019,0.493-0.039,0.741-0.059c1.276-0.103,2.56-0.215,3.85-0.337c0.105-0.01,0.21-0.021,0.314-0.031
	C161.73,360.114,139.617,342.615,139.617,342.615z"/>
<circle style="fill:#EFEFEF;" cx="107.123" cy="221.638" r="11.16"/>
<g>
	<path style="fill:#DDDDDD;" d="M107.125,221.641c-2.065-3.575-1.915-7.813,0.005-11.151c-1.899-0.003-3.823,0.469-5.585,1.486
		c-5.338,3.082-7.166,9.907-4.085,15.244c3.082,5.338,9.907,7.166,15.244,4.085c1.762-1.017,3.132-2.448,4.08-4.093
		C112.933,227.207,109.189,225.216,107.125,221.641z"/>
	<path style="fill:#DDDDDD;" d="M191.347,333.849c-0.156,0-0.312-0.005-0.47-0.015c-65.099-4.253-99.23-60.638-100.651-63.036
		c-1.999-3.372-0.884-7.727,2.488-9.724c3.37-1.999,7.719-0.887,9.719,2.479l0,0c0.312,0.523,31.876,52.36,89.369,56.116
		c3.912,0.256,6.875,3.634,6.62,7.546C198.177,330.968,195.055,333.849,191.347,333.849z"/>
</g>
<g>
	<path style="fill:#CECCCA;" d="M209.285,366.332c-0.011,0-0.021,0-0.032,0c-102.524-0.456-151.705-79.019-164.337-103.086
		c-1.822-3.471-0.484-7.761,2.987-9.583c3.471-1.822,7.761-0.484,9.583,2.986c11.7,22.293,57.229,95.067,151.829,95.488
		c3.92,0.017,7.084,3.21,7.066,7.13C216.365,363.175,213.19,366.332,209.285,366.332z"/>
	<path style="fill:#CECCCA;" d="M50.726,303.443c-18.061-24.251-25.502-45.107-25.639-45.494c-1.286-3.701-5.327-5.659-9.031-4.376
		c-3.703,1.285-5.664,5.329-4.379,9.032c0.319,0.92,8.043,22.843,27.344,48.887c9.529,12.858,22.977,28.054,40.897,42.001
		c14.706,6.305,34.028,12.638,57.472,16.166C94.675,353.61,66.772,324.99,50.726,303.443z"/>
</g>
<path style="fill:#8C9DAD;" d="M136.45,288.161c1,0.486,2.057,0.716,3.099,0.716c2.631,0,5.16-1.471,6.389-3.996
	c1.714-3.525,0.246-7.772-3.28-9.486c-67.942-33.037-129.242-23.003-142.013-20.37c-0.27,2.412-0.49,4.878-0.645,7.412
	c0,0,0.207,2.594,1.217,6.984c0.157-0.027,0.315-0.051,0.473-0.09C2.331,269.176,66.459,254.127,136.45,288.161z"/>
<path style="fill:#7389A0;" d="M93.38,272.556c-0.255-1.59-0.326-2.468-0.326-2.468c0.256-4.173,0.675-8.172,1.236-12.016
	c-46.825-11.214-84.018-5.03-93.644-3.046l0,0c-0.126,1.127-0.239,2.269-0.342,3.422c-0.011,0.125-0.023,0.249-0.034,0.376
	c-0.103,1.19-0.195,2.393-0.27,3.614v0.001c0,0,0.001,0.011,0.002,0.025c0,0.004,0.001,0.007,0.001,0.011
	c0.028,0.32,0.272,2.851,1.214,6.948c0.157-0.027,0.315-0.052,0.473-0.09C2.195,269.209,42.178,259.833,93.38,272.556z"/>
<path id="SVGCleanerId_0" style="fill:#64C4FF;" d="M254.309,495.288c117.409,0,215.059-84.559,235.395-196.096
	c-4.75-5.729-10.068-10.742-19.368-10.742c-21.714,0-21.714,27.337-43.428,27.337c-21.225,0-21.713-26.108-42.006-27.281
	c-0.368-0.024-0.743-0.038-1.125-0.045c-0.1-0.001-0.192-0.012-0.292-0.012c-0.022,0-0.043,0.003-0.065,0.003
	c-0.035,0-0.068-0.003-0.103-0.003c-21.684,0-21.717,27.258-43.34,27.333c-21.624-0.076-21.657-27.333-43.34-27.333
	c-0.029,0-0.055,0.003-0.084,0.004c-0.029-0.001-0.055-0.004-0.084-0.004c-21.683,0-21.713,27.263-43.339,27.334
	c-21.628-0.07-21.66-27.334-43.343-27.334c-0.028,0-0.054,0.003-0.083,0.003c-0.028,0-0.054-0.003-0.083-0.003
	c-21.685,0-21.716,27.26-43.342,27.334c-21.625-0.074-21.656-27.334-43.339-27.334c-0.029,0-0.056,0.004-0.084,0.004
	c-0.029-0.001-0.056-0.004-0.086-0.004c-21.712,0-21.712,27.337-43.424,27.337s-21.712-27.337-43.423-27.337
	c-8.045,0-13.105,3.756-17.398,8.48C37.939,409.583,136.109,495.288,254.309,495.288z"/>
<g>
	<path id="SVGCleanerId_0_1_" style="fill:#64C4FF;" d="M254.309,495.288c117.409,0,215.059-84.559,235.395-196.096
		c-4.75-5.729-10.068-10.742-19.368-10.742c-21.714,0-21.714,27.337-43.428,27.337c-21.225,0-21.713-26.108-42.006-27.281
		c-0.368-0.024-0.743-0.038-1.125-0.045c-0.1-0.001-0.192-0.012-0.292-0.012c-0.022,0-0.043,0.003-0.065,0.003
		c-0.035,0-0.068-0.003-0.103-0.003c-21.684,0-21.717,27.258-43.34,27.333c-21.624-0.076-21.657-27.333-43.34-27.333
		c-0.029,0-0.055,0.003-0.084,0.004c-0.029-0.001-0.055-0.004-0.084-0.004c-21.683,0-21.713,27.263-43.339,27.334
		c-21.628-0.07-21.66-27.334-43.343-27.334c-0.028,0-0.054,0.003-0.083,0.003c-0.028,0-0.054-0.003-0.083-0.003
		c-21.685,0-21.716,27.26-43.342,27.334c-21.625-0.074-21.656-27.334-43.339-27.334c-0.029,0-0.056,0.004-0.084,0.004
		c-0.029-0.001-0.056-0.004-0.086-0.004c-21.712,0-21.712,27.337-43.424,27.337s-21.712-27.337-43.423-27.337
		c-8.045,0-13.105,3.756-17.398,8.48C37.939,409.583,136.109,495.288,254.309,495.288z"/>
</g>
<path style="fill:#80D5FF;" d="M254.309,495.288c90.444,0,169.16-50.184,209.846-124.219c-7.329-2.76-11.606-9.359-16.465-15.228
	c0.002-0.011,0.004-0.021,0.006-0.033c-4.75-5.729-10.068-10.742-19.368-10.742h-0.001h-0.001c-0.009,0-0.016,0.001-0.023,0.001
	c-0.015,0-0.028,0.001-0.044,0.001c-0.034,0-0.067-0.002-0.101-0.002c-21.684,0-21.717,27.258-43.34,27.333
	c-0.674-0.002-1.326-0.031-1.959-0.084c-0.029-0.002-0.056-0.008-0.085-0.011c-0.602-0.053-1.187-0.126-1.754-0.222
	c-0.049-0.009-0.095-0.021-0.144-0.03c-0.544-0.096-1.074-0.208-1.587-0.342c-0.054-0.015-0.105-0.033-0.159-0.047
	c-0.503-0.136-0.996-0.284-1.473-0.453c-0.05-0.018-0.099-0.04-0.149-0.058c-0.476-0.173-0.941-0.359-1.391-0.563
	c-0.041-0.018-0.08-0.04-0.119-0.059c-0.457-0.211-0.904-0.434-1.338-0.675c-0.025-0.014-0.049-0.029-0.075-0.044
	c-0.447-0.25-0.883-0.513-1.307-0.792c-0.007-0.005-0.014-0.01-0.021-0.015c-11.109-7.316-14.844-23.916-31.747-23.939
	c-0.011,0-0.021-0.001-0.032-0.001l0,0l0,0c-0.002,0-0.004,0-0.006,0c-0.02,0.001-0.039,0.002-0.058,0.002
	c-0.035,0-0.068-0.002-0.103-0.002h-0.001h-0.001c-3.981,0-7.227,0.924-10.014,2.425c-0.059,0.032-0.123,0.059-0.182,0.091
	c-0.115,0.063-0.221,0.136-0.334,0.201c-11.979,6.893-15.403,24.556-32.808,24.616c-21.625-0.076-21.657-27.333-43.34-27.333h-0.002
	c-0.001,0-0.001,0-0.002,0c-0.028,0-0.054,0.003-0.083,0.003c-0.027,0-0.051-0.002-0.079-0.003c-0.001,0-0.002,0-0.004,0l0,0l0,0
	c-21.684,0-21.717,27.258-43.341,27.333c-0.347-0.001-0.672-0.028-1.007-0.043c-0.319-0.015-0.649-0.016-0.959-0.042
	c-0.28-0.023-0.542-0.07-0.813-0.103c-0.346-0.043-0.7-0.074-1.034-0.131c-0.257-0.044-0.497-0.109-0.747-0.161
	c-0.331-0.069-0.669-0.129-0.989-0.213c-0.229-0.06-0.444-0.139-0.667-0.206c-0.324-0.097-0.654-0.186-0.968-0.298
	c-0.124-0.044-0.239-0.1-0.36-0.146c-14.462-5.479-16.984-25.993-35.797-25.993h-0.001l0,0c-0.029,0-0.054,0.003-0.083,0.003
	s-0.054-0.003-0.083-0.003c-0.001,0-0.001,0-0.002,0h-0.002c-8.093,0-13.169,3.8-17.478,8.565c-0.02,0.021-0.041,0.043-0.061,0.065
	c-0.296,0.329-0.587,0.665-0.877,1.003c-0.063,0.074-0.129,0.145-0.192,0.219c-0.227,0.266-0.45,0.537-0.674,0.807
	c-0.125,0.15-0.251,0.299-0.376,0.449c-0.112,0.136-0.221,0.274-0.332,0.411c-6.042,7.439-11.397,15.746-23.294,15.812
	c-0.019,0-0.038,0.002-0.057,0.002c-21.622-0.076-21.655-27.333-43.337-27.333c-0.026,0-0.05,0.003-0.076,0.003
	c-0.032,0-0.062-0.003-0.094-0.003h-0.001l0,0c-0.001,0-0.002,0-0.004,0c-0.609,0-1.194,0.028-1.769,0.07
	c-0.173,0.013-0.342,0.03-0.511,0.047c-0.419,0.04-0.829,0.09-1.232,0.151c-0.16,0.024-0.323,0.047-0.48,0.074
	c-0.524,0.092-1.038,0.198-1.535,0.325c-0.083,0.021-0.162,0.049-0.246,0.071c-0.416,0.113-0.824,0.237-1.222,0.372
	c-0.169,0.057-0.336,0.118-0.502,0.181c-0.316,0.117-0.628,0.243-0.934,0.375c-0.157,0.068-0.317,0.133-0.472,0.205
	c-0.416,0.192-0.824,0.395-1.221,0.612c-0.147,0.081-0.287,0.168-0.431,0.251c-0.266,0.153-0.529,0.31-0.787,0.474
	c-0.182,0.115-0.36,0.234-0.537,0.353c-0.216,0.147-0.429,0.298-0.64,0.45c-0.175,0.127-0.351,0.252-0.523,0.383
	c-0.325,0.249-0.645,0.507-0.957,0.771c-0.199,0.168-0.392,0.344-0.586,0.516c-0.148,0.131-0.294,0.262-0.44,0.396
	c-0.205,0.189-0.408,0.381-0.609,0.577c-0.116,0.113-0.23,0.227-0.345,0.342c-6.586,6.584-10.997,15.906-20.225,19.164
	C85.262,445.174,163.929,495.288,254.309,495.288z"/>
<path style="fill:#B4E7FC;" d="M254.309,495.288c63.187,0,120.642-24.503,163.413-64.508c-0.357-0.171-0.713-0.343-1.055-0.532
	c-0.025-0.014-0.049-0.029-0.075-0.044c-0.447-0.25-0.883-0.513-1.307-0.792c-0.007-0.005-0.014-0.01-0.021-0.015
	c-11.11-7.316-14.844-23.916-31.748-23.939c-0.011,0-0.021-0.001-0.032-0.001l0,0h-0.001c-0.002,0-0.004,0-0.006,0
	c-0.02,0.001-0.039,0.002-0.058,0.002c-0.035,0-0.068-0.002-0.103-0.002h-0.001h-0.001c-3.98,0-7.227,0.924-10.014,2.425
	c-0.059,0.032-0.123,0.059-0.182,0.091c-0.115,0.063-0.221,0.136-0.334,0.201c-11.979,6.893-15.403,24.556-32.808,24.616
	c-21.625-0.076-21.657-27.333-43.34-27.333h-0.002c0,0-0.001,0-0.002,0c-0.028,0-0.054,0.003-0.083,0.003
	c-0.027,0-0.051-0.002-0.079-0.003c-0.001,0-0.002,0-0.003,0h-0.001l0,0c-21.684,0-21.717,27.258-43.341,27.333
	c-0.347-0.001-0.672-0.028-1.008-0.043c-0.319-0.015-0.649-0.016-0.959-0.042c-0.28-0.023-0.542-0.07-0.813-0.103
	c-0.346-0.043-0.7-0.074-1.034-0.131c-0.257-0.044-0.497-0.109-0.747-0.161c-0.331-0.069-0.669-0.129-0.989-0.213
	c-0.229-0.06-0.444-0.139-0.667-0.206c-0.324-0.097-0.654-0.186-0.968-0.298c-0.123-0.044-0.239-0.099-0.36-0.146
	c-14.462-5.479-16.984-25.993-35.797-25.993h-0.001h-0.001c-0.028,0-0.054,0.003-0.083,0.003c-0.028,0-0.054-0.003-0.083-0.003
	h-0.001c-0.001,0-0.002,0-0.003,0c-8.093,0-13.169,3.8-17.478,8.565c-0.019,0.022-0.041,0.044-0.061,0.065
	c-0.296,0.329-0.587,0.665-0.878,1.003c-0.063,0.074-0.129,0.145-0.192,0.219c-0.227,0.266-0.45,0.537-0.674,0.807
	c-0.124,0.15-0.251,0.299-0.376,0.449c-0.112,0.136-0.221,0.274-0.332,0.411c-6.042,7.439-11.396,15.746-23.294,15.813
	c-0.019,0-0.038,0.002-0.057,0.002c-21.622-0.076-21.655-27.333-43.337-27.333c-0.026,0-0.05,0.003-0.076,0.003
	c-0.032,0-0.061-0.003-0.094-0.003h-0.001l0,0c-0.001,0-0.002,0-0.004,0c-0.609,0-1.194,0.028-1.769,0.07
	c-0.173,0.013-0.342,0.03-0.512,0.047c-0.419,0.04-0.829,0.09-1.232,0.151c-0.16,0.024-0.323,0.047-0.48,0.074
	c-0.524,0.092-1.038,0.198-1.535,0.325c-0.083,0.021-0.162,0.049-0.246,0.071c-0.416,0.113-0.824,0.237-1.222,0.372
	c-0.169,0.057-0.336,0.118-0.502,0.18c-0.317,0.117-0.628,0.243-0.934,0.375c-0.157,0.068-0.317,0.133-0.472,0.204
	c-0.416,0.192-0.824,0.395-1.221,0.612c-0.147,0.081-0.287,0.168-0.431,0.251c-0.266,0.153-0.529,0.31-0.787,0.474
	c-0.182,0.115-0.36,0.234-0.537,0.353c-0.216,0.147-0.429,0.298-0.64,0.45c-0.175,0.127-0.352,0.252-0.523,0.383
	c-0.325,0.249-0.645,0.507-0.957,0.771c-0.199,0.168-0.392,0.344-0.586,0.516c-0.148,0.131-0.294,0.262-0.44,0.396
	c-0.205,0.189-0.408,0.381-0.608,0.577c-0.116,0.113-0.23,0.227-0.345,0.342c-5.698,5.697-9.772,13.438-16.742,17.532
	C132.901,470.464,190.703,495.288,254.309,495.288z"/>
<path style="fill:#7389A0;" d="M433.314,142.339c-7.505-7.039-13.724-15.893-17.456-21.779c-1.797-2.834-5.984-2.594-7.483,0.408
	c-15.258,30.559-11.738,57.519-8.541,70.296c1.285,5.134-0.999,10.512-5.571,13.177c0,0,26.684-12.783,26.684-40.609
	C420.948,150.954,426.91,145.013,433.314,142.339z"/>
<g>
	<path style="fill:#B4E7FC;" d="M189.506,153.522h-18.262c-6.768,0-12.255-5.486-12.255-12.255c0-6.769,5.486-12.255,12.255-12.255
		h18.262c6.768,0,12.255,5.486,12.255,12.255C201.761,148.036,196.274,153.522,189.506,153.522z"/>
	<path style="fill:#B4E7FC;" d="M219.973,79.994c-8.465,0-45.655,0-55.316,0c-6.768,0-12.255-5.486-12.255-12.255
		c0-6.768,5.486-12.255,12.255-12.255H183.7c6.768,0,12.255-5.487,12.255-12.255s-5.486-12.255-12.255-12.255h-10.967
		c-40.901,14.831-76.604,40.497-103.649,73.528h112.613c3.741,0,10.251,0,27.968,0c4.133,0,7.715,0,10.308,0
		c6.768,0,12.255-5.487,12.255-12.255C232.227,85.481,226.741,79.994,219.973,79.994z"/>
</g>
<g>
</g>
<g>
</g>
<g>
</g>
<g>
</g>
<g>
</g>
<g>
</g>
<g>
</g>
<g>
</g>
<g>
</g>
<g>
</g>
<g>
</g>
<g>
</g>
<g>
</g>
<g>
</g>
<g>
</g>
</svg>
