<svg id="Capa_1" enable-background="new 0 0 512 512" height="512" viewBox="0 0 512 512" width="512" xmlns="http://www.w3.org/2000/svg"><g id="XMLID_1329_"><g id="XMLID_1398_"><path id="XMLID_562_" d="m467.332 57.948c-43.23-23.408-92.917-36.412-145.703-35.654-35.06.504-68.645 7.127-99.761 18.827-14.965 5.627-31.677 2.419-43.948-7.83-17.408-14.54-39.82-23.291-64.276-23.291-13.409 0-26.201 2.637-37.893 7.41 30.842 12.59 54.015 40.083 60.568 73.533-66.319 55.183-108.343 138.548-107.556 231.146.208 24.483 3.376 48.262 9.163 70.993 2.361 9.274 2.292 18.989-.048 28.269-2.404 9.532-3.685 19.511-3.685 29.789 0 18.158 3.985 35.384 11.116 50.86 22.353-11.146 40.789-28.97 52.707-50.855 13.439 5.114 28.009 7.933 43.243 7.933 9.864 0 19.451-1.182 28.635-3.397-11.997-31.421-36.64-56.593-67.706-69.288-15.512-6.339-24.019-23.151-19.395-39.258 18.852-65.672 70.923-116.005 139.792-135.949 12.168-3.991 24.051-7.785 35.668-11.465 1.168 7.02 2.582 14.047 4.269 21.074 4.543 18.932 10.805 37 18.544 54.105 37-16.137 58.258-56.919 48.511-97.536-.043-.178-.091-.354-.135-.532 52.82-17.84 99.472-37.081 141.411-67.857 17.959-13.182 16.071-40.419-3.521-51.027z" fill="#8aa8bd"/></g><g id="XMLID_1395_"><path id="XMLID_12_" d="m394.032 95.616c-33.772 9.865-58.127 39.308-61.485 74.33l6.211 3.697c49.008-16.973 92.638-35.716 132.092-64.67 12.322-9.042 15.299-24.698 9.632-37.063h-5.292z" fill="#fff"/></g><g id="XMLID_1327_"><path id="XMLID_13_" d="m106.68 294.995c-7.56-11.069-11.981-24.452-11.981-38.868 0-38.108 30.892-69 69-69 21.681 0 41.026 10 53.676 25.638l-61.338 28.296z" fill="#fff"/></g><g id="XMLID_1146_"><ellipse cx="322.927" cy="89.281" fill="#fff" rx="36.833" ry="20.945" transform="matrix(.975 -.221 .221 .975 -11.742 73.487)"/></g><g id="XMLID_573_"><path id="XMLID_574_" d="m60 197.13c2.63 0 5.21-1.07 7.07-2.93s2.93-4.44 2.93-7.07c0-2.64-1.07-5.21-2.93-7.08-1.86-1.86-4.44-2.92-7.07-2.92s-5.21 1.06-7.07 2.92c-1.86 1.87-2.93 4.45-2.93 7.08s1.07 5.2 2.93 7.07c1.86 1.86 4.439 2.93 7.07 2.93z"/><path id="XMLID_577_" d="m493.152 81.83c-.948-13.834-8.82-26.049-21.058-32.676-45.928-24.869-98.02-37.636-150.608-36.859-35.438.51-70.138 7.059-103.137 19.466-11.34 4.264-24.375 1.908-34.019-6.145-19.776-16.518-44.88-25.616-70.686-25.616-14.403 0-28.423 2.743-41.673 8.152-3.762 1.535-6.22 5.194-6.22 9.258 0 4.063 2.459 7.723 6.221 9.259 26.498 10.816 46.062 33.211 53.247 60.58-18.929 16.399-35.821 35.044-50.27 55.497-3.186 4.511-2.113 10.75 2.398 13.938 4.511 3.186 10.751 2.112 13.938-2.398 14.627-20.705 31.93-39.43 51.43-55.656 2.81-2.338 4.12-6.022 3.417-9.609-5.468-27.91-21.289-52.142-43.855-68.313 3.749-.47 7.541-.706 11.367-.706 21.128 0 41.679 7.446 57.867 20.966 15.163 12.665 35.807 16.308 53.879 9.516 30.832-11.593 63.261-17.713 96.385-18.188 48.475-.698 96.44 10.867 138.898 33.44l-69.444 20.284c-9.835 2.873-18.924 7.202-27.069 12.709 4.318-6.298 5.933-13.213 4.446-19.785v.001c-3.895-17.206-26.466-25.738-52.508-19.843-26.04 5.893-42.741 23.312-38.847 40.52 3.064 13.535 17.684 21.701 36.461 21.7 5.092 0 10.492-.601 16.047-1.858 6.481-1.467 12.59-3.752 17.98-6.672-8.999 9.681-15.95 21.201-20.322 33.925-1.708-2.716-3.556-5.356-5.55-7.909-3.4-4.352-9.685-5.124-14.037-1.725-4.353 3.399-5.125 9.684-1.725 14.037 6.598 8.445 11.223 18.062 13.746 28.579 7.687 32.03-6.372 64.752-33.844 81.405-5.664-13.831-10.281-28.131-13.763-42.642-2.846-11.86-4.968-23.98-6.306-36.021-.61-5.489-5.548-9.453-11.044-8.834-5.489.609-9.444 5.555-8.834 11.043.301 2.706.647 5.415 1.021 8.125-7.945 2.529-17.109 5.469-26.489 8.54-14.859-15.449-35.235-24.187-56.893-24.187-43.561 0-79 35.439-79 79 0 13.746 3.524 27.056 10.226 38.88-9.349 15.271-16.706 31.818-21.743 49.367-.626 2.18-1.058 4.372-1.326 6.56-2.366-.505-4.801-.775-7.275-.775-8.866 0-16.966 3.326-23.132 8.789-1.675-12.209-2.58-24.555-2.685-36.942-.261-30.752 4.355-61.085 13.723-90.156 1.694-5.256-1.194-10.891-6.451-12.585-5.258-1.691-10.892 1.194-12.585 6.452-10.024 31.11-14.965 63.563-14.685 96.459.211 24.831 3.397 49.518 9.471 73.375 1.918 7.534 1.9 15.61-.053 23.357-2.647 10.495-3.989 21.341-3.989 32.234 0 19.198 4.05 37.718 12.035 55.045 1.132 2.457 3.212 4.351 5.764 5.248 1.077.379 2.198.566 3.317.566 1.534 0 3.063-.353 4.463-1.051 21.764-10.852 39.851-27.242 52.729-47.691 12.531 3.864 25.532 5.819 38.759 5.819 10.442 0 20.865-1.237 30.98-3.676 2.794-.675 5.164-2.519 6.503-5.062s1.52-5.54.494-8.226c-12.948-33.914-39.653-61.242-73.266-74.979-10.912-4.459-16.744-16.171-13.566-27.242 17.762-61.874 67.467-110.137 132.961-129.103.112-.032.224-.067.335-.104 8.673-2.844 17.199-5.586 24.783-8.005.714 3.497 1.482 6.983 2.313 10.446 4.595 19.149 11.04 37.954 19.157 55.895 1.67 3.69 5.306 5.88 9.116 5.88 1.335 0 2.692-.269 3.993-.836 39.524-17.237 62.04-58.594 55.869-100.584 45.263-15.597 92.642-34.747 135.836-66.445 11.203-8.226 17.329-21.387 16.382-35.208zm-394.747 313.818c24.748 10.113 45.08 28.912 57.2 52.51-4.75.611-9.545.919-14.346.919-13.64 0-26.993-2.449-39.687-7.279-4.675-1.777-9.946.172-12.338 4.564-9.288 17.058-22.617 31.198-38.906 41.38-4.075-11.716-6.134-23.982-6.135-36.602 0-9.246 1.138-18.446 3.381-27.344 1.489-5.905 2.173-11.96 2.066-17.969.001-.054.008-.107.008-.161v-20.576c0-8.233 6.699-14.933 14.932-14.933 5.039 0 9.711 2.545 12.46 6.711 4.627 8.2 11.982 14.946 21.365 18.78zm9.72-119.667c-2.256-6.318-3.426-13.012-3.426-19.854 0-32.532 26.467-59 59-59 12.856 0 25.097 4.142 35.157 11.629-36.598 14.512-67.741 37.802-90.731 67.225zm236.733-185.391c-4.585 4.183-11.697 7.597-19.515 9.366-16.236 3.672-27.735-.988-28.587-4.751-.852-3.764 7.52-12.924 23.755-16.599 4.171-.943 8.03-1.337 11.476-1.337 9.965 0 16.477 3.292 17.11 6.088v.001c.315 1.388-.874 4.162-4.239 7.232zm120.077 10.321c-38.064 27.933-80.085 45.814-120.865 60.288 6.048-26.702 25.926-48.144 52.765-55.984l76.336-22.297c.008.094.021.185.028.28.482 7.048-2.53 13.505-8.264 17.713z"/></g></g></svg>