<svg id="Capa_1" enable-background="new 0 0 512.001 512.001" height="512" viewBox="0 0 512.001 512.001" width="512" xmlns="http://www.w3.org/2000/svg"><path d="m353 88.001c-.354.097.36-.078 0 0z"/><path d="m159 88.001c-.36-.078.356.098 0 0z"/><path d="m204 201.001c.429.224-.412-.255 0 0z"/><path d="m469.291 1.377c-8.048-3.152-17.218-.773-22.721 5.898-12.618 15.3-33.023 27.133-55.57 32.726-17.033 3.242-39.318 7.426-47.649 9.65-33.208 7.308-57.368 21.017-75.984 43.107-1.646 1.76-6.63 6.053-11.315 9.835-4.688-3.782-9.672-8.077-11.315-9.835-18.619-22.093-42.777-35.8-75.985-43.107-8.327-2.224-29.72-6.409-46.75-9.65-22.63-5.612-43.97-17.446-56.572-32.726-5.503-6.671-14.671-9.049-22.721-5.898-8.052 3.153-13.167 11.123-12.676 19.757.724 12.754 1.752 23.969 3.056 33.331 5.615 40.345 13.773 67.01 27.276 89.16 14.598 23.945 35.835 43.13 68.859 62.206 15.27 8.82 48.645 26.871 54.839 30.167 7.477 4.778 9.938 9.785 9.938 11.003v37c0 11.046 8.954 20 20 20s20-8.954 20-20v-37c0-17.001-11.585-34.608-30-46-2.211-1.155-38.949-20.669-54.769-29.807-46.453-26.832-64.184-51.1-73.969-105.991 11 5.771 25.079 10.701 37.737 13.798 23.782 4.526 41.105 7.648 46 9 24.77 5.388 42.316 15.267 55.227 30.627 2.799 3.331 24.985 24.062 35.854 27.461 3.888 1.216 8.055 1.215 11.94 0 10.866-3.399 33.052-24.127 35.853-27.459 12.91-15.361 30.356-25.24 55.126-30.628 4.898-1.353 22.213-4.473 46-9 12.66-3.097 26.839-8.037 37.845-13.827-9.784 54.913-27.513 79.182-73.976 106.02-12.874 7.437-41.693 21.967-52.542 27.437-2.435 1.227-5.406 2.771-5.817 3.026-17.319 10.711-28.51 28.51-28.51 45.343v37c0 11.046 8.954 20 20 20s20-8.954 20-20l-.001-36.945c.116-1.634 2.865-7.011 8.968-11.009.717-.363 1.87-.944 3.367-1.699 11.127-5.609 40.685-20.511 54.543-28.517 33.024-19.076 54.262-38.261 68.859-62.206 13.504-22.15 21.662-48.815 27.278-89.162 1.59-11.427 2.413-23.814 2.953-33.329.491-8.634-4.623-16.604-12.676-19.757z"/><path d="m483.288 452.153c-8.573-10.265-21.436-16.152-35.288-16.152s-26.715 5.887-35.288 16.152c-10.536 12.614-21.001 19.848-28.712 19.848s-18.176-7.234-28.712-19.848c-8.573-10.265-21.436-16.152-35.288-16.152s-26.715 5.887-35.288 16.152c-10.536 12.614-21.001 19.848-28.712 19.848s-18.176-7.234-28.712-19.848c-8.573-10.265-21.436-16.152-35.288-16.152s-26.715 5.887-35.288 16.152c-10.536 12.614-21.001 19.848-28.712 19.848s-18.176-7.234-28.712-19.848c-8.573-10.265-21.435-16.152-35.288-16.152s-26.715 5.887-35.288 16.152c-10.536 12.613-21.001 19.848-28.712 19.848v40c20.464 0 40.453-11.508 59.411-34.206.938-1.124 2.654-1.794 4.589-1.794s3.65.67 4.589 1.794c18.958 22.697 38.947 34.206 59.411 34.206s40.453-11.508 59.411-34.206c.938-1.124 2.654-1.794 4.589-1.794s3.65.67 4.589 1.794c18.958 22.697 38.947 34.206 59.411 34.206s40.453-11.508 59.411-34.206c.938-1.124 2.654-1.794 4.589-1.794s3.65.67 4.589 1.794c18.958 22.697 38.947 34.206 59.411 34.206s40.453-11.508 59.411-34.206c.938-1.124 2.654-1.794 4.589-1.794s3.65.67 4.589 1.794c18.958 22.697 38.947 34.206 59.411 34.206v-40c-7.711 0-18.175-7.235-28.712-19.848z"/><path d="m483.288 352.153c-8.573-10.265-21.436-16.152-35.288-16.152s-26.715 5.887-35.288 16.152c-10.536 12.614-21.001 19.848-28.712 19.848s-18.176-7.234-28.712-19.848c-8.573-10.265-21.436-16.152-35.288-16.152s-26.715 5.887-35.288 16.152c-10.536 12.614-21.001 19.848-28.712 19.848s-18.176-7.234-28.712-19.848c-8.573-10.265-21.436-16.152-35.288-16.152s-26.715 5.887-35.288 16.152c-10.536 12.614-21.001 19.848-28.712 19.848s-18.176-7.234-28.712-19.848c-8.573-10.265-21.435-16.152-35.288-16.152s-26.715 5.887-35.288 16.152c-10.536 12.613-21.001 19.848-28.712 19.848v40c20.464 0 40.453-11.508 59.411-34.206.938-1.124 2.654-1.794 4.589-1.794s3.65.67 4.589 1.794c18.958 22.697 38.947 34.206 59.411 34.206s40.453-11.508 59.411-34.206c.938-1.124 2.654-1.794 4.589-1.794s3.65.67 4.589 1.794c18.958 22.697 38.947 34.206 59.411 34.206s40.453-11.508 59.411-34.206c.938-1.124 2.654-1.794 4.589-1.794s3.65.67 4.589 1.794c18.958 22.697 38.947 34.206 59.411 34.206s40.453-11.508 59.411-34.206c.938-1.124 2.654-1.794 4.589-1.794s3.65.67 4.589 1.794c18.958 22.697 38.947 34.206 59.411 34.206v-40c-7.711 0-18.175-7.235-28.712-19.848z"/></svg>