<?xml version="1.0" encoding="iso-8859-1"?>
<!-- Generator: Adobe Illustrator 19.0.0, SVG Export Plug-In . SVG Version: 6.00 Build 0)  -->
<svg version="1.1" id="Layer_1" xmlns="http://www.w3.org/2000/svg" xmlns:xlink="http://www.w3.org/1999/xlink" x="0px" y="0px"
	 viewBox="0 0 512.002 512.002" style="enable-background:new 0 0 512.002 512.002;" xml:space="preserve">
<path style="fill:#5B83CC;" d="M484.906,374.177c14.066-80.036-8.405-181.183-102.555-194.488
	c-57.806-8.168-113.963,19.432-158.475,53.962c-24.188,18.764-78.291,82.316-112.636,53.986
	c-9.02-7.441-11.354-20.788-11.669-31.823v-0.719c8.828-2.247,17.59-7.123,24.969-14.501c13.073-13.073,18.296-30.488,14.948-44.922
	c-14.434-3.348-31.849,1.875-44.922,14.948c-7.935,7.935-12.958,17.469-14.948,26.967c-1.99-9.496-7.013-19.031-14.948-26.967
	c-13.073-13.073-30.488-18.296-44.922-14.948c-3.348,14.434,1.875,31.849,14.948,44.922c8.325,8.325,18.41,13.452,28.366,15.224
	l-0.014,0.007c0,66.584,19.499,104.461,77.425,127.636l52.663,21.155h240.433L484.906,374.177z"/>
<g>
	<path style="fill:#8CDEFF;" d="M356.573,154.507c-1.004-0.395-26.516-55.829-50.748-56.633c-4.922-0.163-9.884,1.768-12.623,6.02
		c-12.776,19.837,30.747,37.249,43.228,42.502C343.1,149.206,349.837,151.858,356.573,154.507z"/>
	<path style="fill:#8CDEFF;" d="M376.505,101.903c0.31-0.786,43.734-20.771,44.363-39.754c0.128-3.856-1.385-7.743-4.716-9.889
		c-15.54-10.008-29.179,24.086-33.294,33.862C380.658,91.349,378.58,96.627,376.505,101.903z"/>
	<path style="fill:#8CDEFF;" d="M347.614,72.121c-0.566-0.436-6.629-40.416-21.911-45.378c-3.104-1.009-6.619-0.689-9.143,1.515
		c-11.778,10.284,12.736,29.363,19.718,35C340.01,66.271,343.813,69.197,347.614,72.121z"/>
</g>
<path style="fill:#70B1CC;" d="M470.739,397.146l-79.82,16.043l-67.193-16.043l-73.323,16.043l-69.842-16.043l-67.348,16.043
	l-82.314-16.043L8.155,429.231v49.232c22.168-9.789,48.644-9.789,70.814,0l0,0c22.17,9.789,48.644,9.789,70.814,0l0,0
	c22.17-9.789,48.644-9.789,70.814,0l0,0c22.168,9.789,48.644,9.789,70.814,0l0,0c22.168-9.789,48.644-9.789,70.814,0l0,0
	c22.17,9.789,48.644,9.789,70.814,0l0,0c22.17-9.789,48.644-9.789,70.814,0v-49.232L470.739,397.146z"/>
<path style="fill:#7EC8E6;" d="M503.849,429.231c-22.17-9.789-48.644-9.789-70.814,0l0,0c-22.17,9.789-48.644,9.789-70.814,0l0,0
	c-22.17-9.789-48.644-9.789-70.814,0l0,0c-22.17,9.789-48.644,9.789-70.814,0l0,0c-22.17-9.789-48.644-9.789-70.814,0l0,0
	c-22.17,9.789-48.644,9.789-70.814,0l0,0c-22.17-9.789-48.644-9.789-70.814,0v-49.232c22.17-9.789,48.644-9.789,70.814,0l0,0
	c22.17,9.789,48.644,9.789,70.814,0l0,0c22.17-9.789,48.644-9.789,70.814,0l0,0c22.17,9.789,48.644,9.789,70.814,0l0,0
	c22.17-9.789,48.644-9.789,70.814,0l0,0c22.17,9.789,48.644,9.789,70.814,0l0,0c22.17-9.789,48.644-9.789,70.814,0V429.231z"/>
<path d="M507.141,372.536c-4.204-1.856-8.551-3.383-12.987-4.595c3.991-27.161,3.728-53.801-0.822-79.294
	c-5.569-31.198-17.102-57.085-34.28-76.946c-10.619-12.276-23.875-22.371-38.335-29.191c-4.068-1.921-8.929-0.177-10.848,3.894
	c-1.921,4.072-0.177,8.929,3.895,10.85c12.42,5.859,23.817,14.541,32.958,25.112c15.234,17.613,25.516,40.877,30.561,69.146
	c1.201,6.727,2.075,13.546,2.635,20.44c-27.521-9.499-47.785,1.017-65.934,10.442c-21.786,11.315-40.599,21.085-73.182,4.295
	c-3.998-2.061-8.917-0.491-10.98,3.51c-2.062,4.002-0.49,8.917,3.511,10.98c15.229,7.849,28.355,10.799,40.019,10.798
	c19.033-0.001,34.168-7.859,48.143-15.116c19.449-10.1,35.035-18.18,59.153-7.064c0.023,11.572-0.825,23.322-2.541,35.19
	c-16.433-1.615-33.307,0.899-48.367,7.549c-20.111,8.879-44.12,8.879-64.229,0c-24.231-10.701-53.165-10.701-77.398,0
	c-20.109,8.878-44.117,8.879-64.229,0c-24.233-10.701-53.167-10.701-77.398,0c-1.913,0.844-3.87,1.582-5.847,2.267
	c-25.503-9.68-45.59-26.968-56.717-48.95c-2.031-4.017-6.938-5.625-10.953-3.592c-4.017,2.033-5.625,6.937-3.592,10.954
	c9.467,18.706,24.375,34.46,43.133,45.935c-10.406-0.236-20.763-2.422-30.253-6.612c-24.233-10.701-53.167-10.701-77.398,0
	c-4.118,1.818-5.983,6.631-4.165,10.748c1.818,4.118,6.634,5.984,10.75,4.165c20.108-8.879,44.117-8.88,64.23,0
	c20.892,9.226,45.276,10.49,67.134,3.806c0.065-0.02,0.132-0.038,0.196-0.06c3.426-1.055,6.79-2.3,10.068-3.747
	c20.109-8.879,44.119-8.88,64.23,0c12.116,5.35,25.407,8.025,38.698,8.025c13.292,0,26.583-2.675,38.699-8.025
	c20.112-8.879,44.122-8.878,64.23,0c24.231,10.699,53.165,10.701,77.398,0c20.111-8.879,44.12-8.878,64.229,0
	c4.119,1.819,8.931-0.046,10.75-4.165C513.124,379.166,511.259,374.355,507.141,372.536z"/>
<path d="M507.141,421.768c-24.231-10.701-53.165-10.701-77.398,0c-20.111,8.88-44.12,8.879-64.229,0
	c-24.231-10.701-53.165-10.701-77.398,0c-20.109,8.878-44.117,8.879-64.229,0c-24.233-10.701-53.167-10.7-77.398,0
	c-20.11,8.878-44.119,8.879-64.229,0c-24.233-10.701-53.167-10.7-77.398,0c-4.118,1.818-5.983,6.631-4.165,10.748
	c1.818,4.119,6.634,5.984,10.75,4.165c20.108-8.879,44.117-8.879,64.23,0c24.23,10.699,53.163,10.701,77.397,0
	c20.109-8.879,44.119-8.879,64.23,0c12.116,5.35,25.407,8.025,38.698,8.025c13.292,0,26.583-2.675,38.699-8.025
	c20.112-8.879,44.122-8.878,64.23,0c24.231,10.699,53.165,10.701,77.398,0c20.111-8.879,44.12-8.878,64.229,0
	c4.119,1.819,8.931-0.046,10.75-4.165C513.124,428.399,511.259,423.587,507.141,421.768z"/>
<path d="M507.141,471c-24.231-10.701-53.165-10.701-77.398,0c-20.111,8.879-44.12,8.879-64.229,0
	c-24.231-10.701-53.165-10.701-77.398,0c-20.109,8.878-44.117,8.879-64.229,0c-24.233-10.701-53.167-10.7-77.398,0
	c-20.11,8.878-44.119,8.879-64.229,0c-24.233-10.701-53.167-10.7-77.398,0c-4.118,1.818-5.983,6.631-4.165,10.748
	c1.818,4.118,6.634,5.982,10.75,4.165c20.108-8.879,44.117-8.88,64.23,0c24.23,10.7,53.163,10.701,77.397,0
	c20.109-8.879,44.119-8.88,64.23,0c12.116,5.35,25.407,8.025,38.698,8.025c13.292,0,26.583-2.675,38.699-8.025
	c20.112-8.879,44.122-8.878,64.23,0c24.231,10.701,53.165,10.701,77.398,0c20.111-8.879,44.12-8.878,64.229,0
	c4.119,1.818,8.931-0.046,10.75-4.165C513.124,477.63,511.259,472.818,507.141,471z"/>
<path d="M380.691,171.242c-63.378-7.405-128.02,21.434-197.609,88.122c-20.191,19.129-39.602,29.366-53.252,28.099
	c-6.697-0.624-12.238-4.02-16.931-10.38c-2.54-4.295-4.289-8.592-5.208-12.789c-0.04-0.682-0.118-1.336-0.209-1.946
	c12.315-6.256,23.016-15.311,30.404-25.788c9.458-13.414,12.874-28.109,9.877-42.496c-0.646-3.093-3.018-5.535-6.091-6.266
	c-12.747-3.034-25.888-1.119-38.01,5.539c-9.544,5.244-18.003,13.285-24.171,22.909c-3.859-6.132-8.799-11.754-14.555-16.449
	c-12.33-10.054-26.906-14.83-41.034-13.448c-14.313,1.399-13.584,14.911-13.344,19.349c0.427,7.927,2.249,15.404,5.416,22.222
	c6.899,14.846,19.506,26.784,34.591,32.755c1.462,0.578,2.947,1.099,4.437,1.555c0.546,0.225,0.067,8.567,0.101,9.301
	c0.455,9.893,1.568,19.396,3.31,28.246c0.853,4.336,5.241,7.275,9.571,6.424c4.417-0.869,7.292-5.155,6.424-9.571
	c-1.587-8.061-2.603-16.756-3.02-25.846c-0.205-4.463,0.028-8.935-0.217-13.398c-0.012-0.212-0.014-0.377-0.016-0.508
	c-0.066-3.705-1.689-6.394-4.959-8.219c0,0-0.261-0.147-0.263-0.148c-2.75-1.573-6.401-1.819-9.369-2.993
	c-11.077-4.384-20.723-13.531-25.805-24.466c-2.674-5.752-3.987-12.236-4.004-18.572c17.013-0.913,38.431,12.55,44.31,34.361
	c0.016,0.062,0.03,0.123,0.046,0.184c1.209,4.811,4.109,9.599,9.932,8.582c4.547-0.793,6.831-5.195,7.065-9.464
	c1.757-3.11,2.816-6.101,3.731-8.832c7.714-13.415,23.117-25.819,40.627-24.501c0.733,19.526-16.164,37.608-34.891,46.226
	c-7.18,3.304-7.355,11.039-5.996,17.846c3.59,17.965,15.92,33.955,34.899,36.602c25.492,3.555,50.772-15.948,67.851-32.316
	c65.893-63.147,126.239-90.535,184.472-83.733c4.465,0.521,8.519-2.678,9.041-7.15C388.364,175.812,385.163,171.765,380.691,171.242
	z"/>
<circle cx="373.241" cy="293.088" r="12.24"/>
<path d="M286.347,99.474c-3.64,5.651-4.557,11.88-2.654,18.01c4.922,15.855,27.186,27.041,48.317,35.891
	c7.157,2.997,14.366,5.855,21.581,8.71c4.135,1.627,8.942-0.467,10.568-4.602c1.512-3.842-0.757-7.27-2.527-10.557
	c-13.032-24.2-32.967-56.458-55.536-57.208C297.906,89.466,290.429,93.14,286.347,99.474z M305.554,106.015
	c5.02,0.166,15.363,4.944,32.202,32.094c-29.068-12.238-36.984-20.593-38.494-25.456c-0.34-1.094-0.478-2.379,0.791-4.35
	c1.372-2.128,4.324-2.293,5.197-2.293L305.554,106.015z"/>
<path d="M429.015,62.411c0.235-7.091-2.923-13.45-8.449-17.009c-3.211-2.068-6.633-3.118-10.167-3.118
	c-16.474-0.003-25.86,20.039-31.592,32.672c-3.569,7.866-6.726,15.919-9.888,23.956c-1.648,4.189,0.411,8.92,4.598,10.569
	c3.66,1.442,6.597-0.367,9.755-2.066C423.655,85.669,428.72,71.316,429.015,62.411z M398.691,78.733
	c-1.775,1.341-3.605,2.632-5.432,3.859c10.283-22.775,16.025-24.006,17.137-24.006c0.354,0,0.805,0.175,1.342,0.521
	c0.727,0.468,1.019,1.727,0.984,2.765C412.672,63.377,411.512,69.045,398.691,78.733z"/>
<path d="M330.459,69.031c4.021,3.234,8.094,6.4,12.186,9.544c3.492,2.685,8.706,2.046,11.429-1.49
	c2.201-2.859,1.547-6.181,0.84-9.441c-4.333-20.027-11.284-43.657-26.694-48.661c-5.736-1.863-12.37-0.932-17.02,3.128
	c-3.989,3.482-6.043,8.014-5.939,13.107C305.505,47.346,318.135,59.116,330.459,69.031z M321.553,34.789
	c0.13-0.662,1.219-0.436,1.633-0.301c0.767,0.249,4.841,2.126,9.631,14.615c0.103,0.268,0.204,0.538,0.304,0.807
	C321.154,39.065,321.468,35.223,321.553,34.789z"/>
<g>
</g>
<g>
</g>
<g>
</g>
<g>
</g>
<g>
</g>
<g>
</g>
<g>
</g>
<g>
</g>
<g>
</g>
<g>
</g>
<g>
</g>
<g>
</g>
<g>
</g>
<g>
</g>
<g>
</g>
</svg>
