<?xml version="1.0" encoding="iso-8859-1"?>
<!-- Generator: Adobe Illustrator 19.0.0, SVG Export Plug-In . SVG Version: 6.00 Build 0)  -->
<svg version="1.1" id="Capa_1" xmlns="http://www.w3.org/2000/svg" xmlns:xlink="http://www.w3.org/1999/xlink" x="0px" y="0px"
	 viewBox="0 0 512 512" style="enable-background:new 0 0 512 512;" xml:space="preserve">
<g>
	<g>
		<path d="M134.96,200.177l-0.3-47.248l12.804-1.957c20.029-3.06,38.412-13.235,51.764-28.648
			c13.481-15.563,20.905-35.489,20.905-56.11v-8.278l-54.21,4.833c-17.72,1.58-33.794,11.612-42.999,26.837l-12.571,20.792
			L97.211,89.611c-9.206-15.228-25.285-25.263-43.01-26.843L0,57.935v8.277c0,20.623,7.426,40.552,20.909,56.116
			c13.354,15.415,31.741,25.588,51.775,28.646l12.806,1.955l-0.234,32.297c0,97.598,65.996,182.087,159.031,206.527
			c7.927-41.343,28.588-72.066,30.006-74.137l12.388,8.485l12.403,8.463c-0.44,0.647-40.617,60.807-23.434,119.5
			c27.526-13.479,48.469-36.61,62.368-68.943c12.465-28.997,14.32-54.838,14.337-55.096l0.592-8.813l7.992-3.795
			c31.076-14.644,56.147-39.87,70.594-71.033l27.245,12.631c-16.206,34.96-43.514,63.718-77.426,81.753
			c-1.37,9.8-4.559,26.778-11.686,46.038C449.381,358.88,506.014,285.524,512,200.177H134.96z M372.023,258.995
			c-8.284,0-15-6.716-15-15s6.716-15,15-15s15,6.716,15,15S380.307,258.995,372.023,258.995z"/>
	</g>
</g>
<g>
</g>
<g>
</g>
<g>
</g>
<g>
</g>
<g>
</g>
<g>
</g>
<g>
</g>
<g>
</g>
<g>
</g>
<g>
</g>
<g>
</g>
<g>
</g>
<g>
</g>
<g>
</g>
<g>
</g>
</svg>
