<svg id="Capa_1" enable-background="new 0 0 512 512" height="512" viewBox="0 0 512 512" width="512" xmlns="http://www.w3.org/2000/svg"><g><g><path d="m473.794 284.64c-17.672-71.074-60.971-132.039-121.92-171.665-59.182-38.476-129.577-53.339-198.849-42.161-7.631-40.32-43.042-70.814-85.581-70.814h-39.101v2.025c0 48.109 39 87.109 87.109 87.109-4.488 0 39.333 2.878 40.837 2.025 233.377 30.837 180.4 346.094 180.4 346.094 3.577-2.739 145.373-51.381 145.373-51.381 1.229-27.539-1.552-74.225-8.268-101.232z" fill="#0b495d"/><g><path d="m390.876 281.08c-15.732-63.273-54.278-117.546-108.537-152.822-37.994-24.701-83.481-39.124-127.785-39.124-13.755 0-33.394 0-39.101 0-48.109 0-87.109 39-87.109 87.109v2.025h39.101c45.377 0 82.643-34.698 86.731-79.008 79.726 17.298 139.451 88.237 139.451 173.143 0 41.265-13.979 79.413-37.633 109.529-3.166 4.031-6.636 7.737-10.133 11.475l38.474 18.573c34.409-10.041 99.666 0 99.666 0 19.696-38.899 12.853-106.857 6.875-130.9z" fill="#12617c"/></g></g><g><g><path d="m255.993 381.931c-17.991 0-26.475-3.977-36.299-8.582-11.417-5.352-24.357-11.418-49.032-11.418-24.674 0-37.614 6.066-49.031 11.418-9.824 4.605-18.308 8.582-36.3 8.582s-26.476-3.977-36.3-8.582c-11.417-5.352-24.357-11.418-49.031-11.418v50.024l35.977 25.298h220.023l12.419-19.97-12.419-35.352c-.002 0-.004 0-.007 0z" fill="#a1e2f7"/><path d="m462.965 373.349c-9.824 4.605-18.309 8.582-36.302 8.582s-26.479-3.977-36.303-8.582c-11.418-5.352-24.359-11.418-49.034-11.418s-37.616 6.066-49.033 11.418c-9.823 4.604-18.307 8.581-36.293 8.582v55.322h217.783l38.217-25.298v-50.024c-24.676 0-37.617 6.066-49.035 11.418z" fill="#64cef2"/></g><g><path d="m255.993 431.934c-17.991 0-26.475-3.977-36.299-8.582-11.417-5.352-24.357-11.418-49.032-11.418-24.674 0-37.614 6.066-49.031 11.418-9.824 4.605-18.308 8.582-36.3 8.582s-26.476-3.977-36.3-8.582c-11.417-5.352-24.357-11.418-49.031-11.418v50.024l35.977 25.298h220.023l14.376-26.113-14.376-29.209c-.002 0-.004 0-.007 0z" fill="#64cef2"/><path d="m462.965 423.352c-9.824 4.605-18.309 8.582-36.302 8.582s-26.479-3.977-36.303-8.582c-11.418-5.352-24.359-11.418-49.034-11.418s-37.616 6.066-49.033 11.418c-9.823 4.604-18.307 8.581-36.293 8.582v55.322h217.783l38.217-25.298v-50.024c-24.676 0-37.617 6.066-49.035 11.418z" fill="#22aadb"/></g><g><path d="m255.993 481.958c-17.991 0-26.475-3.977-36.299-8.582-11.417-5.352-24.357-11.418-49.032-11.418-24.674 0-37.614 6.066-49.031 11.418-9.824 4.605-18.308 8.582-36.3 8.582s-26.476-3.977-36.3-8.582c-11.417-5.352-24.357-11.418-49.031-11.418v50.042h256l14.376-14.104-14.376-15.938c-.002 0-.004 0-.007 0z" fill="#a1e2f7"/><path d="m512 461.958c-24.676 0-37.617 6.066-49.035 11.418-9.824 4.605-18.309 8.582-36.302 8.582s-26.479-3.977-36.303-8.582c-11.418-5.352-24.359-11.418-49.034-11.418s-37.616 6.066-49.033 11.418c-9.823 4.604-18.307 8.581-36.293 8.582v30.042h256z" fill="#64cef2"/></g></g></g></svg>