<?xml version="1.0" encoding="iso-8859-1"?>
<!-- Generator: Adobe Illustrator 19.0.0, SVG Export Plug-In . SVG Version: 6.00 Build 0)  -->
<svg version="1.1" id="Layer_1" xmlns="http://www.w3.org/2000/svg" xmlns:xlink="http://www.w3.org/1999/xlink" x="0px" y="0px"
	 viewBox="0 0 512 512" style="enable-background:new 0 0 512 512;" xml:space="preserve">
<path style="fill:#3768AF;" d="M494.172,280.073c-0.059-0.178-0.107-0.343-0.166-0.521c-15.779-54.145-65.781-93.705-125.015-93.705
	c-40.981,0-80.163,30.458-101.802,48.534C161.563,322.664,109.514,373.719,90.408,350.376c-7.327-8.949-4.463-20.562,2.829-29.523
	c10.228-12.548,21.414-15.921,34.258-18.514c-7.943-6.061-15.91-9.34-26.054-11.684c-42.449-9.801-73.96,20.988-84.993,68.764
	c-11.021,47.776,2.604,97.991,45.042,107.792c10.145,2.344,21.521,1.16,31.322-0.805c-9.269-7.079-19.342-14.761-20.929-25.877
	c-1.705-11.92,3.528-23.474,15.566-23.486c11.624-0.012,18.537,5.386,47.693,13.862c2.888,0.84,6.002,1.705,9.352,2.604
	c113.723,30.422,148.323,17.59,198.029,13.696c-2.675,16.726-9.529,34.139-24.373,47.942
	c-33.595,31.227,64.834,22.681,94.783-56.477c50.297-18.028,86.271-66.124,86.271-122.612
	C499.203,303.571,497.451,291.496,494.172,280.073z"/>
<g>
	<path style="fill:#E0E0E0;" d="M499.203,316.059c0,56.488-35.974,104.584-86.271,122.612c7.375-19.52,10.595-43.337,6.641-71.913
		c0,0,46.959-20.704,74.6-86.686C497.451,291.496,499.203,303.571,499.203,316.059z"/>
	<path style="fill:#E0E0E0;" d="M338.379,388.528c0,0,9.02,28.209,4.143,58.678c-49.706,3.895-84.306,16.726-198.029-13.696
		c-3.35-0.9-6.463-1.764-9.352-2.604C256.002,446.271,338.379,388.528,338.379,388.528z"/>
</g>
<g>
	<path style="fill:#61ACD2;" d="M368.993,152.703c-5.23,0-9.47-4.24-9.47-9.47V37.01c0-20.408,16.602-37.01,37.01-37.01h0.556
		c20.408,0,37.01,16.602,37.01,37.01v10.34c0,5.23-4.24,9.47-9.47,9.47s-9.47-4.24-9.47-9.47V37.01c0-9.964-8.106-18.07-18.07-18.07
		h-0.556c-9.964,0-18.07,8.106-18.07,18.07v106.224C378.463,148.463,374.223,152.703,368.993,152.703z"/>
	<path style="fill:#61ACD2;" d="M329.93,159.806c-5.23,0-9.47-4.24-9.47-9.47V76.073c0-9.964-8.106-18.07-18.07-18.07h-0.556
		c-9.964,0-18.07,8.106-18.07,18.07v10.34c0,5.23-4.24,9.47-9.47,9.47s-9.47-4.24-9.47-9.47v-10.34
		c0-20.408,16.602-37.01,37.01-37.01h0.556c20.408,0,37.01,16.602,37.01,37.01v74.262C339.4,155.566,335.16,159.806,329.93,159.806z
		"/>
</g>
<circle style="fill:#495577;" cx="433.323" cy="271.48" r="9.47"/>
<g>
</g>
<g>
</g>
<g>
</g>
<g>
</g>
<g>
</g>
<g>
</g>
<g>
</g>
<g>
</g>
<g>
</g>
<g>
</g>
<g>
</g>
<g>
</g>
<g>
</g>
<g>
</g>
<g>
</g>
</svg>
