<svg id="Capa_1" enable-background="new 0 0 512 512" height="512" viewBox="0 0 512 512" width="512" xmlns="http://www.w3.org/2000/svg"><g><g><path d="m226.537 243.15c-38.932 0-70.605-31.674-70.605-70.606 0-37.843 29.903-68.787 67.304-70.523 3.575 39.555 36.901 70.658 77.371 70.658l46.375-.001v-14.994c0-27.875-13.374-52.678-34.034-68.354 20.489-13.576 34.034-36.828 34.034-63.193v-24.973h-41.899c-41.434 0-75.785 30.828-81.369 70.748h-.813v.036h-2.522c-58.865 0-114.208 22.924-155.832 64.548-41.624 41.625-64.547 96.967-64.547 155.833 0 76.05 38.641 145.341 103.365 185.353l57.597 33.154 104.704-.222c75.512 0 246.333-61.433 246.333-136.945v-29.721l-11.51-14.643 11.511-15.751v-69.72z" fill="#44569b"/></g><path d="m160.893 510.836h-67.226v-31.893c0-61.915 50.192-112.107 112.107-112.107h67.226v31.893c0 61.915-50.192 112.107-112.107 112.107z" fill="#203f7c"/><g><path d="m512 243.834-199-.477v261.794c83.07-16.622 199-69.273 199-131.481v-29.721l-11.51-14.643 11.51-15.752z" fill="#312b6f"/></g><g><g><g><g><g><path d="m313 343.697c7.844 0 15.358-6.897 14.995-14.995-.364-8.124-6.589-14.995-14.995-14.995-7.844 0-15.358 6.897-14.995 14.995.364 8.124 6.589 14.995 14.995 14.995z" fill="#f0f5ff"/></g></g></g></g></g><g><g><g><g><path d="m352 313.707h160v29.99h-160z" fill="#203f7c"/></g></g></g></g><g><g><path d="m353.325 382.288c-.426 70.954-58.272 128.548-129.325 128.548h158.664c71.053 0 128.899-57.594 129.325-128.548z" fill="#e0ebfe"/></g></g><g><g><path d="m353.325 382.288c-.22 36.55-15.68 69.551-40.33 92.965v35.583h69.669c71.053 0 128.899-57.594 129.325-128.548z" fill="#ccddfe"/></g></g><g><path d="m327.995 328.702c-.364-8.124-6.589-14.995-14.995-14.995v29.99c7.844 0 15.358-6.897 14.995-14.995z" fill="#dbe7fe"/></g><g><path d="m408.73 382.288c-.523 70.954-71.492 128.548-142.546 128.548h69.258c71.053 0 128.899-57.594 129.325-128.548z" fill="#f5fbff"/></g><g><path d="m408.73 382.288c-.406 55.106-43.307 102.146-95.735 120.414v8.135h22.448c71.053 0 128.899-57.594 129.325-128.548h-56.038z" fill="#e0ebfe"/></g></g></svg>