<svg id="Capa_1" enable-background="new 0 0 500.35 500.35" height="512" viewBox="0 0 500.35 500.35" width="512" xmlns="http://www.w3.org/2000/svg"><g><path d="m106.032 112.258c1.259 17.293-2.92 34.619-11.849 49.553-6.418 10.734-11.477 22.077-15.126 33.825-14.064 45.28 8.605 94.124 52.046 113.124 52.951 23.16 116.812 16.157 164.018-23.427l26.18-21.953c42.403-35.557 97.304-51.144 151.028-44.254 10.544 1.352 18.132 10.847 17.265 21.442-8.704 106.372-88.235 193.033-190.876 212.325-29.2 5.489-83.658 4.166-83.658 4.166-108.489 0-198.804-88.759-198.671-197.248.055-45.124 15.291-86.687 40.862-119.875-39.552-28.948-57.008-81.229-40.018-129.935 31.302 7.219 56.662 26.584 72.237 51.97 3.892 6.344 10.993 10.031 18.415 9.47 31.006-2.347 62.86 7.804 87.345 30.719-23.14 30.88-58.7 46.88-94.45 45.99" fill="#fff"/><path d="m489.599 240.57c-.63 7.69-1.63 15.27-2.98 22.73-22.64-1.86-45.3.19-66.99 5.87-33.19 8.7-62.13 29.42-80.78 58.22-9.36 14.44-20.7 27.8-33.94 39.61-6.06 5.41-8.33 13.85-5.72 21.54 7.11 20.93 6.59 43.69-.47 64.35-4.23 12.37-10.8 23.98-19.48 33.99-4.63 5.33-13.25 4.4-16.53-1.84-4.67-8.89-7.88-18.33-9.63-27.98-3.09-16.83-1.76-34.3 3.91-50.63 1-2.87 1.68-5.83 2.06-8.82-28.6 13.64-59.75 19.83-90.13 18.89-80.54-2.5-146.598-64.857-152.17-144.69-3.554-50.911 14.93-98.68 40.5-131.87-39.55-28.95-57.01-81.23-40.02-129.94 31.31 7.22 56.67 26.59 72.24 51.97 3.89 6.35 10.99 10.03 18.42 9.47 31-2.35 62.86 7.81 87.34 30.72-23.14 30.88-58.7 46.88-94.45 45.99-5.067 12.459-15.713 27.749-21.72 47.49-13.804 45.362 8.6 94.12 52.04 113.12 52.96 23.16 116.82 16.16 164.02-23.43l26.18-21.95c42.41-35.56 97.31-51.14 151.03-44.25 10.54 1.35 18.13 10.84 17.27 21.44z" fill="#a7bdcd"/><path d="m473.599 209.21c-8.646-1.212-17.48-1.68-26.22-1.68-67.99 0-113.89 32.58-132.5 48.19l-26.18 21.95c-26.38 22.11-59.88 34.28-94.33 34.29-20.57 0-40.5-4.16-59.26-12.36-30.51-13.33-50.21-43.4-50.21-76.62 0-24.146 11.9-46.05 17.87-56.04 1.712-2.866 3.263-5.811 4.658-8.818 37.572-1.175 72.992-19.524 95.804-49.966 3.059-4.082 2.555-9.812-1.169-13.298-25.49-23.856-60.091-36.023-94.932-33.389-3.686.285-7.177-1.534-9.137-4.728-17.686-28.826-45.57-48.886-78.513-56.484-4.971-1.148-9.966 1.648-11.689 6.451-18.402 51.288 1.018 105.61 35.711 135.063-24.261 34.708-37.061 75.307-37.113 118.028-.067 54.61 21.489 106.304 60.697 145.561 39.739 39.788 92.291 61.7 147.974 61.7h30.054c2.051 7.803 4.969 15.399 8.741 22.623 6.953 13.313 24.275 13.699 32.933 3.748 8.189-9.413 14.706-20.218 19.356-31.841 40.696-8.724 70.205-26.26 83.544-35.06 4.61-3.03 5.797-9.147 2.84-13.85-2.403-3.822-8.624-6.362-13.86-2.84-20.487 13.516-42.692 23.46-66.186 29.675 3.307-18.348 2.004-37.023-3.825-54.188-1.309-3.854-.166-8.121 2.913-10.869 13.69-12.219 25.69-26.226 35.668-41.63 17.278-26.678 43.888-45.85 74.928-53.984 17.147-4.494 34.686-6.554 52.285-6.166-6.472 27.621-18.137 53.91-34.443 77.342-3.15 4.52-2.094 10.864 2.49 13.92 5.793 3.862 11.564.86 13.92-2.49 34.325-48.809 41.417-98.265 43.14-120.07.992-12.546-7.008-29.514-25.959-32.17zm-231.789 237.85h-26.75c-39.179 0-76.653-12.017-108.299-34.319 48.411 21.494 102.229 14.544 137.514 1.804-2.453 10.706-3.25 21.676-2.465 32.515zm175.287-187.563c-35.877 9.401-66.649 31.583-86.645 62.458-.941 1.452-1.913 2.882-2.893 4.307l-4.631-3.388c-4.457-3.262-10.714-2.292-13.976 2.165s-2.292 10.714 2.165 13.976l4.235 3.099c-5.308 6.17-11.018 11.994-17.101 17.424-9.079 8.104-12.428 20.751-8.532 32.221 10.048 29.587 2.967 64.351-18.16 88.622-11.342-21.615-13.21-47.374-5.127-70.672 4.64-13.37 3.762-28.365-2.409-41.139-2.402-4.972-8.379-7.057-13.354-4.655-4.973 2.402-7.057 8.381-4.655 13.354 2.084 4.314 3.2 9.028 3.346 13.77-25.088 10.975-52.658 16.314-80.138 15.463-76.331-2.367-137.352-60.453-142.48-135.239-3.224-47.01 12.646-92.722 38.43-125.223 3.056-3.852 3.249-10.303-2.015-14.173-34.525-25.38-49.661-68.438-39.175-109.632 23.743 7.7 43.744 23.417 56.964 44.966 5.898 9.612 16.505 15.056 27.693 14.211 26.15-1.985 52.142 5.969 72.654 21.975-17.407 19.374-41.393 31.58-67.057 34.24 1.329-6.339 2.605-16.374 1.773-26.098-1.135-13.26-20.716-11.837-19.95 1.45 1.007 17.467-3.49 32.04-10.46 43.7-6.79 11.35-20.7 37.122-20.7 66.3 0 52.628 36.706 84.1 62.2 94.94 30.677 13.043 54.613 14.04 67.31 14.04 54.69 0 91.88-26.17 107.14-38.96l26.18-21.96c33.45-28.05 75.95-43.51 119.65-43.51 7.9 0 15.87.51 23.68 1.52 4.83.58 8.895 4.962 8.57 10.72-.246 4.364-.848 8.693-1.457 13.009-20.556-.776-41.058 1.474-61.075 6.719zm12.068 130.499c0 5.521-4.476 9.996-9.996 9.996s-9.996-4.476-9.996-9.996 4.476-9.996 9.996-9.996 9.996 4.475 9.996 9.996z"/></g></svg>