<?xml version="1.0" encoding="iso-8859-1"?>
<!-- Generator: Adobe Illustrator 16.0.0, SVG Export Plug-In . SVG Version: 6.00 Build 0)  -->
<!DOCTYPE svg PUBLIC "-//W3C//DTD SVG 1.1//EN" "http://www.w3.org/Graphics/SVG/1.1/DTD/svg11.dtd">
<svg version="1.1" id="Capa_1" xmlns="http://www.w3.org/2000/svg" xmlns:xlink="http://www.w3.org/1999/xlink" x="0px" y="0px"
	 width="535.452px" height="535.452px" viewBox="0 0 535.452 535.452" style="enable-background:new 0 0 535.452 535.452;"
	 xml:space="preserve">
<g>
	<path d="M81.969,154.19c-3.347-25.322-26.737-27.177-29.452-26.823c-2.716,0.354-25.781,4.274-20.961,40.755
		c4.82,36.481,38.852,52.804,38.852,52.804C58.971,185.029,85.316,179.511,81.969,154.19z"/>
	<path d="M140.511,100.449c-1.52-36.768-24.91-36.672-27.655-36.557c-2.735,0.115-25.465,5.957-24.413,31.48
		c1.052,25.522,27.951,26.431,22.845,63.763C111.297,159.134,142.021,137.208,140.511,100.449z"/>
	<path d="M516.46,252.904c-12.097,0-39.742,6.942-39.742,6.942s-14.659-32.79-27.626-42.295s-12.9,2.697-12.9,19.986
		s-18.016,77.131-74.186,77.131c-56.18,0-220.98-66.22-264.193-66.976c-98.905-1.731-95.472,77.781-95.472,77.781V376.9H73.62
		c0,0,24.971-1.182,30.275,15.186c1.76,1.94,4.552,3.921,8.463,5.804c15.3,7.344,43.213,12.297,77.848,13.722
		c-0.583-0.697-1.32-1.415-1.826-2.112c-4.58-6.312-5.967-12.374-4.121-18.017l0.889-2.716c2.069-3.674,13.194-4.294,46.685-4.294
		c13.407,0,24.71,1.319,33.611,3.902l1.195,0.545l27.712,17.278c44.179-6.091,89.983-17.278,130.595-34.854
		c16.047-28.43,63.83-69.175,63.83-69.175c15.559-15.559,46.676-29.377,46.676-37.963
		C535.452,255.619,528.557,252.904,516.46,252.904z M98.866,357.68c-9.735,0-17.633-5.661-17.633-12.651s7.899-12.65,17.633-12.65
		c9.735,0,17.633,5.66,17.633,12.65C116.49,352.019,108.6,357.68,98.866,357.68z"/>
	<path d="M281.395,460.678c-9.361-3.07-18.953-6.646-28.372-10.576c-13.636,1.262-26.946,1.951-39.713,1.951
		c-73.861,0-131.962-19.221-161.759-36.318c-9.955-5.709-18.75-12.182-22.826-22.036H18.627c-12.967,0-23.327-0.703-16.419,6.105
		C79.617,474.687,191.335,483.083,281.395,460.678z"/>
	<path d="M415.853,385.382c-34.616,13.483-72.302,22.682-109.309,28.391l21.038,13.12c24.891-6.828,50.604-16.142,76.825-28.524
		C408.701,394.113,412.506,389.782,415.853,385.382z"/>
	<path d="M376.341,420.687c-12.814,4.974-25.475,9.285-37.944,12.957l7.038,4.39C356.615,432.698,366.931,426.866,376.341,420.687z"
		/>
	<path d="M93.396,393.676H40.134c1.606,2.735,6.397,8.679,20.607,16.215c33.794,17.891,96.39,36.156,174.162,32.102
		c-13.55-6.59-25.723-13.751-34.787-20.913c-40.976-0.822-74.416-6.188-91.896-14.573
		C100.224,402.663,95.385,398.784,93.396,393.676z"/>
	<path d="M279.301,408.055l-17.146-10.681c-7.938-2.218-18.131-3.356-30.313-3.356c-16.352,0-32.015,2.075-38.747,3.089
		c0.201,1.989,1.214,4.255,3.031,6.762c1.903,2.63,4.695,5.336,7.927,8.07c3.615,3.061,7.938,6.149,12.853,9.229
		c10.767,6.751,24.088,13.368,38.153,19.297c6.082,2.562,12.25,4.992,18.408,7.229c8.692,3.156,17.251,5.919,25.321,8.195
		c14.286,4.026,26.928,6.493,35.267,6.493c2.783,0,4.418-0.287,5.317-0.535c11.724-3.194,12.556-6.483,12.584-6.617
		c0.19-0.88-1.042-2.41-1.798-3.021l-15.166-9.448l-9.027-5.623l-11.131-6.933l-23.007-14.334L279.301,408.055z"/>
</g>
<g>
</g>
<g>
</g>
<g>
</g>
<g>
</g>
<g>
</g>
<g>
</g>
<g>
</g>
<g>
</g>
<g>
</g>
<g>
</g>
<g>
</g>
<g>
</g>
<g>
</g>
<g>
</g>
<g>
</g>
</svg>
