<svg id="Capa_1" enable-background="new 0 0 512 512" height="512" viewBox="0 0 512 512" width="512" xmlns="http://www.w3.org/2000/svg"><circle cx="256" cy="256" fill="#00edff" r="256"/><path d="m511.296 236.981-127.233-127.233-83.274 99.587-73.115-73.115-68.67 77.682 248.474 248.474c63.379-46.599 104.522-121.678 104.522-206.376 0-6.398-.242-12.739-.704-19.019z" fill="#0ac0ea"/><path d="m349.508 109.748c-51.643 0-93.508 41.865-93.508 93.508 0-51.643-41.865-93.508-93.508-93.508h-34.555v34.555c0 51.643 41.865 93.508 93.508 93.508h6.268l-32.237 170.166h121.047l-32.237-170.166h6.268c51.643 0 93.508-41.865 93.508-93.508v-34.555z" fill="#0053bf"/><path d="m255.595 407.977h60.928l-32.237-170.166h6.268c51.643 0 93.508-41.865 93.508-93.508v-34.555h-34.555c-51.643 0-93.508 41.865-93.508 93.508z" fill="#1b3b6b"/><path d="m4.197 302.35c21.811 119.257 126.246 209.65 251.803 209.65 125.534 0 229.954-90.361 251.791-209.586-2.287-.102-4.659-.16-7.147-.16-61.451 0-61.451 42.311-122.902 42.311-61.452 0-61.452-42.311-122.904-42.311-61.451 0-61.451 42.311-122.902 42.311-61.453 0-61.453-42.311-122.906-42.311-1.657 0-3.263.036-4.833.096z" fill="#4a7aff"/><path d="m500.645 302.254c-61.451 0-61.451 42.311-122.902 42.311-61.196 0-61.46-41.953-122.147-42.303v209.733c.135 0 .27.005.405.005 125.534 0 229.954-90.361 251.791-209.586-2.288-.102-4.66-.16-7.147-.16z" fill="#0053bf"/><path d="m254.838 386.25c-61.451 0-61.451 42.311-122.902 42.311-49.921 0-59.289-27.921-93.99-38.4 45.074 73.103 125.867 121.839 218.054 121.839 92.52 0 173.57-49.085 218.548-122.63-37.044 9.776-45.564 39.19-96.806 39.19-61.452.001-61.452-42.31-122.904-42.31z" fill="#65b1fc"/><path d="m377.742 428.561c-61.196 0-61.46-41.953-122.147-42.303v125.739c.135 0 .27.003.405.003 92.52 0 173.57-49.085 218.548-122.63-37.044 9.776-45.564 39.191-96.806 39.191z" fill="#4a7aff"/></svg>