<svg height="512" viewBox="0 0 512 512" width="512" xmlns="http://www.w3.org/2000/svg"><g id="flat"><g fill="#bce1ff"><path d="m184 87.148a8 8 0 0 0 0 16 112.193 112.193 0 0 1 108.84 85.566 128.027 128.027 0 0 0 -108.84-60.714 8 8 0 0 0 0 16 112.127 112.127 0 0 1 112 112v15.148a8 8 0 0 0 16 0v-56a128.145 128.145 0 0 0 -128-128z"/><path d="m488 128a128.027 128.027 0 0 0 -108.84 60.714 112.193 112.193 0 0 1 108.84-85.566 8 8 0 0 0 0-16 128.145 128.145 0 0 0 -128 128v58a8 8 0 0 0 16 0v-17.148a112.127 112.127 0 0 1 112-112 8 8 0 0 0 0-16z"/><path d="m336 224a8 8 0 0 0 -8 8v39a8 8 0 0 0 16 0v-39a8 8 0 0 0 -8-8z"/><path d="m336 176a8 8 0 0 0 -8 8v16a8 8 0 0 0 16 0v-16a8 8 0 0 0 -8-8z"/></g><path d="m448 328h-24l-8 48c-8 24-309.384 1.877-316.846-8a173.942 173.942 0 0 1 -35.154-104.852v-65.221a69.266 69.266 0 0 1 -40-62.779h24a40 40 0 0 1 40 40 40 40 0 0 1 40-40h24a69.264 69.264 0 0 1 -44.944 64.852l-1.161.436a80.014 80.014 0 0 0 78.105 62.712h264.793a39.208 39.208 0 0 1 39.141 36.915 18.269 18.269 0 0 1 -18.373 19.085 28.044 28.044 0 0 0 -19.527 7.907 11.379 11.379 0 0 1 -2.034.945z" fill="#0186b2"/><path d="m392 319.15a64.072 64.072 0 0 1 -64 64h-215.97a172.524 172.524 0 0 1 -13.52-16h229.49a48.051 48.051 0 0 0 48-48z" fill="#0186b2"/><path d="m469.56 319.15a28.079 28.079 0 0 0 -27.12 20.83l-6.8 25.53a99.208 99.208 0 0 1 -95.85 73.64h-96.34a182.364 182.364 0 0 1 -118.71-43.94 173.574 173.574 0 0 1 -19.89-20.06h223.15c30.93 0 56-56 56-56z" fill="#eaeae8"/><path d="m392 279.148h16v16h-16z" fill="#1f6c8c"/><path d="m392 319.15a64.072 64.072 0 0 1 -64 64h-215.97a172.524 172.524 0 0 1 -13.52-16h229.49a48.051 48.051 0 0 0 48-48z" fill="#e4e4e2"/><path d="m216.005 52.316a8 8 0 0 1 -2.134-.291 112.274 112.274 0 0 0 -29.871-4.025 8 8 0 0 1 0-16 128.241 128.241 0 0 1 34.129 4.6 8 8 0 0 1 -2.124 15.713z" fill="#bce1ff"/><path d="m456 52.316a8 8 0 0 1 -2.129-15.716 128.241 128.241 0 0 1 34.129-4.6 8 8 0 0 1 0 16 112.274 112.274 0 0 0 -29.871 4.025 8 8 0 0 1 -2.129.291z" fill="#bce1ff"/><path d="m382.732 102.724-13.464-8.644-8.7 13.551-13.468-8.643 8.7-13.552-13.465-8.644-29.025 45.408a10 10 0 0 0 3.013 13.817l23.388 15.015a10 10 0 0 0 13.817-3.013z" fill="#6cbae5"/><path d="m316.109 72.957-20.09 22.281a9 9 0 0 1 -12.71.657l-14.621-13.183a27.313 27.313 0 0 1 -8.988-18.875l-17.823-16.071 21.429-23.766 17.824 16.072a27.309 27.309 0 0 1 19.7 6.991l14.621 13.183a9 9 0 0 1 .658 12.711z" fill="#6cbae5"/><path d="m428.761 63.818-29.266 12.943-23.495-33.347 43.899-19.414z" fill="#6cbae5"/><path d="m424 319.15a96.115 96.115 0 0 1 -96 96h-174.95a180.024 180.024 0 0 1 -23.54-16h198.49a80.093 80.093 0 0 0 80-80z" fill="#e4e4e2"/><path d="m360.006 335.15a8 8 0 0 1 -3.584-15.157l1.311-.656a77.961 77.961 0 0 1 34.689-8.189h71.578a8 8 0 0 1 0 16h-71.578a61.89 61.89 0 0 0 -27.533 6.5l-1.311.655a7.973 7.973 0 0 1 -3.572.847z" fill="#1f6c8c"/><path d="m320 359.148v24.9a82 82 0 0 1 -40.683 70.83l-55.317 32.27v-20.931a88 88 0 0 1 44.34-76.406 23.142 23.142 0 0 0 11.66-20.092v-50.571a40 40 0 0 1 40 40z" fill="#0191c1"/></g></svg>