<?xml version="1.0" encoding="iso-8859-1"?>
<!-- Generator: Adobe Illustrator 16.0.0, SVG Export Plug-In . SVG Version: 6.00 Build 0)  -->
<!DOCTYPE svg PUBLIC "-//W3C//DTD SVG 1.1//EN" "http://www.w3.org/Graphics/SVG/1.1/DTD/svg11.dtd">
<svg version="1.1" id="Capa_1" xmlns="http://www.w3.org/2000/svg" xmlns:xlink="http://www.w3.org/1999/xlink" x="0px" y="0px"
	 width="579.587px" height="579.587px" viewBox="0 0 579.587 579.587" style="enable-background:new 0 0 579.587 579.587;"
	 xml:space="preserve">
<g>
	<g>
		<path d="M542.984,131.745c-16.066-10.641-33.06-19.919-49.914-29.319c-9.16-5.108-16.047-11.995-20.976-21.159
			c-6.598-12.265-16.838-20.665-30.437-22.791c-11.38-1.779-22.705,0.853-32.522,7.801c-3.741,2.652-7.727,4.973-11.383,7.731
			c-1.693,1.277-2.868,3.248-3.48,3.966c-7.376,6.316-13.867,11.983-20.489,17.499c-2.782,2.317-5.989,4.137-8.719,6.512
			c-2.04,1.775-3.619,4.072-6.708,7.65c-2.945,1.799-7.866,5.002-12.971,7.878c-6.744,3.799-13.378,8.001-20.555,10.73
			c-3.741,1.424-8.906,1.95-11.885-3.382c-3.387-6.071-7.699-11.636-10.906-17.789c-3.872-7.426-11.306-9.984-17.629-13.99
			c-6.561-4.154-13.538-7.65-21.139-11.885c1.057,2.167,1.922,3.929,2.767,5.655c-5.508-2.195-11.106-4.431-17.675-7.05
			c1.138,2.722,1.86,4.447,3.084,7.377c-9.882-2.771-18.813-5.276-27.744-7.777c-0.229,0.604-0.453,1.212-0.681,1.816
			c1.546,0.783,3.088,1.562,5.435,2.75c-9.943,0.722-19.094,1.387-28.25,2.052c-0.033,0.334-0.069,0.673-0.102,1.008
			c0.947,0.24,1.893,0.481,4.011,1.016c-3.656,0.881-6.263,1.706-8.931,2.093c-2.652,0.383-5.467-0.062-8.029,0.583
			c-2.46,0.62-4.643,2.276-7.03,3.284c-9.918,4.194-19.866,8.332-29.825,12.424c-0.784,0.322-1.808,0.379-2.648,0.208
			c-11.559-2.342-21.314,0.856-30.922,7.723c-6.083,4.345-14.06,6.014-21.11,9.062c-2.689,1.163-5.488,2.456-7.642,4.357
			c-1.987,1.754-3.187,4.402-4.729,6.658c3.007,0.372,6.104,1.367,9.008,0.971c5.374-0.73,10.637-2.281,16.683-2.02
			c-20.294,14.651-37.491,31.29-48.735,53.26c0.575,0.645,1.15,1.289,1.722,1.938c3.248-3.068,6.491-6.14,9.816-9.286
			c0.808,2.672,1.526,5.047,2.24,7.409c-0.037,0.025-0.069,0.053-0.106,0.074c-1.603,2.183-3.203,4.37-4.818,6.54
			c-9.172,12.346-19.429,24.06-27.136,37.259c-4.834,8.282-8.592,17.246-13.66,25.646c-8.229,13.648-15.019,28.271-21.285,42.962
			c-3.509,8.221-5.133,17.332-6.867,26.189c-1.065,5.431,5.602,10.502,13.264,10.894c1.966,0.102,3.945,0.017,6.071,0.017
			c-0.371,4.843-0.693,9.004-0.983,12.77c11.579,8.205,21.363,1.037,31.53-3.072c6.271-2.533,12.624-4.854,19.38-7.438
			c1.375,10.616,8.266,13.904,17.03,9.829c6.744-3.138,13.386-6.491,20.216-9.821c18.764,29.222,37.254,58.532,56.3,87.476
			c0.935,7.128,1.873,14.256,2.807,21.384c0.008,0.053,0.024,0.105,0.033,0.158l-0.22,0.05c0.082,0.832,0.392,1.632,0.881,2.398
			c0.82,1.954,2.301,3.456,4.423,3.986c7.703,4.847,20.841,7.605,18.866,7.605c-2.729,0-3.64-0.457-8.185,0.909
			c-4.545,1.367,0,9.552,0,9.552c2.729-6.369,7.731-0.91,15.463-1.363c7.732-0.452,19.103,6.369,19.103,6.369
			c9.095-0.909,5.002,2.272,2.273,7.731s-4.549,7.731-4.549,7.731c5.459,0.91,8.642-1.819,8.642-1.819
			c2.452-2.758,3.251-7.164,4.21-7.381c-0.098,0.131-0.167,0.221-0.167,0.221c0.241,0.041,0.469,0.065,0.698,0.09
			c0.327,0.444,0.702,1.375,1.171,2.975c2.272,7.731,0.453,5.911,5.459,9.551c5.002,3.64,8.642,7.731,9.094,10.914
			c0.453,3.183,3.358,3.827,3.358,3.827c-2.346-5.651,2.554-11.102-6.577-23.076c7.792,5.887,13.782,10.171,15.394,18.286
			c0.278,1.387,1.334,3.235,2.509,3.729c6.267,2.619,1.734,5.977,0.979,9.045l-0.2,2.742l5.043-5.419
			c2.766-6.911-0.261-15.435-5.166-21.118c0.049-3.994-0.261-8.886-5.875-16.246c7.793,5.888,13.782,10.171,15.394,18.286
			c0.277,1.388,1.334,3.235,2.509,3.729c6.267,2.619,1.734,5.978,0.979,9.045l-0.2,2.742l5.043-5.418
			c2.852-7.124-0.445-15.966-5.614-21.637c-10.983-12.057-24.248-21.154-37.716-29.902c-5.296-3.439-11.942-4.794-18.384-7.254
			c0,0-26.537-4.966-26.802-11.959c-0.718-18.82-3.794-38.209,4.578-56.43c0.535-1.167,0.808-2.759,0.486-3.962
			c-4.574-17.111,1.159-33.272,4.59-49.601c1.914-9.095,4.117-18.168,6.957-27.006c1.146-3.558,4.015-6.772,6.683-9.592
			c6.756-7.127,13.827-13.958,20.804-20.877c1.604-1.591,3.28-3.109,4.99-4.586c12.644-10.947,25.378-21.799,37.899-32.885
			c2.326-2.056,3.398-5.598,5.818-7.462c3.615-2.787,6.842-8.368,12.86-3.794c0.543,0.412,1.816,0.164,2.636-0.122
			c8.728-3.036,17.491-5.986,26.1-9.335c2.212-0.861,4.19-2.803,5.798-4.659c8.14-9.392,15.826-19.192,24.272-28.295
			c4.802-5.173,10.71-9.327,16.197-13.848c5.598-4.61,10.804-9.971,17.042-13.48c12.885-7.254,26.104-14.043,39.687-19.854
			c4.517-1.934,10.571-0.383,15.92-0.241c9.205,0.245,18.417,0.481,27.602,1.057c2.754,0.171,6.124,0.661,8.05,2.342
			c13.814,12.064,27.308,24.492,40.938,36.769c13.203,11.893,26.446,23.746,40.388,34.851c-29.213-34.965-61.343-66.981-96.79-95.7
			c0.363-0.812,0.723-1.624,1.086-2.436c5.377,0.698,11.146,0.379,16.075,2.256c36.022,13.725,70.764,29.751,98.03,58.271
			c0.428,0.449,1.098,0.665,3.297,0.184c-1.714-3.538-2.587-8.009-5.288-10.449C564.229,148.562,554.217,139.187,542.984,131.745z
			 M74.185,186.568c2.86-9.184,9.094-16.091,14.961-23.248C87.387,173.279,82.238,180.921,74.185,186.568z M241.048,477.655
			c0.241,0.824,0.428,1.518,0.592,2.143c-1.245-0.976-2.497-1.938-3.762-2.881C239.053,474.134,239.571,472.641,241.048,477.655z
			 M228.768,468.104c7.438-0.743,6.055,1.252,3.815,4.985c-4.104-2.881-8.278-5.659-12.485-8.393c-1.2-0.779-2.473-1.44-3.791-2.04
			C222.627,464.432,228.768,468.104,228.768,468.104z M202.391,452.64c-2.729,0-3.64-0.452-8.185,0.91
			c-0.987,0.298-1.53,0.926-1.799,1.71c-4.606-1.261-9.915-3.016-13.472-5.125c0.383-0.836,0.563-1.759,0.437-2.717
			c-0.384-2.922-0.767-5.847-1.151-8.769C179.065,447.398,205.116,452.64,202.391,452.64z M172.868,365.467
			c-1.314,3.076-1.371,6.944-1.134,10.384c1,14.5,2.33,28.976,3.537,43.46c-0.869-1.954-2.391-3.456-4.594-3.909
			c-9.662-15.218-19.27-30.473-28.997-45.646c-4.517-7.046-9.454-13.771-9.866-22.685c-0.191-4.17-1.493-8.283-2.187-12.437
			c-1.632-9.763-0.653-10.371,8.751-13.97c6.862-2.627,13.647-6.218,19.437-10.706c10.702-8.29,20.653-17.552,32.501-27.772
			c0.914,4.357,2.505,7.625,2.081,10.604C188.841,317.785,182.814,342.138,172.868,365.467z"/>
	</g>
</g>
<g>
</g>
<g>
</g>
<g>
</g>
<g>
</g>
<g>
</g>
<g>
</g>
<g>
</g>
<g>
</g>
<g>
</g>
<g>
</g>
<g>
</g>
<g>
</g>
<g>
</g>
<g>
</g>
<g>
</g>
</svg>
