<?xml version="1.0" encoding="iso-8859-1"?>
<!-- Generator: Adobe Illustrator 16.0.0, SVG Export Plug-In . SVG Version: 6.00 Build 0)  -->
<!DOCTYPE svg PUBLIC "-//W3C//DTD SVG 1.1//EN" "http://www.w3.org/Graphics/SVG/1.1/DTD/svg11.dtd">
<svg version="1.1" id="Capa_1" xmlns="http://www.w3.org/2000/svg" xmlns:xlink="http://www.w3.org/1999/xlink" x="0px" y="0px"
	 width="590.431px" height="590.431px" viewBox="0 0 590.431 590.431" style="enable-background:new 0 0 590.431 590.431;"
	 xml:space="preserve">
<g>
	<g>
		<path d="M502.698,286.643c-3.815-7.165-5.545-17.291-3.93-25.178c7.948-38.842-23.986-77.879-69.983-57.173
			c-13.848,6.234-20.706,1.554-28.12-10.882c-21.938-36.81-53.541-59.466-98.128-50.959
			c-59.563,11.363-119.054,23.896-177.565,39.67c-28.695,7.731-56.549,15.071-86.357,13.75c-8.07-0.359-16.21,0.877-23.554,1.334
			c-0.037,0.13-0.069,0.245-0.106,0.375c-1.126,0.331-2.028,0.947-2.685,1.754h-0.229c-3.652,0-5.594,2.624-5.867,5.439H5.921
			c-7.895,0-7.895,12.24,0,12.24h4.671c88.491,10.694,165.464,55.835,247.028,95.088c0,0-5.202,15.479-9.042,30.27
			c-4.166,3.284-6.593,7.74-7.156,12.424c-0.53,4.435,0.608,9.074,3.529,13.129c3.709,5.149,9.245,8.776,13.542,13.297
			c5.202,5.472,10.608,10.764,15.892,16.161c5.296,5.414,10.583,10.832,15.883,16.242c1.555,1.588,13.819,15.811,15.08,15.309
			c-0.225,0.09-0.457,0.18-0.62,0.379c-0.972,1.176-1.942,2.347-2.913,3.521c-1.71,0.057-3.411,0.216-5.097,0.469
			c-0.249-0.016-0.497-0.032-0.746-0.049c-0.567-0.036-1,0.144-1.297,0.437c-2.346,0.474-4.68,1.069-6.969,1.93
			c-1.685,0.633-1.897,3.081,0,3.628c3.488,1.012,6.752,0.783,10.024-0.449c0.299,0.306,0.719,0.51,1.29,0.481
			c12.668-0.633,25.161,0.062,37.675,2.126c0.298,0.257,0.686,0.428,1.207,0.392c2.485-0.167,4.97-0.331,7.454-0.498
			c0.854,0.159,1.706,0.318,2.555,0.478c2.37,0.444,3.382-3.183,0.999-3.627l-0.836-0.155c-0.302-0.359-0.759-0.588-1.392-0.547
			c-0.375,0.024-0.746,0.049-1.122,0.073c-2.37-0.444-4.745-0.889-7.115-1.334c0.122-1.012-0.645-2.231-1.844-2.366
			c-8.988-1-17.255-3.505-25.312-7.621c-14.333-15.647-28.703-31.266-42.967-46.978c-7.075-7.797-11.11-12.673-11.709-23.599
			c-0.485-8.902,1.926-17.491,5.741-25.468c10.175-21.261,6.613-23.26,34.875-21.738c-0.71,8.52,0.694,17.92-2.553,25.26
			c-7.226,16.328,1.489,25.32,11.697,35.386c22.62,22.306,44.599,45.26,66.974,67.817c-0.225,0.09-0.457,0.18-0.62,0.38
			c-0.971,1.175-1.942,2.346-2.913,3.521c-1.71,0.058-3.411,0.217-5.096,0.47l-0.747-0.049c-0.567-0.037-1,0.143-1.297,0.437
			c-2.347,0.473-4.681,1.068-6.969,1.93c-1.686,0.633-1.897,3.08,0,3.627c3.492,1.012,6.752,0.783,10.024-0.448
			c0.298,0.306,0.718,0.51,1.289,0.481c12.673-0.633,25.161,0.061,37.675,2.125c0.298,0.258,0.686,0.429,1.208,0.392l7.454-0.497
			c0.853,0.159,1.705,0.318,2.554,0.481c2.37,0.444,3.382-3.183,1-3.628c-0.278-0.053-0.56-0.105-0.837-0.158
			c-0.302-0.359-0.759-0.588-1.392-0.547l-1.122,0.073c-2.374-0.444-4.744-0.89-7.115-1.334c0.123-1.012-0.645-2.232-1.844-2.366
			c-8.988-1-17.255-3.505-25.312-7.622c-17.671-19.286-35.361-38.495-52.844-57.891c-14.88-16.508-22.95-35.329-21.049-58.275
			c0.84-10.163,3.843-15.973,14.296-18.466c9.029-2.154,17.308-7.515,26.349-9.555c1.481-0.334,2.966-0.701,4.447-1.044
			c16.826,4.223,34.709,2.746,50.339-4.268c9.001-2.587,17.589-6.565,25.541-11.722c5.141-0.706,10.29-1.33,15.455-1.718
			c12.518-0.946,29.282,11.314,38.842,22.191c31.819,36.218,61.2,74.574,91.645,112.004c4.439,5.455,9.584,10.334,14.406,15.479
			l3.718-3.235c-14.9-18.765-31.119-36.646-44.354-56.517C530.169,337.259,516.198,312.004,502.698,286.643z"/>
	</g>
</g>
<g>
</g>
<g>
</g>
<g>
</g>
<g>
</g>
<g>
</g>
<g>
</g>
<g>
</g>
<g>
</g>
<g>
</g>
<g>
</g>
<g>
</g>
<g>
</g>
<g>
</g>
<g>
</g>
<g>
</g>
</svg>
