<svg height="512" viewBox="0 0 512 512" width="512" xmlns="http://www.w3.org/2000/svg"><g id="Filled_outline" data-name="Filled outline"><path d="m288 384v64 40h32v-104z" fill="#f98500"/><path d="m256 384v64l-64-8v48h96v-104z" fill="#ffb531"/><path d="m92.42 58.15-36.42 21.85-21.79 5.45a13.476 13.476 0 0 0 3.27 26.55h74.52v-48z" fill="#ffb531"/><path d="m432.569 261.65-215.8-68.236a24 24 0 0 1 -16.769-22.883v-90.531a56 56 0 0 0 -56-56 56 56 0 0 0 -56 56v32h48l-19.77 85.669a165.187 165.187 0 0 0 -4.23 37.144 165.187 165.187 0 0 0 165.187 165.187h60.4a165.186 165.186 0 0 0 135.7-70.987l2.418-3.482a93.384 93.384 0 0 0 12.295-46.331v-31.2l-40.606 13.535a23.993 23.993 0 0 1 -14.825.115z" fill="#e0e0de"/><path d="m488 248v31.2a93.409 93.409 0 0 1 -12.3 46.33l-2.42 3.48a165.178 165.178 0 0 1 -135.7 70.99h-60.39a165.187 165.187 0 0 1 -160.96-202.33l19.77-85.67h-48v-32a56 56 0 0 1 112 0v90.53a23.985 23.985 0 0 0 16.76 22.88l167.36 52.92 48.45 15.32a23.977 23.977 0 0 0 14.82-.11z" fill="#dbdbd9"/><path d="m488 248v31.2a93.409 93.409 0 0 1 -12.3 46.33l-2.42 3.48a165.178 165.178 0 0 1 -135.7 70.99h-60.39a165.3 165.3 0 0 1 -137.01-72.88c80.79-15.57 167.38-40.62 243.94-80.79l48.45 15.32a23.977 23.977 0 0 0 14.82-.11z" fill="#d6d6d4"/><path d="m492.678 241.51a8 8 0 0 0 -7.208-1.1l-40.607 13.535a15.891 15.891 0 0 1 -9.883.076l-215.8-68.236a15.939 15.939 0 0 1 -11.18-15.254v-90.531a63.993 63.993 0 0 0 -121.8-27.444l-33.3 19.972-20.63 5.161a21.476 21.476 0 0 0 5.21 42.311h88.463l-17.507 75.87a173.36 173.36 0 0 0 -4.436 38.943c0 85.55 62.355 156.8 144 170.715v33.41l-55.008-6.876a8 8 0 0 0 -8.992 7.938v48a8 8 0 0 0 8 8h128a8 8 0 0 0 8-8v-80h9.585a173.24 173.24 0 0 0 142.266-74.425l2.417-3.481c.133-.193.258-.39.375-.594a101.553 101.553 0 0 0 13.357-50.3v-31.2a8 8 0 0 0 -3.322-6.49zm-460.678-142.99a5.467 5.467 0 0 1 4.151-5.309l21.79-5.45a8.008 8.008 0 0 0 2.174-.9l20.115-12.069c-.139 1.72-.23 3.453-.23 5.208v24h-42.52a5.486 5.486 0 0 1 -5.48-5.48zm168 350.542 55.008 6.876a8 8 0 0 0 8.992-7.938v-40h16v72h-80zm112 30.938h-16v-72h16zm168-200.8a85.523 85.523 0 0 1 -11.08 42.062l-2.212 3.187a157.238 157.238 0 0 1 -129.123 67.551h-60.4c-86.671 0-157.185-70.514-157.185-157.187a157.4 157.4 0 0 1 4.025-35.345l19.77-85.669a8 8 0 0 0 -7.795-9.799h-40v-24a48 48 0 0 1 96 0v90.531a31.88 31.88 0 0 0 22.353 30.511l215.8 68.236a31.8 31.8 0 0 0 19.768-.153l30.079-10.025z"/><path d="m128 64h16v16h-16z"/><path d="m413.358 302.584-130.7-46.128-5.324 15.088 124.224 43.844a107.019 107.019 0 0 1 -32.177 20.522l-94.308-39.3-6.154 14.77 75.421 31.425a107.864 107.864 0 0 1 -15.9 1.19h-18.32a110.12 110.12 0 0 1 -110.12-110.115v-17.88h-16v17.88a126.118 126.118 0 0 0 126.12 126.12h18.326a123.774 123.774 0 0 0 110.709-68.422l-14.31-7.156a107.739 107.739 0 0 1 -11.487 18.162z"/></g></svg>