<svg id="Capa_1" enable-background="new 0 0 507.991 507.991" height="512" viewBox="0 0 507.991 507.991" width="512" xmlns="http://www.w3.org/2000/svg"><g><g><path d="m49.849 131.183-41.692-9.077c-.566-.123-.838-.77-.531-1.261 6.077-9.723 16.163-16.239 27.524-17.783l20.433-2.776 33.445-6.653-8.322 42.755z" fill="#a79ba7"/><path d="m49.849 131.183-41.692-9.077c-.566-.123-.838-.77-.531-1.261 6.077-9.723 16.163-16.239 27.524-17.783l20.433-2.776 33.445-6.653-8.322 42.755z" fill="#a79ba7"/><g><g id="XMLID_268_"><path d="m205.272 123.189-25.21-26.81c-28.61-30.41-75.66-34.06-108.62-8.43l-15.86 12.34.6 2.22c2.54 9.5.55 19.63-5.4 27.45l-.93 1.22 3.62 14.11c3.05 11.89 10.63 22.12 21.11 28.51l.98.6c.48.3.79.8.84 1.36l3.14 35.49c7.31 82.61 73.32 147.81 156.02 154.08l11.6.88c39.31 2.98 78.6-6.11 112.61-26.05l1.99-1.17z" fill="#efedef"/><g><g id="XMLID_270_"><g><path d="m440.172 316.389c2.52.99 2.28 4.62-.34 5.28l-45.5 11.44c-10.75 2.7-21.63 4.66-32.57 5.88-30.66 3.44-61.8 1.08-91.77-7.06l-5.27-1.43c-28.87-7.85-54.53-23.14-74.83-43.73-20.3-20.58-35.24-46.44-42.69-75.43-5.97-23.26 2.83-47.82 22.23-61.98l35.84-26.17 104.56 111.15c30.21 32.13 67.16 57.17 108.2 73.33z" fill="#918291"/></g></g></g></g><path d="m278.044 365.329c-82.7-6.27-148.71-71.47-156.02-154.08l-3.039-34.351c-.113-1.279-.826-2.429-1.921-3.099-10.48-6.39-18.06-16.62-21.11-28.51l-.75-2.926c-1.89-7.367-2.151-15.058-.764-22.537 2.335-12.586 9.204-23.879 19.307-31.74l.177-.138c8.698-6.763 18.396-11.474 28.459-14.206-23.813-6.462-50.179-1.938-70.941 14.206l-15.86 12.34.6 2.22c2.54 9.5.55 19.63-5.4 27.45l-.93 1.22 3.62 14.11c3.05 11.89 10.63 22.12 21.11 28.51l.98.6c.479.293.79.795.839 1.354l3.141 35.496c7.31 82.61 73.32 147.81 156.02 154.08l11.6.88c11.789.894 23.58.701 35.224-.543z" fill="#e5e1e5"/><g id="XMLID_271_"><g><path d="m125.052 157.849 32.28 3.37c-4.94 6.49-8.45 13.93-10.35 21.79l-15.29.9c-17.36 1.01-34.76-1.29-51.26-6.81l-4.03-1.34c-.05-.56-.36-1.06-.84-1.36l-.98-.6c-10.48-6.39-18.06-16.62-21.11-28.51l-3.62-14.11.93-1.22c4.03-5.3 6.24-11.65 6.45-18.15l1.81 2.52 12.06 14.6c13.5 16.34 32.87 26.72 53.95 28.92z" fill="#c9bfc8"/></g></g><path d="m349.295 345.872 50.813 33.306c29.539 19.362 66.966 22.151 99.049 7.383 1.76-.81 1.783-3.303.038-4.146l-6.199-2.993c-1.535-.741-2.986-1.645-4.327-2.697l-65.002-50.992-27.851-22.824s-82.133 25.586-81.268 25.298c.865-.289 34.747 17.665 34.747 17.665z" fill="#918291"/><g id="XMLID_272_"><g><path d="m406.652 302.909-3 .29-165.33 17.66h-.01c-17.74-8.23-33.75-19.46-47.39-33.06l165.33-10.33 4.06-.19c14.62 9.89 30.13 18.47 46.34 25.63z" fill="#685e68"/><g fill="#7a6d79"><path d="m440.172 316.389c2.52.99 2.28 4.62-.34 5.28l-45.5 11.44c-10.75 2.7-21.63 4.66-32.57 5.88-30.66 3.44-61.8 1.08-91.77-7.06l-5.27-1.43c-9.14-2.49-17.97-5.72-26.4-9.64l165.33-17.66 3-.29c3.75 1.67 7.55 3.25 11.38 4.76z"/><path d="m360.312 277.279-4.06.19-165.33 10.33h-.01c-.34-.35-.68-.69-1.02-1.03-10.31-10.45-19.23-22.26-26.49-35.15l165.54 1.3c9.91 8.82 20.39 16.96 31.37 24.36z"/></g></g></g></g><path d="m119.619 184.071-.635-7.173c-.113-1.279-.826-2.429-1.921-3.099-9.142-5.574-16.075-14.071-19.721-24.042-10.01-4.995-18.979-12.039-26.24-20.828l-12.06-14.6-1.81-2.52c-.21 6.5-2.42 12.85-6.45 18.15l-.93 1.22 3.62 14.11c3.05 11.89 10.63 22.12 21.11 28.51l.98.6c.48.3.79.8.84 1.36l4.03 1.34c12.673 4.24 25.878 6.572 39.187 6.972z" fill="#b5adb6"/></g><g><path d="m107.066 122.914c4.143 0 7.5-3.358 7.5-7.5v-8.367c0-4.142-3.357-7.5-7.5-7.5s-7.5 3.358-7.5 7.5v8.367c0 4.142 3.357 7.5 7.5 7.5z"/><path d="m502.455 375.661-6.2-2.994c-1.045-.504-2.04-1.125-2.957-1.843l-52.962-41.547 1.325-.333c4.347-1.093 7.462-4.832 7.751-9.305s-2.317-8.582-6.488-10.226l-22.147-8.723c-39.742-15.654-76.219-40.373-105.485-71.487l-56.107-59.648c-2.838-3.018-7.585-3.162-10.602-.324-3.018 2.838-3.162 7.584-.324 10.602l56.107 59.648c1.84 1.956 3.71 3.884 5.603 5.792l-142.078-1.121c-5.755-10.871-10.292-22.488-13.422-34.675-5.243-20.413 2.367-41.634 19.387-54.063l30.49-22.266 22.003 23.392c2.838 3.018 7.585 3.162 10.602.324 3.018-2.838 3.162-7.584.324-10.602l-51.754-55.02c-15.118-16.072-35.56-25.864-57.559-27.572-22.004-1.708-43.707 4.813-61.124 18.359l-14.267 11.098-18.431 2.504c-13.611 1.849-25.594 9.591-32.868 21.231-1.44 2.297-1.672 5.161-.62 7.66 1.052 2.5 3.262 4.336 5.91 4.913l37.173 8.093 2.473 9.629c3.412 13.291 11.542 24.628 22.977 32.107l2.888 32.646c4.716 53.317 32.883 101.103 77.277 131.104 1.287.87 2.747 1.287 4.192 1.287 2.407 0 4.771-1.157 6.221-3.302 2.319-3.432 1.418-8.094-2.015-10.413-40.636-27.461-66.418-71.199-70.734-119.997l-2.148-24.29c12.645 3.549 25.62 5.342 38.745 5.342 2.835 0 5.679-.083 8.526-.25l5.924-.348c-.613 7.288-.02 14.768 1.88 22.165 15.527 60.449 62.587 108.164 122.815 124.523l5.267 1.431c18.949 5.148 38.407 8.048 57.937 8.698-24.859 9.152-51.406 12.898-78.228 10.865l-11.601-.879c-17.39-1.319-34.327-5.39-50.344-12.102-3.82-1.599-8.215.199-9.815 4.019s.198 8.215 4.019 9.816c17.503 7.334 36.01 11.783 55.006 13.224l10.032.76-20.197 32.184h-17.764c-4.143 0-7.5 3.358-7.5 7.5s3.357 7.5 7.5 7.5h21.912c2.581 0 4.98-1.327 6.353-3.514l4.634-7.384 5.478 7.733c1.406 1.985 3.688 3.165 6.12 3.165h4.341l-5.509 8.839h-17.749c-4.143 0-7.5 3.358-7.5 7.5s3.357 7.5 7.5 7.5h21.912c2.589 0 4.995-1.335 6.365-3.533l4.604-7.387 5.493 7.755c1.406 1.985 3.688 3.165 6.12 3.165h16.476c4.143 0 7.5-3.358 7.5-7.5s-3.357-7.5-7.5-7.5h-12.598l-6.887-9.724 31.414-50.4c14.866-3.31 29.343-8.322 43.204-14.982l29.515 19.346c1.268.831 2.693 1.229 4.104 1.229 2.443 0 4.84-1.193 6.279-3.39 2.271-3.464 1.304-8.113-2.161-10.384l-22.626-14.83.354-.208c10.743-1.268 21.417-3.218 31.945-5.864l25.771-6.477 62.111 48.725c.525.412 1.064.807 1.615 1.185-23.732 7.754-49.474 5.878-72.117-5.541-3.698-1.863-8.209-.379-10.073 3.32-1.865 3.698-.379 8.208 3.319 10.074 15.646 7.89 32.563 11.845 49.506 11.845 15.643 0 31.309-3.374 46.001-10.137 3.479-1.602 5.662-4.975 5.697-8.805.034-3.829-2.087-7.242-5.536-8.907zm-426.408-281.79c14.463-11.249 32.497-16.664 50.754-15.245 18.267 1.418 35.24 9.548 47.794 22.894l19.394 20.617-28.979 21.163c-4.082 2.981-7.743 6.354-10.959 10.038l-28.218-2.944c-19.244-2.008-36.628-11.328-48.951-26.246l-12.056-14.593c-.035-.042-.074-.079-.11-.12-.064-2.081-.284-4.161-.683-6.219zm-39.887 16.623 13.505-1.835c.408 4.895-.685 9.853-3.123 14.128l-25.809-5.619c4.375-3.56 9.685-5.894 15.427-6.674zm95.097 65.922c-14.612.857-29.075-.744-43.079-4.762-3.405-.977-6.655-2.436-9.695-4.255-8.863-5.405-15.166-13.918-17.747-23.974l-2.739-10.665c1.01-1.494 1.903-3.055 2.692-4.663l4.628 5.603c14.751 17.856 35.923 29.207 58.959 31.611l20.36 2.124c-1.345 2.718-2.493 5.525-3.448 8.397zm108.415 136.757c-10.84-5.207-20.99-11.598-30.288-19.014l147.34-9.205c.469-.029.924-.107 1.365-.217 7.2 4.783 14.598 9.261 22.167 13.422zm-62.679-53.949 149.166 1.177c4.201 3.657 8.503 7.2 12.9 10.627l-145.115 9.066c-6.217-6.457-11.89-13.437-16.951-20.87zm88.26 146.524h-9.812l-6.841-9.658 13.698-21.829c7.878-.012 15.709-.505 23.471-1.429zm127.251-79.916c-39.421 9.908-80.98 9.539-120.217-1.057l132.159-14.114c.309-.033.609-.09.904-.158 3.29 1.434 6.595 2.83 9.93 4.144l8.465 3.334z"/></g></g></svg>