<?xml version="1.0" encoding="iso-8859-1"?>
<!-- Generator: Adobe Illustrator 19.0.0, SVG Export Plug-In . SVG Version: 6.00 Build 0)  -->
<svg version="1.1" id="Capa_1" xmlns="http://www.w3.org/2000/svg" xmlns:xlink="http://www.w3.org/1999/xlink" x="0px" y="0px"
	 viewBox="0 0 512 512" style="enable-background:new 0 0 512 512;" xml:space="preserve">
<path style="fill:#EB914B;" d="M85.965,45.206L19.638,62.423c-6.095,1.524-10.371,7-10.371,13.282
	c0,7.562,6.13,13.691,13.691,13.691h74.183L85.965,45.206z"/>
<path style="fill:#D2783C;" d="M9.268,75.705c0,7.562,6.13,13.691,13.691,13.691h74.182l-4.11-16.254H9.701
	C9.536,73.994,9.268,74.813,9.268,75.705z"/>
<path style="fill:#EBAF4B;" d="M277.457,495.746h-40.635v-81.27c0-4.488-3.635-8.127-8.127-8.127s-8.127,3.639-8.127,8.127v81.27
	h-48.762c-4.492,0-8.127,3.639-8.127,8.127s3.635,8.127,8.127,8.127h105.651c4.492,0,8.127-3.639,8.127-8.127
	C285.585,499.385,281.949,495.746,277.457,495.746z"/>
<path style="fill:#FFC850;" d="M277.457,495.746h-8.127v-81.27c0-4.488-3.635-8.127-8.127-8.127s-8.127,3.639-8.127,8.127v81.27
	h-48.762c-4.492,0-8.127,3.639-8.127,8.127s3.635,8.127,8.127,8.127h73.143c4.492,0,8.127-3.639,8.127-8.127
	C285.585,499.385,281.949,495.746,277.457,495.746z"/>
<path style="fill:#BEE86E;" d="M479.474,406.09c5.986,0.11,12.037,0.196,18.209,0.235c3.577,0.023,6.031-3.601,4.664-6.907
	c-14.412-34.862-90.816-189.953-314.287-204.371V57.853c0-31.691-25.494-58.014-57.185-57.852
	c-31.353,0.16-56.707,25.682-56.592,57.1c0.098,26.935,22.365,48.551,49.3,48.551h7.589c0,73.143-65.016,105.651-65.016,170.667
	s56.889,162.54,284.444,162.54h132.186c3.177,0,5.542-2.918,4.894-6.028c-1.163-5.579-3.446-14.773-7.669-26.488L479.474,406.09z"/>
<path style="fill:#AFD755;" d="M171.807,365.714c-69.389-53.97-66.446-118.052-40.635-170.667
	c17.345-35.357,23.3-69.838,25.344-89.346c0.872-8.321-4.815-16.044-13.06-17.469c-35.755-6.177-53.989-36.451-43.673-78.77
	C84.599,19.532,74.516,36.679,74.288,56.21c-0.318,27.191,22.478,49.441,49.671,49.441h7.214
	c0,73.143-65.016,105.651-65.016,170.667s56.889,162.54,284.444,162.54H482.77c3.17,0,5.549-2.912,4.896-6.015
	c-0.826-3.928-2.204-9.645-4.405-16.746C385.105,422.783,231.745,412.334,171.807,365.714z"/>
<path style="fill:#AF6E5A;" d="M350.6,438.857h132.186c3.177,0,5.542-2.918,4.894-6.028c-1.163-5.579-3.446-14.773-7.669-26.488
	l-0.538-0.25c5.986,0.11,12.037,0.196,18.209,0.235c3.577,0.023,6.031-3.601,4.664-6.907
	c-14.412-34.862-90.816-189.953-314.287-204.371v-30.379c-31.7-1.597-54.261-10.827-64.947-16.212
	c-17.35,46.019-56.957,77.048-56.957,127.862C66.157,341.333,123.046,438.857,350.6,438.857z"/>
<path style="fill:#965A50;" d="M483.26,416.096c-98.155,6.687-251.514-3.762-311.453-50.382
	c-69.389-53.97-66.446-118.052-40.635-170.667c6.326-12.895,11.103-25.652,14.761-37.629c-10.023-3.044-17.784-6.425-22.82-8.962
	l-0.001,0.001c-17.35,46.018-56.957,77.047-56.957,127.86c0,65.016,56.889,162.54,284.444,162.54h132.169
	c3.17,0,5.549-2.912,4.896-6.015c-0.826-3.925-2.202-9.635-4.4-16.728C483.263,416.109,483.262,416.102,483.26,416.096z"/>
<path style="fill:#EBC9A0;" d="M480.011,406.341l-0.538-0.25c5.985,0.11,12.036,0.196,18.207,0.235
	c3.577,0.023,6.032-3.602,4.664-6.907c-14.377-34.75-90.387-188.952-312.253-204.192c-19.301,6.661-35.538,14.366-45.714,23.186
	c-40.228,34.865-54.275,177.412,90.413,209.27c12.831,2.825,26.714,5.182,41.184,7.159c22.573,2.58,47.341,4.015,74.626,4.015
	h132.186c3.177,0,5.542-2.918,4.894-6.028C486.516,427.25,484.233,418.056,480.011,406.341z"/>
<path style="fill:#965A50;" d="M188.061,195.048c223.484,14.418,299.883,169.526,314.289,204.377
	c1.366,3.305-1.085,6.924-4.661,6.906C107.092,404.349,131.173,243.81,131.173,243.81
	C131.173,219.429,154.199,194.37,188.061,195.048z"/>
<path style="fill:#4B3F4E;" d="M123.046,65.016L123.046,65.016c-8.977,0-16.254-7.277-16.254-16.254l0,0
	c0-8.977,7.277-16.254,16.254-16.254l0,0c8.977,0,16.254,7.277,16.254,16.254l0,0C139.299,57.739,132.021,65.016,123.046,65.016z"/>
<path style="fill:#824641;" d="M188.061,195.048c-15.204-0.304-28.207,4.583-37.922,12.267
	c-13.977,11.055-17.281,30.416-9.125,46.261c36.643,71.191,150.03,80.629,217.715,70.006c37.925-5.952,76.469-22.736,76.469-22.736
	C386.93,251.948,309.118,202.858,188.061,195.048z"/>
<circle style="fill:#FFFFFF;" cx="131.171" cy="40.635" r="8.127"/>
<g>
</g>
<g>
</g>
<g>
</g>
<g>
</g>
<g>
</g>
<g>
</g>
<g>
</g>
<g>
</g>
<g>
</g>
<g>
</g>
<g>
</g>
<g>
</g>
<g>
</g>
<g>
</g>
<g>
</g>
</svg>
