<svg id="Capa_1" enable-background="new 0 0 512 512" height="512" viewBox="0 0 512 512" width="512" xmlns="http://www.w3.org/2000/svg"><g id="XMLID_88_"><path id="XMLID_1170_" d="m87.561 54.284c-35.048 0-63.561 28.513-63.561 63.561h90.929v-63.561z" fill="#ff641a"/><path id="XMLID_1158_" d="m497.63 285.41v16.77c0 1.14-.01 2.47-.03 3.99-.21 14.68-1.42 46.55-3.5 83.11l-.31 5.5-4.71 2.87c-.87.53-1.74 1.07-2.61 1.62-8.07 5.05-18.13 11.35-36.73 11.35-18.58 0-28.62-6.28-36.7-11.33-7.26-4.54-13-8.13-25.55-8.13s-18.29 3.59-25.56 8.13c-8.08 5.05-18.12 11.33-36.7 11.33-18.57 0-28.61-6.28-36.69-11.33-7.26-4.54-13.01-8.13-25.56-8.13s-18.3 3.59-25.56 8.13c-8.07 5.05-18.12 11.33-36.69 11.33-18.58 0-28.62-6.28-36.7-11.33-7.26-4.54-13-8.13-25.55-8.13-.61 0-1.21.01-1.79.03l-2.58.07-3.07-1.5-.73-.5c-28.45-19.92-42.88-49.8-42.88-88.8v-228.67c0-33.64 27.36-61.01 61-61.01h17.6c35 0 63.47 28.47 63.47 63.47v95.53c0 7.44 6.05 13.49 13.48 13.49h44.3c32.72 0 64.59 9.29 92.17 26.86l103.67 66.04z" fill="#f5f3f2"/><path id="XMLID_1615_" d="m483.12 276.17-103.67-66.04c-27.58-17.57-59.45-26.86-92.17-26.86h-44.3c-7.43 0-13.48-6.05-13.48-13.49v-95.53c0-35-28.47-63.47-63.47-63.47h-9.03v384.407c2.378 1.201 4.622 2.597 7.03 4.103 8.08 5.05 18.12 11.33 36.7 11.33 18.57 0 28.62-6.28 36.69-11.33 7.26-4.54 13.01-8.13 25.56-8.13s18.3 3.59 25.56 8.13c8.08 5.05 18.12 11.33 36.69 11.33 18.58 0 28.62-6.28 36.7-11.33 7.27-4.54 13.01-8.13 25.56-8.13s18.29 3.59 25.55 8.13c8.08 5.05 18.12 11.33 36.7 11.33 18.6 0 28.66-6.3 36.73-11.35.87-.55 1.74-1.09 2.61-1.62l4.71-2.87.31-5.5c2.08-36.56 3.29-68.43 3.5-83.11.02-1.52.03-2.85.03-3.99v-16.77z" fill="#f4e3df"/><path id="XMLID_298_" d="m449.743 432.18c-19.866 0-30.519-6.657-39.078-12.007-7.176-4.484-11.917-7.447-23.18-7.447-11.262 0-16.002 2.963-23.177 7.447-8.56 5.349-19.212 12.007-39.077 12.007s-30.517-6.658-39.076-12.007c-7.175-4.484-11.915-7.447-23.176-7.447s-16 2.962-23.175 7.447c-8.559 5.35-19.211 12.007-39.075 12.007-19.865 0-30.517-6.658-39.076-12.007-7.175-4.484-11.915-7.447-23.176-7.447s-16.001 2.962-23.176 7.447c-8.56 5.35-19.211 12.007-39.076 12.007-19.864 0-30.517-6.658-39.075-12.007-7.175-4.484-11.914-7.447-23.175-7.447h-13.975v-30h13.976c19.864 0 30.517 6.658 39.075 12.007 7.175 4.484 11.914 7.447 23.175 7.447s16.001-2.962 23.176-7.447c8.56-5.35 19.211-12.007 39.076-12.007s30.517 6.658 39.076 12.007c7.175 4.484 11.915 7.447 23.176 7.447s16-2.962 23.175-7.447c8.559-5.35 19.211-12.007 39.075-12.007 19.865 0 30.517 6.658 39.076 12.007 7.175 4.484 11.915 7.447 23.176 7.447 11.262 0 16.002-2.963 23.177-7.447 8.56-5.349 19.212-12.007 39.077-12.007 19.866 0 30.519 6.657 39.078 12.007 7.176 4.484 11.917 7.447 23.18 7.447 11.262 0 16.003-2.963 23.179-7.447 8.56-5.349 19.212-12.007 39.078-12.007v30c-11.263 0-16.004 2.963-23.18 7.447-8.56 5.35-19.213 12.007-39.078 12.007z" fill="#2ad8f6"/><path id="XMLID_296_" d="m325.231 501.22c-19.865 0-30.517-6.658-39.076-12.007-7.175-4.484-11.915-7.447-23.176-7.447s-16 2.962-23.175 7.447c-8.559 5.35-19.211 12.007-39.075 12.007-19.865 0-30.517-6.658-39.076-12.007-7.175-4.484-11.915-7.447-23.176-7.447v-30c19.865 0 30.517 6.658 39.076 12.007 7.175 4.484 11.915 7.447 23.176 7.447s16-2.962 23.175-7.447c8.559-5.35 19.211-12.007 39.075-12.007 19.865 0 30.517 6.658 39.076 12.007 7.175 4.484 11.915 7.447 23.176 7.447 11.262 0 16.002-2.962 23.177-7.447 8.56-5.349 19.212-12.007 39.077-12.007v30c-11.262 0-16.002 2.962-23.177 7.447-8.559 5.349-19.211 12.007-39.077 12.007z" fill="#a8ebfa"/><path id="XMLID_294_" d="m472.922 394.733c-7.176 4.484-11.917 7.447-23.179 7.447-11.263 0-16.004-2.963-23.18-7.447-8.56-5.35-19.212-12.007-39.078-12.007-19.865 0-30.518 6.658-39.077 12.007-7.175 4.484-11.915 7.447-23.177 7.447-11.261 0-16.001-2.962-23.176-7.447-8.56-5.35-19.211-12.007-39.076-12.007v30c11.261 0 16.001 2.962 23.176 7.447 8.56 5.35 19.211 12.007 39.076 12.007s30.518-6.658 39.077-12.007c7.175-4.484 11.915-7.447 23.177-7.447 11.263 0 16.004 2.963 23.18 7.447 8.56 5.35 19.212 12.007 39.078 12.007 19.865 0 30.518-6.657 39.077-12.007 7.176-4.484 11.917-7.447 23.18-7.447v-30c-19.866 0-30.519 6.658-39.078 12.007z" fill="#00c0f1"/><path id="XMLID_291_" d="m348.408 463.773c-7.175 4.485-11.915 7.447-23.177 7.447-11.261 0-16.001-2.962-23.176-7.447-8.56-5.35-19.211-12.007-39.076-12.007v30c11.261 0 16.001 2.962 23.176 7.447 8.56 5.35 19.211 12.007 39.076 12.007s30.518-6.658 39.077-12.007c7.175-4.485 11.915-7.447 23.177-7.447v-30c-19.865 0-30.517 6.658-39.077 12.007z" fill="#2ad8f6"/><path id="XMLID_1633_" d="m157 62.66c-7.846 0-15.363 6.899-15 15 .364 8.127 6.591 15 15 15 7.846 0 15.363-6.899 15-15-.364-8.127-6.591-15-15-15z" fill="#ad7042"/><path id="XMLID_14_" d="" fill="none" stroke="#000" stroke-miterlimit="10" stroke-width="30"/><path id="XMLID_1155_" d="m497.63 285.41v16.77c0 1.14-.01 2.47-.03 3.99h-231.2c-29.14 0-56.77-11.11-77.8-31.28l20.77-21.65c15.41 14.79 35.66 22.93 57.03 22.93h216.72z" fill="#c4b3af"/><path id="XMLID_372_" d="m157 62.66v30c7.846 0 15.363-6.899 15-15-.364-8.127-6.591-15-15-15z" fill="#914d24"/></g></svg>