<?xml version="1.0" encoding="iso-8859-1"?>
<!-- Generator: Adobe Illustrator 17.1.0, SVG Export Plug-In . SVG Version: 6.00 Build 0)  -->
<!DOCTYPE svg PUBLIC "-//W3C//DTD SVG 1.1//EN" "http://www.w3.org/Graphics/SVG/1.1/DTD/svg11.dtd">
<svg version="1.1" id="Capa_1" xmlns="http://www.w3.org/2000/svg" xmlns:xlink="http://www.w3.org/1999/xlink" x="0px" y="0px"
	 viewBox="0 0 388.136 388.136" style="enable-background:new 0 0 388.136 388.136;" xml:space="preserve">
<path d="M306.847,298.999c-3.63-6.354-10.938-23.301-22.343-51.812c-9.334-23.335-28.757-71.892-51.614-96.828
	c-16.469-17.965-33.495-20.3-47.177-22.177c-5.155-0.707-10.024-1.375-14.228-2.789c-18.388-6.185-19.413-29.95-19.418-30.188
	c-0.325-14.947,5.305-27.099,10.749-38.851c2.699-5.824,5.248-11.326,6.904-16.874c3.91-13.089,3.096-24.7-2.234-31.854
	c-4.73-6.349-12.715-8.866-22.528-7.054c-13.366,2.468-22.114,20.682-33.189,43.743c-1.508,3.14-3.06,6.371-4.672,9.664
	C100.872,66.697,91.1,76.192,85.261,81.865c-3.546,3.446-4.668,4.585-4.666,5.628c0.003,1.18,0.736,1.942,1.867,1.942
	c2.606,0,9.499-4.174,34.663-24.544c13.729-11.114,15.626-11.934,24.711-14.975c0.291-0.098,0.302-0.145,0.438,0.043
	c3.036,4.162-8.959,41.562-12.901,53.853l-0.432,1.339c-3.043,9.424-7.643,23.666-10.478,58.314
	c-1.733,21.175,3.317,58.418,6.68,62.583c0.727,0.9,1.437,1.337,2.171,1.337c1.895,0,2.503-2.632,3.09-5.177
	c0.165-0.713,0.392-1.696,0.603-2.278c0.653,0.807,1.641,2.814,2.274,4.1c1.417,2.88,2.271,4.531,3.325,4.971
	c1.296,0.542,2.213,0.404,2.75-0.282c0.693-0.884,0.354-2.262-0.039-3.858c-0.173-0.703-0.484-1.966-0.4-2.431
	c0.692,0.085,1.976,2.758,2.599,4.053c1.203,2.503,2.152,4.48,3.722,4.48c1.227,0,1.869-1.247,2.08-1.657
	c1.022-1.984,1.921-1.984,2.216-1.984c2.479,0,6.388,5.167,10.526,10.638c2.708,3.58,5.776,7.637,9.083,11.146
	c4.765,5.056,12.629,11.4,21.956,17.752c0.542,12.46,1.059,26.686,1.44,40.653c-1.198,1.233-1.952,2.983-1.952,4.927
	c0,2.079,0.858,3.94,2.204,5.18c0.607,27.013,0.579,51.098-0.945,56.753c-1.092-0.264-2.9-0.752-4.552-1.199
	c-5.91-1.598-10.575-2.819-12.397-2.819c-1.191,0-1.692,0.562-1.903,1.033c-0.104,0.233-0.385,1.057,0.364,1.895
	c1.103,1.232,1.139,1.747,1.158,1.747c-0.397,0.534-2.994,0.845-4.243,0.995c-2.695,0.323-5.482,0.657-5.482,2.982
	c0,1.717,1.709,2.454,7.63,3.561c-3.651,0.898-6.075,1.807-5.585,4.174c0.287,1.393,1.853,1.393,2.694,1.393c0,0,0,0,0,0
	c2.281,0,7.157-0.506,11.873-0.995c1.671-0.173,3.363-0.349,4.907-0.497c0.006,0.034,0.006,0.065,0.014,0.1
	c0.288,1.392,1.853,1.392,2.694,1.392c0,0,0,0,0,0c2.281,0,7.158-0.506,11.873-0.995c4.133-0.429,8.406-0.872,10.203-0.887
	l1.299-0.006c10.419-0.034,15.744-0.642,15.934-3.867c0.067-1.141-0.728-1.561-2.648-2.576c-1.021-0.539-3.682-1.945-4.147-2.686
	c0.05-8.991-0.082-36.144-0.226-60.955c0.644-1.068,1.021-2.347,1.021-3.723c0-1.407-0.394-2.714-1.065-3.797
	c-0.055-9.175-0.109-17.706-0.153-24.466c7.525,3.24,12.478,4.52,15.552,4.037c0.516-0.081,0.95-0.346,1.257-0.768
	c0.07-0.097,0.133-0.2,0.188-0.311l2.088,2.215c14.267,15.149,18.09,19.112,20.294,19.112c0.488,0,0.927-0.195,1.236-0.55
	c0.542-0.622,0.661-1.625,0.409-3.463c-0.849-6.188,0.022-6.86,0.066-6.881c3.005,0,15.384,19.256,23.575,31.999
	c6.137,9.546,8.675,10.771,10.201,10.771c0.774,0,1.451-0.381,1.906-1.073c3.142-4.778-3.591-27.756-8.305-38.676
	c-5.91-13.695-7.708-20.71-7.557-22.582c0.319,0.217,0.892,0.7,1.81,1.771c0.19,0.222,19.684,22.207,22.553,22.207
	c0.419,0,0.79-0.21,0.994-0.562C307.74,300.8,307.471,300.091,306.847,298.999z M201.819,316.165
	c0.644-1.068,1.021-2.347,1.021-3.723c0-1.407-0.394-2.714-1.065-3.797c-0.089-14.814-0.175-27.943-0.22-34.652
	c0.096-0.024,0.193-0.048,0.28-0.086c0.725,0.433,1.46,0.859,2.186,1.28c1.586,0.919,3.083,1.787,4.298,2.62l2.777,1.461
	c0.35,9.11,0.673,18.738,0.932,28.246c-1.198,1.233-1.952,2.983-1.952,4.928c0,2.08,0.859,3.941,2.204,5.18
	c0.607,27.015,0.579,51.102-0.945,56.752c-1.093-0.263-2.901-0.752-4.554-1.199c-1.691-0.457-3.276-0.882-4.726-1.258
	C202.054,360.038,201.941,337.258,201.819,316.165z"/>
<g>
</g>
<g>
</g>
<g>
</g>
<g>
</g>
<g>
</g>
<g>
</g>
<g>
</g>
<g>
</g>
<g>
</g>
<g>
</g>
<g>
</g>
<g>
</g>
<g>
</g>
<g>
</g>
<g>
</g>
</svg>
