<svg id="Capa_1" enable-background="new 0 0 512.011 512.011" height="512" viewBox="0 0 512.011 512.011" width="512" xmlns="http://www.w3.org/2000/svg"><path d="m204.379 365.077c-3.814 0-7.629-1.455-10.539-4.365-5.821-5.82-5.821-15.257 0-21.077 6.406-6.406 9.723-15.281 9.1-24.347-.564-8.212 5.636-15.326 13.847-15.891 8.204-.546 15.326 5.635 15.891 13.847 1.214 17.666-5.26 34.967-17.761 47.468-2.909 2.909-6.723 4.365-10.538 4.365z" fill="#eea849"/><path d="m263.785 365.077c-3.814 0-7.629-1.455-10.539-4.365-5.821-5.82-5.821-15.257 0-21.077 6.406-6.406 9.723-15.281 9.1-24.347-.564-8.212 5.636-15.326 13.847-15.891 8.205-.546 15.327 5.635 15.891 13.847 1.214 17.666-5.26 34.967-17.761 47.468-2.909 2.909-6.724 4.365-10.538 4.365z" fill="#eea849"/><path d="m316.216 215.415 66.388-51.886c14.475-11.313 35.114-10.052 48.105 2.938l69.149 69.149c8.692 8.692 4.619 23.54-7.291 26.581-24.618 6.286-50.726-.875-68.692-18.841l-20.45-20.45c-3.217-3.217-8.525-2.893-11.327.692l-20.334 26.018c-14.311 18.311-41.419 19.966-57.852 3.533-10.718-10.719-9.638-28.4 2.304-37.734z" fill="#f6e3a3"/><path d="m466.821 202.579 33.037 33.037c8.692 8.692 4.619 23.54-7.291 26.581-24.618 6.286-50.726-.875-68.692-18.841l-.378-.378c18.904-3.534 45.222-18.992 43.324-40.399z" fill="#4e5660"/><path d="m266.43 146.935c-74.078 0-103.704 38.496-113.91 78.36-5.582 21.804-23.375 38.328-45.631 41.679l-29.889 4.501c-16.399 2.47-23.263 22.35-11.882 34.412l11.19 11.859c13.593 14.405 34.864 18.526 52.853 10.239l36.373-16.756c5.105-2.352 10.955-2.342 16.105-.09 22.558 9.864 53.691 12.798 84.79 12.798 59.215 0 107.218-39.623 107.218-88.501.001-48.878-48.002-88.501-107.217-88.501z" fill="#fcf2d0"/><path d="m212.112 155.93c-35.457 13.699-52.378 41.189-59.592 69.365-5.582 21.804-23.375 38.328-45.631 41.679l-29.889 4.501c-16.399 2.47-23.263 22.35-11.882 34.412l11.19 11.859c13.593 14.405 34.864 18.526 52.853 10.239l36.372-16.756c5.105-2.352 10.955-2.342 16.105-.09 22.558 9.864 53.691 12.798 84.79 12.798 8.475 0 16.719-.815 24.627-2.35-78.174-17.77-101.275-106.603-78.943-165.657z" fill="#f6e3a3"/><path d="m107.357 283.508c-11.067 2.964-32.768 6.922-47.812 7.013-.331 4.974 1.134 10.129 4.75 14.429 15.963-.734 35.791-4.421 46.83-7.377 3.884-1.041 6.189-5.033 5.149-8.916-1.04-3.884-5.031-6.189-8.917-5.149z" fill="#fcf2d0"/><path d="m114.931 303.423c-11.047 4.979-26.897 10.846-39.246 13.661l.624.661c4.195 4.446 9.123 7.908 14.458 10.332 11.708-3.609 23.296-8.293 30.146-11.38 3.666-1.652 5.299-5.963 3.647-9.628-1.653-3.665-5.966-5.296-9.629-3.646z" fill="#fcf2d0"/><ellipse cx="255.489" cy="214.942" fill="#eda1ab" rx="17.292" ry="13.77"/><ellipse cx="349.217" cy="214.942" fill="#eda1ab" rx="17.292" ry="13.77"/><path d="m195.81 215.415-66.388-51.886c-14.475-11.313-35.114-10.052-48.105 2.938l-69.149 69.149c-8.692 8.692-4.619 23.54 7.291 26.581 24.618 6.286 50.726-.875 68.692-18.841l20.45-20.45c3.217-3.217 8.525-2.893 11.327.692l20.334 26.018c14.311 18.311 41.419 19.966 57.852 3.533 10.719-10.719 9.639-28.4-2.304-37.734z" fill="#fcf2d0"/><path d="m45.206 202.579-33.037 33.037c-8.692 8.692-4.619 23.54 7.291 26.581 24.618 6.286 50.726-.875 68.692-18.841l.378-.378c-18.904-3.534-45.222-18.992-43.324-40.399z" fill="#4e5660"/><path d="m373.936 263.952h-70.697c-13.582 0-24.593-11.011-24.593-24.593 0-13.582 11.011-24.593 24.593-24.593h70.697c13.96 0 27.504 4.749 38.408 13.465 7.134 5.703 7.134 16.551 0 22.255-10.904 8.717-24.448 13.466-38.408 13.466z" fill="#eea849"/><path d="m412.344 228.231c-10.903-8.717-24.448-13.466-38.408-13.466h-3.037c-8.28 16.19-7.73 33.729 4.516 49.154 13.435-.323 26.411-5.026 36.929-13.434 7.134-5.702 7.134-16.55 0-22.254z" fill="#4e5660"/><path d="m273.066 201.205v-6.106c0-4.143-3.357-7.5-7.5-7.5-4.142 0-7.5 3.357-7.5 7.5v6.106c0 4.143 3.358 7.5 7.5 7.5 4.143 0 7.5-3.358 7.5-7.5zm232.096 29.107-69.149-69.148c-15.647-15.646-40.594-17.17-58.026-3.544l-22.272 17.408c-21.215-21.991-53.595-35.593-89.283-35.593-46.006 0-80.106 14.232-101.523 42.31l-30.867-24.124c-17.434-13.627-42.379-12.102-58.026 3.544l-69.151 69.148c-6.012 6.013-8.259 14.497-6.009 22.697 2.249 8.199 8.51 14.35 16.748 16.453 6.438 1.644 12.987 2.444 19.501 2.444 20.852-.001 41.31-8.209 56.351-23.249l20.45-20.45.113.007 15.814 20.235c-6.81 5.883-15.165 9.766-24.061 11.107l-29.888 4.502c-10.357 1.559-18.913 8.677-22.332 18.576-3.418 9.899-1.076 20.781 6.111 28.398l11.189 11.859c10.175 10.782 24.404 16.823 39.063 16.822 2.241 0 4.495-.142 6.743-.429 4.109-.525 7.015-4.281 6.489-8.39-.524-4.108-4.288-7.008-8.39-6.489-12.22 1.562-24.547-2.854-32.996-11.81l-11.189-11.859c-3.395-3.597-4.457-8.534-2.843-13.208s5.496-7.903 10.387-8.64l29.888-4.502c11.671-1.757 22.623-6.835 31.553-14.522 5.199 4.777 11.404 8.285 18.273 10.279 3.977 1.152 8.138-1.134 9.293-5.113 1.154-3.978-1.136-8.139-5.113-9.293-6.294-1.826-11.77-5.539-15.836-10.739-.001-.001-.001-.001-.001-.002l-.407-.521c-.002-.003-.005-.005-.007-.008l-19.922-25.49c-2.657-3.4-6.652-5.502-10.96-5.765-4.313-.26-8.528 1.335-11.579 4.387l-17.141 17.142c-14.758-3.942-32.633-15.25-33.498-29.01l33.963-33.962c10.295-10.297 26.71-11.298 38.183-2.333l66.388 51.886c3.263 2.552 7.978 1.974 10.527-1.291 2.551-3.264 1.973-7.977-1.291-10.527l-23.699-18.522c18.504-24.256 48.635-36.549 89.701-36.549 22.783 0 45.067 6.423 62.747 18.086 13.894 9.165 24.539 21.264 30.738 34.745h-16.37c1.873-1.364 3.094-3.567 3.094-6.061v-6.106c0-4.143-3.357-7.5-7.5-7.5s-7.5 3.357-7.5 7.5v6.106c0 2.494 1.222 4.697 3.094 6.061h-31.495c-17.696 0-32.093 14.397-32.093 32.094s14.396 32.093 32.093 32.093h52.499c-16.67 27.296-51.023 44.985-89.308 44.985-24.585 0-45.262-1.932-61.787-5.757-.005-.001-.01-.002-.015-.003-7.532-1.745-14.202-3.882-19.984-6.411-7.149-3.126-15.259-3.071-22.248.151l-17.258 7.95c-3.763 1.732-5.407 6.188-3.674 9.949 1.732 3.763 6.189 5.407 9.949 3.674l17.258-7.95c3.106-1.43 6.735-1.441 9.963-.03 4.886 2.137 10.228 4.01 16.036 5.631-1.067 4.015-3.143 7.697-6.135 10.689-4.231 4.232-6.562 9.858-6.562 15.843s2.33 11.61 6.562 15.842c4.232 4.231 9.858 6.563 15.843 6.563 5.984 0 11.611-2.331 15.841-6.563 9.684-9.683 16.204-22.061 18.808-35.432 3.735.25 7.588.442 11.555.582-.786 1.121-1.66 2.186-2.639 3.165-4.232 4.232-6.564 9.858-6.564 15.843s2.331 11.611 6.563 15.842 9.858 6.563 15.842 6.563 11.61-2.331 15.843-6.563c10.449-10.45 17.19-23.965 19.333-38.524 33.09-8.182 60.59-28.582 73.838-56.038h1.138c.493 0 .984-.021 1.476-.032h.007c.003 0 .006-.001.009-.001 15.081-.331 29.801-5.644 41.599-15.075 1.769-1.414 3.273-3.07 4.498-4.895 10.7 9.668 23.741 16.217 37.966 19.004.486.095.972.141 1.449.141 3.514 0 6.651-2.482 7.353-6.06.796-4.064-1.853-8.006-5.919-8.802-8.418-1.648-16.323-4.925-23.356-9.618 6.782-2.766 13.271-6.482 18.633-10.782 6.478-5.196 11.168-11.118 13.915-17.399l22.987 22.987c2.033 2.032 2.862 4.804 2.276 7.605-.584 2.788-2.479 5.057-5.069 6.069-3.857 1.508-5.763 5.857-4.255 9.716 1.157 2.961 3.988 4.772 6.987 4.772.908 0 1.832-.166 2.729-.517 7.322-2.862 12.665-9.205 14.29-16.967 1.621-7.734-.754-15.691-6.349-21.287zm-450.787 5.02c5.358 4.297 11.841 8.01 18.617 10.776-15.036 9.973-33.894 13.362-51.677 8.823-4.249-1.085-5.608-4.48-5.993-5.889-.387-1.408-.951-5.021 2.15-8.122l22.987-22.987c2.748 6.281 7.438 12.203 13.916 17.399zm155.239 120.076c-1.398 1.398-3.257 2.169-5.234 2.169-1.978 0-3.837-.771-5.236-2.17-1.398-1.398-2.168-3.257-2.168-5.234 0-1.978.771-3.837 2.168-5.235 5.012-5.011 8.485-11.193 10.177-17.936 4.648.862 9.538 1.599 14.684 2.208-2.217 9.879-7.186 18.993-14.391 26.198zm59.406-.001c-1.398 1.399-3.258 2.17-5.235 2.17s-3.836-.771-5.235-2.17c-1.398-1.398-2.169-3.257-2.169-5.234 0-1.978.77-3.837 2.17-5.235 3.861-3.862 6.82-8.463 8.759-13.514 5.348-.034 10.629-.382 15.817-1.018-2.333 9.417-7.178 18.073-14.107 25.001zm34.219-98.955c-9.425 0-17.093-7.668-17.093-17.093 0-9.426 7.668-17.094 17.093-17.094h56.626c-3.384 11.714-2.613 23.363 2.237 34.187zm104.423-11.824c-8.2 6.554-18.202 10.568-28.603 11.569-8.391-12.577-6.998-24.732-3.354-33.894 11.593.385 22.879 4.53 31.956 11.786 1.255 1.003 2.086 2.393 2.395 3.932.023.162.048.324.082.485.035.281.058.564.058.851-.001 2.064-.925 3.984-2.534 5.271zm18.208-9.884-1.566-1.567c-1.242-4.212-3.745-7.981-7.277-10.804-11.615-9.285-26.062-14.583-40.898-15.06-2.675-7.361-6.322-14.308-10.838-20.733l21.931-17.141c11.473-8.966 27.887-7.963 38.183 2.333l33.963 33.962c-.865 13.76-18.74 25.067-33.498 29.01z"/></svg>