<svg height="480pt" viewBox="0 -88 480.1056 480" width="480pt" xmlns="http://www.w3.org/2000/svg"><path d="m8.097656 200.058594c-3.746094.042968-7.023437-2.515625-7.882812-6.164063-.863282-3.648437.925781-7.40625 4.300781-9.039062l31.582031-15.742188 88.121094-57.753906c3.691406-2.429687 8.65625-1.402344 11.085938 2.289063 2.429687 3.695312 1.40625 8.660156-2.285157 11.089843l-88.539062 58.007813c-.257813.171875-.523438.328125-.796875.472656l-32 16c-1.113282.554688-2.339844.839844-3.585938.839844zm0 0" fill="#ea9d2d"/><path d="m16.097656 248.058594c-3.234375-.003906-6.152344-1.953125-7.390625-4.941406-1.234375-2.988282-.550781-6.429688 1.734375-8.714844l32-32c3.140625-3.03125 8.128906-2.988282 11.214844.097656s3.128906 8.074219.097656 11.214844l-32 32c-1.5 1.5-3.535156 2.339844-5.65625 2.34375zm0 0" fill="#ea9d2d"/><path d="m40.097656 184.058594h-32c-4.417968 0-7.9999998-3.582032-7.9999998-8 0-4.417969 3.5820318-8 7.9999998-8h32c4.417969 0 8 3.582031 8 8 0 4.417968-3.582031 8-8 8zm0 0" fill="#ea9d2d"/><path d="m8.097656 232.058594c-3.839844.003906-7.144531-2.714844-7.871094-6.488282-.726562-3.769531 1.328126-7.523437 4.894532-8.945312l38.863281-15.535156 87.050781-71.199219c2.207032-1.863281 5.246094-2.390625 7.949219-1.382813 2.707031 1.007813 4.660156 3.394532 5.109375 6.246094.453125 2.851563-.667969 5.726563-2.929688 7.519532l-88 72c-.628906.515624-1.335937.933593-2.089843 1.238281l-40 16c-.949219.371093-1.957031.554687-2.976563.546875zm0 0" fill="#ea9d2d"/><path d="m125.625 112.570312 18.03125 33.207032c38.136719 70.246094 101.023438 123.808594 176.441406 150.28125l-23.296875-114.128906-171.199219-69.359376" fill="#bdbdbd"/><path d="m440.097656 32.058594 32 16h-40zm0 0" fill="#f3af3e"/><path d="m439.722656 27.746094c-1.832031-9.824219-9.53125-17.503906-19.359375-19.3125-6.136719-1.109375-12.457031.246094-17.601562 3.765625-3.285157 2.402343-7.222657 3.746093-11.289063 3.859375h-2.023437c-20.628907 0-37.351563 16.722656-37.351563 37.351562v34.648438h-32c-20.21875-25.277344-50.832031-39.992188-83.199218-40h-3.878907c-26.339843-.007813-51.746093 9.738281-71.320312 27.359375l-34.882813 31.390625-15.328125 12.65625.609375.59375 118.808594 95.046875c27.238281 21.777343 58.113281 38.570312 91.199219 49.597656l93.992187 31.355469-35.839844-71.679688c-18.527343-37.042968-45.421874-69.261718-78.558593-94.105468l-13.601563-10.214844h66.648438c20.628906 0 37.351562-16.722656 37.351562-37.355469v-34.644531h6.234375c7.148438 8.011718 18.761719 10.28125 28.402344 5.550781s14.949219-15.304687 12.988281-25.863281zm0 0" fill="#ebebeb"/><path d="m392.097656 248.058594-11.144531-3.203125c-28.816406-8.226563-53.433594-27.101563-68.855469-52.796875l-44.273437-22.136719c-23.671875-11.832031-45.28125-27.402344-64-46.113281l-19.726563-19.75-48 35.199218 94.808594 75.847657c27.238281 21.777343 58.113281 38.570312 91.199219 49.597656l93.992187 31.355469zm0 0" fill="#cdcdcd"/><g fill="#a8a8a8"><path d="m384.097656 296.058594c-2.867187.007812-5.519531-1.519532-6.953125-4l-48-84c-1.5-2.488282-1.535156-5.589844-.089843-8.109375 1.441406-2.519531 4.136718-4.058594 7.039062-4.023438 2.902344.035157 5.558594 1.640625 6.941406 4.195313l48 84c2.1875 3.835937.855469 8.71875-2.976562 10.910156-1.207032.683594-2.574219 1.039062-3.960938 1.027344zm0 0"/><path d="m336.097656 280.058594c-4.417968 0-8-3.582032-8-8v-64c0-4.417969 3.582032-8 8-8 4.417969 0 8 3.582031 8 8v64c0 4.417968-3.582031 8-8 8zm0 0"/><path d="m304.097656 264.058594c-.332031-.003906-.667968-.023438-1-.066406-4.382812-.546876-7.488281-4.542969-6.945312-8.925782l8-64c.640625-4.296875 4.59375-7.296875 8.90625-6.757812 4.3125.535156 7.402344 4.417968 6.96875 8.742187l-8 64c-.5 3.996094-3.898438 7-7.929688 7.007813zm0 0"/><path d="m272.097656 248.058594c-.742187-.003906-1.484375-.109375-2.199218-.304688-4.246094-1.21875-6.703126-5.644531-5.488282-9.890625l16-56c.695313-2.84375 2.894532-5.082031 5.726563-5.828125 2.832031-.75 5.847656.109375 7.859375 2.238282 2.011718 2.132812 2.699218 5.191406 1.789062 7.976562l-16 56c-.976562 3.433594-4.113281 5.804688-7.6875 5.808594zm0 0"/><path d="m240.097656 224.058594c-2.878906-.003906-5.539062-1.558594-6.957031-4.066406-1.414063-2.507813-1.375-5.585938.109375-8.054688l27.726562-46.136719c1.429688-2.539062 4.121094-4.105469 7.035157-4.082031 2.914062.019531 5.585937 1.625 6.972656 4.1875 1.390625 2.558594 1.277344 5.671875-.292969 8.125l-27.730468 46.144531c-1.445313 2.410157-4.050782 3.882813-6.863282 3.882813zm0 0"/><path d="m208.097656 200.058594c-3.398437 0-6.425781-2.144532-7.550781-5.351563s-.101563-6.777343 2.550781-8.898437l40-32c3.449219-2.761719 8.488282-2.203125 11.25 1.25 2.761719 3.449218 2.199219 8.484375-1.25 11.246094l-40 32c-1.417968 1.136718-3.183594 1.753906-5 1.753906zm0 0"/><path d="m152.097656 160.058594c-3.660156.003906-6.855468-2.476563-7.761718-6.019532-.90625-3.546874.710937-7.253906 3.921874-9.007812l51.761719-28.238281c3.878907-2.117188 8.738281-.6875 10.855469 3.191406s.6875 8.742187-3.191406 10.855469l-51.761719 28.242187c-1.171875.640625-2.488281.976563-3.824219.976563zm0 0"/></g><path d="m379.769531 17.480469c-1.070312.289062-2.136719.609375-3.199219.984375-1.25.46875-2.476562 1-3.671874 1.601562-.550782.269532-1.089844.582032-1.601563.878906-1.382813.769532-2.714844 1.625-4 2.550782l10.257813 6.6875c7.585937 5.144531 14.558593 11.140625 20.777343 17.875l1.726563 1.597656c4.34375 4.085938 10.074218 6.371094 16.039062 6.402344 12.4375.015625 22.828125-9.472656 23.9375-21.859375 1.109375-12.390625-7.429687-23.574219-19.671875-25.765625-6.136719-1.109375-12.457031.246094-17.601562 3.765625-3.285157 2.402343-7.222657 3.746093-11.289063 3.859375h-2.023437c-2.269531.019531-4.535157.25-6.765625.679687-.984375.191407-1.953125.480469-2.914063.742188zm0 0" fill="#e06661"/><path d="m416.097656 40.058594c-1.039062.011718-2.070312-.179688-3.039062-.5625-.972656-.433594-1.863282-1.027344-2.640625-1.757813-1.503907-1.507812-2.339844-3.554687-2.320313-5.679687.03125-2.121094.859375-4.148438 2.320313-5.679688 1.914062-1.890625 4.644531-2.699218 7.28125-2.160156.5.085938.984375.246094 1.4375.476562.492187.160157.953125.40625 1.363281.722657.457031.273437.886719.59375 1.277344.960937 1.460937 1.53125 2.292968 3.558594 2.320312 5.679688-.011718 1.042968-.230468 2.078125-.640625 3.039062-.40625.96875-.976562 1.859375-1.679687 2.640625-1.507813 1.5-3.550782 2.335938-5.679688 2.320313zm0 0" fill="#a83b32"/><path d="m177.984375 179.121094c-3.746094.046875-7.023437-2.515625-7.882813-6.164063-.859374-3.648437.925782-7.402343 4.300782-9.035156l54.121094-27.066406c3.953124-1.972657 8.757812-.367188 10.734374 3.585937 1.976563 3.953125.371094 8.761719-3.582031 10.734375l-54.121093 27.058594c-1.105469.570313-2.324219.875-3.570313.886719zm0 0" fill="#a8a8a8"/><path d="m301.699219 130.273438-13.601563-10.214844c-5.191406-10.386719-13.613281-18.808594-24-24l-4.671875-2.335938c-7.449219-3.730468-15.667969-5.667968-24-5.664062h-.992187c-6.824219-.003906-13.589844 1.300781-19.925782 3.839844l-30.410156 12.160156 19.753906 19.75c18.714844 18.710937 40.324219 34.28125 64 46.113281l44.246094 22.136719c15.421875 25.695312 40.039063 44.570312 68.855469 52.796875l11.144531 3.203125-11.839844-23.679688c-18.527343-37.042968-45.421874-69.261718-78.558593-94.105468zm0 0" fill="#e4e4e2"/><path d="m475.675781 40.898438-28.042969-14.015626c0-.167968 0-.328124 0-.496093-2.441406-13.136719-12.722656-23.410157-25.863281-25.832031-8.195312-1.476563-16.640625.335937-23.511719 5.039062-1.957031 1.476562-4.3125 2.335938-6.757812 2.464844h-2.019531c-25.046875.007812-45.355469 20.300781-45.382813 45.351562v26.648438h-20.238281c-21.710937-25.449219-53.507813-40.078125-86.960937-40h-3.878907c-28.308593-.015625-55.621093 10.464844-76.648437 29.414062l-49.601563 44.640625c-1.746093 1.570313-2.714843 3.828125-2.648437 6.175781.054687 1.25.40625 2.472657 1.023437 3.558594l-67.445312 44.210938h-29.601563c-4.417968 0-7.9999998 3.582031-7.9999998 8 .0351558 3.855468 2.8476558 7.121094 6.6562498 7.726562l-2.230468 1.113282c-3.957032 1.972656-5.558594 6.78125-3.585938 10.734374 1.976562 3.953126 6.78125 5.558594 10.738281 3.585938l32-16c.273438-.144531.539063-.300781.796875-.472656l73.175782-48 3.730468 2.976562-77.402344 63.359375-38.855468 15.542969c-4.105469 1.644531-6.097656 6.304688-4.453125 10.40625 1.640625 4.105469 6.300781 6.101562 10.40625 4.457031l3.808593-1.527343-4.441406 4.441406c-2.078125 2.007812-2.914062 4.980468-2.179687 7.777344.730469 2.796874 2.914062 4.984374 5.710937 5.714843s5.773438-.101562 7.78125-2.179687l31.734375-31.738282 80.664063-66.023437 2.875 2.296875c39.03125 71.730469 103.339844 126.386719 180.421875 153.351562 2.71875.953126 5.738281.371094 7.90625-1.519531 2.171875-1.890625 3.15625-4.804687 2.582031-7.625l-4.230469-20.800781 89.863281 29.953125c.8125.285156 1.667969.4375 2.527344.449219 2.78125.015625 5.371094-1.414063 6.835938-3.777344 1.46875-2.359375 1.605468-5.3125.363281-7.800781l-35.839844-71.679688c-18.09375-36.058593-43.863281-67.714843-75.503906-92.742187h42.792969c25.035156-.027344 45.324218-20.316406 45.351562-45.355469v-23.007813c11.789063 6.953126 26.71875 5.484376 36.921875-3.636718h35.078125c3.714844 0 6.941406-2.550782 7.792969-6.164063.855469-3.613281-.894531-7.339843-4.214844-8.996093zm-292.378906 73.671874 7.351563 7.34375-37.710938 20.542969-3.6875-2.953125zm144.800781 109.613282v34.105468l-3.421875-1.136718c-4.082031-1.359375-8.117187-2.808594-12.113281-4.34375l4.96875-39.726563c3.292969 3.910157 6.824219 7.621094 10.566406 11.101563zm18.28125 13.945312 18.519532 32.441406-20.800782-6.945312v-27.046875c.800782.503906 1.496094 1.078125 2.28125 1.550781zm-49.128906 8.238282c-5.535156-2.503907-10.988281-5.171876-16.351562-8l13.238281-46.308594 9.320312 4.65625zm-30.679688-16.085938c-6.273437-3.808594-12.390624-7.886719-18.398437-12.175781l22.671875-37.71875 8.71875 4.359375zm-31.199218-21.863281-17.464844-13.960938 31.792969-25.414062c2.304687 1.34375 4.671875 2.589843 7.023437 3.871093zm-30.265625-24.207031-13.597657-10.914063 36.589844-18.28125c2.402344 1.730469 4.839844 3.304687 7.265625 4.953125zm-27.40625-21.929688-11.199219-8.960938 36.167969-19.734374c3.765625 3.589843 7.558593 7.160156 11.527343 10.511718zm-1.273438 19.480469 49.496094 39.589843c24.210937 19.386719 51.257813 34.933594 80.191406 46.097657l3.265625 16c-52.730468-21.199219-98.691406-56.351563-132.960937-101.6875zm223.878907 100.597656-12.613282-4.207031-16-27.953125c2.335938.800781 4.648438 1.683593 7.046875 2.402343l7.761719 2.222657zm-27.199219-54.398437 3.511719 7.015624c-24.113282-8.476562-44.507813-25.113281-57.65625-47.03125-.101563-.175781-.261719-.304687-.375-.464843-.113282-.160157-.328126-.414063-.503907-.625-.464843-.539063-1.003906-1.007813-1.601562-1.398438-.191407-.128906-.351563-.273437-.550781-.382812-.078126-.050781-.152344-.121094-.238282-.167969l-44.273437-22.136719c-22.898438-11.441406-43.796875-26.5-61.894531-44.601562l-11.203126-11.199219 19.144532-7.65625c5.398437-2.15625 11.15625-3.261719 16.96875-3.253906h1c7.085937-.003906 14.074218 1.640625 20.417968 4.796875l4.671876 2.335937c8.8125 4.445313 15.957031 11.613282 20.375 20.441406.0625.121094.191406.191407.265624.3125.511719.976563 1.226563 1.832032 2.09375 2.511719l13.601563 10.214844c32.125 24.128906 58.222656 55.371094 76.238281 91.28125zm10.992187-145.257813c-.015625 16.207031-13.148437 29.335937-29.351562 29.355469h-62.128906c-5.992188-9.890625-14.628907-17.914063-24.933594-23.160156l-4.671875-2.335938c-8.570313-4.269531-18.007813-6.492188-27.578125-6.503906h-1c-7.84375-.003906-15.621094 1.492187-22.902344 4.40625l-30.402344 12.160156c-.617187.253906-1.203125.582031-1.742187.976562l-43.054688 31.582032-11.859375-9.488282 42.59375-38.335937c18.089844-16.300781 41.578125-25.316406 65.925782-25.300781h3.90625c29.960937-.070313 58.3125 13.558594 76.976562 37 1.511719 1.890625 3.800781 2.992187 6.222656 3h32c4.417969 0 8-3.582032 8-8v-34.648438c.011719-6.089844 1.929688-12.019531 5.480469-16.960937l4.320313.6875c5.652343.933593 10.886718 3.550781 15.023437 7.511719-.527344 1.058593-.808594 2.226562-.824219 3.410156zm44.25-40.359375c-3.035156 3.4375-7.378906 5.433594-11.964844 5.5-4.582031.066406-8.980468-1.800781-12.117187-5.148438-.277344-.234374-.574219-.449218-.886719-.636718-4.707031-7.683594-11.644531-13.75-19.890625-17.386719 1.960938-.40625 3.960938-.613281 5.960938-.613281h2.015625c5.675781-.101563 11.179687-1.933594 15.785156-5.25 3.417969-2.363282 7.640625-3.265625 11.726562-2.496094 6.496094 1.246094 11.585938 6.3125 12.867188 12.800781.875 4.710938-.410156 9.566407-3.496094 13.230469zm0 0"/><path d="m420.5 25.417969c-.410156-.316407-.871094-.5625-1.363281-.722657-.453125-.230468-.9375-.390624-1.4375-.476562-2.636719-.539062-5.367188.269531-7.28125 2.160156-1.460938 1.53125-2.289063 3.558594-2.320313 5.679688-.019531 2.125.816406 4.171875 2.320313 5.679687.777343.730469 1.667969 1.324219 2.640625 1.757813.96875.382812 2 .574218 3.039062.5625 2.128906.015625 4.171875-.820313 5.679688-2.320313.703125-.78125 1.273437-1.671875 1.679687-2.640625.410157-.960937.628907-1.996094.640625-3.039062-.027344-2.121094-.859375-4.148438-2.320312-5.679688-.390625-.367187-.820313-.6875-1.277344-.960937zm0 0"/></svg>