<?xml version="1.0" encoding="iso-8859-1"?>
<!-- Generator: Adobe Illustrator 19.0.0, SVG Export Plug-In . SVG Version: 6.00 Build 0)  -->
<svg version="1.1" id="Capa_1" xmlns="http://www.w3.org/2000/svg" xmlns:xlink="http://www.w3.org/1999/xlink" x="0px" y="0px"
	 viewBox="0 0 511.992 511.992" style="enable-background:new 0 0 511.992 511.992;" xml:space="preserve">
<g>
	<g>
		<path d="M486.417,140.796H179.166c-14.097,0-25.574,11.477-25.574,25.574v204.851c0,14.097,11.477,25.574,25.574,25.574h192.76
			l82.833,82.833c1.638,1.63,3.823,2.5,6.042,2.5c1.101,0,2.21-0.205,3.26-0.649c3.183-1.314,5.265-4.437,5.265-7.885v-76.8h17.092
			c14.106,0,25.574-11.477,25.574-25.574V166.37C511.991,152.273,500.514,140.796,486.417,140.796z M494.933,371.221
			c0,4.693-3.823,8.508-8.508,8.508H460.8c-4.71,0-8.533,3.814-8.533,8.533v64.734L381.5,382.229c-1.596-1.604-3.772-2.5-6.033-2.5
			H179.174c-4.693,0-8.508-3.814-8.508-8.508V166.37c0-4.693,3.814-8.508,8.508-8.508h307.251c4.693,0,8.508,3.814,8.508,8.508
			V371.221z"/>
	</g>
</g>
<g>
	<g>
		<path d="M332.826,29.862H25.574C11.477,29.862,0,41.34,0,55.437v204.851c0,14.097,11.477,25.574,25.574,25.574h17.092v76.8
			c0,3.447,2.082,6.571,5.274,7.885c1.05,0.444,2.159,0.649,3.26,0.649c2.219,0,4.403-0.87,6.033-2.5l82.842-82.833h22.059
			c4.71,0,8.533-3.814,8.533-8.533V166.37c0-4.693,3.814-8.508,8.508-8.508h170.692c4.71,0,8.533-3.814,8.533-8.533V55.437
			C358.4,41.34,346.923,29.862,332.826,29.862z M341.333,140.796H179.174c-14.097,0-25.574,11.477-25.574,25.574v102.426h-17.067
			c-2.261,0-4.429,0.896-6.033,2.5l-70.767,70.767v-64.734c0-4.719-3.823-8.533-8.533-8.533H25.574
			c-4.693,0-8.508-3.814-8.508-8.508V55.437c0-4.693,3.814-8.508,8.508-8.508h307.251c4.693,0,8.508,3.814,8.508,8.508V140.796z"/>
	</g>
</g>
<g>
	<g>
		<path d="M332.8,226.129c-23.526,0-42.667,19.14-42.667,42.667c0,23.526,19.14,42.667,42.667,42.667
			c23.526,0,42.667-19.14,42.667-42.667C375.467,245.269,356.326,226.129,332.8,226.129z M332.8,294.396
			c-14.114,0-25.6-11.486-25.6-25.6c0-14.114,11.486-25.6,25.6-25.6c14.114,0,25.6,11.486,25.6,25.6
			C358.4,282.91,346.914,294.396,332.8,294.396z"/>
	</g>
</g>
<g>
	<g>
		<path d="M435.2,226.129c-23.526,0-42.667,19.14-42.667,42.667c0,23.526,19.14,42.667,42.667,42.667
			c23.526,0,42.667-19.14,42.667-42.667C477.867,245.269,458.726,226.129,435.2,226.129z M435.2,294.396
			c-14.114,0-25.6-11.486-25.6-25.6c0-14.114,11.486-25.6,25.6-25.6s25.6,11.486,25.6,25.6
			C460.8,282.91,449.314,294.396,435.2,294.396z"/>
	</g>
</g>
<g>
	<g>
		<path d="M230.4,226.129c-23.526,0-42.667,19.14-42.667,42.667c0,23.526,19.14,42.667,42.667,42.667
			c23.526,0,42.667-19.14,42.667-42.667C273.067,245.269,253.926,226.129,230.4,226.129z M230.4,294.396
			c-14.114,0-25.6-11.486-25.6-25.6c0-14.114,11.486-25.6,25.6-25.6s25.6,11.486,25.6,25.6
			C256,282.91,244.514,294.396,230.4,294.396z"/>
	</g>
</g>
<g>
</g>
<g>
</g>
<g>
</g>
<g>
</g>
<g>
</g>
<g>
</g>
<g>
</g>
<g>
</g>
<g>
</g>
<g>
</g>
<g>
</g>
<g>
</g>
<g>
</g>
<g>
</g>
<g>
</g>
</svg>
