<?xml version="1.0" encoding="iso-8859-1"?>
<!-- Generator: Adobe Illustrator 19.0.0, SVG Export Plug-In . SVG Version: 6.00 Build 0)  -->
<svg version="1.1" id="Capa_1" xmlns="http://www.w3.org/2000/svg" xmlns:xlink="http://www.w3.org/1999/xlink" x="0px" y="0px"
	 viewBox="0 0 422.777 422.777" style="enable-background:new 0 0 422.777 422.777;" xml:space="preserve">
<g>
	<g>
		<path d="M416.628,82.068l-75.84-75.84c-8.226-8.198-21.534-8.198-29.76,0l-83.56,83.16l-20.96,20.96l-20.88,21.04l-104.8,104.8
			l-20.96,20.96l-53.72,53.64c-8.198,8.226-8.198,21.534,0,29.76l76,76c8.226,8.198,21.534,8.198,29.76,0l304.72-304.72
			C424.826,103.602,424.826,90.295,416.628,82.068z M409.668,104.868l-304.72,304.72c-4.351,4.125-11.169,4.125-15.52,0l-76-76
			c-4.272-4.292-4.272-11.228,0-15.52l50.04-50.32l39.12,39.12c1.875,2.057,5.063,2.205,7.12,0.33
			c2.057-1.875,2.205-5.063,0.33-7.12c-0.105-0.115-0.215-0.225-0.33-0.33l-39.12-39.12l13.84-13.84l17.76,17.76
			c1.875,2.057,5.063,2.205,7.12,0.33c2.057-1.875,2.205-5.063,0.33-7.12c-0.105-0.115-0.215-0.225-0.33-0.33l-17.84-17.76
			l13.84-13.84l17.76,17.76c2.057,1.875,5.245,1.727,7.12-0.33c1.753-1.924,1.753-4.866,0-6.79l-17.76-17.76l13.84-13.84
			l39.12,39.12c2.057,1.875,5.245,1.727,7.12-0.33c1.753-1.924,1.753-4.866,0-6.79l-39.12-39.12l13.84-13.84l17.76,17.76
			c1.875,2.057,5.063,2.205,7.12,0.33s2.205-5.063,0.33-7.12c-0.105-0.115-0.215-0.225-0.33-0.33l-17.76-17.76l13.84-13.84
			l17.76,17.76c2.057,1.875,5.245,1.727,7.12-0.33c1.753-1.924,1.753-4.866,0-6.79l-17.6-17.76l13.84-13.84l39.12,39.12
			c2.192,1.716,5.359,1.33,7.075-0.862c1.442-1.842,1.427-4.433-0.035-6.258l-39.2-39.12l13.84-13.84l17.76,17.76
			c1.875,2.057,5.063,2.205,7.12,0.33c2.057-1.875,2.205-5.063,0.33-7.12c-0.105-0.115-0.215-0.225-0.33-0.33l-17.76-17.76
			l13.84-13.84l17.76,17.76c2.057,1.875,5.245,1.727,7.12-0.33c1.753-1.924,1.753-4.866,0-6.79l-17.76-17.76l13.84-13.84
			l39.12,39.12c2.057,1.875,5.245,1.727,7.12-0.33c1.753-1.924,1.753-4.866,0-6.79l-39.12-39.12l13.84-13.84l17.76,17.76
			c2.057,1.875,5.245,1.727,7.12-0.33c1.753-1.924,1.753-4.866,0-6.79l-17.76-17.76l13.84-13.84l39.12,39.12
			c2.057,1.875,5.245,1.727,7.12-0.33c1.753-1.924,1.753-4.866,0-6.79l-39.12-39.12l16.88-16.88c4.351-4.125,11.169-4.125,15.52,0
			l76,76c4.272,4.292,4.272,11.228,0,15.52L409.668,104.868z"/>
	</g>
</g>
<g>
	<g>
		<path d="M91.498,331.418c-0.01-0.01-0.02-0.02-0.03-0.03c-9.613-9.565-25.147-9.565-34.76,0c-9.615,9.599-9.628,25.175-0.03,34.79
			c9.599,9.615,25.175,9.628,34.79,0.03C101.084,356.609,101.097,341.033,91.498,331.418z M84.428,358.988l-0.04,0.08
			c-5.677,5.695-14.896,5.708-20.591,0.031c-5.695-5.677-5.708-14.896-0.031-20.591s14.896-5.708,20.591-0.031
			c0.01,0.01,0.021,0.021,0.031,0.031C90.012,344.171,90.03,353.304,84.428,358.988z"/>
	</g>
</g>
<g>
</g>
<g>
</g>
<g>
</g>
<g>
</g>
<g>
</g>
<g>
</g>
<g>
</g>
<g>
</g>
<g>
</g>
<g>
</g>
<g>
</g>
<g>
</g>
<g>
</g>
<g>
</g>
<g>
</g>
</svg>
