<svg height="496pt" viewBox="0 -88 496 496" width="496pt" xmlns="http://www.w3.org/2000/svg"><path d="m96 88h304c48.601562 0 88 50.144531 88 112s-39.398438 112-88 112h-304" fill="#c18e59"/><path d="m181.128906 227.9375c1.808594-8.945312 2.871094-18.273438 2.871094-27.9375 0-15.398438-2.449219-30.070312-6.863281-43.425781l142.863281-28.574219-161.921875-7.359375c-15.910156-20.167969-37.847656-32.640625-62.078125-32.640625-48.601562 0-88 50.144531-88 112s39.398438 112 88 112c33.128906 0 61.953125-23.320312 76.96875-57.742188l75.03125-6.257812zm0 0" fill="#efbe9a"/><path d="m152 200c0-44.183594-25.070312-80-56-80s-56 35.816406-56 80 25.070312 80 56 80 56-35.816406 56-80zm0 0" fill="#db9b7c"/><path d="m120 200c0-26.507812-10.746094-48-24-48s-24 21.492188-24 48 10.746094 48 24 48 24-21.492188 24-48zm0 0" fill="#efbe9a"/><path d="m288 8h32c17.671875 0 32 14.328125 32 32v16h-32c-17.671875 0-32-14.328125-32-32zm0 0" fill="#568e53"/><path d="m400 320h-304v-16h304c44.113281 0 80-46.65625 80-104s-35.886719-104-80-104h-304v-16h304c52.9375 0 96 53.832031 96 120s-43.0625 120-96 120zm0 0"/><path d="m96 256c-12.441406 0-23.078125-11.136719-28.472656-29.785156l15.367187-4.4375c3.457031 11.964844 9.210938 18.222656 13.105469 18.222656 6.519531 0 16-15.585938 16-40 0-2.496094-.105469-4.945312-.304688-7.328125l15.945313-1.34375c.230469 2.824219.359375 5.71875.359375 8.671875 0 31.921875-13.761719 56-32 56zm0 0"/><path d="m64.359375 208.671875c-.230469-2.824219-.359375-5.71875-.359375-8.671875 0-31.921875 13.761719-56 32-56 12.441406 0 23.078125 11.136719 28.472656 29.785156l-15.367187 4.4375c-3.457031-11.964844-9.210938-18.222656-13.105469-18.222656-6.519531 0-16 15.585938-16 40 0 2.496094.105469 4.945312.304688 7.328125zm0 0"/><path d="m96 288c-35.289062 0-64-39.480469-64-88 0-8.761719.929688-17.40625 2.753906-25.71875l15.621094 3.4375c-1.574219 7.175781-2.375 14.671875-2.375 22.28125 0 39.703125 21.527344 72 48 72 4.367188 0 8.695312-.894531 12.871094-2.671875l6.257812 14.71875c-6.160156 2.625-12.601562 3.953125-19.128906 3.953125zm0 0"/><path d="m142.601562 260.503906-13.195312-9.046875c9.410156-13.722656 14.59375-31.992187 14.59375-51.457031 0-39.695312-21.527344-72-48-72-9.953125 0-19.550781 4.65625-27.753906 13.457031l-11.703125-10.90625c11.304687-12.136719 24.953125-18.550781 39.457031-18.550781 35.289062 0 64 39.480469 64 88 0 22.65625-6.175781 44.152344-17.398438 60.503906zm0 0"/><path d="m96 320c-52.9375 0-96-53.832031-96-120s43.0625-120 96-120c24.832031 0 48.144531 11.625 66.023438 32.816406l158.335937 7.191406c4.039063.183594 7.304687 3.351563 7.617187 7.382813.3125 4.035156-2.441406 7.65625-6.410156 8.449219l-134.285156 26.863281c3.132812 12 4.71875 24.503906 4.71875 37.296875 0 7.3125-.585938 14.800781-1.742188 22.320312l60.046876 18.015626c3.679687 1.113281 6.054687 4.671874 5.65625 8.496093-.402344 3.832031-3.464844 6.832031-7.296876 7.144531l-70.375 5.863282c-17.304687 36-48.464843 58.160156-82.289062 58.160156zm0-224c-44.113281 0-80 46.65625-80 104s35.886719 104 80 104c28.710938 0 55.390625-20.289062 69.632812-52.945312 1.175782-2.695313 3.734376-4.527344 6.664063-4.773438l32.96875-2.753906-26.441406-7.925782c-3.960938-1.1875-6.359375-5.195312-5.535157-9.25 1.800782-8.894531 2.710938-17.765624 2.710938-26.351562 0-14.183594-2.175781-27.953125-6.464844-40.910156-.71875-2.179688-.472656-4.554688.679688-6.539063s3.097656-3.367187 5.34375-3.824219l78.578125-15.710937-96.417969-4.382813c-2.320312-.105468-4.480469-1.21875-5.917969-3.03125-15.058593-19.089843-34.871093-29.601562-55.800781-29.601562zm0 0"/><path d="m392 128c-26.472656 0-48-21.527344-48-48v-24h16v24c0 17.648438 14.351562 32 32 32zm0 0"/><path d="m392 160c-26.472656 0-48-21.527344-48-48v-56h16v56c0 17.648438 14.351562 32 32 32zm0 0"/><path d="m352 64h-32c-22.054688 0-40-17.945312-40-40v-16c0-4.414062 3.585938-8 8-8h32c22.054688 0 40 17.945312 40 40v16c0 4.414062-3.585938 8-8 8zm-56-48v8c0 13.230469 10.769531 24 24 24h24v-8c0-13.230469-10.769531-24-24-24zm0 0"/><path d="m261.664062 293.640625-11.335937-11.28125.886719-.886719c21.601562-21.59375 50.28125-33.472656 80.785156-33.472656 26.230469 0 50.894531-10.214844 69.457031-28.769531l.871094-.871094 11.335937 11.28125-.886718.886719c-21.59375 21.59375-50.273438 33.472656-80.777344 33.472656-26.230469 0-50.894531 10.214844-69.457031 28.769531zm0 0"/><path d="m383.152344 200h-11.152344c-14.289062 0-28.265625-2.695312-41.535156-8l-2.855469-1.144531c-22.777344-9.113281-48.441406-9.113281-71.210937 0l-21.429688 8.570312-5.9375-14.859375 21.433594-8.566406c26.550781-10.609375 56.519531-10.609375 83.078125 0l2.855469 1.144531c11.386718 4.550781 23.363281 6.855469 35.601562 6.855469h11.152344c10.328125 0 20.519531-1.65625 30.3125-4.910156l32.007812-10.675782 5.0625 15.171876-32.007812 10.671874c-11.429688 3.8125-23.328125 5.742188-35.375 5.742188zm0 0"/></svg>